/* XPM */
static char * startmenuBL_xpm[] = {
"21 164 264 2",
"  	c None",
". 	c #0F1016",
"+ 	c #0E0F15",
"@ 	c #0E1015",
"# 	c #0F0F16",
"$ 	c #101117",
"% 	c #101217",
"& 	c #101118",
"* 	c #0F1118",
"= 	c #0F1217",
"- 	c #101218",
"; 	c #111319",
"> 	c #11131A",
", 	c #12131A",
"' 	c #11141B",
") 	c #12141B",
"! 	c #13151C",
"~ 	c #14151D",
"{ 	c #14161D",
"] 	c #13161D",
"^ 	c #13151E",
"/ 	c #13161E",
"( 	c #14151E",
"_ 	c #15171E",
": 	c #151720",
"< 	c #16171F",
"[ 	c #161720",
"} 	c #151820",
"| 	c #161821",
"1 	c #171922",
"2 	c #181923",
"3 	c #171A23",
"4 	c #181A23",
"5 	c #191B24",
"6 	c #1A1B25",
"7 	c #191B26",
"8 	c #191C26",
"9 	c #191C25",
"0 	c #1A1B26",
"a 	c #1A1C25",
"b 	c #1A1C27",
"c 	c #1B1D28",
"d 	c #1B1E28",
"e 	c #1C1E29",
"f 	c #1C1D29",
"g 	c #1B1F29",
"h 	c #1D1F2A",
"i 	c #1D1F2C",
"j 	c #1E1F2B",
"k 	c #1D202B",
"l 	c #1D202C",
"m 	c #1E202B",
"n 	c #1E212D",
"o 	c #1F212E",
"p 	c #52555E",
"q 	c #B3B4B8",
"r 	c #D7D7DA",
"s 	c #D5D6D8",
"t 	c #61636B",
"u 	c #1E222D",
"v 	c #5A5D65",
"w 	c #FDFDFD",
"x 	c #FFFFFF",
"y 	c #9FA0A6",
"z 	c #1F222E",
"A 	c #C4C5C8",
"B 	c #83848B",
"C 	c #2C2F3A",
"D 	c #242632",
"E 	c #484A54",
"F 	c #B5B6BA",
"G 	c #60626B",
"H 	c #ECECED",
"I 	c #C9C9CD",
"J 	c #20232F",
"K 	c #C7C8CB",
"L 	c #B9BABE",
"M 	c #FBFBFB",
"N 	c #999A9F",
"O 	c #6C6E76",
"P 	c #E9E9EA",
"Q 	c #898A91",
"R 	c #85878D",
"S 	c #42454F",
"T 	c #42444E",
"U 	c #202330",
"V 	c #DCDDDF",
"W 	c #202430",
"X 	c #656870",
"Y 	c #222532",
"Z 	c #81838A",
"` 	c #ABACB1",
" .	c #2C2F3B",
"..	c #434651",
"+.	c #CDCED0",
"@.	c #212431",
"#.	c #7F8189",
"$.	c #F8F8F8",
"%.	c #E3E4E5",
"&.	c #575A63",
"*.	c #242834",
"=.	c #8B8D93",
"-.	c #F9F9FA",
";.	c #D0D1D3",
">.	c #FEFEFE",
",.	c #9A9CA2",
"'.	c #262936",
").	c #4B4E58",
"!.	c #D5D5D8",
"~.	c #F2F2F3",
"{.	c #787981",
"].	c #252835",
"^.	c #8F9197",
"/.	c #FCFCFC",
"(.	c #D9DADC",
"_.	c #52545F",
":.	c #95979D",
"<.	c #BCBDC1",
"[.	c #393C47",
"}.	c #4E505B",
"|.	c #E5E6E7",
"1.	c #EFEFF0",
"2.	c #70727A",
"3.	c #2B2E3A",
"4.	c #9E9FA5",
"5.	c #D0D1D4",
"6.	c #40424E",
"7.	c #5C5E67",
"8.	c #E3E3E5",
"9.	c #EAEAEB",
"0.	c #666871",
"a.	c #5D6069",
"b.	c #E8E8E9",
"c.	c #F6F6F6",
"d.	c #7B7D85",
"e.	c #2F323E",
"f.	c #A9AAAF",
"g.	c #A8A9AF",
"h.	c #B1B2B7",
"i.	c #C1C2C5",
"j.	c #383B46",
"k.	c #6C6E77",
"l.	c #F0F0F1",
"m.	c #6D6F78",
"n.	c #9D9EA4",
"o.	c #2A2D39",
"p.	c #373A46",
"q.	c #C0C1C4",
"r.	c #51545E",
"s.	c #212432",
"t.	c #98999F",
"u.	c #282B38",
"v.	c #AEAFB4",
"w.	c #232634",
"x.	c #F8F9F9",
"y.	c #DFDFE1",
"z.	c #585A65",
"A.	c #484B57",
"B.	c #DCDCDF",
"C.	c #BDBEC2",
"D.	c #242735",
"E.	c #474955",
"F.	c #CFD0D3",
"G.	c #A4A6AB",
"H.	c #303240",
"I.	c #787A82",
"J.	c #F7F7F7",
"K.	c #262937",
"L.	c #878990",
"M.	c #F2F3F3",
"N.	c #D7D8DA",
"O.	c #454853",
"P.	c #CBCCCF",
"Q.	c #9EA0A6",
"R.	c #2A2D3B",
"S.	c #9C9DA3",
"T.	c #8A8B93",
"U.	c #DDDDE0",
"V.	c #3B3D4A",
"W.	c #A1A2A8",
"X.	c #FAFAFB",
"Y.	c #A2A3A9",
"Z.	c #3C3E4B",
"`.	c #464854",
" +	c #EEEEEF",
".+	c #E2E3E4",
"++	c #252836",
"@+	c #BEBFC3",
"#+	c #EDEEEF",
"$+	c #656771",
"%+	c #282B39",
"&+	c #2A2D3A",
"*+	c #6A6C75",
"=+	c #BFC0C4",
"-+	c #888991",
";+	c #898A92",
">+	c #878890",
",+	c #F6F6F7",
"'+	c #C0C0C4",
")+	c #292C3A",
"!+	c #63656F",
"~+	c #EEEFF0",
"{+	c #E2E2E4",
"]+	c #EDEDEE",
"^+	c #3D404C",
"/+	c #A3A5AB",
"(+	c #9FA1A7",
"_+	c #3C3F4C",
":+	c #A3A4AA",
"<+	c #484A56",
"[+	c #E2E3E5",
"}+	c #292A39",
"|+	c #676873",
"1+	c #2C2D3C",
"2+	c #2E2F3D",
"3+	c #6C6D77",
"4+	c #EFEFF1",
"5+	c #C0C1C5",
"6+	c #F7F7F8",
"7+	c #8A8A93",
"8+	c #8B8B93",
"9+	c #656670",
"0+	c #4B4C58",
"a+	c #494A57",
"b+	c #40414E",
"c+	c #A5A5AB",
"d+	c #DFE0E2",
"e+	c #A1A1A8",
"f+	c #3D3E4C",
"g+	c #4D4E5B",
"h+	c #797A83",
"i+	c #2A2B3A",
"j+	c #2B2C3B",
"k+	c #8B8B94",
"l+	c #8B8C94",
"m+	c #2D2F3D",
"n+	c #DEDFE1",
"o+	c #2E303D",
"p+	c #2E313F",
"q+	c #2E3140",
"r+	c #303241",
"s+	c #303342",
"t+	c #323645",
"u+	c #3D4253",
"v+	c #44495B",
"w+	c #424759",
"x+	c #43485A",
"y+	c #454A5C",
"z+	c #474C5E",
"A+	c #4A4F61",
"B+	c #4B5162",
"C+	c #4E5465",
"D+	c #525769",
"E+	c #555B6C",
"F+	c #585E6F",
"G+	c #5C6173",
"H+	c #616677",
"I+	c #64697A",
"J+	c #686E7F",
"K+	c #6B7182",
"L+	c #707686",
"M+	c #757A8A",
"N+	c #787D8D",
"O+	c #7A7F8F",
". + @ @ . + @ . + @ @ . + @ @ . . . + . . ",
". . . # . . . . . . # . . . # . . . . . @ ",
". . . . . . . . . . . . . . . . . . . . . ",
". . $ . . . $ . . $ . . . $ . . . . . . . ",
"$ $ . $ $ $ . $ $ . $ $ $ . $ $ $ $ $ $ $ ",
"$ $ % & $ $ % $ $ % & $ $ % & $ * $ * = $ ",
"- $ & $ - $ & - $ & $ - $ & $ - - & & & & ",
"- - & - - - & - - & - - - & - - - - - - & ",
"- - ; - - - ; - - ; - - - ; - - - - - - - ",
"; ; ; ; ; ; ; ; ; ; ; ; ; ; ; - - ; - ; ; ",
"; ; > > ; ; > ; ; > > ; ; > > ; > > > ; ; ",
", , , > , , , , , , > , , , > > > > , > , ",
", > , , , > , , > , , , > , , , , > ' > > ",
", , , , , , , , , , , , , , , , , ) , ) ) ",
", ) ) ) , ) ) , ) ) ) , ) ) ) ) ) , ) ) ) ",
") ) ) ) ) ) ) ) ) ) ) ) ) ) ) ) ) ) ! ) ! ",
"! ! ! ! ! ! ! ! ! ! ! ! ! ! ! ! ! ! ! ) ) ",
"! ! ! ! ! ! ! ! ! ! ! ! ! ! ! ! ! ! ! ! ! ",
"! ~ ~ ~ ! ~ ~ ! ~ ~ ~ ! ~ ~ ~ ~ ~ ~ ! ~ ~ ",
"~ ~ { ~ ~ ~ { ~ ~ { ~ ~ ~ { ~ ~ ~ ~ ~ ~ ] ",
"^ ~ ~ ] ^ ~ ~ ^ ~ ~ ] ^ ~ ~ ] ~ { ~ / ( ~ ",
"{ ( ( ( { ( ( { ( ( ( { ( ( ( ( ( ( ( ( ( ",
"( _ _ : ( _ _ ( _ _ : ( _ _ : _ ( _ _ ( _ ",
"_ < < _ _ < < _ < < _ _ < < _ ( _ < < < < ",
"< < < < < < < < < < < < < < < < < < : < < ",
": < : < : < : : < : < : < : < < [ [ < < < ",
": } } [ : } } : } } [ : } } [ [ [ [ : [ } ",
"[ [ [ : [ [ [ [ [ [ : [ [ [ : [ [ [ } [ [ ",
"| | | | | | | | | | | | | | | | | [ | | | ",
"| | | | | | | | | | | | | | | | | | | | | ",
"| 1 1 | | 1 1 | 1 1 | | 1 1 | 1 | 1 | | | ",
"1 1 1 1 1 1 1 1 1 1 1 1 1 1 1 1 1 1 1 1 1 ",
"1 1 1 1 1 1 1 1 1 1 1 1 1 1 1 1 1 1 1 1 2 ",
"3 2 2 3 3 2 2 3 2 2 3 3 2 2 3 3 4 1 3 2 2 ",
"4 2 2 2 4 2 2 4 2 2 2 4 2 2 2 2 4 4 2 4 3 ",
"4 4 4 4 4 4 4 4 4 4 4 4 4 4 4 4 4 4 4 4 4 ",
"4 4 4 4 4 4 4 4 4 4 4 4 4 4 4 4 4 4 4 4 4 ",
"5 4 5 5 5 4 5 5 4 5 5 5 4 5 5 5 5 5 5 6 5 ",
"5 5 5 5 5 5 5 5 5 5 5 5 5 5 5 6 7 6 5 6 5 ",
"6 6 5 6 6 6 5 6 6 5 6 6 6 5 6 6 6 6 6 6 6 ",
"7 7 7 6 7 7 7 7 7 7 6 7 7 7 6 8 6 6 7 7 6 ",
"8 9 6 0 8 9 6 8 9 6 0 8 9 6 0 8 a a 6 8 a ",
"0 7 0 9 0 7 0 0 7 0 9 0 7 0 9 0 0 8 0 8 0 ",
"0 b 0 b 0 b 0 0 b 0 b 0 b 0 b b b 0 b b 0 ",
"b b b b b b b b b b b b b b b b 0 b b 0 b ",
"b b b b b b b b b b b b b b b b b b b b b ",
"b c b c b c b b c b c b c b c b c b c b b ",
"d d d c d d d d d d c d d d c c d b c d c ",
"d d d c d d d d d d c d d d c d c c d d c ",
"e e e d e e e e e e d e e e d e e c e d d ",
"e f e e e f e e f e e e f e e e d e d e e ",
"e e g e e e g e e g e e e g e e g e e e e ",
"e g e e e g e e g e e e g e e e e e e e e ",
"e h h e e h h e h h e e h h e e h e e h e ",
"i h h h i h h i h h h i h h h h h h h h h ",
"j k k h j k k j k k h j k k h j h h h j h ",
"k h k h k h k k h k h k h k h h h h h h j ",
"j k k k j k k j k k k j k k k j k k j k k ",
"i k k k i k k i k k k i k k k j k k k k k ",
"l l k k l l k l l k k l l k k m l m l m l ",
"l l l m l l l l l l m l l l m l m l m m m ",
"n m n l n m n n m n l n m n l m m m m l n ",
"n n n n n n n n n n n n n n n m n n n n n ",
"n n n n n n n n n n n n n n n n n n n n n ",
"o n n n o p q r s q t o n n n o n n n n o ",
"n o o u v w x x x x x y o o u o o o o o n ",
"u o z n A x B C D E F x G z n z o z u z o ",
"z o z z H I z z o z J K L z z o z z o z z ",
"z z z z M N z z z z z O P z z z z z o o z ",
"z z z z x Q z z z z z E w z z z J z z z z ",
"J z z z x R z J z z z S x z z J z z z z z ",
"J J J z x R J J J J z S x J z J J z J z z ",
"z J J J x R J z J J J T x J J z J J J J J ",
"J U J J x x x x x x x x x x x x x x J J J ",
"U J J J V V V V V V V V V V V V V V U J J ",
"U U J J U U J U U J J U U J J U U U J J J ",
"U U U W X U U U U U W U U U W J Y Z U U U ",
"W W U W x `  .W W U W W W U W ..+.x U W @.",
"@.@.W U #.$.%.&.@.W U @.@.*.=.-.x A @.U U ",
"@.@.U W @...;.>.,.'.W @.).!.x ~.{.@.@.U @.",
"@.@.@.@.@.@.].^./.(._.:./.x <.[.@.@.@.@.@.",
"@.@.@.@.@.@.@.@.}.|.x x 1.2.@.@.@.@.@.@.@.",
"@.@.@.@.@.@.@.3.4.>.x x 5.6.@.@.@.@.@.@.@.",
"@.@.@.@.@.@.7.8.x 9.0.a.b.c.d.@.@.@.@.@.@.",
"@.@.@.@.e.f.x x g.e.@.@.e.h.x i.j.@.@.@.@.",
"@.@.@.@.9.x 8.7.@.@.@.@.@.@.k.l.l.m.@.@.@.",
"@.@.@.@.>.n.o.@.@.@.@.@.@.@.@.p.q.x @.@.@.",
"@.@.@.@.r.@.@.@.@.@.@.@.@.@.@.@.@.d.@.@.@.",
"@.@.@.@.@.@.@.@.@.@.@.@.@.@.@.@.@.@.@.@.@.",
"@.@.@.@.@.@.@.@.@.@.@.@.@.@.@.@.@.@.@.@.@.",
"@.@.@.@.@.@.@.@.@.@.@.@.@.@.@.@.@.@.@.@.@.",
"@.@.@.@.@.@.@.@.@.@.@.@.@.@.@.@.@.@.@.@.@.",
"@.s.@.@.@.s.@.@.s.@.@.@.s.@.@.@.@.@.@.@.@.",
"@.@.@.@.@.@.@.@.@.@.@.@.@.@.@.@.@.{.@.@.@.",
"@.@.@.@.@.@.@.@.t.u.@.@.@.@.@.3.v.x @.@.@.",
"w.w.w.w.w.w.w.w.x.y.z.w.w.w.A.B.x C.w.w.w.",
"D.D.D.D.D.D.D.D.E.F.x G.H.I.J.$.#.D.D.D.D.",
"D.D.D.D.D.D.D.D.D.K.L.$.M.x N.A.D.D.D.D.D.",
"D.D.D.D.D.D.D.D.D.D.D.O.P.Q.R.D.D.D.D.D.D.",
"D.D.D.S.x x x x x x x x x x x x x x D.D.D.",
"D.D.D.T.U.U.U.U.U.U.U.U.U.U.U.U.U.U.D.D.D.",
"D.D.D.D.D.D.D.D.D.D.D.D.D.D.D.D.D.D.D.D.D.",
"D.D.D.D.D.D.D.D.D.D.D.D.D.D.D.D.D.D.D.D.D.",
"D.D.D.D.D.D.D.D.D.V.W.y.X.X.y.Y.Z.D.D.D.D.",
"D.D.D.D.D.D.D.D.`. +x $..+8.-.x 1.E.D.D.D.",
"++++++++++++++++@+#+$+%+++++&+*+1.=+++++++",
"++++++++++++++++J.-+++++++++++++;+J.++++++",
"++++++++++++++++J.-+++++++++++++>+,+++++++",
"K.K.K.K.K.K.K.K.'+#+$+)+K.K.)+!+H =+K.K.K.",
"K.K.K.K.K.K.K.K.A.~+x J.{+{+J.x ]+E.K.K.K.",
"K.K.K.K.K.K.K.K.K.^+/+{+M -.y.(+V.K.K.K.K.",
"K.K.K.K.K.K.K.K.K.K.K.K.K.K.K.K.K.K.K.K.K.",
"K.K.K.K.K.K.K.K.K.K.K.K.K.K.K.K.K.K.K.K.K.",
"K.K.K.K.K.K.K.K.K._+Y.y.X.X.y.:+^+K.K.K.K.",
"K.K.K.K.K.K.K.K.<+~+x $.[+%.-.x 1.A.K.K.K.",
"}+}+}+}+}+}+}+}+'+ +|+1+}+}+2+3+4+5+}+}+}+",
"}+}+}+}+}+}+}+}+6+7+}+}+}+}+}+}+8+6+}+}+}+",
"}+}+}+}+}+}+}+}+6+7+}+}+}+}+}+}+;+,+}+}+}+",
"}+}+}+}+}+}+}+}+5+ +|+1+}+}+1+9+H '+}+}+}+",
"}+}+}+}+}+}+}+}+0+1.x 6+{+{+6+x ]+a+}+}+}+",
"}+}+}+}+}+}+}+}+}+b+c+{+M -.d+e+f+}+}+}+}+",
"}+}+}+}+}+}+}+}+}+}+}+}+}+}+}+}+}+}+}+}+}+",
"}+}+}+}+}+}+}+}+}+}+}+}+}+}+}+}+g+h+}+}+}+",
"}+}+}+}+}+}+}+}+}+}+}+}+}+}+}+}+7+x }+}+}+",
"i+i+i+i+i+i+i+i+i+i+i+i+i+i+i+i+T.x i+i+i+",
"i+i+i+i+i+i+i+i+i+i+i+i+i+i+i+i+T.x i+i+i+",
"j+j+j+j+j+j+j+j+j+j+j+j+j+j+j+j+k+x j+j+j+",
"1+1+1+1+1+1+1+1+1+1+1+1+1+1+1+1+l+x 1+1+1+",
"1+1+1+1+1+1+1+1+1+1+1+1+1+1+1+1+l+x 1+1+1+",
"m+m+m+m+x x x x x x x x x x x x x x m+m+m+",
"m+m+m+m+n+n+n+n+n+n+n+n+n+n+n+n+n+n+m+m+m+",
"m+m+m+m+m+m+m+m+m+m+m+m+m+m+m+m+m+m+m+m+m+",
"m+m+m+m+m+m+m+m+m+m+m+m+m+m+m+m+m+m+m+m+m+",
"o+o+o+o+o+o+o+o+o+o+o+o+o+o+o+o+o+o+o+o+o+",
"p+p+p+p+p+p+p+p+p+p+p+p+p+p+p+p+p+p+p+p+p+",
"p+p+p+p+p+p+p+p+p+p+p+p+p+p+p+p+p+p+p+p+p+",
"q+q+q+q+q+q+q+q+q+q+q+q+q+q+q+q+q+q+q+q+q+",
"q+q+q+q+q+q+q+q+q+q+q+q+q+q+q+q+q+q+q+q+q+",
"r+r+r+r+r+r+r+r+r+r+r+r+r+r+r+r+r+r+r+r+r+",
"s+s+s+s+s+s+s+s+s+s+s+s+s+s+s+s+s+s+s+s+s+",
"s+s+s+s+s+s+s+s+s+s+s+s+s+s+s+s+s+s+s+s+s+",
"q+q+q+q+q+q+q+q+q+q+q+q+q+q+q+q+q+q+q+q+q+",
"t+t+t+t+t+t+t+t+t+t+t+t+t+t+t+t+t+t+t+t+t+",
"u+u+u+u+u+u+u+u+u+u+u+u+u+u+u+u+u+u+u+u+u+",
"v+v+v+v+v+v+v+v+v+v+v+v+v+v+v+v+v+v+v+v+v+",
"w+w+w+w+w+w+w+w+w+w+w+w+w+w+w+w+w+w+w+w+w+",
"x+x+x+x+x+x+x+x+x+x+x+x+x+x+x+x+x+x+x+x+x+",
"y+y+y+y+y+y+y+y+y+y+y+y+y+y+y+y+y+y+y+y+y+",
"z+z+z+z+z+z+z+z+z+z+z+z+z+z+z+z+z+z+z+z+z+",
"A+A+A+A+A+A+A+A+A+A+A+A+A+A+A+A+A+A+A+A+A+",
"B+B+B+B+B+B+B+B+B+B+B+B+B+B+B+B+B+B+B+B+B+",
"C+C+C+C+C+C+C+C+C+C+C+C+C+C+C+C+C+C+C+C+C+",
"D+D+D+D+D+D+D+D+D+D+D+D+D+D+D+D+D+D+D+D+D+",
"E+E+E+E+E+E+E+E+E+E+E+E+E+E+E+E+E+E+E+E+E+",
"F+F+F+F+F+F+F+F+F+F+F+F+F+F+F+F+F+F+F+F+F+",
"G+G+G+G+G+G+G+G+G+G+G+G+G+G+G+G+G+G+G+G+G+",
"H+H+H+H+H+H+H+H+H+H+H+H+H+H+H+H+H+H+H+H+H+",
"I+I+I+I+I+I+I+I+I+I+I+I+I+I+I+I+I+I+I+I+I+",
"J+J+J+J+J+J+J+J+J+J+J+J+J+J+J+J+J+J+J+J+J+",
"K+K+K+K+K+K+K+K+K+K+K+K+K+K+K+K+K+K+K+K+K+",
"L+L+L+L+L+L+L+L+L+L+L+L+L+L+L+L+L+L+L+L+L+",
"M+M+M+M+M+M+M+M+M+M+M+M+M+M+M+M+M+M+M+M+M+",
"N+N+N+N+N+N+N+N+N+N+N+N+N+N+N+N+N+N+N+N+N+",
"O+O+O+O+O+O+O+O+O+O+O+O+O+O+O+O+O+O+O+O+O+"};
