/* XPM */
static char *magick[] = {
/* columns rows colors chars-per-pixel */
"16 16 196 2",
"   c Gray0",
".  c #010101",
"X  c Gray1",
"o  c #050606",
"O  c #070605",
"+  c #060706",
"@  c #060708",
"#  c #0b0006",
"$  c #080707",
"%  c Gray3",
"&  c #080908",
"*  c #0a0b0b",
"=  c #0b0b0b",
"-  c #0b0b0c",
";  c #0b0d0e",
":  c #0f0c0a",
">  c #0c0c0c",
",  c #0d0c0c",
"<  c Gray5",
"1  c #0d0e0e",
"2  c #0e0e0d",
"3  c #0e0e0e",
"4  c Gray6",
"5  c #041c05",
"6  c #0d1f0d",
"7  c #071a13",
"8  c #0e1010",
"9  c #0c171a",
"0  c #130f13",
"q  c #10100c",
"w  c #13140f",
"e  c #101010",
"r  c #101110",
"t  c #101111",
"y  c #111111",
"u  c #121211",
"i  c #141312",
"p  c #171411",
"a  c #181717",
"s  c #1c1c1b",
"d  c #1e1e2b",
"f  c #132c0e",
"g  c #12381e",
"h  c #183a1f",
"j  c #0c242b",
"k  c #0c272e",
"l  c #0c323f",
"z  c #2b0a00",
"x  c #2d171c",
"c  c #23211f",
"v  c #202b1e",
"b  c #3d2f2b",
"n  c #0c3a47",
"m  c #0c3b4a",
"M  c #093b6e",
"N  c #1b401b",
"B  c #1a4e28",
"V  c #0b6815",
"C  c #365f0c",
"Z  c #451c38",
"A  c #5b003e",
"S  c #41372d",
"D  c #4a382d",
"F  c #72620a",
"G  c #4d4946",
"H  c #4e4c44",
"J  c #5b5146",
"K  c #634e42",
"L  c #60534a",
"P  c #645f57",
"I  c #645f5a",
"U  c #685c5f",
"Y  c #716f61",
"T  c #776c6d",
"R  c #777a67",
"E  c #7f7770",
"W  c #7d7c7c",
"Q  c #0660a5",
"!  c #0876b9",
"~  c #077fc8",
"^  c #1b962c",
"/  c #4ece1b",
"(  c #5ac721",
")  c #58d622",
"_  c #40e642",
"`  c #76ed46",
"'  c #0788d1",
"]  c #0990dd",
"[  c #ac007e",
"{  c #827a6f",
"}  c #8e7a64",
"|  c #956e6e",
" . c #987b6f",
".. c #c80000",
"X. c #cb1712",
"o. c Red",
"O. c #ff190d",
"+. c #dd4600",
"@. c #fd5300",
"#. c #ff5300",
"$. c #ff5600",
"%. c #ff4838",
"&. c #a50081",
"*. c #ae0081",
"=. c #b10085",
"-. c #c6079f",
";. c #d70fa7",
":. c #868078",
">. c #978871",
",. c #9a8772",
"<. c #9c8b74",
"1. c #a3927b",
"2. c #a0ff6e",
"3. c #abff76",
"4. c #d99b00",
"5. c #ff8f31",
"6. c #ffac43",
"7. c #ffc100",
"8. c #ffc500",
"9. c #ffd100",
"0. c #fffb39",
"q. c #ffff4a",
"w. c #b19c89",
"e. c #b39f8a",
"r. c #bba58a",
"t. c #b8a58f",
"y. c #bfada3",
"u. c #b9b1a9",
"i. c #b4b4b1",
"p. c #c8b29b",
"a. c #c2b6a3",
"s. c #c2b7a8",
"d. c #c3b9a8",
"f. c #c9b8a8",
"g. c #cbbdac",
"h. c #cfbcac",
"j. c #cfbeaf",
"k. c #c3bab3",
"l. c #c1bfbe",
"z. c #c9c0b0",
"x. c #cdc1b1",
"c. c #cfc2b7",
"v. c #cac4ba",
"b. c #cfc5ba",
"n. c #cfc7ba",
"m. c #d0c3b7",
"M. c #d0c6b7",
"N. c #d6c7bb",
"B. c #d0c8b8",
"V. c #d3c9be",
"C. c #d8cdbe",
"Z. c #cbc6c3",
"A. c #c8c5c5",
"S. c #d3cfcb",
"D. c #d9cdc1",
"F. c #dbccc1",
"G. c #d9d3c5",
"H. c #ded5c6",
"J. c #d9d3ca",
"K. c #dfd8cf",
"L. c #dfdacd",
"P. c #dcd6d0",
"I. c #dbdad7",
"U. c #e0d7cd",
"Y. c #e2d9ca",
"T. c #e4dacd",
"R. c #e5decd",
"E. c #e7dccd",
"W. c #eadcc8",
"Q. c #e1ded2",
"!. c #e2ded3",
"~. c #e7ded5",
"^. c #e7e1d8",
"/. c #e6e3d8",
"(. c #e7e3de",
"). c #ebe0d2",
"_. c #ebe0d5",
"`. c #ede2d3",
"'. c #eee0d1",
"]. c #e8e1d9",
"[. c #eae4dd",
"{. c #eee8dc",
"}. c #f0e8de",
"|. c #f0eadc",
" X c #f5e9df",
".X c #f9ecdf",
"XX c #e6e1e0",
"oX c #eee9e6",
"OX c #efeae6",
"+X c #f5efe7",
"@X c #f4ede8",
"#X c #f4eeec",
"$X c #f8f2ea",
"%X c #fdf7ee",
"&X c #fff9ed",
"*X c Gray100",
/* pixels */
"          3 a i u %           u ",
"        w I :.E { H           3 ",
"    W Z.&X.XR.h.r.} L o       3 ",
"  3 *XXXA.(.^.J K <.p.p       3 ",
"  % I.S.l.P.L.u.h.1.t.q       3 ",
"  o i.%X}.~.J.z.g.>.w.:       3 ",
"  $ #X$X^.U.V.s.a.,.w.# 5 6   3 ",
"  o oX@X!.L.b.d.f. .| f _ N   3 ",
"  o oX+X!.G.m.y.T h g V ^ B 7 u ",
"  o ]. XT.H.D.U C / ) ( ` 3.2.v ",
"  @ [._.B.M.k.S 4.7.8.9.0.q.F 8 ",
"  % {.'.C.D.b.D +.@.$.@.5.6.z ; ",
"  % }.R.c.N.x.b ..o.o.o.O.%.X.x ",
"  3 v.).Y.'.W.R A &.[ *.=.-.;.Z ",
"      3 c G P Y d Q ' ! ~ ] M 0 ",
"3 3 3 3 - % 3 u u j n k l m 9 s "
};
