/* XPM */
static char *magick[] = {
/* columns rows colors chars-per-pixel */
"32 32 5 1",
"  c Gray0",
". c Red",
"X c #ff8000",
"o c #ffdca8",
"O c None",
/* pixels */
"OOOOOOOOOOOOOOO    OOOOOOOOOOOOO",
"OOOOOOOOOOOOOOO .. OOOOOOOOOOOOO",
"OOOOOOOOOOOOOOO    OOOOOOOOOOOOO",
"OOOOOOOOOOOOOOOOOOOOOOOOOOOOOOOO",
"OOOOOOOOOOOOOO      OOOOOOOOOOOO",
"OOOOOOOOOOOOOO .... OOOOOOOOOOOO",
"OOOOOOOOOOOOOO      OOOOOOOOOOOO",
"OOOOOOOOOOOOOOOOOOOOOOOOOOOOOOOO",
"OOOOOOOOOOOOO        OOOOOOOOOOO",
"OOOOOOOOOOO   ...... OOOOOOOOOOO",
"OOOOOOOOO     ......     OOOOOOO",
"OOOOOOO  X ............ OOOOOOOO",
"OOOOO  X  o .......... o  OOOOOO",
"OOO  X  oooo ........   oo  OOOO",
"OO    ooooooo ...... XXX  oo  OO",
"OOOO o  oooooo .... XXXXXX     O",
"OOO oooo  ooooo .. XXXXX  oo OO ",
"OO ooooooo  oooX  XXXX  ooooo OO",
"O oooooooooo  oXXXXX  oooooooo O",
" ooooooooooooo  XX  oooooooo  OO",
"O  ooooooooooooo  oooooooo  OOOO",
"OOO  oooooooooo XX ooooo  X OOOO",
"OOOOO  ooooooo XXoX oo  XXo OOOO",
"OOOOO X  oooo XXXoXX  XXooo OOOO",
"OOOOO XXX  o XXXXooXXXooooo OOOO",
"OOOOO XXXXX XXXXXooXooooooo OOOO",
"OOOOOO  XXXXXXXXXooooooooo  OOOO",
"OOOOOOOO  XXXXXXXooooooo  OOOOOO",
"OOOOOOOOOO  XXXXXooooo  OOOOOOOO",
"OOOOOOOOOOOO  XXXooo  OOOOOOOOOO",
"OOOOOOOOOOOOOO  Xo  OOOOOOOOOOOO",
"OOOOOOOOOOOOOOOO  OOOOOOOOOOOOOO"
};
