/* XPM */
static char * calc_32x32_xpm[] = {
"32 32 373 2",
"  	c None",
". 	c #CDCABD",
"+ 	c #D4D0C5",
"@ 	c #C4BFB3",
"# 	c #E0DBCF",
"$ 	c #CDCDC2",
"% 	c #AAB1A4",
"& 	c #B9BCAF",
"* 	c #C5C3B8",
"= 	c #C9C6B9",
"- 	c #C6C2B6",
"; 	c #BDB9AE",
"> 	c #ADAA9F",
", 	c #C9C4B8",
"' 	c #DBD8CC",
") 	c #778778",
"! 	c #4F6B59",
"~ 	c #677F6D",
"{ 	c #6C7F70",
"] 	c #738376",
"^ 	c #818D7F",
"/ 	c #969C90",
"( 	c #A9AA9E",
"_ 	c #BFBBB0",
": 	c #BEBAAF",
"< 	c #BAB6AB",
"[ 	c #B3AFA4",
"} 	c #A2A095",
"| 	c #8A877E",
"1 	c #928F85",
"2 	c #DCD7CA",
"3 	c #B8BBAE",
"4 	c #718676",
"5 	c #7D9684",
"6 	c #748E7C",
"7 	c #6D8775",
"8 	c #6A8371",
"9 	c #637969",
"0 	c #5A7060",
"a 	c #526557",
"b 	c #4B5D50",
"c 	c #536256",
"d 	c #656F64",
"e 	c #797F75",
"f 	c #A9A89E",
"g 	c #AEAA9E",
"h 	c #737169",
"i 	c #C3BFB2",
"j 	c #E2DED3",
"k 	c #DAD7CB",
"l 	c #C6C5B7",
"m 	c #BEC0B2",
"n 	c #B2B7A9",
"o 	c #A3AC9E",
"p 	c #8D9D8F",
"q 	c #798D7E",
"r 	c #6D8273",
"s 	c #697D6F",
"t 	c #657668",
"u 	c #5E6E61",
"v 	c #58665A",
"w 	c #5A675C",
"x 	c #898E83",
"y 	c #A7A398",
"z 	c #6A6861",
"A 	c #2D2B28",
"B 	c #98958B",
"C 	c #E1DCD0",
"D 	c #E8E6DF",
"E 	c #AEB0AB",
"F 	c #8C8F88",
"G 	c #99978E",
"H 	c #AEABA1",
"I 	c #B8B4A8",
"J 	c #BCB8AC",
"K 	c #C1BCB0",
"L 	c #BAB8AB",
"M 	c #AAADA0",
"N 	c #949B90",
"O 	c #858E83",
"P 	c #7B857A",
"Q 	c #758076",
"R 	c #92958B",
"S 	c #A19D93",
"T 	c #64625B",
"U 	c #21201E",
"V 	c #CDC9BD",
"W 	c #E6E3D9",
"X 	c #D4D4CE",
"Y 	c #8B9993",
"Z 	c #7B8D87",
"` 	c #949691",
" .	c #C1BEB6",
"..	c #ACA99E",
"+.	c #98958C",
"@.	c #9C9A94",
"#.	c #9C998F",
"$.	c #A5A297",
"%.	c #B0ACA0",
"&.	c #B3B0A3",
"*.	c #ABA99E",
"=.	c #A3A398",
"-.	c #A5A499",
";.	c #9C988D",
">.	c #605D57",
",.	c #1D1C1A",
"'.	c #ACA89E",
").	c #DFDCD0",
"!.	c #E5E4DD",
"~.	c #9AA099",
"{.	c #66736E",
"].	c #555E5A",
"^.	c #9F9E9A",
"/.	c #A9A69C",
"(.	c #A9A599",
"_.	c #807E78",
":.	c #C3C1B9",
"<.	c #B2AEA2",
"[.	c #96938A",
"}.	c #6C6D6A",
"|.	c #7C817B",
"1.	c #888A82",
"2.	c #AAA69B",
"3.	c #949087",
"4.	c #585650",
"5.	c #161614",
"6.	c #000000",
"7.	c #D1CDC1",
"8.	c #E6E3DA",
"9.	c #D2D5CF",
"0.	c #96A29A",
"a.	c #7F8F89",
"b.	c #8E938E",
"c.	c #C8C6BF",
"d.	c #ADA99D",
"e.	c #939086",
"f.	c #888784",
"g.	c #88857D",
"h.	c #87837A",
"i.	c #7A7870",
"j.	c #747875",
"k.	c #7F8C87",
"l.	c #7D8983",
"m.	c #848780",
"n.	c #8E8A81",
"o.	c #514F49",
"p.	c #11110F",
"q.	c #B1ADA2",
"r.	c #E1DDD2",
"s.	c #E3E2DC",
"t.	c #9EA69E",
"u.	c #6C7973",
"v.	c #58605C",
"w.	c #A3A4A1",
"x.	c #95928A",
"y.	c #BCBBB6",
"z.	c #BBB7AA",
"A.	c #AEAA9F",
"B.	c #7D7B74",
"C.	c #757571",
"D.	c #6A6D66",
"E.	c #6B7069",
"F.	c #5E605A",
"G.	c #8A887F",
"H.	c #848179",
"I.	c #4B4944",
"J.	c #D6D1C5",
"K.	c #E5E1D9",
"L.	c #CCCFC8",
"M.	c #8F9E97",
"N.	c #7B8E88",
"O.	c #838A86",
"P.	c #BBB8B2",
"Q.	c #A6A397",
"R.	c #9D9A8F",
"S.	c #7C7A75",
"T.	c #908F89",
"U.	c #8D8A81",
"V.	c #A5A29B",
"W.	c #A9A69B",
"X.	c #9D9A90",
"Y.	c #68665F",
"Z.	c #8D8980",
"`.	c #7E7B73",
" +	c #42403D",
".+	c #0B0B0A",
"++	c #010100",
"@+	c #BBB7AB",
"#+	c #DFDBD0",
"$+	c #E1E1DB",
"%+	c #7E8882",
"&+	c #606F6B",
"*+	c #596460",
"=+	c #91918E",
"-+	c #AFACA2",
";+	c #B4B0A4",
">+	c #A9A59A",
",+	c #AAA8A3",
"'+	c #C5C1B8",
")+	c #A39F94",
"!+	c #8A877D",
"~+	c #575653",
"{+	c #86847D",
"]+	c #89867D",
"^+	c #918D84",
"/+	c #77746C",
"(+	c #918E84",
"_+	c #75726B",
":+	c #373532",
"<+	c #020101",
"[+	c #D4D0C3",
"}+	c #E6E3DB",
"|+	c #C4CAC4",
"1+	c #859791",
"2+	c #72847F",
"3+	c #727873",
"4+	c #B9B8B1",
"5+	c #9C988E",
"6+	c #8D8A80",
"7+	c #67655E",
"8+	c #9D9A96",
"9+	c #A6A298",
"0+	c #B4AFA3",
"a+	c #9B988D",
"b+	c #868480",
"c+	c #ACA99F",
"d+	c #949086",
"e+	c #88857B",
"f+	c #625F58",
"g+	c #959287",
"h+	c #706E66",
"i+	c #34332F",
"j+	c #010101",
"k+	c #E0DCD2",
"l+	c #D1D0CB",
"m+	c #8E938B",
"n+	c #7C8983",
"o+	c #7B847D",
"p+	c #B7B7B2",
"q+	c #CBC7BC",
"r+	c #BFBBAE",
"s+	c #9F9D96",
"t+	c #BAB8B1",
"u+	c #7B786F",
"v+	c #68655F",
"w+	c #83827E",
"x+	c #99968D",
"y+	c #A29E93",
"z+	c #76736B",
"A+	c #908D83",
"B+	c #6B6962",
"C+	c #302E2B",
"D+	c #807D75",
"E+	c #D9D5C9",
"F+	c #C4C0B5",
"G+	c #ABAA9F",
"H+	c #95978D",
"I+	c #86867E",
"J+	c #95938D",
"K+	c #928E85",
"L+	c #9D998F",
"M+	c #979389",
"N+	c #B2B0AA",
"O+	c #BEBAB0",
"P+	c #ACA89C",
"Q+	c #706D66",
"R+	c #A1A09C",
"S+	c #9D9A94",
"T+	c #8B8881",
"U+	c #7B7871",
"V+	c #5D5B55",
"W+	c #938F85",
"X+	c #66645D",
"Y+	c #2B2A27",
"Z+	c #AFABA0",
"`+	c #C4C0B4",
" @	c #C2BEB1",
".@	c #C5C0B3",
"+@	c #C1BDB0",
"@@	c #C0BCAF",
"#@	c #A5A196",
"$@	c #8C8A80",
"%@	c #8E8B84",
"&@	c #858179",
"*@	c #88857C",
"=@	c #6F6D68",
"-@	c #BDBBB6",
";@	c #C5C2BC",
">@	c #CCCAC4",
",@	c #C0BEB7",
"'@	c #6D6B65",
")@	c #605E57",
"!@	c #292825",
"~@	c #79766E",
"{@	c #858279",
"]@	c #9E9B90",
"^@	c #A3A095",
"/@	c #A8A499",
"(@	c #ADAA9E",
"_@	c #B4B0A3",
":@	c #B7B3A7",
"<@	c #B7B3A6",
"[@	c #B6B2A6",
"}@	c #B0ABA0",
"|@	c #9B978D",
"1@	c #838079",
"2@	c #8A8781",
"3@	c #7D7A74",
"4@	c #91908A",
"5@	c #A8A59F",
"6@	c #8C887F",
"7@	c #5A5751",
"8@	c #232320",
"9@	c #0A0A09",
"0@	c #070707",
"a@	c #171715",
"b@	c #363532",
"c@	c #4B4943",
"d@	c #615F59",
"e@	c #838077",
"f@	c #8F8B82",
"g@	c #98948A",
"h@	c #9C998E",
"i@	c #A09D93",
"j@	c #A19D92",
"k@	c #918E85",
"l@	c #726F67",
"m@	c #53514B",
"n@	c #1A1A18",
"o@	c #0A0908",
"p@	c #080807",
"q@	c #060505",
"r@	c #040404",
"s@	c #040303",
"t@	c #060606",
"u@	c #161513",
"v@	c #262522",
"w@	c #2E2C29",
"x@	c #4A4843",
"y@	c #63615A",
"z@	c #828077",
"A@	c #87847B",
"B@	c #8C897F",
"C@	c #918E83",
"D@	c #949187",
"E@	c #969389",
"F@	c #969288",
"G@	c #7F7C73",
"H@	c #504E49",
"I@	c #1B1A18",
"J@	c #060605",
"K@	c #050505",
"L@	c #050504",
"M@	c #040403",
"N@	c #030202",
"O@	c #020202",
"P@	c #11100F",
"Q@	c #2A2926",
"R@	c #43413D",
"S@	c #504F49",
"T@	c #5F5D56",
"U@	c #747269",
"V@	c #79776E",
"W@	c #6C6962",
"X@	c #4B4844",
"Y@	c #0E0E0D",
"Z@	c #030303",
"`@	c #020201",
" #	c #141412",
".#	c #1E1D1B",
"+#	c #252421",
"@#	c #413F3A",
"##	c #43413C",
"                                                                ",
"                                                                ",
"                                                                ",
"                                                                ",
"                                                                ",
"                      . + @                                     ",
"                      # $ % & * = - ; >                         ",
"                    , ' ) ! ~ { ] ^ / ( _ : < [ } |             ",
"                  1 2 3 4 5 6 7 8 9 0 a b c d e f g h           ",
"                  i j k l m n o p q r s t u v w x y z A         ",
"                B C D E F G H I J K L M N O P Q R S T U         ",
"                V W X Y Z `  ...+.@.#.$.%.&.*.=.-.;.>.,.        ",
"              '.).!.~.{.].^./.(._.:.<.[.}.|.1.G 2.3.4.5.6.      ",
"              7.8.9.0.a.b.c.d.e.f.g.h.i.j.k.l.m.+.n.o.p.6.      ",
"            q.r.s.t.u.v.w.2.g x.y.z.A.B.C.D.E.F.G.H.I.p.6.      ",
"            J.K.L.M.N.O.P.Q.R.S.T.U.S _.V.W.X.Y.Z.`. +.+++      ",
"          @+#+$+%+&+*+=+-+;+>+,+'+)+!+~+{+]+^+/+(+_+:+<+6.      ",
"          [+}+|+1+2+3+4+5+6+7+8+9+0+a+b+c+d+e+f+g+h+i+j+6.      ",
"        - k+l+m+n+o+p+q+r+%.s+t+U.u+v+w+x+R.y+z+A+B+C+6.6.      ",
"      D+E+E+F+G+H+I+J+K+L+M+N+O+<.P+Q+R+S+T+U+V+W+X+Y+6.6.6.    ",
"      Z+`+ @i .@i +@@@I #@$@%@&@*@U.=@-@;@>@,@'@^+)@!@6.6.6.    ",
"      ~@{@(+]@^@/@(@_@:@<@[@}@y |@Z.1@2@3@4@5@'@6@7@8@6.6.6.    ",
"      .+9@0@a@b@c@d@h+e@f@g@h@i@^@#@#@)+j@k@`.l@{@m@n@6.6.6.    ",
"        o@p@q@r@s@t@u@v@w@x@y@/+z@A@B@C@D@E@M+F@G@H@I@6.6.6.    ",
"          J@K@L@r@M@s@N@O@<+<+j+P@Q@R@S@T@z U@V@W@X@Y@6.6.6.    ",
"              Z@O@O@N@O@j+O@O@`@j+j+j+L@ #.#+#@#I.##j+6.6.      ",
"                      ++j+j+j+j+j+j+j+j+j+j+++j+j+j+6.6.6.      ",
"                              6.6.6.6.6.j+j+j+j+j+++6.6.        ",
"                                      6.6.6.6.6.6.6.6.          ",
"                                                                ",
"                                                                ",
"                                                                "};
