/* XPM */
static char *clanbomber_32x32[] = {
/* columns rows colors chars-per-pixel */
"32 32 83 1",
"  c #010103",
". c #060e2c",
"X c #060e34",
"o c #061234",
"O c #06123c",
"+ c #0a123c",
"@ c #140c2c",
"# c #120e34",
"$ c #2a0a24",
"% c #061444",
"& c #0a1544",
"* c #0a164c",
"= c #0a1a4c",
"- c #0a1a54",
"; c #0a1e5c",
": c #0e1e64",
"> c #0e2264",
", c #0e236c",
"< c #0e2474",
"1 c #122a7c",
"2 c #2e1a54",
"3 c #2e1e64",
"4 c #3e2a74",
"5 c #560204",
"6 c #5e0204",
"7 c #5e0614",
"8 c #66020c",
"9 c #760204",
"0 c #72020c",
"q c #7a0204",
"w c #7a020c",
"e c #720a1c",
"r c #7e0a24",
"t c #4a1e5c",
"y c #122a84",
"u c #122e8c",
"i c #16328c",
"p c #123294",
"a c #14329c",
"s c #1636a4",
"d c #163aac",
"f c #1a3eac",
"g c #2e328c",
"h c #1a42bc",
"j c #1c46c4",
"k c #1e4acc",
"l c #1e52d4",
"z c #224ecc",
"x c #2252cc",
"c c #2356d4",
"v c #255bdc",
"b c #265ee4",
"n c #2e66e4",
"m c #3266e4",
"M c #346ce4",
"N c #3c74e4",
"B c #3e76ec",
"V c #427aec",
"C c #4b83ec",
"Z c #528aec",
"A c #5696ec",
"S c #5e9eec",
"D c #629eec",
"F c #64a4ec",
"G c #6aaaec",
"H c #820204",
"J c #86020c",
"K c #9c0204",
"L c #a40204",
"P c #ac0204",
"I c #b20204",
"U c #bc0204",
"Y c #c30204",
"T c #cc0204",
"R c #d30204",
"E c #da0204",
"W c #fc0526",
"Q c #f44e07",
"! c #edd315",
"~ c #fceb05",
"^ c #f9f6bd",
"/ c #fefefc",
"( c None",
/* pixels */
"((((((((((((((((((((((((((~!^~(~",
"((((((((((((((((((((((((((Q!WW~(",
"((((((((((((........ ,O-  W!QW~(",
"(((((((((..XXXXX+XX.oOicy (~((((",
"((((((((..XOO%&*o++ooo,h1#(((^~(",
"((((((.oO%&;<,,:=&+Xooo&oo@((((~",
"(((((..o%:<sjzfdy,&+.....oo(((((",
"((((.XX&:pkcNNblay>&++oo.+++((((",
"((((..%-yzmCZZmvfu;&oX..+.o+((((",
"(((.Xo=<dknFFSBbk<-*&+o.o...@(((",
"(((ooo-1kMSGDAVcxu>*oo.o.o+..(((",
"((.X+O-ykvmCCmbjp<-%X+.+..oo.(((",
"((.oXO%<fljnvzfdy,=%+.o.o+.Xo.((",
"(..o.O%;ydasfdua-*&oo.+..oo.+.((",
"(...XO&=-<yuu<<*OOXX..........((",
"(.Xo.XO%-;-;:;-&ooX.+.+o.X+.X.((",
"(...oXOX%%*&%&%XO.o+.o..oo.o+.((",
"((X.o.++X+XOOXXX+..o.+o.@o...o((",
"((.+....XXXXXXX..oo.o..+o.oo++((",
"((..+oooo.......X.o.+o..+...O(((",
"(((......+.XXX..o+.o..oo.o+o=(((",
"((((X+oo.X...X...o.oo..o..o*((((",
"(((($...o+..X.X.o.o@.o+.o+-2((((",
"((((($o...X...X.+.o+..o.o-3(((((",
"((((((.o+o..XX...o..o+X+-a((((((",
"(((((((..+.....X.oo..+=1g(((((((",
"((((((((...X.X..+.X+-,a4((((((((",
"((((((((((.X.X.X++=,ag((((((((((",
"(((((((((((((O&&;<y(((((((((((((",
"((((((((((((((((((((((((((((((((",
"((((((((((((((((((((((((((((((((",
"(((((((((((((((((((((((((((((((("
};
