/* XPM */
static char * archiver_48x48_xpm[] = {
"48 48 794 2",
"  	c None",
". 	c #2E2B19",
"+ 	c #2F2C1C",
"@ 	c #99936D",
"# 	c #8A8565",
"$ 	c #6E6A54",
"% 	c #595644",
"& 	c #373420",
"* 	c #44402B",
"= 	c #A7A078",
"- 	c #BFB991",
"; 	c #D3CEAA",
"> 	c #DBD5B4",
", 	c #A9A588",
"' 	c #77725A",
") 	c #514E3D",
"! 	c #35321F",
"~ 	c #323232",
"{ 	c #4E4D4D",
"] 	c #312E1C",
"^ 	c #A09970",
"/ 	c #C1BB91",
"( 	c #D5CFA9",
"_ 	c #D8D2AC",
": 	c #D7D1AD",
"< 	c #D6D0AE",
"[ 	c #D8D3B0",
"} 	c #BBB79A",
"| 	c #79755F",
"1 	c #5F5B48",
"2 	c #3F3C2A",
"3 	c #4B4B4A",
"4 	c #7F7E7D",
"5 	c #686766",
"6 	c #605F5E",
"7 	c #595958",
"8 	c #3C392A",
"9 	c #98926D",
"0 	c #B6B086",
"a 	c #CAC49C",
"b 	c #D0CAA2",
"c 	c #D4CEA8",
"d 	c #D3CDA7",
"e 	c #D4D0AB",
"f 	c #D6D2B0",
"g 	c #D6D1AF",
"h 	c #B1AC91",
"i 	c #75715A",
"j 	c #625F4B",
"k 	c #413E2A",
"l 	c #605F5F",
"m 	c #B8B6B5",
"n 	c #CAC8C7",
"o 	c #ACABAA",
"p 	c #8A8887",
"q 	c #6A6968",
"r 	c #4A4844",
"s 	c #615E51",
"t 	c #8B8771",
"u 	c #A49E81",
"v 	c #BCB692",
"w 	c #C9C39C",
"x 	c #CEC8A1",
"y 	c #CCC79F",
"z 	c #CEC9A2",
"A 	c #D1CCA7",
"B 	c #CFCAA6",
"C 	c #DAD5B4",
"D 	c #E2DDBF",
"E 	c #C0BCA5",
"F 	c #7D7A6B",
"G 	c #5A5846",
"H 	c #46432F",
"I 	c #60605E",
"J 	c #CBC9C8",
"K 	c #DBDAD8",
"L 	c #DAD9D7",
"M 	c #DBD9D8",
"N 	c #D5D3D2",
"O 	c #AFADAC",
"P 	c #81807E",
"Q 	c #686865",
"R 	c #5E5D56",
"S 	c #696759",
"T 	c #7C7963",
"U 	c #A6A184",
"V 	c #BDB894",
"W 	c #CAC59D",
"X 	c #CAC49E",
"Y 	c #C9C49F",
"Z 	c #CDC8A1",
"` 	c #D7D2AF",
" .	c #DFDABB",
"..	c #E4DFC2",
"+.	c #E8E5D3",
"@.	c #E8E5CF",
"#.	c #C5C1A6",
"$.	c #5D5944",
"%.	c #434343",
"&.	c #4F4E4E",
"*.	c #716F6F",
"=.	c #DAD8D7",
"-.	c #E2E1E0",
";.	c #E1DFDE",
">.	c #E2E0DF",
",.	c #E1E0DE",
"'.	c #DDDCDA",
").	c #D3D2D0",
"!.	c #B9B8B7",
"~.	c #939290",
"{.	c #6B6A69",
"].	c #44433C",
"^.	c #898676",
"/.	c #BAB694",
"(.	c #C8C29A",
"_.	c #C6C199",
":.	c #C9C59D",
"<.	c #D1CDA8",
"[.	c #DCD7B8",
"}.	c #DED9BA",
"|.	c #E6E3C8",
"1.	c #E2DEC3",
"2.	c #C7C3A5",
"3.	c #524F3D",
"4.	c #525251",
"5.	c #8D8C8B",
"6.	c #747473",
"7.	c #595856",
"8.	c #4F4F4F",
"9.	c #565454",
"0.	c #A3A2A1",
"a.	c #D6D4D3",
"b.	c #E3E2E1",
"c.	c #E3E2E0",
"d.	c #DBDAD9",
"e.	c #D8D7D6",
"f.	c #D7D6D5",
"g.	c #C8C6C5",
"h.	c #82807E",
"i.	c #919090",
"j.	c #7F7E71",
"k.	c #ABA78A",
"l.	c #C2BD96",
"m.	c #C8C39B",
"n.	c #CBC7A1",
"o.	c #CECAA4",
"p.	c #D0CBA8",
"q.	c #D1CCA9",
"r.	c #DAD7B7",
"s.	c #E5E1C4",
"t.	c #B9B69A",
"u.	c #4A4737",
"v.	c #5C5B5B",
"w.	c #CCCAC9",
"x.	c #B8B7B6",
"y.	c #9F9D9C",
"z.	c #666564",
"A.	c #515150",
"B.	c #424140",
"C.	c #6A6969",
"D.	c #A4A3A2",
"E.	c #E0DFDE",
"F.	c #E1E0DF",
"G.	c #E0DEDD",
"H.	c #DEDCDB",
"I.	c #DCDADA",
"J.	c #C9C7C5",
"K.	c #ACAAA7",
"L.	c #C6C5C3",
"M.	c #8D8C8A",
"N.	c #73716A",
"O.	c #AEAA8E",
"P.	c #C6C29A",
"Q.	c #CAC69E",
"R.	c #CAC69F",
"S.	c #CAC6A1",
"T.	c #CCC8A3",
"U.	c #D6D2B1",
"V.	c #D2CCA7",
"W.	c #E8E5C4",
"X.	c #B5B397",
"Y.	c #3B3722",
"Z.	c #636261",
"`.	c #D7D5D4",
" +	c #C2C0BF",
".+	c #A4A3A1",
"++	c #7D7C7B",
"@+	c #6C6B6B",
"#+	c #71706F",
"$+	c #858484",
"%+	c #B4B3B2",
"&+	c #D3D2D1",
"*+	c #DCDBDA",
"=+	c #C5C3C1",
"-+	c #B7B5B2",
";+	c #E0DFDF",
">+	c #949290",
",+	c #7D7B70",
"'+	c #B2AD8D",
")+	c #C7C39A",
"!+	c #C8C49D",
"~+	c #CFCBA7",
"{+	c #DCD8B9",
"]+	c #DED9BB",
"^+	c #D1CBA7",
"/+	c #D0CAA7",
"(+	c #B3AE8E",
"_+	c #524F39",
":+	c #706E6D",
"<+	c #BDBCBB",
"[+	c #9E9E9D",
"}+	c #6E6E6D",
"|+	c #61605F",
"1+	c #787777",
"2+	c #DCDBD9",
"3+	c #D9D6D6",
"4+	c #C6C4C2",
"5+	c #A8A7A4",
"6+	c #EDEDEC",
"7+	c #CFCDCC",
"8+	c #898784",
"9+	c #6A685C",
"0+	c #B9B48F",
"a+	c #C5C098",
"b+	c #CCC7A1",
"c+	c #D8D4B2",
"d+	c #E5E0C5",
"e+	c #C7C19C",
"f+	c #A8A17E",
"g+	c #403C26",
"h+	c #444242",
"i+	c #989796",
"j+	c #888684",
"k+	c #6C6C6C",
"l+	c #6F6E6D",
"m+	c #B5B4B3",
"n+	c #D8D6D5",
"o+	c #C0BEBC",
"p+	c #9C9A98",
"q+	c #C5C3C2",
"r+	c #E9E8E7",
"s+	c #DCDAD9",
"t+	c #C2C0BE",
"u+	c #727271",
"v+	c #7E7A67",
"w+	c #C5BF98",
"x+	c #CDC8A2",
"y+	c #D3CEA8",
"z+	c #DFDBB8",
"A+	c #DCD6B6",
"B+	c #D0CAA6",
"C+	c #CBC5A0",
"D+	c #B6B08A",
"E+	c #47432C",
"F+	c #454444",
"G+	c #A09E9D",
"H+	c #D9D7D6",
"I+	c #C1C0BE",
"J+	c #7C7B7B",
"K+	c #B6B4B4",
"L+	c #A7A5A4",
"M+	c #9A9997",
"N+	c #B6B5B4",
"O+	c #BBBAB8",
"P+	c #A5A4A2",
"Q+	c #68665A",
"R+	c #A49F7E",
"S+	c #D2CDA8",
"T+	c #E1DCBB",
"U+	c #DDD7B4",
"V+	c #C6BF98",
"W+	c #BCB591",
"X+	c #A39D7A",
"Y+	c #4F4B34",
"Z+	c #515050",
"`+	c #9D9B9B",
" @	c #DFDDDC",
".@	c #E0DEDE",
"+@	c #E3E1E0",
"@@	c #858483",
"#@	c #6D6B6B",
"$@	c #C3C1C1",
"%@	c #D1CFCE",
"&@	c #BFBCBB",
"*@	c #9D9B9A",
"=@	c #777675",
"-@	c #797877",
";@	c #807F7E",
">@	c #757575",
",@	c #505048",
"'@	c #99957A",
")@	c #B2AD85",
"!@	c #D2CDA7",
"~@	c #D8D2AF",
"{@	c #ECE7C8",
"]@	c #C6C099",
"^@	c #A69F7D",
"/@	c #787257",
"(@	c #393624",
"_@	c #E1DFDF",
":@	c #CDCBCA",
"<@	c #7C7B7A",
"[@	c #656464",
"}@	c #CAC9C7",
"|@	c #D6D5D3",
"1@	c #D0CDCC",
"2@	c #C2BFBE",
"3@	c #A5A3A2",
"4@	c #8C8A89",
"5@	c #7D7C7A",
"6@	c #6F6E6E",
"7@	c #43433F",
"8@	c #7B7968",
"9@	c #ADA880",
"0@	c #CEC9A1",
"a@	c #DED9B7",
"b@	c #D0CAAB",
"c@	c #9D9779",
"d@	c #767157",
"e@	c #4C4837",
"f@	c #7E7455",
"g@	c #3E320F",
"h@	c #413F3F",
"i@	c #C9C7C7",
"j@	c #DEDDDC",
"k@	c #DDDBDA",
"l@	c #C3C1BF",
"m@	c #60605F",
"n@	c #8A8988",
"o@	c #D2CFCE",
"p@	c #CBC9C7",
"q@	c #BEBCB9",
"r@	c #A3A1A0",
"s@	c #575654",
"t@	c #666457",
"u@	c #A59F77",
"v@	c #CCC69F",
"w@	c #DAD4B2",
"x@	c #BCB69A",
"y@	c #57523E",
"z@	c #544D37",
"A@	c #887D5F",
"B@	c #948865",
"C@	c #625934",
"D@	c #C5B582",
"E@	c #A49870",
"F@	c #57534F",
"G@	c #E0DDDD",
"H@	c #DFDCDC",
"I@	c #9B9A98",
"J@	c #A7A6A5",
"K@	c #C1BFBE",
"L@	c #D3D0CF",
"M@	c #CFCDCB",
"N@	c #4E4E4D",
"O@	c #7B7866",
"P@	c #97926C",
"Q@	c #CDC6A1",
"R@	c #DFD9BB",
"S@	c #4E4831",
"T@	c #8E825E",
"U@	c #B7A778",
"V@	c #B7A776",
"W@	c #9F9164",
"X@	c #554A28",
"Y@	c #C7B885",
"Z@	c #BCAC7B",
"`@	c #9A8D60",
" #	c #675D3C",
".#	c #5B5855",
"+#	c #DDDBDB",
"@#	c #DBD9D9",
"##	c #DAD8D8",
"$#	c #9E9C9B",
"%#	c #848382",
"&#	c #888786",
"*#	c #8C8B8A",
"=#	c #828281",
"-#	c #666665",
";#	c #AAAAA8",
">#	c #D9D8D7",
",#	c #C8C7C5",
"'#	c #54534F",
")#	c #827F6A",
"!#	c #96906D",
"~#	c #C8C39C",
"{#	c #D2CAA4",
"]#	c #BBAF87",
"^#	c #AEA071",
"/#	c #B6A777",
"(#	c #B5A676",
"_#	c #B5A575",
":#	c #A7986A",
"<#	c #5F532F",
"[#	c #7A6D47",
"}#	c #CAB986",
"|#	c #CBBA87",
"1#	c #A5976D",
"2#	c #676563",
"3#	c #E5E3E2",
"4#	c #E6E4E3",
"5#	c #E4E3E2",
"6#	c #E4E2E1",
"7#	c #E1DEDE",
"8#	c #A2A09F",
"9#	c #949291",
"0#	c #7A7979",
"a#	c #565655",
"b#	c #626261",
"c#	c #CDCCCC",
"d#	c #DDDCDB",
"e#	c #C4C2C1",
"f#	c #595855",
"g#	c #807D66",
"h#	c #A1966E",
"i#	c #C3B48A",
"j#	c #B6A779",
"k#	c #B8A877",
"l#	c #B8A878",
"m#	c #B1A372",
"n#	c #AE9F70",
"o#	c #61552D",
"p#	c #736741",
"q#	c #C9B986",
"r#	c #B2A373",
"s#	c #B1A272",
"t#	c #B7A777",
"u#	c #C1B180",
"v#	c #D4C9A6",
"w#	c #DBD8D0",
"x#	c #E6E5E4",
"y#	c #E6E4E4",
"z#	c #E2DFDE",
"A#	c #DFDDDB",
"B#	c #DEDCDA",
"C#	c #CCCAC8",
"D#	c #C0BEBB",
"E#	c #B3B1AE",
"F#	c #A8A6A5",
"G#	c #7D7C7C",
"H#	c #555454",
"I#	c #C5C4C3",
"J#	c #D6D6D5",
"K#	c #E9E7E7",
"L#	c #CBC9C9",
"M#	c #79756E",
"N#	c #A99D77",
"O#	c #B1A171",
"P#	c #B8A978",
"Q#	c #B6A675",
"R#	c #B4A575",
"S#	c #AF9F70",
"T#	c #B2A273",
"U#	c #B3A373",
"V#	c #AE9E6F",
"W#	c #64572F",
"X#	c #5C512F",
"Y#	c #C9B987",
"Z#	c #BAAB7A",
"`#	c #C8B887",
" $	c #D5C9A7",
".$	c #DDDAD2",
"+$	c #E8E7E6",
"@$	c #E9E8E6",
"#$	c #E8E6E6",
"$$	c #E6E3E2",
"%$	c #E3E1DF",
"&$	c #BDBCBC",
"*$	c #D7D7D6",
"=$	c #ECEBEA",
"-$	c #E3E0DC",
";$	c #C2B591",
">$	c #B6A878",
",$	c #B9A978",
"'$	c #B3A273",
")$	c #AC9D6D",
"!$	c #AA9B6C",
"~$	c #AFA070",
"{$	c #6F613A",
"]$	c #756943",
"^$	c #4F4525",
"/$	c #B2A473",
"($	c #BEAF7D",
"_$	c #CABC8B",
":$	c #D1C7AA",
"<$	c #DEDAD2",
"[$	c #E9E7E5",
"}$	c #E7E6E4",
"|$	c #E6E4E2",
"1$	c #E4E3E1",
"2$	c #C2C1BF",
"3$	c #5C5B5A",
"4$	c #6F6F6F",
"5$	c #B9B8B8",
"6$	c #D8D8D8",
"7$	c #E3E0D6",
"8$	c #C3B691",
"9$	c #B9A878",
"0$	c #B5A675",
"a$	c #B0A270",
"b$	c #AC9D6E",
"c$	c #A99B6D",
"d$	c #988A5D",
"e$	c #605430",
"f$	c #6B5F3B",
"g$	c #C8B785",
"h$	c #B0A171",
"i$	c #B1A373",
"j$	c #B0A373",
"k$	c #AB9D6E",
"l$	c #B8A979",
"m$	c #CFBF90",
"n$	c #D8CFB7",
"o$	c #E1DFDA",
"p$	c #E8E7E7",
"q$	c #C0BEBD",
"r$	c #5E5D5D",
"s$	c #7B7B7B",
"t$	c #CDC7B9",
"u$	c #BFB08A",
"v$	c #B8A777",
"w$	c #B4A474",
"x$	c #AE9E6E",
"y$	c #AA9C6C",
"z$	c #AE9F6F",
"A$	c #AFA071",
"B$	c #AD9E6F",
"C$	c #AB9C6D",
"D$	c #A99A6B",
"E$	c #A99A6C",
"F$	c #A8996B",
"G$	c #A69769",
"H$	c #5D522E",
"I$	c #615633",
"J$	c #C6B685",
"K$	c #B09F71",
"L$	c #B0A071",
"M$	c #B0A172",
"N$	c #AC9E6F",
"O$	c #AD9F6F",
"P$	c #C5B687",
"Q$	c #DAD0B3",
"R$	c #E7E5E1",
"S$	c #CAC8C8",
"T$	c #6C6865",
"U$	c #A39873",
"V$	c #A89A6C",
"W$	c #AD9D6E",
"X$	c #B1A271",
"Y$	c #AD9E6E",
"Z$	c #A99B6B",
"`$	c #A59668",
" %	c #5E522E",
".%	c #776A44",
"+%	c #554B2A",
"@%	c #C5B483",
"#%	c #AC9F70",
"$%	c #AD9F70",
"%%	c #AB9D6F",
"&%	c #AA9C6E",
"*%	c #A7996A",
"=%	c #A7996B",
"-%	c #B8AA7E",
";%	c #CBC1A9",
">%	c #E1DDD6",
",%	c #BEB28E",
"'%	c #B7A877",
")%	c #AC9C6D",
"!%	c #B1A273",
"~%	c #AB9D70",
"{%	c #A8996A",
"]%	c #A49667",
"^%	c #A39466",
"/%	c #A39566",
"(%	c #665A36",
"_%	c #80734C",
":%	c #C5B583",
"<%	c #AB9E6F",
"[%	c #AA9C6D",
"}%	c #A99B6C",
"|%	c #9B8D61",
"1%	c #B6A576",
"2%	c #B3A374",
"3%	c #AB9C6C",
"4%	c #AB9B6D",
"5%	c #B3A473",
"6%	c #AFA072",
"7%	c #AC9C6E",
"8%	c #A19264",
"9%	c #A09164",
"0%	c #A29466",
"a%	c #A39567",
"b%	c #786B47",
"c%	c #594E2D",
"d%	c #C6B583",
"e%	c #AD9D6F",
"f%	c #AC9D6F",
"g%	c #A6986A",
"h%	c #A6986B",
"i%	c #918458",
"j%	c #AB9D6D",
"k%	c #AB9B6E",
"l%	c #AA9B6D",
"m%	c #A29366",
"n%	c #9E9063",
"o%	c #A19265",
"p%	c #796C45",
"q%	c #4E4426",
"r%	c #C5B383",
"s%	c #A6996B",
"t%	c #A5986B",
"u%	c #A5976A",
"v%	c #A49669",
"w%	c #867A50",
"x%	c #A59869",
"y%	c #B2A272",
"z%	c #AB9B6C",
"A%	c #A29467",
"B%	c #A39467",
"C%	c #A19366",
"D%	c #877B50",
"E%	c #5E522B",
"F%	c #5A4F2B",
"G%	c #584E2D",
"H%	c #A6976A",
"I%	c #A5986A",
"J%	c #A59769",
"K%	c #A49668",
"L%	c #A39568",
"M%	c #A29567",
"N%	c #A09366",
"O%	c #9F9265",
"P%	c #716740",
"Q%	c #978A5F",
"R%	c #A89A6B",
"S%	c #72663D",
"T%	c #5C512B",
"U%	c #5B4F2C",
"V%	c #5F5531",
"W%	c #6B603B",
"X%	c #5E5433",
"Y%	c #7F7F7F",
"Z%	c #C0B17F",
"`%	c #A69869",
" &	c #A59768",
".&	c #A19467",
"+&	c #A19466",
"@&	c #A09265",
"#&	c #6F633E",
"$&	c #95885C",
"%&	c #A7986C",
"&&	c #9B8E61",
"*&	c #7D734B",
"=&	c #5E5334",
"-&	c #584F2E",
";&	c #665B37",
">&	c #6E633F",
",&	c #756A42",
"'&	c #796D45",
")&	c #605533",
"!&	c #A19365",
"~&	c #716640",
"{&	c #84774E",
"]&	c #A49567",
"^&	c #A09264",
"/&	c #998C63",
"(&	c #8F8363",
"_&	c #706543",
":&	c #504723",
"<&	c #554B26",
"[&	c #635834",
"}&	c #6C613C",
"|&	c #746842",
"1&	c #776B44",
"2&	c #5E5432",
"3&	c #A49568",
"4&	c #A19465",
"5&	c #A09365",
"6&	c #9E9165",
"7&	c #9E9265",
"8&	c #766A44",
"9&	c #766B44",
"0&	c #9E9064",
"a&	c #928457",
"b&	c #72673F",
"c&	c #534723",
"d&	c #544A27",
"e&	c #695F3B",
"f&	c #6E633D",
"g&	c #766A43",
"h&	c #786B44",
"i&	c #5D5231",
"j&	c #BCAC7C",
"k&	c #796D46",
"l&	c #70643F",
"m&	c #9C8E61",
"n&	c #9A8C60",
"o&	c #8B7D52",
"p&	c #615531",
"q&	c #544A26",
"r&	c #574D2B",
"s&	c #645935",
"t&	c #71653F",
"u&	c #756A43",
"v&	c #635835",
"w&	c #544D38",
"x&	c #BBAB7B",
"y&	c #9E9162",
"z&	c #9E9164",
"A&	c #786C46",
"B&	c #8A7E53",
"C&	c #94875A",
"D&	c #95895C",
"E&	c #8B7E54",
"F&	c #655B39",
"G&	c #524829",
"H&	c #5C5132",
"I&	c #665B36",
"J&	c #6B613D",
"K&	c #5C5336",
"L&	c #6D623E",
"M&	c #857A53",
"N&	c #716748",
"O&	c #615636",
"P&	c #504624",
"Q&	c #5C522D",
"R&	c #6D633D",
"S&	c #746841",
"T&	c #645936",
"U&	c #574D2E",
"V&	c #645F4D",
"W&	c #6E633E",
"X&	c #564C28",
"Y&	c #493E1B",
"Z&	c #5A502C",
"`&	c #6E623E",
" *	c #756942",
".*	c #6E623D",
"+*	c #53492A",
"@*	c #605A47",
"#*	c #7E724C",
"$*	c #8A7D53",
"%*	c #9D8F62",
"&*	c #9D9062",
"**	c #9F9264",
"=*	c #726640",
"-*	c #655A35",
";*	c #6F633D",
">*	c #746942",
",*	c #70643E",
"'*	c #5A4F2F",
")*	c #5C5338",
"!*	c #615735",
"~*	c #81754D",
"{*	c #978A5D",
"]*	c #9E9163",
"^*	c #5E5331",
"/*	c #5B5232",
"(*	c #6D6755",
"_*	c #766B45",
":*	c #867951",
"<*	c #786C45",
"[*	c #615734",
"}*	c #625C46",
"|*	c #675C3A",
"1*	c #796E48",
"2*	c #766A42",
"3*	c #6A5E3A",
"4*	c #504628",
"5*	c #5A523C",
"6*	c #706440",
"7*	c #8D7F55",
"8*	c #998C5F",
"9*	c #988B5F",
"0*	c #988B5E",
"a*	c #574D2D",
"b*	c #595034",
"c*	c #7E724A",
"d*	c #8C7F55",
"e*	c #94875B",
"f*	c #756841",
"g*	c #534A2C",
"h*	c #6F6B5C",
"i*	c #6B603C",
"j*	c #93865A",
"k*	c #695D39",
"l*	c #4F4628",
"m*	c #65604C",
"n*	c #5F5533",
"o*	c #665B39",
"p*	c #7C7049",
"q*	c #8F8257",
"r*	c #5D5541",
"s*	c #594F2E",
"                                                                                                ",
"                                              . .                                               ",
"                                            + @ # $ % &                                         ",
"                                            * = - ; > , ' ) !                                   ",
"                                ~ {         ] ^ / ( _ : < [ } | 1 2                             ",
"                                3 4 5 6 7   8 9 0 a b c c d e f g h i j k                       ",
"                                l m n o p q r s t u v w x y z A B ; C D E F G H                 ",
"                                I J K L M N O P Q R S T U V W X Y Z `  ...+.@.#.$.              ",
"                %.&.            *.=.-.;.;.>.,.'.).!.~.{.].^./.(._.:.<.C [.}.|.1.2.3.            ",
"                4.5.6.7.8.    9.0.a.-.b.-.c.b.>.d.e.f.g.h.i.j.k.l.m.n.o.p.q.r.s.[ t.u.          ",
"                v.m w.x.y.z.A.B.C.D.n E.-.>.F.G.H.I.=.J.K.L.M.N.O.P.Q.R.S.T.U.s.V.W.X.Y.        ",
"                Z.J K L M `. +.+++@+#+$+%+&+G.H.*+I.=.=+-+f.;+>+,+'+)+!+T.~+{+]+^+/+(+_+        ",
"                :+=.-.;.;.>.,.'.).<+[+}+|+1+g.H.2+*+3+4+5+d.6+7+8+9+0+a+b+<.c+d+^+e+f+g+        ",
"              h+i+a.-.b.-.c.b.>.d.e.f.g.j+k+l+m+n+H.n+o+p+q+r+s+t+u+v+w+x+y+z+A+B+C+D+E+        ",
"              F+G+H+;.-.-.>.F.G.H.I.=.J.K.I+J+Z.K+=.n+q+L+M+0.N+O+P+Q+R+X S+T+U+V+W+X+Y+        ",
"              Z+`+ @.@F.+@,.G.H.*+I.=.=+-+f.;+@@#@$@f.%@&@*@=@-@;@>@,@'@)@!@~@{@]@^@/@(@        ",
"              { O  @.@_@+@+@G.H.2+*+3+4+5+d.6+:@<@[@}@|@1@2@3@4@5@6@7@8@9@0@a@b@c@d@e@f@g@      ",
"              h@i@j@;._@_@>.G.k@H.H.n+o+p+q+r+s+l@m@n@H+`.o@p@q@-+r@s@t@u@v@w@x@y@z@A@B@C@      ",
"          D@E@F@n E.F.>.G.G@H@*+H.k@n+q+L+I@J@N+O+i+6@K@k@H+|@L@M@J.N@O@P@V+Q@R@S@T@U@V@W@X@    ",
"      Y@Z@`@ #.#%@>.+@+@>.;.G@+#@###f.%@&@$#%#&#*#=#-#;#a.G.k@>#|@,#'#)#!#~#{#]#^#/#(#_#:#<#    ",
"    [#}#}#|#1#2#s+c.3#4#5#6#+@7#k@=.H+|@1@&@8#9#&#0#a#b#c#-.b._@d#e#f#g#h#i#j#V@k#l#_#m#n#o#    ",
"    p#q#r#s#t#u#v#w#x#y#y#x#4#3#z#A#B#M `.o@C#D#E#F#G#H#I#J#K#y#b.L#M#N#O#P#l#Q#R#S#T#U#V#W#    ",
"    X#Y#r#s#s#m#s#Z#`# $.$+$@$#$$$%$%$G.k@H+|@L@M@l@-#k+&$*$=$K#-$;$>$,$t#r#'$s#)$!$s#U#~${$    ",
"  ]$^$Y#r#s#r#r#r#m#/$/$($_$:$<$[$}$|$1$+@G.k@>#|@2$3$4$5$6$7$8$,$9$0$s#a$n#b$!$b$c$r#~$:#d$e$  ",
"  f$^$g$h$s#s#s#s#s#i$i$j$n#k$l$m$n$o$r+p$x#b._@d#q$r$s$t$u$P#v$w$O#x$~$b$y$z$A$B$C$D$E$F$G$H$  ",
"  I$^$J$S#K$L$L$L$A$M$M$h$N$O$N$B$~$Z#P$Q$R$K#y#b.S$T$U$,$P#w$)$)$C$D$V$W$X$n#Y$y$!$D$!$Z$`$ %  ",
".%+%^$@%b$b$N$N$N$N$#%$%$%b$b$%%b$&%c$*%=%(#-%;%>%,%l#'%h$b$)%b$D$C$~$!%~%)$!$C$!$!${%]%^%/%(%  ",
"_%^$^$:%b$N$N$<%N$B$$%B$N$k$[%}%V$V$F$*%=%=%=%|%w$1%2%h$3%4%b$~$5%U#6%7%E$E$F$F$G$8%9%0%a%b%    ",
"c%^$^$d%e%e%7%f%W$C$[%c$V$=%=%=%g%h%=%=%=%=%g%i%B$r#A$!$D$j%h$U#L$z$b$[%k%l%:#m%n%m%o%p%q%      ",
"      r%C$!$C$l%l%D$V$=%=%=%=%=%=%=%=%s%t%u%v%w%x%C$j%k$C$j%~$y%b$z%C$[%E$A%W@B%C%D%E%F%G%      ",
"      u#g%G$G$H%:#:#=%=%=%g%I%J%J%v%K%L%M%N%O%P%Q%y$j%V#}%C$D$R%!$C$R%A%W@C%|%S%T%U%V%W%X%Y%    ",
"      Z%G$`% &G$H%:#=%s%g%K%L%A%.&+&N%N%@&O%O%#&$&E$y$!$l%k$E$E$%&a%n%0%&&*&=&-&;&>&,&'&)&Y%Y%  ",
"      Z%G$:#`%x%`$M%a%A%!&O%O%O%O%O%O%O%O%O%O%~&{&R%D$l%l%=%:#]&^&/&(&_&:&<&[&}&|&1&1&1&2&Y%Y%  ",
"      Z%x%x% &`$3&!&4&5&6&6&6&6&7&O%O%O%O%O%O%8&9&R%D$l%=%W@0&5&a&b&c&d&e&f&g&1&1&1&h&g&i&Y%Y%  ",
"      j&9%!&!&9%W@W@O%O%O%O%6&6&6&6&O%O%O%O%O%k&l&m& &:#@&n&o&p&q&r&s&t&u&1&1&h&1&1&1&v&w&Y%    ",
"      x&y&9%W@W@W@W@O%O%O%O%O%O%O%O%z&O%z&O%6&A&~&B&C&D&E&F&G&H&I&p#1&1&1&1&1&1&1&J&K&Y%G#      ",
"      j&W@W@W@W@W@W@O%O%O%O%O%O%O%O%O%O%O%O%O%1&L&M&N&O&P&Q&R&S&g&1&1&1&1&1&1&T&U&V&Y%Y%        ",
"      j&W@W@W@W@W@W@O%O%O%O%O%O%O%O%O%O%O%O%O%'&W&X&Y&Z&`& *g&1&1&1&1&1&1&.*+*@*Y%Y%Y%          ",
"      #*$*%*%*&*n%n%**O%O%O%O%O%O%@&O%O%O%O%O%k&=*-*;*>*1&1&1&1&1&1&g&,*'*)*Y%Y%Y%              ",
"          !*~*{*%*]*O%O%O%O%O%O%O%O%O%O%O%O%O%k&1&1&1&1&1&1&1&1&g&p#^*/*(*Y%Y%                  ",
"              !*_*:*O%O%O%O%O%O%O%O%O%O%O%O%O%<*1&g&g&g& *|&p#p#[*U&}*Y%Y%                      ",
"                    |*1*O%O%O%O%************W@2* *|&S&S&p#=*3*4*5*Y%Y%Y%                        ",
"                        !*6*7*8*8*9*9*9*0*0*{*p#=*=*=*=*}&a*b*Y%Y%Y%                            ",
"                              X%c*d*e*e*e*e*e*f*=*=*#&v&g*h*Y%Y%                                ",
"                                  i*i*E&j*j*j*=*=*k*l*m*Y%Y%                                    ",
"                                      n*o*p*q*3*G%r*Y%Y%                                        ",
"                                            4*s*Y%Y%                                            ",
"                                                                                                "};
