/* XPM */
static char *magick[] = {
/* columns rows colors chars-per-pixel */
"32 32 251 2",
"   c #020202",
".  c #050504",
"X  c #050605",
"o  c #060606",
"O  c #020503",
"+  c #030a07",
"@  c #050b0a",
"#  c #080a07",
"$  c Gray4",
"%  c #0d0e0e",
"&  c #0a0e0c",
"*  c #0e100f",
"=  c #0a100e",
"-  c #061011",
";  c #0d1311",
":  c #0c1a1a",
">  c #0b161a",
",  c #131108",
"<  c #121513",
"1  c #121a19",
"2  c #161a19",
"3  c #141d1c",
"4  c #1a1a18",
"5  c #1e1d1b",
"6  c #1d1e1d",
"7  c #1a1d1c",
"8  c #141816",
"9  c #0d1c29",
"0  c #141d23",
"q  c #1b1f22",
"w  c #181f28",
"e  c #1c221f",
"r  c #192122",
"t  c #1c2424",
"y  c #1c2529",
"u  c #1d2826",
"i  c #1e292a",
"p  c #20211d",
"a  c #2f2e17",
"s  c #2a2b14",
"d  c #312f16",
"f  c #323217",
"g  c #323219",
"h  c #242523",
"j  c #242728",
"k  c #222926",
"l  c #252c2b",
"z  c #2b2d2d",
"x  c #2c2b27",
"c  c #232f30",
"v  c #282f31",
"b  c #2c322e",
"n  c #23312a",
"m  c #2b3535",
"M  c #2d3632",
"N  c #2e3536",
"B  c #2a3232",
"V  c #2e3639",
"C  c #2b343a",
"Z  c #2c3936",
"A  c #2e3a39",
"S  c #2e3c3c",
"D  c #323532",
"F  c #303635",
"G  c Gray20",
"H  c #31373a",
"J  c #313936",
"K  c #353b37",
"L  c #323a39",
"P  c #323a3d",
"I  c #323d3e",
"U  c #353a3a",
"Y  c #363d3e",
"T  c #343c3b",
"R  c #3d3837",
"E  c #3e3a39",
"W  c #2f3b40",
"Q  c #363e41",
"!  c #353e43",
"~  c #383d44",
"^  c #33413e",
"/  c #3a423f",
"(  c #3d453f",
")  c #344142",
"_  c #374848",
"`  c #3d4545",
"'  c #3a4344",
"]  c #3c4548",
"[  c #3e4c4b",
"{  c #384745",
"}  c #433c3c",
"|  c #4a4d2a",
" . c #444637",
".. c #43443c",
"X. c #4f5126",
"o. c #4e522a",
"O. c #535526",
"+. c #565927",
"@. c #575928",
"#. c #5b5c2a",
"$. c #505329",
"%. c #585838",
"&. c #7c7b3e",
"*. c #434545",
"=. c #424a48",
"-. c #4b4342",
";. c #4c4b4b",
":. c #494846",
">. c #424e50",
",. c #47534e",
"<. c #4e5d5b",
"1. c #4e5853",
"2. c #504947",
"3. c #504f4f",
"4. c #57504d",
"5. c #5c554e",
"6. c #555553",
"7. c #565655",
"8. c Gray32",
"9. c #545d5b",
"0. c #5c5453",
"q. c #595957",
"w. c #5d5c5a",
"e. c #535852",
"r. c #55635d",
"t. c #5a635e",
"y. c #5b6465",
"u. c #5b6966",
"i. c #536460",
"p. c #645d57",
"a. c #655c59",
"s. c #6a5e5d",
"d. c #65645f",
"f. c #74744a",
"g. c #626b64",
"h. c #6d6262",
"j. c #716565",
"k. c #71666a",
"l. c #756967",
"z. c #756969",
"x. c #726e6c",
"c. c #7a6e6e",
"v. c #716f70",
"b. c #7c6f71",
"n. c #74726d",
"m. c #767472",
"M. c #777878",
"N. c #7c7372",
"B. c #7e7d79",
"V. c #7a7979",
"C. c #857676",
"Z. c #827573",
"A. c #847a77",
"S. c #877979",
"D. c #8a7d7d",
"F. c #907f7e",
"G. c #8e7e80",
"H. c #96985d",
"J. c #82817e",
"K. c #8d807e",
"L. c #91827f",
"P. c #c9c700",
"I. c #cfce02",
"U. c #d6d501",
"Y. c #dcdc01",
"T. c #dddb0b",
"R. c #d1d211",
"E. c #e4e301",
"W. c #eaea02",
"Q. c #f0ef00",
"!. c #f3f302",
"~. c Yellow",
"^. c #ffff02",
"/. c #faf901",
"(. c #ffff0f",
"). c #f9f703",
"_. c #ffff17",
"`. c #ffff1a",
"'. c #878685",
"]. c #8e8080",
"[. c #928483",
"{. c #978987",
"}. c #9c8c8a",
"|. c #9f908e",
" X c #949493",
".X c #999798",
"XX c #9c9a9a",
"oX c #92a09c",
"OX c #a1948f",
"+X c #a49592",
"@X c #a79994",
"#X c #a99a95",
"$X c #ad9d99",
"%X c #a0a09f",
"&X c #b1a19c",
"*X c #a4a3a3",
"=X c #a8a8a6",
"-X c #acabab",
";X c #b7a8a3",
":X c #b0afaf",
">X c #bcaca6",
",X c #beafa8",
"<X c #b4a5a0",
"1X c #b1b1af",
"2X c #b5b4b3",
"3X c #bcbcba",
"4X c #b6b5ba",
"5X c #b7b7c2",
"6X c #bcbbc7",
"7X c #c0afaa",
"8X c #c1b3ab",
"9X c #c0bfbf",
"0X c #cab7b2",
"qX c #d1bdb7",
"wX c #c0bfcb",
"eX c #c0c0bf",
"rX c #d4c1ba",
"tX c #d9c7bf",
"yX c #c3c2c1",
"uX c #c5c5c5",
"iX c #c8c8c6",
"pX c #cdcccb",
"aX c #c8c6c3",
"sX c #c7c8d5",
"dX c #cecddb",
"fX c #c4c3d0",
"gX c #d2d1cf",
"hX c #d4d4d3",
"jX c #d9d8d7",
"kX c #dcdbdb",
"lX c #d8d9e7",
"zX c #deddeb",
"xX c #d4d4e2",
"cX c #e0dedb",
"vX c #e1e1df",
"bX c #e7e6e6",
"nX c #e2e2e1",
"mX c #eae9e7",
"MX c #edeceb",
"NX c #e9e7f5",
"BX c #e8e9f7",
"VX c #e3e3f2",
"CX c #f0efef",
"ZX c #f4f3f3",
"AX c #f7f8f6",
"SX c #f8f7f5",
"DX c #f9f8f7",
"FX c Gray100",
"GX c #fdfcfc",
"HX c #fbfbfa",
"JX c None",
/* pixels */
"  o l J J F F b E -.E E R R R } } -.2.3.0.a.a.2.5 D h 6 6 4 < JX",
"    =.,.,.=.=.A p.j.0.0.0.0.0.0.a.s.N.[.OXOXOXZ.< ;.F z z h h   ",
"  ; u.] ] P r : N.{.c.N.b.b.N.C.D.+XZ.5.a.A.tX@XO U ` *.*./ D $ ",
"  % g.S ` ) u ; x.[.j.z.l.z.c.Z.K.&X2.O - j 7X[.@ ) / I A ] b o ",
"  * y.8 H ) u > n.F.h.z.z.c.Z.D.}.0Xp.2 z F $XZ.$ L L M J ) B o ",
"  * t.h Q / u : n.L.k.c.N.S.[.+X;XrX0.1 l F }.z.= m L B Z ) B o ",
"  % u.` { / i : n.{.c.C.D.{.+X,X,X>X-.2 l D D.s.= H N N B P z o ",
"  % u.*.{ ~ j : x.}.S.[.}.@X,X,X+X|.} 3 l D C.a.; Q J A K ^ z o ",
"  % t.` _ Q l 3 n.$X{.OX&X8X,X+XK.].R 2 l F C.s.= Y L b A ' v o ",
"  % t._ ) Y i : m.;X@X<X8X,X@X[.Z.C.R < r l S.s.= I N M M Y b o ",
"  & y.) U P l : n.rX0XrXqX>X+X[.C.C.k.6.0.q.G.h.; P H F N A z o ",
"  % u.) Y J A c U x p h p 6 5 4 4 4 4 h h p 5 4 6 Y H L N U z o ",
"  % i.) ' ( / Q V B B m B C H C P P P P W I P I Y P J F L L l o ",
"  % r.Y { [ [ >.>.[ =.] ` ] ` ` [ ] ] *.] ` ' ] ) Q Y P L L z o ",
"  % u.! Q Q ) 2 + + @ + @ + # @ @ @ @ & @ & @ & = 2 T A M L l o ",
"  % t.Y ^ L ..pXbXnXnXvXcXkXjXhXgXpXpXaXyX3X3X2X2XXXD N b L l o ",
"  % r.Q ) 2 '.FXFXFXFXFXFXFXFXFXFXFXGXAXZXCXbXkXjXnXd.q M H l o ",
"  % t.Q Q 1 J.FXFXq.b F F D G G G G z z z z j *.iXhXw.r D V l o ",
"  * r.S L 8 J.FXFXFXFXFXFXGXAXZXZXMXmXbXnXjXhXpXuXhXw.r M N k o ",
"  * r.A L : J.FXFXFXFXFXFXFXFXFXFXDXZXCXMXbXnXhXyXpXw.r M N j o ",
"  * r.L ) 1 J.FXGXM.q.w.w.w.q.q.7.7.6.8.8.3.;.w.yXpXq.r Z N l o ",
"  * r.S L 2 B.FXDX9X2X2X2X1X-X-X=X=X*X*XXXXX X.X9XpXq.r N N l . ",
"  % 9.m I 1 B.FXZXFXFXFXFXFXHXAXZXCXMXbXnXkXjXpX3XuXq.e Z A k o ",
"$ 2 <.B Y 1 V.FXZX3X1X2X:X-X=X=X=X*XXXXXXX.X X X3XyX6.r F D k . ",
"% 6 <.B Q 3 N.FXMXv.8.7.7.7.8.8.8.3.;.;.;.;.*.q.2XeX6.r J m k o ",
"% 6 r.V I 7 m.FXMXSXHXDXSXZXCXMXmXnXvXkXjXhXpXyX2X3X8.y N M h o ",
"% 6 9.A ) 3 V.FXBXBXVXVXzXzXlXxXxXdXdXsXfXwX6X5X4X6X7.r Z m u . ",
"% 6 t.Q ' 3 M.f.f g g g g f g f d a a a s s s s s %.7.y n l q . ",
"% e 1.4 D 9 &.(.~.~.~.~.~.~.~.~.~.~./.!.!.W.E.Y.U.T.#.0 T oXe.. ",
"% 6 1., B 9 f.`.~.~.~.^.~./.).!.!.W.W.E.Y.U.U.I.P.R.%.0 i 8.b o ",
"% r g.=.` 0 H._.~.~.~.~.~.~.~.~.~.~./.!.Q.W.E.Y.U.T.f.w l v e o ",
"$ 4 K h D B  .#.#.#.#.#.@.+.+.+.+.O.O.$.O.X.$.$.o.| ..F 7 < e $ "
};
