/* XPM */
static char * folder_16x16_xpm[] = {
"16 16 71 1",
" 	c None",
".	c #D4D0C9",
"+	c #D2C5B0",
"@	c #D1B98D",
"#	c #D0AF75",
"$	c #CEAC72",
"%	c #7E6B4D",
"&	c #FEFBF2",
"*	c #FAF7EF",
"=	c #F0E5D2",
"-	c #E9DBC2",
";	c #E4D0B1",
">	c #DEC8A7",
",	c #D9C7AD",
"'	c #D3BFA3",
")	c #CEBA9E",
"!	c #CAB292",
"~	c #FFF7E0",
"{	c #FFF4CF",
"]	c #FFE9BB",
"^	c #FEDFAF",
"/	c #FBE1BB",
"(	c #F4DDBD",
"_	c #EAD6B9",
":	c #E4D4BC",
"<	c #877968",
"[	c #7F5F3C",
"}	c #FFF4DD",
"|	c #FFE7B9",
"1	c #FEDFAC",
"2	c #FAD7A6",
"3	c #F4D2A2",
"4	c #E8C89A",
"5	c #D7BA90",
"6	c #CDB18A",
"7	c #594A37",
"8	c #43311F",
"9	c #FDF1DC",
"0	c #FAD9A8",
"a	c #F6D3A3",
"b	c #ECCB9D",
"c	c #DDC095",
"d	c #D2B58D",
"e	c #CAAD87",
"f	c #C0A682",
"g	c #584A38",
"h	c #2D2114",
"i	c #F1E2CC",
"j	c #E5C597",
"k	c #DCBD93",
"l	c #CCB089",
"m	c #C2A884",
"n	c #B79F7C",
"o	c #AD9676",
"p	c #4C3E2F",
"q	c #1A130B",
"r	c #8D7A5E",
"s	c #8F7B60",
"t	c #AF9777",
"u	c #BAA17E",
"v	c #B39A7A",
"w	c #A38C70",
"x	c #978268",
"y	c #3B3026",
"z	c #050402",
"A	c #000000",
"B	c #54493A",
"C	c #615443",
"D	c #71614E",
"E	c #342C22",
"F	c #120E0B",
"                ",
"                ",
"                ",
"                ",
"    .+          ",
"    @#$%        ",
"  &*=-;>,')!    ",
"  ~{]^/(_:<[    ",
"  }|12345678    ",
"  90abcdefgh    ",
"  ijkdlmnopq    ",
"   rstuvwxyzAA  ",
"       BCDEAA   ",
"          F     ",
"                ",
"                "};
