/* XPM */
static char *magick[] = {
/* columns rows colors chars-per-pixel */
"32 32 191 2",
"   c Gray0",
".  c #020202",
"X  c Gray2",
"o  c #060606",
"O  c Gray3",
"+  c #0b0b0b",
"@  c Gray5",
"#  c Gray6",
"$  c #110c02",
"%  c #111111",
"&  c #131313",
"*  c #151515",
"=  c #161616",
"-  c #191919",
";  c Gray10",
":  c #1d1d1d",
">  c #1e1e1e",
",  c #1f2024",
"<  c #32290a",
"1  c #393014",
"2  c Gray13",
"3  c #232323",
"4  c #252525",
"5  c #272727",
"6  c #282828",
"7  c #2a2a2a",
"8  c #2d2d2d",
"9  c Gray18",
"0  c #313131",
"q  c Gray20",
"w  c #353535",
"e  c #373737",
"r  c #313238",
"t  c #393939",
"y  c Gray23",
"u  c Gray24",
"i  c #3f3f3f",
"p  c #473f22",
"a  c #5d501c",
"s  c #464536",
"d  c #414141",
"f  c Gray26",
"g  c Gray27",
"h  c Gray28",
"j  c #494949",
"k  c Gray29",
"l  c Gray30",
"z  c #4e4e4e",
"x  c #515151",
"c  c Gray32",
"v  c #555555",
"b  c #565656",
"n  c Gray35",
"m  c #5b5b5b",
"M  c Gray36",
"N  c Gray37",
"B  c #605e55",
"V  c Gray38",
"C  c #626262",
"Z  c #656562",
"A  c #646464",
"S  c #676767",
"D  c Gray41",
"F  c #6a6a6a",
"G  c #6d6d6d",
"H  c #717171",
"J  c Gray45",
"K  c #747474",
"L  c #777777",
"P  c #75767d",
"I  c #7b7b7b",
"U  c Gray47",
"Y  c #7a7b7f",
"T  c #7c7c7c",
"R  c Gray50",
"E  c #977f1f",
"W  c #b29a3c",
"Q  c #80807e",
"!  c #8f8a74",
"~  c #9f9577",
"^  c #a79445",
"/  c #b69e41",
"(  c #a39974",
")  c #b7a452",
"_  c #b7a55a",
"`  c #c2a32e",
"'  c #c6a72d",
"]  c #ceab24",
"[  c #ccad33",
"{  c #c9ae3f",
"}  c #ceb138",
"|  c #d0af33",
" . c #d5b32d",
".. c #d0b23a",
"X. c #dbba3c",
"o. c #ceb340",
"O. c #d3b541",
"+. c #d4b949",
"@. c #dabc47",
"#. c #dbbe44",
"$. c #d9ba4a",
"%. c #e5c548",
"&. c #e9ca52",
"*. c #ebcb52",
"=. c #edce57",
"-. c #f4d55a",
";. c #f6da66",
":. c #ffdf62",
">. c #ffe167",
",. c #818181",
"<. c #838383",
"1. c Gray52",
"2. c #83848a",
"3. c #87888a",
"4. c Gray54",
"5. c #888888",
"6. c #8b8b8c",
"7. c #8d8d8d",
"8. c #8e8e8e",
"9. c #8d8f9a",
"0. c #8f9199",
"q. c #92918d",
"w. c #9c988b",
"e. c Gray57",
"r. c #939393",
"t. c #919297",
"y. c Gray58",
"u. c Gray59",
"i. c #989898",
"p. c #9a9999",
"a. c #9b9b9b",
"s. c #9d9d9d",
"d. c #9f9f9f",
"f. c #9799a2",
"g. c #979aa0",
"h. c #999ba1",
"j. c #9b9da3",
"k. c #9c9da1",
"l. c #a9a48a",
"z. c #a4a39a",
"x. c #aca590",
"c. c Gray63",
"v. c #a1a2a3",
"b. c #a2a2a2",
"n. c #a1a1a4",
"m. c #a2a3a4",
"M. c #a4a4a4",
"N. c #a5a6a7",
"B. c #a7a7a7",
"V. c #a6a7ab",
"C. c #a7a8ad",
"Z. c #a9a9a9",
"A. c #aaaaa9",
"S. c #aaaaaa",
"D. c #aaaaad",
"F. c #acacac",
"G. c #aeaeaf",
"H. c #a9abb3",
"J. c #b1b1b1",
"K. c #b2b2b2",
"L. c #b4b4b4",
"P. c #b1b3bb",
"I. c #b9b9b9",
"U. c #babbbb",
"Y. c #bcbcbc",
"T. c Gray75",
"R. c #c1c1c1",
"E. c Gray76",
"W. c #c0c1c4",
"Q. c #c2c3c5",
"!. c Gray77",
"~. c Gray78",
"^. c #c5c6c8",
"/. c #c4c6ca",
"(. c Gray79",
"). c #c9c9ca",
"_. c #cbcbcb",
"`. c #cdcdcd",
"'. c Gray81",
"]. c #d3d3d3",
"[. c #d0d0d0",
"{. c Gray83",
"}. c #d7d7d7",
"|. c Gray85",
" X c #dddddd",
".X c #dfdfdf",
"XX c Gray89",
"oX c #e7e7e7",
"OX c Gray91",
"+X c #f1f1f1",
"@X c None",
/* pixels */
"@X@X@X@X@X@X@X@X  X   @X@X@X@XO > ; X X   @X@X@X@X@X@X@X@X@X@X@X",
"@X@X@X@X@X@X@X@X@X@X@X@X@X@X@XO 9 2 @X@X@X@X@X@X@X@X@X@X@X@X@X@X",
"@X@X@X@X@X@X@X% t v i * @X@X@Xf A A v k 9 @X@X@X@X@X@X@X@X@X@X@X",
"@X@X@X@X@X@X9 G J.|.J.A 6 @X* k H K D V g @X@X@X@X@X@X@X@X@X@X@X",
"@X@X@X@X@X9 v c.oX`.J.d.A w g c G K e.R z @X@X@X@X@X@X@X@X@X@X@X",
"@X@X@X@X@ t > 6 i D 4.i.e.<.e.y.4.U y.7.A 0 @X@X@X@X@X@X@X@X@X@X",
"@X@X@X@X@Xg 2 > 2 ; w 7.F.S.T.B.i.7.S.c.U g f 5 @Xt g 2 @X@X@X@X",
"@X@X@X@X@X0 t % 2 6 > t y.S.c.7.7.i.i.4.y.7.M k n n f k @X@X@X@X",
"@X@X@X@X@X@Xz w t v n c <.F.c.i.y.c.d.i.F.S.i.U D R A i w @X@X@X",
"  @X@X@X@X@Xg F.c.D V <.J.S.F.B.c.F.k.j.j.i.4.7.7.i.7.t 0 @X@X@X",
"> 6 k c c V R E.J.R K c.L.F.J.S.B.P.S.l.x.9.P 6.i.y.c g ; @X@X@X",
"t g M H y.S.I.E.J.I.F.F.J.T.T.I.H.! { [ ' _ z.f.y.c.n z @X@X@X@X",
"g v n H 4.J.}.}._.`.~.E.I.E.T.Q.Z E X...| ] ) f.m.i.U i ; @X@X@X",
"i f A <.B.T.L.F.B.B.F.~._.T.T.V.p #.*.#.O.} ` w.C.J.7.f w @X@XX ",
"i f f t 0 >     O M F.E.T.~.E.m.< / :.*.$.o. .~ h.c.<.K A z f > ",
"9 9 O       O f 7.I.|.`._.[._.Q.s a ;.>.-.%.+.q.t.i.y.J.y.D 0 9 ",
"> 6 w w 2 ; i M 7.e.J.~.}.[._.[.Q $ 1 ^ =.W ( 2.e.y.c.y.e.H 0 t ",
"  @X@X2 w c 9 z D <.<.y.[.[.`.T.`.c.r , m Y t.3.d.T.B.w % > 9 i ",
"@X@X@X@X@Xw 9 i c M v y.}.|. X_.T._.E.^./.D.B.I.J.T.d.t O     w ",
"@X@X@X@X@X9 i 9 w k i. X X}. X`._.~.~.`.}.~.L.`.F.E.H 2 > > 6 9 ",
"@X@X@X@X@X@Xv 6 w v 7.oX+X~.i.|.}.E.~.E._.T._._.I.T.4.9 v 9 > O ",
"@X@X@X@X@X2 M z n G v y.T.f 9 H T.`.}._.`.`.}.L.B.T.J.<.g @X@X@X",
"@X@X@XO i z w k M D V k 5 ; i t i V _.~.I.7.K f 2 7.B.A g @X@X@X",
"@X@X@X2 f 5 i g f z k * % 2 f f t 0 ~.XXJ.0 5 0 * w V 0 t 9 @X@X",
"@X@X@X% g 2 6 i i g 0 X @ > w w 0 i |.OXE.0 5 9 ; ; 0 0 9 w @X@X",
"@X@X@X@X0 c 5 9 t g z i @ @ ; 2 > 9 n D A 2 ; % X > 6 w 5 0 @X@X",
"@X@X@X@X@Xt g w f @X@X0 g g * ; 0 t i 0 6 ; f >   > 2 5 g 5 @X@X",
"@X@X@X@X@X@X5 6 @X@X@X@X@Xf 9 5 t k t t k z 0 g 5 ; > k w @X@X@X",
"@X@X@X@X@X@X@X@X@X@X@X@X@X@X0 6 i 0 0 w f @X@X@Xf i w 0 @X@X@X@X",
"@X@X@X@X@X@X@X@X@X@X@X@X@X@Xw 9 6 6 5 6 i @X@X@X@X@X@X@X@X@X@X@X",
"@X@X@X@X@X@X@X@X@X@X@X@X@X@Xg 0 > ; @ 6 i @X@X@X@X@X@X@X@X@X@X@X",
"@X@X@X@X@X@X@X@X@X@X@X@X@XX > 9 9 6 5 2 @ @X@X@X@X@X@X@X@X@X@X@X"
};
