/* XPM */
static char * mozilla_icon_32x32_xpm[] = {
"32 32 236 2",
"  	c None",
". 	c #0C0C0C",
"+ 	c #161312",
"@ 	c #020000",
"# 	c #000000",
"$ 	c #050505",
"% 	c #181818",
"& 	c #0C0302",
"* 	c #030303",
"= 	c #080302",
"- 	c #57150D",
"; 	c #821F13",
"> 	c #972416",
", 	c #761C11",
"' 	c #43100A",
") 	c #080303",
"! 	c #060606",
"~ 	c #090201",
"{ 	c #0A0A0A",
"] 	c #180A08",
"^ 	c #180C0B",
"/ 	c #1C1C1C",
"( 	c #040101",
"_ 	c #4B120B",
": 	c #BB2D1B",
"< 	c #DA3420",
"[ 	c #AA2919",
"} 	c #B52B1A",
"| 	c #E23621",
"1 	c #A22718",
"2 	c #55140C",
"3 	c #832013",
"4 	c #9C2517",
"5 	c #902315",
"6 	c #130807",
"7 	c #151515",
"8 	c #030100",
"9 	c #64180F",
"0 	c #D2321F",
"a 	c #DC3520",
"b 	c #771D12",
"c 	c #240905",
"d 	c #2E0B06",
"e 	c #9D2617",
"f 	c #B22B1A",
"g 	c #8D2215",
"h 	c #47110A",
"i 	c #3E0F09",
"j 	c #3B0E09",
"k 	c #0D0302",
"l 	c #060101",
"m 	c #1E1E1E",
"n 	c #C42F1D",
"o 	c #DF3521",
"p 	c #A32718",
"q 	c #1F0805",
"r 	c #140503",
"s 	c #A82818",
"t 	c #952316",
"u 	c #6E1B10",
"v 	c #62180E",
"w 	c #A02D1F",
"x 	c #2D1F1D",
"y 	c #050101",
"z 	c #1D0704",
"A 	c #B92C1B",
"B 	c #A52818",
"C 	c #320C07",
"D 	c #C22E1C",
"E 	c #B82C1B",
"F 	c #4A120B",
"G 	c #69190F",
"H 	c #BC2D1C",
"I 	c #302726",
"J 	c #2D2929",
"K 	c #6C1F16",
"L 	c #290A06",
"M 	c #0F0C0C",
"N 	c #090909",
"O 	c #040404",
"P 	c #300B07",
"Q 	c #C62F1D",
"R 	c #BD2D1C",
"S 	c #962416",
"T 	c #58150D",
"U 	c #BF2E1C",
"V 	c #D1321F",
"W 	c #8A2114",
"X 	c #63180F",
"Y 	c #4F130B",
"Z 	c #67190F",
"` 	c #C52F1D",
" .	c #7C1D12",
"..	c #330C08",
"+.	c #110B0A",
"@.	c #242424",
"#.	c #212121",
"$.	c #0E0B0B",
"%.	c #56140D",
"&.	c #DE3520",
"*.	c #8E2215",
"=.	c #2B0A06",
"-.	c #260905",
";.	c #4F130C",
">.	c #D6331F",
",.	c #862014",
"'.	c #B32B1A",
").	c #992516",
"!.	c #CD311E",
"~.	c #E13621",
"{.	c #CA301E",
"].	c #52130C",
"^.	c #1F1F1F",
"/.	c #66180F",
"(.	c #D4331F",
"_.	c #6F1B10",
":.	c #DB3420",
"<.	c #AD2919",
"[.	c #3D0F09",
"}.	c #7F1E13",
"|.	c #080201",
"1.	c #0A0505",
"2.	c #200805",
"3.	c #952416",
"4.	c #9E2617",
"5.	c #5D160E",
"6.	c #DD3520",
"7.	c #B02A1A",
"8.	c #C7301D",
"9.	c #190604",
"0.	c #7A1D12",
"a.	c #2D2D2D",
"b.	c #080808",
"c.	c #210805",
"d.	c #2E0B07",
"e.	c #8C2214",
"f.	c #61170E",
"g.	c #1B0604",
"h.	c #390E08",
"i.	c #A92819",
"j.	c #400F09",
"k.	c #1A1919",
"l.	c #020202",
"m.	c #070201",
"n.	c #982516",
"o.	c #731B11",
"p.	c #A82819",
"q.	c #040303",
"r.	c #2B1715",
"s.	c #6F1C12",
"t.	c #CB311E",
"u.	c #A62818",
"v.	c #190E0D",
"w.	c #0D0D0D",
"x.	c #150503",
"y.	c #340C08",
"z.	c #E03621",
"A.	c #6C1A10",
"B.	c #0A0808",
"C.	c #323232",
"D.	c #2F2F2F",
"E.	c #322A29",
"F.	c #5E1911",
"G.	c #8C2114",
"H.	c #B62B1B",
"I.	c #922315",
"J.	c #140D0C",
"K.	c #0E0E0E",
"L.	c #0B0202",
"M.	c #A22717",
"N.	c #B72C1B",
"O.	c #410F09",
"P.	c #A52718",
"Q.	c #9F2617",
"R.	c #D5331F",
"S.	c #932315",
"T.	c #922316",
"U.	c #6A190F",
"V.	c #363636",
"W.	c #474747",
"X.	c #3A3A3A",
"Y.	c #342624",
"Z.	c #402825",
"`.	c #2A100D",
" +	c #131313",
".+	c #280A06",
"++	c #C12E1C",
"@+	c #801E13",
"#+	c #992416",
"$+	c #982416",
"%+	c #C9301D",
"&+	c #AC2919",
"*+	c #771C11",
"=+	c #42100A",
"-+	c #291917",
";+	c #343434",
">+	c #171717",
",+	c #B62B1A",
"'+	c #D83420",
")+	c #5D170E",
"!+	c #5B160D",
"~+	c #3F0F09",
"{+	c #260906",
"]+	c #120403",
"^+	c #070606",
"/+	c #202020",
"(+	c #0C0A0A",
"_+	c #010000",
":+	c #54140C",
"<+	c #DB3520",
"[+	c #701B11",
"}+	c #121111",
"|+	c #982417",
"1+	c #141414",
"2+	c #100402",
"3+	c #CC311E",
"4+	c #C02E1C",
"5+	c #942416",
"6+	c #250905",
"7+	c #791D12",
"8+	c #4E130B",
"9+	c #5E160E",
"0+	c #2F0B07",
"a+	c #E03521",
"b+	c #942316",
"c+	c #110402",
"d+	c #090404",
"e+	c #101010",
"f+	c #1C0704",
"g+	c #6E1A10",
"h+	c #741C11",
"i+	c #070404",
"j+	c #44100A",
"k+	c #7E1E13",
"l+	c #1E0704",
"m+	c #0E0302",
"                                                                ",
"                                                                ",
"                                                                ",
"                                                                ",
"                    . + @ # $ %                                 ",
"                & * = - ; > , ' ) ! ~ { ] ^ /                   ",
"              # ( _ : < : [ } | 1 2 3 4 5 , 6 7                 ",
"            8 ( 9 0 a b c d e | f g h i j k l #                 ",
"        m # # ' n o p q r s < t u _ v w x y r #                 ",
"      $ * # # z g o A B C D E F G H ; w I J K L M               ",
"    N O 8 # # P Q | | | R S z # T U V W X Y Z `  ...+.7         ",
"  @.  #.$.# # %.&.| | < *.F =.-.;.>.,.'.).*.!.| ~.{.> ].k # ^.  ",
"      # # ( L /.| | (._.!.| | | | :.<.[.p &.| | | | | | V }.|.  ",
"    O 1.* 2.3.4.| | f 5.6.| | | | 7.8._ 9.0.:.| | | | | | f l a.",
"  b.  # # c.: | | | B d.` | | | | e.f.g.# # h.i.o | | | | f.j.k.",
"    l.|.# m.p | | | n.( o.| | | | p.r # l # q.r.s.t.| | | : u.v.",
"      w.* # ' o | | o.x.y.1 z.| | | Z x.A.-.B.C.D.E.F.G.i.H.I.J.",
"    ^.* K.# L.M.| | N.O.P.N.Q.| | | R.S.T.E U.z k.V.W.X.Y.Z.`. +",
"    N     # # .+++| | E @+| #+G : z.~.>.R p.$+%+&+*+=+-+ +;+w.  ",
"        >+# # x.,+| | | 0 | '+)+L - !+~+{+]+|.C o.N.A ~+^+/     ",
"      /+  (+_+:+6.| | | | | | <+[+y # # &       * # # ~         ",
"          }+_+[.|+++| | | | ~.Q.=.y m.                          ",
"          1+2+=+3.| | | | 3+4+P.5+l                             ",
"          1+6+7+` | | | | : 8+S 9+#                             ",
"            N 0+p o | | a+t.b+c+d+e+                            ",
"              l f+g+n | a+S h+5.i+                              ",
"                  # ~ j+k+I.l+# #                               ",
"                        k.m+m.# #                               ",
"                                                                ",
"                                                                ",
"                                                                ",
"                                                                "};
