/* XPM */
static char *nedit_16x16[] = {
/* columns rows colors chars-per-pixel */
"16 16 17 1",
"  c #333300",
". c gray20",
"X c #663300",
"o c #666600",
"O c #666633",
"+ c gray40",
"@ c blue",
"# c #996600",
"$ c #999900",
"% c #cc9900",
"& c #cccc00",
"* c #ffcc00",
"= c yellow",
"- c gray60",
"; c gray80",
": c white",
"> c None",
/* pixels */
">>>*%#o$>>>**>>>",
">>$.+ &$ #oO.#>>",
">> ;:-o==$+::.>>",
">>.:::+$=&+::.>>",
">>.::::O&&+::.o>",
">*.::::;.$+::.o%",
">#.:::::; +::.o$",
"> .::--::-+::. *",
"%o.::-.;::;::.o>",
"#$.::-o.:::::.%>",
"% .::-$$+::::.>>",
">$.::-$=o-:::.>>",
">>.::-$== ;::.>>",
">>o+-. $=&.--X>>",
">>>$#%&# o o#&>>",
">>>>>>>>>&>>>>>>"
};
