/* XPM */
static char *magick[] = {
/* columns rows colors chars-per-pixel */
"16 16 212 2",
"   c #0a0200",
".  c #031727",
"X  c #001236",
"o  c #00193a",
"O  c #20141a",
"+  c #242324",
"@  c #2b292b",
"#  c #342d31",
"$  c #382f31",
"%  c #3d3b3d",
"&  c #002045",
"*  c #002b55",
"=  c #002c57",
"-  c #0a314b",
";  c #0d3a57",
":  c #2a384b",
">  c #3c3d41",
",  c #3e403e",
"<  c #0c476a",
"1  c #164969",
"2  c #11517d",
"3  c #1a5579",
"4  c #305366",
"5  c #335168",
"6  c Gray25",
"7  c #424042",
"8  c #454e5b",
"9  c #535253",
"0  c Gray33",
"q  c #565856",
"w  c #5a5a5a",
"e  c #5e5a61",
"r  c #635c60",
"t  c Gray39",
"y  c #68666a",
"u  c #6d6d6d",
"i  c #706b70",
"p  c #747474",
"a  c #797578",
"s  c #7c7c7c",
"d  c #7d7c7d",
"f  c Gray",
"g  c #075a85",
"h  c #105986",
"j  c #1c5b85",
"k  c #1d5e88",
"l  c #186088",
"z  c #1a6190",
"x  c #265e83",
"c  c #255f87",
"v  c #2a648b",
"b  c #296d94",
"n  c #346b8d",
"m  c #367094",
"M  c #3b7395",
"N  c #4281a2",
"B  c #4e89a3",
"V  c #5997b1",
"C  c #5a96b2",
"Z  c #748c99",
"A  c #618ca5",
"S  c #659fb7",
"D  c #7691a0",
"F  c #73a7bf",
"G  c #807f7e",
"H  c #807e84",
"J  c #848384",
"K  c #848584",
"L  c Gray52",
"P  c #898588",
"I  c #888888",
"U  c #888a88",
"Y  c #8a898c",
"T  c #8b8c8b",
"R  c #8d8d8d",
"E  c #8e8e8e",
"W  c #8e8f8e",
"Q  c #8e918e",
"!  c #918f91",
"~  c #909190",
"^  c #939293",
"/  c #939393",
"(  c #939394",
")  c #959595",
"_  c #969796",
"`  c #959599",
"'  c #979897",
"]  c #979997",
"[  c #999a99",
"{  c #999b99",
"}  c #9a999a",
"|  c #999b9d",
" . c #9d9e9a",
".. c #9d9e9d",
"X. c #9e9f9e",
"o. c #889eac",
"O. c #929fad",
"+. c #9b9ca3",
"@. c #8da9bc",
"#. c #8fabbe",
"$. c #98aaaa",
"%. c #98aab4",
"&. c #a0a0a0",
"*. c #a2a3a2",
"=. c #a3a2a3",
"-. c #a3a4a3",
";. c #a7a7a7",
":. c #a7a9a7",
">. c #a8a7a7",
",. c #a8a9a8",
"<. c #a9a9a9",
"1. c #aaa9ab",
"2. c #aaaaaa",
"3. c #abacab",
"4. c #afaba8",
"5. c #adacac",
"6. c Gray68",
"7. c #adadaf",
"8. c #adafaf",
"9. c #aeacae",
"0. c #aeaeae",
"q. c #afb0af",
"w. c #b0b1ad",
"e. c #b1b1b1",
"r. c #b1b2b1",
"t. c #b2b3b2",
"y. c #b4b4b2",
"u. c #b4b5b4",
"i. c #b4b6b4",
"p. c #b7b6b4",
"a. c #b7b7b6",
"s. c #b7b7b7",
"d. c #b9b8b6",
"f. c Gray72",
"g. c #b9b9b9",
"h. c Gray73",
"j. c #bbbbbb",
"k. c #bbbcbb",
"l. c #bcbcbc",
"z. c #8db9ce",
"x. c #92b3c3",
"c. c #a8bcc3",
"v. c #a8c1ca",
"b. c #afc8d4",
"n. c #abcada",
"m. c #b6c1c5",
"M. c #b3cedb",
"N. c #bbd7e2",
"B. c #c2bbb9",
"V. c #c1c1c1",
"C. c #c1c2c1",
"Z. c #c2c4c3",
"A. c #c4c2c4",
"S. c #c4c3c4",
"D. c #c4c5c4",
"F. c #c5c5c4",
"G. c #c4c6c4",
"H. c #c6c6c6",
"J. c #c6c8c6",
"K. c #c9c9c8",
"L. c Gray79",
"P. c #cac9ca",
"I. c #cacaca",
"U. c #cbcbcb",
"Y. c #c9ccc9",
"T. c #cbcdcc",
"R. c Gray80",
"E. c #cccdcc",
"W. c #cdcdcd",
"Q. c #cecfce",
"!. c #c8d3d8",
"~. c #d0d1d0",
"^. c #d0d2d0",
"/. c #d1d2d0",
"(. c #d2d3d0",
"). c #d4d3d4",
"_. c #d5d6d5",
"`. c #d5d7d6",
"'. c #d7d6d7",
"]. c #d7d8d7",
"[. c #d7d9d7",
"{. c #d6d9d8",
"}. c #d8d7d6",
"|. c #d9dad9",
" X c #dadbda",
".X c #dcdbdc",
"XX c #dcdcdb",
"oX c #dddcdd",
"OX c #dddedd",
"+X c #dddfde",
"@X c #e2e3e2",
"#X c #e3e3e2",
"$X c #e3e4e3",
"%X c #e5e5e6",
"&X c #e5e6e5",
"*X c #e9e8e5",
"=X c #e9e8e7",
"-X c #e8e9e8",
";X c #eaebec",
":X c #ebeced",
">X c #eff6f8",
",X c #f9f2ee",
"<X c #f0f1f0",
"1X c #f1f1f1",
"2X c #f3f3f3",
"3X c Gray97",
"4X c #fff8f5",
"5X c #f8f8f8",
"6X c Gray98",
"7X c #fafbfa",
"8X c #fdfdfd",
"9X c Gray100",
/* pixels */
"L 6.g.g.r.=.<.U 6.l.g.g.g.f.f.l.",
"6.2X8X8XR.:.'.0 ! 3X8X7X7X5X5X2X",
"g.8Xg.) r...^.Q w 6 R.8X8X8X8X8X",
"g.8X;.+ u } L.' i.R l.8X8X8X8X8X",
"<.! L L.p @ J =.i.T.Z.A.8X8X8X8X",
"6.l.q 9 <.t R U C.H. .y.8X8X8X8X",
"6.R.i.' , w C.f 6.G 6.m.%.$.N.>X",
"3.J.) H.C.-.f } d.| +.r # 4 = b.",
">.XXY.].H.q.'.w.` M.o.D A 1 X x.",
"=.*X<.6 <.r.#Xi.!.F S C m - o #.",
".. X-X^ % ( +X4.c.C B M x ; & #.",
"} ^.#X2XH.q.+XB.v.N n v j < = O.",
") L.{. X$X%X;X4Xn.b c k h 2 . f ",
"^ S.^.^.}..X+X,Xz.g z l 3 :   Y ",
"T k.L.L.R.'.].*XZ 5 8 > $ O y :X",
"R i.H.L.R.^.'.].6.P a i e H %X7X"
};
