/* XPM */
static char * vim_16x16_xpm[] = {
"16 16 144 2",
"  	c None",
". 	c #222222",
"+ 	c #292929",
"@ 	c #2A2A2A",
"# 	c #292A29",
"$ 	c #224622",
"% 	c #079707",
"& 	c #003100",
"* 	c #070B07",
"= 	c #222322",
"- 	c #212121",
"; 	c #A7A7A7",
"> 	c #C8C8C8",
", 	c #C9C9C9",
"' 	c #AAB2AA",
") 	c #2F5A2F",
"! 	c #044404",
"~ 	c #213021",
"{ 	c #AAAAAA",
"] 	c #2F2F2F",
"^ 	c #1C1C1C",
"/ 	c #929292",
"( 	c #C4C4C4",
"_ 	c #CACACA",
": 	c #AEAFAE",
"< 	c #585F58",
"[ 	c #0E2B0E",
"} 	c #232A23",
"| 	c #AEAEAE",
"1 	c #CBCBCB",
"2 	c #585858",
"3 	c #0E0E0E",
"4 	c #353535",
"5 	c #A5A5A5",
"6 	c #BFBFBF",
"7 	c #B7B7B7",
"8 	c #808080",
"9 	c #253325",
"0 	c #0B430B",
"a 	c #435143",
"b 	c #C2C2C2",
"c 	c #ACACAC",
"d 	c #6F6F6F",
"e 	c #202020",
"f 	c #9F9F9F",
"g 	c #B5B5B5",
"h 	c #757575",
"i 	c #1D201D",
"j 	c #3E4C3E",
"k 	c #AEB2AE",
"l 	c #C6C6C6",
"m 	c #ADADAD",
"n 	c #212221",
"o 	c #202720",
"p 	c #9FA09F",
"q 	c #7C7C7C",
"r 	c #535353",
"s 	c #6F736F",
"t 	c #213321",
"u 	c #031503",
"v 	c #008500",
"w 	c #204020",
"x 	c #B9B9B9",
"y 	c #C0C0C0",
"z 	c #C5C5C5",
"A 	c #214221",
"B 	c #035F03",
"C 	c #005B00",
"D 	c #001F00",
"E 	c #00A500",
"F 	c #007F00",
"G 	c #203920",
"H 	c #D6D6D6",
"I 	c #6C706C",
"J 	c #036303",
"K 	c #007B00",
"L 	c #007703",
"M 	c #004D0D",
"N 	c #000E03",
"O 	c #003400",
"P 	c #004D00",
"Q 	c #203220",
"R 	c #C1C1C1",
"S 	c #969696",
"T 	c #494949",
"U 	c #182718",
"V 	c #034E03",
"W 	c #006900",
"X 	c #007800",
"Y 	c #005F0D",
"Z 	c #002037",
"` 	c #000E00",
" .	c #202320",
"..	c #A4A4A4",
"+.	c #4A4A4A",
"@.	c #5A5A5A",
"#.	c #1A1E1A",
"$.	c #1A2C1A",
"%.	c #1A3E1A",
"&.	c #0A590A",
"*.	c #153518",
"=.	c #050913",
"-.	c #BABABA",
";.	c #8F8F8F",
">.	c #3A3A3A",
",.	c #303030",
"'.	c #252525",
").	c #848484",
"!.	c #898D89",
"~.	c #4A584A",
"{.	c #747874",
"].	c #BDBDBD",
"^.	c #9E9E9E",
"/.	c #747474",
"(.	c #7F7F7F",
"_.	c #3B3B3B",
":.	c #9A9A9A",
"<.	c #1A1A1A",
"[.	c #9D9D9D",
"}.	c #ABABAB",
"|.	c #6C6F6C",
"1.	c #192719",
"2.	c #353835",
"3.	c #3F3F3F",
"4.	c #858585",
"5.	c #545454",
"6.	c #8A8A8A",
"7.	c #1F1F1F",
"8.	c #7D7D7D",
"9.	c #6B6B6B",
"0.	c #212F21",
"a.	c #094109",
"b.	c #354235",
"c.	c #181818",
"d.	c #131313",
"e.	c #030703",
"f.	c #152315",
"g.	c #6E726E",
"h.	c #6A6A6A",
"i.	c #343434",
"j.	c #696969",
"k.	c #191919",
"l.	c #0A0A0A",
"m.	c #151515",
"    . + @ # $ % & * = + + .     ",
"  - ; > , > ' ) ! ~ ; > > { ]   ",
"  ^ / ( _ > : < [ } | 1 > | 2 3 ",
"    4 5 6 7 8 9 0 a b ( c d -   ",
"    e f 6 g h i j k l m d n     ",
"    o p 6 g q r : l m s t u     ",
"  v w p 6 x 5 y z m s A B C D   ",
"E F G p 6 z H z f I A J K L M N ",
"O P Q p 6 R R S T U V W X Y Z   ",
"  `  .f 6 6 ..+.@.#.$.%.&.*.=.  ",
"    e f 6 -.;.>.,.'.).!.~.{.]   ",
"    e f ].^.T /.(._.:...p ^.).<.",
"    e [.}.|.1.2.).3.4.5.6.5.).7.",
"    <.8.9.0.a.b.).3.(.3.(.3.(.7.",
"      c.d.e.f.g.(.4 h.i.h.i.j.<.",
"              k.<.l.m.l.m.l.m.  "};
