/* XPM */
static char * vim_32x32_xpm[] = {
"32 32 242 2",
"  	c None",
". 	c #002200",
"+ 	c #003B00",
"@ 	c #00A400",
"# 	c #232323",
"$ 	c #2A2A2A",
"% 	c #292A29",
"& 	c #223F22",
"* 	c #079007",
"= 	c #009700",
"- 	c #009A00",
"; 	c #009E00",
"> 	c #070E07",
", 	c #292929",
"' 	c #222222",
") 	c #AEAEAE",
"! 	c #CACACA",
"~ 	c #C9C9C9",
"{ 	c #C8C8C8",
"] 	c #ACB3AC",
"^ 	c #376437",
"/ 	c #056805",
"( 	c #007F00",
"_ 	c #234323",
": 	c #ACACAC",
"< 	c #373737",
"[ 	c #C0C1C0",
"} 	c #848884",
"| 	c #193C19",
"1 	c #006E00",
"2 	c #008200",
"3 	c #007B00",
"4 	c #234A23",
"5 	c #AEB2AE",
"6 	c #C0C0C0",
"7 	c #858585",
"8 	c #191919",
"9 	c #8F8F8F",
"0 	c #B3B3B3",
"a 	c #BEBEBE",
"b 	c #B6B6B6",
"c 	c #AAAAAA",
"d 	c #6B706B",
"e 	c #133713",
"f 	c #007C00",
"g 	c #076707",
"h 	c #375737",
"i 	c #8F938F",
"j 	c #AFAFAF",
"k 	c #7A7A7A",
"l 	c #171717",
"m 	c #303030",
"n 	c #BABABA",
"o 	c #B7B7B7",
"p 	c #686C68",
"q 	c #214221",
"r 	c #036303",
"s 	c #008000",
"t 	c #007800",
"u 	c #0D5B0D",
"v 	c #4B594B",
"w 	c #8F908F",
"x 	c #B8B8B8",
"y 	c #8B8B8B",
"z 	c #5D5D5D",
"A 	c #111111",
"B 	c #272727",
"C 	c #BBBBBB",
"D 	c #C6C6C6",
"E 	c #B5B5B5",
"F 	c #787978",
"G 	c #233523",
"H 	c #035F03",
"I 	c #3F603F",
"J 	c #B2B6B2",
"K 	c #616161",
"L 	c #1F1F1F",
"M 	c #757575",
"N 	c #152B15",
"O 	c #006A00",
"P 	c #406040",
"Q 	c #BCC0BC",
"R 	c #E5E5E5",
"S 	c #E7E7E7",
"T 	c #CFCFCF",
"U 	c #C2C2C2",
"V 	c #8B8B8C",
"W 	c #1F1F20",
"X 	c #8B8C8B",
"Y 	c #616164",
"Z 	c #1F202D",
"` 	c #030307",
" .	c #006600",
"..	c #616561",
"+.	c #1F322E",
"@.	c #03153F",
"#.	c #00031C",
"$.	c #001C00",
"%.	c #2A312A",
"&.	c #152715",
"*.	c #075207",
"=.	c #1F401F",
"-.	c #035F07",
";.	c #005B1C",
">.	c #001F3E",
",.	c #00031B",
"'.	c #008500",
").	c #2A4A2A",
"!.	c #C9CAC9",
"~.	c #1D201D",
"{.	c #404E40",
"].	c #007B03",
"^.	c #005F1B",
"/.	c #003C00",
"(.	c #009D00",
"_.	c #2A432A",
":.	c #7D7D7D",
"<.	c #565656",
"[.	c #BDBDBD",
"}.	c #002300",
"|.	c #00A500",
"1.	c #009B00",
"2.	c #2A402A",
"3.	c #999999",
"4.	c #CBCBCB",
"5.	c #005B1F",
"6.	c #001149",
"7.	c #000011",
"8.	c #9E9E9E",
"9.	c #D9D9D9",
"0.	c #C1C1C1",
"a.	c #5D615D",
"b.	c #949494",
"c.	c #4E4E4E",
"d.	c #323232",
"e.	c #172917",
"f.	c #BFBFBF",
"g.	c #A5A5A5",
"h.	c #505050",
"i.	c #898989",
"j.	c #848484",
"k.	c #1A301A",
"l.	c #007E00",
"m.	c #989898",
"n.	c #393939",
"o.	c #838783",
"p.	c #1A3A1A",
"q.	c #005C00",
"r.	c #005C0E",
"s.	c #001F3B",
"t.	c #000003",
"u.	c #717171",
"v.	c #333333",
"w.	c #3A3A3A",
"x.	c #354335",
"y.	c #104B10",
"z.	c #1F351F",
"A.	c #1A3E1A",
"B.	c #0A580A",
"C.	c #1A2C1E",
"D.	c #0A0E18",
"E.	c #1A1A1E",
"F.	c #1A1A1A",
"G.	c #7E7E7E",
"H.	c #737373",
"I.	c #303E30",
"J.	c #6F736F",
"K.	c #999A99",
"L.	c #898E8A",
"M.	c #4A594A",
"N.	c #898D8A",
"O.	c #9E9F9E",
"P.	c #898A8A",
"Q.	c #4A4A4A",
"R.	c #2F2F2F",
"S.	c #5D5E5D",
"T.	c #1D1D1D",
"U.	c #A3A3A3",
"V.	c #202020",
"W.	c #353535",
"X.	c #A4A4A4",
"Y.	c #B4B4B7",
"Z.	c #8F8FA1",
"`.	c #9F9FB1",
" +	c #B9B9BD",
".+	c #B4B4B4",
"++	c #9F9F9F",
"@+	c #747474",
"#+	c #151515",
"$+	c #202F20",
"%+	c #1E221E",
"&+	c #8A8A8A",
"*+	c #0B0B0B",
"=+	c #9F9FA3",
"-+	c #8E8EAB",
";+	c #3A3A84",
">+	c #505096",
",+	c #A4A4B3",
"'+	c #8E8E8F",
")+	c #343434",
"!+	c #044E04",
"~+	c #203120",
"{+	c #1B1B1B",
"]+	c #9E9EAC",
"^+	c #353571",
"/+	c #202041",
"(+	c #8A8A9B",
"_+	c #9E9EA2",
":+	c #1F311F",
"<+	c #035B03",
"[+	c #055D05",
"}+	c #354735",
"|+	c #89898C",
"1+	c #20202E",
"2+	c #353539",
"3+	c #9E9E9F",
"4+	c #1F201F",
"5+	c #031503",
"6+	c #004A00",
"7+	c #898D89",
"8+	c #4B4B4B",
"9+	c #262626",
"0+	c #797979",
"a+	c #000E00",
"b+	c #1A1E1A",
"c+	c #6F6F73",
"d+	c #30303E",
"e+	c #848487",
"f+	c #838384",
"g+	c #838383",
"h+	c #6F6F6F",
"i+	c #181818",
"j+	c #161616",
"k+	c #050505",
"l+	c #1F1F31",
"m+	c #1A1A3A",
"n+	c #0A0A46",
"o+	c #1A1A28",
"p+	c #00000E",
"q+	c #000046",
"r+	c #00004A",
"s+	c #00001C",
"                              . .                               ",
"                            + @ @ +                             ",
"      # $ $ $ $ $ $ $ $ % & * = - ; + > # $ $ $ $ $ $ , '       ",
"    # ) ! ~ ~ ~ ~ ~ ~ ~ { ] ^ / ( = = _ ) ! ~ ~ ~ ~ ~ { : <     ",
"    # ) ! ! ! ! ! ! ! ! ! [ } | 1 2 3 4 5 ! ! ! ! ! ! ! 6 7 8   ",
"      < 9 0 a 6 6 6 6 a b c d e 1 ( f g h i 0 a 6 6 6 a j k l   ",
"        m 9 n 6 6 6 6 o 9 p q r f s ( t u v w x 6 6 a j y z A   ",
"        B C D 6 6 6 6 E F G H 3 ( ( 3 g I J C a 6 a j y K L     ",
"        $ ~ ! 6 6 6 6 E M N O ( ( 3 g P Q R { 6 a j y K L       ",
"        $ ~ ! 6 6 6 6 E M N O ( 3 g P Q S T U a j V K W         ",
"        $ ~ ! 6 6 6 6 E M N O 3 g P Q S T U a j X Y Z `         ",
"        $ ~ ! 6 6 6 6 E M N  .g P Q S T U a j X ..+.@.#.        ",
"      $.%.~ ! 6 6 6 6 E M &.*.P Q S T U a j X ..=.-.;.>.,.      ",
"    + '.).!.! 6 6 6 6 E M ~.{.Q S T U a j X ..=.r 3 ].^.>.,.    ",
"  /.(.2 _.!.! 6 6 6 6 E :.<.[.S T U a j X ..=.r 3 ( ( ].^.>.,.  ",
"}.|.1.1 2.!.! 6 6 6 6 E 3.4.S T U a j X ..=.r 3 ( s s ( ].5.6.7.",
"}.|.1.1 2.!.! 6 6 6 6 E 8.9.T 0.[.j X ..=.r 3 ( s s s ( ].5.6.7.",
"  /.(.2 _.!.! 6 6 6 6 o 8.[.0.n 8.k a.=.r 3 ( s s s ( ].^.>.,.  ",
"    + '.).!.! 6 6 6 6 a x a n b.c.d.e.H 3 ( s s s ( ].^.>.,.    ",
"      $.%.~ ! 6 6 6 6 6 6 f.g.h.i.j.k.O l.( ( ( ( ].^.>.,.      ",
"        $ ~ ! 6 6 6 6 6 6 [.m.n.j.o.p.q.O 1 t 1 O r.s.,.t.      ",
"        $ ~ ! 6 6 6 6 6 a : u.v.w.x.y.p.z.A.B.A.z.C.D.E.F.      ",
"        $ ~ ! 6 6 6 6 a j G.w.H.3.} I.J.K.L.M.N.O.P.Q.i.i.R.    ",
"        $ ~ ! 6 6 6 a j y S.T.Q.U.i.V.W.X.Y.Z.`. +.+9 ++) @+#+  ",
"        $ ~ ! 6 6 a j X ..$+%+&+++W.*+W.=+-+;+>+,+'+w.h.9 )+    ",
"        $ ~ ! 6 a j y ..=.!+~+8.8.V.{+i.]+^+/+(+_+W.V.&+3.V.    ",
"        $ ~ ! a j y K :+<+[+}+++&+V.W.8.|+1+2+3+i.V.W.8.&+{+    ",
"        # : 6 j y K 4+5+6+p.7+U.8+9+i.8.W.V.i.8.W.V.i.U.Q.      ",
"          < j.0+z L     a+b+j.3.c+d+e+f+{+{+g+g+{+{+j.3.h+#+    ",
"            i+j+A         k+E.l+m+n+o+F.    F.F.    F.L 8       ",
"                            p+q+r+s+                            ",
"                              7.7.                              "};
