/* XPM */
static char *magick[] = {
/* columns rows colors chars-per-pixel */
"16 16 244 2",
"   c Gray0",
".  c #000002",
"X  c #00030a",
"o  c #00000c",
"O  c #000915",
"+  c #030f1a",
"@  c #00101e",
"#  c #091317",
"$  c #0b151e",
"%  c #131111",
"&  c #10161b",
"*  c #1a1d1d",
"=  c #1e1b1c",
"-  c #081b24",
";  c #0e1f2a",
":  c #1a1d20",
">  c #0b222f",
",  c #062e3f",
"<  c #0d2531",
"1  c #0c2737",
"2  c #0d2638",
"3  c #0d2f3e",
"4  c #102129",
"5  c #12222d",
"6  c #14222c",
"7  c #14262e",
"8  c #192125",
"9  c #1e2021",
"0  c #112a35",
"q  c #132f3c",
"w  c #1b2a36",
"e  c #1e3034",
"r  c #19313b",
"t  c #201f1f",
"y  c #242021",
"u  c #222628",
"i  c #272528",
"p  c #202c32",
"a  c #212c32",
"s  c #223039",
"d  c #283338",
"f  c #29363f",
"g  c #323133",
"h  c #323536",
"j  c #133747",
"k  c #1f3640",
"l  c #1d3840",
"z  c #243641",
"x  c #203a40",
"c  c #393e41",
"v  c #3f3c40",
"b  c #3f403f",
"n  c #1a4351",
"m  c #244854",
"M  c #32414a",
"N  c #334349",
"B  c #3b4044",
"V  c #394447",
"C  c #324d58",
"Z  c #3c5158",
"A  c #3c5159",
"S  c #3d505a",
"D  c #3c545c",
"F  c #285460",
"G  c #2d5e6c",
"H  c #375d6e",
"J  c #385663",
"K  c #3a5661",
"L  c #3b5763",
"P  c #3e5b64",
"I  c #356b78",
"U  c #3c6b72",
"Y  c #404043",
"T  c #404245",
"R  c #424949",
"E  c Gray31",
"W  c #4d5153",
"Q  c #4c5355",
"!  c #4f5254",
"~  c #4b5d5f",
"^  c #4c595a",
"/  c #51575a",
"(  c #555859",
")  c #585456",
"_  c #5b5758",
"`  c #4b5a61",
"'  c #4d5860",
"]  c #5b5d61",
"[  c #47626c",
"{  c #49646e",
"}  c #4d616a",
"|  c #446c76",
" . c #426c7c",
".. c #4e767f",
"X. c #55676e",
"o. c #596567",
"O. c #596369",
"+. c #506b75",
"@. c #55747c",
"#. c #54757e",
"$. c #5f7378",
"%. c #646062",
"&. c #666264",
"*. c #61696d",
"=. c #696a6a",
"-. c #6b686a",
";. c #6a6a6c",
":. c #686c6d",
">. c #6d6c6e",
",. c #61767c",
"<. c #647178",
"1. c #6a7076",
"2. c #707271",
"3. c #737474",
"4. c #717779",
"5. c #73787a",
"6. c #737a7c",
"7. c #777879",
"8. c #787678",
"9. c #78797b",
"0. c #467985",
"q. c #767d80",
"w. c #7a7c80",
"e. c #468899",
"r. c #5e848b",
"t. c #5e858e",
"y. c #56899a",
"u. c #5b8392",
"i. c #778284",
"p. c #798083",
"a. c #7b8085",
"s. c #7b8a8e",
"d. c #7e8a8d",
"f. c #708b93",
"g. c #708d91",
"h. c #739298",
"j. c #799095",
"k. c #769aa3",
"l. c #848385",
"z. c #818689",
"x. c #868588",
"c. c #838b8c",
"v. c #858a8a",
"b. c #868d8e",
"n. c #888f92",
"m. c #8e8e90",
"M. c #8a9094",
"N. c #8e9093",
"B. c #909093",
"V. c #919094",
"C. c #94989c",
"Z. c #979b9d",
"A. c #9c9d9f",
"S. c #939da1",
"D. c #8ba0a4",
"F. c #97a5a8",
"G. c #96abaf",
"H. c #99a1a5",
"J. c #9ca0a3",
"K. c #9dacad",
"L. c #a1a4a7",
"P. c #a6a6a5",
"I. c #a2a8aa",
"U. c #a7a9a9",
"Y. c #a8b4b6",
"T. c #adb2b3",
"R. c #aeb0b1",
"E. c #abbdbe",
"W. c #b1b0b2",
"Q. c #b4b2b1",
"!. c #b5b6b7",
"~. c #b5b8ba",
"^. c #b6babc",
"/. c #a1bfc1",
"(. c #a6bdc4",
"). c #a8bdc0",
"_. c #92c4cb",
"`. c #92c8d2",
"'. c #9fcad1",
"]. c #9fcdd6",
"[. c #9cd4e0",
"{. c #a0c6ce",
"}. c #b0c1c2",
"|. c #b5c5c7",
" X c #b4c5c8",
".X c #b0cbce",
"XX c #bcc0c3",
"oX c #bdc1c4",
"OX c #bfd6da",
"+X c #c1c0c0",
"@X c #c3c4c6",
"#X c #c5c6c7",
"$X c #c6c5c6",
"%X c #ccc6c7",
"&X c #ced4d7",
"*X c #c8dbdd",
"=X c #cfdedf",
"-X c #d0d0d3",
";X c #d3d2d4",
":X c #d2d5d7",
">X c #d0dade",
",X c #dadadb",
"<X c #c2e6ef",
"1X c #cce7ec",
"2X c #c7eef5",
"3X c #d1e5e7",
"4X c #d1e6ea",
"5X c #dee2e3",
"6X c #dce7e9",
"7X c #dae8e9",
"8X c #dfedf0",
"9X c #d4f2f5",
"0X c #dff5f7",
"qX c #e1dfe1",
"wX c #e2e5e7",
"eX c #e5e6e7",
"rX c #e8e8ea",
"tX c #e8e9eb",
"yX c #e9e9ea",
"uX c #ebeaec",
"iX c #ebeced",
"pX c #eeeeef",
"aX c #e1f4f8",
"sX c #e7f7f9",
"dX c #e1fbfc",
"fX c #e7fafb",
"gX c #eef1f2",
"hX c #eaffff",
"jX c #efffff",
"kX c #f5edee",
"lX c #f0eef0",
"zX c #f2f2f3",
"xX c #f1f2f4",
"cX c #f4f4f5",
"vX c #f5f4f5",
"bX c #f6f5f6",
"nX c #f6f7f8",
"mX c #f3ffff",
"MX c #f6ffff",
"NX c #f9fafa",
"BX c #f9fafb",
"VX c #fafafb",
"CX c #fafcfc",
"ZX c Gray100",
/* pixels */
"CXnXbXBXq.| h.*.~.@XS.<.oXgX5XeX",
"CXBXbXZX9.U OXr 1.V.S w B.J.T.tX",
"BXZXZXM.$ r.ZX{.1 $.q o @   Q uX",
"a.n.z.l m @.K.E.aX.Xj J P J W ,X",
"M < F _.j.  % B sXfX[.` = ' Y p.",
"z > , u.jX/ ) m. XZX9X* +.n X s ",
"C.O.7 a b.|.T ;XqX0Xd.^ `. .H ; ",
"XXl.%.6.7.N.t >.P.^.v i.).9 d k ",
"I.] X.Y.+X=.Q R i 3.;.g _ y s.,.",
"T.E h b C.w.v.D.8.x.=.( W.&.:.5.",
":XH.V C ].~ c.ZX=X$XkX8XZXZX'.[ ",
"tXlXc 3 N e 2XZXMXF.Q.-X7XZX4XJ ",
"zX$XO y.8 ..e.3XZX}.2.%X&XdX/.@.",
"iXL.+ S u f.k.G.(.6Xo.U.>X<X{ x ",
"tXwX!.4.a I 0.5 } hXmXZX1XG 2 # ",
"iXxXbXA.6 0 f 4 S D g.*Xt.- & : "
};
