/* XPM */
static char * frameABR_xpm[] = {
"4 4 6 1",
" 	c None",
".	c #CBD798",
"+	c #BAC891",
"@	c #899B6D",
"#	c #5E764F",
"$	c #BDC891",
".+@#",
"$+@#",
"@@@#",
"####"};
