/* XPM */
static char * minimizeA_xpm[] = {
"24 52 145 2",
"  	c None",
". 	c #B8C58D",
"+ 	c #AFBC84",
"@ 	c #AAB883",
"# 	c #FFFFFF",
"$ 	c #A8B680",
"% 	c #DCDCDC",
"& 	c #B7C3A2",
"* 	c #AFBB94",
"= 	c #A5B48B",
"- 	c #A3B288",
"; 	c #9EAD85",
"> 	c #9AAA7C",
", 	c #9CAD80",
"' 	c #98A77B",
") 	c #99A878",
"! 	c #95A274",
"~ 	c #90A072",
"{ 	c #8F9E6A",
"] 	c #889965",
"^ 	c #8B986B",
"/ 	c #B9C5A4",
"( 	c #C7C7B4",
"_ 	c #C6C6B9",
": 	c #C1C6AE",
"< 	c #B4C29F",
"[ 	c #B1BF98",
"} 	c #AFBB96",
"| 	c #AAB68F",
"1 	c #A3B289",
"2 	c #A1AD85",
"3 	c #819261",
"4 	c #75825E",
"5 	c #B3BF98",
"6 	c #C7C7BB",
"7 	c #C7C7BE",
"8 	c #C3C6B1",
"9 	c #BCC6A7",
"0 	c #B5C19D",
"a 	c #B2BF9B",
"b 	c #A1B086",
"c 	c #9CAB81",
"d 	c #839366",
"e 	c #768753",
"f 	c #A7B68F",
"g 	c #C5C6B2",
"h 	c #BFC6AA",
"i 	c #B6C3A2",
"j 	c #B2BF9E",
"k 	c #A8B792",
"l 	c #99A877",
"m 	c #879466",
"n 	c #BCC5A9",
"o 	c #B2BF9A",
"p 	c #A5B48A",
"q 	c #A1B288",
"r 	c #95A577",
"s 	c #95A373",
"t 	c #91A170",
"u 	c #879468",
"v 	c #B1BD96",
"w 	c #A7B68E",
"x 	c #9EAD81",
"y 	c #90A16D",
"z 	c #90A16B",
"A 	c #909F6D",
"B 	c #889968",
"C 	c #A1B084",
"D 	c #91A072",
"E 	c #909F6B",
"F 	c #8E9D69",
"G 	c #8E9D6B",
"H 	c #ADBD85",
"I 	c #9CAD81",
"J 	c #96A274",
"K 	c #91A16B",
"L 	c #8D9D67",
"M 	c #8D9D68",
"N 	c #879366",
"O 	c #96A577",
"P 	c #9CAB7F",
"Q 	c #9AA878",
"R 	c #92A16D",
"S 	c #919E69",
"T 	c #839361",
"U 	c #B0C088",
"V 	c #9BAB7B",
"W 	c #99A577",
"X 	c #919D68",
"Y 	c #8D9A64",
"Z 	c #8B9A64",
"` 	c #80905C",
" .	c #B4C48B",
"..	c #9DAB7B",
"+.	c #97A171",
"@.	c #92A16B",
"#.	c #8F9E65",
"$.	c #8E9B61",
"%.	c #8C9B61",
"&.	c #7F8F59",
"*.	c #B5C68D",
"=.	c #8C9D6B",
"-.	c #96A16C",
";.	c #89955C",
">.	c #7D8D55",
",.	c #BAC88E",
"'.	c #889B65",
").	c #98A16B",
"!.	c #919D67",
"~.	c #8B965D",
"{.	c #869359",
"].	c #7A8950",
"^.	c #BBC88F",
"/.	c #879660",
"(.	c #91A171",
"_.	c #97A16D",
":.	c #8B975B",
"<.	c #819157",
"[.	c #77864E",
"}.	c #C2CD95",
"|.	c #83965D",
"1.	c #8E9E6A",
"2.	c #97A373",
"3.	c #96A16D",
"4.	c #8B975D",
"5.	c #859458",
"6.	c #809052",
"7.	c #75854C",
"8.	c #7B8E55",
"9.	c #879661",
"0.	c #92A373",
"a.	c #8F9E6C",
"b.	c #909D6B",
"c.	c #809054",
"d.	c #7C8D4F",
"e.	c #708148",
"f.	c #829164",
"g.	c #7B8B59",
"h.	c #79884F",
"i.	c #75844E",
"j.	c #72824A",
"k.	c #C6C6C6",
"l.	c #BBC98F",
"m.	c #A7B680",
"n.	c #96A867",
". . . . . . . . . . . . . . . . . . . . . . . . ",
"+ + + + + + + + + + + + + + + + + + + + + + + + ",
"@ @ # # # # # # # # # # # # # # # # # # # @ @ @ ",
"$ # % & * = - ; > , ' ' ) ) ! ! ~ { ] ^ % # $ $ ",
"$ # / ( _ : / < [ [ } * * | = 1 2 > ~ 3 4 # $ $ ",
"$ # 5 6 7 8 9 & 0 a [ } } * | 1 b c ! d e # $ $ ",
"@ # f 8 g h i j } * k = 1 ; 2 , > l ! m e # @ @ ",
"@ # 1 9 n i o * k p q , > l r ! s ~ t u e # @ @ ",
"@ # - < & j v k w q x > l ! ~ y z y A B e # @ @ ",
"@ # , a j [ * w 1 C c ' ! D z { { z E m e # @ @ ",
"@ # , * v * k w q x > l ! y { F F { G d e # @ @ ",
"H # ' | * * k p - I > l J K { { L F M N e # H H ",
"H # O 1 w k w 1 - x P Q J R K S L L L T e # H H ",
"U # s 2 = w w 1 - ; c V W R K X Y Y Z ` e # U U ",
" .# z , - 1 p 1 1 2 c ..W +.@.X #.$.%.&.e #  . .",
"*.# =.' ; - # # # # # # # +.-.X $.$.;.>.e # *.*.",
",.# '.! > 2 # # # # # # # +.).!.$.~.{.].e # ,.,.",
"^.# /.(.l > # # # # # # # _.@.!.$.:.<.[.e # ^.^.",
"}.# |.1.~ O ' V ) W W 2.3.@.X $.4.5.6.7.e # }.}.",
"}.# 8.9.=.t 0.0.~ D A a.b.L %.;.{.c.d.e.e # }.}.",
"}.# f.e g.<.9.9.9.9.9.9.;.;.;.<.h.i.j.e e # }.}.",
"}.# k.e e e e e e e e e e e e e e e e e k.# }.}.",
"l.l.# # # # # # # # # # # # # # # # # # # l.l.l.",
"l.l.l.l.l.l.l.l.l.l.l.l.l.l.l.l.l.l.l.l.l.l.l.l.",
"m.m.m.m.m.m.m.m.m.m.m.m.m.m.m.m.m.m.m.m.m.m.m.m.",
"n.n.n.n.n.n.n.n.n.n.n.n.n.n.n.n.n.n.n.n.n.n.n.n.",
". . . . . . . . . . . . . . . . . . . . . . . . ",
"+ + + + + + + + + + + + + + + + + + + + + + + + ",
"@ @ @ @ @ @ @ @ @ @ @ @ @ @ @ @ @ @ @ @ @ @ @ @ ",
"$ $ $ $ $ $ $ $ $ $ $ $ $ $ $ $ $ $ $ $ $ $ $ $ ",
"$ $ $ $ $ $ $ $ $ $ $ $ $ $ $ $ $ $ $ $ $ $ $ $ ",
"$ $ $ $ $ $ $ $ $ $ $ $ $ $ $ $ $ $ $ $ $ $ $ $ ",
"@ @ @ @ @ @ @ @ @ @ @ @ @ @ @ @ @ @ @ @ @ @ @ @ ",
"@ @ @ @ @ @ @ @ @ @ @ @ @ @ @ @ @ @ @ @ @ @ @ @ ",
"@ @ @ @ @ @ @ @ @ @ @ @ @ @ @ @ @ @ @ @ @ @ @ @ ",
"@ @ @ @ @ @ @ @ @ @ @ @ @ @ @ @ @ @ @ @ @ @ @ @ ",
"@ @ @ @ @ @ @ @ @ @ @ @ @ @ @ @ @ @ @ @ @ @ @ @ ",
"H H H H H H H H H H H H H H H H H H H H H H H H ",
"H H H H H H H H H H H H H H H H H H H H H H H H ",
"U U U U U U U U U U U U U U U U U U U U U U U U ",
" . . . . . . . . . . . . . . . . . . . . . . . .",
"*.*.*.*.*.*.*.*.*.*.*.*.*.*.*.*.*.*.*.*.*.*.*.*.",
",.,.,.,.,.,.,.,.,.,.,.,.,.,.,.,.,.,.,.,.,.,.,.,.",
"^.^.^.^.^.^.^.^.^.^.^.^.^.^.^.^.^.^.^.^.^.^.^.^.",
"}.}.}.}.}.}.}.}.}.}.}.}.}.}.}.}.}.}.}.}.}.}.}.}.",
"}.}.}.}.}.}.}.}.}.}.}.}.}.}.}.}.}.}.}.}.}.}.}.}.",
"}.}.}.}.}.}.}.}.}.}.}.}.}.}.}.}.}.}.}.}.}.}.}.}.",
"}.}.}.}.}.}.}.}.}.}.}.}.}.}.}.}.}.}.}.}.}.}.}.}.",
"l.l.l.l.l.l.l.l.l.l.l.l.l.l.l.l.l.l.l.l.l.l.l.l.",
"l.l.l.l.l.l.l.l.l.l.l.l.l.l.l.l.l.l.l.l.l.l.l.l.",
"m.m.m.m.m.m.m.m.m.m.m.m.m.m.m.m.m.m.m.m.m.m.m.m.",
"n.n.n.n.n.n.n.n.n.n.n.n.n.n.n.n.n.n.n.n.n.n.n.n."};
