/* XPM */
static char *restoreO[] = {
/* columns rows colors chars-per-pixel */
"24 52 191 2",
"   c #474A3A",
".  c #474A3C",
"X  c #494C3C",
"o  c #4A4C3C",
"O  c #4A4C3E",
"+  c #4B4E3E",
"@  c #4D503F",
"#  c #4D5241",
"$  c #4E5140",
"%  c #505340",
"&  c #505542",
"*  c #535643",
"=  c #525544",
"-  c #52544B",
";  c #535844",
":  c #545945",
">  c #565B45",
",  c #565B47",
"<  c #575C48",
"1  c #585D47",
"2  c #595E48",
"3  c #5A5F48",
"4  c #5B6049",
"5  c #5C6249",
"6  c #5E634A",
"7  c #5F644B",
"8  c #60654C",
"9  c #61664C",
"0  c #62674D",
"q  c #63694D",
"w  c #62684E",
"e  c #63684E",
"r  c #64694D",
"t  c #646A4E",
"y  c #656B4F",
"u  c #656D4F",
"i  c #666B57",
"p  c #666C50",
"a  c #676D51",
"s  c #686D51",
"d  c #686E50",
"f  c #696F53",
"g  c #6A7052",
"h  c #6B7152",
"j  c #6B7354",
"k  c #6D7354",
"l  c #6E7354",
"z  c #6F7455",
"x  c #6F745D",
"c  c #717655",
"v  c #727756",
"b  c #737857",
"n  c #747957",
"m  c #777C62",
"M  c #92A75F",
"N  c #94A861",
"B  c #97AB63",
"V  c #96A867",
"C  c #97AA65",
"Z  c #99AC65",
"A  c #9BAE65",
"S  c #9CAF67",
"D  c #9AAE69",
"F  c #98A873",
"G  c #9EB365",
"H  c #9EB46B",
"J  c #9EB270",
"K  c #A0B46B",
"L  c #A2B669",
"P  c #A3B76B",
"I  c #A3B76E",
"U  c #A7BB6E",
"Y  c #A3B670",
"T  c #A4B772",
"R  c #A5BA77",
"E  c #A7BA77",
"W  c #A7BE73",
"Q  c #A6B879",
"!  c #A6BA7C",
"~  c #A9BA70",
"^  c #ABBC72",
"/  c #A9BE77",
"(  c #ADBE71",
")  c #ADBE73",
"_  c #A9BA7C",
"`  c #A9BC7C",
"'  c #A9BC7D",
"]  c #AFC377",
"[  c #ACC17B",
"{  c #ACC37B",
"}  c #AEC17A",
"|  c #AFC17A",
" . c #ADC17E",
".. c #AFC47D",
"X. c #B0C377",
"o. c #B2C57B",
"O. c #B1C47E",
"+. c #B1C47F",
"@. c #B3C47D",
"#. c #B3C47E",
"$. c #B3C57F",
"%. c #A7B680",
"&. c #A8B680",
"*. c #AAB883",
"=. c #ADBD85",
"-. c #AFBC84",
";. c #AEC080",
":. c #B0C581",
">. c #B1C680",
",. c #B2C581",
"<. c #B3C581",
"1. c #B3C680",
"2. c #B3C683",
"3. c #B4C781",
"4. c #B4C784",
"5. c #B0C088",
"6. c #B4C48B",
"7. c #B5C68D",
"8. c #B3C881",
"9. c #B5C881",
"0. c #B4C984",
"q. c #B5C987",
"w. c #B4C888",
"e. c #B5C888",
"r. c #B6C988",
"t. c #B6CB8A",
"y. c #B8C58D",
"u. c #B8C883",
"i. c #BAC881",
"p. c #B9C984",
"a. c #BAC984",
"s. c #B8CA8A",
"d. c #B8CB8A",
"f. c #B9CA8A",
"g. c #BACB8A",
"h. c #BAC88E",
"j. c #BBC88F",
"k. c #BBC98F",
"l. c #BACD8D",
"z. c #BCCD8D",
"x. c #BCD08F",
"c. c #BDD08E",
"v. c #BED08F",
"b. c #BBD092",
"n. c #BFD392",
"m. c #BFD394",
"M. c #BFD396",
"N. c #BFD398",
"B. c #C2CD95",
"V. c #C1D392",
"C. c #C0D598",
"Z. c #C1D598",
"A. c #C3D59C",
"S. c #C4D59C",
"D. c #C4D99B",
"F. c #C5D99E",
"G. c #C6DAA0",
"H. c #C7DAA0",
"J. c #C8DAA1",
"K. c #C9DCA2",
"L. c #C9DCA4",
"P. c #CCDFA7",
"I. c #CCDFA8",
"U. c #CEDFA8",
"Y. c #CCE0AB",
"T. c #D2E3AE",
"R. c #D3E5B0",
"E. c #D4E5B0",
"W. c #D5E8B2",
"Q. c #D7E8B2",
"!. c #D7E9B5",
"~. c #D7E9B6",
"^. c #D7E9B9",
"/. c #D8ECBB",
"(. c #DAECB9",
"). c #DBEEBF",
"_. c #DCEEBF",
"`. c #DEEFC0",
"'. c #E1EFC6",
"]. c #E0F0C4",
"[. c #E3F0C7",
"{. c #E6F1CC",
"}. c #E7F1CF",
"|. c #EAF1D0",
" X c #EBF2D3",
".X c #EAF2D8",
"XX c #ECF3DB",
"oX c #ECF3DF",
"OX c #E1E1E1",
"+X c #FBFFFB",
"@X c gray100",
/* pixels */
"y.y.y.y.y.y.y.y.7.y.y.y.y.y.7.y.y.y.y.y.y.y.y.y.",
"-.-.-.-.-.-.-.-.-.-.-.-.-.-.-.-.-.-.-.-.-.-.-.-.",
"*.*.@X@X@X@X@X@X@X@X@X@X@X@X@X@X@X@X@X@X@X&.*.*.",
"&.@X+X_.T.L.H.A.m.N.b.b.z.b.f.f.q.u.' ' +X@X&.&.",
"_ @X`.|..X}._./.Q.Q.T.T.T.U.P.F.S.n.w.R F @X&.&.",
"&.@X~.XXoX}.]._./.~.Q.R.E.T.U.F.S.N.d.` D @X%._ ",
"*.@XI.}.|.[._.~.R.T.Y.L.F.S.A.C.M.z.d.' D @X*.*.",
"&.@XH.].[.).~.T.Y.K.@X@X@X@X@X@X@Xw.w.' D @X*.*.",
"*.@XH./._.~.E.Y.I.K.@X@X@X@X@X@X@X9.q.' D @X*.*.",
"*.@XC.~.~.Q.R.I.F.S.@Xb.f.6.$.$.@X9.9.! D @X*.*.",
"&.@XC.T.T.T.Y.@X@X@X@X@X@X@X1.$.@X1.1.! D @X*.*.",
"-.@Xb.I.T.T.Y.@X@X@X@X@X@X@X1.1.@X$.$.! D @X=.=.",
"-.@Xl.K.Y.Y.P.@XH.C.M.b.f.@X8.$.@X....R D @X-.-.",
"5.@Xd.S.K.Y.P.@XH.A.Z.V.z.@X@X@X@X} } T D @X5.5.",
"6.@X8.C.S.K.K.@XF.S.C.m.z.@X$.#.o.X.] Y D @X6.6.",
"7.@X;.b.D.F.Y.@XF.S.Z.m.z.@Xu.#.X.X.^ H D @X7.7.",
"k.@X{ d.m.S.Y.@X@X@X@X@X@X@X$.@.X.^ ^ S D @Xk.k.",
"k.@X/ w.z.V.K.F.F.S.N.V.z.a.u.$.X.^ I A D @Xy.k.",
"B.@XW 1.w.l.b.n.b.z.l.f.u.9.$.X.^ U H B D @XB.B.",
"B.@XH / 8.w.d.w.w.w.4.1.$.$.] ^ ~ L L M D @XB.B.",
"B.@XQ D J I / / / / / / ^ ^ ^ I A B N D D @XB.B.",
"B.@X@XD D D D D S S D D D D D D D S D D @X@XB.B.",
"k.k.@X@X@X@X@X@X@X@X@X@X@X@X@X@X@X@X@X@X@Xk.k.k.",
"k.k.k.k.k.k.k.k.k.k.k.k.k.k.k.k.z.y.z.y.k.k.k.k.",
"%.%.%.%.%.%.%.%.%.%.%.%.%.%.%.%.%.%.%.%.%.%.%.%.",
"V V V V V V V V V V V V V V V V V V V V V V V V ",
"7.y.y.y.y.y.y.y.y.y.y.y.y.y.y.y.y.y.y.y.y.y.y.y.",
"-.-.-.-.-.-.-.-.-.-.-.-.-.-.-.-.-.-.-.-.-.-.-.-.",
"*.*.@X@X@X@X@X@X@X@X@X@X@X@X@X@X@X@X@X@X@X*.*.*.",
"_ @XOX- . . X O $ $ % % * * , , , < 1 i OX@X&.&.",
"%.@X- + * * * , 2 2 5 5 5 7 8 8 r r r r x @X&.&.",
"&.@X. * , 5 5 5 8 8 8 p p d d d d d d d d @X&.&.",
"&.@X. * 5 5 8 8 r r a a u d d f f f f f f @X*.*.",
"*.@X. , 7 8 8 r r a @X@X@X@X@X@X@Xg f f d @X*.*.",
"*.@XO , 5 8 w r u u @X@X@X@X@X@X@Xd g g g @X*.*.",
"*.@X+ 1 8 w u u d d @Xd d d g g @Xh g g f @X*.*.",
"*.@X@ 5 w r a @X@X@X@X@X@X@Xg g @Xg g h g @X*.*.",
"-.@X# 5 w a a @X@X@X@X@X@X@Xj z @Xg j g g @X=.=.",
"-.@X$ 5 a a d @Xd d g h g @Xl l @Xl z g g @X-.-.",
"5.@X* 7 u d d @Xf f h g l @X@X@X@Xz z z g @X5.5.",
"6.@X; 8 d d d @Xf g h l l @Xv v v v z l g @X6.6.",
"7.@X, 8 d d d @Xd g g g h @Xv v b v v z g @X7.7.",
"k.@X, 8 d g a @X@X@X@X@X@X@Xv b n v b z j @Xk.k.",
"y.@X< r d f a f f g g z h v v n n b v z z @Xk.y.",
"B.@X, r a g g f g j j l v v v v b v v z g @XB.B.",
"B.@X< r a g f g g g j l l l v v v v v h g @XB.B.",
"B.@Xi w a g g d g g g l z z l z z z l l m @XB.B.",
"B.@XOXx a f f g g g g g g g l g z j g m OX@XB.B.",
"k.k.@X@X@X@X@X@X@X@X@X@X@X@X@X@X@X@X@X@X@Xk.k.k.",
"k.k.k.k.k.k.k.k.k.k.k.k.k.k.k.k.k.k.k.k.k.k.k.k.",
"%.%.%.%.%.%.%.%.%.%.%.%.%.%.%.%.%.%.%.%.%.%.%.%.",
"V V V V V V V V V V V V V V V V V V V V V V V V "
};
