/* XPM */
static char *zenpanel___x__[] = {
/* columns rows colors chars-per-pixel */
"48 48 135 2",
"   c #1A3A69",
".  c #81827E",
"X  c #214B85",
"o  c #234D89",
"O  c #27518B",
"+  c #2B548F",
"@  c #375987",
"#  c #385984",
"$  c #3A5D8B",
"%  c #315B95",
"&  c #3C608D",
"*  c #3B6193",
"=  c #37619A",
"-  c #3C659A",
";  c #3D689E",
":  c #3D6AA3",
">  c #3B6BAA",
",  c #5E7288",
"<  c #42699E",
"1  c #6A7C97",
"2  c #436CA2",
"3  c #426FA8",
"4  c #4C72A5",
"5  c #4672AB",
"6  c #4B74AB",
"7  c #5175A8",
"8  c #537AAE",
"9  c #4B77B0",
"0  c #4E7BB4",
"q  c #547DB3",
"w  c #597FB3",
"e  c #5C83B6",
"r  c #5580B9",
"t  c #5B84BA",
"y  c #7F91AC",
"u  c #6186B6",
"i  c #6588B5",
"p  c #648ABC",
"a  c #6B8DBA",
"s  c #6E90BD",
"d  c #5F89C0",
"f  c #638CC1",
"g  c #6C93C3",
"h  c #7296C5",
"j  c #779AC7",
"k  c #769BCA",
"l  c #7A9DCB",
"z  c #898B86",
"x  c #8C8E8A",
"c  c #8E918C",
"v  c #91938E",
"b  c #878F9D",
"n  c #888F9F",
"m  c #89919E",
"M  c #949692",
"N  c #979995",
"B  c #999A96",
"V  c #9C9E9A",
"C  c #9FA09C",
"Z  c #A0A19D",
"A  c #8B93A1",
"S  c #929BA7",
"D  c #959DA9",
"F  c #8D9FB8",
"G  c #9BA2AC",
"H  c #9DA4B1",
"J  c #9EA9B7",
"K  c #A3A5A1",
"L  c #A9AAA6",
"P  c #ACADAB",
"I  c #AFB0AE",
"U  c #B0B2AD",
"Y  c #A0A6B1",
"T  c #A6ABB6",
"R  c #A8AEB8",
"E  c #A7B1BE",
"W  c #ABB2BB",
"Q  c #B4B4B3",
"!  c #B7B8B5",
"~  c #B8B9B7",
"^  c #B0B6BE",
"/  c #B2B8BF",
"(  c #BBBBBA",
")  c #C0C1BF",
"_  c #80A3CE",
"`  c #84A6D1",
"'  c #8DABD2",
"]  c #92B0D5",
"[  c #9DB7D8",
"{  c #9EB8D8",
"}  c #ACB7C2",
"|  c #ADB8C3",
" . c #B5BBC3",
".. c #B9BEC6",
"X. c #B3BECA",
"o. c #B8BFC8",
"O. c #A3BBD9",
"+. c #B9C0C6",
"@. c #B5C0CD",
"#. c #BBC2C9",
"$. c #ACC3DF",
"%. c #BAC6D2",
"&. c #BEC8D6",
"*. c #BFCCD9",
"=. c #B2C7E1",
"-. c #B6C9E1",
";. c #BCCEE4",
":. c #C2C3C2",
">. c #C7C8C7",
",. c #C8C8C7",
"<. c #C3C7CD",
"1. c #C5C9CF",
"2. c #CECECD",
"3. c #C6CCD2",
"4. c #C9CDD2",
"5. c #C1CDDA",
"6. c #CCD0D4",
"7. c #C3D0DD",
"8. c #CBD5DE",
"9. c #D5D5D4",
"0. c #D7D8D7",
"q. c #D7D8D8",
"w. c #DCDCDC",
"e. c #CAD5E0",
"r. c #C6D5E9",
"t. c #CEDAEB",
"y. c #DDE6F1",
"u. c #E3E3E3",
"i. c #E8E8E7",
"p. c #E6E7E8",
"a. c #EBEBEB",
"s. c #EFF0EF",
"d. c #F3F3F3",
"f. c #F9F9F9",
"g. c None",
/* pixels */
"g.g.g.g.g.g.g.g.g.g.g.g.g.g.g.g.g.g.g.g.g.g.g.g.g.g.g.g.g.g.g.g.g.g.g.g.g.g.g.g.g.g.g.g.g.g.g.g.",
"g.g.g.g.g.g.g.g.g.g.g.g.g.g.g.g.g.g.g.g.g.g.g.g.g.g.g.g.g.g.g.g.g.g.g.g.g.g.g.g.g.g.g.g.g.g.g.g.",
"g.g.g.g.g.g.g.g.g.g.g.g.g.g.g.g.g.g.g.g.g.g.g.g.g.g.g.g.g.g.g.g.g.g.g.g.g.g.g.g.g.g.g.g.g.g.g.g.",
"g.g.g.g.g.g.g.g.g.g.g.g.g.g.g.g.g.g.g.g.g.g.g.g.g.g.g.g.g.g.g.g.g.g.g.g.g.g.g.g.g.g.g.g.g.g.g.g.",
"g.g.g.g.g.g.g.g.g.g.g.g.g.g.g.g.g.g.g.g.g.g.g.g.g.g.g.g.g.g.g.g.g.g.g.g.g.g.g.g.g.g.g.g.g.g.g.g.",
"g.g.g.g.g.g.g.g.g.g.g.g.g.g.c z z x x x g.g.g.g.g.g.g.g.g.g.g.g.g.g.g.g.g.g.g.g.g.g.g.g.g.g.g.g.",
"g.g.g.g.g.g.g.g.g.g.g.g.g.x N i.i.i.0.P x g.g.g.g.g.g.g.g.g.g.g.g.g.g.g.g.g.g.b A g.g.g.g.g.g.g.",
"g.g.g.g.g.g.g.g.g.g.g.g.g.g.c 9.p.w.u.i.9.c g.g.g.g.g.g.g.g.g.g.g.g.g.g.g.A S *.J A g.g.g.g.g.g.",
"g.g.g.g.g.g.g.g.g.g.g.g.g.g.g.z 2.i.w.w.i.q.c g.g.g.g.g.g.g.g.g.g.g.g.g.A H 5.7.5.E A g.g.g.g.g.",
"g.g.g.g.g.g.g.g.g.g.g.g.g.g.g.g.x ,.i.w.w.i.~ c g.g.g.g.g.g.g.g.g.g.g.A E 7.7.7.7.7.} m g.g.g.g.",
"g.g.g.g.g.g.g.g.g.g.g.g.g.g.g.g.g.z w.u.w.u.w.x g.g.g.g.g.g.g.g.g.g.m X.e.7.7.5.7.7.E A g.g.g.g.",
"g.g.g.g.g.g.g.g.g.g.g.g.g.g.g.g.g.c q.u.w.w.a.v g.g.g.g.g.g.g.g.g.A 3.8.5.5.5.5.5.@.A g.g.g.g.g.",
"g.g.g.g.g.g.g.z g.g.g.g.g.g.g.g.g.c 9.i.u.u.s.B g.g.g.g.g.g.g.g.g.D 8.%.%.%.%.%.%.A g.g.g.g.g.g.",
"g.g.g.g.g.g.x L N g.g.g.g.g.g.g.g.x 9.a.i.i.d.B g.g.g.g.g.g.g.g.g.S 5.@.@.X.X.#.H m g.g.g.g.g.g.",
"g.g.g.g.g.g.z d.d.Z x g.g.g.g.g.c L d.d.d.d.d.c g.g.g.g.g.g.g.g.g.S 3.} } }  .E A g.g.g.g.g.g.g.",
"g.g.g.g.g.g.x u.w.u.Z x g.g.g.x I i.u.u.w.u.u.z g.g.g.g.g.g.g.g.A +.@.+.@.+...A g.g.g.g.g.g.g.g.",
"g.g.g.g.g.g.v q.u.u.i.:.U K v ~ i.w.w.w.q.w.u.N g.g.g.g.g.g.g.A ..+.#.T S A m g.g.g.g.g.g.g.g.g.",
"g.g.g.g.g.g.g.( a.u.i.a.a.a.a.s.u.u.u.u.u.u.i.u.N g.g.g.g.g.m ....+.T n g.g.g.g.g.g.g.g.g.g.g.g.",
"g.g.g.g.g.g.g.v i.s.a.a.a.a.i.i.a.i.a.i.w.9.w.a.u.M g.g.g.m ..#.<.T m g.g.g.g.g.g.g.g.g.g.g.g.g.",
"g.g.g.g.g.g.g.g.V s.d.s.s.d.d.s.d.d.d.d.2.w.9.u.d.i.M g.m ..<.1.W n g.g.g.g.g.g.g.g.g.g.g.g.g.g.",
"g.g.g.g.g.g.g.g.g.V a.f.f.f.f.f.f.s.d.f.q.u.d.9.a.f.w.m  .1.1.^ n g.g.g.g.g.g.g.g.g.g.g.g.g.g.g.",
"g.g.g.g.g.g.g.g.g.g.x Q w.a.i.w.Q z C d.d.w.a.d.w.u.G / 1.1.^ m g.g.g.g.g.g.g.g.g.g.g.g.g.g.g.g.",
"g.g.g.g.g.g.g.g.g.g.g.g.v v v v g.g.c K f.d.w.a.a.D ^ 1.1.^ m g.g.g.g.g.g.g.g.g.g.g.g.g.g.g.g.g.",
"g.g.g.g.g.g.g.g.g.g.g.g.g.g.g.g.g.g.g.x K d.d.q.G W 4.1. .G v g.g.g.g.g.g.g.g.g.g.g.g.g.g.g.g.g.",
"g.g.g.g.g.g.g.g.g.g.g.g.g.g.g.g.g.g.g.g.c L d.G R 4.1. .H d.2.v g.g.g.g.g.g.g.g.g.g.g.g.g.g.g.g.",
"g.g.g.g.g.g.g.g.g.g.g.g.g.g.g.g.g.g.o o o o 1 R 6.4...H w.s.f.>.c g.g.g.g.g.g.g.g.g.g.g.g.g.g.g.",
"g.g.g.g.g.g.g.g.g.g.g.g.g.g.g.g.g.o 8 { O.a + F 4...G a.s.u.s.d.:.x g.g.g.g.g.g.g.g.g.g.g.g.g.g.",
"g.g.g.g.g.g.g.g.g.g.g.g.g.g.g.g.o u k ;.-.f a + y G i.w.i.a.u.a.d.! c g.g.g.g.g.g.g.g.g.g.g.g.g.",
"g.g.g.g.g.g.g.g.g.g.g.g.g.g.g.o 7 l d g f q t u o G d.i.w.i.i.u.i.d.I x g.g.g.g.g.g.g.g.g.g.g.g.",
"g.g.g.g.g.g.g.g.g.g.g.g.g.g.o 2 l d t q q 6 5 e % , Q a.i.w.u.u.u.u.a.L x g.g.g.g.g.g.g.g.g.g.g.",
"g.g.g.g.g.g.g.g.g.g.g.g.g.o 2 l f t f e $ 2 3 u + g.x ! a.u.w.u.u.u.u.i.K g.g.g.g.g.g.g.g.g.g.g.",
"g.g.g.g.g.g.g.g.g.g.g.g.o 4 l f t l i @ * : q 6 o g.g.x ~ a.w.w.w.u.u.u.u.C g.g.g.g.g.g.g.g.g.g.",
"g.g.g.g.g.g.g.g.g.g.g.o 8 l f j ' i # $ 2 q q o g.g.g.g.x ( u.w.w.w.w.w.u.u.B g.g.g.g.g.g.g.g.g.",
"g.g.g.g.g.g.g.g.g.g.o p l k ' O.a # $ 2 q 8 o g.g.g.g.g.g.x ( u.w.w.q.w.w.w.w.B g.g.g.g.g.g.g.g.",
"g.g.g.g.g.g.g.g.o + k l _ O.$.s # $ - q 6 o g.g.g.g.g.g.g.g.x ) u.0.w.9.q.q.q.q.N g.g.g.g.g.g.g.",
"g.g.g.g.g.g.o o 2 ` l { -.r.i & $ - q q o g.g.g.g.g.g.g.g.g.g.c ) w.9.0.9.9.9.q.9.M g.g.g.g.g.g.",
"g.g.g.g.g.o % q ` ] =.t.;.q $ $ - 6 w o g.g.g.g.g.g.g.g.g.g.g.g.x ) w.2.9.2.( Q 9.,.x g.g.g.g.g.",
"g.g.g.g.g.o q ' $.r.y.O.q < # * 5 e + g.g.g.g.g.g.g.g.g.g.g.g.g.g.x :.q.,.~ ~ 2.P q.N g.g.g.g.g.",
"g.g.g.g.g.o ` -.y.t.h q 2 @ - : e % X g.g.g.g.g.g.g.g.g.g.g.g.g.g.g.x :.9.~ ~ 9.P q.C g.g.g.g.g.",
"g.g.g.g.g.o l g l r 0 6 # * : r 3 X g.g.g.g.g.g.g.g.g.g.g.g.g.g.g.g.g.x :.2.Q I :.9.x g.g.g.g.g.",
"g.g.g.g.g.X 8 h r 0 6 * * : 5 r o g.g.g.g.g.g.g.g.g.g.g.g.g.g.g.g.g.g.g.x ( 9.9.2.V z g.g.g.g.g.",
"g.g.g.g.g.g.o p p 9 3 * : > t %   g.g.g.g.g.g.g.g.g.g.g.g.g.g.g.g.g.g.g.g.. x x x g.g.g.g.g.g.g.",
"g.g.g.g.g.g.g.o u e 5 : > 0 0 X g.g.g.g.g.g.g.g.g.g.g.g.g.g.g.g.g.g.g.g.g.g.g.g.g.g.g.g.g.g.g.g.",
"g.g.g.g.g.g.g.g.o 8 e q r r O g.g.g.g.g.g.g.g.g.g.g.g.g.g.g.g.g.g.g.g.g.g.g.g.g.g.g.g.g.g.g.g.g.",
"g.g.g.g.g.g.g.g.g.X + = % o g.g.g.g.g.g.g.g.g.g.g.g.g.g.g.g.g.g.g.g.g.g.g.g.g.g.g.g.g.g.g.g.g.g.",
"g.g.g.g.g.g.g.g.g.g.g.g.g.g.g.g.g.g.g.g.g.g.g.g.g.g.g.g.g.g.g.g.g.g.g.g.g.g.g.g.g.g.g.g.g.g.g.g.",
"g.g.g.g.g.g.g.g.g.g.g.g.g.g.g.g.g.g.g.g.g.g.g.g.g.g.g.g.g.g.g.g.g.g.g.g.g.g.g.g.g.g.g.g.g.g.g.g.",
"g.g.g.g.g.g.g.g.g.g.g.g.g.g.g.g.g.g.g.g.g.g.g.g.g.g.g.g.g.g.g.g.g.g.g.g.g.g.g.g.g.g.g.g.g.g.g.g."
};
