/* XPM */
static char * minimizeI_xpm[] = {
"22 48 55 1",
" 	c None",
".	c #85827E",
"+	c #F9F8F8",
"@	c #EBEAE9",
"#	c #DEDCDA",
"$	c #D9D7D5",
"%	c #EAE9E8",
"&	c #DBD9D8",
"*	c #D0CECB",
"=	c #918E8A",
"-	c #E9E8E7",
";	c #CECBC9",
">	c #F2F1F0",
",	c #FFFFFF",
"'	c #E8E7E6",
")	c #EDECEB",
"!	c #E2E1DF",
"~	c #E7E6E5",
"{	c #FEFEFE",
"]	c #E6E5E4",
"^	c #DCDAD9",
"/	c #E5E4E3",
"(	c #DCDBDA",
"_	c #E4E3E2",
":	c #DDDBDA",
"<	c #E3E2E1",
"[	c #DEDCDB",
"}	c #FDFDFD",
"|	c #E2E1E0",
"1	c #DEDDDC",
"2	c #DFDDDC",
"3	c #DDDBD9",
"4	c #E0DEDD",
"5	c #F6F5F5",
"6	c #DCDAD8",
"7	c #E0DFDE",
"8	c #F4F3F3",
"9	c #6B6A6A",
"0	c #DBD9D7",
"a	c #E1E0DF",
"b	c #F2F0F0",
"c	c #DAD8D6",
"d	c #E2E0DF",
"e	c #F0EEEE",
"f	c #D8D6D4",
"g	c #EBE9E9",
"h	c #D7D5D3",
"i	c #DFDDDB",
"j	c #D4D2D0",
"k	c #E7E5E4",
"l	c #D6D4D2",
"m	c #D5D3D1",
"n	c #E1DFDE",
"o	c #9D9996",
"p	c #000000",
"......................",
"++++++++++++++++++++++",
"@@@#$$$$$$$$$$$$$$#@@@",
"%%&*==============*&%%",
"-&;=>,,,,,,,,,,,,>=;&-",
"'&=),,,,,,,,,,,,,,!=&'",
"~&=,{{{{{{{{{{{{{{+=&~",
"]^=,{{{{{{{{{{{{{{+=^]",
"/(=,{{{{{{{{{{{{{{+=(/",
"_:=,{{{{{{{{{{{{{{+=:_",
"<[=,}}}}}}}}}}}}}}+=[<",
"|1=,}}}}}}}}}}}}}}+=1|",
"#2=,+++++++++++++++=2#",
"34=,55555555555555+=43",
"67=,88899999999888+=76",
"0a=,bbb99999999bbb+=a0",
"cd=,eeeeeeeeeeeeee+=dc",
"$|=,))))))))))))))+=|$",
"f<=)gggggggggggggg!=<f",
"hi!=jkkkkkkkkkkkkj=!ih",
"ll#4==============4#ll",
"mmmn______________nmmm",
"jjjjjjjjjjjjjjjjjjjjjj",
"oooooooooooooooooooooo",
"pppppppppppppppppppppp",
"pppppppppppppppppppppp",
"pppppppppppppppppppppp",
"pppppppppppppppppppppp",
"pppppppppppppppppppppp",
"pppppppppppppppppppppp",
"pppppppppppppppppppppp",
"pppppppppppppppppppppp",
"pppppppppppppppppppppp",
"pppppppppppppppppppppp",
"pppppppppppppppppppppp",
"pppppppppppppppppppppp",
"pppppppppppppppppppppp",
"pppppppppppppppppppppp",
"pppppppppppppppppppppp",
"pppppppppppppppppppppp",
"pppppppppppppppppppppp",
"pppppppppppppppppppppp",
"pppppppppppppppppppppp",
"pppppppppppppppppppppp",
"pppppppppppppppppppppp",
"pppppppppppppppppppppp",
"pppppppppppppppppppppp",
"pppppppppppppppppppppp"};
