/* XPM */
static char * bsd_xpm[] = {
"48 20 87 1",
" 	c #FFFFFFFFFFFF",
".	c #A5A59C9CA5A5",
"X	c #73735A5A6363",
"o	c #E7E7CECECECE",
"O	c #A5A594949494",
"+	c #5A5A39394A4A",
"@	c #6B6B39394242",
"#	c #9C9C84848C8C",
"$	c #94944A4A5252",
"%	c #9C9C7B7B7B7B",
"&	c #6B6B52525A5A",
"*	c #848439394242",
"=	c #FFFFFFFFF7F7",
"-	c #9C9C73737B7B",
";	c #5A5A42425252",
":	c #A5A54A4A4A4A",
">	c #9C9C5A5A6B6B",
",	c #F7F7F7F7F7F7",
"<	c #BDBDADADADAD",
"1	c #848473737373",
"2	c #8C8C6B6B7373",
"3	c #ADAD9C9C9C9C",
"4	c #C6C6BDBDC6C6",
"5	c #424239395252",
"6	c #525231313939",
"7	c #BDBD31314242",
"8	c #D6D6D6D6D6D6",
"9	c #5A5A29293131",
"0	c #5A5A31313939",
"q	c #636331313939",
"w	c #7B7B31313939",
"e	c #7B7B42424A4A",
"r	c #737331313939",
"t	c #8C8C84848484",
"y	c #6B6B29294242",
"u	c #525229293131",
"i	c #424231313131",
"p	c #949431313939",
"a	c #ADAD42424A4A",
"s	c #BDBD29293131",
"d	c #ADAD29293131",
"f	c #ADAD21212929",
"g	c #9C9C21213131",
"h	c #A5A563636B6B",
"j	c #F7F7DEDEDEDE",
"k	c #BDBD8C8C9C9C",
"l	c #5A5A4A4A6B6B",
"z	c #ADAD31314242",
"x	c #B5B5ADADADAD",
"c	c #EFEFEFEFEFEF",
"v	c #84844A4A5A5A",
"b	c #B5B542424242",
"n	c #DEDED6D6D6D6",
"m	c #EFEFE7E7EFEF",
"M	c #C6C6B5B5BDBD",
"N	c #BDBD84848484",
"B	c #F7F7EFEFEFEF",
"V	c #84845A5A6363",
"C	c #424239393939",
"Z	c #848429293131",
"A	c #BDBDD6D6DEDE",
"S	c #848463637373",
"D	c #6B6B9C9CBDBD",
"F	c #CECEE7E7E7E7",
"G	c #6B6B5A5A6B6B",
"H	c #5A5A7B7BA5A5",
"J	c #84849C9CB5B5",
"K	c #4A4A39394242",
"L	c #393939395A5A",
"P	c #313131315252",
"I	c #4A4A42424A4A",
"U	c #CECECECEC6C6",
"Y	c #84847B7B8484",
"T	c #525263638484",
"R	c #313142426363",
"E	c #313131313131",
"W	c #D6D6C6C6CECE",
"Q	c #C6C6D6D6D6D6",
"!	c #7B7B8C8CA5A5",
"~	c #FFFFFFFFE7E7",
"^	c #C6C6C6C6C6C6",
"/	c #FFFFF7F7FFFF",
"(	c #EFEFEFEFE7E7",
")	c #C6C621212929",
"_	c #5A5A4A4A5252",
"`	c #A5A5A5A5A5A5",
"'	c #6B6B42425252",
"                        .X                      ",
"        oO                +@#                   ",
"        $%                &+*=                  ",
"       +-                 =;+:>                 ",
"      ,@<         ,#12#3o 456*7-                ",
"     85*8     <+666960qwer6q6e77                ",
"     t0yO    16uiu966r***paae*7s                ",
"     +u6dfg*e069yyy6:ah-$aj,k**7                ",
"     luuwgfdzry99y9pax  cho  avb                ",
"     n5uuywywwrrrrpzk     >= =>&                ",
"      m5uu6666q@rqp7o     MN B V                ",
"       ;u6u90CuqyZpbn     AS DFN                ",
"        G6u99uC9r@psx    HJK2LPIU               ",
"         Yq996uqq*psO    TRPqEP5&               ",
"          Wuu6i99rZb*Q   !P5*@ypsd              ",
"    ~     ^6u6C6yr*zz2/  (L+*dgZgf              ",
"          c6u66uuqrwpZwweeuuedgZfd              ",
"  ~~       ;u96C9q9f)))s7z6uuyywzp              ",
"            _uu6uu9yZgdddgppppyu@`              ",
"            nuuui6uqqqwwgppzpq0'W               "};
