/* XPM */
static char *magick[] = {
/* columns rows colors chars-per-pixel */
"32 32 206 2",
"   c Gray0",
".  c #010101",
"X  c #020202",
"o  c Gray1",
"O  c #040404",
"+  c Gray2",
"@  c #060606",
"#  c #070707",
"$  c Gray3",
"%  c #090909",
"&  c Gray4",
"*  c #0b0b0b",
"=  c #0c0c0c",
"-  c Gray5",
";  c #0e0e0e",
":  c Gray6",
">  c #101010",
",  c #111111",
"<  c Gray7",
"1  c #131313",
"2  c Gray8",
"3  c #151515",
"4  c #161616",
"5  c Gray9",
"6  c #181818",
"7  c #191919",
"8  c Gray10",
"9  c #1b1b1b",
"0  c Gray11",
"q  c #1d1d1d",
"w  c #1e1e1e",
"e  c Gray12",
"r  c #202020",
"t  c Gray13",
"y  c #222222",
"u  c #232323",
"i  c Gray14",
"p  c #252525",
"a  c Gray15",
"s  c #272727",
"d  c #282828",
"f  c Gray16",
"g  c #2a2a2a",
"h  c Gray17",
"j  c #2c2c2c",
"k  c #2d2d2d",
"l  c Gray18",
"z  c #2f2f2f",
"x  c Gray19",
"c  c #313131",
"v  c #323232",
"b  c Gray20",
"n  c #343434",
"m  c #353535",
"M  c Gray21",
"N  c #373737",
"B  c Gray22",
"V  c #393939",
"C  c #3a3a3a",
"Z  c Gray23",
"A  c #3c3c3c",
"S  c Gray24",
"D  c #3e3e3e",
"F  c #3f3f3f",
"G  c Gray25",
"H  c #414141",
"J  c Gray26",
"K  c #434343",
"L  c #444444",
"P  c Gray27",
"I  c #464646",
"U  c Gray28",
"Y  c #484848",
"T  c #494949",
"R  c Gray29",
"E  c #4b4b4b",
"W  c Gray30",
"Q  c #4e4e4e",
"!  c Gray31",
"~  c #505050",
"^  c #515151",
"/  c Gray32",
"(  c #535353",
")  c #555555",
"_  c Gray34",
"`  c #585858",
"'  c #5a5a5a",
"]  c #5b5b5b",
"[  c Gray36",
"{  c #5d5d5d",
"}  c Gray38",
"|  c #626262",
" . c #646464",
".. c #656565",
"X. c Gray40",
"o. c #676767",
"O. c #686868",
"+. c Gray41",
"@. c #6a6a6a",
"#. c #6d6d6d",
"$. c Gray43",
"%. c #6f6f6f",
"&. c Gray44",
"*. c #717171",
"=. c #727272",
"-. c Gray46",
";. c #767676",
":. c #777777",
">. c Gray48",
",. c #7c7c7c",
"<. c Gray49",
"1. c Gray",
"2. c Gray50",
"3. c #808080",
"4. c #818181",
"5. c #848484",
"6. c Gray52",
"7. c Gray53",
"8. c #898989",
"9. c Gray54",
"0. c #8b8b8b",
"q. c Gray55",
"w. c #8d8d8d",
"e. c #8e8e8e",
"r. c Gray56",
"t. c #909090",
"y. c Gray57",
"u. c Gray58",
"i. c #959595",
"p. c Gray59",
"a. c #979797",
"s. c #989898",
"d. c Gray60",
"f. c #9b9b9b",
"g. c Gray61",
"h. c Gray62",
"j. c #9f9f9f",
"k. c #a0a0a0",
"l. c Gray63",
"z. c #a4a4a4",
"x. c Gray65",
"c. c #a7a7a7",
"v. c Gray66",
"b. c #a9a9a9",
"n. c #aaaaaa",
"m. c Gray67",
"M. c #acacac",
"N. c #aeaeae",
"B. c #afafaf",
"V. c Gray69",
"C. c #b1b1b1",
"Z. c #b2b2b2",
"A. c Gray70",
"S. c #b4b4b4",
"D. c Gray71",
"F. c #b6b6b6",
"G. c #b7b7b7",
"H. c #b9b9b9",
"J. c #bbbbbb",
"K. c Gray74",
"L. c #bebebe",
"P. c Gray75",
"I. c #c0c0c0",
"U. c #c1c1c1",
"Y. c Gray76",
"T. c #c3c3c3",
"R. c Gray77",
"E. c #c5c5c5",
"W. c #c6c6c6",
"Q. c Gray78",
"!. c #c8c8c8",
"~. c Gray79",
"^. c Gray80",
"/. c #cdcdcd",
"(. c #cecece",
"). c Gray81",
"_. c #d0d0d0",
"`. c Gray82",
"'. c #d2d2d2",
"]. c #d3d3d3",
"[. c #d5d5d5",
"{. c #d7d7d7",
"}. c #d8d8d8",
"|. c #dadada",
" X c gainsboro",
".X c #dfdfdf",
"XX c #e1e1e1",
"oX c Gray89",
"OX c #e4e4e4",
"+X c Gray90",
"@X c #e6e6e6",
"#X c #eaeaea",
"$X c #ececec",
"%X c Gray93",
"&X c #eeeeee",
"*X c #efefef",
"=X c Gray94",
"-X c #f3f3f3",
";X c #f4f4f4",
":X c Gray96",
">X c #f6f6f6",
",X c Gray97",
"<X c #f8f8f8",
"1X c #fefefe",
"2X c Gray100",
"3X c None",
/* pixels */
"3X3X3X3X3XO v v * s B r   3X3X3X3X3X3X3X3X3X3X3X3X3X3X3X3X3X3X3X",
"3X3X3X3XO = E E 1 w v d =   3X3X3X3X3X3X3X3X3X3X3X3X3X3X3X3X3X3X",
"3X3X3X3Xs P 2.C.j.W v B K 1 3X3X3X3X3X3X3X3X3X3X3X3X3X3X3X3X3X3X",
"3X3X3X3Xl v E j.;Xz.n K S 8 3X3X3X3X3X3X3X3X3X3X3X3X3X3X3X3X3X3X",
"3X3X3X  :.+.s P o.o.n >.!.J.0.B   O   3X3X3X3X3X3X3X3X3X3X3X3X3X",
"3X3X3X3 w.2.n * w d d B +.2.W K n v 3 8 * 3X3X3X3X3X3X3X3X3X3X3X",
"3X3X3Xs B.C.:.= r | f.a.K O W z.a.o.0.L.2.^ r   3X3X3X3X3X3X3X3X",
"3X  3XB a.S.C.K S 2.!.*XC.w P ^ { o.0.`.;X-XQ.w.B * O     O O   ",
"3X* +.n.{.!.f.K n o.XX;XQ.v a./.z.o.n B +.n.XX<XOX`.0.s 3 E P O ",
"3XO o.B.2.%.>.P 8 P n.XX*Xa.%.w.L.*XT.2.W l K 2.S.OX#Xz.P s E W ",
"3X3X  l P 1 = s r = { C.T./.{.n.S.-X*XXXQ.w.W s r W 7.a.2.*.Q./.",
"3X3X3X* B S O 8 8 O 0.-X|.%.+.T.OX*X#X.X`.T.z.0.{ r 3 s ^ w.l./.",
"3X3X3X  l W 3 = 1 3 B.1X;X7.%.w.w.|.{.`.Q.S.z.f.7.+.E r S 0.+.7.",
"3X3X3X3Xd E B * = d !.1X-XS.C.t.n.{.Q.T.C.l.a.7.:.| W K E 2.r n ",
"3X3X3X3Xw B K 1 O K S.n.!.J.J.:.L.T.C.B.n.f.3.%.o.P d l E j.^ 3.",
"3X3X3X3Xw v l 1 O P _ = S o.7.o.n.] v ^ *.3.>.o.^ r * = S S./.OX",
"3X3X3X3Xw r 1 = O B S   s w n ] ] *     = l S P P s O 3 v S.!.XX",
"3X3X3X  1 1 = = O l v = v w K B =   = 3 O     = 8 l w = 8 :.n..X",
"3X3X3XO = * * = O 8 r   1 _ *.s 3 O 3 8 * 3X      v w.+.1 o.B.j.",
"3X3X3XO * * * * O K K O B `./.| %.d 1 1 O 3X3X3X  = ^ o.1 d %.v ",
"3X3X3X  * * * O * n *.w._ 3.z.%.] B 3 1   3X3X3X3X3X3X3X3X3X3X3X",
"3X3X    O * *   * O S f.E S P K n d * O   3X3X3X3X3X3X3X3X3X3X3X",
"3X3X  O * * *   * * = 8 r     O *         3X3X3X3X3X3X3X3X3X3X3X",
"3X3X    * O O   * * * 8 r 3X3X3X3X3X3X3X3X3X3X3X3X3X3X3X3X3X3X3X",
"3X3X    O O O O = * = 3 8 3X3X3X3X3X3X3X3X3X3X3X3X3X3X3X3X3X3X3X",
"3X      O O O O O * * *   3X3X3X3X3X3X3X3X3X3X3X3X3X3X3X3X3X3X3X",
"3X          O       O     3X3X3X3X3X3X3X3X3X3X3X3X3X3X3X3X3X3X3X",
"3X        O   O           3X3X3X3X3X3X3X3X3X3X3X3X3X3X3X3X3X3X3X",
"3X            O           3X3X3X3X3X3X3X3X3X3X3X3X3X3X3X3X3X3X3X",
"3X3X3X        O           3X3X3X3X3X3X3X3X3X3X3X3X3X3X3X3X3X3X3X",
"3X3X3X3X    O O           3X3X3X3X3X3X3X3X3X3X3X3X3X3X3X3X3X3X3X",
"3X3X3X3X3X          3X3X3X3X3X3X3X3X3X3X3X3X3X3X3X3X3X3X3X3X3X3X"
};
