/* XPM */
static char *magick[] = {
/* columns rows colors chars-per-pixel */
"16 16 97 2",
"   c Gray0",
".  c #010001",
"X  c #030007",
"o  c #000700",
"O  c #010700",
"+  c #050006",
"@  c #050007",
"#  c #060007",
"$  c #060107",
"%  c #060009",
"&  c #0b0010",
"*  c #0e0212",
"=  c #140219",
"-  c #140818",
";  c #1b0d1f",
":  c #121910",
">  c #141c12",
",  c #1c0b22",
"<  c #281c2b",
"1  c #32003f",
"2  c #341c39",
"3  c #341e39",
"4  c #2a202d",
"5  c #2f2631",
"6  c #2f2732",
"7  c #322e32",
"8  c #322f32",
"9  c #390047",
"0  c #380048",
"q  c #390049",
"w  c #3b004b",
"e  c #3c004a",
"r  c #3c014b",
"t  c #3d004d",
"y  c #3d014d",
"u  c #3e004d",
"i  c #3e004e",
"p  c #3e014f",
"a  c #3f004f",
"s  c #3f014f",
"d  c #3f024f",
"f  c #40014f",
"g  c #40044f",
"h  c #400051",
"j  c #400053",
"k  c #420053",
"l  c #420351",
"z  c #430054",
"x  c #430056",
"c  c #400450",
"v  c #410450",
"b  c #410451",
"n  c #410750",
"m  c #420451",
"M  c #420551",
"N  c #420651",
"B  c #430652",
"V  c #430653",
"C  c #430752",
"Z  c #440055",
"A  c #440056",
"S  c #440355",
"D  c #450555",
"F  c #450456",
"G  c #460556",
"H  c #470258",
"J  c #450853",
"K  c #450854",
"L  c #450955",
"P  c #450a55",
"I  c #43134f",
"U  c #4e1c5a",
"Y  c #4e2658",
"T  c #4f2658",
"R  c #4f2659",
"E  c #4f2759",
"W  c #582066",
"Q  c #582663",
"!  c #582765",
"~  c #60296e",
"^  c #61296e",
"/  c #602a6e",
"(  c #622f6e",
")  c #5e5f5e",
"_  c #625b64",
"`  c #7b5486",
"'  c #7c5387",
"]  c #805a8c",
"[  c #806887",
"{  c #9c87a2",
"}  c #9e89a3",
"|  c #a088a5",
" . c #a08aa5",
".. c #ad9db1",
"X. c #ad9eb1",
"o. c #ae9db2",
"O. c None",
/* pixels */
"O.O.O.O.O.              O.O.O.O.",
"O.O.O.O.O.    & 7 -     O.O.O.O.",
"O.O.O.    ) U h X.^ q 3 O O.O.O.",
"O.O.  X 1 ' W u ! P S | R X O.O.",
"O.O.: [ H u u C u h u J S R O   ",
"    , ` C C C C C C C C J } <   ",
"    q h C C C C C C C C u F 9 @ ",
"  - ^ P h C C C C C C C h P ^ ; ",
"  7 X.Q u C C C C C C C u Q X.6 ",
"  & z u C C C C C C C C C u u * ",
"    r F u C C C C C C C C F r @ ",
"    3 | J g C C C C C C u ] _   ",
"O.O.O R z C C C f h u P S I >   ",
"O.O.  % u { ( q ! P F } R @   O.",
"O.O.O.    4 C h X.^ q < O   O.O.",
"O.O.O.      @ = 6 ; @     O.O.O."
};
