/* XPM */
static char *magick[] = {
/* columns rows colors chars-per-pixel */
"16 16 151 2",
"   c Gray0",
".  c #040102",
"X  c #060702",
"o  c #090601",
"O  c #090702",
"+  c #0f0706",
"@  c #090802",
"#  c #0a0a03",
"$  c #0b0d05",
"%  c #0c0a03",
"&  c #0c0b04",
"*  c #0e0a05",
"=  c #0e0b04",
"-  c #0f0c07",
";  c #110d06",
":  c #110e05",
">  c #140e0b",
",  c #171109",
"<  c #1f180b",
"1  c #1e1a0d",
"2  c #231c0b",
"3  c #28200f",
"4  c #2f260f",
"5  c #2c280f",
"6  c #312310",
"7  c #302711",
"8  c #312711",
"9  c #332814",
"0  c #372b12",
"q  c #3b2b12",
"w  c #3b2e16",
"e  c #3d2e12",
"r  c #3b3411",
"t  c #413414",
"y  c #423514",
"u  c #44391a",
"i  c #48311d",
"p  c #4b321f",
"a  c #4a371d",
"s  c #483b18",
"d  c #49381d",
"f  c #4c3e1b",
"g  c #503f17",
"h  c #523d1d",
"j  c #52411a",
"k  c #53421e",
"l  c #54411f",
"z  c #55421c",
"x  c #56451b",
"c  c #56491d",
"v  c #59431e",
"b  c #5b491c",
"n  c #5d4e1f",
"m  c #5e541f",
"M  c #5e4f22",
"N  c #614c22",
"B  c #634d21",
"V  c #664d21",
"C  c #6a4d24",
"Z  c #675122",
"A  c #675320",
"S  c #655024",
"D  c #665324",
"F  c #655523",
"G  c #675229",
"H  c #665823",
"J  c #6b5322",
"K  c #6e5425",
"L  c #6e5525",
"P  c #6a5826",
"I  c #6e5827",
"U  c #725827",
"Y  c #735c2a",
"T  c #785f28",
"R  c #6c6226",
"E  c #6e6228",
"W  c #6f6c28",
"Q  c #80612b",
"!  c #80652c",
"~  c #87642d",
"^  c #8e6b2e",
"/  c #8c6f2e",
"(  c #806633",
")  c #857a2e",
"_  c #8d7230",
"`  c #936e2f",
"'  c #96732f",
"]  c #907330",
"[  c #937735",
"{  c #967334",
"}  c #957631",
"|  c #957639",
" . c #9a7737",
".. c #9a7c33",
"X. c #a0752f",
"o. c #a17f34",
"O. c #a07c3b",
"+. c #9a7b40",
"@. c #989139",
"#. c #a2803b",
"$. c #aa8335",
"%. c #af8334",
"&. c #ae8435",
"*. c #a9863a",
"=. c #ab8638",
"-. c #ad8738",
";. c #ac883d",
":. c #ac8c39",
">. c #b28d39",
",. c #b78f3a",
"<. c #b6903d",
"1. c #b9923c",
"2. c #be913c",
"3. c #b09742",
"4. c #bc9843",
"5. c #bea544",
"6. c #c3a03f",
"7. c #c0994a",
"8. c #c99f40",
"9. c #c6a145",
"0. c #c6a742",
"q. c #cba044",
"w. c #cea240",
"e. c #c2a554",
"r. c #c7a853",
"t. c #cba151",
"y. c #d7a743",
"u. c #d3a944",
"i. c #d6ad43",
"p. c #d5ac4c",
"a. c #d8af45",
"s. c #daaf46",
"d. c #d3b046",
"f. c #dab44b",
"g. c #dcb14a",
"h. c #e5ab43",
"j. c #e3bf4d",
"k. c #efb748",
"l. c #f3bb4a",
"z. c #edc74e",
"x. c #ebcc4e",
"c. c #eeca54",
"v. c #ffc54e",
"b. c #ffcd4d",
"n. c #f2cb51",
"m. c #ffd44d",
"M. c #ffd854",
"N. c #fffa5d",
"B. c #f7ea63",
"V. c #feea6c",
"C. c None",
/* pixels */
"C.C.C.C.2 z y ; C.C.C.C.C.C.C.C.",
"C.C.C.C.8 Y L q C.C.C.C.C.C.C.C.",
"C.C.C.C.Z :.` -.6 C.C.C.C.C.C.C.",
"C.C.C.C.C 9.5.j.u.5 $ #   X C.C.",
"C.C.C.C.V 4.3.i.M.z.W @.B.V.0 C.",
"C.C.C.C.s O.e.X.h.b.b Z f. .+ C.",
"C.C.C.C.3 ~ r.q.1.c.n.y r f C.C.",
"C.C.C.C.* U { p.g.>.s.) R , C.C.",
"C.C.C.C.o u D / k.l.w.d.E C.C.C.",
"C.C.C.8 =.I ^ D $.v.m.x.j C.C.C.",
"C.C.o t.+.G 2.] M o.8.0...  C.C.",
"C.C.% 7.| ( N %.} H 6.<.s.; C.C.",
"C.C.# ;.#.x d a L ! T y.N.g C.C.",
"C.C.# [ =.v i w 1 > - 9 ,.e C.C.",
"C.C.* _ &.N i F P z 4 .   C.C.C.",
"C.C.* J ' Q h c m m n k < C.C.C."
};
