/* XPM */
static char *magick[] = {
/* columns rows colors chars-per-pixel */
"32 32 235 2",
"   c Gray0",
".  c #020000",
"X  c #050301",
"o  c #050101",
"O  c #060603",
"+  c #070705",
"@  c #070706",
"#  c #070504",
"$  c #030904",
"%  c #070906",
"&  c #070906",
"*  c #090909",
"=  c Gray4",
"-  c #090f0a",
";  c #0c0c0c",
":  c #0c0c0a",
">  c #07160d",
",  c #0a120c",
"<  c #0f1d13",
"1  c #0f1e15",
"2  c #0c1811",
"3  c #110d0d",
"4  c #12120e",
"5  c #121211",
"6  c #171313",
"7  c #141413",
"8  c #191917",
"9  c #19191a",
"0  c #1d191a",
"q  c #1f1b1b",
"w  c #1e1e1e",
"e  c #0c2316",
"r  c #0f2517",
"t  c #102317",
"y  c #112318",
"u  c #12271a",
"i  c #132a1d",
"p  c #142d1d",
"a  c #163222",
"s  c #163523",
"d  c #173624",
"f  c #183926",
"g  c #211d1d",
"h  c #241f1f",
"j  c Gray13",
"k  c #252121",
"l  c #272223",
"z  c #252525",
"x  c #2a2727",
"c  c #282525",
"v  c #2e2627",
"b  c #2d2628",
"n  c #2d2827",
"m  c #2c2929",
"M  c #2f2b2b",
"N  c #2d2d2d",
"B  c Gray18",
"V  c #2d2d2a",
"C  c #312c2d",
"Z  c #322e2f",
"A  c #342f2f",
"S  c #322a2c",
"D  c #30302f",
"F  c #313130",
"G  c #333030",
"H  c #353131",
"J  c #373333",
"K  c #353232",
"L  c #373433",
"P  c #373535",
"I  c #383535",
"U  c #3a3737",
"Y  c #3a3939",
"T  c #3d3a3a",
"R  c #3f3b3b",
"E  c #3c3939",
"W  c #3f3b3c",
"Q  c #3e3e3b",
"!  c #3e3e3e",
"~  c #1b402b",
"^  c #1b472f",
"/  c #1d452d",
"(  c #1c462f",
")  c #1d482f",
"_  c #1e4931",
"`  c #1f4f35",
"'  c #23573b",
"]  c #225538",
"[  c #215138",
"{  c #245a3c",
"}  c #275f40",
"|  c #276242",
" . c #286443",
".. c #2a6a46",
"X. c #2a6d49",
"o. c #2b704b",
"O. c #2c734d",
"+. c #2c754e",
"@. c #2e7750",
"#. c #2f7b53",
"$. c #2f7951",
"%. c #307b53",
"&. c #307f53",
"*. c #307e55",
"=. c #403b3c",
"-. c #413d3d",
";. c #423e3e",
":. c #423e40",
">. c #424141",
",. c #454141",
"<. c #464343",
"1. c #454242",
"2. c #464545",
"3. c #4a4747",
"4. c #494646",
"5. c #4c4647",
"6. c #4b4a4a",
"7. c #4e4a49",
"8. c #4f4b4d",
"9. c #4e4e4d",
"0. c #524e4e",
"q. c #534b4d",
"w. c #50504d",
"e. c #515050",
"r. c #555353",
"t. c #575354",
"y. c #575555",
"u. c #595757",
"i. c Gray35",
"p. c #5a5959",
"a. c #5c5959",
"s. c #5d5b5b",
"d. c #5e5c5b",
"f. c #5f5d5d",
"g. c #5e5e5d",
"h. c #605f5f",
"j. c #605d5d",
"k. c #64615f",
"l. c #616060",
"z. c #656262",
"x. c #666565",
"c. c #686768",
"v. c #6a6a6a",
"b. c #6a6a68",
"n. c #6c6b6b",
"m. c #6e6d6d",
"M. c #706f6f",
"N. c #717171",
"B. c #727273",
"V. c #727270",
"C. c #737374",
"Z. c #747373",
"A. c #767575",
"S. c #767575",
"D. c #787777",
"F. c #797877",
"G. c #797979",
"H. c Gray48",
"J. c #7c7b7b",
"K. c Gray49",
"L. c Gray50",
"P. c #7e7e7d",
"I. c #328256",
"U. c #328358",
"Y. c #33865a",
"T. c #34875b",
"R. c #34895b",
"E. c #368c5e",
"W. c #389665",
"Q. c #3a9967",
"!. c #3c9d6a",
"~. c #3a9c68",
"^. c #3da36d",
"/. c #3fa56e",
"(. c #42b176",
"). c #44b77a",
"_. c #42b278",
"`. c #45b87b",
"'. c #45bd7f",
"]. c #49c382",
"[. c #4ac785",
"{. c #49c582",
"}. c #4bcc89",
"|. c #4ccc89",
" X c #4fd58f",
".X c #4dd28c",
"XX c #4ed791",
"oX c #52de94",
"OX c #53e297",
"+X c #54e196",
"@X c #54e69a",
"#X c #57ed9d",
"$X c #807f7f",
"%X c #808080",
"&X c #838383",
"*X c #828180",
"=X c #848483",
"-X c Gray53",
";X c #848484",
":X c #898989",
">X c Gray54",
",X c #8f8f8e",
"<X c #8f8f90",
"1X c #909090",
"2X c #979796",
"3X c #9a9999",
"4X c Gray62",
"5X c #a0a09f",
"6X c Gray64",
"7X c #a1a0a0",
"8X c #a7a7a7",
"9X c #aaaaaa",
"0X c #b7b7b7",
"qX c Gray69",
"wX c Gray73",
"eX c Gray75",
"rX c #c1c0c0",
"tX c #c3c3c3",
"yX c #c7c7c6",
"uX c #cacac9",
"iX c #cecece",
"pX c #d3d3d3",
"aX c #d5d5d5",
"sX c gainsboro",
"dX c #e6e6e6",
"fX c #e8e8e7",
"gX c #eaeaea",
"hX c Gray93",
"jX c #efefef",
"kX c #f6f6f6",
"lX c Gray95",
"zX c #fbfbfb",
"xX c #f8f8f8",
"cX c Gray100",
"vX c #fdfdfd",
/* pixels */
"3 6 0 0 g g h l l c c m m C Z Z H H L I I Y T T -.-.,.,.<.3.7.W ",
"6 g l c c m m Z G H L I T T -.:.,.,.3.3.5.7.q.q.q.t.p.s.f.h.k.r.",
"0 l                                     $     > e             p.",
"0 c       X                           X (.~   X.U.            u.",
"g c   a !./.'   O &.*.I.#   ) R.T./   - #Xt   Y.`   [ X._ `   s.",
"g n   | #.*.).  i  X/ .X/   !.Q.@.].  t oX%   |.]   a OX/.>   d.",
"g b   U.O.`.Q.  ) '.  {._   _.s ^ [.  ] ).  , }.u   2 +X+.    h.",
"l v r oX..].#.  o. Xo.[.% X XX%.).@.  Y.~.  f }.% % W.E.}.,   h.",
"l S   ] } / y   W.^.| d   < @X{ | X   ~ i   1 _   < f X [ -   l.",
"c A           X %.d       p I.    X X                         l.",
"c L                                         X         X X     x.",
"c I                                         v.N.              x.",
"m I                                         pXpX              c.",
"M T                                       B cXcXG             n.",
"Z =.                                      5XcXcX3X            n.",
"Z -.                                    7 kXcXcXjX5           m.",
"Z !                                     H.cXcXcXcXv.          M.",
"H 3.j w 9 #       9 j w ;             * dXcXcXcXcXpX          N.",
"H 3.! C.1XF.D     p.:X&Xp.            f.cXcXcXcXcXcX>.        Z.",
"H ,.  # Q Z.<Xm.w V -X&XZ.6           uXcXcXsXjXcXcXqX        Z.",
"I 6.      + >.=X:Xm.K.K.$XJ X       >.cXcXcXe.&XcXcXcX9       Z.",
"U 7.          * <.H.>X/.$Xa.X       9XcXcXjX  w cXcXcX,X      H.",
"T 8.            X 3 q.-X*X$Xv #   j cXcXcXK.    6XcXcXfX#     H.",
"T q.            X o 3 $X*X*X*Xj.  :XcXcXgX:     B zXcXcXf.    J.",
"T e.                  p.-XJ.&X/.&XzXcXcXgX6X9X9X8XzXcXcXyX    K.",
"-.r.                  G &XK.K.w ,XcXcXcXcXcXcXcXcXcXcXcXcXY   $X",
"-.y.                  * N.&XH.L eXcXcXcXcXcXcXcXcXcXcXcXcX4X  &X",
">.u.                    6.:Xv.3XcXcXcX6X6XrXyXrX3XH.eXcXcXlX* &X",
",.s.                    z K.v.pXcXcXiX    4 w.N.f.8 z kXcXcXx.-X",
",.s.                    # f.3XcXcXcXv.        G N.-Xl.dXcXcXuX6X",
"3.f.                      Y lXcXcXjX*             B e.0XcXcXcXwX",
"T q.y.y.u.p.s.f.h.l.l.x.x.F.3X6X6X2XZ.Z.Z.D.H.H.J.&X,X6XwXwXrX2X"
};
