/* XPM */
static char *azureus[] = {
/* width height num_colors chars_per_pixel */
"    48    48        8            1",
/* colors */
"` c #05040c",
". c #0e9cde",
"# c #3e4559",
"a c #061592",
"b c #1b2d52",
"c c #a0abdb",
"d c #fbfefc",
"e c #13cff8",
/* pixels */
"dddddddddddddddddddddddddddddddddddddddddddddddd",
"dddddddddddddddddddddddddddddddddddddddddddddddd",
"dddddddddddddddddddddddddddddddddddddddddddddddd",
"ddd########################baab################d",
"ddd#####################baaaaa``b##############d",
"ddd####################aaaaaaa```##############d",
"ddd###################acaaaaaa```a#############d",
"ddd###################aaaa##bb```ab############d",
"ddd##################aaab#....aaaa#############d",
"ddd##################aa``a##babaab#############d",
"ddd##################a```ac#aaaaa##############d",
"ddd#################aa````d#.#aaa##############d",
"ddd################baa#b#.d##d#a###############d",
"ddd################`ab#..d#bcdaa###############d",
"ddd################`a#....`aaaaa###############d",
"ddd###############`aa..#abaaaaaabb#######b`````d",
"ddd###############aa#..cbaaaaabaa######b```````d",
"ddd##############`aaa.c.#aaaaabbb######````````d",
"ddd###########abaaa..d..##baaabb#####``````````d",
"ddd##########aaaaaa..ee.##aaabbb#####``````````d",
"ddd##########abaaa...eea..#bbbbb####```````````d",
"ddd#########`baaa#a.eeeea````bda####```````````d",
"ddd######`b#`baaa`aaeeee`````bc#b``````````````d",
"ddd#####`aabbaaa`aaaeeee`````baca``````````````d",
"ddd`###baaaaaaaa``a.....bb``bbbb###````aa``````d",
"ddd``##baaaaaaa``a..a...bb``b``#ab`````ab``````d",
"ddd```baaaabaaa```aaa..#bbbbb``b`ab````````````d",
"ddd````aaaa#aaabb####bbbbbbb````#aab``#````````d",
"ddd``baaaaa#aaabbaab###bbbbb`````aaab##```bbb``d",
"ddd`b#aaaabbaaaaa`aaabbbba`b`````aaa`bb``#aaa``d",
"ddd`##aaab```aa````aabbbb````````#bbbb#````````d",
"ddd``#baab``aaa````aaaaa``#````````````````````d",
"ddd``b#bab``aaa````aabbbb#`````````````````````d",
"ddd``````#``aaaab#bbbbb#```````````````````````d",
"ddd```````bbaabbbbbaaaabb``````````````````````d",
"ddd```````#bbbbbbaaaaaaa`#b````````````````````d",
"ddd`````````bb#######aaa```#b``````````````````d",
"ddd`````````bb#aaaaaa#aaaaaabb`````````````````d",
"ddd`````````#aaaaa``aaaaaaaaab`````````````````d",
"ddd``````````b#bbbaaaaaaaaaaaa```##````````````d",
"ddd````````````bbbbbbaaaaaaaaa``##b````````````d",
"ddd````````````#bab##bbbbbbbb###```````````````d",
"ddd```````````````baaaaabb`````````````````````d",
"ddd```````````````##b###aab````````````````````d",
"ddd``````````````````````#bb```````````````````d",
"ddd`````````````````````````bb`````````````````d",
"ddd````````````````````````````````````````````d",
"dddddddddddddddddddddddddddddddddddddddddddddddd"
};
