/* XPM */
static char *magick[] = {
/* columns rows colors chars-per-pixel */
"16 16 237 2",
"   c #000008",
".  c #00000e",
"X  c #000012",
"o  c #000016",
"O  c #000315",
"+  c #020015",
"@  c #030114",
"#  c #010018",
"$  c #02011a",
"%  c #02011b",
"&  c #03011a",
"*  c #03011b",
"=  c #03021a",
"-  c #03021b",
";  c #01001d",
":  c #00001f",
">  c #04031c",
",  c #05041d",
"<  c #000022",
"1  c #000023",
"2  c #000323",
"3  c #020021",
"4  c #030227",
"5  c #00002b",
"6  c #02022b",
"7  c #03022f",
"8  c #080722",
"9  c #000033",
"0  c #000331",
"q  c #000333",
"w  c #020333",
"e  c #000035",
"r  c #000337",
"t  c #020337",
"y  c #000433",
"u  c #000435",
"i  c #000338",
"p  c #02033b",
"a  c #00003c",
"s  c #00003d",
"d  c #00033c",
"f  c #01033e",
"g  c #00043d",
"h  c #00043f",
"j  c #02043f",
"k  c #09003b",
"l  c #0b003d",
"z  c #001725",
"x  c #0a1b2e",
"c  c #081332",
"v  c #110f25",
"b  c #15162e",
"n  c #11103f",
"m  c #181c35",
"M  c #1d1c34",
"N  c #1e1d35",
"B  c #20213f",
"V  c #282a3e",
"C  c #020344",
"Z  c #000440",
"A  c #000441",
"S  c #000444",
"D  c #000446",
"F  c #000447",
"G  c #030444",
"H  c #070342",
"J  c #000448",
"K  c #00044b",
"L  c #00054a",
"P  c #00054b",
"I  c #020448",
"U  c #02044b",
"Y  c #00044c",
"T  c #00044d",
"R  c #00054e",
"E  c #02044c",
"W  c #02044f",
"Q  c #090340",
"!  c #09034c",
"~  c #0a044c",
"^  c #010454",
"/  c #030557",
"(  c #060450",
")  c #00015d",
"_  c #00025c",
"`  c #00025f",
"'  c #000558",
"]  c #00055a",
"[  c #00055b",
"{  c #01055a",
"}  c #020459",
"|  c #0c0059",
" . c #0f1254",
".. c #0f125a",
"X. c #0e135e",
"o. c #120349",
"O. c #11044d",
"+. c #150048",
"@. c #110453",
"#. c #160350",
"$. c #16005a",
"%. c #111145",
"&. c #11114a",
"*. c #10124f",
"=. c #11125a",
"-. c #000061",
";. c #000265",
":. c #000560",
">. c #000562",
",. c #020561",
"<. c #000268",
"1. c #020169",
"2. c #08016b",
"3. c #0d0270",
"4. c #0e1364",
"5. c #0e1475",
"6. c #0f1474",
"7. c #0f1475",
"8. c #1e0467",
"9. c #1e016a",
"0. c #160273",
"q. c #10136b",
"w. c #101370",
"e. c #101376",
"r. c #101471",
"t. c #101476",
"y. c #101477",
"u. c #111476",
"i. c #19147b",
"p. c #1e217d",
"a. c #210355",
"s. c #260462",
"d. c #26046c",
"f. c #250470",
"g. c #29057b",
"h. c #2f047b",
"j. c #36036a",
"k. c #34017f",
"l. c #370478",
"z. c #222249",
"x. c #232249",
"c. c #272e46",
"v. c #262d4a",
"b. c #2f324f",
"n. c #333246",
"m. c #33324d",
"M. c #36344a",
"N. c #3a394e",
"B. c #343352",
"V. c #3f3c51",
"C. c #42006f",
"Z. c #400372",
"A. c #4b0079",
"S. c #52007e",
"D. c #46455e",
"F. c #48475f",
"G. c #454561",
"H. c #485660",
"J. c #4f506e",
"K. c #575669",
"L. c #59586a",
"P. c #6b6b7e",
"I. c #6c6b7f",
"U. c #69767d",
"Y. c #261483",
"T. c #3d0482",
"R. c #39138f",
"E. c #41058a",
"W. c #470489",
"Q. c #4a0487",
"!. c #4e0483",
"~. c #4c0491",
"^. c #4d0593",
"/. c #4c0494",
"(. c #411393",
"). c #540084",
"_. c #560389",
"`. c #550488",
"'. c #54048b",
"]. c #55048a",
"[. c #59048f",
"{. c #5d0089",
"}. c #570496",
"|. c #5d049b",
" X c #5c059c",
".X c #5d049e",
"XX c #630c89",
"oX c #6b04a6",
"OX c #6f04a1",
"+X c #6f04a9",
"@X c #7104a5",
"#X c #7700a3",
"$X c #7b04a6",
"%X c #7904ac",
"&X c #7d04ab",
"*X c #7e04af",
"=X c #7901b2",
"-X c #793b9b",
";X c #6b6b81",
":X c #797f93",
">X c #8000ac",
",X c #8204ae",
"<X c #8104b0",
"1X c #8504b7",
"2X c #8704b7",
"3X c #8704ba",
"4X c #8800b3",
"5X c #8900b4",
"6X c #8904b5",
"7X c #8904b9",
"8X c #8a04bc",
"9X c #9200bc",
"0X c #9204bf",
"qX c #9304be",
"wX c #9401c3",
"eX c #9b01c7",
"rX c #9a05c4",
"tX c #9f04c7",
"yX c #9b01c8",
"uX c #a104c9",
"iX c #a205ca",
"pX c #a304cb",
"aX c #a604cd",
"sX c #a704cf",
"dX c #ba04db",
"fX c #8341a3",
"gX c #9b56b5",
"hX c #d35dec",
"jX c #858196",
"kX c #8a9099",
"lX c #929ca1",
"zX c #9fa0ac",
"xX c #d884eb",
"cX c #c9c9d1",
"vX c #cdcdd5",
"bX c #d4d4da",
"nX c #efeff2",
/* pixels */
"@ = > = = = = , > = = = = = = v ",
"@ b L.; 8 V X K.M.. V.N.. N n.N ",
"= F.nXB m jX  kXD.@ zX;X. P.vXm.",
"; G.bXb.x xXS.U.c.@ lXH.. ;XcXB.",
"3 x.:Xc XXfX#X-Xz C.hXgX3 v.J.x.",
"4 5 ; A.4X9 k 5X{.>X+.).9Xl 3 n ",
"5 r H iXZ.o.3 j.rXQ @ a.$Xr r %.",
"7 f i !.,X6X_.9 f #.`.&XO.9 f &.",
"9 C A h y ~ tX@.u ].sX].s.! f *.",
"r P R F P OX[.A A ( <XiX*XqX$. .",
"p W P 8.iX%XF R l.h d.Q.F @X| ..",
"h / ' 1X|./ F T.dXf.F P W.sX9.X.",
"G ' ' oX}.P ' 1X^.7X' R h.qXk.4.",
"P ,.,.,.8XE./. XR +X Xg.3X^.) q.",
"R ;.1.) 3.eXwX1.) 2.yX=X0.) -.w.",
"=.r.t.t.6.R.(.6.t.t.Y.i.6.t.e.p."
};
