/* XPM */
static char * bluefish_16x16_xpm[] = {
"16 16 155 2",
"  	c None",
". 	c #7EB2E7",
"+ 	c #356DB1",
"@ 	c #4B7BB7",
"# 	c #6FACE9",
"$ 	c #6D95BE",
"% 	c #6998CD",
"& 	c #5486C0",
"* 	c #3872B7",
"= 	c #306CB4",
"- 	c #3670B6",
"; 	c #6395CD",
"> 	c #6595CC",
", 	c #5785BB",
"' 	c #6AA8E6",
") 	c #63819F",
"! 	c #6897CD",
"~ 	c #6296D0",
"{ 	c #3471B8",
"] 	c #3070BA",
"^ 	c #3071BA",
"/ 	c #4A80BF",
"( 	c #6D9ED5",
"_ 	c #6C9ED4",
": 	c #5A88BE",
"< 	c #4673AC",
"[ 	c #71ABE6",
"} 	c #65A2E0",
"| 	c #6986A4",
"1 	c #608DC3",
"2 	c #3D77BA",
"3 	c #3275C0",
"4 	c #3377C3",
"5 	c #6792C4",
"6 	c #A0BCDA",
"7 	c #94B3D6",
"8 	c #5C86B6",
"9 	c #3F6CA5",
"0 	c #3270B7",
"a 	c #69A5E2",
"b 	c #639CD8",
"c 	c #718BA7",
"d 	c #3276C2",
"e 	c #3378C4",
"f 	c #B3C2D3",
"g 	c #E5E6E8",
"h 	c #D8DADC",
"i 	c #AAAEB4",
"j 	c #5579A6",
"k 	c #3171BB",
"l 	c #3B7DC5",
"m 	c #5C97D4",
"n 	c #6F8195",
"o 	c #3D6AA3",
"p 	c #2F6AB1",
"q 	c #3070B8",
"r 	c #3274BF",
"s 	c #A9B4BC",
"t 	c #CFD0D2",
"u 	c #929496",
"v 	c #555859",
"w 	c #9E9C8B",
"x 	c #3172BB",
"y 	c #3C7EC7",
"z 	c #5C8AC0",
"A 	c #777B80",
"B 	c #3167AB",
"C 	c #2E68AE",
"D 	c #2F6CB4",
"E 	c #306FB7",
"F 	c #316FB6",
"G 	c #B39D5E",
"H 	c #B8B8B8",
"I 	c #B2B3B2",
"J 	c #A3A29E",
"K 	c #BD9938",
"L 	c #3269AC",
"M 	c #3171BA",
"N 	c #507AAA",
"O 	c #2D62A3",
"P 	c #2E64A7",
"Q 	c #2E67AC",
"R 	c #2F6AB0",
"S 	c #938142",
"T 	c #BAA056",
"U 	c #AEA380",
"V 	c #BC9F45",
"W 	c #9E8230",
"X 	c #2C5E9F",
"Y 	c #2F68AE",
"Z 	c #4E74A1",
"` 	c #3668A8",
" .	c #2C5FA0",
"..	c #2D62A4",
"+.	c #2F64A8",
"@.	c #3E6695",
"#.	c #937C38",
"$.	c #B58917",
"%.	c #997D2F",
"&.	c #405C7E",
"*.	c #2A5A98",
"=.	c #2C60A1",
"-.	c #3066A9",
";.	c #507DB2",
">.	c #2E61A2",
",.	c #2C5E9E",
"'.	c #3062A3",
").	c #4272AE",
"!.	c #305B94",
"~.	c #2A5692",
"{.	c #2A538F",
"].	c #2A5693",
"^.	c #2B5A96",
"/.	c #4372AC",
"(.	c #4979B4",
"_.	c #557BAA",
":.	c #75A3D7",
"<.	c #669AD3",
"[.	c #5689C4",
"}.	c #4B7EBB",
"|.	c #4D7EB8",
"1.	c #5684BB",
"2.	c #5381B9",
"3.	c #305C98",
"4.	c #2A528D",
"5.	c #284F89",
"6.	c #2A508A",
"7.	c #485973",
"8.	c #697C93",
"9.	c #5276A0",
"0.	c #4A6B93",
"a.	c #6B9CD2",
"b.	c #6190C7",
"c.	c #5884BB",
"d.	c #517CB1",
"e.	c #4B77AD",
"f.	c #406BA2",
"g.	c #29508A",
"h.	c #284D86",
"i.	c #284B83",
"j.	c #47576E",
"k.	c #6D95C1",
"l.	c #5D8ABD",
"m.	c #4873A8",
"n.	c #396196",
"o.	c #294F88",
"p.	c #274C84",
"q.	c #284B82",
"r.	c #49576B",
"s.	c #607084",
"t.	c #3E577D",
"u.	c #304E7D",
"v.	c #2E4C7B",
"w.	c #3B5071",
"x.	c #545C66",
"                            .   ",
"          + @             # $   ",
"  % & * = - ; > ,         ' )   ",
"! ~ { ] ^ / ( _ : <     [ } |   ",
"1 2 ^ 3 4 5 6 7 8 9 0   a b c   ",
"  = ^ d e f g h i j k l m ~ n   ",
"o p q r 3 s t u v w x e y z A   ",
"B C D E F G H I J K L M x N     ",
"O P Q R p S T U V W X C Y Z     ",
"`  ...P +.@.#.$.%.&.*.=.-.;.    ",
"  >.,. . .'.).!.~.{.].^./.(._.  ",
":.<.[.}.|.1.2.3.4.5.6.7.8.9.0.  ",
"  a.b.c.d.e.f.g.h.i.j.          ",
"    k.l.m.n.o.p.q.r.            ",
"      s.t.u.v.w.x.              ",
"                                "};
