/* XPM */
static char *magick[] = {
/* columns rows colors chars-per-pixel */
"32 32 251 2",
"   c Gray0",
".  c #030203",
"X  c #030403",
"o  c #0c0c0c",
"O  c #090710",
"+  c #0f100f",
"@  c #0e1016",
"#  c Gray8",
"$  c Gray7",
"%  c #1f1e15",
"&  c #1a1916",
"*  c #191919",
"=  c #191a19",
"-  c #1d1c1d",
";  c #1d1e1d",
":  c #1e1f1e",
">  c #222222",
",  c #272623",
"<  c Gray14",
"1  c #2a2a2a",
"2  c #2a2c2a",
"3  c #2f2f2c",
"4  c #25273a",
"5  c #2d2e38",
"6  c #2a2a33",
"7  c #2d302d",
"8  c #31322f",
"9  c #323423",
"0  c #313231",
"q  c #323232",
"w  c #353535",
"e  c #373837",
"r  c #3b3a3b",
"t  c Gray22",
"y  c #3f3e38",
"u  c Gray24",
"i  c #3f3f3f",
"p  c #3a3c3a",
"a  c #060442",
"s  c #00005d",
"d  c #050e59",
"f  c #0e0a5b",
"g  c #0f105f",
"h  c #171e5a",
"j  c #000061",
"k  c #00006b",
"l  c #0d0c67",
"z  c #000075",
"x  c #0c1078",
"c  c #1a1a63",
"v  c #211d79",
"b  c #383454",
"n  c #2a256a",
"m  c #2f2d69",
"M  c #22247b",
"N  c #3d3876",
"B  c #414141",
"V  c Gray27",
"C  c Gray28",
"Z  c #444644",
"A  c #474844",
"S  c #4b4b4b",
"D  c #484848",
"F  c #4b4c4b",
"G  c Gray30",
"H  c Gray31",
"J  c #4d4f51",
"K  c #4e5456",
"L  c #515151",
"P  c Gray32",
"I  c #565656",
"U  c #525452",
"Y  c #595759",
"T  c #5a5a5a",
"R  c #5f5e5f",
"E  c #5f605f",
"W  c #606153",
"Q  c #676667",
"!  c #616461",
"~  c #656a63",
"^  c #666866",
"/  c #686b67",
"(  c #6c6d62",
")  c #6d6d6d",
"_  c #6f6f6f",
"`  c #6e6f73",
"'  c #6d716d",
"]  c #72726f",
"[  c #747569",
"{  c #797a6b",
"}  c #737263",
"|  c #737273",
" . c #747374",
".. c #767771",
"X. c #767675",
"o. c #76767f",
"O. c #767976",
"+. c Gray48",
"@. c #7b7d7b",
"#. c #7e7f7e",
"$. c #000083",
"%. c #020089",
"&. c #090b83",
"*. c #0d0f81",
"=. c #0d0882",
"-. c #140e99",
";. c #1f1787",
":. c #191580",
">. c #181a8a",
",. c #171491",
"<. c #1a1691",
"1. c #1b1890",
"2. c #1e1a9b",
"3. c #1f1da7",
"4. c #251c91",
"5. c #231e9a",
"6. c #241f9b",
"7. c #271d9c",
"8. c #231aa5",
"9. c #2c2d83",
"0. c #26219d",
"q. c #2b209f",
"w. c #2f3897",
"e. c #302b9d",
"r. c #353898",
"t. c #3130a3",
"y. c #3a438b",
"u. c #4437b6",
"i. c #433eb5",
"p. c #413ec0",
"a. c #4c4f99",
"s. c #4e49ae",
"d. c #4743be",
"f. c #514bb2",
"g. c #565ba1",
"h. c #555aae",
"j. c #5f5aaa",
"k. c #5760a0",
"l. c #6555b6",
"z. c #665fba",
"x. c #6c6e86",
"c. c #62659d",
"v. c #686592",
"b. c #727b81",
"n. c #75739b",
"m. c #73799d",
"M. c #7b7d92",
"N. c #6568aa",
"B. c #6a62a4",
"V. c #6970af",
"C. c #6c75a8",
"Z. c #544dc9",
"A. c #635ee2",
"S. c #7c7ac2",
"D. c #7e76d9",
"F. c #6f6be2",
"G. c #7f817f",
"H. c #847ff4",
"J. c #837eff",
"K. c #818181",
"L. c #828582",
"P. c #858685",
"I. c #878a86",
"U. c #878c87",
"Y. c #888988",
"T. c #8a8e91",
"R. c #8f908f",
"E. c #8f928f",
"W. c #909390",
"Q. c Gray57",
"!. c #939593",
"~. c #919691",
"^. c #979797",
"/. c #969996",
"(. c #9a9a9a",
"). c #8f96b1",
"_. c #9a97a0",
"`. c #9995bc",
"'. c #9ca194",
"]. c #9fa39a",
"[. c #9fa29f",
"{. c #9fa598",
"}. c #a1a49b",
"|. c #a3a3a4",
" X c Gray63",
".X c #a6aaa1",
"XX c #a5a9a5",
"oX c #a7aba7",
"OX c #abaea5",
"+X c #a9abad",
"@X c #afaeaf",
"#X c #a8aba9",
"$X c #adb2a5",
"%X c #a9b1b5",
"&X c Gray70",
"*X c #b3b6b3",
"=X c #b2bab2",
"-X c Gray74",
";X c #8b90d9",
":X c #9693c6",
">X c #9b98ce",
",X c #8b81ff",
"<X c #9898f9",
"1X c #a7adc0",
"2X c #a8a4c4",
"3X c #a5a4d6",
"4X c #aeb8c8",
"5X c #b7b4ca",
"6X c #b7b6ce",
"7X c #abace5",
"8X c #b1b0e6",
"9X c #bab7ea",
"0X c #bbbae9",
"qX c #bec5db",
"wX c #bdcbe3",
"eX c #c3c3c3",
"rX c #c6c6c1",
"tX c Gray81",
"yX c Gray82",
"uX c #d5d5d5",
"iX c Gray85",
"pX c Gray86",
"aX c Gray87",
"sX c #d9dcd9",
"dX c #c2c0f1",
"fX c #cbc5ff",
"gX c #d6defd",
"hX c #e0dfe0",
"jX c #e3e3df",
"kX c Gray89",
"lX c #e4e3e1",
"zX c Gray90",
"xX c #ebeceb",
"cX c #edebed",
"vX c #efefef",
"bX c #ededea",
"nX c #ebeae4",
"mX c #f0f0ed",
"MX c #f1f1f1",
"NX c #f3f3f3",
"BX c #f2f5f2",
"VX c #f7f7f1",
"CX c #f5f7f5",
"ZX c #f6f6f6",
"AX c #f4f4f4",
"SX c Gray98",
"DX c #fefffa",
"FX c #fdfdfd",
"GX c Gray100",
"HX c #fefefd",
"JX c None",
/* pixels */
"JXJXJXJXJXJXJXJXJXJXJXJX  # I C X JXJXJXJXJXJXJXJXJXJXJXJXJXJXJX",
"JXJXJXJXJXJXJXJXJXJXJXJXJX= W.O.JXJXJXJXJXJXJXJXJXJXJXJXJXJXJXJX",
"JXJXJXJXJXJXJXJXJXJXJX7 !.NXGXGXW.JXJXJXJXJXJXJXJXJXJXJXJXJXJXJX",
"JXJXJXJXJXJXJXJXJX> /.BXGXiX-XGXGXR.JXJXJXJXJXJXJXJXJXJXJXJXJXJX",
"JXJXJXJXJXJXJX7 !.CXGXcXQ p 2 X.GXGXR.JXJXJXJXJXJXJXJXJXJXJXJXJX",
"JXJXJXJXJX> /.BXGXhX .0 ' XX=X^ | GXGXR.JXJXJXJXJXJXJXJXJXJXJXJX",
"JXJXJX7 !.CXGXcXQ e / .X.X}.].OX~ X.GXGXR.JXJXJXJXJXJXJXJXJXJXJX",
"> ; /.xXGXaX .0 ' XX$X%X4X6XC.).#X, ] GXGXR.JXJXJXJXJXJXJXJXJXJX",
"*XsXGXGX@X2 ' XX#X.Xx.7X;X2XwXqX_.b.& ] GXGXR.JXJXJXJXJXJXJXJXJX",
"&XuXGXCXiXU !.#X[.{.`.0Xy.;.w.M.OX9X=Xf ` GXGXR.JXJXJXJXJXJXJXJX",
"I D yXGXGXkXD U.oX'.5X:XM :.z %.i.t.c.j.s ..GXGXR.JXJXJXJXJXJXJX",
"L C G yXGXGXkXF U.+XdX>Xk l h $.a.n.-.m.8.j ..GXGXR.JXJXJXJXJXJX",
"L L C G yXGXGXkXA T.fX8Xh.z.r.k.<.q.2.5.7.3.j X.GXGXW.JXJXJXJXJX",
"L L L C G yXGXGXlXJ 3XD.gX1XN.g.x &.,.5.0.6.1.s o.GXGXR.JXJXJXJX",
"u D I L C G yXGXGXjXK s.<XV.9.c v.u.d.>.*.=.v 4.  rXGXGXR.JXJXJX",
"0 < D I L C G yXGXGXnX6 4 S.N g B.,XH.F.p.e.a @ ( GXNXCXGXR.JXJX",
"t D < D I L C G yXGXGXmX% 9 m d i.J.A.Z.a   { VXGXCXvXvXCXGXR.+ ",
"o $ G < D I L C G yXGXGXNX3 8 b J.l.  O } DXGXeXGXGXGXNXvXCXGXY.",
"JXJX# G < D I L C G yXGXGXmXy f.n   [ DXGXP.T K.GX_  XSXvXNXGXkX",
"JXJXJX# G < G I L C G yXGXGXbX5 W mXGX|.t &XiX&Xw ^.uXCXSXGXaXP.",
"JXJXJXJX# G < D I L C G yXGXGXDXGXkXI P.GXY.T +.SXGXGXGXuXY.t L ",
"JXJXJXJXJX# G < D I L C G yXGXNXCXkXkX-X0 (.kXGXGXGXaX+.C t R +.",
"JXJXJXJXJXJX# G < D I L C G yXGXNXNXSXW.CXGXGXGXuXY.t u E #.G.@.",
"JXJXJXJXJXJXJX# G < D I L C G yXGXNXNXGXGXGXaX+.C t R K.G.@.R.T ",
"JXJXJXJXJXJXJXJX# G < D I L C G yXGXGXGXuXY.t u E #.G.L.P._ ; 1 ",
"JXJXJXJXJXJXJXJXJX# G < D I L C G tXkX+.C t R K.G.@.R.R 1 = i w ",
"JXJXJXJXJXJXJXJXJXJX# G < D I L D C u u E #.G.L.P._ ; ; B t #   ",
"JXJXJXJXJXJXJXJXJXJXJX# G < G I L G T L.G.@.R.R 1 = i B o JXJXJX",
"JXJXJXJXJXJXJXJXJXJXJXJX# G < D I G ^ I.L._ ; ; B t # JXJXJXJXJX",
"JXJXJXJXJXJXJXJXJXJXJXJXJX# G < G Y O.! 1 = B B o JXJXJXJXJXJXJX",
"JXJXJXJXJXJXJXJXJXJXJXJXJXJX# G < ; > ; B t # JXJXJXJXJXJXJXJXJX",
"JXJXJXJXJXJXJXJXJXJXJXJXJXJXJX= B u t w $   JXJXJXJXJXJXJXJXJXJX"
};
