/* XPM */
static char * cache_32x32_xpm[] = {
"34 34 231 2",
"  	c None",
". 	c #ACC4B2",
"+ 	c #74B955",
"@ 	c #37982F",
"# 	c #18734F",
"$ 	c #1682AB",
"% 	c #238FC3",
"& 	c #1B8ABA",
"* 	c #2577A9",
"= 	c #298887",
"- 	c #319765",
"; 	c #548E7E",
"> 	c #323203",
", 	c #A6BA89",
"' 	c #478525",
") 	c #438619",
"! 	c #57D8FD",
"~ 	c #49D6FC",
"{ 	c #3BD3FF",
"] 	c #38CAFB",
"^ 	c #18CBB1",
"/ 	c #0BAA71",
"( 	c #069956",
"_ 	c #006B41",
": 	c #095334",
"< 	c #424204",
"[ 	c #FEFEC4",
"} 	c #BAB604",
"| 	c #89A773",
"1 	c #528654",
"2 	c #64C1BF",
"3 	c #64A599",
"4 	c #76CEDF",
"5 	c #8AF2F0",
"6 	c #81F6A4",
"7 	c #65E0A3",
"8 	c #5CE2EC",
"9 	c #11D26E",
"0 	c #2ECDAB",
"a 	c #089B5B",
"b 	c #079561",
"c 	c #FCFDFD",
"d 	c #FDFDF4",
"e 	c #FEFE94",
"f 	c #FEFE04",
"g 	c #7E997A",
"h 	c #579E8B",
"i 	c #79E2FF",
"j 	c #8AE7FF",
"k 	c #90EC8F",
"l 	c #77C645",
"m 	c #66B736",
"n 	c #4DB03C",
"o 	c #55D864",
"p 	c #1EBD41",
"q 	c #09A549",
"r 	c #07A152",
"s 	c #B4CCD5",
"t 	c #62B8D4",
"u 	c #AAEBC1",
"v 	c #BDF063",
"w 	c #8FD290",
"x 	c #93CBAB",
"y 	c #91E259",
"z 	c #5BA82D",
"A 	c #2BA93E",
"B 	c #F5F8F9",
"C 	c #64B0CA",
"D 	c #A0F1FF",
"E 	c #C8F8AE",
"F 	c #D5F82B",
"G 	c #AEEB43",
"H 	c #7CCF39",
"I 	c #57B33A",
"J 	c #33A641",
"K 	c #15A742",
"L 	c #2B393B",
"M 	c #868787",
"N 	c #66A1B5",
"O 	c #81DCF7",
"P 	c #EEFB21",
"Q 	c #B1D010",
"R 	c #8DAE10",
"S 	c #92C625",
"T 	c #76AD2A",
"U 	c #629C31",
"V 	c #3AAB3E",
"W 	c #CECA04",
"X 	c #5B704C",
"Y 	c #262727",
"Z 	c #43525B",
"` 	c #979899",
" .	c #88AAB3",
"..	c #76CFEB",
"+.	c #9BF1FF",
"@.	c #CDFC6F",
"#.	c #A1B92D",
"$.	c #B2D5D8",
"%.	c #7EA26D",
"&.	c #82BF2E",
"*.	c #677853",
"=.	c #304B4E",
"-.	c #13313E",
";.	c #5A5A59",
">.	c #9EA0A0",
",.	c #4895B9",
"'.	c #94ECFF",
").	c #B3F4F8",
"!.	c #F9FE42",
"~.	c #B9E8D7",
"{.	c #B3E4E2",
"].	c #2B8953",
"^.	c #2C3023",
"/.	c #353637",
"(.	c #777878",
"_.	c #93B3BC",
":.	c #B0F8E0",
"<.	c #ECFC40",
"[.	c #AFD109",
"}.	c #AED99F",
"|.	c #D2FFFF",
"1.	c #55AB33",
"2.	c #3E3615",
"3.	c #4B4331",
"4.	c #493C25",
"5.	c #454646",
"6.	c #A1CC1A",
"7.	c #A3D640",
"8.	c #A5EC68",
"9.	c #9EEE77",
"0.	c #7DD74C",
"a.	c #FEFE14",
"b.	c #FEFE24",
"c.	c #FEFE37",
"d.	c #FCFA5C",
"e.	c #5D5715",
"f.	c #616261",
"g.	c #8BE2CA",
"h.	c #ACEE2B",
"i.	c #87C32B",
"j.	c #78BD33",
"k.	c #63A33B",
"l.	c #FCFD2B",
"m.	c #FEFE54",
"n.	c #E2DE4C",
"o.	c #469BC1",
"p.	c #76BD2D",
"q.	c #56A246",
"r.	c #FEFE64",
"s.	c #1B1914",
"t.	c #3B9AC4",
"u.	c #74D16A",
"v.	c #DED66C",
"w.	c #8A7A4C",
"x.	c #161C22",
"y.	c #65C8C1",
"z.	c #50962A",
"A.	c #2AB586",
"B.	c #0C8B4C",
"C.	c #32766F",
"D.	c #4ABCD6",
"E.	c #9E8654",
"F.	c #517989",
"G.	c #192A32",
"H.	c #0A1B25",
"I.	c #20201D",
"J.	c #3594BC",
"K.	c #65DBFC",
"L.	c #5BB0A9",
"M.	c #60AC8F",
"N.	c #14A63D",
"O.	c #34B1D3",
"P.	c #768A90",
"Q.	c #171818",
"R.	c #0F1316",
"S.	c #368CAD",
"T.	c #6BE1FF",
"U.	c #248E93",
"V.	c #6390A7",
"W.	c #55686B",
"X.	c #0B0A0A",
"Y.	c #40C3EC",
"Z.	c #2FB36F",
"`.	c #F2EE70",
" +	c #DCAA88",
".+	c #EEBAA4",
"++	c #FADACC",
"@+	c #FEF2EC",
"#+	c #000000",
"$+	c #5697AE",
"%+	c #2DA6D6",
"&+	c #37BBB3",
"*+	c #088955",
"=+	c #FEFE4C",
"-+	c #FCFA86",
";+	c #FEFCB8",
">+	c #0E916D",
",+	c #FEF2D4",
"'+	c #FEEAEC",
")+	c #287699",
"!+	c #2AB9F8",
"~+	c #F2D294",
"{+	c #F6C2A4",
"]+	c #1773A9",
"^+	c #0C7C5B",
"/+	c #7A721C",
"(+	c #356E8F",
"_+	c #168BC8",
":+	c #2695B6",
"<+	c #2F905D",
"[+	c #31A0C5",
"}+	c #1595D5",
"|+	c #0E8AC5",
"1+	c #2789BA",
"2+	c #D4C86C",
"3+	c #AA9E6C",
"4+	c #24ABE1",
"5+	c #265775",
"6+	c #2F704B",
"7+	c #1891CA",
"8+	c #453F0F",
"9+	c #0B5786",
"0+	c #117EB9",
"a+	c #0B0E10",
"b+	c #073E61",
"c+	c #036397",
"d+	c #056EA5",
"e+	c #106FA3",
"f+	c #10334C",
"g+	c #03385B",
"h+	c #211F1F",
"                                                                    ",
"                                                                    ",
"                                                                    ",
"                      . + @ # $ % & & * = - ;     > > >             ",
"                  , ' ) ) ; ! ~ ~ { ] ^ / ( _ : < [ [ } > >         ",
"                | 1 2 3 4 5 6 7 8 9 0 9 a b b < c d [ e f } >       ",
"              g h i j j k l m n o p q r a b < c d [ e f } >         ",
"            s t j u v u w x y z n A q r a < c B [ e f } <           ",
"          s C j D E F F G G H m I J K q > c d [ e f } > L M         ",
"          N O E P Q R R S T U z I V K > c d [ e f W < X Y Z `       ",
"         ...+.@.#.$.. %.&.+ x + I J < c d [ e f W > 1 *.=.-.;.>.    ",
"        ,.'.).!.P @.~.{.T T y y I < c d [ e f W > ].1 *.*.^./.(.    ",
"      _.t :.<.Q [.[.}.|.{.u H 1.n c d [ e f f > > > > 2.3.4./.5.M   ",
"      N ..@.Q 6.6.6.7.v 8.9.0.> c d [ f f f f a.b.c.c.c.b.d.d.e.f.M ",
"      ,.g.h.S S S S i.&.j.k.> c [ [ f f f f f b.l.l.l.c.m.m.n.e.5.f.",
"      o.k i.p.i.&.&.H p.m q.> [ [ r.f f f f f c.!.c.m.m.m.n.e.s./.5.",
"      t.u.p.p.p.j.j.j.m I 1.> > > > 2.> 3.3.c [ [ e m.m.v.w.-.x.Y /.",
"      t.y.z.z m m m I I n q.J A.B.C.D.~ < c d [ e m.m.v.E.F.G.H.Y I.",
"      J.K.L.M.q.1.I n n V A N.A.0 O.! < c d [ e m.m.v.E.P.F.Y Q.Y R.",
"      S.~ T.i 2 V V V A N.q q ( r U.< c d [ e c.m.v.E.V.M W.H.x.Q.X.",
"      S.Y.! T.K.Z.N.N.q r r r B.= > c d [ e c.c.`.w. +.+++@+H.x.X.#+",
"      $+%+~ ! ! &+q q ( r ( *+U.> c d [ e b.c.=+=+d.-+e ;+d c Q.#+#+",
"       .& { ~ ~ ~ >+( ( a b *+> c [ [ e b.b.b.=+m.=+r.e ;+,+'+X.#+#+",
"        )+!+{ { ] / a a b b > ;+[ [ e b.f f f =+d.=+=+r.~+{+s.#+#+#+",
"          ]+] ] ] >+b b b b ^+> > > > > < < /+[ e d.`.v. +s.X.#+#+#+",
"          (+_+!+!+U.*+b b ^+:+%+<+[+}+|+|+1+< [ [ -+2+3+x.Q.#+#+#+#+",
"            (+_+!+4+>+a ^+# %+[+C.}+_+% ,.< c [ f W /+H.Q.#+#+#+#+  ",
"              5+]+}+:+6+6+)+}+}+7+7+% ,.> c [ f W 8+H.#+#+#+#+#+#+  ",
"                5+9+0+* $ |+|+_+1+1+w.^.c [ f } > H.a+#+#+#+#+#+    ",
"                  Z b+b+c+d+d+e+e+)+* > [ e } > R.X.#+#+#+#+#+      ",
"                    ;.=.f+g+b+g+g+g+> c e } > X.#+#+#+#+#+#+        ",
"                    w.f./.L G.x.x.x.> [ } > #+#+#+#+#+#+#+          ",
"                      >.f.5.Y Y s.> c } > #+#+#+#+#+#+              ",
"                      >.;./.h+a+X.X.> > #+#+#+#+#+                  "};
