/* XPM */
static char *magick[] = {
/* columns rows colors chars-per-pixel */
"32 26 248 2",
"   c Gray0",
".  c #030402",
"X  c #040609",
"o  c #080b07",
"O  c #0d1211",
"+  c #17191f",
"@  c #1b1d1d",
"#  c #1a1e13",
"$  c #161c20",
"%  c #1e1e20",
"&  c #17211f",
"*  c #221e21",
"=  c #20261a",
"-  c #23271d",
";  c #242a1e",
":  c #202023",
">  c #21272f",
",  c #252c21",
"<  c #2a2d26",
"1  c #282c22",
"2  c #2b2e2f",
"3  c #2a2f36",
"4  c #2c3027",
"5  c #2d3229",
"6  c #2e3827",
"7  c #2d3232",
"8  c #2c343c",
"9  c #313627",
"0  c #33362e",
"q  c #34392c",
"w  c #323535",
"e  c #303438",
"r  c #393e31",
"t  c #3c3e3f",
"y  c #323742",
"u  c #3b402e",
"i  c #374433",
"p  c #3d4332",
"a  c #3c4335",
"s  c #3e4239",
"d  c #3d433d",
"f  c #3d4830",
"g  c #364b3a",
"h  c #3d4c40",
"j  c #434336",
"k  c #43473f",
"l  c #424836",
"z  c #47493e",
"x  c #464a3b",
"c  c #4a4f3f",
"v  c Gray26",
"b  c #48474b",
"n  c #4c4f44",
"m  c #4a494b",
"M  c #464a4b",
"N  c #474a52",
"B  c #4e4a50",
"V  c #445747",
"C  c #4e5244",
"Z  c #4e534a",
"A  c #55564f",
"S  c #51554b",
"D  c #565d4f",
"F  c #585b4e",
"G  c #505244",
"H  c #565751",
"J  c #525754",
"K  c #56575d",
"L  c #555951",
"P  c #545d56",
"I  c #5a5a54",
"U  c #595c51",
"Y  c #5e5e5c",
"T  c #5d5e65",
"R  c #4f6555",
"E  c #5f6456",
"W  c #5d615b",
"Q  c #5f606d",
"!  c #577063",
"~  c #635f58",
"^  c #62645c",
"/  c #7a625e",
"(  c #636663",
")  c #636566",
"_  c #606162",
"`  c #64636c",
"'  c #666b64",
"]  c #6f6f67",
"[  c #686964",
"{  c #6b6c6e",
"}  c #616571",
"|  c #6f726b",
" . c #6c787e",
".. c #716e6b",
"X. c #73746d",
"o. c #737175",
"O. c #757377",
"+. c #747575",
"@. c #727372",
"#. c #747378",
"$. c #767679",
"%. c #71727c",
"&. c #77787c",
"*. c #7b7f74",
"=. c #797979",
"-. c #7e7d7c",
";. c #7a7b85",
":. c #7c7c82",
">. c #7b7f89",
",. c #7c807f",
"<. c #7f818b",
"1. c #7f868a",
"2. c #7c8a8b",
"3. c #7c8e83",
"4. c #8a717b",
"5. c #907f86",
"6. c #84867f",
"7. c #848583",
"8. c #86868e",
"9. c #83838b",
"0. c #838a8e",
"q. c #89878b",
"w. c #8a898e",
"e. c #8a8d8a",
"r. c #8a898b",
"t. c #8b8983",
"y. c #868790",
"u. c #868993",
"i. c #8c8b93",
"p. c #958188",
"a. c #908a8b",
"s. c #908497",
"d. c #928e93",
"f. c #90908f",
"g. c #949394",
"h. c #96979d",
"j. c #989598",
"k. c #999c97",
"l. c #9d9b9e",
"z. c Gray62",
"x. c #9b9b9b",
"c. c #94989b",
"v. c #9b97a2",
"b. c #9a9ea1",
"n. c #9e9da1",
"m. c #9b9aa2",
"M. c #93a299",
"N. c #9ea1a6",
"B. c #9fa4a7",
"V. c #9ba0a5",
"C. c #9fa3a8",
"Z. c #9fa4a9",
"A. c #a09f9e",
"S. c #a19da1",
"D. c #a29da2",
"F. c #a29da3",
"G. c #a2a19f",
"H. c #a2a49f",
"J. c #a4a2a5",
"K. c #a2a2ad",
"L. c #a6a7aa",
"P. c #a1a5aa",
"I. c #aaa6aa",
"U. c #aaa9ab",
"Y. c #aaa9ad",
"T. c #aeabaf",
"R. c #ada9ae",
"E. c #acacac",
"W. c #aeaab1",
"Q. c #afadb1",
"!. c #aaa9b2",
"~. c #adb0ac",
"^. c #afb0b0",
"/. c #acb2b8",
"(. c #b1abaf",
"). c #b1abb1",
"_. c #b1adb2",
"`. c #b2afb5",
"'. c #b0b2af",
"]. c #b2b1b5",
"[. c #b6b4b6",
"{. c #b3b2b3",
"}. c #b7b5b9",
"|. c #b7bab4",
" X c #b7baba",
".X c #bab7ba",
"XX c #bdb7bc",
"oX c #b8bab3",
"OX c #bebabe",
"+X c #bdbdbe",
"@X c #b9bbbc",
"#X c #bdbdc3",
"$X c #bec3bb",
"%X c #bfc3cc",
"&X c #c3bbc3",
"*X c #c1bdc2",
"=X c #c7bfc9",
"-X c #c3c3bd",
";X c #c0c2c1",
":X c #c1c0c6",
">X c #c6c2cb",
",X c #c3c3ca",
"<X c #c7c8c6",
"1X c #c8c4c7",
"2X c #cac3cd",
"3X c #cac6ca",
"4X c #cdc5cd",
"5X c #c9c4cc",
"6X c #cbc9ca",
"7X c #cdc8cd",
"8X c #c4c8ca",
"9X c #cdcad2",
"0X c #d3cdd5",
"qX c #d4cfd9",
"wX c #d0d1ce",
"eX c #d3d3d7",
"rX c Gray82",
"tX c #d6d1da",
"yX c #d6d8d9",
"uX c #d9d4dc",
"iX c #dfdfdf",
"pX c #dbdadc",
"aX c #dbdbe1",
"sX c #e2dde2",
"dX c #e3e1e3",
"fX c #e2e2e2",
"gX c #e5e3e5",
"hX c #e5e4e5",
"jX c #e3e2e5",
"kX c #e6e5e9",
"lX c #e7e8eb",
"zX c #e7e9ec",
"xX c #e8e7e7",
"cX c #e9e7ea",
"vX c #e8e9ed",
"bX c #edecee",
"nX c #eeeef1",
"mX c #f5f3f4",
"MX c #f6f6f6",
"NX c #f3f2f2",
"BX c #f7f8f6",
"VX c #f8f7f8",
"CX c #fbfbfb",
"ZX c #f8f9f8",
"AX c #fcfcfb",
"SX c Gray100",
"DX c Gray99",
"FX c #fcfbfc",
/* pixels */
"SXMXvXvXzXzXvXzXzXlXzXzXzXzXvXzXzXlXlXlXlXlXvXzXzXlXlXzXlXvXbXl.",
"SXMX%XV.P.B.P.C.b.b.P.Z.B.B.B.b.B.B.P.b.B.B.P.C.C.Z.Z.Z.c./.kX7.",
"CXbXK . 5 < , = s k 4 1 , , d a = = , s , ; 4 4 4 4 4 < - S.*Xo.",
"SXMX` < ^ U Z g.W.!.^ C S K.Y.`.t.S U.K.J.F S C G S C C z 0X7XO.",
"SXmXQ < R n W aXz s x @.d.T.q U.7.6.`.H K.n E E. .| :.e.a 4X3Xo.",
"CXmX` < D z 7.OXJ.U.g ~ 4.P ^ L.a G.S ] o.p 8.pXZ.<X,XsXs 4X6X=.",
"SXNX` w F W :X[ j.G.' ' M.=.Q.*.e.#X[ #X( c e.[ ^ e.A X.r 4X6X=.",
"SXNXT # c a X.>.+.9 j f ! s.) 6 V -.9.W p j a u p i p i q >X3XO.",
"CXbX} T u.;.7.$.:.;.9.9.-.%.,.:.:.$.&.;.>.<.2.9.<.2.1.0.;.uX3X@.",
"CXgXv.:XtXqX9X7X9X>X5X=X2X0XtX0XtXtXeX5X>X>X5X9XqX0X9X0X9X1X+X@.",
"CXhXJ.).I.I.S.pXAXMXVXFXkXl.d.,Xf.x.6XSXBXMXSXhX..=X).U.U.U.OXO.",
"CXdXS.T.W.Q.S.hXSXSXSXSXyX7.L.9X_ 7.x.SXSXSXSXNX  v U.XXT.T.*XO.",
"CXdXS.).T.).S.sXSXSXSXSXSXSXSXSXrXSXwXMXSXSXSXCX  o ( !.).Q.OXo.",
"CXgXF.).).).S.gXSXSXSXSXj.OXSXg.. X O   .XSXSXCX  % P n.{.T.OX+.",
"CXiXS.Q.U.].S.dXSXSXSXgXM l.SX@.U.SXSXb *XSXSXCX  @ U S.].).OXO.",
"CXgXF.).).T.S.hXSXSXSXSXH.L.SXSXSXSXpX0 SXSXSXCX  + U l.[.T.OXO.",
"CXgXS.).Q.`.S.gXSXSXSXSXk.h.SXSXSXSX( { SXSXSXZX  $ L F.[.T.#X@.",
"CXjXn.(.U.T.S.gXSXSXSXSXz.A.SXSXSXpX@ NXSXSXSXZX  & P n.[.).*XO.",
"CXdXS.].).).S.dXSXSXSXSXJ.^.SXSXSX=.b SXSXSXSXZX  * I n.[.T.*X#.",
"CXdXS.).T.`.l.iXSXSXSX8XN h $XSXSX2 pXSXSXSXSXCX  @ U n..XT.*XO.",
"CXgXS.`.).T.S.gXSXSXcXY O.W.m ) ;X'.) 7.nXSXSXCX  @ U n.[.W.+X+.",
"CXhXS.Q.T.U.#XSXSXSX3XJ rX+.t aXSXb 7.Q.SXSXSXhX  : I l.[.T.+XO.",
"CXhXS.).U. XuX6X{.$X+X~. X}.`.+X+X{.oX|.-X;XoX|   @ U n..XT.#XO.",
"CXdXS.T.Q.I.{.{ > e 7 j 7 w 8 2 8 3 y w 7 3 7 v   O S m.].W.OX#.",
"CXxXI.OXOX&X*X}.X.n H S A S H L L L H L L A S I Y ^ ] W.*XOX7X$.",
"lX;X7.8.q.r.q.w.9.8.i.i.u.d.i.i.i.p.i.5.y.a.8.i.8.q.u.3.r.8.w._ "
};
