/* XPM */
static char * cd_s_xpm[] = {
"16 16 29 1",
" 	c None",
".	c #707070",
"+	c #9FCF9F",
"@	c #CFCF60",
"#	c #C0C0C0",
"$	c #309F9F",
"%	c #60CF9F",
"&	c #B0B0B0",
"*	c #303030",
"=	c #CFCF9F",
"-	c #DFDFDF",
";	c #808080",
">	c #309FCF",
",	c #609FCF",
"'	c #60CFCF",
")	c #D0D0D0",
"!	c #909090",
"~	c #A0A0A0",
"{	c #609F9F",
"]	c #000000",
"^	c #CFCFCF",
"/	c #E0E0E0",
"(	c #F0F0F0",
"_	c #EFEFEF",
":	c #FFFFFF",
"<	c #CFFFFF",
"[	c #009FCF",
"}	c #00FF00",
"|	c #008000",
"        ...     ",
"      ..+@#..   ",
"     .$%+@&##*  ",
"    .%%$%=#&-&* ",
"    ;>,%';&)#&* ",
"   .!~{';];~&^^*",
"   .&&^;] ];^^^*",
"   ./(/&;];&_(^*",
" ;;;;~&~~;$-/:* ",
";:::.~~&)=%><&* ",
";:###.~&^=+[[]  ",
";:****;;^=+**]  ",
";:}|::##***#.]  ",
".;;;;;;;;;;;;]  ",
" ]]]]]]]]]]]]   ",
"                "};
