/* XPM */
static char * news16_xpm[] = {
"16 16 183 2",
"  	c None",
". 	c #003DC2",
"+ 	c #003FC0",
"@ 	c #0042BC",
"# 	c #003EC1",
"$ 	c #0041BD",
"% 	c #0040BF",
"& 	c #0040BE",
"* 	c #053FC0",
"= 	c #3B5CB9",
"- 	c #BBBFD5",
"; 	c #003FBF",
"> 	c #0441C1",
", 	c #0743BE",
"' 	c #0743BF",
") 	c #0741C2",
"! 	c #0A44BE",
"~ 	c #2749AE",
"{ 	c #979DC0",
"] 	c #D3D3DD",
"^ 	c #4068CC",
"/ 	c #727ED2",
"( 	c #7E77BA",
"_ 	c #6B7FD9",
": 	c #7973BA",
"< 	c #7F87CE",
"[ 	c #7976BF",
"} 	c #9E86A8",
"| 	c #CAC4D4",
"1 	c #053CC6",
"2 	c #6774CB",
"3 	c #C7D8B3",
"4 	c #ABC594",
"5 	c #EBEBC9",
"6 	c #F2E7C9",
"7 	c #F2EFD3",
"8 	c #EAE6C6",
"9 	c #ABA2B6",
"0 	c #7A7892",
"a 	c #0947C0",
"b 	c #5679DC",
"c 	c #BFC3F4",
"d 	c #9AB0A5",
"e 	c #A8CF8F",
"f 	c #F7F7B7",
"g 	c #FAFAC8",
"h 	c #F8F8CA",
"i 	c #F3F1CA",
"j 	c #A19BC4",
"k 	c #686682",
"l 	c #587FD8",
"m 	c #CED6EC",
"n 	c #EBEBEA",
"o 	c #DADAE1",
"p 	c #CDCDC3",
"q 	c #C7C791",
"r 	c #E1E1A5",
"s 	c #CFCFAA",
"t 	c #FFF7A7",
"u 	c #B9A2A2",
"v 	c #6C677E",
"w 	c #0242BF",
"x 	c #567ED4",
"y 	c #CED6E6",
"z 	c #E4E4CD",
"A 	c #DEDEBB",
"B 	c #E7E7D6",
"C 	c #DCDCDC",
"D 	c #A6A6A9",
"E 	c #D5D5AA",
"F 	c #BFBFAE",
"G 	c #F6F2B3",
"H 	c #A09CBC",
"I 	c #666684",
"J 	c #4D6DD9",
"K 	c #D0D5C9",
"L 	c #E7E7B2",
"M 	c #DCDCA8",
"N 	c #D1D1A8",
"O 	c #DFDFAA",
"P 	c #DEDEC8",
"Q 	c #D2D2C7",
"R 	c #B4B4B3",
"S 	c #CFCFA4",
"T 	c #FCFCAB",
"U 	c #B3A1AF",
"V 	c #6B657F",
"W 	c #3157BC",
"X 	c #8080BD",
"Y 	c #8484BF",
"Z 	c #8484C3",
"` 	c #8484C7",
" .	c #8484C6",
"..	c #8080C5",
"+.	c #787896",
"@.	c #ADADAF",
"#.	c #B4B4C1",
"$.	c #E4D8AD",
"%.	c #AC9DA9",
"&.	c #696882",
"*.	c #1748C1",
"=.	c #5860B6",
"-.	c #CDD0BA",
";.	c #C2D1B6",
">.	c #B1C8BF",
",.	c #BACCD7",
"'.	c #BCCAD9",
").	c #D9D9EA",
"!.	c #8686B8",
"~.	c #6F6F65",
"{.	c #C7C788",
"].	c #B0B0C2",
"^.	c #9995B8",
"/.	c #686680",
"(.	c #1748C2",
"_.	c #656DB8",
":.	c #EAEEAF",
"<.	c #CDE5BA",
"[.	c #B2D6B5",
"}.	c #C1DBD3",
"|.	c #C7D5D8",
"1.	c #FAFAFA",
"2.	c #9F9FC3",
"3.	c #5A5A5B",
"4.	c #B0B095",
"5.	c #CCC3BC",
"6.	c #B69F96",
"7.	c #6D6979",
"8.	c #DFE9B5",
"9.	c #86ADA4",
"0.	c #95A99B",
"a.	c #95AAAA",
"b.	c #8FA9AD",
"c.	c #BCBCBE",
"d.	c #565666",
"e.	c #CBCBCC",
"f.	c #EAE7AB",
"g.	c #A19BA5",
"h.	c #666582",
"i.	c #0542BD",
"j.	c #2E4FBC",
"k.	c #6B6FB6",
"l.	c #E8EB8F",
"m.	c #BDC8A2",
"n.	c #B9B9A1",
"o.	c #C1C1AF",
"p.	c #C2D2C8",
"q.	c #C3C3C7",
"r.	c #9A9ABF",
"s.	c #595663",
"t.	c #CEB298",
"u.	c #BAB79F",
"v.	c #A48E7F",
"w.	c #6B6473",
"x.	c #3E5FBD",
"y.	c #7E84AF",
"z.	c #6870A5",
"A.	c #CED196",
"B.	c #BBC290",
"C.	c #B8B896",
"D.	c #BDBD99",
"E.	c #C0CBA7",
"F.	c #BFBFB8",
"G.	c #8686B4",
"H.	c #59515E",
"I.	c #988C91",
"J.	c #928984",
"K.	c #908586",
"L.	c #8C8C96",
"M.	c #AEB4D2",
"N.	c #A5ADC3",
"O.	c #C4C4D8",
"P.	c #CBCBD3",
"Q.	c #CBCBD5",
"R.	c #CBCBD7",
"S.	c #BEBECA",
"T.	c #8080A9",
"U.	c #696992",
"V.	c #9C9CA7",
"W.	c #CECEDB",
"X.	c #8E8EB1",
"Y.	c #9292AC",
"Z.	c #CFCFD9",
". + @ + # $ % . $ & . & $ * = - ",
"+ ; & ; + & % > , ' ) ' ! ~ { ] ",
"@ & # & $ # % ^ / ( _ : < [ } | ",
"+ ; & ; + & 1 2 3 4 5 6 7 8 9 0 ",
"# + $ + + a b c d e f g h i j k ",
"$ & # & a l m n o p q r s t u v ",
"% % % w x y z A B C D E F G H I ",
". + $ J K L M N O P Q R S T U V ",
"$ & ' W X Y Z `  ...+.@.#.$.%.&.",
"& % *.=.-.;.>.,.'.).!.~.{.].^./.",
". + (._.:.<.[.}.|.1.2.3.4.5.6.7.",
"& % *._.8.9.0.a.b.c.2.d.e.f.g.h.",
"$ i.j.k.l.m.n.o.p.q.r.s.t.u.v.w.",
"* x.y.z.A.B.C.D.E.F.G.H.I.J.K.L.",
"= M.] N.O.P.Q.R.S.T.U.V.] ] ] ] ",
"- ] ] ] ] ] ] ] W.X.Y.Z.] ] ] ] "};
