/* XPM */
static char *magick[] = {
/* columns rows colors chars-per-pixel */
"32 19 253 2",
"   c Gray0",
".  c #030202",
"X  c #00000c",
"o  c #000016",
"O  c #000019",
"+  c #050811",
"@  c #091308",
"#  c #0e1816",
"$  c #00003e",
"%  c #09102f",
"&  c #0f1c3b",
"*  c #0e1b3c",
"=  c #121f2c",
"-  c #14222f",
";  c #182924",
":  c #1d3026",
">  c #1f353f",
",  c #290000",
"<  c #221d18",
"1  c #3d0000",
"2  c #352a1e",
"3  c #2e2724",
"4  c #000047",
"5  c #000049",
"6  c #00004e",
"7  c #03054f",
"8  c #00006f",
"9  c #000072",
"0  c #01027d",
"q  c #021369",
"w  c #091c6b",
"e  c #110f79",
"r  c #17275e",
"t  c #183751",
"y  c #0b226b",
"u  c #162762",
"i  c #112271",
"p  c #192d73",
"a  c #1d3369",
"s  c #28451a",
"d  c #2c462f",
"f  c #24493c",
"g  c #1f4052",
"h  c #23454f",
"j  c #344e66",
"k  c #3f6151",
"l  c #413929",
"z  c #413831",
"x  c #4b3f30",
"c  c #6d0000",
"v  c #610303",
"b  c #720000",
"n  c #7b0000",
"m  c #7e0000",
"M  c #464237",
"N  c #4f4233",
"B  c #4c4036",
"V  c #4b4138",
"C  c #4e483c",
"Z  c #544737",
"A  c #524637",
"S  c #50453a",
"D  c #544837",
"F  c #56493d",
"G  c #5a4b39",
"H  c #5b4b3c",
"J  c #67553e",
"K  c #4f4f44",
"L  c #4b4d47",
"P  c #5a4d40",
"I  c #5b594d",
"U  c #5d5b50",
"Y  c #58614b",
"T  c #5b6e46",
"R  c #625747",
"E  c #6c5c48",
"W  c #626053",
"Q  c #77654f",
"!  c #716854",
"~  c #786751",
"^  c #686861",
"/  c #717366",
"(  c #7e766d",
")  c #7f7e6e",
"_  c #737569",
"`  c #000080",
"'  c #000084",
"]  c #000c9c",
"[  c #0c1495",
"{  c #0000bb",
"}  c #0000bd",
"|  c #0515bc",
" . c #0b1eb3",
".. c #102c8a",
"X. c #132893",
"o. c #1628bb",
"O. c #1831a1",
"+. c #27278f",
"@. c #28288f",
"#. c #282792",
"$. c #2b2a90",
"%. c #3c3c96",
"&. c #0000c4",
"*. c #0000c8",
"=. c #0000d3",
"-. c #0009d1",
";. c #0b16c9",
":. c Blue",
">. c #0406ff",
",. c #0b0bff",
"<. c #0a15e1",
"1. c #0f1ae1",
"2. c #1622da",
"3. c #1b28ff",
"4. c #1e2eff",
"5. c #2534ff",
"6. c #3737ff",
"7. c #3232fb",
"8. c #3939ff",
"9. c #3f3fff",
"0. c #3b3cfd",
"q. c #2e4dff",
"w. c #4a499c",
"e. c #50509b",
"r. c #4747a2",
"t. c #504fa2",
"y. c #5f5fa6",
"u. c #5c5abc",
"i. c #6060a6",
"p. c #6767aa",
"a. c #6060a8",
"s. c #6b6baa",
"d. c #7171ac",
"f. c #7979af",
"g. c #5f5bff",
"h. c #4063ff",
"j. c #6969dd",
"k. c #6265dc",
"l. c #6e71d2",
"z. c #6464ff",
"x. c #6e6dff",
"c. c #7473ff",
"v. c #6d8172",
"b. c #74916b",
"n. c #70a9ff",
"m. c #840301",
"M. c #8f0302",
"N. c #aa0000",
"B. c #826e55",
"V. c #82755e",
"C. c #89755b",
"Z. c #887359",
"A. c #807b6b",
"S. c #907c62",
"D. c Red",
"F. c #818172",
"G. c #908c7a",
"H. c #93937a",
"J. c #93907e",
"K. c #a08b6e",
"L. c #af9575",
"P. c #b09c7d",
"I. c #919481",
"U. c #9c9c89",
"Y. c #8e8eba",
"T. c #8282b2",
"R. c #9797b7",
"E. c #9595ba",
"W. c #9696be",
"Q. c #9a9aba",
"!. c #ba9f87",
"~. c #a5a591",
"^. c #a8a793",
"/. c #b3b59e",
"(. c #a4a4bd",
"). c #a8a8b5",
"_. c #bebea8",
"`. c #bdbdb5",
"'. c #9192c7",
"]. c #9b9be6",
"[. c #9595f1",
"{. c #9d9bf6",
"}. c #a39ff1",
"|. c #a2a2c2",
" X c #b0afc6",
".X c #b5b5c4",
"XX c #bcbbcb",
"oX c #bebec8",
"OX c #bfbed1",
"+X c #a8a6ee",
"@X c #b3ebff",
"#X c #c9ad8b",
"$X c #cbc0a2",
"%X c #ccccab",
"&X c #d3d2ad",
"*X c #d0d0b4",
"=X c #e6ccaa",
"-X c #c7c7c6",
";X c #c1c1cf",
":X c #cececd",
">X c #cbcbc4",
",X c #cccbd3",
"<X c #d6d6c3",
"1X c #d1d1ce",
"2X c #d7d7d9",
"3X c #d1d1da",
"4X c #d8d8d4",
"5X c Gray85",
"6X c #dadada",
"7X c #dcdbdf",
"8X c #ddddd9",
"9X c #dddddd",
"0X c #d4d4d1",
"qX c #d2d0e8",
"wX c #d9d7e5",
"eX c #d9d7ea",
"rX c #dbdae3",
"tX c #d7f7de",
"yX c #e8e7cf",
"uX c #e4e4ca",
"iX c #e1e1d7",
"pX c #e4e4d7",
"aX c #e2e2d8",
"sX c #e2e2dd",
"dX c #e6e5de",
"fX c #e4e2df",
"gX c #eaead6",
"hX c #eeeed6",
"jX c #efefdb",
"kX c #f1f2d4",
"lX c #f7f7da",
"zX c #f6f6de",
"xX c #fdfdd5",
"cX c #ffffde",
"vX c #faf9dc",
"bX c #e4e3e1",
"nX c #e9e9e0",
"mX c #ebffe6",
"MX c #efffe7",
"NX c #e8ffea",
"BX c #e1f4ff",
"VX c #f3f2e3",
"CX c #f7ffeb",
"ZX c #f6ffec",
"AX c #ffffe1",
"SX c #ffffe7",
"DX c #ffffe9",
"FX c #ffffee",
"GX c #fffff3",
"HX c #fffff6",
"JX c #fefffa",
"KX c #fffffe",
"LX c None",
/* pixels */
"LXLXLXLXLX                        LXLXLXLX  o O O o   LXLXLXLXLX",
"LXLXLXLXLXLX                  .   LXLXLXLXLXe 0 0 9 X LXLXLXLXLX",
"LXLXLXLXLX, M.D.D.D.D.D.D.D.D.D.. LXLXLXLXu.BX3.:.:.:.6 LXLXLXLX",
"LXLXLXLXLXc N.D.D.D.D.D.D.D.D.D.  LXLX5 5.@Xn.q.h.4.:.:.&.LXLXLX",
"LXLXLXLXLXb v M.n n m m.m n m.m   LXLX% p y q a j w q i u   LXLX",
"LXLXLXLXLX1 U NXZXCXCXtXmXMXJXv.  LXLXLX} 0.j.'.).l.k.>.4 LXLXLX",
"LXLXLXLXLXM R AXOX,XXX#.t.FXKXF.LXLXLX{ x.bXcXQ.$.yX&X].6.5 LXLX",
"LXLXLXLXLXF ~ cXp.+.oXR.0 d.GXH.LX@ &.x.xXiXVXi.9 9X4X*X3X>.$ LX",
"LXLXLXLXLXF Q cXE.e.vX0X.X(.r.vX. t 8.sXaX5XVXy.8 5XbX-X_.[.*.X ",
"LXLXLXLXLXF ~ kX9XE.s.GXFXHXT.VXT ] c.kX5X5XnXW.@.dX9X5X`.>X,.6 ",
"LXLXLXLXLXP H / KXSX%.(.:XQ.w.zXk -.qXpX5X5XdX;Xd.VX5X9X1X%Xz.` ",
"LXLXLXLXLXP B.A kXFXzX%.Q.f. XAXh :.fXaX5X5XsX|.p.,XnX8X5X&Xc.` ",
"LXLXLXLXLXP E 2 J.JXDXAXDXDXFXAXf =.}.gX5X5X5XsX,X0 Y.nX4X<X6.` ",
"LXLXLXLXLXF C.G Z./.DXKXvXK uXKXb.] g.xX5X5X5X5XnXY.a.2XgXrX:.5 ",
"LXLXLXLXLXS L.x P.K.^ _ U.kX~.G.Y g :.+XkX5X5X5X8XnX2XiXjX9.' LX",
"LXLXLXLXLXz #Xl V.$X=X( ) ^.I.L W d ..7.7XhXaX8X5X8XgXhX{.{ LXLX",
"LXLXLXLXLXB !.S.C I S.C.J ! A.3   LXs  .:.{.rXdXlXwXeX8.:.LXLXLX",
"LXLXLXLX  < V S H G Z D G G N < LXLX: 1.X.O.<.0.c.2.;.| o.6 LXLX",
"LXLXLXLX                          . r 7 # ; - & * = + # > [ o LX"
};
