/* XPM */
static char * demon_32x32_xpm[] = {
"32 32 6 1",
" 	c none",
".	c #CCCC33333333",
"X	c #E6E666666666",
"o	c #CCCC00000000",
"O	c #FFFF99999999",
"+	c #FFFFFFFFFFFF",
"                                ",
"                                ",
"                                ",
"                                ",
"                 .X             ",
"                 oo.O           ",
"                 .OXoX          ",
"      OOOOOOOOOOOo++O.O         ",
"    Ooo...........++++oX        ",
"   XoX++++++++++++++++O..O      ",
"  OoO+++++++++++++++++++OoX     ",
"  oX+++++++++++++++++++++O.oO   ",
" Oo++++++++++++++++++++++++Oo.  ",
" O.++++++++++++++++++++++++++.oO",
" O.+++++++++++++++++++++++++O..O",
" O.++++++++++++++++++++++++XoX  ",
" O.++++++++++++++++++++++O..O   ",
" O.+++++++++++++++++++++.oO     ",
" O.+++++++++++++++++++Oo.       ",
" O.+++Xooooooooooo+++OoO        ",
" O.++o.OOOOOOOOOOo++Xo          ",
" O.+..           .O..O          ",
" O.Oo            ooX            ",
" O.X.            XO             ",
" O.XX                           ",
" OooX                           ",
"                                ",
"                                ",
"                                ",
"                                ",
"                                ",
"                                "};
