/* XPM */
static char *magick[] = {
/* columns rows colors chars-per-pixel */
"32 32 236 2",
"   c Gray0",
".  c #000002",
"X  c #030101",
"o  c #000302",
"O  c #000005",
"+  c #010107",
"@  c #000502",
"#  c #050001",
"$  c #060003",
"%  c #070000",
"&  c #010109",
"*  c #00010b",
"=  c #010308",
"-  c #050c05",
";  c #090101",
":  c #0a0001",
">  c #0a0102",
",  c #0c0b0c",
"<  c #0e0d0b",
"1  c #000d16",
"2  c #0c0c12",
"3  c #00130c",
"4  c #01141b",
"5  c #120001",
"6  c #170101",
"7  c #140001",
"8  c #160502",
"9  c #1a0100",
"0  c #1e0000",
"q  c #1f0306",
"w  c #111c12",
"e  c #101c1d",
"r  c #0d262b",
"t  c #132222",
"y  c #210000",
"u  c #220000",
"i  c #2b0100",
"p  c #2d0101",
"a  c #300000",
"s  c #320403",
"d  c #3a0000",
"f  c #3c0404",
"g  c #282500",
"h  c #3a2100",
"j  c #382e11",
"k  c #222123",
"l  c #272e25",
"z  c #253432",
"x  c #302d23",
"c  c #343e3e",
"v  c #2a3f43",
"b  c #3a453e",
"n  c #275a56",
"m  c #3e4746",
"M  c #386f6f",
"N  c #400000",
"B  c #410706",
"V  c #450000",
"C  c #4a0000",
"Z  c #4c0101",
"A  c #530000",
"S  c #5b0101",
"D  c #5a0c06",
"F  c #5e3303",
"G  c #413c21",
"H  c #4b3738",
"J  c #600000",
"K  c #650000",
"L  c #6d0003",
"P  c #690000",
"I  c #720000",
"U  c #740000",
"Y  c #7b0000",
"T  c #7f0000",
"R  c #7d0503",
"E  c #7f0805",
"W  c #751400",
"Q  c #791e00",
"!  c #594619",
"~  c #474d35",
"^  c #564d2b",
"/  c #7a6233",
"(  c #595046",
")  c #5f5e46",
"_  c #427770",
"`  c #4c7973",
"'  c #7a5d43",
"]  c #616041",
"[  c #6f6147",
"{  c #65786e",
"}  c #830000",
"|  c #870000",
" . c #8a0000",
".. c #890000",
"X. c #8d0000",
"o. c #811a00",
"O. c #920101",
"+. c #970101",
"@. c #940405",
"#. c #9b0000",
"$. c #980000",
"%. c #9d0000",
"&. c #911f00",
"*. c #802300",
"=. c #972200",
"-. c #9e2e04",
";. c #a00000",
":. c #a50000",
">. c #a40501",
",. c #ab0100",
"<. c #ad0100",
"1. c #af0300",
"2. c #ae0000",
"3. c #af0400",
"4. c #a90b00",
"5. c #a90e00",
"6. c #b10000",
"7. c #b30000",
"8. c #b70000",
"9. c #b50000",
"0. c #b60501",
"q. c #bb0100",
"w. c #b90000",
"e. c #bb0701",
"r. c #be0000",
"t. c #bc0000",
"y. c #bf1500",
"u. c #b91300",
"i. c #bb1308",
"p. c #b02313",
"a. c #b62718",
"s. c #804527",
"d. c #845436",
"f. c #82753e",
"g. c #bf4300",
"h. c #af572b",
"j. c #a35d37",
"k. c #9e5b49",
"l. c #846d44",
"z. c #837e56",
"x. c #9a6045",
"c. c #916a5b",
"v. c #98734f",
"b. c #887a69",
"n. c #be6740",
"m. c #c10100",
"M. c #c30000",
"N. c #c50100",
"B. c #c70000",
"V. c #c70700",
"C. c #c30b00",
"Z. c #c20b04",
"A. c #c80000",
"S. c #cb0000",
"D. c #c90500",
"F. c #c80607",
"G. c #cd0000",
"H. c #cf0000",
"J. c #cf0200",
"K. c #ce0500",
"L. c #cb0a00",
"P. c #cc0800",
"I. c #c71000",
"U. c #c11200",
"Y. c #c61900",
"T. c #cc1012",
"R. c #d20001",
"E. c #d60000",
"W. c #d60600",
"Q. c #d20e06",
"!. c #d70801",
"~. c #d40908",
"^. c #db0300",
"/. c #d90501",
"(. c #de0000",
"). c #db0f00",
"_. c #dc0900",
"`. c #de100e",
"'. c #df180d",
"]. c #ce270c",
"[. c #c03d1c",
"{. c #e00100",
"}. c #e50301",
"|. c #e60000",
" X c #e00901",
".X c #e20b00",
"XX c #e60b01",
"oX c #e20d0b",
"OX c #e90000",
"+X c #eb0500",
"@X c #ec0000",
"#X c #ed0400",
"$X c #e80c00",
"%X c #e11503",
"&X c #e61502",
"*X c #ef1100",
"=X c #ee1500",
"-X c #e51311",
";X c #f30000",
":X c #f40b00",
">X c Red",
",X c #ff0200",
"<X c #ff0e00",
"1X c #f91601",
"2X c #fe1900",
"3X c #e72d05",
"4X c #ee2106",
"5X c #e82516",
"6X c #ef3311",
"7X c #ed3c1e",
"8X c #ff2001",
"9X c #f92106",
"0X c #ff2b0e",
"qX c #fb2b04",
"wX c #ff3206",
"eX c #fc3813",
"rX c #c77a35",
"tX c #fe4010",
"yX c #fe461a",
"uX c #e65320",
"iX c #fe5525",
"pX c #e06a17",
"aX c #ff6a32",
"sX c #f4713f",
"dX c #ff7f3c",
"fX c #c67857",
"gX c #f47845",
"hX c #ff7d46",
"jX c #b58b00",
"kX c #b98500",
"lX c #8f8675",
"zX c #c08510",
"xX c #c89e43",
"cX c #c58269",
"vX c #ff824c",
"bX c None",
/* pixels */
"bXbXbXbXbXbXbXbXbXbXbXbX    O         bXbXbXbXbXbXbXbXbXbXbXbXbX",
"bXbXbXbXbXbXbXbXbXbXbXbX  O &       bXbXbXbXbXbXbXbXbXbXbXbXbXbX",
"bXbXbXbXbXbXbXbXbXbXbXbX  O O   O   bXbXbXbXbXbXbXbXbXbXbXbXbXbX",
"bXbXbXbXbXbXbXbXbXbXbXbXO         & bXbXbXbXbXbXbXbXbXbXbXbXbXbX",
"bXbXbXbXbXbXbXbXbXbXbXbX& O O & O O bXbXbXbXbXbXbXbXbXbXbXbXbXbX",
"bXbXbXbXbXbXbXbXbXbXbXO & O O & O & &   bXbXbXbXbXbXbXbXbXbXbXbX",
"bXbXbXbXbXbXbXbXbXbXbX              &   bXbXbXbXbXbXbXbXbXbXbXbX",
"bXbXbXbXbXbXbXbXbXbXO J } | E R Y T L @     bXbXbXbXbXbXbXbXbXbX",
"bXbXbXbXbXbXbXbXbX  @.$X9XiXgXsXeX<X>XD @   bXbXbXbXbXbXbXbXbXbX",
"bXbXbXbXbXbXbXbXbXX.+X4XyXaXhXvXvXtX2X/.    bXbXbXbXbXbXbXbXbXbX",
"bXbXbXbXbXbXbXbXbX..B.e.Z.Q.'.5X7X6XqX8Xy.5.i bXbXbXbXbXbXbXbXbX",
"bXbXbXbXbXbXbXbX  X.A.8.6.6.q.M.r.8.0.V..X:X|.S bXbXbXbXbXbXbXbX",
"bXbXbXbXbXbXbXbX; q.OX|.(.R.R.G.A.2.#.%.:.6.(.r.bXbXbXbXbXbXbXbX",
"bXbXbXbXbXbXbXbX9 G.>X-X`.oX~.OX(.8...f 8 B 6.r.bXbXbXbXbXbXbXbX",
"bXbXbXbXbXbXbXbX6 G.>X` _ { n F.@Xr.} 3 bX@ +.B.bXbXbXbXbXbXbXbX",
"bXbXbXbXbXbXbXbX; G.>XlXb.c.M T.|.M.+.- bX% K.q.bXbXbXbXbXbXbXbX",
"bXbXbXbXbXbXbXbX% E.0X^ [ j.].;XE.r.2.; bX; /.,.bXbXbXbXbXbXbXbX",
"bXbXbXbXbXbXbXbX% R.wX~ 1 e / rX_.r.8.; bX; R.;.bXbXbXbXbXbXbXbX",
"bXbXbXbXbXbXbXbX$ R.2XxXr k 4 ] ).r.q.p bX  0.#.bXbXbXbXbXbXbXbX",
"bXbXbXbXbXbXbXbX% A.2XpXl k m l.W.8.6.q bX  ,.%.bXbXbXbXbXbXbXbX",
"bXbXbXbXbXbXbXbX  6.=XfXz , c v.D.8.8.s bX% |.:.bXbXbXbXbXbXbXbX",
"bXbXbXbXbXbXbXbX  3.3XcXb ,   d.C.r.M.O.Z ..#X2.bXbXbXbXbXbXbXbX",
"bXbXbXbXbXbXbXbX  p.' z.) , v h.G.G./..X.XXX1X4.bXbXbXbXbXbXbXbX",
"bXbXbXbXbXbXbXbX  a.H G ( 2 4 n.{.G.!.%X&X&X*X#.bXbXbXbXbXbXbXbX",
"bXbXbXbXbXbXbXbX% i.s.t x f.  k.K.A.G.D.K.W./.O.bXbXbXbXbXbXbXbX",
"bXbXbXbXbXbXbXbX5 2.F zXj ! w x.U K I I | 8.A.X.bXbXbXbXbXbXbXbX",
"bXbXbXbXbXbXbXbX6 2.h kX  -.uX[.d V A Z N #.G.X.bXbXbXbXbXbXbXbX",
"bXbXbXbXbXbXbXbX6 >.g jX  P ^.P.&.Q o.*.=.L.G...bXbXbXbXbXbXbXbX",
"bXbXbXbXbXbXbXbX; #.W g.p | A.A.I.U.u.u.Y.D.G.X.bXbXbXbXbXbXbXbX",
"bXbXbXbXbXbXbXbX; 8.{.E.M.M.B.B.A.A.B.A.G.G.E.O.bXbXbXbXbXbXbXbX",
"bXbXbXbXbXbXbXbX  ..8.q.q.q.r.M.B.A.B.B.B.A.M.C bXbXbXbXbXbXbXbX",
"bXbXbXbXbXbXbXbX  5 9 0 0 0 y y y y y y y y 0 % bXbXbXbXbXbXbXbX"
};
