/* XPM */
static char *magick[] = {
/* columns rows colors chars-per-pixel */
"16 16 134 2",
"   c Gray0",
".  c #020202",
"X  c #000807",
"o  c #080b07",
"O  c Gray3",
"+  c #090909",
"@  c #090b0a",
"#  c #0b0b0b",
"$  c Gray5",
"%  c #0f0f19",
"&  c #1b1b05",
"*  c #1d1d1d",
"=  c #003d02",
"-  c #262624",
";  c #2e2d2d",
":  c #2e3530",
">  c #333332",
",  c #363635",
"<  c #373a37",
"1  c #383c30",
"2  c #3c3c3d",
"3  c #396c40",
"4  c #550100",
"5  c #4a4a2e",
"6  c #424235",
"7  c #484839",
"8  c #48483b",
"9  c #63641a",
"0  c #656814",
"q  c #63702f",
"w  c #6a7126",
"e  c #464647",
"r  c #464940",
"t  c #48484a",
"y  c #4b4b4b",
"u  c #48484c",
"i  c #565656",
"p  c Gray35",
"a  c #69695d",
"s  c #73724f",
"d  c #686a76",
"f  c Gray45",
"g  c #73737a",
"h  c #7f888b",
"j  c #d23a00",
"k  c #ff1d0a",
"l  c #ff6b36",
"z  c #889b00",
"x  c #b7ba00",
"c  c #869845",
"v  c #959e78",
"b  c #abab7e",
"n  c #ff9a44",
"m  c #cbcd09",
"M  c #d6d928",
"N  c Yellow",
"B  c #e3e35f",
"V  c #ffff5d",
"C  c #e4e46b",
"Z  c #e7e57b",
"A  c #89898a",
"S  c #9e9e82",
"D  c #9a9f8b",
"F  c #aaaa8c",
"G  c #aeae8e",
"H  c #b1b18e",
"J  c #b7b689",
"K  c #b0b291",
"L  c #b5b597",
"P  c #bcbc90",
"I  c #bcbc9f",
"U  c Gray66",
"Y  c Gray73",
"T  c #b6b8c2",
"R  c #bebec3",
"E  c #adc9bb",
"W  c #bac4cb",
"Q  c #c9aabf",
"!  c #c3bec4",
"~  c #c4d299",
"^  c #c5d398",
"/  c #d9dd9a",
"(  c #c5c4a2",
")  c #c3c4b6",
"_  c #c7c7bb",
"`  c #c8c6be",
"'  c #ffc780",
"]  c #ffca82",
"[  c #ffcb9f",
"{  c #ffd09b",
"}  c #ffcfb2",
"|  c #ffdcaa",
" . c #e4e482",
".. c #e4e794",
"X. c #e7e796",
"o. c #e4e79c",
"O. c #e4ee92",
"+. c #e5ec95",
"@. c #e5eb9a",
"#. c #eeefaa",
"$. c #ecebb0",
"%. c #edf0ae",
"&. c #ffffab",
"*. c #faf8b3",
"=. c #fbfabd",
"-. c #ffffbe",
";. c #c2c6c6",
":. c Gray81",
">. c #d7c9d0",
",. c #d0d0cf",
"<. c #d7dee1",
"1. c #dbdee1",
"2. c #f8f0c8",
"3. c #fff9cb",
"4. c #fef9ce",
"5. c #ffffd3",
"6. c #ffffd6",
"7. c #ffffdd",
"8. c #ffffde",
"9. c #eae3e8",
"0. c #eeebe1",
"q. c #efeff3",
"w. c #eef9ff",
"e. c #feedeb",
"r. c #fff4ef",
"t. c #f8f8e4",
"y. c #ffffe1",
"u. c #ffffe5",
"i. c #f4f3f9",
"p. c #fffff1",
"a. c #fffff7",
"s. c #fffffb",
"d. c Gray100",
"f. c None",
/* pixels */
"f.f.f.f.f.f.f.f.f.f.f.f.f.f.f.f.",
"f.f.f.f.f.f.f.f.f.f.f.f.f.f.f.f.",
"f.f.f.f.f.f.    f.  #   f.f.f.f.",
"f.f.f.f.f.f.i :.; ;.<.d %   f.f.",
"f.f.f.f.f.t d.,.1.>.Q / K g #   ",
"f.f.f.f.u d.R ! E 4 j N x q.d.f ",
"f.f.f.7 d.I L 9.= 3 W w a d.d.p ",
"  f.7 p.P G d.0.h e.d.d.T A >   ",
"& 5 u.( J a.t.D w.n k } d.d.Y t ",
"9 M V q @.*.b i.{ ] l l r.d.d.U ",
"o X 0 m z c $.4.[ | 3.d.s.d._ e ",
"f.f.f.  s %.=.X.O.2.' Z d.) , $ ",
"f.f.f.6 8.-.B  .#.o.+.5.` 2 f.f.",
"f.f.f.- H 5.8.&.C X.y.^ < f.f.f.",
"f.f.f.f.  * F 6.8.-.^ : f.f.f.f.",
"f.f.f.f.f.  # 1 v S r # f.f.f.f."
};
