/* XPM */
static char *magick[] = {
/* columns rows colors chars-per-pixel */
"16 16 185 2",
"   c Gray0",
".  c #010101",
"X  c #020100",
"o  c #020202",
"O  c #050000",
"+  c #0a0a0b",
"@  c #0b0b0b",
"#  c #0b0b0c",
"$  c #0e0e0b",
"%  c Gray5",
"&  c Gray6",
"*  c #131313",
"=  c #1a1919",
"-  c #1d1d1d",
";  c #231203",
":  c #231304",
">  c Gray18",
",  c #35353b",
"<  c #38383a",
"1  c #39393d",
"2  c #3a3a40",
"3  c #3e3e42",
"4  c #404000",
"5  c #434301",
"6  c #474700",
"7  c #474703",
"8  c #41430d",
"9  c #4a4a19",
"0  c #535301",
"q  c #525207",
"w  c #50500e",
"e  c #585800",
"r  c #5e5e00",
"t  c #5e5f00",
"y  c #5f5f00",
"u  c #545410",
"i  c #40403c",
"p  c #4d4d3f",
"a  c #65533e",
"s  c #616100",
"d  c #646400",
"f  c #6c6c00",
"g  c #6e6e00",
"h  c #6c6e0c",
"j  c #68681a",
"k  c #6a6a1b",
"l  c #787800",
"z  c #7c7c00",
"x  c #79791a",
"c  c #7b7b1b",
"v  c #4d4d4b",
"b  c #4e4e51",
"n  c #575758",
"m  c #585856",
"M  c #5a5a58",
"N  c #5e5e5b",
"B  c #5a6768",
"V  c #5e6279",
"C  c #606045",
"Z  c #616145",
"A  c #6e6e4c",
"S  c #65655e",
"D  c #66665d",
"F  c #6e6e5d",
"G  c #707052",
"H  c #70705a",
"J  c #7d7d5a",
"K  c #7e7e5d",
"L  c #7f7f5d",
"P  c #656565",
"I  c #717160",
"U  c #7a7a6d",
"Y  c Gray45",
"T  c #767671",
"R  c #777777",
"E  c #727879",
"W  c #767a79",
"Q  c #7f7f74",
"!  c #7b7b7b",
"~  c #7c7c79",
"^  c #7e7e7a",
"/  c #7f7f80",
"(  c #824f1d",
")  c #894e14",
"_  c #8a4f16",
"`  c #8a7b62",
"'  c #8b7e64",
"]  c #808000",
"[  c #828200",
"{  c #838300",
"}  c #858500",
"|  c #868600",
" . c #898900",
".. c #8d8d00",
"X. c #909000",
"o. c #919100",
"O. c #929200",
"+. c #939300",
"@. c #979700",
"#. c #989800",
"$. c #818139",
"%. c #898938",
"&. c #a2a200",
"*. c #a5a500",
"=. c #a6a600",
"-. c #a7a700",
";. c #a2a900",
":. c #abab00",
">. c #aeae00",
",. c #86865f",
"<. c #89895f",
"1. c #8d8d59",
"2. c #92925a",
"3. c #8f8065",
"4. c #848470",
"5. c #969670",
"6. c #919178",
"7. c #999977",
"8. c #9b9b79",
"9. c #ce8843",
"0. c #ffb85f",
"q. c #ffba65",
"w. c #c1c100",
"e. c #c2c200",
"r. c #caca00",
"t. c #d0d000",
"y. c #d5d500",
"u. c #d8d800",
"i. c #dfdf00",
"p. c #e0e000",
"a. c #fec37d",
"s. c #808082",
"d. c #818182",
"f. c #848481",
"g. c #888885",
"h. c #888887",
"j. c #ceb28a",
"k. c #c7c7b7",
"l. c #cbcbba",
"z. c #d4d4a0",
"x. c #d0d0bc",
"c. c #d1d1bf",
"v. c #d2d2bf",
"b. c #ffca86",
"n. c #ffd398",
"m. c #e0e0a2",
"M. c #ebebb1",
"N. c #fdfdbe",
"B. c Gray77",
"V. c #cfcfd7",
"C. c #ddddc9",
"Z. c #ddddca",
"A. c #d3d3d8",
"S. c #d6dadc",
"D. c #c9c9e0",
"F. c #d4d4f2",
"G. c #ffffc0",
"H. c #ffffc9",
"J. c #ffffca",
"K. c #ffffcb",
"L. c #ffffce",
"P. c #fefed0",
"I. c #ffffd0",
"U. c #ffffd2",
"Y. c #ffffd8",
"T. c #ffffd9",
"R. c #ffffdc",
"E. c #ffffde",
"W. c #e7e6e6",
"Q. c #e1e6f6",
"!. c #e0e0ff",
"~. c #ebebff",
"^. c #eeeeff",
"/. c #ffffe6",
"(. c Gray95",
"). c #f0f0ff",
"_. c #f2f2ff",
"`. c #f4f4ff",
"'. c #f5f5ff",
"]. c #f6f6ff",
"[. c GhostWhite",
"{. c #fdfdfe",
"}. c #fffffc",
"|. c Gray100",
" X c None",
/* pixels */
" X X X X  @ N M   - v #    X X X",
" X X X X  , v.k.  n l.1    X X X",
"   X  2 v.}.U.5.6 6.Y.}.v.2     ",
"% 3 C.}.U.,.4 y #.| 0 <.U.}.C.i ",
"@ b R.1.6 s [ [ +.:.=.[ e 2.J.p ",
"    G 4 g  .| z +.=.=.>.+.q H $ ",
"    m 4.Z u g [ @.:...j D K 9   ",
" X Xh.L.7.I Z w l j D F x w.d   ",
" X Xd./.J.M.8.U $.A x :.r.i.s   ",
" X X/ R.G.U.Y.z.%.+.y.t.w.u.y   ",
" X Xd./.J.m.K ^ D.Q y &.r.p.y   ",
" X Xh.N.J T A.[.].).F.^ h ;.8 a ",
"   X< f.V.^.).!.~.].}.Q.V 3.n.9.",
"> P }.}.}.[.!.].}.S.W ` b.q._ : ",
"& * ! (.}.}.}.W.E ' a.0._ O     ",
" X    - R B.Y = B j.( ;      X X"
};
