/* XPM */
static char *magick[] = {
/* columns rows colors chars-per-pixel */
"16 16 201 2",
"   c Gray0",
".  c #010000",
"X  c #020000",
"o  c #030000",
"O  c #020102",
"+  c #000307",
"@  c #040000",
"#  c #070000",
"$  c #050305",
"%  c #060406",
"&  c #070406",
"*  c #070507",
"=  c #000008",
"-  c #030008",
";  c #03030a",
":  c #05070c",
">  c #050807",
",  c #0d0300",
"<  c #0c0707",
"1  c #0d0606",
"2  c #0c0a0c",
"3  c #000011",
"4  c #030115",
"5  c #020217",
"6  c #03021a",
"7  c #02021c",
"8  c #050d12",
"9  c #070c12",
"0  c #030f18",
"q  c #130a05",
"w  c #131113",
"e  c #151215",
"r  c #161416",
"t  c #191719",
"y  c #1a181a",
"u  c #1c1919",
"i  c #1f1d1f",
"p  c #030221",
"a  c #030321",
"s  c #020222",
"d  c #000f2a",
"f  c #020632",
"g  c #020b38",
"h  c #061623",
"j  c #061d2c",
"k  c #051d32",
"l  c #001939",
"z  c #122330",
"x  c #1a2a31",
"c  c #21130b",
"v  c #231f1f",
"b  c #22221e",
"n  c #232123",
"m  c #242124",
"M  c #282728",
"N  c #2e2c2e",
"B  c #292e37",
"V  c #302f30",
"C  c #373638",
"Z  c #3a383a",
"A  c #3b393b",
"S  c #393d3e",
"D  c #3d3c3c",
"F  c #000c44",
"G  c #001446",
"H  c #031746",
"J  c #011448",
"K  c #001e42",
"L  c #051b40",
"P  c #01194a",
"I  c #021a50",
"U  c #002247",
"Y  c #03214d",
"T  c #002053",
"R  c #002759",
"E  c #03275e",
"W  c #003251",
"Q  c #023455",
"!  c #033a59",
"~  c #0b375c",
"^  c #0c3d5b",
"/  c #113049",
"(  c #123551",
")  c #173f5a",
"_  c #042f67",
"`  c #032a73",
"'  c #023562",
"]  c #033762",
"[  c #003771",
"{  c #023b72",
"}  c #313e42",
"|  c #034169",
" . c #004277",
".. c #004079",
"X. c #044078",
"o. c #044e76",
"O. c #014b7d",
"+. c #02497d",
"@. c #0e4d71",
"#. c #05517e",
"$. c #1f5165",
"%. c #3f4140",
"&. c #3a4b50",
"*. c #265c76",
"=. c #403a36",
"-. c #433c3b",
";. c #453c3a",
":. c #403f40",
">. c #454345",
",. c #454b4e",
"<. c #4b494c",
"1. c #525052",
"2. c #545254",
"3. c #545354",
"4. c Gray34",
"5. c Gray36",
"6. c #5f5e5f",
"7. c #4b5b61",
"8. c #605f60",
"9. c #676667",
"0. c Gray41",
"q. c #6b6a6b",
"w. c #6e6d6e",
"e. c #6f6e6f",
"r. c #706f70",
"t. c Gray47",
"y. c #7a797a",
"u. c #7c7a7c",
"i. c #003989",
"p. c #033988",
"a. c #004d85",
"s. c #044596",
"d. c #034d9d",
"f. c #02589b",
"g. c #034ea5",
"h. c #0d648a",
"j. c #0268a8",
"k. c #0165b4",
"l. c #0e72a1",
"z. c #007fbd",
"x. c #1373a0",
"c. c #197fb1",
"v. c #257c9e",
"b. c #0274c5",
"n. c #0072ca",
"m. c #0475dc",
"M. c #007dd3",
"N. c #0079d9",
"B. c #007edb",
"V. c #0377e0",
"C. c #1287b4",
"Z. c #0088da",
"A. c #059ade",
"S. c #0081ec",
"D. c #0483e8",
"F. c #0485ee",
"G. c #0295e8",
"H. c #0293fa",
"J. c #009cfd",
"K. c #049eff",
"L. c #01a0fe",
"P. c #00a4fc",
"I. c #00a9ff",
"U. c #00abff",
"Y. c #09a3ff",
"T. c #0fa8ff",
"R. c #00b5ff",
"E. c #0fb4ff",
"W. c #1eabff",
"Q. c #12b0f4",
"!. c #18baf7",
"~. c #3097d9",
"^. c #2fb5ea",
"/. c #20b5ff",
"(. c #18c9ff",
"). c #1bcdff",
"_. c #28c4ff",
"`. c #4899b9",
"'. c #6b8391",
"]. c #50abc9",
"[. c #7bb1c5",
"{. c #70badc",
"}. c #4ec6ef",
"|. c #59d4f9",
" X c #5ddbff",
".X c #6bdbff",
"XX c #75ebff",
"oX c #7be3ff",
"OX c #837e7d",
"+X c #828082",
"@X c #868586",
"#X c #878687",
"$X c #919091",
"%X c Gray59",
"&X c #9f9f9f",
"*X c #b6b5b6",
"=X c #b7b6b7",
"-X c #b8fcff",
";X c #d6ffff",
":X c #dff7ff",
">X c Gray100",
/* pixels */
"|.}.^.!.A.G.k.J f g I s.m.H.J.P.",
"].`.v.C.| O.' 7 p 6 p H p.V.K.L.",
"7.%.b , @ @       8 >   @ 5 g.D.",
",.S x W a.U       ( z         E ",
"&.} l..X;X{.  P               ; ",
"*.c.(.-X>X:Xd F 5   3 p = ) ~ + ",
"$.x.R.).XX>X[.3 ` = _ p.H oX XK ",
"@.^ !  .n.W./.S.F.B._.E.I.Y.N.d.",
"#.o.f.{ Y R T ..j.I.T.h.z.Q.Z.b.",
"j k M.O.    c B l X.[   / ~.L Q ",
"8 h '   1 1.D OXq     =.;.'.-.0 ",
"& @   1 5.e 8.%X    <.C v =Xu : ",
"& $   #Xt.t >.r   2.$XZ n Z   * ",
"&   i =Xe.4.      &X+X0.w   $ * ",
"*   0.e.#X9.*   N #Xu.t.m   * * ",
"* * V 5.0.M * * y 2.r.:.2 * * * "
};
