/* XPM */
static char * mini_charmap_xpm[] = {
"16 16 8 1",
" 	c None",
".	c #808080",
"+	c #C0C0C0",
"@	c #FF0000",
"#	c #FFFFFF",
"$	c #000000",
"%	c #0000FF",
"&	c #800080",
"                ",
"       ...      ",
"     ..+++..    ",
"   ..++@@@++..  ",
"  .#++.@@@.+++. ",
"  .#+++...+++##.",
" .++##+++++##..$",
" .+%%+##+##.&..$",
".+++%.++#...&&.$",
".+%%.%++#..&&..$",
".++++%.+#...&..$",
" ..+++%+#.....$$",
"   ..+++#...$$  ",
"     ..+#.$$    ",
"       ..$      ",
"                "};
