/* XPM */
static char *magick[] = {
/* columns rows colors chars-per-pixel */
"32 32 252 2",
"   c Gray0",
".  c #060506",
"X  c #040302",
"o  c #090606",
"O  c #0b0708",
"+  c #0a0807",
"@  c #0b0908",
"#  c #0e0b0a",
"$  c #0f0c0b",
"%  c Gray5",
"&  c #110d0c",
"*  c #180f0d",
"=  c #110f10",
"-  c #13100e",
";  c #1c110e",
":  c #131413",
">  c #151313",
",  c #1a1512",
"<  c #1f1917",
"1  c #210d0a",
"2  c #25100d",
"3  c #221916",
"4  c #261916",
"5  c #231d19",
"6  c #271e1b",
"7  c #231d1c",
"8  c #2d1713",
"9  c #2c1d18",
"0  c #331016",
"q  c #321e1b",
"w  c #361e1a",
"e  c #2e231f",
"r  c #32211e",
"t  c #3b221d",
"y  c #2f2320",
"u  c #2e2621",
"i  c #2a2728",
"p  c #2c2b29",
"a  c #322420",
"s  c #322925",
"d  c #342b27",
"f  c #302f2b",
"g  c #332d2c",
"h  c #3d2621",
"j  c #3b2925",
"k  c #3e2f2a",
"l  c #33322f",
"z  c #3e332e",
"x  c #373736",
"c  c #3a3b3a",
"v  c #402721",
"b  c #462e29",
"n  c #492e29",
"m  c #412923",
"M  c #42312d",
"N  c #4c312c",
"B  c #403731",
"V  c #453732",
"C  c #473c37",
"Z  c #463832",
"A  c #4c3733",
"S  c #493531",
"D  c #4f3b33",
"F  c #4f3e37",
"G  c #4d3a34",
"H  c #4f3e38",
"J  c #523d37",
"K  c #573e36",
"L  c #533b34",
"P  c #543e38",
"I  c #5c3e3f",
"U  c #42403d",
"Y  c #53413b",
"T  c #5b443d",
"R  c #5a433c",
"E  c #66453d",
"W  c #434343",
"Q  c #464542",
"!  c #484746",
"~  c #4b4a46",
"^  c #4e4d4a",
"/  c #524d4b",
"(  c #5e4942",
")  c #5b4d46",
"_  c #554b44",
"`  c #52514c",
"'  c #575755",
"]  c #5b5a56",
"[  c #5e5d5c",
"{  c #664f47",
"}  c #634b44",
"|  c #6f4d43",
" . c #6c4e48",
".. c #6a4d50",
"X. c #655147",
"o. c #625149",
"O. c #6f5047",
"+. c #69524a",
"@. c #6f534b",
"#. c #6b574e",
"$. c #675a52",
"%. c #6a5b52",
"&. c #72494c",
"*. c #71574d",
"=. c #75574f",
"-. c #73554b",
";. c #735a4f",
":. c #795a4e",
">. c #715b52",
",. c #745b53",
"<. c #755e55",
"1. c #735d53",
"2. c #7b5d53",
"3. c #64625d",
"4. c #736056",
"5. c #73635a",
"6. c #766359",
"7. c #77685d",
"8. c #7b6156",
"9. c #7b665b",
"0. c #7a695d",
"q. c #656462",
"w. c #6b6a67",
"e. c #6f6e6c",
"r. c #736a65",
"t. c #716e69",
"y. c #72726e",
"u. c #7e7061",
"i. c #797771",
"p. c #7a7b76",
"a. c #7e7e79",
"s. c #7e8078",
"d. c #895256",
"f. c #87685e",
"g. c #8a695d",
"h. c #84655a",
"j. c #836c61",
"k. c #8e6f63",
"l. c #8a6c60",
"z. c #896163",
"x. c #847266",
"c. c #87776f",
"v. c #897266",
"b. c #8a766a",
"n. c #8c776d",
"m. c #8d796d",
"M. c #8b7a6c",
"N. c #817d78",
"B. c #976a69",
"V. c #916264",
"C. c #996f70",
"Z. c #927b6e",
"A. c #99766a",
"S. c #967e73",
"D. c #9b7a7a",
"F. c #a17c6f",
"G. c #a37f72",
"H. c #948374",
"J. c #96857d",
"K. c #9c8476",
"L. c #9a8778",
"P. c #9d8779",
"I. c #9e8b7c",
"U. c #a68d7f",
"Y. c #a98576",
"T. c #ad8c7f",
"R. c #a2857a",
"E. c #858581",
"W. c #8e8d88",
"Q. c #8b8983",
"!. c #948980",
"~. c #96948c",
"^. c #9c928b",
"/. c #9b9591",
"(. c #9d9c9a",
"). c #a58582",
"_. c #a58f82",
"`. c #a79282",
"'. c #a3918b",
"]. c #af9686",
"[. c #aa9887",
"{. c #ae9988",
"}. c #b09489",
"|. c #b79e8e",
" X c #b69b8c",
".X c #bc9486",
"XX c #be9c8c",
"oX c #b49a99",
"OX c #a3a09c",
"+X c #a8a39f",
"@X c #ada198",
"#X c #b3a08f",
"$X c #bda896",
"%X c #a9a6a2",
"&X c #aca8a6",
"*X c #afada9",
"=X c #a5aba3",
"-X c #b2aea9",
";X c #baa9a3",
":X c #b3b2ac",
">X c #b7b6af",
",X c #bab0a7",
"<X c #b9b6ae",
"1X c #bbb8af",
"2X c #bcb8af",
"3X c #b8b7b0",
"4X c #bebbb3",
"5X c #c3a999",
"6X c #dcab96",
"7X c #c2b9ae",
"8X c #c1beb6",
"9X c #c6beb6",
"0X c #c5bfb8",
"qX c #c4c0b7",
"wX c #c6c3ba",
"eX c #c7c5be",
"rX c #c0c6bc",
"tX c #cbc7be",
"yX c #ccc5bb",
"uX c #c6c6c3",
"iX c #c7ccc1",
"pX c #c9c5c0",
"aX c #cccbc2",
"sX c #ccd2c7",
"dX c #d1cec5",
"fX c #d1ccc3",
"gX c #d3d3c8",
"hX c #d3d2ce",
"jX c #d7d6cd",
"kX c #d6d4ca",
"lX c #d9d6cd",
"zX c #d8d4cb",
"xX c #dad8ce",
"cX c #dcd9cf",
"vX c #d7d5d2",
"bX c #e1ded3",
"nX c #e1ded4",
"mX c #e5e1d6",
"MX c #e3e1d6",
"NX c #e6e4db",
"BX c #eae7de",
"VX c #e8e5db",
"CX c #edebdf",
"ZX c #ebe8dd",
"AX c #ecebe5",
"SX c #eeeded",
"DX c #f2efe4",
"FX c #f1f0e5",
"GX c #f5f2e9",
"HX c #faf7ec",
"JX c #fefcf1",
"KX c None",
/* pixels */
"KXKXKXKXKXKXKXKXKXKXKXKXKXKXKXKXKXKXKXKXKXKXKXKXKXKXKXKXKXKXKXKX",
"KXKXKXKXKXKXKXKXKXKXKXKXKXKXKXKXKXKXKXKXKXKXKXKXKXKXKXKXKXKXKXKX",
"KXKXKXKXKXKXKXKXKXKXKXKXKXKXKXKXKXKXKXKXKXKXKXKXKXKXKXKXKXKXKXKX",
"KXKXKXKXKXKXKX7.7.u.KXKXKXKXKXKXKXKXKXKXKXKXKXKXKXKXKXKXKXKXKXKX",
"KXKXKXKXKXKX5.U.$X{. XKXKXKXKXKXKXKXKXKXKXKXKXKXKXKXKXKXKXKXKXKX",
"KXKXKXKXKX%.P.b.H.m.K.< KXKXKXKXKXKXKXKXKXKXKXKXKXKXKXKXKXKXKXKX",
"KXKXKXKX) 5X X#X[.`.6.Y KXKXKXKXKXKXKXKXKXKXKXKXKXKXKXKXKXKXKXKX",
"KXKXKXKXB b.H.I.H._.Y Z KXKXKXKXKXf x Q q.q.a.e.KXKXKXKXKXKXKXKX",
"KXKXKXKXKXo  X%.$.j.o.+.KXKXKXKX7 ] [ c KXKXw.&X! KXKXKXKXKXKXKX",
"KXKXKXKXKX+ ].L.{.m.9.T KXKXKXKXi / ' KX    / *XW KXKXKXKXKXKXKX",
"KXKXKXKXKXB S.m.x.o.4.D KXKX= p ` Q Q ] r.T.6XOXr.KXKXKXKXKXKXKX",
"KXKXKXKXKXx.Z.n.m.6.8.KXKX% C ~ ] y.a.s.E./.XX}.R.k.H KXKXKXKXKX",
"KXKXKXKXKXKX%.P.9.%.T KXKXl Q E.uXvXoX;XaXeX9Xk.2.G..XF KXKXKXKX",
"KXKXKXKXKXKXP.P.$.+.y KX: ~ W.vXAXaXd.).:X8XjX!.T A.f.f.KXKXKXKX",
"KXKXKXKXKXKXU.m.>.,.a KXf p.vXaXeXrXV.).*X8XlXwXh.A.} F.V KXKXKX",
"KXKXKXKXKXKXP.b.( ( KX  ` (.SXhX<XiXB.).:XwXzXxXn.:.2.=.+.KXKXKX",
"KXKXKXKXKXKX0.v.X.J KX  3.%XdXeX1XsXC.D.>XtXlXNXJ.| } M =.# KXKX",
"KXKXKXKXKXKXC Z.;.D KX. t.3XpX4X8X=XI ..-XfXcXAX^.E } T f.# KXKX",
"KXKXKXKXKXKX#.1.Y S KX. i.4XwX8XaX^.0 t./.dXbXFX'.n L L O.O KXKX",
"KXKXKXKXKX4.j.( D M KX+ N.1XwXwXgXz.D.aX+XcXMXDXc.v K L K o KXKX",
"KXKXKXKXKX$.v.+.J o KXKXQ.<XeXaX'.&.jX%XdXmXBXBX,.N L K N X KXKX",
"KXKXKXKXKX>.j.( R KXKXKX^ <XaXaX9X9X8X8XmXmXGXyXw h b b r KXKXKX",
"KXKXKXKXKX5 d k } KXKXKX> ~.dXdXkXgX0XbXmXCXJX5.2 h h m ; KXKXKX",
"KXKXKXKXKX> F -.b KXKXKXKXw.8XxXlXxXnXmXZXJX@X1 8 t t q KXKXKXKX",
"KXKXKXKXz j.} 2.j KXKXKXKXKXq.qXNXVXCXFXHX,Xq ; r 9 4 * KXKXKXKX",
"KXKXKXKXd >.J R KXKXKXKXKX3 8.T.@XtXfX7X_.Y 3 u u 5 , #   KXKXKX",
"KXKXKXKXs #.R S KXKXKXKXKXV 1.Y.l.*.@.*.*.{ } ( e 5 - o   KXKXKX",
"KXKXKXKX6 *. .S KXKXKXKXKXKXKXKXKXKXKX& $ @ @ #     KXKXKXKXKXKX",
"KXKXKXKXKXe j KXKXKXKXKXKXKXKXKXKXKXKXKXKXKXKXKXKXKXKXKXKXKXKXKX",
"KXKXKXKXKXKXKXKXKXKXKXKXKXKXKXKXKXKXKXKXKXKXKXKXKXKXKXKXKXKXKXKX",
"KXKXKXKXKXKXKXKXKXKXKXKXKXKXKXKXKXKXKXKXKXKXKXKXKXKXKXKXKXKXKXKX",
"KXKXKXKXKXKXKXKXKXKXKXKXKXKXKXKXKXKXKXKXKXKXKXKXKXKXKXKXKXKXKXKX"
};
