/* XPM */
static char *magick[] = {
/* columns rows colors chars-per-pixel */
"14 16 93 2",
"   c #0a0300",
".  c #1a140f",
"X  c #1a1817",
"o  c #1e1e20",
"O  c #2a1e16",
"+  c #28211d",
"@  c #222224",
"#  c #2a2b2d",
"$  c #3c342e",
"%  c #373535",
"&  c #463c34",
"*  c #413d3a",
"=  c #4d4035",
"-  c #52453d",
";  c #54473e",
":  c #4a4a4c",
">  c #5e544b",
",  c #535150",
"<  c #5a5858",
"1  c #5f5f61",
"2  c #5d6062",
"3  c #5f6060",
"4  c #7c6c61",
"5  c #83746a",
"6  c #82766e",
"7  c #8a796b",
"8  c #8b847d",
"9  c #9b8a7e",
"0  c #838081",
"q  c #9f8d81",
"w  c #9c958f",
"e  c #a29488",
"r  c #a99a8e",
"t  c #a19690",
"y  c #a5a09a",
"u  c #a0a1a0",
"i  c #a7a4a1",
"p  c #a4a5a6",
"a  c #a5a6a6",
"s  c #afafaf",
"d  c #b7aca1",
"f  c #b6afa7",
"g  c #b6afab",
"h  c #b1b1b1",
"j  c #b9b9b7",
"k  c Gray72",
"l  c #bdbdba",
"z  c #bcbdbc",
"x  c #c2b8b0",
"c  c #c9bdb4",
"v  c #c4c3c0",
"b  c #cdc6c1",
"n  c #cacac7",
"m  c #c8c8c8",
"M  c #c9c9c8",
"N  c #d4cbc5",
"B  c #d6cec8",
"V  c #d0d2d0",
"C  c #d1d2d2",
"Z  c #d5d5d4",
"A  c #dad9d7",
"S  c #e6ddd7",
"D  c #e4dfda",
"F  c #e1e1df",
"G  c #e4e4e1",
"H  c #e7e4e0",
"J  c #e8e7e5",
"K  c #e9e9e8",
"L  c #ebebea",
"P  c #eeeeed",
"I  c #efefee",
"U  c #f0f0ed",
"Y  c #f1f1f0",
"T  c #f4f3f1",
"R  c #f7f2f0",
"E  c #f4f4f1",
"W  c #f4f4f2",
"Q  c #f8f6f4",
"!  c #f9f9f6",
"~  c #f9f9f8",
"^  c #fafaf8",
"/  c #fafaf9",
"(  c #fbfbf9",
")  c #fafcfa",
"_  c #fbfcfb",
"`  c #fdfaf8",
"'  c #fcfcfb",
"]  c #fdfdfb",
"[  c #fefefc",
"{  c #fffefd",
"}  c #fffffd",
"|  c #fffffe",
" . c Gray100",
/* pixels */
"[ [ [ [ [ [ [ [ [ [ [ [ [ [ ",
"[ [ [ [ [ [ [ W [ [ [ [ [ [ ",
"[ [ [ [ [ H [ 8 k [ [ [ [ [ ",
"[ [ [ [ b $ w O 2 [ [ [ [ [ ",
"[ [ [ W i : z < k [ [ [ [ [ ",
"[ [ [ y % [ ` B 6 C [ [ [ [ ",
"[ [ [ g a Q r q   u [ [ [ [ ",
"[ [ W * 0 N 5 + # _ [ [ [ [ ",
"[ [ [ _ J c & 2 [ W g v [ [ ",
"[ [ [ [ / d - s [ x = 1 [ [ ",
"[ [ [ [ [ t 7 e D D . p [ [ ",
"[ [ [ [ [ A > 4 9 ; @ [ [ [ ",
"[ [ [ [ [ [ Z , X o C [ [ [ ",
"[ [ W / ! U [ [ P [ / [ I / ",
"[ [ m G L l W m H L h Y m W ",
"[ [ / / ] / ] / ] [ / ] / [ "
};
