/* XPM */
static char *magick[] = {
/* columns rows colors chars-per-pixel */
"32 32 257 2",
"   c Gray0",
".  c #030402",
"X  c #040403",
"o  c #070605",
"O  c #090701",
"+  c #080500",
"@  c #0a0906",
"#  c #0d0901",
"$  c #0c0b06",
"%  c #0f0d07",
"&  c #0c0e06",
"*  c #0b0c08",
"=  c #0d0c09",
"-  c #0d0d0a",
";  c #0f0e0a",
":  c #0e0e0a",
">  c #0a0a09",
",  c #0f100b",
"<  c #100c03",
"1  c #120d04",
"2  c #100e0b",
"3  c #10100b",
"4  c #12120d",
"5  c #13140d",
"6  c #14130f",
"7  c #15150f",
"8  c #14170f",
"9  c #16180e",
"0  c #161710",
"q  c #141510",
"w  c #171811",
"e  c #181610",
"r  c #191b12",
"t  c #191a13",
"y  c #1b1c12",
"u  c #1b1d15",
"i  c #1d1b15",
"p  c #1c1e14",
"a  c #1f1f15",
"s  c #1d1e16",
"d  c #1e2115",
"f  c #26271b",
"g  c #25261a",
"h  c #24251b",
"j  c #26281c",
"k  c #2a2c1f",
"l  c #2d2d1f",
"z  c #272721",
"x  c #2f2f24",
"c  c #2f3121",
"v  c #313122",
"b  c #323424",
"n  c #363525",
"m  c #34312b",
"M  c #35322c",
"N  c #373828",
"B  c #3c3728",
"V  c #3c3b26",
"C  c #3a3a2a",
"Z  c #3e3d2b",
"A  c #3e3f2d",
"S  c #3c3a29",
"D  c #363630",
"F  c #403e2c",
"G  c #464527",
"H  c #41432e",
"J  c #46442f",
"K  c #44443e",
"L  c #474933",
"P  c #4a4d37",
"I  c #4c4b37",
"U  c #4d4f35",
"Y  c #4c4d36",
"T  c #4d5037",
"R  c #514d37",
"E  c #514e37",
"W  c #524f38",
"Q  c #535039",
"!  c #57533c",
"~  c #51523d",
"^  c #555937",
"/  c #57593c",
"(  c #58533b",
")  c #58533c",
"_  c #59553d",
"`  c #5a563e",
"'  c #5b583e",
"]  c #5b5d3e",
"[  c #615f3f",
"{  c #65653e",
"}  c #52514f",
"|  c #5c5840",
" . c #595d40",
".. c #58584b",
"X. c #585654",
"o. c #5f5e57",
"O. c #5e5c5a",
"+. c #615f41",
"@. c #635d43",
"#. c #615e42",
"$. c #635e44",
"%. c #645f44",
"&. c #625d49",
"*. c #635e50",
"=. c #636643",
"-. c #636646",
";. c #656145",
":. c #676147",
">. c #676247",
",. c #656645",
"<. c #65644b",
"1. c #676a44",
"2. c #696447",
"3. c #6a6549",
"4. c #6b6d4d",
"5. c #696c4c",
"6. c #6d694b",
"7. c #6d6d4b",
"8. c #6f6d4d",
"9. c #6d684d",
"0. c #6f6a53",
"q. c #6f6f50",
"w. c #6c714e",
"e. c #736f4b",
"r. c #716e4b",
"t. c #726d4e",
"y. c #736e4e",
"u. c #766f4e",
"i. c #70694c",
"p. c #766f51",
"a. c #72724e",
"s. c #76744a",
"d. c #76744f",
"f. c #70744d",
"g. c #727351",
"h. c #727552",
"j. c #757151",
"k. c #777257",
"l. c #77765c",
"z. c #797752",
"x. c #7d7757",
"c. c #7c7454",
"v. c #797353",
"b. c #7b7956",
"n. c #7d7b55",
"m. c #7e7b59",
"M. c #7f7c58",
"N. c #7c7f5c",
"B. c #6b6863",
"V. c #6f6f64",
"C. c #6b6968",
"Z. c #716f70",
"A. c #767463",
"S. c #73716d",
"D. c #73706f",
"F. c #74726e",
"G. c #7a7566",
"H. c #7f7d64",
"J. c #787777",
"K. c #7b7a79",
"L. c #7f7d7a",
"P. c #807e57",
"I. c #807e5b",
"U. c #857c58",
"Y. c #897f5d",
"T. c #81815b",
"R. c #828059",
"E. c #87845e",
"W. c #89845b",
"Q. c #8a855d",
"!. c #8f885e",
"~. c #828360",
"^. c #878460",
"/. c #8b8860",
"(. c #8a8864",
"). c #8e8960",
"_. c #8e8e66",
"`. c #8c8d62",
"'. c #908b62",
"]. c #918d65",
"[. c #968e65",
"{. c #918c64",
"}. c #939063",
"|. c #939066",
" X c #93906a",
".X c #969068",
"XX c #96936d",
"oX c #959668",
"OX c #9a9369",
"+X c #9d956b",
"@X c #9f956f",
"#X c #9c966c",
"$X c #9f996d",
"%X c #9c986c",
"&X c #9f9871",
"*X c #a09b6e",
"=X c #a19d6f",
"-X c #a4996d",
";X c #a19c73",
":X c #a59d74",
">X c #a89f73",
",X c #a7a179",
"<X c #aba375",
"1X c #aba576",
"2X c #ada477",
"3X c #ada679",
"4X c #b1a476",
"5X c #b3aa79",
"6X c #b3a97d",
"7X c #b6ab7e",
"8X c #b5ad7c",
"9X c #b7ac7d",
"0X c #b4ac7f",
"qX c #b3ad79",
"wX c #b9af7f",
"eX c #bbae7d",
"rX c #bab07e",
"tX c #bcb07f",
"yX c #878581",
"uX c #898681",
"iX c #8b8a81",
"pX c #8a8886",
"aX c #8c8c89",
"sX c #949290",
"dX c #999698",
"fX c #9b9a9b",
"gX c #9e9b99",
"hX c #b4aa83",
"jX c #b6ac81",
"kX c #bbb081",
"lX c #bbb585",
"zX c #bbb486",
"xX c #bcb282",
"cX c #bfb385",
"vX c #acaaa9",
"bX c #b5b3b5",
"nX c #b7b5b3",
"mX c #c3b581",
"MX c #c1b483",
"NX c #c0b784",
"BX c #c0b281",
"VX c #c1b788",
"CX c #c7b982",
"ZX c #c6bc83",
"AX c #c5ba8e",
"SX c #c4b988",
"DX c #cabc87",
"FX c #cbbf8a",
"GX c #ccbf8b",
"HX c #ccbd8d",
"JX c #c7bb90",
"KX c #d2be8f",
"LX c #cbc189",
"PX c #d2c28f",
"IX c #c9c8c6",
"UX c #cac9c8",
"YX c None",
/* pixels */
"YXYXYXYXYXYXYXYXYXYXYXYXYXYXYXYXYXYXYXYXYXYXYXYXYXYXYXYXYXYXYXYX",
"YXYXYXYXYXYXYXYXYXYXYXYXYXYXYXYXYXYXYXYXYXYXYXYXYXYXYXYXYXYXYXYX",
"YXYXYXYXYXYXYXYXYXYXYXYXYXYXYXYXYXYXYXYXYXYXYXYXYXYXYXYXYXYXYXYX",
"YXYXYXYXYXYXYXYXYXYXYXYXYXYXYXYXYXYXYXYXYXYXYXYXYXYXYXYXYXYXYXYX",
"YXYXYXYXYXYXYXYXYXYXYXYXYXYXYXYXYXYXYXYXYXYXYXYXYXYXYXYXYXYXYXYX",
"YXYXYXYXYXYXYXYXYXYXYXYXYXYXYXYXYXYXYXYXYXYXYXYXYXYXYXYXYXYXYXYX",
"YXYXYXYXYXYXYXYXYXYXYXYXYXYXYXYXYXYX7 k v YXYXYXYXYXYXYXYXYXYXYX",
"YXYXYXYXYXYXYXYXYXYXYXYXYXYXYXYXYXYXg.`._.v.C YXYXYXYXYXYXYXYXYX",
"YXYXYXYXYXYXYXYXYXYXYXYXYXYXYXYX4 g.XX9X#X|.R.w.P b YXYXYXYXYXYX",
"YXYXYXYXYXYXYXYXYXYXYXYXYXYXYXU /.>X#X.X*X<X2X3Xb.~.m.7.U YXYXYX",
"YXYXYXYXYXYXYXYXYXYXYXYXYXz V.l.!.CXKXGX9X].%XwXE.:XlXg.f YX  YX",
"YXYXYXYXYXYXYXYXYXYXYXf iXIXUXvXuXH.:XtX=X/.#X9X/.,X^.c o YX    ",
"YXYXYXYXYXYXYXYXYXN >.].A.pXbXnXvXfXJ.G.<.W.ZXLXxX(.v q =       ",
"YXYXYXYXYXYX@ V ,.oX'.;XOXu.*.K.dXgXsXpXZ.o.0.<X%XH 5 p *       ",
"YXYXYXYXI E.n.I.,.'.lXwX5X5X-XG ..S.aXyXL.F.C.} x 7 t f ,       ",
"YXYXYXi qX-.N._.+.R.AXkX9XSX7Xs.f.~ D O.F.S.B.M O w j u o       ",
"YXYXYX@ [.Q.a. .5.;XGXBXwX4XMX1X{ [ k.&.K X.m O O f t           ",
"YXYXYX= {.v.U.r.^ R.6XrXMXxXMXDXVXAXhX:Xz.l O # & ,             ",
"YXYXYX3 /.u.t.p.+.1.=.d.}.qXGXFXPXJXR.g.L 9 # 1 $               ",
"YXYXYX2 {.x.x.j.;.9.8.a.q.r.jX9XcX&X5.P 7 w < $                 ",
"YXYXYXe #Xi.j.t.6.+.2.$./ ] j.Y.[. XA 7 p p #                 YX",
"YXYXYXYXYX` 3.t.6.3.;.+.R ;.j.M.P.T q p p =                 YXYX",
"YXYXYXYXYXYX= B %.2.3.;.' R ! ( Z t y p =                 YXYXYX",
"YXYXYXYX        X v ) ` $.Q Q S 5 p d =                   YXYXYX",
"YXYXYXYX            = Z ` | | W h p =                   YXYXYXYX",
"YXYXYXYX                q F J H y =                     YXYXYXYX",
"YXYXYXYXYX                  i n =                     YXYXYXYXYX",
"YXYXYXYXYX                    X                     YXYXYXYXYXYX",
"YXYXYXYXYXYXYX                                      YXYXYXYXYXYX",
"YXYXYXYXYXYXYXYXYX                                YXYXYXYXYXYXYX",
"YXYXYXYXYXYXYXYXYXYXYXYX                          YXYXYXYXYXYXYX",
"YXYXYXYXYXYXYXYXYXYXYXYX                          YXYXYXYXYXYXYX"
};
