/* XPM */
static char *magick[] = {
/* columns rows colors chars-per-pixel */
"32 32 253 2",
"   c Gray0",
".  c #030404",
"X  c #070905",
"o  c #050a09",
"O  c #0b0c0b",
"+  c #0f1011",
"@  c #120f0a",
"#  c #180803",
"$  c #1b150d",
"%  c #161206",
"&  c #131211",
"*  c #191613",
"=  c #1c1c1b",
"-  c #1e201c",
";  c #220602",
":  c #2c0e09",
">  c #280f10",
",  c #24190d",
"<  c #271c17",
"1  c #340803",
"2  c #34150b",
"3  c #3e1609",
"4  c #3f1d10",
"5  c #331a15",
"6  c #27201a",
"7  c #282418",
"8  c #322f1e",
"9  c #32271c",
"0  c #222322",
"q  c #2c2922",
"w  c #2a3030",
"e  c #30362f",
"r  c #373328",
"t  c #393935",
"y  c #4f1600",
"u  c #4b1a0b",
"i  c #441e14",
"p  c #4c1f18",
"a  c #501707",
"s  c #541d04",
"d  c #531c09",
"f  c #5b1c05",
"g  c #5a1e0a",
"h  c #531008",
"j  c #4e3508",
"k  c #5d240b",
"l  c #582507",
"z  c #562a17",
"x  c #472617",
"c  c #482b27",
"v  c #483021",
"b  c #4a3f36",
"n  c #5b3e2e",
"m  c #671906",
"M  c #612604",
"N  c #63260c",
"B  c #662a0d",
"V  c #642a0b",
"C  c #6e2f04",
"Z  c #6b2c0d",
"A  c #622513",
"S  c #672b12",
"D  c #682710",
"F  c #6c2c12",
"G  c #62330d",
"H  c #6a3218",
"J  c #7a2e07",
"K  c #73290b",
"L  c #722d10",
"P  c #74320e",
"I  c #7d3304",
"U  c #7c330a",
"Y  c #733413",
"T  c #753418",
"R  c #7c3a13",
"E  c #7c3e1e",
"W  c #783716",
"Q  c #673c2e",
"!  c #653424",
"~  c #5d492a",
"^  c #7f451d",
"/  c #674a33",
"(  c #625a3f",
")  c #764527",
"_  c #7d4429",
"`  c #7f582f",
"'  c #7e553a",
"]  c #5d5148",
"[  c #675440",
"{  c #645c52",
"}  c #715f51",
"|  c #6e6243",
" . c #69635b",
".. c #766957",
"X. c #726354",
"o. c #786449",
"O. c #8d2707",
"+. c #812705",
"@. c #8c3f0a",
"#. c #853608",
"$. c #853c13",
"%. c #833c1a",
"&. c #863a14",
"*. c #903f09",
"=. c #8f3c24",
"-. c #89420b",
";. c #834213",
":. c #8b441c",
">. c #8d481b",
",. c #88451b",
"<. c #934c16",
"1. c #944c1d",
"2. c #914519",
"3. c #9c531a",
"4. c #9a541b",
"5. c #8d4720",
"6. c #8f4f2a",
"7. c #8c4c23",
"8. c #8b4c32",
"9. c #88522b",
"0. c #895332",
"q. c #914e22",
"w. c #955224",
"e. c #9b5b2c",
"r. c #955628",
"t. c #955836",
"y. c #95711d",
"u. c #9f6334",
"i. c #a54d15",
"p. c #a2521c",
"a. c #b04f17",
"s. c #b6590d",
"d. c #b15a16",
"f. c #a25e2c",
"g. c #a75b28",
"h. c #a45f31",
"j. c #b76e18",
"k. c #b66212",
"l. c #a66a2c",
"z. c #a86128",
"x. c #a6663a",
"c. c #a96433",
"v. c #ac6d33",
"b. c #ac6a3c",
"n. c #a66536",
"m. c #b06f35",
"M. c #b36e3d",
"N. c #b16731",
"B. c #b77d3e",
"V. c #ba753b",
"C. c #b6763c",
"Z. c #845f49",
"A. c #9c5c47",
"S. c #896342",
"D. c #897450",
"F. c #916c45",
"G. c #9c755e",
"H. c #876d68",
"J. c #847966",
"K. c #af6e42",
"L. c #a26846",
"P. c #ad734c",
"I. c #ac7453",
"U. c #ae7a55",
"Y. c #b16840",
"T. c #ba7747",
"R. c #bb7a46",
"E. c #b97c4a",
"W. c #b37447",
"Q. c #b77d58",
"!. c #c16818",
"~. c #c37324",
"^. c #8f8664",
"/. c #978777",
"(. c #ae815d",
"). c #b98559",
"_. c #af8867",
"`. c #ac8160",
"'. c #a8977f",
"]. c #b48767",
"[. c #b98466",
"{. c #b79f6b",
"}. c #bd926d",
"|. c #cb8035",
" X c #d0843f",
".X c #cc8a4d",
"XX c #c4814a",
"oX c #c2835a",
"OX c #c08556",
"+X c #d0894b",
"@X c #c68860",
"#X c #cc8c6f",
"$X c #c48967",
"%X c #ca8e73",
"&X c #c3996c",
"*X c #cc9b7a",
"=X c #d59766",
"-X c #d4916a",
";X c #d19a74",
":X c #d7a96c",
">X c #d2a37f",
",X c #ddbf61",
"<X c #e19c68",
"1X c #e1a04f",
"2X c #f8be5f",
"3X c #e3b179",
"4X c #919282",
"5X c #b5ab9a",
"6X c #d49f84",
"7X c #cba786",
"8X c #cfb790",
"9X c #d8a981",
"0X c #dcb388",
"qX c #c4afad",
"wX c #c9b9ab",
"eX c #e4a982",
"rX c #e7bc8f",
"tX c #e3b286",
"yX c #e6bf9e",
"uX c #ecbfab",
"iX c #cdc0a6",
"pX c #cec7ba",
"aX c #c1c2b9",
"sX c #d9c8b0",
"dX c #d5d1bb",
"fX c #e8c580",
"gX c #e4c69f",
"hX c #eac098",
"jX c #f0c685",
"kX c #f1cb99",
"lX c #e5cfa4",
"zX c #eaccb5",
"xX c #e4d8bf",
"cX c #f9d3a4",
"vX c #f0d2b7",
"bX c #ffdeb7",
"nX c #fad4b3",
"mX c #ffe4b4",
"MX c #fee6bd",
"NX c #c6c4c4",
"BX c #edd6c5",
"VX c #f5dcc3",
"CX c #eeebdb",
"ZX c #f6e2cb",
"AX c #f6ebca",
"SX c #f3e6d8",
"DX c #fff1c7",
"FX c #fffdee",
"GX c #f9f8e6",
"HX c #f8f8f0",
"JX c #fffff9",
"KX c Gray100",
"LX c None",
/* pixels */
"LXLXLXLXLXLXLXLXLXLXLXLXLXLXLXLXLXLXLXLXLXLXLXLXLXLXLXLX    r * ",
"LXLXLXLXLXLXLXLXLXLXLXLXLXLXLXLXLXLXLXLXLXLXLXLXLXLXLXLXLX. X.< ",
"LXLXLXLXLXLXLXLXLXLXLXLXLXLXLXLXLXLXLXLXLXLXLXLXLXLXLX  w BXeX$ ",
"LXLXLXLXLXLXLXLXLXLXLXLXLX            LXLXLXLXLX    & 5XZX-Xz . ",
"LXLXLXLXLXLXLXLXLXLXLXLX   .J.J...} ]   LXLX  X ( 8XbXnXx.#.$   ",
"LXLXLXLXLXLXLXLXLXLXLXLX  BXDXtX).-X6X/.O t pXsXMX0X9.W f # LXLX",
"  LX    LXLXLXLXLXLXLX  aXJXuXA.L.%X*X7XhX0X}.>XI.l l 2 @ LXLXLX",
". = wXJ.O = 0 = * & & NXKXKXzX[.].*X;X@XK.f.M Z l Z.b   LXLXLXLX",
"  O wX9XT.).9XeX<XrXFXJXHXHXzX#XQ.oXb.,.6.t.y H G. .  LXLXLXLXLX",
"  LX. '.Y.@.&.U +.t.MXlXSXKXBX#Xx.x.%.k z 9.R ' O   LXLXLXLXLXLX",
"LXLXLX  /.I.%.K m z 7XgXSXKXVX$Xr.W P Y 0.W.z.S.  LXLXLXLXLXLXLX",
"LXLXLXLXo e H.H.qX/. .AXCXKXvXQ.^ Y P ;.1.T.m.U.{   LXLXLXLXLXLX",
"LXLXLXLXLXLX          dXKXGX9XW.^ ,.>.3.N.$XP.6.7X+   LXLXLXLXLX",
"LXLXLXLXLXLXLXLXLXLXLXt KXVXOXx.:.:.e.z.n.[.I.$.oX`.9   LXLXLXLX",
"LXLXLXLXLXLXLXLXLXLXLX= KXcXM.f.$.4.v.l.u.).L.C c.M.F.  LXLXLXLX",
"LXLXLXLXLXLXLXLXLXLXLX  4XkXg.<.<.e.l.v.b.E.U.T x.e.V.(.. LXLXLX",
"LXLXLXLXLXLXLXLXLXLXLX  iX3XM.b.c.e.l.R.W.M.U.H 8.t.1.<X[   LXLX",
"LXLXLXLXLXLXLXLXLXLXLX0 mXw.) I.E.1.e.R.c.c.u.l E ,.>.n.&X7 LXLX",
"LXLXLXLXLXLXLXLXLXLXLX0 gXY 1 0.B.>.>.e.<.z.w.l S E $.5.=XcXq   ",
"LXLXLXLXLXLXLXLXLXLXLX0 nXF _ P.r.U <.p.3.3.1.M k W R 5.e.T.XXF.",
"LXLXLXLXLXLXLXLXLXLXLX- rX&.7.4.>.J <.z.-.-.w.Z f S P E _ E 2.c.",
"LXLXLXLXLXLXLXLXLXLXLXq mX=.K -.q.I 3..X#.-.w.Y k B P H Q ! F K ",
"LXLXLXLXLXLXLXLXLXLXLXo {.;.m Y l :.V.fX:XI -.R k V R H c z N F ",
"LXLXLXLXLXLXLXLXLXLXLXLXX   / T 1 :..X$ ^.~.#.R V f E v < z S T ",
"LXLXLXLXLXLXLXLXLXLXLXLXLX  D.g.h $.+X  e jX*.K B d z : 5 S F F ",
"LXLXLXLXLXLXLXLXLXLXLXLXLXLXo p.m #. X@ LX8 z.U B 3 : ; x B Z F ",
"LXLXLXLXLXLXLXLXLXLXLXLXLXLX  d.O.1.|.% LX  / r.z # ; 2 z N Z B ",
"LXLXLXLXLXLXLXLXLXLXLXLXLXLX  ~.a.z.!.% LX  ~ f.c # 1 u u k Z D ",
"LXLXLXLXLXLXLXLXLXLXLXLXLXLXr 1Xi.p.s.% LXLX  ` i > p u a k N D ",
"LXLXLXLXLXLXLXLXLXLXLXLXLX  | 2Xj.k.G . LXLX  6 / n i a d A A B ",
"LXLXLXLXLXLXLXLXLXLXLXLXLXLX  ,Xy.j , LXLXLXLX  o._.2 d a g g B ",
"LXLXLXLXLXLXLXLXLXLXLXLXLXLX  7 %     LXLXLXLX  $ v 4 l d g N B "
};
