/* XPM */
static char *magick[] = {
/* columns rows colors chars-per-pixel */
"32 32 222 2",
"   c #010102",
".  c #010203",
"X  c Gray1",
"o  c Gray0",
"O  c #020507",
"+  c #000509",
"@  c #05090d",
"#  c #050a0e",
"$  c #060a0e",
"%  c Gray3",
"&  c #060f18",
"*  c #0d1216",
"=  c #0a131b",
"-  c #0b141c",
";  c #101010",
":  c #131b23",
">  c #152635",
",  c #172b3b",
"<  c #182c3e",
"1  c #202020",
"2  c #27557a",
"3  c #2d5474",
"4  c #2e5475",
"5  c #2b577b",
"6  c #2c577a",
"7  c #2f5779",
"8  c #2d587b",
"9  c #30597b",
"0  c #30597c",
"q  c #305a7c",
"w  c #315c7b",
"e  c #315c7f",
"r  c #325c7f",
"t  c #335f7f",
"y  c #365d7d",
"u  c Gray28",
"i  c Gray29",
"p  c Gray30",
"a  c #4e4e4e",
"s  c #524f4d",
"d  c #52504d",
"f  c #505050",
"g  c #535353",
"h  c #505254",
"j  c #555555",
"k  c Gray34",
"l  c #575b5f",
"z  c #6d6a67",
"x  c Gray41",
"c  c Gray42",
"v  c #6f6c6a",
"b  c #6d6d6d",
"n  c #6f6e6d",
"m  c Gray43",
"M  c #726f6d",
"N  c #727170",
"B  c #717171",
"V  c #747271",
"C  c #757472",
"Z  c #767676",
"A  c Gray47",
"S  c Gray",
"D  c #2f5e86",
"F  c #305d83",
"G  c #335e83",
"H  c #325c80",
"J  c #335f84",
"K  c #346186",
"L  c #326189",
"P  c #356289",
"I  c #37668e",
"U  c #386082",
"Y  c #38678e",
"T  c #657b8d",
"R  c #677c8d",
"E  c #687d8f",
"W  c #4384bb",
"Q  c #4585ba",
"!  c #4586bd",
"~  c #4788bb",
"^  c #4788bf",
"/  c #488bbf",
"(  c #4a8abf",
")  c #4c8dc4",
"_  c #4e90c4",
"`  c #58a4e3",
"'  c #59a5e4",
"]  c #59a6e6",
"[  c #5ba8e9",
"{  c #5ba9ea",
"}  c #5daeea",
"|  c #5dadef",
" . c #59a9ed",
".. c #58abf0",
"X. c #5baef4",
"o. c #5dadf0",
"O. c #5eaff1",
"+. c #5faff3",
"@. c #5eb4fb",
"#. c #7fa9cd",
"$. c #7fabd0",
"%. c #61aceb",
"&. c #61aded",
"*. c #61aeed",
"=. c #69b1ec",
"-. c #62b0f1",
";. c #63b1f2",
":. c #66b2f1",
">. c #67b3f2",
",. c #64b3f4",
"<. c #66b7f2",
"1. c #66b4f5",
"2. c #61b4f9",
"3. c #65b5f8",
"4. c #66b6f9",
"5. c #67bbf8",
"6. c #64b9ff",
"7. c #69b7f8",
"8. c #6bbbfd",
"9. c #65c0ff",
"0. c #69c4ff",
"q. c #6ac5ff",
"w. c #838383",
"e. c #808080",
"r. c Gray52",
"t. c #898989",
"y. c Gray54",
"u. c #8e8e8e",
"i. c Gray55",
"p. c #8f9193",
"a. c #8e9397",
"s. c #928f8d",
"d. c Gray57",
"f. c #929292",
"g. c #979491",
"h. c Gray58",
"j. c #969697",
"k. c #91969a",
"l. c #92969a",
"z. c #97999a",
"x. c #95999d",
"c. c #959a9e",
"v. c #969a9e",
"b. c #9a9794",
"n. c #989898",
"m. c #9b9b9b",
"M. c #9d9d9d",
"N. c #9f9f9f",
"B. c #9ba0a4",
"V. c #a19e9b",
"C. c #a0a0a0",
"Z. c Gray64",
"A. c #a9a9a9",
"S. c #acaaa9",
"D. c Gray68",
"F. c #aeaeae",
"G. c #b2b2b2",
"H. c Gray71",
"J. c #b7b7b7",
"K. c #bbb8b5",
"L. c #bcb9b7",
"P. c #b9b9b9",
"I. c Gray73",
"U. c #bcbcbc",
"Y. c #bebebe",
"T. c #80a6c6",
"R. c #80a9ca",
"E. c #80abcf",
"W. c #81add1",
"Q. c #83aed1",
"!. c #83afd3",
"~. c #81aed4",
"^. c #84b2d3",
"/. c #85b2d7",
"(. c #86b3d9",
"). c #8fd3ff",
"_. c #9bc7eb",
"`. c #acc3cf",
"'. c #b0dfff",
"]. c #b2ddff",
"[. c #b0e0ff",
"{. c #b7e2f9",
"}. c #b5e0ff",
"|. c #b4e2ff",
" X c #b7e3ff",
".X c #b7e7ff",
"XX c #b9e5ff",
"oX c #b9e6ff",
"OX c #c0bdbb",
"+X c #c1bebc",
"@X c #c6c3c0",
"#X c #c1c1c1",
"$X c #c4c8cc",
"%X c #cbcbcb",
"&X c #c8cacc",
"*X c #cecbc9",
"=X c Gray81",
"-X c #d0cdcb",
";X c #d2d2d2",
":X c #d5d5d5",
">X c #d7d7d7",
",X c #d8d5d3",
"<X c Gray85",
"1X c Gray86",
"2X c #dddddd",
"3X c #e1e0df",
"4X c #eae8e7",
"5X c #ede8e4",
"6X c #e9e9e9",
"7X c #ebeef2",
"8X c #ebf0f4",
"9X c #eff4f7",
"0X c #eff4f8",
"qX c #eef7ff",
"wX c #f1f1f1",
"eX c #f1f6fa",
"rX c #f1f5f9",
"tX c #f5fafe",
"yX c #f5f9fd",
"uX c #f9f9f8",
"iX c #f8fafc",
"pX c None",
/* pixels */
", # , 3 w 9 9 9 9 9 9 9 9 9 9 9 9 9 9 9 9 9 9 9 w 3 < O pXpXpXpX",
"# . # = - - - - - - - - - - - - - - - - - - - - - = # . pXpXpXpX",
", # , 3 e G e q e G e q e G G q 9 q G G e q e G e 3 < O pXpXpXpX",
"3 = 3 ` } ' { | { ' { | { ' { o.o.o.{ ' { | { ' } ` 8 # pXpXpXpX",
"e - J o._ I ) 2.) I ) 2.) I ( 6.q.6.( I ) 2.) I _ o.P # pXpXpXpX",
"9 - G ' Y > I ' I > I ' I > K o.q.o.K > I ' I > Y ' K # pXpXpXpX",
"9 - G { ~ D W ..W D W ..! L Q @.9.@.Q L ^ X.^ L (  .G O pXpXpXpX",
"9 - 9 o.5.>.7.8.7.>.7.8.1.*.-.4.4.4.-.*.-.4.-.*.<.%.G * % % % % ",
"9 - 8 -.).'. X X XXX X'._./.W.W.E.#.W.(.W.#.$.~.^.R.E f a f a a ",
"9 - 5 >.[.qXyXeX0X9XeX8X$XB.a.a.l.v.l.a.l.v.v.v.l.a.p.f.u.y.u.f.",
"9 - 5 >.XXiX5X-X+XL.@X*XK.b.z s M s.M s v g.V.g.v d V j.Z j B m.",
"9 - 5 >.XXeX,XA.d.w.u.m.C.f.d 1 j y.j 1 f f.C.f.f 1 j y.j 1 f f.",
"9 - 5 >. XyX4X=X#XJ.M.w.u.f.b a b u.b a c f.M.f.c a b u.b a v j.",
"9 - 5 >. XyXuXwXwX6XG.e.w.j.j.j.m.M.m.j.m.m.M.m.n.j.m.M.m.j.j.m.",
"6 & 2 ,..XyX3XY.P.P.C.y.y.m.D.Y.Y.U.Y.Y.P.P.P.K.U.Y.P.P.Y.Y.A.m.",
"y : q =.{.7XOXw.A S y.j.j.M.J.=X>X;X;X>X>X>X>X:X>X>X>X>X>X;XJ.M.",
"R l T T.`.&XS.w.S e.f.M.M.m.D.Y.Y.Y.%X<X2X<X1X1X1X1X<X<X2X>XP.M.",
"p.y.p.v.m.j.j.j.m.j.f.f.j.m.j.j.j.C.P.>X1X<X<X<X<X<X<X<X2X>XP.M.",
"B j C s.b a b j.C.j.b f N u.b a c j.P.>X<X<X<X<X<X<X<X<X<X>XP.M.",
"f 1 j y.j 1 f f.C.f.f 1 j y.j 1 a j.Y.>X1X<X<X<X<X<X<X<X<X>XP.M.",
"b a b u.b a c f.M.f.c a b u.b a c j.U.>X<X<X<X<X<X<X<X<X<X>XP.M.",
"m.j.m.M.m.j.n.m.M.M.m.j.m.M.m.j.g.M.K.>X<X<X<X<X<X<X<X<X<X>XP.M.",
"P.Y.L.P.P.Y.P.J.P.P.P.Y.P.P.Y.Y.A.M.P.>X<X<X<X<X<X<X<X<X<X>XP.M.",
">X>X>X>X>X>X>X>X>X>X>X>X>X>X>X;XJ.B.J.>X<X<X<X<X<X<X<X<X<X>XP.M.",
"<X<X<X<X2X<X<X2X<X<X2X<X<X2X2X>XK.C.J.>X2X<X<X<X<X<X<X<X2X>XP.M.",
"<X<X<X<X<X<X<X<X<X<X<X<X<X<X<X>XJ.B.J.;X>X>X>X>X>X>X>X>X>X;XJ.M.",
"<X<X<X<X<X<X<X<X<X<X<X<X<X<X<X>XP.M.A.Y.Y.Y.Y.Y.Y.Y.Y.Y.Y.Y.D.C.",
"<X<X<X<X<X<X<X<X<X<X<X<X<X<X<X>XP.M.h.g.j.j.g.f.j.g.h.h.j.j.f.f.",
"<X<X<X<X<X<X<X<X<X<X<X<X<X<X<X>XY.n.b a i i i i i i i i i i i a ",
"<X<X<X<X<X<X<X<X<X<X<X<X<X<X<X>XY.j.a ; % % % % % % % % % % % % ",
"<X<X<X<X<X<X<X<X<X<X<X<X<X<X<X>XY.j.u . pXpXpXpXpXpXpXpXpXpXpXpX",
"<X<X<X<X<X<X<X<X<X<X<X<X<X<X<X>XY.j.i % pXpXpXpXpXpXpXpXpXpXpXpX"
};
