/* XPM */
static char *kaddressbook[] = {
/* columns rows colors chars-per-pixel */
"16 16 6 1",
"  c black",
". c gray19",
"X c #585858",
"o c #808080",
"O c #a0a0a0",
"+ c None",
/* pixels */
"++++++++++    ++",
"+++++++++ ooXX +",
"++++++++ O..... ",
"++++++++ o..XX. ",
"++++++++ o..Xo. ",
"+++++++++ .XXo. ",
"+++++++++ oXX.. ",
"++++++++ o    . ",
"++   ++ ooX... +",
"+ Ooo  ooX.... +",
" o....o XX... ++",
" o...XX X... +++",
" X..Xo. X.. ++++",
" XXXoo.... +++++",
"+ ......  ++++++",
"++      ++++++++"
};
