/* XPM */
static char *icon[] = {
"48 48 69 2",
"01 c #003399",
"07 c #003AA0",
"0A c #000000",
"0C c #99CC00",
"10 c #A1D400",
"16 c #AEE100",
"17 c #B0E300",
"1A c #9DD000",
"27 c #BDF000",
"2C c #C0F300",
"30 c #004EB4",
"37 c #0050B6",
"4D c #0048AE",
"55 c #002B83",
"58 c #304000",
"5D c #00173F",
"5F c #000713",
"63 c #000E2B",
"64 c #6A9517",
"65 c #00194C",
"67 c #005BC1",
"6C c #769D00",
"6D c #00409C",
"6E c #7DA600",
"6F c #111700",
"76 c #003083",
"77 c #00276B",
"7C c #002F7E",
"87 c #74AA29",
"88 c #4C8653",
"8A c #325533",
"8B c #568943",
"8C c #87BA13",
"8F c #134580",
"92 c #1E2800",
"93 c #8FC209",
"94 c #1B393E",
"96 c #668C0F",
"9B c #1B5B8A",
"9C c #2E3E00",
"9E c #6AA235",
"9F c #213210",
"A0 c #94BF00",
"A1 c #266882",
"A7 c #619D42",
"A8 c #264539",
"AA c #629229",
"AB c #003675",
"AD c #608A1C",
"B2 c #74A113",
"B4 c #99CB12",
"B6 c #26748D",
"B7 c #7FB823",
"BA c #001E5B",
"BC c #62A855",
"BD c #287B92",
"BF c #398678",
"C0 c #76B230",
"C1 c #436A2D",
"CC c #092A4D",
"CD c #002056",
"D0 c #133649",
"D5 c #306C72",
"DB c #60963C",
"E0 c #003168",
"E4 c #5A7B05",
"FE c #84BC21",
"FF c #85B000",
"   c None",
"                                                                                                ",
"                                                                                                ",
"                                                                01010101                        ",
"                                                    0101010101010101010101010101                ",
"                                              01070107010701010101010101010101010101            ",
"                                          0707070707070701070107010101010101010101010101        ",
"                                      070707074D07017677655D655D5D777601010101010101010101      ",
"                                  070707074D077CCC0A0A0A0A0A0A0A0A0A0A637C01010101010101010A    ",
"                                074D074D01775F0A0A0A                    0A655501010101010177    ",
"                    0C0C0C0C1A0C1A8788775F0A0A0A                            8A8B8C0C0C0C8B8F63  ",
"                0C0C0C1010101016101010FF9C0A                              0C0C1A1010100C1093940A",
"              0C1A1010101617171717171710FF0A                            0C1A101016101010100C960A",
"            0C0C1010171717172717271717171092                          0C1A1016171717171010100C0A",
"          0C1A1016171727172C272C2C2C2C2C17E40A            4D4D4D4D4D9B1A101617171727171710100C9C",
"        0C0C101017172C272C2C2C2C2C2C2C2C2C6E0A      3030304D4D4D4D4DDB101617272C2717271717100C9F",
"        0C101617172C2C2C2C2C2C2C2C2C2C2C2CA00A  373730304D30304D4DA110101727272C2C2C271710100C63",
"      0C1A1016172C272C2C2C2C2C2C2C2C2C2C2C0C0A3737373737373030304D0C1017272C2C2C2C2C17171710645D",
"      0C101717172C2C2C2C2C2C2C2C2C2C2C2C2CA0E03767373737373030309E1A172C2C2C2C2C2C2C2C171010A80A",
"      1A1017172C2C2C2C2C2C2C2C2C2C2C2C2C2C877C3767673767373737A71A16172C2C2C2C2C2C2C171710AA6563",
"    0C1010172C2C2C2C2C2C2C2C2C2C2C2C2C2C2CAA6D67673767376737A710162C2C2C2C2C2C2C2C171710B265770A",
"    0C1017172C2C2C2C2C2C2C2C2C2C2C2C2C2C2CB49B3767676767B6B71017172C2C2C2C2C2C2C2C1710AD65BA550A",
"    0C1617172C2C2C2C2C2C2C2C2C2C2C2C2C2C2C2C17BCBDBDBFC010102C2C2C2C2C2C2C2C2C2C1010C1657701770A",
"  0C1A10172C2C2C2C2C2C2C2C2C2C2C2C2C2C2C2C2C2C2C2C2C17172C2C2C2C2C2C2C2C2C2C17170C8ABA7C01015F0A",
"  0C1017172C2C2C2C2C2C2C2C2C2C2C2C2C2C2C2C2C2C2C2C2C2C2C2C2C2C2C2C2C2C2C2C171764CDCD760101550A0A",
"  0C1017172C2C2C2C2C2C2C2C2C2C2C2C2C2C2C2C2C2C2C2C2C2C2C2C2C2C2C2C2C2C2C2C17A0D0AB014D0107BA0A  ",
"  1010172C2C2C2C2C2C2C2C2C2C2C2C2C2C2C2C2C2C2C2C2C2C2C2C2C2C2C2C2C2C2C2C2C2C100CD54D0701010A0A  ",
"0C1A1717172C2C2C2C2C2C2C2C2C2C2C2C2C2C2C2C2C2C2C2C2C2C2C2C2C2C2C2C2C2C2C2C2C2C10108B4D01CD0A    ",
"0C1010172C2C2C2C2C2C2C2C2C2C2C2C2C2C2C2C17170C8CB4172C2C2C2C2C2C2C2C2C2C2C2C2C2C1710DB760A0A    ",
"0C1017172C2C2C2C2C2C2C2C2C2C2C2C2C2C2C178C887777ABE0DBA0172C2C2C2C2C2C2C2C2C2C2C171710960A      ",
"1010102C172C2C2C2C2C2C2C2C2C2C2C2C2C1764777C4D67676730078B102C2C2C2C2C2C2C2C2C2C2C2C10A092      ",
"0C1017172C2C2C2C2C2C2C2C2C2C2C2C2C2C10D07630676767676767309B102C2C2C2C2C2C2C2C2C2C2C1710960A    ",
"8C1017172C2C2C2C2C2C2C2C2C2C2C2C2C0C877737676737673767306730BD172C2C2C2C2C2C2C2C2C2C1710960A    ",
"0C1017172C2C2C2C2C2C2C2C2C2C2C2C170CBAAB3737376737673067303030FE172C2C2C2C2C2C2C2C2C1710A00A    ",
"101017172C2C2C2C2C2C2C2C2C2C2C1710DBCD303767373067303030303030A7172C2C2C2C2C2C2C2C2C17106C0A    ",
"0C101717172C2C2C2C2C2C2C2C2C17170CCDAB373730373730373730303030BF102C2C2C2C2C2C2C2C1717106C0A    ",
"0C101717172C2C2C2C2C2C2C2C1717A087CD4D3030303030303030303030768A10172C2C2C2C2C2C17171010920A    ",
"DB10101717172C2C2C2C1717171710A065764D30303030303030304D7C636D301017172C2C2C2C2C171710FF0A0A    ",
"88101017171717171717171717100C6F0A776D4D4D4D4D303076770A654D3007B41017172C17171710100C580A      ",
"01DB0C101017171717171710100C580A0A  0A5F6565655D0A0A5F764D4D07308810101717171710170C580A0A      ",
"01018710101010101010100CA06F0A0A        0A0A0A0A0A4D4D4D4D074D4D018C1010101010100C580A0A        ",
"  01018A87A00C10100C6C580A0A0A              4D4D074D4D074D4D01015D6F6CA00CA0A0960A0A0A          ",
"  0101077C77659F0A0A0A0A0A              4D074D014D4D074D014D770A0A0A0A0A0A0A0A0A0A              ",
"    010101010101550101          07070707074D014D01074D0176630A0A                                ",
"      010101010107010101010101070707014D07014D07074D76650A0A0A                                  ",
"        5501010101010101010701070107070107070107AB5D0A0A0A                                      ",
"          BA55010101010101010101070107010776CD5F0A0A0A                                          ",
"            0A63BA5501010101010101767C650A0A0A0A0A                                              ",
"                0A0A0A0A0A0A0A0A0A0A0A0A0A0A                                                    "};
