/* XPM */
static char *magick[] = {
/* columns rows colors chars-per-pixel */
"16 16 86 1",
"  c Gray0",
". c #010101",
"X c #020202",
"o c #020203",
"O c #060606",
"+ c #070707",
"@ c Gray3",
"# c #090909",
"$ c Gray4",
"% c #0c0c0c",
"& c Gray5",
"* c #0d0d0e",
"= c #0e0e0e",
"- c Gray6",
"; c #111111",
": c Gray7",
"> c Gray8",
", c #161616",
"< c Gray9",
"1 c #181818",
"2 c Gray10",
"3 c Gray11",
"4 c #232323",
"5 c Gray14",
"6 c #262627",
"7 c #272727",
"8 c #313131",
"9 c #393939",
"0 c #3a3a39",
"q c #3e3e3d",
"w c #434344",
"e c #454544",
"r c #4c4c4d",
"t c Gray34",
"y c #585857",
"u c Gray36",
"i c Gray38",
"p c #636362",
"a c #707071",
"s c #7b7b7c",
"d c #7b7b7e",
"f c #7b7b7f",
"g c #7e7e7d",
"h c #7d7d80",
"j c #888887",
"k c Gray55",
"l c #929295",
"z c #939394",
"x c #9b9b9f",
"c c #9d9da0",
"v c #9e9ea2",
"b c #9f9fa3",
"n c #a1a1a3",
"m c #a0a0a4",
"M c #a1a1a5",
"N c #a1a1a6",
"B c #a2a2a6",
"V c #a2a2a7",
"C c #a3a3a7",
"Z c #a3a3a8",
"A c #a4a4a9",
"S c #a5a5a9",
"D c #a6a6aa",
"F c #a6a6ab",
"G c #a8a8ab",
"H c #a9a9ae",
"J c #aaaaac",
"K c #aaaaad",
"L c #ababae",
"P c #ababaf",
"I c #acacae",
"U c #adadae",
"Y c #adadb1",
"T c #adadb2",
"R c #aeaeb0",
"E c #afafb2",
"W c #afafb3",
"Q c #afafb4",
"! c #b0b0b2",
"~ c #b1b1b5",
"^ c #b1b1b6",
"/ c #b6b6ba",
"( c #b7b7ba",
") c #bababf",
"_ c #bbbbc0",
"` c None",
/* pixels */
"````````````````",
"````````````````",
"````````````````",
"```````   ``````",
"````` 6hJg6 ````",
"``` 6fEE^/Ef6 ``",
"  6fEQE!JIIEEf6@",
"*r)^BJJGEJBBS/_w",
"*enxBBvBBvBSSlf8",
"+1ijlxZZBSSlayq,",
"   3ijlvSlay0,**",
" ` @,4ukgt0,*:@ ",
"````+*+601*:@```",
"``````@* :@`````",
"````````````````",
"````````````````"
};
