/* XPM */
static char *magick[] = {
/* columns rows colors chars-per-pixel */
"16 16 144 2",
"   c Gray0",
".  c Transparent",
"X  c #000101",
"o  c #000202",
"O  c #000004",
"+  c #000006",
"@  c #000500",
"#  c #000606",
"$  c #000909",
"%  c #000b0b",
"&  c #000e0e",
"*  c #090a0a",
"=  c #001111",
"-  c #121f1f",
";  c #002323",
":  c #002424",
">  c #003f3e",
",  c #093737",
"<  c #0a3a39",
"1  c #2b1d1d",
"2  c #283333",
"3  c #312424",
"4  c #392e3f",
"5  c #004343",
"6  c #004747",
"7  c #004d4d",
"8  c #004e4e",
"9  c #005150",
"0  c #005556",
"q  c #005858",
"w  c #006457",
"e  c #006362",
"r  c #006363",
"t  c #006464",
"y  c #006566",
"u  c #006665",
"i  c #006f6f",
"p  c #007361",
"a  c #007474",
"s  c #007c7c",
"d  c #0b7777",
"f  c #2c4444",
"g  c #3e5757",
"h  c #2b6467",
"j  c #2c676a",
"k  c #2d686a",
"l  c #336d6e",
"z  c #387575",
"x  c #443838",
"c  c #584443",
"v  c #58584b",
"b  c #585857",
"n  c #655966",
"m  c #72724d",
"M  c #787853",
"N  c #636a6a",
"B  c #7a6c70",
"V  c #7f6e72",
"C  c #727262",
"Z  c #78786e",
"A  c #777777",
"S  c #7f7073",
"D  c #00888b",
"F  c #008a8d",
"G  c #008d96",
"H  c #019386",
"J  c #009090",
"K  c #00929c",
"L  c #009fb6",
"P  c #00a4a4",
"I  c #00aaaa",
"U  c #00abab",
"Y  c #00adad",
"T  c #00b0b0",
"R  c #00b2b2",
"E  c #00b7b7",
"W  c #268181",
"Q  c #2c9595",
"!  c #368f8f",
"~  c #379090",
"^  c #389090",
"/  c #00c0c0",
"(  c #00c1c1",
")  c #00c5c5",
"_  c #00c6c6",
"`  c #00c6c7",
"'  c #00c7c7",
"]  c #00c5ce",
"[  c #00c8c8",
"{  c #00caca",
"}  c #00cdcd",
"|  c #00cdce",
" . c #00cece",
".. c #00cfcf",
"X. c #00c9d2",
"o. c #00d3d3",
"O. c #00d6d6",
"+. c #00d9d9",
"@. c #00dcdc",
"#. c #00dddd",
"$. c #00dee5",
"%. c #00e3e3",
"&. c #00e7e7",
"*. c #00f3f3",
"=. c #408c8c",
"-. c #816e70",
";. c #8a7575",
":. c #928800",
">. c #939100",
",. c #968e4c",
"<. c #bbbb68",
"1. c #d5c838",
"2. c #fff827",
"3. c #ffff66",
"4. c #ffff6b",
"5. c #998281",
"6. c #998282",
"7. c #93a0a6",
"8. c #a89393",
"9. c #acaa85",
"0. c #acab8b",
"q. c #a1a19b",
"w. c #a1a19c",
"e. c #b2a5a4",
"r. c #bba5a5",
"t. c #bca6a6",
"y. c #bbbbb7",
"u. c #b9babf",
"i. c #bcbdc0",
"p. c #bebec2",
"a. c #bdc0c3",
"s. c #bbfafa",
"d. c #bdfbfb",
"f. c #d5c8ac",
"g. c #c3ffff",
"h. c #dfe2e3",
"j. c #eeeed1",
"k. c #eeeed9",
"l. c #e1e5e5",
"z. c #e7eaea",
"x. c #fffff5",
"c. c #fffff9",
"v. c Gray100",
"b. c None",
/* pixels */
"b.b.b.b.b.  b w.q.v   b.b.b.b.b.",
"b.b.b.b.b.  y.j.k.<.  b.b.b.b.b.",
"b.b.b.b.b.O v.m C 4.@   b.b.b.b.",
"b.b.b.b.b.  x.M Z 3.p ] >   b.b.",
"b.b.b.b.b.O c.9.0.2.w $.&.E 5 & ",
"b.b.b.b.  F 7.f.1.>.L ) / O.*.8 ",
"b.b.b.  I %.K ,.:.H X./ ) ) d 2 ",
"b.b.  I @.} D n 4 G } ) ) r 8.N ",
"  # T @./ } a ;.c s o.) y 5.z.z ",
"& 8 [ } ) [ I x 1 T } y 5.l.~ = ",
"* 3 g q I } +.i 6 J 0 -.h.^   b.",
"- A v.t.f q Y +.P 9 S a.!   b.b.",
"< W g.v.v.r.f r y V i.j   b.b.b.",
"    : Q s.v.v.e.B u.k   b.b.b.b.",
"b.b.b.  ; Q d.v.i.h   b.b.b.b.b.",
"b.b.b.b.  % < =.l % b.b.b.b.b.b."
};
