/* XPM */
static char *magick[] = {
/* columns rows colors chars-per-pixel */
"32 32 15 1",
"  c Gray0",
". c Gray19",
"X c #400000",
"o c #404000",
"O c #585858",
"+ c #808000",
"@ c #ffa858",
"# c #c0c000",
"$ c Yellow",
"% c #a0a0a4",
"& c #ffdca8",
"* c #c0c0c0",
"= c #ffffc0",
"- c Gray100",
"; c None",
/* pixels */
";;;;   ;;;;ooo;;;;;;;;;;;;;;;;;;",
";;;; &&  ;o==#oo;;;;;;;;;;;;;;;;",
";;   @&&&o-==$$#o;;;;;;;;;;;;;;;",
";; -O  @o--=$$#o;;;;;;;;;;;;;;;;",
";; ---Oo--==$#o ;;  .;;;;;;;;;;;",
";; ---o--==$#o&&  &&&  ;;;;;;;;;",
";; --o--==$#o @&&&&&&&&  ;;;;;;;",
";; -o--==$#o%%  @&&&&&&& ;;;;;;;",
";; o--==$#o%%%% @@@@&&&&& ;;;;;;",
";;o--==$#oooooooo@@@@@@&& ;;;;;;",
";o-==$$$$$$$$$$$$o @X @@@& ;;;;;",
"o===$$$$$$$$$$$$#oO OO  @& ;;;;;",
"o=$$$$$$$$$$$$$#o***%*%O @@ ;;;;",
";ooooooo-===$$#o*%*%*%*%O @ ;;;;",
";; -*-o--==$$#o***%*%*%%O @ ;;;;",
";; *-o-=-==$#o*%*%*%%%%%O @ ;;;;",
";; -o---==$#o***%*%*%%%%O @ ;;;;",
";; o-=-==$$oooo%*%%%%%%%OX@ ;;;;",
";;o---==$$$$$$$o%*%%%%%%O @ ;;;;",
";o-====$$$$$$$#o%%%%%%%%O @ ;;;;",
"o===$$$$$$$$$#o*%%%%%%%%O @ ;;;;",
";ooooooo=$$$#o%%%%%%%%%%O @ ;;;;",
";;;;;  o-=$#o*%%%%%%%%%%O @ ;;;;",
";;;;;;o-=$#o%%%%%%%%%%%%O @ ;;;;",
";;;;;o-=$#ooOO%%%%%%%%%%O @ ;;;;",
";;;;o+-$#o;;  OO%%%%%%%%O @ ;;;;",
";;;;o-=#o;;;;;  OO%%%%%%O @   ;;",
";;;o-=#o;;;;;;;;  OO%%%%O @     ",
";;;o-#o;;;;;;;;;;;  OO%%O @     ",
";;o-#o;;;;;;;;;;;;;;  OOO @     ",
";;;oo;;;;;;;;;;;;;;;;;  O @   ;;",
";;;;;;;;;;;;;;;;;;;;;;;     ;;;;"
};
