/* XPM */
static char *magick[] = {
/* columns rows colors chars-per-pixel */
"16 16 164 2",
"   c Gray0",
".  c #010101",
"X  c #000303",
"o  c #020202",
"O  c #000505",
"+  c #000606",
"@  c #040707",
"#  c #000b0b",
"$  c #0d0a0a",
"%  c #0c0c0c",
"&  c Gray5",
"*  c #001616",
"=  c #001818",
"-  c #001d1d",
";  c #1c1414",
":  c Gray11",
">  c #002626",
",  c #002c2c",
"<  c #002f2f",
"1  c #003131",
"2  c #003e3e",
"3  c #202020",
"4  c #232323",
"5  c #252525",
"6  c Gray15",
"7  c #282828",
"8  c #323232",
"9  c #393939",
"0  c #3e3e3e",
"q  c #3f3f3f",
"w  c #004949",
"e  c #004c4c",
"r  c #034d4d",
"t  c #005050",
"y  c #005858",
"u  c #005959",
"i  c #005b5b",
"p  c #005e5e",
"a  c #006262",
"s  c #006a6a",
"d  c #007171",
"f  c #007474",
"g  c #007777",
"h  c #007a7a",
"j  c #007e7e",
"k  c #0e7b7b",
"l  c #3b4848",
"z  c #2f7878",
"x  c #307171",
"c  c #444444",
"v  c #484848",
"b  c Gray29",
"n  c #585858",
"m  c Gray37",
"M  c #5f6060",
"N  c #5d7b7b",
"B  c #625a5a",
"V  c #606060",
"C  c #676262",
"Z  c #646464",
"A  c #656565",
"S  c #6c6363",
"D  c Gray41",
"F  c #6d6d6d",
"G  c #6f6f6f",
"H  c #727272",
"J  c #747474",
"K  c Gray48",
"L  c #7b7b7b",
"P  c #7c7c7c",
"I  c Gray50",
"U  c #008282",
"Y  c #008383",
"T  c #008787",
"R  c #008989",
"E  c #008a8a",
"W  c #008d8d",
"Q  c #008f8f",
"!  c #009090",
"~  c #009494",
"^  c #009797",
"/  c #009a9a",
"(  c #05a8a8",
")  c #00b0b0",
"_  c #00b1b1",
"`  c #00bcbc",
"'  c #00bebe",
"]  c #00bfbf",
"[  c #1aacac",
"{  c #19b8b8",
"}  c #00c2c2",
"|  c #00c3c3",
" . c #00c4c4",
".. c #00c5c5",
"X. c #00c7c7",
"o. c #00c8c8",
"O. c #00cbcb",
"+. c #00cdcd",
"@. c #00cece",
"#. c #00cfcf",
"$. c #00d6d6",
"%. c #15c5c5",
"&. c #13caca",
"*. c #1acaca",
"=. c #19cece",
"-. c #18d7d7",
";. c #35c3c3",
":. c #708282",
">. c #728989",
",. c #4ec9c9",
"<. c #5debeb",
"1. c #5ee8e8",
"2. c #5eebeb",
"3. c #5eefef",
"4. c #808080",
"5. c Gray51",
"6. c #838383",
"7. c #848484",
"8. c Gray53",
"9. c #8e8585",
"0. c #898989",
"q. c Gray54",
"w. c #8b8c8c",
"e. c Gray55",
"r. c #8d8d8d",
"t. c Gray56",
"y. c #929292",
"u. c #939393",
"i. c #9a9a9a",
"p. c #a2a2a2",
"a. c #afafaf",
"s. c #b7b7b7",
"d. c Gray72",
"f. c Gray73",
"g. c #bebebe",
"h. c #80ffff",
"j. c #93ffff",
"k. c #c0bfbf",
"l. c #c9bdbd",
"z. c #c0c0c0",
"x. c #c1c1c1",
"c. c Gray76",
"v. c Gray77",
"b. c #c5c5c5",
"n. c #c8c2c2",
"m. c #cacaca",
"M. c #cbcbcb",
"N. c #cdcdcd",
"B. c #d1d0d0",
"V. c Gray83",
"C. c #d7d7d7",
"Z. c #d8d4d4",
"A. c #d9d6d6",
"S. c gainsboro",
"D. c #c7ffff",
"F. c Gray90",
"G. c #e7e4e4",
"H. c Gray91",
"J. c #eaeaea",
"K. c #eeeeee",
"L. c #f1e5e5",
"P. c #f4f4f4",
"I. c Gray100",
"U. c None",
/* pixels */
"U.U.U.U.U.U.U.U.U.  5 t.8.:   U.",
"U.U.U.U.U.U.U.U.U.  I H.c.b   U.",
"U.U.U.U.U.U.U.U.U.5.I.F.a.i.q   ",
"U.U.U.$ :.N @ U.U.K I.s.5.u.q   ",
"U.U.l D.h.-.W - S w.m A D q     ",
"U.U.>.j.=.! W e L.P.p.b 9 G q.8 ",
"#   x ;.^ Y f = l.C.H.K.C.b.d.J ",
"z ,.&.e < 1 < * 9.n.k.M.S.5.K H ",
"k { 3.2.[ W _ X.u B B.c.c.5.e.G ",
"f _ | *.2.2.( R s m A.b.g.6.B 5 ",
"u / +.` ` %.h Y d M A.d.c 9 n & ",
"+   ` X.X.O.R T w C F.M.P q.t.& ",
"    | O.` j u 2   ; q.N.u.A 4   ",
"    +.+.| e u T   U.  7 4   U.U.",
"    Y +.$.^ ^ a   U.U.U.U.U.U.U.",
"    + < f p > +   U.U.U.U.U.U.U."
};
