/* XPM */
static char *magick[] = {
/* columns rows colors chars-per-pixel */
"32 32 15 1",
"  c Gray0",
". c #585858",
"X c #000080",
"o c #0000c0",
"O c Blue",
"+ c #00c0c0",
"@ c #c00000",
"# c Red",
"$ c #c05800",
"% c #ff8000",
"& c #808080",
"* c #a0a0a4",
"= c #c0c0c0",
"- c Gray100",
"; c None",
/* pixels */
";;;;;;;;;;;;;;;;   ;;;;;;;;;;;;;",
";;;;;;;;;;;;;;  &&& ;;;;;;;;;;;;",
";;;;;;;;;;;;  &&&.. ;    ;;;;;;;",
";;;;;;;;;;; **&..  ;;;  ;;;;;;;;",
";;;;;;;;;;; ..&   ;;;;  ;;;;;;;;",
";;;;;;;;;;;;   %$ ;;;;  ;;;;;;;;",
";;;;;;;;;;;;;; %$ ;;;;  ;;;;;;;;",
";;;;;;;;;;;;;; %$ ;;;;  ;;;;;;;;",
";;;;;;;;;;;;;  %$ ;;;;  ;;;;;;;;",
";;;;;;;;;;;; O %$ ;;;    ;;;;;;;",
";;;;;;;;;;; OO %$  ;; #@ ;;;;;;;",
";;;;;;;;;; OOX %$ =   #@ ;;;;;;;",
";;;;;;;;; OOX- %$ -== #@ ;;;;;;;",
";;;;;;;; OOX-- %$ --- #@ ;;;;;;;",
";;;;;;; OOX--- %$ --- #@   ;;;;;",
";;;;;; OOX=----  ---- #@ ==  ;;;",
";;;;; OOXOXX=-------- #@ --=X  ;",
";;;; OOX=XXOXX=------ #@ --XO+O ",
";;; OOX==*=XXOXX=-----  --XO+Oo ",
";; OOX==OO*==XXOXX=------XO+Oo ;",
"; +OX==OOO=====XXOXX=---XO+Oo ;;",
" OOX--&OO=*=*=*= XXOXX=XO+Oo ;;;",
" ooX==-=&*=&=&* OOOXXOXO+Oo ;;;;",
";  X&==--*&*&& OOOOOOXO+Oo ;;;;;",
";;;  &&*=--&& OOOOOOXO+Oo ;;;;;;",
";;;;;  &&**- OOOOOOXO+Oo ;;;;;;;",
";;;;;;;  &&* ++OOOXO+Oo ;;;;;;;;",
";;;;;;;;;  & OO++XO+Oo ;;;;;;;;;",
";;;;;;;;;;;  ooooX+Oo ;;;;;;;;;;",
";;;;;;;;;;;;;  ooXOo ;;;;;;;;;;;",
";;;;;;;;;;;;;;;  Xo ;;;;;;;;;;;;",
";;;;;;;;;;;;;;;;;  ;;;;;;;;;;;;;"
};
