/* XPM */
static char *magick[] = {
/* columns rows colors chars-per-pixel */
"16 16 131 2",
"   c Gray0",
".  c #010101",
"X  c Gray1",
"o  c #040404",
"O  c #050507",
"+  c #070707",
"@  c #0a0807",
"#  c Gray3",
"$  c #0b0b0b",
"%  c #0f0d0d",
"&  c #160e06",
"*  c #170f07",
"=  c #180f07",
"-  c #190f07",
";  c #1c1209",
":  c #131313",
">  c #161616",
",  c Gray9",
"<  c #181818",
"1  c #191919",
"2  c #1b1b1b",
"3  c #1e1e1e",
"4  c #313131",
"5  c #373838",
"6  c #3a3a3c",
"7  c #3d3d3e",
"8  c #473f30",
"9  c #483f32",
"0  c #4e4535",
"q  c #534533",
"w  c #7e4818",
"e  c #614327",
"r  c #684d2f",
"t  c #61533f",
"y  c #69543c",
"u  c #794d23",
"i  c #7a4d23",
"p  c #7b4c23",
"a  c #7e5227",
"s  c #705135",
"d  c #414141",
"f  c #474749",
"g  c #4b4f57",
"h  c #535355",
"j  c #545152",
"k  c Gray35",
"l  c Gray37",
"z  c #555c65",
"x  c #5d6875",
"c  c #6e5840",
"v  c #626264",
"b  c #646464",
"n  c #64666d",
"m  c #6a6a6a",
"M  c #666e77",
"N  c #676e78",
"B  c #687079",
"V  c #6a727b",
"C  c #6d7179",
"Z  c #6c757e",
"A  c #707073",
"S  c #747474",
"D  c #747475",
"F  c Gray46",
"G  c #747476",
"H  c #76777a",
"J  c Gray47",
"K  c Gray48",
"L  c #7b7b7b",
"P  c Gray",
"I  c #7f7f7e",
"U  c #727a82",
"Y  c #7b7b80",
"T  c #894d23",
"R  c #845427",
"E  c #85592e",
"W  c #b25f26",
"Q  c #b67238",
"!  c #83725a",
"~  c #b99b73",
"^  c #c48d53",
"/  c #c29561",
"(  c #c99d69",
")  c #caa777",
"_  c #cca879",
"`  c #818181",
"'  c #858586",
"]  c #88898d",
"[  c #858d95",
"{  c Gray61",
"}  c #a7a7a7",
"|  c #a9a9ad",
" . c Gray68",
".. c #afacad",
"X. c #acacb0",
"o. c #aeaeb1",
"O. c #afafb4",
"+. c #b4b4b4",
"@. c #b5b5ba",
"#. c Gray73",
"$. c #babbbc",
"%. c Gray75",
"&. c #bcbbc0",
"*. c #bec1c3",
"=. c #c2ac87",
"-. c #c3ad88",
";. c #ffda8c",
":. c #ffe48d",
">. c #ffeba6",
",. c #ffe9b7",
"<. c Gray76",
"1. c #c0c0c7",
"2. c #c5c5c6",
"3. c #c5c8cc",
"4. c Gray81",
"5. c #c8ccd0",
"6. c #cbd0d3",
"7. c #d4d4d3",
"8. c #d6d6d5",
"9. c #d2d7dd",
"0. c #dcdcdb",
"q. c #ffffc9",
"w. c #e1e1e1",
"e. c #e2e2e1",
"r. c Gray89",
"t. c #e7e7e7",
"y. c #eeeeee",
"u. c #eef4fa",
"i. c #f3f3f3",
"p. c Gray100",
"a. c None",
/* pixels */
"    q t @   a.a.a.a.a.a.a.a.a.a.",
"    r ) 8   a.a.a.a.a.a.a.a.a.a.",
", H ..y / _ 0     %   a.a.a.a.a.",
"1 ` p.u.] c ( ~ -.,.!   a.a.a.a.",
"1 K p.p.p.9.g E :.>.q.=.  a.a.a.",
"1 K p.y.e.e.5.j w W Q ;.9 a.a.a.",
"1 K p.t.e.4.$.6.[ n z s ^   a.a.",
"1 F p.{ %.P   P 2.*.3.x R & a.a.",
", m p.k b #.p.+.F X.X.N p & a.a.",
": v i.l ..p.p.p.} A @.C T & a.a.",
"# 7 F d p.p.p.p.t.1 Y Z p & a.a.",
"    O # p.<.F p.8.6 O.V p = a.a.",
"a.a.a.  p.' O p.0.f &.M p = a.a.",
"a.a.a.O p.`   p.7.h 1.V p =     ",
"a.a.a.  #     #   4 | U a =     ",
"a.a.a.a.a.a.a.a.    3 5 e ;     "
};
