/* XPM */
static char *magick[] = {
/* columns rows colors chars-per-pixel */
"16 16 178 2",
"   c Gray0",
".  c #010101",
"X  c Gray2",
"o  c #060807",
"O  c #090909",
"+  c #0c0c0c",
"@  c #0d0d0c",
"#  c Gray5",
"$  c #0e0d0c",
"%  c #0e1114",
"&  c #1c130b",
"*  c #111111",
"=  c Gray9",
"-  c Gray13",
";  c #212123",
":  c #272727",
">  c #363837",
",  c #3f3f41",
"<  c #5c4a36",
"1  c #6a4018",
"2  c #65553e",
"3  c #6d5739",
"4  c #414142",
"5  c #48484a",
"6  c #4a4b50",
"7  c #505051",
"8  c #515152",
"9  c #525253",
"0  c #525254",
"q  c #535355",
"w  c Gray34",
"e  c #565659",
"r  c #56565a",
"t  c #595757",
"y  c #585858",
"u  c #585859",
"i  c #59595a",
"p  c #59595b",
"a  c #5a5a5b",
"s  c #5c5c5d",
"d  c #5e5e5f",
"f  c #626261",
"g  c #636362",
"h  c #626264",
"j  c #626265",
"k  c #636365",
"l  c #60696f",
"z  c #66696a",
"x  c Gray41",
"c  c #6a6a6c",
"v  c #6b6b6d",
"b  c #6c6c6c",
"n  c #6d6d6e",
"m  c #6e6e6f",
"M  c #6f6f70",
"N  c #6e7277",
"B  c #706a65",
"V  c Gray45",
"C  c Gray48",
"Z  c Gray",
"A  c #7e7e7f",
"S  c Gray50",
"D  c #7c7f80",
"F  c #807f7f",
"G  c #a07348",
"H  c #a07d52",
"J  c #84817f",
"K  c #a0835b",
"L  c #af916a",
"P  c #c99258",
"I  c #d3a368",
"U  c #e5ab6c",
"Y  c #808081",
"T  c #818181",
"R  c #818182",
"E  c #828382",
"W  c #818184",
"Q  c #868583",
"!  c #848484",
"~  c #848486",
"^  c #858587",
"/  c #878786",
"(  c #888888",
")  c #898888",
"_  c #898989",
"`  c #89898b",
"'  c Gray54",
"]  c #8b8b8c",
"[  c #8b8b8d",
"{  c #8d8d8d",
"}  c #8e8e92",
"|  c #8f8f93",
" . c #8f9195",
".. c #93918f",
"X. c #919090",
"o. c #909093",
"O. c #919193",
"+. c #929293",
"@. c #929294",
"#. c #929296",
"$. c Gray59",
"%. c #959599",
"&. c #9d9d9f",
"*. c #9c9ca0",
"=. c #9e9ea1",
"-. c #a2a2a5",
";. c #a2a2a6",
":. c #a6a6a7",
">. c #a4a4a8",
",. c #a5a5a8",
"<. c #a5a5aa",
"1. c #a5a7aa",
"2. c #a6a6a8",
"3. c #a6a6aa",
"4. c #a7a7ab",
"5. c #a4a7ac",
"6. c #a5a7ac",
"7. c #a7a7ac",
"8. c #a9a9aa",
"9. c #a9a9ac",
"0. c #aaaaaf",
"q. c #ababae",
"w. c #acacaf",
"e. c #acacb1",
"r. c #adadb0",
"t. c #adadb1",
"y. c #aeb0b4",
"u. c #b0b2b5",
"i. c #b1b2b5",
"p. c #b3b3b4",
"a. c Gray71",
"s. c #b6b6b5",
"d. c #b7b7b7",
"f. c #b3b3b8",
"g. c #b9b9ba",
"h. c #bababf",
"j. c #bebec1",
"k. c #c9b29b",
"l. c #ffcb86",
"z. c #f9ce8e",
"x. c #fcd8a3",
"c. c #ffe5b2",
"v. c #c0c0c1",
"b. c #c7c7c6",
"n. c Gray78",
"m. c #c6cacd",
"M. c #c8c8c7",
"N. c #c9c9c8",
"B. c #cdcdcd",
"V. c #cdcece",
"C. c #cecece",
"Z. c #d0d0cf",
"A. c #d0d0d1",
"S. c #d3d3d2",
"D. c #d4d5d5",
"F. c #d4d4d6",
"G. c #d6d7d6",
"H. c #d7d7d6",
"J. c #d7d8da",
"K. c #dedad2",
"L. c #d8d8da",
"P. c #d9dbdb",
"I. c Gray86",
"U. c gainsboro",
"Y. c #dddddd",
"T. c #e3d6c2",
"R. c #f5e1c4",
"E. c Gray88",
"W. c #e1e2e4",
"Q. c #e4e5e7",
"!. c #e6e7e9",
"~. c #e8e8e7",
"^. c #ebebe9",
"/. c #eeeeed",
"(. c #eeeeef",
"). c #eff1f2",
"_. c Gray100",
"`. c None",
/* pixels */
"4 m $.' ' ' ' ' ' S ;     `.`.`.",
"p O.F.S.Z.n.V.J.E.L.m     `.`.`.",
"j } 7.j.(._.).' z 7._._.O.  `.`.",
"j O.>.%.>.Q.> I 3 2 % N y.  `.  ",
"j O.>.*.q.L.  U K L K.R...E J $ ",
"j O.>.*.e.P.o P H G T.z.x.c.l.& ",
"j O.>.*.e.F.6 m < 1 l Q F D k.B ",
"j O.>.*.e.F.;  .7.t >.!.u.u.m.>.",
"j @.>.*.e.V.x V , W W.F.d.n.n.*.",
"j @.>.*.e.N./ ^.' g 8 e 8 8 q 5 ",
"j O.>.*.w.S.s >.&.:.] M w   `.  ",
"j O.>.*.q.Y.g E S E / E { $ `.`.",
"j @.>.*.e.M.S (.d.d.V.g.s $ `.`.",
"q } f.;.e.M.C Y.p.v.v.q.s $ `.`.",
"$ = c ;.h.~.s e t p p p O.O `.`.",
"    X : c 8.@.W / / / ' ] * `.`."
};
