/* XPM */
static char *magick[] = {
/* columns rows colors chars-per-pixel */
"32 32 7 1",
"  c Gray0",
". c #585858",
"X c #000080",
"o c #a0a0a4",
"O c #c0c0c0",
"+ c Gray100",
"@ c None",
/* pixels */
"@@                      @@@@@@@@",
"@ + O++++++++++++++++++ @@@@@@@@",
" ++ O++++++++++++++++++ @@@@@@@@",
"    O++++++++++++++++++    @@@@@",
" OOOO++++++++++++++++++ o+ @@@@@",
" +++OO+OOOO+OO+OOOO++++ o+ @@@@@",
" ++++++++++++++++++++++ o+ @@@@@",
" +++O+OOO++O.   .O+++++ o+ @@@@@",
" +++++++++         ++++ o+ @@@@@",
" +++OOO++   oOOOO   +++ o+ @@@@@",
" +++++++   +++++++   ++ o+ @@@@@",
" +++O++O  +++  +++O  O+ o+ @@@@@",
" ++++++. o++ ++++++o .+ o+ @@@@@",
" ++++++  ++++++++++O  + o+ @@@@@",
" +++O++  +++++O++++O  + o+ @@@@@",
" +++OO+  ++++OOOOO+O  + o+ @@@@@",
" ++++++. o+++++++++o .+ o+ @@@@@",
" +++OO+O  +++++++++  o+ o+ @@@@@",
" ++++++o   +++++++   o+ o+ @@@@@",
" +++OO++o   o+++o     + o+ @@@@@",
" ++++++++o          o+  o+ @@@@@",
" ++XXX+++X  .   .oo .o+ o+ @@@@@",
" ++X++X+X++ooooooOoo .o+ + @@@@@",
" ++X++X+XXX++++++++oo .o+  @@@@@",
" ++XXX+++++XOO+OOO++oo .o+ @@@@@",
" ++X+++++++X+++++++++oo .o+ @@@@",
" ++X++++XXX+++++++++++o  .o+ @@@",
" ++++++++++++++++++++++ o .o+ @@",
"                        oo .o+ @",
"@@@ oooooooooooooooooooooo  .o+ ",
"@@@ ++++++++++++++++++++++ @    ",
"@@@                        @@  O"
};
