/* XPM */
static char *magick[] = {
/* columns rows colors chars-per-pixel */
"32 32 9 1",
"  c Gray0",
". c Blue",
"X c #00c000",
"o c Red",
"O c Yellow",
"+ c #808080",
"@ c #c0c0c0",
"# c Gray100",
"$ c None",
/* pixels */
"$                $$$$$$  $$$$$$$",
" #.#.#.########## $$$  @@  $$$$$",
" .#.#.#oooooooooo $  @#+##@  $$$",
" #.#.#.##########  @##+++###@ $$",
" oooooooooooooooo  #@@#+###@@ $$",
" ################ @###@#@#@#@@ $",
" oooooooooooooooo #######@#@#@ $",
" XXXXX######oooo @######@#@#@#@ ",
" XXXXX######oooo @#######@#@#@@ ",
" XXXXX######ooooo  @####@#@@@  $",
" XXXXX######ooooo $  @###@@  $$$",
" XXXXX######ooooo $$$  @@  $$$$$",
" XXXXX######ooooo $$$$$  $$$$$$$",
"                  $$$$$$$$$$$$$$",
"                  $$$$$$$$$$$$$$",
" oooooooooooooooo $$$$$$$$$$$$$$",
" oooooooooooooooo $$$$$$$$$$$$$$",
" OOOOOOOOOOOOOOOO $$$$$$$$$$$$$$",
" OOOOOOOOOOOOOOOO $$$$$$$$$$$$$$",
" ################ $$$$$  $$$$$$$",
" ######oooo###### $$$  @@  $$$$$",
" #####oooooo##### $  @#+##@  $$$",
" #####oooooo#####  @##+++###@ $$",
" ######oooo######  #@@#+###@@ $$",
" ################ @###@#@#@#@@ $",
" .....@@@@@@ooooo #######@#@#@ $",
" .....######oooo @######@#@#@#@ ",
" .....######oooo @#######@#@#@@ ",
" .....######ooooo  @####@#@@@  $",
" .....######ooooo $  @###@@  $$$",
" .....######ooooo $$$  @@  $$$$$",
"$                $$$$$$  $$$$$$$"
};
