/* XPM */
static char *magick[] = {
/* columns rows colors chars-per-pixel */
"16 16 174 2",
"   c Gray0",
".  c #010101",
"X  c #000003",
"o  c #000303",
"O  c #020202",
"+  c #000500",
"@  c #030404",
"#  c #040000",
"$  c #040404",
"%  c Gray2",
"&  c #050606",
"*  c #0a0000",
"=  c Gray3",
"-  c #090909",
";  c #110c00",
":  c #110e0e",
">  c #1b0101",
",  c #191919",
"<  c #1b1b1b",
"1  c #1b1d1d",
"2  c #1e1e1e",
"3  c Gray12",
"4  c #333838",
"5  c Gray23",
"6  c #006900",
"7  c #007700",
"8  c #116700",
"9  c #42425f",
"0  c #585858",
"q  c #5a5a5a",
"w  c #5f5f5f",
"e  c Gray38",
"r  c Gray39",
"t  c #646464",
"y  c Gray40",
"u  c #676767",
"i  c #696f6f",
"p  c #6c6d6d",
"a  c #6f6f6f",
"s  c #677a7a",
"d  c #727272",
"f  c #747474",
"g  c #727878",
"h  c #00008a",
"j  c #00009c",
"k  c #11119c",
"l  c #0000c4",
"z  c #0000e3",
"x  c #0000e6",
"c  c #0000ea",
"v  c Blue",
"b  c #484a8a",
"n  c #4a4a88",
"m  c #4e4e9d",
"M  c #504d99",
"N  c #596de0",
"B  c #6376f6",
"V  c #647dff",
"C  c #6d76f9",
"Z  c #7070e1",
"A  c #009b00",
"S  c #00ac00",
"D  c #00ae00",
"F  c #00b700",
"G  c #00c300",
"H  c #00cc00",
"J  c #7dcc6d",
"K  c #7ae481",
"L  c #7feb84",
"P  c #8e0000",
"I  c #8b1000",
"U  c #ae0000",
"Y  c #bb0000",
"T  c #8c483a",
"R  c #834763",
"E  c #8b7171",
"W  c #9c7f7f",
"Q  c #ca0000",
"!  c #e30000",
"~  c #e70000",
"^  c #f60000",
"/  c #f70500",
"(  c #f90000",
")  c #fb0000",
"_  c #fc0000",
"`  c Red",
"'  c #e25353",
"]  c #f3645a",
"[  c #e17070",
"{  c #e57f7f",
"}  c #e77f7f",
"|  c #ee7676",
" . c #ff6868",
".. c #ff6b6b",
"X. c #ff6d6d",
"o. c #ff6d6e",
"O. c #ff7360",
"+. c #ff7064",
"@. c #ff7271",
"#. c #ff777e",
"$. c #fe7b73",
"%. c #f87b7b",
"&. c #fe7d7d",
"*. c #8d7382",
"=. c #ba5591",
"-. c #c254a0",
";. c #d05ba8",
":. c #9c8b11",
">. c #9d807f",
",. c #ea807c",
"<. c #ff817f",
"1. c #eae700",
"2. c Yellow",
"3. c #fffe05",
"4. c #ffff04",
"5. c #ffff15",
"6. c #8b8b9c",
"7. c #9d8080",
"8. c #9c9c8b",
"9. c #979797",
"0. c Gray61",
"q. c #a0a0a0",
"w. c #a7a7a7",
"e. c #afbdbd",
"r. c #b2b2b2",
"t. c Gray71",
"y. c Gray75",
"u. c #8181ff",
"i. c #b8d7d7",
"p. c #e28085",
"a. c #ed8383",
"s. c #fb8181",
"d. c #ff8181",
"f. c #ff8280",
"g. c #ff8383",
"h. c #ff8484",
"j. c #ff8488",
"k. c #ff848b",
"l. c #ff8b8b",
"z. c Gray77",
"x. c Gray80",
"c. c #cdcdcd",
"v. c Gray82",
"b. c #d7dbdb",
"n. c Gray87",
"m. c #dfdfdf",
"M. c #dcffff",
"N. c #e1e5e5",
"B. c #e5e5e1",
"V. c #e6e6e6",
"C. c #e7e7e6",
"Z. c #e6eae7",
"A. c Gray91",
"S. c #eaeaea",
"D. c Gray92",
"F. c #ececec",
"G. c #f5eaea",
"H. c #f1f1f1",
"J. c #f0f4f4",
"K. c #f4f3f3",
"L. c #f4f4f4",
"P. c Gray96",
"I. c Gray97",
"U. c #f4fff4",
"Y. c #fcf6f6",
"T. c #fef6f4",
"R. c #fff2ff",
"E. c #f8f8f8",
"W. c #fbffff",
"Q. c #fffefd",
"!. c #feffff",
"~. c #fffffe",
"^. c Gray100",
"/. c None",
/* pixels */
"9 b m M *.>.W 7.E :   2 e 2     ",
"b N V B p.,.{ a.{     e w.d %   ",
"R =.;.-.#.g.g.l.&.@ b.m.r.^.c., ",
"T ] O.+.o.@. . .' g ^.E.F.V.P.u ",
"8 A D J R.^.o.` P i.^.^.P.A.^.q.",
"7 F H L ^.^.h.` ^ % i K.^.c.w , ",
"6 D G K ^.W.s.` (   /.% q       ",
";               *   /./.  /././.",
"I ~ ` ` ` ( ( ` / # /./././././.",
":.1.2.2.5.5.3.2.3.+ /./.  /././.",
"8.Z.^.^.g.g.^.^.^.  /.= q =     ",
"0.A.^.k.` ` k.^.^.  p z.y.I.p = ",
"6.V.^.Y.$.%.Y.^.G.4 ^.V.c.^.A.5 ",
"k x v C U.M.| ` U e.^.^.H.m.^.9.",
"j c v u.^.^.g.` Y s J.^.^.H.v.u ",
"h l z Z B.N.[ ! Q > 1 f t.u ,   "
};
