/* XPM */
static char *magick[] = {
/* columns rows colors chars-per-pixel */
"16 16 169 2",
"   c Gray0",
".  c #020202",
"X  c Gray1",
"o  c #070404",
"O  c #060606",
"+  c #070707",
"@  c #0b0000",
"#  c #0d0702",
"$  c #090c0e",
"%  c #0c0c0c",
"&  c #060d13",
"*  c #100303",
"=  c #130900",
"-  c #180303",
";  c #111111",
":  c Gray8",
">  c Gray22",
",  c #0b5656",
"<  c #1d5d5d",
"1  c #006e6e",
"2  c #422b16",
"3  c #7b3a00",
"4  c #464647",
"5  c #474a4c",
"6  c #4e4e4e",
"7  c #555555",
"8  c #725c5c",
"9  c #6c6363",
"0  c #6a6a6a",
"q  c #6f6d6d",
"w  c #6e6f70",
"e  c #6f7578",
"r  c #6f787c",
"t  c #7c6f6f",
"y  c Gray46",
"u  c #747679",
"i  c #797979",
"p  c #00a3a3",
"a  c #03a3a3",
"s  c #03a4a4",
"d  c #00b0b0",
"f  c #01b1b1",
"g  c #00b2b2",
"h  c #00bcbc",
"j  c #318d8d",
"k  c #389a9a",
"l  c #00cfcf",
"z  c #00d0d0",
"x  c #00dcdc",
"c  c #00dede",
"v  c #00e0e0",
"b  c #00e8e8",
"n  c #30c0c0",
"m  c #3ec0c0",
"M  c #3ecdcd",
"N  c #6e9191",
"B  c #7a8989",
"V  c #60c6c6",
"C  c #6adada",
"Z  c #77c1c1",
"A  c #7becec",
"S  c #9a3d00",
"D  c #91531c",
"F  c #a14400",
"G  c #a24400",
"H  c #a44500",
"J  c #877a5c",
"K  c #897070",
"L  c #ffbd53",
"P  c #ffc050",
"I  c #ffc75d",
"U  c #ffc961",
"Y  c #ffe170",
"T  c #858686",
"R  c #868686",
"E  c Gray53",
"W  c #8b8783",
"Q  c #888888",
"!  c #8e8e8e",
"~  c #8d9599",
"^  c Gray57",
"/  c #929292",
"(  c #949594",
")  c #959597",
"_  c Gray59",
"`  c #979797",
"'  c #93989c",
"]  c #989797",
"[  c #989898",
"{  c #999898",
"}  c Gray60",
"|  c #9c9d9d",
" . c #959da6",
".. c #9b9ea2",
"X. c #80bfbf",
"o. c #9aa3a3",
"O. c #9aa0a5",
"+. c #a7a187",
"@. c #b2ae86",
"#. c #b8b289",
"$. c #bdba92",
"%. c #beba92",
"&. c #a0a3a3",
"*. c #a2a2a2",
"=. c Gray64",
"-. c #a4a4a4",
";. c #a6a7a7",
":. c #a4aeae",
">. c #aaabac",
",. c Gray69",
"<. c #b4b0b0",
"1. c #b4b2b2",
"2. c #b7b3b3",
"3. c Gray71",
"4. c #bcb9bd",
"5. c #bcbcbc",
"6. c Gray75",
"7. c #83cbcb",
"8. c #84d4d5",
"9. c #adcccc",
"0. c #bfc0c0",
"q. c #a3e4e4",
"w. c #c3b5b5",
"e. c #cdbfbf",
"r. c #d1b5b5",
"t. c #d0b6b6",
"y. c #d2b5b5",
"u. c #d3b9b9",
"i. c #c1c1c1",
"p. c #c3c0c0",
"a. c Gray76",
"s. c #c8c8c8",
"d. c Gray79",
"f. c #c9caca",
"g. c #cacbcb",
"h. c #cbcbcb",
"j. c #c8c9cd",
"k. c #c8cbce",
"l. c #cbcccc",
"z. c #cececd",
"x. c #cfd0d0",
"c. c Gray82",
"v. c #d5d6da",
"b. c #d8d8d8",
"n. c Gray85",
"m. c #dadada",
"M. c Gray86",
"N. c #dfdfdf",
"B. c #e5dcdc",
"V. c #e5dfdf",
"C. c #e6dcdc",
"Z. c #e9d8d8",
"A. c #ebdbdb",
"S. c #f8dede",
"D. c Gray88",
"F. c Gray89",
"G. c #e7e0e0",
"H. c #e4e4e4",
"J. c #e7e7e7",
"K. c #e8e0e0",
"L. c #efe0e0",
"P. c #efebef",
"I. c #e7eef6",
"U. c #f4e3e3",
"Y. c #f2ecec",
"T. c #f4eded",
"R. c #f3f3f3",
"E. c #f4f3f3",
"W. c None",
/* pixels */
"W.W.W.; Q ` ` ` ` ` ` [ 0 o W.W.",
"W.W.W.  n.l.d.d.d.d.d.n.-.  W.W.",
"W.W.W.o L.y.y.y.y.u.w.2.E   W.  ",
"W.W.W.* q.n m m m M < t E i E 7 ",
"W.W.W.- A z z z l v 1 S.G.K.T.[ ",
"  W.W.@ 8.p p p a f , p.o.&.:.B ",
"# 2 J $ P.V.V.C.A.Y.K C x x b k ",
"= 3 Y $.' 4.2.2.2.p.8 V d d h j ",
"    H U @.r k.i.0.x.9 9.Z X.7.N ",
"W.W.  G I $.~ v.c.D.q V.A.Z.U.] ",
"W.W.W.  G L #.e >.3.6 E ` | -.y ",
"W.W.W.& O.S P +...E.` 4 >     % ",
"W.W.W.o I.w D W 5 i.5.z.&.  W.W.",
"W.W.W.  H.k. .u [ d.i.d.&.  W.W.",
"W.W.W.o R.n.N.H.N.n.n.D.,.  W.W.",
"W.W.W.: ! / / / / / / / y % W.W."
};
