/* XPM */
static char *magick[] = {
/* columns rows colors chars-per-pixel */
"32 32 12 1",
"  c Gray0",
". c #585858",
"X c Blue",
"o c #00c0c0",
"O c #800000",
"+ c Red",
"@ c #ffa858",
"# c #808080",
"$ c #c0c0c0",
"% c #c0c0ff",
"& c Gray100",
"* c None",
/* pixels */
"**********************   *******",
"********************     *******",
"******************  @@ % *******",
"****************  @@++ % *******",
"*************** @@++++ % *******",
"****************  ++++ % *******",
"******************  OO % *******",
"********************   % *******",
"********************** % *******",
"********************** % *******",
"********************** % *******",
"**************   ***** % *******",
"************  #$X  *** % *******",
"**********  #$$X$X#  * % *******",
"********  #$$X$$XX$$#  %   *****",
"******  #&##$$XX$$$  # % $#  ***",
"****  #$$$&&##$$$  #$$ % $$$#  *",
"**  #$$$$oX$&&## #$$$$ % $$$$$# ",
"  #$$$$oX$$X$$&& &&$$$   $$$$&& ",
" $&&$oX$$XX$$$## $$&&$$$$$$&&## ",
" $$$&&$XX$$$##&&##$$$&&$$&&#### ",
" $$$$$&&$$##&&$$$$X#$$$&&###### ",
" $$$$$$$##&&$$$$X$$X##$$.###### ",
"  #$$$$$#&&&$$X$$XX$$$#$.###### ",
"**  #$$$#&$$&&$XX$$$&&#$.#####  ",
"****  #$#&$$$$&&$$&&###$.###  **",
"******  #&$$$$$$&&#####$.#  ****",
"********  #$$$$$#######$  ******",
"**********  #$$$######  ********",
"************  #$####  **********",
"**************  ##  ************",
"****************  **************"
};
