/* XPM */
static char *magick[] = {
/* columns rows colors chars-per-pixel */
"32 32 12 1",
"  c Gray0",
". c Red",
"X c #808000",
"o c #c0c000",
"O c Yellow",
"+ c #808080",
"@ c #a0a0a4",
"# c #ffdca8",
"$ c #c0c0c0",
"% c #ffffc0",
"& c Gray100",
"* c None",
/* pixels */
"********      ******************",
"******  @$$$$@  ****************",
"***** @&$&$&$&&@    ************",
"***** @&&$&$&$&@ %#o  **********",
"***** @@@$$$$@@@ %%%%o *********",
"***      @@@@@$+ %%%%o *********",
"*  o#%%#o  $$$@@ %#oXX *********",
" o%%%%%%%%o @@$+ XXX   *********",
" o%%%%%%%%o $$@@ o  && *********",
" XXo#%%#oXX @@$+  &&&&& ********",
" %OXXXXXXXX $$  &&&&.&&& *******",
" XXooooooXX   &&&&&...&&& ******",
" %OXXXXXXX  &&&&&&&&&&&&&& *****",
" XXooooo  &&&&&&&&&&&&&&&&& ****",
" %OXXX  &&&&&&&&&&&&&&&&&&&& ***",
"   o  &&&&&&&&&&&&&&&&&&&.&&& **",
"    &&&&&&&&&&&&.&&&&&&&...&&& *",
"  &&&&.&&&&&&&&...&&&&&&&&&&&&+ ",
" +&&&...&&&&&&&&&&&&&&&&&&&&++& ",
" &+&&&&&&&&&&&&&&&&&&&&&&&++&&+ ",
" +&+&&&&&&&&&&&&&&&&&&&&++&&++& ",
" &+&+&&&&&&&&&&&&&&&&&++&&++&&  ",
"* &+&+&&&&&.&&&&&&&&++&&++&&  **",
"** &+&+&&&...&&&&&++&&++&&  ****",
"*** &+&+&&&&&&&&++&&++&&  ******",
"**** &+&+&&&&&++&&++&&  ********",
"***** &+&+&&++&&++&&  **********",
"****** &+&++&&++&&  ************",
"******* &+&$++&&  **************",
"******** &++&&  ****************",
"********* &$  ******************",
"**********  ********************"
};
