/* XPM */
static char *magick[] = {
/* columns rows colors chars-per-pixel */
"32 32 13 1",
"  c Gray100",
". c #585858",
"X c #800000",
"o c #000080",
"O c #808000",
"+ c #c00000",
"@ c #0000c0",
"# c #c0c000",
"$ c Red",
"% c #ffc0c0",
"& c #c0c0ff",
"* c #ffffc0",
"= c Gray0",
/* pixels */
"================================",
"=..............................=",
"=..............................=",
"=.................@@@....$$$...=",
"=................@&&&@..$%%%$..=",
"=...............o@@@ &@X+++ %$.=",
"=...............o@@@@&@X++++%$.=",
"=...............o@@@@&@X++++%$.=",
"=................o@@@o..X+++X..=",
"=.................ooo....XXX...=",
"=...$$$...........###....$$$...=",
"=..$%%%$.........#***#..$%%%$..=",
"=.X+++ %$.......O### *#X+++ %$.=",
"=.X++++%$.......O####*#X++++%$.=",
"=.X++++%$.......O####*#X++++%$.=",
"=..X+++X.........O###O..X+++X..=",
"=...XXX...........OOO....XXX...=",
"=...$$$....@@@....$$$....@@@...=",
"=..$%%%$..@&&&@..$%%%$..@&&&@..=",
"=.X+++ %$o@@@ &@X+++ %$o@@@ &@.=",
"=.X++++%$o@@@@&@X++++%$o@@@@&@.=",
"=.X++++%$o@@@@&@X++++%$o@@@@&@.=",
"=..X+++X..o@@@o..X+++X..o@@@o..=",
"=...XXX....ooo....XXX....ooo...=",
"=...@@@....@@@....###....###...=",
"=..@&&&@..@&&&@..#***#..#***#..=",
"=.o@@@ &@o@@@ &@O### *#O### *#.=",
"=.o@@@@&@o@@@@&@O####*#O####*#.=",
"=.o@@@@&@o@@@@&@O####*#O####*#.=",
"=..o@@@o..o@@@o..O###O..O###O..=",
"=...ooo....ooo....OOO....OOO...=",
"================================"
};
