/* XPM */
static char *magick[] = {
/* columns rows colors chars-per-pixel */
"32 32 13 1",
"  c #c0c0c0",
". c Gray100",
"X c #008000",
"o c #800080",
"O c #808000",
"+ c #00c000",
"@ c Red",
"# c Magenta",
"$ c #ffffc0",
"% c #c05800",
"& c #ffdca8",
"* c #400000",
"= c Gray0",
/* pixels */
"================================",
"=XXXXXXXXX$$$$$$X$$$$$$XXXXXXXX=",
"=XXXXXXXX%&&&&&$%&&&&&$XXXXXXXX=",
"=XXXXXXXX%&@&@&$%&+&+&$XXXXXXXX=",
"=XXXXXXXX%&&@@&$%&*&*&$XXXXXXXX=",
"=XXXXXXXX%&&@&&$%&&+&&$XXXXXXXX=",
"=XXXXXXXX%&&@&&$%&&*&&$XXXXXXXX=",
"=XXXXXXXX%&@@&&$%&+&+&$XXXXXXXX=",
"=XXXXXXXX%&&&@&$%&*&*&$XXXXXXXX=",
"=XXXXXXXX%&&&&&$%&&&&&$XXXXXXXX=",
"=XXXXXXXX%%%%%%X%%%%%%XXXXXXXXX=",
"=XX$$$$$$X$$$$$$X$$$$$$X$$$$$$X=",
"=X%&&&&&$%&&&&&$%.....$%&&&&&$X=",
"=X%&###&$%&+&+&$%..  .$%&&&%&$X=",
"=X%&#&#&$%&*&*&$%. ...$%&%&O&$X=",
"=X%&&#&&$%&&+&&$%.   .$%&O&&&$X=",
"=X%&&&&&$%&&*&&$%.  ..$%&&&%&$X=",
"=X%&ooo&$%&+&+&$%.   .$%&%&O&$X=",
"=X%&&o&&$%&*&*&$%.   .$%&O&&&$X=",
"=X%&&&&&$%&&&&&$%.....$%&&&&&$X=",
"=X%%%%%%X%%%%%%X%%%%%%X%%%%%%XX=",
"=XXXXXXXXX$$$$$$X$$$$$$X$$$$$$X=",
"=XXXXXXXX%&&&&&$%&&&&&$%&&&&&$X=",
"=XXXXXXXX%&&&%&$%&###&$%&@&@&$X=",
"=XXXXXXXX%&%&O&$%&#&#&$%&&@@&$X=",
"=XXXXXXXX%&O&&&$%&&#&&$%&&@&&$X=",
"=XXXXXXXX%&&&%&$%&&&&&$%&&@&&$X=",
"=XXXXXXXX%&%&O&$%&ooo&$%&@@&&$X=",
"=XXXXXXXX%&O&&&$%&&o&&$%&&&@&$X=",
"=XXXXXXXX%&&&&&$%&&&&&$%&&&&&$X=",
"=XXXXXXXX%%%%%%X%%%%%%X%%%%%%XX=",
"================================"
};
