/* XPM */
static char *magick[] = {
/* columns rows colors chars-per-pixel */
"16 16 142 2",
"   c Gray0",
".  c #010101",
"X  c #070303",
"o  c #040404",
"O  c #070707",
"+  c #030808",
"@  c #0b0b0b",
"#  c #0d0909",
"$  c #101010",
"%  c #111111",
"&  c Gray7",
"*  c #131313",
"=  c #003131",
"-  c #003434",
";  c #003636",
":  c #1b2a2a",
">  c Gray19",
",  c #373535",
"<  c #3e3636",
"1  c #3a3a3a",
"2  c #3b3a3a",
"3  c #3b3d3d",
"4  c #3c3c3c",
"5  c Gray24",
"6  c #3e3e3e",
"7  c #3f3f3f",
"8  c #005555",
"9  c #007e7e",
"0  c #344646",
"q  c #374a4a",
"w  c Gray25",
"e  c #414444",
"r  c #444343",
"t  c #464445",
"y  c #464646",
"u  c #474949",
"i  c #494949",
"p  c #405f5f",
"a  c #535353",
"s  c #555555",
"d  c Gray35",
"f  c #5a5a5a",
"g  c Gray36",
"h  c #5f5f5f",
"j  c Gray39",
"k  c Gray40",
"l  c Gray41",
"z  c #6a6a6a",
"x  c #726a6e",
"c  c #716c6d",
"v  c Gray44",
"b  c #717171",
"n  c #747272",
"m  c #747373",
"M  c #757373",
"N  c #757474",
"B  c #777777",
"V  c #7a7578",
"C  c Gray50",
"Z  c #008282",
"A  c #008585",
"S  c #008787",
"D  c #058686",
"F  c #008888",
"G  c #008989",
"H  c #048989",
"J  c #078989",
"K  c #149595",
"L  c #818182",
"P  c Gray51",
"I  c #808585",
"U  c #858181",
"Y  c #848484",
"T  c Gray52",
"R  c #868484",
"E  c #878686",
"W  c #87878b",
"Q  c #878888",
"!  c Gray54",
"~  c Gray55",
"^  c Gray57",
"/  c #939595",
"(  c #959696",
")  c Gray59",
"_  c #979797",
"`  c #989898",
"'  c Gray60",
"]  c #9f9fa4",
"[  c #82b682",
"{  c #a0a0a0",
"}  c #a2a0a2",
"|  c #a5a3a5",
" . c #aaaaaa",
".. c #a9a9af",
"X. c #acacac",
"o. c #b2a0a0",
"O. c #bcacac",
"+. c #b1b0b1",
"@. c #b7b3b3",
"#. c #bdb0b0",
"$. c #b9b9b9",
"%. c #bdb9b8",
"&. c Gray74",
"*. c Gray75",
"=. c #90c490",
"-. c #c0c0c0",
";. c #c1c1c1",
":. c Gray76",
">. c #ccc8c8",
",. c #cfcdd0",
"<. c #d0cccc",
"1. c #d0cfcf",
"2. c Gray82",
"3. c #d2d2d2",
"4. c #d3d2d2",
"5. c #d3d3d3",
"6. c #d4d3d3",
"7. c Gray83",
"8. c #d5d4d4",
"9. c #d7d7d7",
"0. c #d5d8d8",
"q. c #d8d8d8",
"w. c #d9dbdb",
"e. c #dadada",
"r. c #dcdada",
"t. c #dddbdb",
"y. c gainsboro",
"u. c Gray87",
"i. c #dbeddb",
"p. c #e1e1e1",
"a. c #e1e3e3",
"s. c #e3e3e5",
"d. c #e1e4e4",
"f. c #e4e4e4",
"g. c #eae5ea",
"h. c #eaeaea",
"j. c #efeaef",
"k. c #e8fbe9",
"l. c #f3f3f3",
"z. c #f4f4f4",
"x. c Gray97",
"c. c None",
/* pixels */
"h T ` _ _ _ _ _ _ _ ` i   c.c.c.",
"T :.1.6.q.q.q.q.8.4.q.s c.c.c.c.",
"_ 1.j 3 , 5 5 w 5 w 4.5 c.c.c.c.",
"_ 4.e p +           l.w c.c.c.c.",
"_ 8.u : 0 q       o x.5 c.c.c.c.",
"_ 8.5               x.1       % ",
"_ 4.>               h.5 W ] ..L ",
"_ y. .T ~ ~ ~ ~ Q ^ x.r ,.s.+.B ",
"l { $.&.:.:.&.@.#.O.o.< I %.T v ",
"o             1 = - - 8 Z 0.U v ",
"      c.c.c.# _ Z G G 9 A f.U v ",
"        %   X / D H H A K d.T d ",
"      % y.@   >.p.r.r.r.q.1.B l ",
"c.c.c.  y     y V x c m B m ! L ",
"c.c.c.c.  c.  g.k.i.j.8.4.p.X.a ",
"c.c.c.c.c.c.% | =.[ { k h C d @ "
};
