/* XPM */
static char *magick[] = {
/* columns rows colors chars-per-pixel */
"16 16 78 1",
"  c Gray0",
". c #010100",
"X c #020200",
"o c #040404",
"O c #040405",
"+ c #0b0b00",
"@ c #141400",
"# c #19191a",
"$ c #242400",
"% c #252500",
"& c #262600",
"* c #292900",
"= c #2b2b00",
"- c #2c2c00",
"; c #1b1b5a",
": c #454532",
"> c #4a4a3c",
", c #7a7a00",
"< c #7b7b00",
"1 c #454540",
"2 c #454546",
"3 c #46464c",
"4 c #46464d",
"5 c #4d4d50",
"6 c #545440",
"7 c #41416d",
"8 c #616164",
"9 c #4d4d86",
"0 c #7d7db4",
"q c #838300",
"w c #9e9e03",
"e c #a1a134",
"r c #bebe2d",
"t c #b9b930",
"y c #a0a043",
"u c #a0a045",
"i c #a0a046",
"p c #a4a446",
"a c #c0c02f",
"s c #808085",
"d c #85858c",
"f c #89898c",
"g c #c4c486",
"h c #d3d3b1",
"j c #e4e490",
"k c #e5e591",
"l c #e4e492",
"z c #e6e693",
"x c #efef98",
"c c #f4f48c",
"v c #f3f398",
"b c #f3f39e",
"n c #ffff9e",
"m c #eeeea2",
"M c #ededb7",
"N c #f3f3a2",
"B c #ffffae",
"V c #efefc0",
"C c #fefec6",
"Z c #ffffca",
"A c #ffffce",
"S c #f7f7d5",
"D c #f7f7de",
"F c #ffffd0",
"G c #ffffd2",
"H c #ffffd8",
"J c #ffffda",
"K c #ffffdb",
"L c #ffffdc",
"P c LightYellow",
"I c #ffffe6",
"U c #ffffe9",
"Y c #fffff3",
"T c #fffff5",
"R c #fcfcff",
"E c #fffffc",
"W c Gray100",
"Q c None",
/* pixels */
"QQQQQQQQQQQQQQQQ",
"QQQQQQQQQQQQQQQQ",
"QQQQQQQQQQQQQQQQ",
"QQQQQQQQ o QQQQQ",
"QQQQQQQQ5Wdo QQQ",
"QQQQQQQ4WBWWso  ",
"QQQQQQ4WNMjxWWf#",
"QQQQQ2WbSjjVWWW6",
"QQQQ1YWUWWDjWWp-",
"QQQ:AWH09WWWWi$ ",
" Q>LFC8;hWWWi$QQ",
"  tnHg7mTWIy$QQQ",
"  *,acFHFPi$QQQQ",
"QQQ $,rvZe$QQQQQ",
"QQQQQ $qw*QQQQQQ",
"QQQQQQ +@ QQQQQQ"
};
