/* XPM */
static char *magick[] = {
/* columns rows colors chars-per-pixel */
"32 32 257 2",
"   c Gray0",
".  c Gray2",
"X  c #0b0606",
"o  c #0c0a05",
"O  c #0c0c0a",
"+  c #030909",
"@  c #0a0d13",
"#  c #0b110d",
"$  c #061013",
"%  c #0e1413",
"&  c #0c1a1a",
"*  c #110e0c",
"=  c #1b0e05",
"-  c #130e10",
";  c #12130e",
":  c #1a170e",
">  c #18190f",
",  c #161512",
"<  c #131414",
"1  c #131913",
"2  c #141d1c",
"3  c #1a1614",
"4  c #1b1c16",
"5  c #1b1b1a",
"6  c #13141a",
"7  c #1d231a",
"8  c #1d2b19",
"9  c #25170f",
"0  c #241e16",
"q  c #231d1d",
"w  c #2c1d14",
"e  c #2d1b19",
"r  c #371a13",
"t  c #231f23",
"y  c #27200e",
"u  c #2b2312",
"i  c #2d241a",
"p  c #25271a",
"a  c #362017",
"s  c #34241c",
"d  c #3a2415",
"f  c #3b261d",
"g  c #3a2b1d",
"h  c #3b3019",
"j  c #333d18",
"k  c #252523",
"l  c #2b2c25",
"z  c #2c2c2a",
"x  c #272b26",
"c  c #2e2b35",
"v  c #2e342e",
"b  c #3e2d24",
"n  c #362722",
"m  c #37362e",
"M  c #333927",
"N  c #353f2f",
"B  c #3c332d",
"V  c #3c3a25",
"C  c #3a3d34",
"Z  c #353935",
"A  c #3e433a",
"S  c #3a4537",
"D  c #45251f",
"F  c #442b1b",
"G  c #4d2e17",
"H  c #4d2d1d",
"J  c #432816",
"K  c #4a321c",
"L  c #46311a",
"P  c #532c1b",
"I  c #5e271e",
"U  c #5f2c16",
"Y  c #5c2d1c",
"T  c #542514",
"R  c #54321b",
"E  c #5b321b",
"W  c #553517",
"Q  c #452c23",
"!  c #473323",
"~  c #473e38",
"^  c #5a2b21",
"/  c #5e3421",
"(  c #543624",
")  c #682e1a",
"_  c #63311c",
"`  c #633a1e",
"'  c #6c341c",
"]  c #6b3415",
"[  c #722d1b",
"{  c #7e2f1b",
"}  c #74341d",
"|  c #7c351e",
" . c #7b391e",
".. c #753819",
"X. c #633421",
"o. c #643922",
"O. c #6c3724",
"+. c #693c22",
"@. c #753b21",
"#. c #7a3423",
"$. c #793b24",
"%. c #47402a",
"&. c #464135",
"*. c #42453c",
"=. c #4a4b3d",
"-. c #4a493a",
";. c #48533f",
":. c #544f3f",
">. c #524631",
",. c #54533a",
"<. c #585436",
"1. c #6e4412",
"2. c #7c441f",
"3. c #6b4f2f",
"4. c #68442a",
"5. c #654834",
"6. c #69502e",
"7. c #6a553c",
"8. c #744324",
"9. c #7b4431",
"0. c #755939",
"q. c #7f663f",
"w. c #636837",
"e. c #464643",
"r. c #464d43",
"t. c #4c4c43",
"y. c #4a4744",
"u. c #4d4d51",
"i. c #544b46",
"p. c #535443",
"a. c #565c4c",
"s. c #585646",
"d. c #535551",
"f. c #565957",
"g. c #5d6654",
"h. c #635c4c",
"j. c #655c53",
"k. c #735f4e",
"l. c #72574e",
"z. c #656e55",
"x. c #6e6759",
"c. c #686457",
"v. c #6f7858",
"b. c #746a56",
"n. c #686d61",
"m. c #6e7567",
"M. c #73726c",
"N. c #7c7b73",
"B. c #8c2e1c",
"V. c #85361c",
"C. c #863d1b",
"Z. c #8b371d",
"A. c #8b3b1c",
"S. c #95361e",
"D. c #943b1c",
"F. c #9b3d1b",
"G. c #8e3523",
"H. c #8b3c25",
"J. c #843422",
"K. c #953424",
"L. c #913b21",
"P. c #9c3c22",
"I. c #983b25",
"U. c #a23e1c",
"Y. c #a63b1c",
"T. c #b13b1e",
"R. c #bb3d1c",
"E. c #b53918",
"W. c #a53c20",
"Q. c #ab3a21",
"!. c #a93521",
"~. c #b33624",
"^. c #b23c21",
"/. c #b83821",
"(. c #874317",
"). c #8d401e",
"_. c #89461b",
"`. c #96401d",
"'. c #9b441e",
"]. c #844320",
"[. c #8d4925",
"{. c #815a3b",
"}. c #934121",
"|. c #974f21",
" X c #9b4423",
".X c #9d4524",
"XX c #9c4d30",
"oX c #9a573a",
"OX c #88562b",
"+X c #a3411d",
"@X c #a34a1c",
"#X c #a9431b",
"$X c #b4431c",
"%X c #b34a1e",
"&X c #bb441d",
"*X c #ba4b1f",
"=X c #b54a16",
"-X c #b75f1e",
";X c #bc581e",
":X c #a24820",
">X c #ab4326",
",X c #ad4a22",
"<X c #a64425",
"1X c #a55625",
"2X c #a2572f",
"3X c #ad5821",
"4X c #b54523",
"5X c #b54922",
"6X c #bd4323",
"7X c #bc4b22",
"8X c #b64d29",
"9X c #b25220",
"0X c #b95723",
"qX c #b96419",
"wX c #ac622b",
"eX c #ba6124",
"rX c #b8742a",
"tX c #8b7a5c",
"yX c #99634b",
"uX c #9c7b5e",
"iX c #877877",
"pX c #c33e1f",
"aX c #c24a1e",
"sX c #c44c27",
"dX c #bb802c",
"fX c #be8e39",
"gX c #858376",
"hX c #878f71",
"jX c #8e857a",
"kX c #878c79",
"lX c #8d917c",
"zX c #918772",
"xX c #99997e",
"cX c #bcb97c",
"vX c #c2853f",
"bX c #c4923d",
"nX c #cc8b40",
"mX c #c09952",
"MX c #d0a959",
"NX c #d1cb7b",
"BX c #8a8a84",
"VX c #8b9384",
"CX c #918883",
"ZX c #9a9885",
"AX c #909592",
"SX c #9ba38b",
"DX c #9ea197",
"FX c #a09994",
"GX c #aca38e",
"HX c #a3a49b",
"JX c #a5aa98",
"KX c #bbbdae",
"LX c #bebbb1",
"PX c #c5bf80",
"IX c #cec78d",
"UX c #d4d9b8",
"YX c None",
/* pixels */
"YXYXYXYXYXYXYXYXYXYXYXYXYXYXYXYX  k C x z YXYX5 h.* YXYXYXYXYXYX",
"YXYXYXYXYXYXYXYXYXYXYXYXYXYXYXYXYXz x   ; YXYXk zXo YXYXYXYXYXYX",
"YXYXYXYXYXYXYXYXYXYXYXYXYXYXYXYXO x ! m t YX4 t.7   YX. c.j.3 YX",
"YXYXYXYXYXYXYXYXYXYXYXYXYXO X s.=.p.h.a.t.y.iX! 1 v e.g.p.q X YX",
"YXYXYXYXYXYXYXYXYXYXYXYXa XX8X8X2X,.x &.s.k 2 z x 4 N HXYXYXYX  ",
"YXYXYXYXYXYXYXYXYXYXF @.5X%X$XE.R.A.u 5 p ; : : 4 < 5 Z YXYX6 l ",
"YXYXYXYXYXYXYXYXYXQ 9.`.8X9X0XR.R.sXU M cX5 @ < , , 4 N d.x.LXc.",
"YXYXYXYXYX.   f.i @. XrXbXrX-X*XaX{ 3 %.NXz.;.2 % 5 Z *.lXKXHXS ",
"YXYXYXYXYX# B ( ' wXMXUXIXdX0X5X:X_.8.u w ].{.l # 8 ;.B t.AXn.3 ",
"YXYXYXYXYXYXD @.1XnXNXIXmXeX,X}.3X=X*X`.K.E.Y..X].( A l =.=.t X ",
"YXYXYXYXYXl.oXV.1XnXmXfXqX=X'.,XsX=XT.%XU.B.) | `.C.b 7 i i ; YX",
"YXYXYXYX-.k.w ( <X0X;X;X@X'.9X*X&X#X#XY.D._ P P G _ ).K 5 v.S YX",
"YXYXYXYX*.O ; & P aX&XW..X%XsX0X#X#XU.S.#.' E J g P ] A.6.m.YXYX",
"YXYXYX: i., 7 q i ,X6X}.5XpX7X6XQ.@X XZ.' E W K f F / '.1.hX&.YX",
"YXYXYXB 5 5 k 6 & <X#X+X5X7X5X5X4X:X@X .Y P G H J F P F.8.kXt.YX",
"YXYXYX&.4 2 k 4 ^ U.).7XR.6X%X%X:XA.V.' _ R K F F K E Z.OXBXA YX",
"YXYXYXn 2 x $.^./.G.+X6X~.~.>X4XP % 3 5 e G J f d h _ V.5.DXr.YX",
"YXYXYXP ! X.W.Q.Y.I.4X/./.E.^.V.< @ < - - p D n s b ` ..i ZXe.YX",
"YXYXYX/ +.#.Y.!.K.'.$X^.^.~.$Xu $ ; 1 , > 1 a s i f } U j ZXA YX",
"YXYXYX/ $.(.K.!.S.>X^.^.W.Y.^.9 ; < > 3 5 < e s f F :XT -.GXA YX",
"YXYXYX4.@.@.P.P.P.P.F.W.P.F.!.r $ ; 1 < ; 5 b g g _ 9X= a.LXt.YX",
"YXYXYXb o.@.D.S.F.U.P.<XW.W.W.' , 1 , , < 0 h g b ..|.# a.FXYXYX",
". YXz >.O._ J.Z.Z.K.I.P.L.D.P.$.u @ < , 5 w s ! ' ].<.@ x.i.YXYX",
"C p.hX~ yXU #.O.} U.S.Z.| } } ' H i 0 p g s g W (.q.M.7 xX< YXYX",
"<.w.YXYX7.#.J.X.#. XL.[ ) Y P _ R F H G g g G } ] x.B M jXYXYXYX",
"<.V YXYXYXP L._ o.G.' P E E ^ K L Q ! J L E D.@.k.M.a.SXe.YXYXYX",
"C 5 YXYXYX% uX[ _ ' / / / X./ ! H P X.o.2.8.0.v.N.lXm.C YXYXYXYX",
"< . YXYXYXYXd.b.o.J.' #.| _ / O.Y |  X5X` ,.gXkXjXSXS YXYXYXYXYX",
"YXYXYXYXYXYXYXv <.oXH.P.5X XH..X[.].O.U p z.gXCXHXVXYXYXYXYXYXYX",
"YXYXYXYXYXYXYXYX+ + p.tX3.4.( 4.6.7.h.& r.HXJXZXBXz YXYXYXYXYXYX",
"YXYXYXYXYXYXYXYXYXYXYXYXYXYXYXYXYX1 f.q y c AXBXYXYXYXYXYXYXYXYX",
"YXYXYXYXYXYXYXYXYXYXYXYXYXYXYXYXYX. k &.>.YXu.N.  YXYXYXYXYXYXYX"
};
