/* XPM */
static char *magick[] = {
/* columns rows colors chars-per-pixel */
"16 16 210 2",
"   c Gray0",
".  c #010101",
"X  c #000002",
"o  c #020202",
"O  c #030302",
"+  c Gray1",
"@  c #000205",
"#  c #040303",
"$  c #050403",
"%  c #060606",
"&  c #060c0d",
"*  c #080405",
"=  c #0b0707",
"-  c #0e0703",
";  c #080807",
":  c #0a0907",
">  c #090a0a",
",  c #0c0c0b",
"<  c #0c0d0b",
"1  c #0c0d0c",
"2  c #0e100f",
"3  c #071111",
"4  c #071210",
"5  c #0e1311",
"6  c #0f1311",
"7  c #0e1411",
"8  c #0d1514",
"9  c #0f1414",
"0  c #08171a",
"q  c #180f09",
"w  c #12100f",
"e  c #14110d",
"r  c #1d150e",
"t  c #1e160f",
"y  c #111411",
"u  c #141512",
"i  c #171614",
"p  c #171615",
"a  c #141d1b",
"s  c #191a15",
"d  c #1d1d16",
"f  c #181d19",
"g  c #1a1d19",
"h  c #1e1f19",
"j  c #17201c",
"k  c #1f231f",
"l  c #261916",
"z  c #2d1e1a",
"x  c #21221a",
"c  c #22221b",
"v  c #20211c",
"b  c #21221f",
"n  c #2e2417",
"m  c #2d241c",
"M  c #322018",
"N  c #33231e",
"B  c #31261b",
"V  c #362418",
"C  c #39241d",
"Z  c #3a291b",
"A  c #3b2b19",
"S  c #3a291c",
"D  c #3f291b",
"F  c #272d20",
"G  c #2b2120",
"H  c #292623",
"J  c #282a23",
"K  c #292a23",
"L  c #2b2825",
"P  c #2a2c23",
"I  c #2d3125",
"U  c #322d28",
"Y  c #32342c",
"T  c #36332d",
"R  c #34342c",
"E  c #353a2e",
"W  c #38352e",
"Q  c #39392e",
"!  c #3b392f",
"~  c #363733",
"^  c #3d3a33",
"/  c #3e3f35",
"(  c #3e4035",
")  c #491f13",
"_  c #402819",
"`  c #442a1c",
"'  c #462c1e",
"]  c #4b2b1a",
"[  c #4b2f1c",
"{  c #4f2d1b",
"}  c #4f2f1b",
"|  c #4e321f",
" . c #522e1d",
".. c #582d14",
"X. c #5f2e14",
"o. c #5b2f1d",
"O. c #5d2d1b",
"+. c #5f311c",
"@. c #472d24",
"#. c #4f3c2c",
"$. c #403f37",
"%. c #593320",
"&. c #662d13",
"*. c #663017",
"=. c #65301a",
"-. c #64311e",
";. c #67321d",
":. c #6d321d",
">. c #6d341e",
",. c #69381a",
"<. c #6a3c1c",
"1. c #6c381b",
"2. c #703216",
"3. c #753111",
"4. c #79371f",
"5. c #7f371e",
"6. c #7c381f",
"7. c #663022",
"8. c #6f3e24",
"9. c #6b3c2b",
"0. c #713621",
"q. c #783c26",
"w. c #46482f",
"e. c #434235",
"r. c #41403a",
"t. c #43433a",
"y. c #42433d",
"u. c #52452e",
"i. c #5a4329",
"p. c #6e4530",
"a. c #6b4b39",
"s. c #68583f",
"d. c #734025",
"f. c #7c4126",
"g. c #7d4929",
"h. c #7c4b2e",
"j. c #744c30",
"k. c #7a4b30",
"l. c #725637",
"z. c #7a5a3e",
"x. c #464a42",
"c. c #4f5147",
"v. c #55554a",
"b. c #57574f",
"n. c #545650",
"m. c #5d6848",
"M. c #5e6051",
"N. c #65655c",
"B. c #6c685c",
"V. c #666e63",
"C. c #6c6d67",
"Z. c #6f7067",
"A. c #81351e",
"S. c #84301b",
"D. c #843d1c",
"F. c #95351d",
"G. c #90381d",
"H. c #933b1f",
"J. c #973a1f",
"K. c #973c1f",
"L. c #98361a",
"P. c #9a361e",
"I. c #893720",
"U. c #9f3b24",
"Y. c #a2391a",
"T. c #a03b1e",
"R. c #a43f1d",
"E. c #a53921",
"W. c #a53c21",
"Q. c #a53e21",
"!. c #ad3f21",
"~. c #b93b20",
"^. c #bd3c21",
"/. c #9a441e",
"(. c #854329",
"). c #894a29",
"_. c #884831",
"`. c #964024",
"'. c #9d4d2e",
"]. c #955234",
"[. c #a6411b",
"{. c #a7491c",
"}. c #a9451e",
"|. c #ac471d",
" X c #b5461d",
".X c #b9441b",
"XX c #b84a1e",
"oX c #a84122",
"OX c #b24223",
"+X c #b54620",
"@X c #b44821",
"#X c #b84323",
"$X c #bb4b21",
"%X c #b15927",
"&X c #b55c20",
"*X c #b77231",
"=X c #856149",
"-X c #9b6440",
";X c #c83f1b",
":X c #c1461d",
">X c #c7511c",
",X c #c04a23",
"<X c #c26028",
"1X c #8a8576",
"2X c #d29e51",
"3X c #cda665",
"4X c #cfb66e",
"5X c #939a89",
"6X c #9ca295",
"7X c None",
/* pixels */
"7X7X7X7X7X7X7X7X< K u < ! $ % # ",
"7X7X7X7X7X7X7X7Xa ( b H R 1 ^ w ",
"7X7X7X7X7X  ) `.].e./ U h x.b : ",
"7X7X7X7X> 0.<X>X;X] m.j & k c.N.",
"7X7X7XG g.3X4X&X|.,.j.k.n E Z.b.",
"7X7Xi 9.%X2X*X{.XX.XY.S.D.| I x ",
"7X7XT f -.:X[.$X XR.5.} _ 2.l.P ",
"7X: K 0 C }.+X,X@X/.-.} D *.-X$.",
"7X= L 7.P.oX^.#XO.l M ` S X.=Xy.",
"7X- 8.E.W.OX~.L.3 3 5 z N &.s.t.",
"7X= d.K.T.W.!.F.5 7 y m ' 3.B.t.",
"s Y p.A.H.U.J.H.V 9 d B <.i.n.i ",
"w.F @.6.4.I.=.o.[ A A ..h.M.v.  ",
"x 7X7Xa.q.:.+.%. .>.1.z.1XV.2 7X",
"  7X7X9 #._.'.(.).f.u.5X6Xf 7X7X",
"7X7X7X7X  e t q t W ! C.~   7X7X"
};
