/* XPM */
static char *magick[] = {
/* columns rows colors chars-per-pixel */
"32 32 252 2",
"   c Gray0",
".  c #030504",
"X  c #030a03",
"o  c #0a0604",
"O  c #0a0907",
"+  c #0c0b0c",
"@  c #050a0b",
"#  c #0c0d11",
"$  c #09150d",
"%  c #0d1313",
"&  c #081716",
"*  c #150a08",
"=  c #14120c",
"-  c #19140f",
";  c #171606",
":  c Gray8",
">  c #111c15",
",  c #1e1a14",
"<  c #1c1c1b",
"1  c #1a1616",
"2  c #161721",
"3  c #00271a",
"4  c #1b211c",
"5  c #192626",
"6  c #1f2d35",
"7  c #2c0000",
"8  c #231e1c",
"9  c #231c14",
"0  c #26241d",
"q  c #312a1f",
"w  c #2c2a24",
"e  c #272826",
"r  c #2a2f30",
"t  c #28322c",
"y  c #352c2b",
"u  c #302b22",
"i  c #332e32",
"p  c #3a332b",
"a  c #333433",
"s  c #353a32",
"d  c #3f3b34",
"f  c #3a3b3a",
"g  c #37373a",
"h  c #273536",
"j  c #333444",
"k  c #3c413e",
"l  c #23504c",
"z  c #25767b",
"x  c #471514",
"c  c #443227",
"v  c #433d3b",
"b  c #463c3b",
"n  c #5c3331",
"m  c #790000",
"M  c #443e42",
"N  c #46433c",
"B  c #4c4238",
"V  c #55463c",
"C  c #4d4642",
"Z  c #4c4b46",
"A  c #48474b",
"S  c #494a58",
"D  c #4f504d",
"F  c #4a5556",
"G  c #574e4a",
"H  c #544c45",
"J  c #53534d",
"K  c #5c544c",
"L  c #5a5555",
"P  c #5c5b55",
"I  c #5a5b59",
"U  c #55565a",
"Y  c #434a60",
"T  c #565a68",
"R  c #5a625b",
"E  c #586967",
"W  c #50726d",
"Q  c #5b7976",
"!  c #635546",
"~  c #635c53",
"^  c #635e5c",
"/  c #655a56",
"(  c #65615d",
")  c #6c6359",
"_  c #76675b",
"`  c #766d54",
"'  c #666365",
"]  c #656864",
"[  c #6d6a6a",
"{  c #666466",
"}  c #656670",
"|  c #6d6d71",
" . c #63667a",
".. c #6c736f",
"X. c #6f7777",
"o. c #756d6b",
"O. c #786c64",
"+. c #73746f",
"@. c #7c726b",
"#. c #7a7b6e",
"$. c #7a7463",
"%. c #727373",
"&. c #7c7571",
"*. c #7b7a7b",
"=. c #797677",
"-. c #6d6d86",
";. c #737b99",
":. c #7b817c",
">. c #7b8684",
",. c #7d839e",
"<. c #7b9293",
"1. c #6a8588",
"2. c #7984a1",
"3. c #890000",
"4. c #91221b",
"5. c #a40000",
"6. c #ba0000",
"7. c #82746b",
"8. c #817c74",
"9. c #877b77",
"0. c #c30000",
"q. c #ca0000",
"w. c #db0000",
"e. c #e20101",
"r. c Red",
"t. c #8c7c86",
"y. c #87847a",
"u. c #948779",
"i. c #a68b76",
"p. c #848284",
"a. c #898989",
"s. c #848798",
"d. c #928f8f",
"f. c #938883",
"g. c #959289",
"h. c #9b9b95",
"j. c #9b9c9c",
"k. c #989798",
"l. c #889393",
"z. c #878aa1",
"x. c #8f97a9",
"c. c #9597aa",
"v. c #989cb6",
"b. c #9ba1a2",
"n. c #96bdb3",
"m. c #a7988a",
"M. c #a29fa1",
"N. c #a8a29c",
"B. c #b4a28c",
"V. c #b8a797",
"C. c #a5a8aa",
"Z. c #a8a6b7",
"A. c #b2aaaa",
"S. c #b9b4a9",
"D. c #b2b5b4",
"F. c #b7babc",
"G. c #bcbcb9",
"H. c #bab3b1",
"J. c #9da3c5",
"K. c #a2a6c4",
"L. c #a5a9c6",
"P. c #a5abcb",
"I. c #acabc5",
"U. c #adafc9",
"Y. c #a9adc9",
"T. c #a1a7c9",
"R. c #a5aed6",
"E. c #aeb1c9",
"W. c #abb1cc",
"Q. c #abb2d4",
"!. c #acb5da",
"~. c #a7b1db",
"^. c #b2b3c4",
"/. c #b1b2c9",
"(. c #b5b4cc",
"). c #bbbbcd",
"_. c #bab9c6",
"`. c #b2b7d6",
"'. c #b3bad9",
"]. c #bbbbd3",
"[. c #b9bdd9",
"{. c #b6bde3",
"}. c #bfc5c6",
"|. c #bec0d6",
" X c #bfc0d9",
".X c #bbc2e3",
"XX c #a7e4df",
"oX c #c5ac98",
"OX c #d0b29d",
"+X c #c9b59d",
"@X c #c8b4a1",
"#X c #c3bdb7",
"$X c #d3bfac",
"%X c #c1becf",
"&X c #c2bed0",
"*X c #d6c09a",
"=X c #c4c0b5",
"-X c #c9c6bd",
";X c #d7c2ae",
":X c #d4c8b7",
">X c #dfd1bb",
",X c #e5d4b9",
"<X c #e5c8b0",
"1X c Gray79",
"2X c #c3c4d4",
"3X c #c3c3dc",
"4X c #cacad8",
"5X c #c8d6d6",
"6X c #d5cdc9",
"7X c #d1cfdb",
"8X c #d3d5ce",
"9X c #ded7ca",
"0X c #d6d6d5",
"qX c #d6dad7",
"wX c #d8d8d7",
"eX c #c4c6e1",
"rX c #c6cae4",
"tX c #cbcbe2",
"yX c #cccfed",
"uX c #ccd1e3",
"iX c #ccd7ed",
"pX c #d6d7e7",
"aX c #d9ddf8",
"sX c #dfe1da",
"dX c #dee1f7",
"fX c #e1d5cf",
"gX c #f2dbc4",
"hX c #e6d9d2",
"jX c #e1dfee",
"kX c #e6dfe0",
"lX c #e9e0c9",
"zX c #ece5d6",
"xX c #f2e8cc",
"cX c #ffecd5",
"vX c #f6e9d3",
"bX c #ffffde",
"nX c #e5e3e3",
"mX c #e8e9e7",
"MX c #ecedfb",
"NX c #e7e8f7",
"BX c #edf1fd",
"VX c #eff2f1",
"CX c #f4ede4",
"ZX c #f3eef1",
"AX c #fcf3eb",
"SX c #fbf6e6",
"DX c #f3f4fe",
"FX c #fcfcf3",
"GX c Gray100",
"HX c #fefdfe",
"JX c #fdfefc",
"KX c #f7f5f7",
/* pixels */
". o p C v B g @ . . O . O . a U - . . o O O O O . . + d B B q o ",
"= o ) ] C ! T % : : < : 0 . U c.9 # : : < 9 9 1 : # 2 C ! ` ! 8 ",
") S.$X= 1 ; S.yXrXrXpXrXpXeXtXnX3XrXyXyXaXnXSX.XrX.X{.g v ^ VXd.",
"7.V.= ;.2X8X^.W.P.Y.U././.(.(./.(.3XT 5 7XtX(.Y.Y.P.Q.v.Y.: ~ O.",
"C G . v.!.P.P.Y.E.U./.].3XZ.j.4XU.pXE 7 e XX X/.U.Y.Y.P.7X9X#X*.",
"Z ' u v.Q.Y.E.E././.DX1X&.qXCXNX).zXW w.3.. 1.dXU.E.E.Y.J.R.iX*.",
"~ m.o.F.Y.E./././.tX9X, . . p CXVXqXW w.r.r.x n.pX^./.E.Y.J.|.F ",
"y y  .mXU.E.(.].HXA.. %.=Xg . : t.GX<.q.e.r.m z DXI.(.E.Y.J.dXP ",
"= X v.W.U./.).).p.$ e O.bXFX}.. . :.Q 5.. 3.m l KX_.).(./.J.MX:.",
"U s.{.U./.(.4XD.. 1 { m.S.i.zXD.. . 3 6.Q U * F KX(.v.^./.K.MX#.",
"| C.'.U.(.2X_.. - oX$X<Xs.*.N.GXe . $ 6.5 5XGXGXmX4Xj.qX(.K.MX>.",
"} s.`./.(.4XR 0 m.A.N.h.VXC.:XcXM . 3 0.. . e a.2X0X0X_./.L.MX#.",
"a.-X[./.4XC.. g w . I F.P %.fXGXg . 3 0.6 L 0 . . L d.=X2XI.MX>.",
"} c.[./.2X^.. ' . . . # H 7.K nX. . . 0.X s C h.=.. . 9.4XI.MX#.",
"A  .[./.&X8XX 4 . . . y v ~ -XKX. . . 6.h A e %.f.>Xq . 2X].MX>.",
"+ < pX(.3Xa H 8 . . = G g s H.GXy . * 0.& P [ u.O.C.lX* } 4XMXh.",
"# < 3X(.pXt Z O . = M C ~ Z M.FX. 3 4.e.& Z ' m.V.9.xX;X@ I.DXy.",
"5 a 3X2X4Xr < . .   . < 9.) :XZX. X q n F Z g I $.i.hXVX. c.HX$.",
"A  .eX/.r % $ . . : N y M H >XZX. > t j C ( D @.$.%.SXGX%.j GX>.",
"T z.eXc.X e . . . $ s D d v #XZX. > w b N K ( ( y.>.B.GX) . GXR ",
"T s.eXc.y @X, . . 1 . e -.nXGXsX. . 0 G o.' P [ { f._ GXO.. GXK ",
"| c.'.[.I = 6XAXJXGXGXvXAXcXJ . 9 9.. . a #.L O.V.u.] GX=.. GXX.",
"%.C.`.2X0X[ D a.a.p.p.c o N g.) ,X@XN ~ . > &._ 7.oX_ GXO.. NXl.",
"T ,.`.Y./.aX' . . . = S.nX*X:X8XvXFXGXgX_ / v 8.A V m.CX&.. zX@.",
"S -.'.Y.U.(.eXf.@.O . ~ _.JXGXGX+X@.6XSX<XcX9XE K -XGXGX=.. GX~ ",
"i M Q.L.Y.E.(.3XuX4X*.. . < N 1 - . d FXS.#X8X#XoX-XA.GX=.. DXJ ",
"T 2.~.L.Y.E./.(.^.7XaX&X+.< o . %.1X. h.FXJX-XzX9X1X;X7.% . ZX` ",
"T ;.R.J.L.Y.U././.U.%X2X%XjXk.. d.GX. . 4 , . . . . o . . g DXX.",
"} x.~.uXT.T.Y.Y./././.F.h.HX#X. p.GXp . j.D S U / S S X.A.Q.GXa.",
"O.u.5 mXdX!.Q.K.J.K.L.U.E.uX<X. p.CXe [ GX3XeXrXtX.X{.R.MXc.k U ",
"O.OX$.h Y S c.NXMXBXBXMXMXGX-Xo ZXa.. ,XGX'.'.Q.!.!.~.pXD.X $.f.",
"w V u.B a v L E P E P ..y.I e 8.nXCXP H g.| N.L +.a.U ( P k y.) "
};
