/* XPM */
static char *magick[] = {
/* columns rows colors chars-per-pixel */
"16 16 165 2",
"   c Gray0",
".  c Gray6",
"X  c #181413",
"o  c #191919",
"O  c Gray13",
"+  c #232323",
"@  c Gray14",
"#  c #252525",
"$  c #262525",
"%  c #262625",
"&  c #272727",
"*  c #282726",
"=  c #2e2a26",
"-  c #282828",
";  c Gray16",
":  c #2a2a2a",
">  c #2f2f2f",
",  c #2b3333",
"<  c #293737",
"1  c #37332e",
"2  c #323232",
"3  c Gray20",
"4  c #343434",
"5  c #353535",
"6  c Gray21",
"7  c #373737",
"8  c Gray22",
"9  c #393939",
"0  c #3a3a3a",
"q  c #3a3d3d",
"w  c #3f3f3f",
"e  c #2e4343",
"r  c #3f4242",
"t  c #3d4c4c",
"y  c #3e5858",
"u  c Gray25",
"i  c #414141",
"p  c #434242",
"a  c #434343",
"s  c Gray28",
"d  c #494949",
"f  c #425353",
"g  c Gray33",
"h  c #565656",
"j  c #5a5a5a",
"k  c Gray36",
"l  c #5d5d5d",
"z  c #686868",
"x  c #6d6d6d",
"c  c Gray43",
"v  c Gray44",
"b  c #717171",
"n  c #747373",
"m  c #747474",
"M  c Gray46",
"N  c #777776",
"B  c #7b7b7b",
"V  c Red",
"C  c #ed4d4d",
"Z  c #ec5a5a",
"A  c #f66363",
"S  c #848484",
"D  c Gray52",
"F  c #868686",
"G  c #878786",
"H  c #929292",
"J  c #939393",
"K  c Gray58",
"L  c Gray60",
"P  c #9a9a9a",
"I  c Gray65",
"U  c Gray66",
"Y  c #aaaaaa",
"T  c #bcbdbd",
"R  c Gray74",
"E  c #bebebe",
"W  c #9bb3ca",
"Q  c #93b1d1",
"!  c #93b3d1",
"~  c #95b4d2",
"^  c #99b5d1",
"/  c #9bb6d1",
"(  c #9ab6d2",
")  c #a1b5cb",
"_  c #a0bad2",
"`  c #a2bad2",
"'  c #a3bcd2",
"]  c #a1bdd9",
"[  c #aabfd3",
"{  c #aac2db",
"}  c #acc2da",
"|  c #bfc2c3",
" . c #b0c3d3",
".. c #b2c4d5",
"X. c #b5c4d4",
"o. c #b2c5db",
"O. c #b0c5dc",
"+. c #b1c5dc",
"@. c #b2c6dc",
"#. c #bbc8d5",
"$. c #a6c4e0",
"%. c #cb8888",
"&. c #d99595",
"*. c #c0c0c0",
"=. c #c1c1c0",
"-. c #c1c1c1",
";. c Gray76",
":. c #c4c2c2",
">. c #c4c4c2",
",. c Gray78",
"<. c #c6c6c8",
"1. c Gray79",
"2. c #cecece",
"3. c Gray81",
"4. c #c5d0d9",
"5. c #c6d2de",
"6. c #c7d2de",
"7. c #cfd1d1",
"8. c #cfd3d3",
"9. c #cfd3d7",
"0. c #cfd5d8",
"q. c #cddddd",
"w. c #d0d0cf",
"e. c #d0d0d0",
"r. c Gray82",
"t. c #d2d2d2",
"y. c #d0d4d7",
"u. c #d1d4d7",
"i. c #d5d5d5",
"p. c #d2d6d8",
"a. c #d4d6d9",
"s. c #d6d7d8",
"d. c #d7d7d8",
"f. c #d4d9df",
"g. c #d8d7d8",
"h. c #d8d8d8",
"j. c #d9d8d9",
"k. c #d9d9d8",
"l. c #d9dbda",
"z. c #dcdad9",
"x. c #dddbd9",
"c. c #dcdddd",
"v. c #dfdfdf",
"b. c #dddfe0",
"n. c #d9e1df",
"m. c #ddf2f2",
"M. c #e2d9d9",
"N. c Gray88",
"B. c #e1e0e0",
"V. c #e1e1e0",
"C. c #e1e1e1",
"Z. c #e2e1e0",
"A. c #e2e1e1",
"S. c #e2e2e1",
"D. c #e2e2e2",
"F. c Gray89",
"G. c #e0e7e7",
"H. c #e5e2e1",
"J. c Gray91",
"K. c #e9e9e8",
"L. c #e9e9e9",
"P. c #eaeaea",
"I. c Gray98",
"U. c Gray99",
"Y. c None",
/* pixels */
"Y.Y.    o 3 3 3 3 3 3 3 3 3 3 3 ",
"Y.Y.Y.  O 9 4 4 4 4 4 3 : : : 4 ",
"Y.Y.  & d u w u w u u j P K S 4 ",
"Y.  x P.e.e.e.e.e.i.*.O v I K 4 ",
"Y.Y.x I.v.N.N.N.M.P.e.h B m P 4 ",
"Y.Y.v U.N.N.N.N.F.P.h.> h & k 9 ",
"Y.Y.k e.E E E E E E ,.H m z u 9 ",
".   X 1 = - & & & & : , e < q 9 ",
"m *.4.) W 3.w.3.3.3.9.7.Z %.f 9 ",
"G <.$.o.] b.N.N.N.N.F.M.V C y 9 ",
"S >.f.a.p.z.z.z.z.z.v.h.A &.t 9 ",
"S :.H.z.0.h.a.a.u.9.9.n.m.q.r 9 ",
"S ,.N.g.! ..#.[ _ ! ~ g.N.e.w 9 ",
"S *.N.h./ /  .' X._ / h.N.e.w 9 ",
"S 1.P.v.} 5.O.5.O.{ O.v.P.i.u 9 ",
"m Y *.*.*.*.*.*.*.*.*.*.*.Y s 3 "
};
