/* XPM */
static char *magick[] = {
/* columns rows colors chars-per-pixel */
"16 16 255 2",
"   c Gray0",
".  c #000605",
"X  c #050b0b",
"o  c #0a1212",
"O  c #151514",
"+  c #141916",
"@  c #121918",
"#  c #191c19",
"$  c #191e19",
"%  c #1d1d19",
"&  c #0d1d24",
"*  c #172125",
"=  c #1c2223",
"-  c #2b0c0c",
";  c #211b17",
":  c #21221f",
">  c #2d271e",
",  c #262b26",
"<  c #25292b",
"1  c #2a2a29",
"2  c #2a2a2a",
"3  c #292d2a",
"4  c #2d2e2f",
"5  c #2f3636",
"6  c #2f373a",
"7  c #343b3a",
"8  c #353a3e",
"9  c #3c3c36",
"0  c #3e3f3c",
"q  c #393d40",
"w  c #3a4137",
"e  c #3f423d",
"r  c #3f423f",
"t  c #3f443f",
"y  c #364041",
"u  c #394445",
"i  c #3e4244",
"p  c #3d4547",
"a  c #3b4648",
"s  c #3f4a48",
"d  c #3d4b4c",
"f  c #3d4f52",
"g  c #3f5452",
"h  c #413f3f",
"j  c #711e15",
"k  c #414541",
"l  c #414443",
"z  c #434642",
"x  c #434847",
"c  c #454a4b",
"v  c #474c4a",
"b  c #484a43",
"n  c #484e47",
"m  c #484d4a",
"M  c #474c56",
"N  c #4a4e52",
"B  c #4c504f",
"V  c #425252",
"C  c #43555a",
"Z  c #495656",
"A  c #4e5553",
"S  c #4f5452",
"D  c #4c5956",
"F  c #4a5b59",
"G  c #4a5a5c",
"H  c #4d5f5f",
"J  c #505452",
"K  c #515455",
"L  c #515657",
"P  c #51575a",
"I  c #56575d",
"U  c #575c55",
"Y  c #50585c",
"T  c #53595f",
"R  c #555b5a",
"E  c #585d5b",
"W  c #5e5e58",
"Q  c #5e5f5c",
"!  c #4a5560",
"~  c #585e69",
"^  c #50615f",
"/  c #5d6158",
"(  c #566565",
")  c #576664",
"_  c #576666",
"`  c #586063",
"'  c #586566",
"]  c #5d6060",
"[  c #5d6462",
"{  c #5b6069",
"}  c #5d676f",
"|  c #5b6a6c",
" . c #5f6c6a",
".. c #5e6672",
"X. c #5f7575",
"o. c #624e49",
"O. c #62615a",
"+. c #616464",
"@. c #646561",
"#. c #656461",
"$. c #60636a",
"%. c #62666d",
"&. c #66606c",
"*. c #676768",
"=. c #636866",
"-. c #64696a",
";. c #65696d",
":. c #646d6b",
">. c #646f6e",
",. c #656f6f",
"<. c #6c6660",
"1. c #696769",
"2. c #6d6966",
"3. c #6e6b65",
"4. c #696f6a",
"5. c #686d6e",
"6. c #6c6b6c",
"7. c #6c6f6b",
"8. c #646c75",
"9. c #606e7e",
"0. c #686f72",
"q. c #696f7c",
"w. c #6d716f",
"e. c #697474",
"r. c #6f7371",
"t. c #6d7471",
"y. c #6c7473",
"u. c #6e7474",
"i. c #68707f",
"p. c #6d737a",
"a. c #6c737f",
"s. c #716c66",
"d. c #72726b",
"f. c #707270",
"g. c #707472",
"h. c #747675",
"j. c #777674",
"k. c #70777c",
"l. c #76777a",
"z. c #757874",
"x. c #757975",
"c. c #747977",
"v. c #727b78",
"b. c #737a7f",
"n. c #74797a",
"m. c #767978",
"M. c #777b78",
"N. c #777a7b",
"B. c #7b7a77",
"V. c #797c76",
"C. c #7e7a75",
"Z. c #797978",
"A. c #7b7e7c",
"S. c #7d7f7b",
"D. c #7c7c7e",
"F. c #667283",
"G. c #6a7485",
"H. c #6f7b8e",
"J. c #727681",
"K. c #737980",
"L. c #757a80",
"P. c #717f88",
"I. c #7b7e84",
"U. c #7e817f",
"Y. c #6b8383",
"T. c #7a8187",
"R. c #7d8588",
"E. c #7e8588",
"W. c #78859b",
"Q. c #7c879b",
"!. c #7d8997",
"~. c #7d889a",
"^. c #7e8a9a",
"/. c #7f899c",
"(. c #7f919d",
"). c #7f8ea2",
"_. c #8a4940",
"`. c #93585d",
"'. c #89665e",
"]. c #817d74",
"[. c #a66a5f",
"{. c #a4706c",
"}. c #c04337",
"|. c #e06f5f",
" X c #83857e",
".X c #87817c",
"XX c #818280",
"oX c #848581",
"OX c #858683",
"+X c #858584",
"@X c #878887",
"#X c #80888a",
"$X c #82888b",
"%X c #82898e",
"&X c #83898f",
"*X c #878b88",
"=X c #84888e",
"-X c #878c8b",
";X c #898a87",
":X c #898b86",
">X c #8a898d",
",X c #8c8c8b",
"<X c #8c8d8c",
"1X c #8c8e8c",
"2X c #808795",
"3X c #808991",
"4X c #818990",
"5X c #828f95",
"6X c #848a91",
"7X c #878d91",
"8X c #878e91",
"9X c #848e97",
"0X c #838d9b",
"qX c #838e98",
"wX c #848b9c",
"eX c #848f9c",
"rX c #868f9c",
"tX c #84929b",
"yX c #899198",
"uX c #89919c",
"iX c #8a909d",
"pX c #8d9198",
"aX c #8c959d",
"sX c #8e969e",
"dX c #8d9c9d",
"fX c #928f8a",
"gX c #9e8287",
"hX c #949692",
"jX c #90969b",
"kX c #979698",
"lX c #93989c",
"zX c #979b9f",
"xX c #868ea1",
"cX c #8792a2",
"vX c #8d9fa7",
"bX c #8e9aad",
"nX c #949aa7",
"mX c #959da2",
"MX c #969da4",
"NX c #909aab",
"BX c #97a5a8",
"VX c #9ba2ab",
"CX c #9fa4a9",
"ZX c #9da5ac",
"AX c #9ba8b4",
"SX c #a19993",
"DX c #a29e97",
"FX c #a1a6b0",
"GX c #a4aeb7",
"HX c #b0acb0",
"JX c #c39197",
"KX c #ddb4ba",
"LX c #ef948e",
"PX c #eab5be",
"IX c #e1c1c9",
/* pixels */
"N 1.{.gXpXjXVX5.2 4 %.S *.I.5XY.",
"8 L |.`.(.HXIXZX;...AXt h I vXX.",
"M 9.o.  & '.}.&.BXKXPXaXR.tXdXv ",
"J.nX1X:.F.uX; . * [.j ! -XLXJX%X",
"$.6.W $XFXkX+X%XbX8X@ o 6 _.- P ",
"~ H.Q.4XR.B.Q MX>X.X@XCXGXg.= i ",
"{ G.W.).i.2XqXrX6XN.u.zX2.<.D.lX",
"a./.uXT.8.^.qX^.q.xXcX9X=Xl.L.8X",
"Y K.fXO.} aXDXC.k.NXrXP.p.wX!.4X",
"< 5 U $   q d.9 + 7.SXs.$XmXyXb.",
"L 0.m k 3 ` n , X k / > O z.U.N.",
"] R =.XX1Xv.-.,X*Xh.e : % ].2.r.",
"k c >.4.h.B t.z.;X+.A.hXV.w $ 2 ",
"7 d G ' S Y e.N.f.J N.S. Xb e 0 ",
"a f g C y V H | x [ w.Z.#.#.oXoX",
"p u s Z F ^ ) ) D )  .>.E t.z.;X"
};
