/* XPM */
static char *magick[] = {
/* columns rows colors chars-per-pixel */
"16 16 217 2",
"   c Gray0",
".  c #030102",
"X  c #070607",
"o  c #0c0c0d",
"O  c #11040c",
"+  c #19020d",
"@  c #101011",
"#  c #121211",
"$  c #210d18",
"%  c #34020b",
"&  c #3c0000",
"*  c #251b27",
"=  c #281520",
"-  c #202021",
";  c #2a2129",
":  c #312931",
">  c #362a35",
",  c #382e3a",
"<  c #3a2d38",
"1  c #3b343d",
"2  c #3a3540",
"3  c #3c3640",
"4  c #420810",
"5  c #5e000a",
"6  c #4b323d",
"7  c #6f000b",
"8  c #6f040f",
"9  c #583a40",
"0  c #4a414b",
"q  c #48454a",
"w  c #48454f",
"e  c #4b444f",
"r  c #4a4b4b",
"t  c #484555",
"y  c #544b56",
"u  c #564d59",
"i  c #57545f",
"p  c #58575b",
"a  c #5c535b",
"s  c #59585c",
"d  c #59595d",
"f  c #5a595d",
"g  c #5a5a5e",
"h  c #5c5b5e",
"j  c #5c5b5f",
"k  c #585460",
"l  c #595666",
"z  c #585b67",
"x  c #5d5963",
"c  c #5f5963",
"v  c #5c5866",
"b  c #5c5c60",
"n  c #5f5f6f",
"m  c #646367",
"M  c #646269",
"N  c #66616a",
"B  c #66616d",
"V  c #67676a",
"C  c #66646d",
"Z  c #6c646f",
"A  c #626671",
"S  c #676676",
"D  c #656678",
"F  c #676877",
"G  c #696470",
"H  c #686574",
"J  c #686674",
"K  c #6a6870",
"L  c #6a6971",
"P  c #6c6a76",
"I  c #6f6d76",
"U  c #6b6c7c",
"Y  c #6d6b7a",
"T  c #6e6b79",
"R  c #6e6c79",
"E  c #6f6e7c",
"W  c #716d79",
"Q  c #706d7b",
"!  c #716d7a",
"~  c #716e78",
"^  c #716f7a",
"/  c #706d7c",
"(  c #706f7d",
")  c #71707b",
"_  c #727078",
"`  c #737179",
"'  c #72717a",
"]  c #72717b",
"[  c #71707d",
"{  c #72727e",
"}  c #767379",
"|  c #74727e",
" . c #76757e",
".. c #76797d",
"X. c #7a797c",
"o. c #7d7e7f",
"O. c #6f6f80",
"+. c #6e7282",
"@. c #707280",
"#. c #747382",
"$. c #747483",
"%. c #757483",
"&. c #747584",
"*. c #7a7981",
"=. c #7e7b81",
"-. c #7d7c83",
";. c #7e7c80",
":. c #7f7f80",
">. c #797b8b",
",. c #7d7f8c",
"<. c #778490",
"1. c #7e8998",
"2. c #7e99a1",
"3. c #8b0412",
"4. c #af0515",
"5. c #ba1121",
"6. c #a22530",
"7. c #a5313b",
"8. c #8c5763",
"9. c #927b7e",
"0. c #a74751",
"q. c #b14d58",
"w. c #b9717a",
"e. c #c81f2d",
"r. c #cd1929",
"t. c #ca5962",
"y. c #c16b74",
"u. c #db6e78",
"i. c #d2787f",
"p. c #858286",
"a. c #80808e",
"s. c #878688",
"d. c #868889",
"f. c #87888b",
"g. c #87888c",
"h. c #87898c",
"j. c #88858b",
"k. c #898a8b",
"l. c #88898c",
"z. c #888a8c",
"x. c #898a8c",
"c. c #898a8d",
"v. c #808e99",
"b. c #8e9191",
"n. c #8f9191",
"m. c #939298",
"M. c #91949f",
"N. c #919ca8",
"B. c #9a9aa5",
"V. c #9fa2aa",
"C. c #97a6b1",
"Z. c #9fb0b7",
"A. c #a39ea6",
"S. c #b29ba4",
"D. c #b79ea7",
"F. c #a1a4ad",
"G. c #a1a6ae",
"H. c #a7a8ad",
"J. c #a9abab",
"K. c #abadad",
"L. c #acaeae",
"P. c #adafaf",
"I. c #a5acb4",
"U. c #a9aeb5",
"Y. c #aeb0b0",
"T. c #b2b4be",
"R. c #babbbb",
"E. c #bbbbc1",
"W. c #bdbfc8",
"Q. c #bdc0c7",
"!. c #bbc5ca",
"~. c #bec1c8",
"^. c #d38c94",
"/. c #e4a1a6",
"(. c #c2c3ca",
"). c #c1c4cb",
"_. c #c7c8cf",
"`. c #cac5cc",
"'. c #c9c9ce",
"]. c #c9c9cf",
"[. c #c9cecf",
"{. c #c5cdd2",
"}. c #cfc9d1",
"|. c #cecfd4",
" X c #cfd0d3",
".X c #ced0d4",
"XX c #cfd2d5",
"oX c #dac4ca",
"OX c #d0cfd4",
"+X c #d1d0d7",
"@X c #d1d2da",
"#X c #d3d6dd",
"$X c #d5d6d9",
"%X c #d5d7da",
"&X c #d8d8db",
"*X c #d9dadd",
"=X c #dcdcde",
"-X c #dddfdf",
";X c #dcdde0",
":X c #dedee1",
">X c #dee0e7",
",X c #e5e7ed",
"<X c #e7eaeb",
"1X c #ebe5e6",
"2X c #e8eaf2",
"3X c #eaf5f5",
"4X c #f0f2f2",
"5X c #f0f4f3",
"6X c #f4f8f8",
"7X c #f9fdfc",
"8X c #fafefd",
"9X c #fbfffe",
"0X c #fcfffd",
"qX c #fcfffe",
"wX c #fcffff",
"eX c #fdffff",
"rX c None",
/* pixels */
"r b.Y.L.L.L.L.L.L.L.L.L.J.9.9 V ",
"b.-X8X8X0X0X8X8X8X0X6X3X1Xq.6 _ ",
"L.8XR.:.d.d.x.x.x.d...{.u.& A ^ ",
"L.0Xo.t S @.,.a.&.U <.^.7 * E.=.",
"L.0Xx.O.B.U.!.I.V.N.oX6.$ u *X*.",
"L.0Xg.&.F. Xi.8.C.{.t.% e P .X .",
"L.0Xg.%.F.D.5.3.2./.5 2 R [ '._ ",
"L.0Xx.D M.Z.y.4.w.7.= B [ ^ _.I ",
"L.0Xk.n >.1.S.e.r.4 e | ^ ( (.K ",
"L.0Xs.v ^ +.1.0.8 ; G ( Y Y Q.C ",
"K.5XX.l J J F z 3 y _ ^ E #.W.x ",
"L.4X-X:X:X&X$X$X.X|.{.(.~.A.T.k ",
"x.H.m.j.p.=.:.:._ _ K N x a Z 1 ",
"@     o N < 0 i > + O < :       ",
"rXrX# <X,X#X@XOX}.`.+X>X2X} rXrX",
"rXrX- m p h g g g b g h g q X rX"
};
