/* XPM */
static char * mozilla_mail_32x32_xpm[] = {
"32 32 3 1",
" 	c None",
".	c #6666CC",
"+	c #FFFFFF",
"                                ",
"                                ",
"                                ",
"                                ",
"                                ",
"                                ",
"                                ",
"                                ",
"  ............................  ",
"  ............................  ",
"  ..++++++++++++++++++++++++..  ",
"  ..++++++++++++++++++++++++..  ",
"  ..++++++++++++++++++....++..  ",
"  ..++++++++++++++++++....++..  ",
"  ..++++++..........++....++..  ",
"  ..++++++..........++....++..  ",
"  ..++++++++++++++++++++++++..  ",
"  ..++++++++++++++++++++++++..  ",
"  ..++++++..........++++++++..  ",
"  ..++++++..........++++++++..  ",
"  ..++++++++++++++++++++++++..  ",
"  ..++++++++++++++++++++++++..  ",
"  ..++++++++++++++++++++++++..  ",
"  ..++++++++++++++++++++++++..  ",
"  ............................  ",
"  ............................  ",
"                                ",
"                                ",
"                                ",
"                                ",
"                                ",
"                                "};
