/* XPM */
static char *magick[] = {
/* columns rows colors chars-per-pixel */
"16 16 134 2",
"   c Gray0",
".  c Transparent",
"X  c #010101",
"o  c #000002",
"O  c #000102",
"+  c #000004",
"@  c #000006",
"#  c #030305",
"$  c #010009",
"%  c #00000a",
"&  c #00020a",
"*  c #03020e",
"=  c #020111",
"-  c #030212",
";  c #040212",
":  c #040115",
">  c #030318",
",  c #05031f",
"<  c #05041f",
"1  c #160c0d",
"2  c #12101a",
"3  c #181c13",
"4  c #060420",
"5  c #070524",
"6  c #00002e",
"7  c #05032b",
"8  c #070428",
"9  c #080529",
"0  c #08052d",
"q  c #00003a",
"w  c #05023f",
"e  c #090631",
"r  c #090634",
"t  c #0a0738",
"y  c #0a0739",
"u  c #0b0738",
"i  c #0c073c",
"p  c #1a173d",
"a  c #182119",
"s  c #3a320c",
"d  c #302021",
"f  c #342726",
"g  c #362724",
"h  c #302824",
"j  c #000046",
"k  c #0c0841",
"l  c #0c0843",
"z  c #0c0845",
"x  c #0d0949",
"c  c #0e094e",
"v  c #0d0755",
"b  c #0d0950",
"n  c #0f0a52",
"m  c #100b54",
"M  c #100b58",
"N  c #110b59",
"B  c #120c5f",
"V  c #17115c",
"C  c #000065",
"Z  c #000071",
"A  c #120d63",
"S  c #130d63",
"D  c #120e62",
"F  c #140c67",
"G  c #140e68",
"H  c #140e6c",
"J  c #150e6e",
"K  c #170f75",
"L  c #170f76",
"P  c #110a7f",
"I  c #171075",
"U  c #171076",
"Y  c #18107b",
"T  c #18117e",
"R  c #201966",
"E  c #3c307f",
"W  c #3e337f",
"Q  c #3c5121",
"!  c #40282b",
"~  c #423b33",
"^  c #4a3b33",
"/  c #503436",
"(  c #4b3040",
")  c #504700",
"_  c #405238",
"`  c #594a26",
"'  c #53463a",
"]  c #50632d",
"[  c #796930",
"{  c #595165",
"}  c #51694d",
"|  c #6a6064",
" . c #716070",
".. c #7f7960",
"X. c #160d9a",
"o. c #1a1281",
"O. c #1b1381",
"+. c #191284",
"@. c #1b1289",
"#. c #1b128b",
"$. c #1c1489",
"%. c #1d158e",
"&. c #1a1493",
"*. c #1c1393",
"=. c #1d1395",
"-. c #1c1493",
";. c #1d1693",
":. c #1f169f",
">. c #1f15ad",
",. c #20188e",
"<. c #231a9a",
"1. c #21189d",
"2. c #2117aa",
"3. c #271ea5",
"4. c #2419a8",
"5. c #281fa9",
"6. c #2417b8",
"7. c #2219b5",
"8. c #2318b6",
"9. c #271db3",
"0. c #291fbd",
"q. c #3b339e",
"w. c #2f29a0",
"e. c #3327bd",
"r. c #2b1ed7",
"t. c #3328c2",
"y. c #483a85",
"u. c #49439b",
"i. c #7659a1",
"p. c #825f5c",
"a. c #8c8719",
"s. c #808227",
"d. c #8c835c",
"f. c None",
/* pixels */
"f.f.f.f.  / d f.f.^ f f.f.f.f.f.",
"f.f.f.f.f.p.f f.f.] 3 f.f.f.f.f.",
"f.f.f.f.  Q a 6 9 a.  f.1 ! f.f.",
"f.f.f.f.q ) s Z E d.i.( _ ' f.f.",
"f.f.f.f.X.E h C | ..} y.s.& f.f.",
"f.f.f.  >.r.t.&.{ [ ~  .` j   f.",
"f.f.f.> 8.0.e.3.P v w 2   @   f.",
"f.f.f.t 6.9.5.,.J b 7     V   f.",
"f.f.f.N 8.4.<.o.S z <   p w.  f.",
"f.f.f.L 2.1.%.U N t =   u.R f.f.",
"f.f.  #.:.;.o.G c 0 @ @ q.& f.f.",
"f.f.; *.=.$.U B l 4   * 5 f.f.f.",
"f.f.0 *.#.T J m t :     f.f.f.f.",
"f.f.e ;.+.L S x 0 &     f.f.f.f.",
"f.f.  S Y F b i ,     f.f.f.f.f.",
"f.f.f.* r l t 8 =     f.f.f.f.f."
};
