/* XPM */
static char *magick[] = {
/* columns rows colors chars-per-pixel */
"16 16 252 2",
"   c #00000c",
".  c #00000d",
"X  c #00000f",
"o  c #000012",
"O  c #000014",
"+  c #000015",
"@  c #000016",
"#  c #000017",
"$  c #03011d",
"%  c #0a0314",
"&  c #000024",
"*  c #000027",
"=  c #000028",
"-  c #02002b",
";  c #000031",
":  c #00013b",
">  c #030138",
",  c #1a0829",
"<  c #2a0e1b",
"1  c #200b32",
"2  c #320f2e",
"3  c #301f3c",
"4  c #292a3a",
"5  c #1b2369",
"6  c #3b2847",
"7  c #312c57",
"8  c #212b76",
"9  c #283168",
"0  c #3c3d67",
"q  c #27474e",
"w  c #3b436b",
"e  c #3e446b",
"r  c #4b1425",
"t  c #4e1420",
"y  c #4c1629",
"u  c #4b1d2d",
"i  c #541927",
"p  c #5c1821",
"a  c #572e34",
"s  c #6d0e00",
"d  c #6a1802",
"f  c #691c1f",
"g  c #7b1500",
"h  c #62221a",
"j  c #7b2003",
"k  c #6f2831",
"l  c #6d3328",
"z  c #743c36",
"x  c #423c6b",
"c  c #6d3a45",
"v  c #7f3f47",
"b  c #4d525a",
"n  c #594859",
"m  c #585b53",
"M  c #4d4976",
"N  c #4e4f70",
"B  c #4d5063",
"V  c #5b5c67",
"C  c #555c7e",
"Z  c #5e626c",
"A  c #65464a",
"S  c #6c4858",
"D  c #685044",
"F  c #704442",
"G  c #734e5e",
"H  c #60486d",
"J  c #694a75",
"K  c #6b5c71",
"L  c #715564",
"P  c #7d5a65",
"I  c #736579",
"U  c #2b3a8b",
"Y  c #3b4787",
"T  c #3a498d",
"R  c #3a4b9b",
"E  c #3e4fa3",
"W  c #384ea9",
"Q  c #324ebc",
"!  c #3c50ad",
"~  c #3c51b2",
"^  c #3852bd",
"/  c #3e59b3",
"(  c #3959bc",
")  c #3d5bcc",
"_  c #385cd9",
"`  c #3e5fd8",
"'  c #44518d",
"]  c #46548f",
"[  c #436299",
"{  c #487b99",
"}  c #59678f",
"|  c #4d62b0",
" . c #5c7db8",
".. c #6e678e",
"X. c #6a7083",
"o. c #63719e",
"O. c #6d7097",
"+. c #756587",
"@. c #6e67a0",
"#. c #617ebb",
"$. c #405ed0",
"%. c #405fd0",
"&. c #476edc",
"*. c #5471dd",
"=. c #4668e6",
"-. c #466df7",
";. c #436cfc",
":. c #5373ed",
">. c #5977e1",
",. c #5a7fe5",
"<. c #5d79f1",
"1. c #6a76d9",
"2. c #61889a",
"3. c #79999a",
"4. c #668db8",
"5. c #6d8fb4",
"6. c #6c9ba7",
"7. c #6591b1",
"8. c #7595b4",
"9. c #7ba4ab",
"0. c #498bcc",
"q. c #5e93c6",
"w. c #6f8bd7",
"e. c #739ac3",
"r. c #7895d0",
"t. c #6b87e7",
"y. c #6485fa",
"u. c #658ff3",
"i. c #6b8cf6",
"p. c #6f91ee",
"a. c #6b91fd",
"s. c #6e91fe",
"d. c #7295fc",
"f. c #7c9eff",
"g. c #62a0ca",
"h. c #7ba0cd",
"j. c #68a0f8",
"k. c #72a1ee",
"l. c #7db6f3",
"z. c #861700",
"x. c #801900",
"c. c #802118",
"v. c #813019",
"b. c #922a17",
"n. c #9b2f1d",
"m. c #9f2b18",
"M. c #963415",
"N. c #94361e",
"B. c #8c2b29",
"V. c #813522",
"C. c #a5381d",
"Z. c #ad361a",
"A. c #b62300",
"S. c #bc2f03",
"D. c #b2391b",
"F. c #8d4034",
"G. c #8a493a",
"H. c #a64d39",
"J. c #aa4c3d",
"K. c #b1472f",
"L. c #b84324",
"P. c #82454d",
"I. c #855251",
"U. c #835e52",
"Y. c #945859",
"T. c #8a5e61",
"R. c #83666d",
"E. c #866867",
"W. c #8b667a",
"Q. c #867d72",
"!. c #9b7d74",
"~. c #9e7f75",
"^. c #ba5c4c",
"/. c #858583",
"(. c #858588",
"). c #898989",
"_. c #888a8c",
"`. c #808193",
"'. c #8d8d94",
"]. c #939397",
"[. c #959494",
"{. c #979696",
"}. c #979797",
"|. c #92999a",
" X c #999797",
".X c #9c9c9e",
"XX c #888aad",
"oX c #8397a4",
"OX c #8d9eb0",
"+X c #9e9ea0",
"@X c #af958f",
"#X c #bd9382",
"$X c Gray63",
"%X c #a1a1a2",
"&X c #a2a3a3",
"*X c #a3a2a2",
"=X c #a5a3a3",
"-X c #a3a4ab",
";X c #a7a7a8",
":X c #a9aaab",
">X c #aaabad",
",X c #adacaa",
"<X c Gray68",
"1X c #acaeaf",
"2X c #adaeae",
"3X c #aeadad",
"4X c #a0b3be",
"5X c #b0aeae",
"6X c #b0b0b1",
"7X c #b1b2b2",
"8X c #b2b3b4",
"9X c #b2b3b5",
"0X c #b3b4b6",
"qX c #b5b6b6",
"wX c #b5b6b7",
"eX c #b7b6b5",
"rX c #babbbd",
"tX c #bbbcbb",
"yX c #bbbcbe",
"uX c #bebebc",
"iX c #879fc9",
"pX c #9c98cb",
"aX c #809fea",
"sX c #97a8c5",
"dX c #96b6cc",
"fX c #80a7ff",
"gX c #90aae2",
"hX c #96b3e5",
"jX c #96bbe5",
"kX c #9dc8ff",
"lX c #96d7ff",
"zX c #bfc1c1",
"xX c #c9a093",
"cX c #c9aca2",
"vX c #c3bcc3",
"bX c #cac3bb",
"nX c #c0c1c1",
"mX c #c6c7c6",
"MX c #c7c9c6",
"NX c #c1c9ca",
"BX c #c8cac7",
"VX c #cbcbc9",
"CX c #c8cbcc",
"ZX c #cfd7d9",
"AX c #d3d4cf",
"SX c #d5d7d7",
"DX c #d8dcdb",
"FX c #dfe8e5",
"GX c #e5e3de",
"HX c #e6edef",
"JX c #e3eef1",
"KX c #e9f3f6",
/* pixels */
"y.i.p.r.8.h.hXI +. .9 : r , +   ",
"s.f.fXgX5.q.jXL W.j.[ : p - +   ",
"a.d.aXsX4.0.l.O.I...R.a 2 - +   ",
"<.>.iXoX9.g.lXK j Z.m.S.t ; & % ",
"*.#.|.OX6.7.A x.C.1.x S D.y k < ",
"| o.V z Q.m s 4X!.H c ,.F.n.1 $ ",
"] C Z U.v.d L.dXP z.h v N.B.& + ",
"T w b 2.q M.P.c.g @XxXpXT.f o + ",
"E ' B R 3 ^./ u V.KXHXJXGXvXX.4 ",
"~ ! } k.n K.Y.i ~.ZX5XeXnXDXVX].",
"W Q &.XXl H.kX0 bX1X,X1X6XuX%X>X",
") _ J J.G b.@.E.MX[.=X[.%X1X(.9X",
"%.( M :.u.F A.cXNX[.). X/.1X_.wX",
"%.=.-.t.e.{ G.SXCX6XmX%X)..X+X9X",
"^ ` ;.w.3.D #XFXSXBXnXtXrX'.%X1X",
"5 8 U Y e 6 7 N `.-X0XwXyX].:X;X"
};
