/* XPM */
static char *magick[] = {
/* columns rows colors chars-per-pixel */
"16 16 255 2",
"   c Transparent",
".  c #010104",
"X  c #00000d",
"o  c #00000e",
"O  c #0f0407",
"+  c #000011",
"@  c #000016",
"#  c #000017",
"$  c #050212",
"%  c #000018",
"&  c #000019",
"*  c #1e0d0c",
"=  c #14081e",
"-  c #1e0d13",
";  c #000021",
":  c #030121",
">  c #000028",
",  c #00002b",
"<  c #00002d",
"1  c #02002e",
"2  c #0c0420",
"3  c #000032",
"4  c #03013a",
"5  c #00013d",
"6  c #070934",
"7  c #1a082a",
"8  c #1f0b34",
"9  c #161232",
"0  c #21120c",
"q  c #2f1028",
"w  c #320f30",
"e  c #301f3c",
"r  c #1b2364",
"t  c #24214a",
"y  c #3c2943",
"u  c #202b72",
"i  c #283169",
"p  c #27474e",
"a  c #3b436b",
"s  c #3e446a",
"d  c #4d1f09",
"f  c #591c0c",
"g  c #4b1426",
"h  c #4e1421",
"j  c #4c1628",
"k  c #5c1820",
"l  c #40210f",
"z  c #492314",
"x  c #572e33",
"c  c #5f2a33",
"v  c #6d0e00",
"b  c #6a1802",
"n  c #730800",
"m  c #77180e",
"M  c #75191d",
"N  c #661120",
"B  c #7b2003",
"V  c #7e350e",
"C  c #7e3217",
"Z  c #6e2730",
"A  c #6d3328",
"S  c #693f33",
"D  c #743c36",
"F  c #423c6b",
"G  c #6d3b45",
"H  c #7b4515",
"J  c #4d525a",
"K  c #5b495a",
"L  c #585b53",
"P  c #4d4976",
"I  c #4d5063",
"U  c #5b5c67",
"Y  c #555c7e",
"T  c #5e626c",
"R  c #65464a",
"E  c #6d4546",
"W  c #6c4858",
"Q  c #744e5e",
"!  c #7a445f",
"~  c #71564d",
"^  c #60496d",
"/  c #694a75",
"(  c #6b5c71",
")  c #715564",
"_  c #7e5c6b",
"`  c #736579",
"'  c #2b3a89",
"]  c #3b4786",
"[  c #3a498d",
"{  c #3a4b9b",
"}  c #3e4fa3",
"|  c #384ea9",
" . c #324ebc",
".. c #3c50ad",
"X. c #3c51b2",
"o. c #3852bd",
"O. c #3959bc",
"+. c #3d5bbc",
"@. c #3d5bcc",
"#. c #385cd9",
"$. c #3e5fd9",
"%. c #44518d",
"&. c #46548f",
"*. c #406e89",
"=. c #43629a",
"-. c #4b7e9e",
";. c #59678f",
":. c #4d62b0",
">. c #5c7db8",
",. c #6e678e",
"<. c #63719e",
"1. c #6d7097",
"2. c #756587",
"3. c #617ebb",
"4. c #405ed0",
"5. c #405fd0",
"6. c #476edc",
"7. c #5471dd",
"8. c #4668e6",
"9. c #466df7",
"0. c #436cfc",
"q. c #5373ed",
"w. c #5977e1",
"e. c #5b7fe5",
"r. c #5d79f1",
"t. c #6a76d9",
"y. c #61889a",
"u. c #78999a",
"i. c #668db8",
"p. c #6d8fb4",
"a. c #6c9ba7",
"s. c #6591b1",
"d. c #7595b4",
"f. c #7ba4ab",
"g. c #498bcc",
"h. c #5e93c6",
"j. c #6f8bd7",
"k. c #729ac3",
"l. c #7895d0",
"z. c #6b87e7",
"x. c #6485fa",
"c. c #658ff3",
"v. c #6b8cf6",
"b. c #6f91ee",
"n. c #6b91fd",
"m. c #6e91fe",
"M. c #7295fc",
"N. c #7c9eff",
"B. c #62a0ca",
"V. c #7ba0cd",
"C. c #68a0f8",
"Z. c #72a1ee",
"A. c #7db6f3",
"S. c #801900",
"D. c #821c04",
"F. c #813019",
"G. c #863b1b",
"H. c #9b2f1c",
"J. c #9f2b18",
"K. c #963415",
"L. c #9b3c1f",
"P. c #8b2e20",
"I. c #812531",
"U. c #8d372e",
"Y. c #9e2922",
"T. c #bd1d00",
"R. c #ae270b",
"E. c #a5381d",
"W. c #ac3019",
"Q. c #ad361a",
"!. c #bc2f03",
"~. c #b2391b",
"^. c #864b37",
"/. c #8d4034",
"(. c #a44307",
"). c #a5430a",
"_. c #b75a04",
"`. c #bc5509",
"'. c #aa4838",
"]. c #aa4c3d",
"[. c #a55e31",
"{. c #b34324",
"}. c #b84324",
"|. c #b45c33",
" X c #ac632f",
".X c #80434d",
"XX c #855251",
"oX c #835e52",
"OX c #9e5148",
"+X c #99595e",
"@X c #8c5a6c",
"#X c #83666d",
"$X c #8b667a",
"%X c #867d72",
"&X c #9b7e74",
"*X c #b95a4e",
"=X c #bf7d45",
"-X c #ca1b00",
";X c #c02e04",
":X c #c52900",
">X c #cf2d04",
",X c #c63716",
"<X c #d43200",
"1X c #de3500",
"2X c #e83100",
"3X c #c15d0e",
"4X c #c86100",
"5X c #cf650a",
"6X c #cd6a04",
"7X c #c86b15",
"8X c #c47a06",
"9X c #db6e00",
"0X c #c07237",
"qX c #e24500",
"wX c #ea4000",
"eX c #ec4300",
"rX c #ec4718",
"tX c #e95b00",
"yX c #c25e57",
"uX c #cc6347",
"iX c #e17961",
"pX c #978273",
"aX c #af8968",
"sX c #f59f19",
"dX c #e99e32",
"fX c #ffa603",
"gX c #ffab00",
"hX c #ffad0d",
"jX c #ffae1e",
"kX c #ffb906",
"lX c #ffbb0c",
"zX c #ffb314",
"xX c #ffaf29",
"cX c #d79c45",
"vX c #c9a057",
"bX c #ffc702",
"nX c #ffc505",
"mX c #ffc706",
"MX c #ffc50f",
"NX c #ffce05",
"BX c #ffd30e",
"VX c #92999a",
"CX c #888aad",
"ZX c #8397a4",
"AX c #8d9eb0",
"SX c #a0b3be",
"DX c #879fc9",
"FX c #809fea",
"GX c #97a8c5",
"HX c #96b7cc",
"JX c #80a7ff",
"KX c #90aae2",
"LX c #96b3e5",
"PX c #96bbe5",
"IX c #96d7ff",
/* pixels */
"x.v.b.l.d.V.LX` 2.>.i 4 g 7 # X ",
"m.N.JXKXp.h.PX) $XC.=.5 k 1 # X ",
"n.M.FXGXi.g.A.1.XX,.#Xx w > & + ",
"r.w.DXZXf.B.IX( B Q.J.!.h 3 > 2 ",
"7.3.VXAXa.s.R S.E.t.F W ~.j Z q ",
":.<.U D %XL v SX&X^ G e./.H.8 : ",
"&.Y T oXF.b }.HX_ D.c ! U.I.1 & ",
"[ a J y.p K..XM m V 4X0X XG.= - ",
"} %.I { e *X+.S 9XgXbXnXNXBXnX8X",
"X...;.Z.K '.[.sXjXzXlXkXMXhXfX_.",
"|  .6.CXA OX+X{.|.=XvXcXdXxX6X`.",
"@.#./ ].Q P.@XuX1X>X,XW.L.C ).7X",
"5.O.P q.c.E ;XrXwX<X:XT.yXN 5XH ",
"5.8.9.z.k.-.^.aXtXeX2X-XR.n 3X0 ",
"o.$.0.j.u.~ pX*.9 l (.qXiXY.d . ",
"r u ' ] s y t 6 : & $ * z f O   "
};
