/* XPM */
static char * newmail2_xpm[] = {
"16 16 7 1",
" 	c None",
"+	c #000000",
"@	c #E5E5E5",
"#	c #FF0000",
"$	c #CCCCCC",
"%	c #999999",
"&	c #666666",
"     ++++++++++ ",
"     +@@@@@@##+ ",
"     +@@@@@@##+ ",
"   ++++++++++@+ ",
"   +@@@@@@##+@+ ",
"   +@@@@@@##+@+ ",
"   +@++++@@@+@+ ",
" +++@@@@@@@@+++ ",
"+$$+@+++@@@@+%%+",
"++++@@@@@@@@++++",
"+%%++++++++++$$+",
"+%%%%++&&++$$$$+",
" ++%%%%++$$$$++ ",
"   ++%%%$$$++   ",
"     ++%$++     ",
"       ++       "};
