/* XPM */
static char *magick[] = {
/* columns rows colors chars-per-pixel */
"16 16 252 2",
"   c #02121a",
".  c #01161e",
"X  c #071620",
"o  c #001e26",
"O  c #091e25",
"+  c #0f1d25",
"@  c #141c24",
"#  c #181a22",
"$  c #1b1c25",
"%  c #1f1b25",
"&  c #02202a",
"*  c #241e26",
"=  c #261d24",
"-  c #271e25",
";  c #291c25",
":  c #2f1e27",
">  c #371d24",
",  c #342025",
"<  c #33232d",
"1  c #352128",
"2  c #38252b",
"3  c #3a2e36",
"4  c #5e151b",
"5  c #5f181b",
"6  c #5c191f",
"7  c #411b24",
"8  c #421c24",
"9  c #4d1b22",
"0  c #4d2125",
"q  c #4d262d",
"w  c #54282f",
"e  c #5b2126",
"r  c #572d34",
"t  c #751719",
"y  c #77161b",
"u  c #701b1c",
"i  c #74191c",
"p  c #761b1e",
"a  c #7a171b",
"s  c #661a21",
"d  c #681c22",
"f  c #6b1d23",
"g  c #6e1a20",
"h  c #6e1e24",
"j  c #7f1c20",
"k  c #652327",
"l  c #702326",
"z  c #77292e",
"x  c #7b2328",
"c  c #7d2428",
"v  c #782c2f",
"b  c #7e282a",
"n  c #575c62",
"m  c #5c5d63",
"M  c #665c63",
"N  c #655f65",
"B  c #7b6267",
"V  c #8f0b0d",
"C  c #830f14",
"Z  c #801217",
"A  c #811417",
"S  c #851216",
"D  c #831718",
"F  c #86181e",
"G  c #8a1517",
"H  c #8e1515",
"J  c #8b1c1d",
"K  c #911213",
"L  c #921c1f",
"P  c #9b1213",
"I  c #9d1417",
"U  c #9b171a",
"Y  c #921d21",
"T  c #80292f",
"R  c #87282e",
"E  c #892025",
"W  c #8a252d",
"Q  c #853336",
"!  c #932428",
"~  c #91393c",
"^  c #9d3237",
"/  c #a00607",
"(  c #a10608",
")  c #a00809",
"_  c #a0090b",
"`  c #a20909",
"'  c #a40b0a",
"]  c #a40c0d",
"[  c #a50d0c",
"{  c #a50d0f",
"}  c #a60d0e",
"|  c #a60e0e",
" . c #a60f0e",
".. c #a80203",
"X. c #a70f10",
"o. c #a5100f",
"O. c #a31113",
"+. c #a51111",
"@. c #a41212",
"#. c #a61111",
"$. c #a71210",
"%. c #a41315",
"&. c #a71413",
"*. c #a51414",
"=. c #a4191c",
"-. c #af161a",
";. c #a91d1d",
":. c #ab1c1f",
">. c #b70100",
",. c #b80000",
"<. c #ba0000",
"1. c #b90405",
"2. c #ba0705",
"3. c #be0000",
"4. c #be0302",
"5. c #bd0503",
"6. c #be0505",
"7. c #b90909",
"8. c #be0808",
"9. c #b0181c",
"0. c #b11d1f",
"q. c #bb191c",
"w. c #b61e20",
"e. c #a42a2f",
"r. c #ab2022",
"t. c #ad282a",
"y. c #b42b2d",
"u. c #b92325",
"i. c #b92526",
"p. c #be3034",
"a. c #b93539",
"s. c #b13b40",
"d. c #836c71",
"f. c #986669",
"g. c #b94f4e",
"h. c #b55b5e",
"j. c #a16166",
"k. c #ac757b",
"l. c #c00000",
"z. c #c10000",
"x. c #c70002",
"c. c #c20608",
"v. c #c1090b",
"b. c #c10b0b",
"n. c #c30908",
"m. c #c20a0a",
"M. c #c10c0a",
"N. c #c50b0b",
"B. c #cb0a0d",
"V. c #c80f0f",
"C. c #cf0e0c",
"Z. c #c11211",
"A. c #c31311",
"S. c #c21214",
"D. c #c31414",
"F. c #c51615",
"G. c #c71415",
"H. c #c4161b",
"J. c #c61618",
"K. c #c21819",
"L. c #c51818",
"P. c #c4191a",
"I. c #c71819",
"U. c #c71a18",
"Y. c #c91616",
"T. c #c81819",
"R. c #c81d1f",
"E. c #cb1c1f",
"W. c #cb1e1e",
"Q. c #cf1b1a",
"!. c #d51211",
"~. c #d51919",
"^. c #d41e1f",
"/. c #d41f1e",
"(. c #c32221",
"). c #c72121",
"_. c #c72122",
"`. c #c82325",
"'. c #cb2422",
"]. c #cd2021",
"[. c #cd2423",
"{. c #cd2525",
"}. c #c82b2c",
"|. c #ca2f30",
" X c #c03c3d",
".X c #c93334",
"XX c #cf3333",
"oX c #cd3735",
"OX c #d02021",
"+X c #d32125",
"@X c #d02425",
"#X c #d52524",
"$X c #d12628",
"%X c #d62729",
"&X c #d22a2a",
"*X c #d52b2d",
"=X c #db282a",
"-X c #df2928",
";X c #d82f30",
":X c #da3432",
">X c #de3738",
",X c #e12d2d",
"<X c #e9272a",
"1X c #ec312e",
"2X c #e43b3d",
"3X c #ed3332",
"4X c #cd4242",
"5X c #ce4444",
"6X c #d64747",
"7X c #d34d4d",
"8X c #d74a4a",
"9X c #d14f50",
"0X c #d25053",
"qX c #d25555",
"wX c #d35457",
"eX c #d45b5b",
"rX c #df5555",
"tX c #d85a59",
"yX c #da5959",
"uX c #da5d5c",
"iX c #de5f60",
"pX c #ca6467",
"aX c #c16e72",
"sX c #d66363",
"dX c #dd6363",
"fX c #df6467",
"gX c #d47275",
"hX c #d37578",
"jX c #dd7c7c",
"kX c #dc7e7e",
"lX c #f94547",
"zX c #e06164",
"xX c #e36565",
"cX c #e46465",
"vX c #e06c6c",
"bX c #e46968",
"nX c #e76b6e",
"mX c #e86d6f",
"MX c #e27778",
"NX c #e47c7c",
"BX c #f27676",
"VX c #ab9197",
"CX c #dd8282",
"ZX c #e58585",
"AX c #e18c8c",
"SX c #e18e8e",
"DX c #e88d8e",
"FX c #e98f90",
"GX c #e49696",
"HX c #e99595",
"JX c #eabbba",
"KX c #ecb9b9",
/* pixels */
"VXk.hXMXaXf.B N m n M j.pXfXcXh.",
"d.3 r ~ s. Xa.^ v q < 2 w T y.e.",
"gXQ   . X # 8 x t.&X-X[.r.j s g ",
"BXlXp.z R W l 0 : * , e E w./.=.",
"mX2X3Xb + 1 k ! i.`.(.:.J p u a ",
"nX>X,X1Xc * ; $ @ % > f L -.G.%.",
"bX:X%X=X<Xu.h Y 0.q.9.U D t G P ",
"xX;X#X@X+X/.f o O * 9 p I Z.C.X.",
"zX*XOX].W.Q.~.F 6 t Z A S $.N.{ ",
"dX$XT.E.L.L.Y.!.H 7 5 K B.M.n.{ ",
"uX'.J.L.G.D.S.A.V.4 & C n.7.c._ ",
"tXW.M.n.8.5.6.1.z.z...x.1.>.4._ ",
"qXJ.oX_.}.5X|.6.4X7XXX_.<..Xz.( ",
"0XK.JXKXjXsXSXjXGXSXqXeX<.CX4./ ",
"9XL.tXDXdXvX{.HX8XNX8XZX6XFXrXO.",
"g.:.{ { { $._ { ' *.o.O.$.$.&.V "
};
