/* XPM */
static char *magick[] = {
/* columns rows colors chars-per-pixel */
"16 16 221 2",
"   c Gray0",
".  c Transparent",
"X  c #060303",
"o  c #070303",
"O  c #040705",
"+  c #0b0000",
"@  c #0c0000",
"#  c #0c0909",
"$  c #160303",
"%  c #160909",
"&  c #170b0c",
"*  c #170d0e",
"=  c #1d0708",
"-  c #190b0c",
";  c #190d0d",
":  c #190f0e",
">  c #1b0f0f",
",  c #171414",
"<  c #171616",
"1  c #220d0d",
"2  c #250d0d",
"3  c #231112",
"4  c #201615",
"5  c #221615",
"6  c #361e20",
"7  c #2e2425",
"8  c #2c2927",
"9  c #2c2829",
"0  c #3f2626",
"q  c #3a322a",
"w  c #451313",
"e  c #471515",
"r  c #4b1010",
"t  c #4e1010",
"y  c #491c16",
"u  c #531e08",
"i  c #531212",
"p  c #5b1414",
"a  c #50371c",
"s  c #412a29",
"d  c #4a2e2d",
"f  c #4e3636",
"g  c #5f2222",
"h  c #592828",
"j  c #582f2c",
"k  c #5e2929",
"l  c #513d2d",
"z  c #59322f",
"x  c #553f37",
"c  c #513b3e",
"v  c #621515",
"b  c #641616",
"n  c #671616",
"m  c #651d1d",
"M  c #6c1717",
"N  c #6d1a1a",
"B  c #751616",
"V  c #771717",
"C  c #701818",
"Z  c #731e1e",
"A  c #751919",
"S  c #761a1a",
"D  c #761d1d",
"F  c #7a1d1d",
"G  c #613e3d",
"H  c #633e3d",
"J  c #76262a",
"K  c #7b2727",
"L  c #782d2e",
"P  c #613f42",
"I  c #653f45",
"U  c #494031",
"Y  c #564322",
"T  c #564b2f",
"R  c #53433c",
"E  c #5e4635",
"W  c #705113",
"Q  c #644a28",
"!  c #644533",
"~  c #654138",
"^  c #66443d",
"/  c #684933",
"(  c #704f24",
")  c #745030",
"_  c #5f474b",
"`  c #604443",
"'  c #614447",
"]  c #644747",
"[  c #6d4343",
"{  c #6c5040",
"}  c #704941",
"|  c #754948",
" . c #774e4d",
".. c #784d4b",
"X. c #801c1c",
"o. c #832121",
"O. c #812525",
"+. c #872c2d",
"@. c #813938",
"#. c #853f3f",
"$. c #8e3a3a",
"%. c #953535",
"&. c #923b3b",
"*. c #953a38",
"=. c #983a3a",
"-. c #89573c",
";. c #905b3f",
":. c #9b6837",
">. c #a26c3d",
",. c #875252",
"<. c #954848",
"1. c #986042",
"2. c #99605e",
"3. c #986f67",
"4. c #94736a",
"5. c #9a7b7d",
"6. c #a64545",
"7. c #a04b4b",
"8. c #a54948",
"9. c #ab4240",
"0. c #ae4343",
"q. c #ac4544",
"w. c #ab4a4b",
"e. c #b24646",
"r. c #b74a4a",
"t. c #be4a4b",
"y. c #b35656",
"u. c #b45151",
"i. c #b55050",
"p. c #be5451",
"a. c #bd5a59",
"s. c #af674f",
"d. c #ae6e4d",
"f. c #a46753",
"g. c #b1724e",
"h. c #b26160",
"j. c #be6261",
"k. c #b57263",
"l. c #bd706e",
"z. c #c44b4a",
"x. c #c3514f",
"c. c #c15554",
"v. c #c15756",
"b. c #c15957",
"n. c #c75959",
"m. c #c55d5c",
"M. c #c95453",
"N. c #c95b5d",
"B. c #d25858",
"V. c #c0754d",
"C. c #c76261",
"Z. c #c56867",
"A. c #c96563",
"S. c #ca6464",
"D. c #ce6764",
"F. c #ce7169",
"G. c #d26060",
"H. c #d46263",
"J. c #d66362",
"K. c #d56463",
"L. c #d46565",
"P. c #d06b6b",
"I. c #df6464",
"U. c #db6768",
"Y. c #db6867",
"T. c #da6e66",
"R. c #dc6f6e",
"E. c #d8767b",
"W. c #d97871",
"Q. c #e37372",
"!. c #e37d7b",
"~. c #e27e7e",
"^. c #e47d7b",
"/. c #e87f70",
"(. c #ea7b7b",
"). c #fb7e7c",
"_. c #c88a5b",
"`. c #db827b",
"'. c #e68368",
"]. c #e9827e",
"[. c #eb877f",
"{. c #e88a7c",
"}. c #df8e86",
"|. c #db9f9e",
" X c #df9c9a",
".X c #dba19e",
"XX c #dca09f",
"oX c #daacac",
"OX c #dcafaf",
"+X c #d6afb1",
"@X c #ec8782",
"#X c #e59e8c",
"$X c #e59795",
"%X c #e19a97",
"&X c #e29b99",
"*X c #e09c9b",
"=X c #e19c9b",
"-X c #f48986",
";X c #f98484",
":X c #fa8786",
">X c #fd8988",
",X c #fe8a8a",
"<X c #f09083",
"1X c #f9998d",
"2X c #fd9291",
"3X c #fe9b98",
"4X c #ff9e9b",
"5X c #f1a897",
"6X c #f8a693",
"7X c #ffa998",
"8X c #ffad9d",
"9X c #e1aeae",
"0X c #ebadab",
"qX c #e3b9af",
"wX c #e8b0a1",
"eX c #e9b7af",
"rX c #e8b8ae",
"tX c #e7b7b5",
"yX c #ffb1a4",
"uX c #eec1b9",
"iX c None",
/* pixels */
"iXiXiXiXiXiXiXiXiXiXiXiXiXiXiXiX",
"iXiX* 5 5 3 2 1 ; ; & ; $ - O o ",
"H 2.3X:X-X4X2X,X:X).(.M.i.Y.C.@.",
"XXuXeXt.K s [ ^ } ,.l.Q.Z.a.9.%.",
"*XoXOXz.O.9 ] l E x f.@XP.8.o.S ",
"$X9XwXp.+.8 H c P R s.].G.w.Z M ",
"|.+X0Xb.J U { ~ ' ! d.~.A.q.B S ",
".XqXtXB.*.1.;.) ( Q V.!.S.0.B C ",
" X4.` I.y.}.[./.'.W.<X^.D.6.N n ",
"%X3.j K.y T _ z I ..`.| <.r.D v ",
"&XrX#XT.u W / Y a q F.f g e.m p ",
"*X5.6 E.k._.g.>.:.-.{.R.m.n.n i ",
"h.H.v.,XyX8X8X7X6X5X1X .0 v.F t ",
"= @ d h L =.i.N.H.L.U.j.#.x.X.w ",
"iXiXiXiXiXiX  + 7 k e $.7.&.r % ",
"iXiXiXiXiXiXiXiXiXiXiX# < < o iX"
};
