/* XPM */
static char *magick[] = {
/* columns rows colors chars-per-pixel */
"32 32 5 1",
"  c Gray0",
". c #6699ff",
"X c #d2b48c",
"o c Wheat",
"O c None",
/* pixels */
"OOOO                   OOOOOOOOO",
"OOOO ooooooooooooooooo  OOOOOOOO",
"OOOO ooooooooooooooooo X OOOOOOO",
"OOOO ooooooooooooooooo XX OOOOOO",
"OOOO ooooooooooooooooo XXX OOOOO",
"OOOO ooooooooooooooooo XXXX OOOO",
"OOOO ooooooooooooooooo       OOO",
"OOOO ooooo..........oooXXXXX OOO",
"OOOO ooooooooooooooooooXXXXX OOO",
"OOOO ooooo..........oooooooo OOO",
"OOOO ooooooooooooooooooooooo OOO",
"OOOO ooooooo.........ooooooo OOO",
"OOOO ooooooooooooooooooooooo OOO",
"OOOO oooooo..........ooooooo OOO",
"OOOO ooooooooooooooooooooooo OOO",
"OOOO ooooo..........oooooooo OOO",
"OOOO ooooooooooooooooooooooo OOO",
"OOOO ooooooo.........ooooooo OOO",
"OOOO ooooooooooooooooooooooo OOO",
"OOOO oooooo..........ooooooo OOO",
"OOOO ooooooooooooooooooooooo OOO",
"OOOO ooooo..........oooooooo OOO",
"OOOO ooooooooooooooooooooooo OOO",
"OOOO oooooo..........ooooooo OOO",
"OOOO ooooooooooooooooooooooo OOO",
"OOOO ooooo.......ooooooooooo OOO",
"OOOO ooooooooooooooooooooooo OOO",
"OOOO ooooooooooooooooooooooo OOO",
"OOOO ooooooooooooooooooooooo OOO",
"OOOO ooooooooooooooooooooooo OOO",
"OOOO ooooooooooooooooooooooo OOO",
"OOOO                         OOO"
};
