/* XPM */
static char *magick[] = {
/* columns rows colors chars-per-pixel */
"32 32 97 2",
"   c Gray0",
".  c #010100",
"X  c #020000",
"o  c #020101",
"O  c #030100",
"+  c #090000",
"@  c #0b0100",
"#  c #0a0300",
"$  c #0a0603",
"%  c #0d0100",
"&  c #0f0500",
"*  c #0e0702",
"=  c #0a0905",
"-  c #0f0d08",
";  c #150800",
":  c #140a00",
">  c #150b00",
",  c #150b01",
"<  c #150b02",
"1  c #100d0e",
"2  c #1b1a16",
"3  c #221503",
"4  c #221506",
"5  c #2f250b",
"6  c #2d2314",
"7  c #342d19",
"8  c #3a301f",
"9  c #402c06",
"0  c #4c2a08",
"q  c #4d2e09",
"w  c #4c2e0a",
"e  c #4d3007",
"r  c #4e3c0d",
"t  c #4a3a14",
"y  c #5d3f0e",
"u  c #553e10",
"i  c #443c26",
"p  c #5f4217",
"a  c #5c4412",
"s  c #5d471b",
"d  c #5e451b",
"f  c #53472c",
"g  c #5d5638",
"h  c #634b0d",
"j  c #796b46",
"k  c #64666d",
"l  c #8f4e0c",
"z  c #855f15",
"x  c #8e6926",
"c  c #a5621a",
"v  c #b77f1e",
"b  c #ab7121",
"n  c #85754b",
"m  c #c97d1e",
"M  c #b8841c",
"N  c #a68324",
"B  c #aa8a28",
"V  c #ab922d",
"C  c #b98a34",
"Z  c #b8952d",
"A  c #b09039",
"S  c #b6903e",
"D  c #b7963d",
"F  c #958154",
"G  c #a08b59",
"H  c #e4ad3a",
"J  c #eab633",
"K  c #f3aa35",
"L  c #f5b338",
"P  c #f3b545",
"I  c #ffbc53",
"U  c #f6c943",
"Y  c #fcc946",
"T  c #ffcb53",
"R  c #ffd744",
"E  c #ffd44a",
"W  c #f8db46",
"Q  c #ffd250",
"!  c #ffd555",
"~  c #ffe349",
"^  c #ffe74a",
"/  c #ffe45b",
"(  c #fffd51",
")  c #ffff62",
"_  c #999da3",
"`  c #a19b80",
"'  c #ebdba5",
"]  c #fde89f",
"[  c #fff4ae",
"{  c #fff6b2",
"}  c #fffbbc",
"|  c #ffffb9",
" . c #ffffd7",
".. c #ffffd8",
"X. c #eceeec",
"o. c ivory",
"O. c None",
/* pixels */
"O.O.O.O.O.O.O.O.O.O.O.O.O.O.O.O.O.O.O.O.O.O.O.O.O.    O.O.O.O.O.",
"O.O.O.O.O.O.O.O.O.O.O.O.O.O.O.O.O.O.O.O.O.O.O.O.O.  * O.O.O.O.O.",
"O.O.O.O.O.O.O.O.O.O.O.O.O.O.O.O.O.O.O.O.O.O.O.O.O.l q O.O.O.O.O.",
"O.O.O.O.O.O.O.O.O.O.O.O.O.O.O.O.O.O.O.O.O.O.O.O.h v O.O.O.O.O.O.",
"O.O.O.O.O.O.O.O.O.O.O.O.O.O.O.O.O.O.O.O.O.O.O.3 J 5 O.O.O.O.O.O.",
"O.O.O.O.O.O.O.O.O.O.O.O.O.O.O.O.O.O.O.O.O.O.O.m x O.O.O.O.O.O.O.",
"O.O.O.O.O.O.O.O.O.O.O.O.O.O.O.O.O.O.O.O.O.O.z H   O.O.O.O.O.O.O.",
"O.O.O.O.O.O.O.O.O.O.O.O.O.O.O.O.O.O.O.O.O.9 ^ t O.O.O.O.O.O.O.O.",
"O.O.O.O.O.O.O.O.O.O.O.O.O.O.O.O.O.O.O.O.+ K A O.O.O.O.O.O.O.O.O.",
"O.O.O.O.O.O.O.O.O.O.O.O.O.O.O.O.O.O.O.O.c I : O.O.O.O.O.O.O.O.O.",
"O.O.O.O.O.O.O.O.O.O.O.O.O.O.O.O.O.O.O.q ! d O.O.O.O.O.O.O.O.O.O.",
"O.O.O.O.O.O.O.O.O.O.O.O.O.O.O.O.O.O.* U S O.O.O.O.O.O.O.O.O.O.O.",
"O.O.O.O.O.O.O.O.O.O.O.O.O.O.O.O.O.O.V / : O.O.O.O.O.O.O.O.O.O.O.",
"O.O.O.O.O.O.O.O.O.O.O.O.O.O.O.O.O.u ) d O.O.O.O.O.O.O.O.O.O.O.O.",
"O.O.O.O.O.O.O.O.O.O.O.O.O.O.O.O.% Y D O.O.O.O.O.O.O.O.O.O.O.O.O.",
"O.O.O.O.O.O.O.O.O.O.O.O.O.O.O.O.b T : O.O.O.O.O.O.O.O.O.O.O.O.O.",
"O.O.O.O.O.O.O.O.O.O.O.O.O.O.O.0 Q p O.O.O.O.O.O.O.O.O.O.O.O.O.O.",
"O.O.O.O.O.O.O.O.O.O.O.O.O.O.+ L C O.O.O.O.O.O.O.O.O.O.O.O.O.O.O.",
"O.O.O.O.O.O.O.O.O.O.O.O.O.O.N E : O.O.O.O.O.O.O.O.O.O.O.O.O.O.O.",
"O.O.O.O.O.O.O.O.O.O.O.O.O.r ( a O.O.O.O.O.O.O.O.O.O.O.O.O.O.O.O.",
"O.O.O.O.O.O.O.O.O.O.O.O.+ W Z O.O.O.O.O.O.O.O.O.O.O.O.O.O.O.O.O.",
"O.O.O.O.O.O.O.O.O.O.O.O.B R : O.O.O.O.O.O.O.O.O.O.O.O.O.O.O.O.O.",
"O.O.O.O.O.O.O.O.O.O.O.e ~ y O.O.O.O.O.O.O.O.O.O.O.O.O.O.O.O.O.O.",
"O.O.O.O.O.O.O.O.O.O.1 P M O.O.O.O.O.O.O.O.O.O.O.O.O.O.O.O.O.O.O.",
"O.O.O.O.O.O.O.O.O.O._ o.4 O.O.O.O.O.O.O.O.O.O.O.O.O.O.O.O.O.O.O.",
"O.O.O.O.O.O.O.O.O.2 X.k O.O.O.O.O.O.O.O.O.O.O.O.O.O.O.O.O.O.O.O.",
"O.O.O.O.O.O.O.O.i ' ` O.O.O.O.O.O.O.O.O.O.O.O.O.O.O.O.O.O.O.O.O.",
"O.O.O.O.O.O.O.n } ..g O.O.O.O.O.O.O.O.O.O.O.O.O.O.O.O.O.O.O.O.O.",
"O.O.O.O.O.O.6 ]  .{ 7 O.O.O.O.O.O.O.O.O.O.O.O.O.O.O.O.O.O.O.O.O.",
"O.O.O.O.O.O.f [ | G O.O.O.O.O.O.O.O.O.O.O.O.O.O.O.O.O.O.O.O.O.O.",
"O.O.O.O.O.O.8 F j $ O.O.O.O.O.O.O.O.O.O.O.O.O.O.O.O.O.O.O.O.O.O.",
"O.O.O.O.O.O.= -     O.O.O.O.O.O.O.O.O.O.O.O.O.O.O.O.O.O.O.O.O.O."
};
