/* XPM */
static char *magick[] = {
/* columns rows colors chars-per-pixel */
"16 12 149 2",
"   c Gray0",
".  c #010101",
"X  c #010102",
"o  c #010405",
"O  c #040404",
"+  c Gray2",
"@  c #050506",
"#  c #090909",
"$  c #101010",
"%  c #101011",
"&  c #131414",
"*  c #141514",
"=  c #171719",
"-  c #16181a",
";  c #181819",
":  c #1f1820",
">  c #002800",
",  c #003400",
"<  c #003426",
"1  c #202020",
"2  c #212021",
"3  c Gray14",
"4  c #2b2926",
"5  c #34312f",
"6  c #363336",
"7  c #004800",
"8  c #025402",
"9  c #005f00",
"0  c #007200",
"q  c #007400",
"w  c #2a4e2c",
"e  c #385a38",
"r  c #237b23",
"t  c #45403b",
"y  c #47413d",
"u  c Gray26",
"i  c #504750",
"p  c #544854",
"a  c #5a534c",
"s  c #535353",
"d  c #5c5956",
"f  c #5d5d5d",
"g  c #446a5d",
"h  c #5b665e",
"j  c #796b5f",
"k  c #626362",
"l  c #656265",
"z  c #666566",
"x  c #6a6a6a",
"c  c #6c696c",
"v  c #6e686e",
"b  c #7d6e62",
"n  c #7a707a",
"m  c #7c7c7c",
"M  c #7c7aff",
"N  c #718071",
"B  c #816f5d",
"V  c #806f61",
"C  c #8a7764",
"Z  c #967e6a",
"A  c #8e8277",
"S  c Gray53",
"D  c #8e8483",
"F  c #8e8982",
"G  c #898989",
"H  c #8f8e8f",
"J  c #8b8d91",
"K  c #928b86",
"L  c #988e81",
"P  c #939393",
"I  c #9b949b",
"U  c #9e9999",
"Y  c Gray62",
"T  c #b19e82",
"R  c #b19e8d",
"E  c #a69fa6",
"W  c #aea494",
"Q  c #b2a087",
"!  c #bca78d",
"~  c #b3a496",
"^  c #b5a698",
"/  c #bcab93",
"(  c #bfab90",
")  c #a6a3a0",
"_  c #a4a0a7",
"`  c #a5a0a7",
"'  c #a9a2a9",
"]  c #aba7ab",
"[  c #ada5ae",
"{  c #aea8af",
"}  c #afafaf",
"|  c #a3b9a3",
" . c #b0a9a3",
".. c #b0acaf",
"X. c #b1adb1",
"o. c #b3afb3",
"O. c #b2aeb6",
"+. c #b4b2b3",
"@. c #b4b2b4",
"#. c #b4b3b4",
"$. c #b6b2b6",
"%. c #b6b3b7",
"&. c #b7b2b7",
"*. c #b4b4b4",
"=. c #b7b7b7",
"-. c #b7b1b8",
";. c #b6b8b9",
":. c #b9b5bb",
">. c #bdb8bd",
",. c #bdb9bd",
"<. c #bdb9be",
"1. c #9289ff",
"2. c #c5a981",
"3. c #c1a989",
"4. c #c1aa8a",
"5. c #c3aa88",
"6. c #cbad87",
"7. c #c0af9f",
"8. c #d4b58c",
"9. c #d0b696",
"0. c #c2b4a5",
"q. c #c4bfc4",
"w. c #cabfc6",
"e. c #c2b6d6",
"r. c #ccc3b9",
"t. c #ccc4bc",
"y. c #e2c39b",
"u. c #c2c3c4",
"i. c #c7c4c2",
"p. c #ccc1cd",
"a. c #cccac3",
"s. c #c9c9ca",
"d. c #d5c6c7",
"f. c #d0c8cc",
"g. c #d2d2d2",
"h. c #d8d9da",
"j. c #dad9df",
"k. c #e2e3e3",
"l. c #e2e5e4",
"z. c #e2e5e6",
"x. c #e7e8e7",
"c. c #e6e9ea",
"v. c #e8e2e8",
"b. c #e8e9e8",
"n. c #e3e6f9",
"m. c #f1f3e0",
"M. c #faf4fa",
"N. c Gray100",
"B. c None",
/* pixels */
"B.B.B.B.B.B.O m =.=.Y P 2 B.B.B.",
"B.B.B.B.B.B.2 v.N.M.z f   B.B.B.",
"B.B.B.B.B.l v e | N p n v u &   ",
"B.B.B.B.H 6 > > q 7 8 r i S u.d ",
"4 - ; k j.h w 9 7   0 ,   o i.A ",
"5.y.9.! W 7.d.p.w.g < : 5 s.R j ",
"8.5.L K ` ) D :.f.e.1.M n.0.Z t ",
"Q F T U O.[ %.,.I a.m.l.^ C y O ",
"5.6.2...{ +.%.E g.k.l.~ B = B.B.",
"/ / ;.` X.,.' %.q.c.r.V * B.B.B.",
"x J h.b.x.X.] %.,.t.b $ B.B.B.B.",
"  # 3 s G } %.%. .a $ B.B.B.B.B."
};
