/* XPM */
static char *magick[] = {
/* columns rows colors chars-per-pixel */
"32 32 11 1",
"  c Gray0",
". c #004000",
"X c #000080",
"o c #c0c000",
"O c Yellow",
"+ c #808080",
"@ c #a0a0a4",
"# c #c0c0ff",
"$ c #ffffc0",
"% c Gray100",
"& c None",
/* pixels */
"&&&&&&&&&&&&&&&&&&&&&&&&&&&&&&&&",
"&&&&&&&&&&&&&&&&&&&&&&&&&&&&&&&&",
"&&&&&&&&&&&&&&&&&&&&&&&&&&&&&&&&",
"&&&&&&&&&&&&&&&&&&&&&&&&&&&&&&&&",
"&&&&&&&&&&&&& &&&&   &&&&&&&&&&&",
"&&&&&&&&&&&& %  & &&&  &&&&&&&&&",
"&&&&&&&&&&& %%%% &&&&&&  &&&&&&&",
"&&&&&&&&&& %%%% &&&&&&&&&  &&&&&",
"&&&&&&&&& %%%% #######&&&&&  &&&",
"&&&&&&&& %%%% #XXXXXX##&&&&&&  &",
"&&&&&&& %%%% XXXXXXXXXX#&&&&&&& ",
"&&&&&& %%%% XXXX#%%#XXXX#&&&&& &",
"&&&&& %$%% XXXXX#%%#XXXXX#&&& &&",
"&&&& %$%% XXXXXXXXXXXXXXXX&&&&&&",
"&&& $$%$ oXXXXXXXXXXXXXXXX# &&&&",
"&& $$$$ $XXXXXX%%%%#XXXXXXX%  &&",
"& $$$$ $oXXXXXXX#%%#XXXXXXX%%% &",
" OO$$ $$oXXXXXXX#%%#XXXXXXX%%%% ",
" +OOO$$$oXXXXXXX#%%#XXXXXXX%%% +",
"& .+OOO$oXXXXXXX#%%#XXXXXXX%% +&",
"&&&  +OOooXXXXXX#%%#XXXXXX%% @&&",
"&&&&&  + oXXXXXX#%%#XXXXXX% @&&&",
"&&&&&&  $OoXXXXX#%%#XXXXXO +&&&&",
"&&&&&& $$$OoXXX%%%%%%XXXO @&&&&&",
"&&&&& $$$$$OoXXXXXXXXXXO @&&&&&&",
"&&&&& +$$$$$OOoXXXXXXoO @&&&&&&&",
"&&&&&&  +$$$$OOOOOOOOO.+&&&&&&&&",
"&&&&&&&&  +$$$$$$$$$$ +&&&&&&&&&",
"&&&&&&&&&&  @$$$$$$$.+&&&&&&&&&&",
"&&&&&&&&&&&&  +$$$$ +&&&&&&&&&&&",
"&&&&&&&&&&&&&& .++ @&&&&&&&&&&&&",
"&&&&&&&&&&&&&&&&  @&&&&&&&&&&&&&"
};
