/* XPM */
static char *magick[] = {
/* columns rows colors chars-per-pixel */
"16 16 139 2",
"   c Gray0",
".  c #010100",
"X  c #020100",
"o  c #030100",
"O  c #020202",
"+  c #040200",
"@  c #050300",
"#  c #040404",
"$  c Gray2",
"%  c #060606",
"&  c #04070a",
"*  c #080501",
"=  c #090500",
"-  c #0a0500",
";  c #0e0801",
":  c #0f0801",
">  c #0c0804",
",  c #090909",
"<  c Gray4",
"1  c #0c0c0c",
"2  c Gray5",
"3  c #120700",
"4  c #110900",
"5  c #120a01",
"6  c #120a04",
"7  c #170d01",
"8  c #180d00",
"9  c #1f0f00",
"0  c #1c1002",
"q  c #1e1101",
"w  c #161616",
"e  c #181818",
"r  c Gray10",
"t  c #1b1b1b",
"y  c Gray12",
"u  c #111b23",
"i  c #141e2b",
"p  c #161f2b",
"a  c #1f252c",
"s  c #162130",
"d  c #251402",
"f  c #261402",
"g  c #2c1802",
"h  c #2c1a01",
"j  c #301a02",
"k  c #331d02",
"l  c #321d04",
"z  c #341d02",
"x  c #351d03",
"c  c #351e02",
"v  c #351f02",
"b  c #301e08",
"n  c #381f03",
"m  c #392003",
"M  c #392103",
"N  c #3b2103",
"B  c #232220",
"V  c #222222",
"C  c #232323",
"Z  c #23262a",
"A  c #242628",
"S  c #2b2924",
"D  c Gray16",
"F  c #2b2c2e",
"G  c #2c2c2c",
"H  c Gray18",
"J  c #2f2f2f",
"K  c #212630",
"L  c #2d2f32",
"P  c #2e2f30",
"I  c #2f3030",
"U  c #3c2e21",
"Y  c #39322c",
"T  c #303335",
"R  c #323334",
"E  c #333437",
"W  c #343333",
"Q  c #343637",
"!  c #373737",
"~  c #32363b",
"^  c #363738",
"/  c #3a3939",
"(  c #3a3a3a",
")  c #412506",
"_  c #432a0e",
"`  c #512f06",
"'  c #543106",
"]  c #563205",
"[  c #5e360a",
"{  c #413220",
"}  c #40362c",
"|  c #60390f",
" . c #683b09",
".. c #643f12",
"X. c #504539",
"o. c #66431a",
"O. c #754305",
"+. c #7d470d",
"@. c #78480f",
"#. c #724717",
"$. c #795526",
"%. c #424345",
"&. c #515860",
"*. c #595d60",
"=. c #6e757d",
"-. c #737577",
";. c #73777d",
":. c #7d7d7e",
">. c #824a07",
",. c #844c10",
"<. c #854e11",
"1. c #855011",
"2. c #85561b",
"3. c #945607",
"4. c #93550c",
"5. c #98570e",
"6. c #9a590a",
"7. c #9d5a0b",
"8. c #985a12",
"9. c #985b12",
"0. c #9d6013",
"q. c #9c6123",
"w. c #a35b08",
"e. c #a15f0a",
"r. c #a96412",
"t. c #b16609",
"y. c #b0640e",
"u. c #b66a0c",
"i. c #bc6f0f",
"p. c #b66a10",
"a. c #b76d17",
"s. c #bb6c11",
"d. c #b47a38",
"f. c #907756",
"g. c #c0741c",
"h. c #c37821",
"j. c #c87c21",
"k. c #a1896c",
"l. c None",
/* pixels */
"l.l.l.l.l.l.# #         l.l.l.l.",
"l.l.l.l.l.l.2 2 < < # # l.l.l.l.",
"l.l.l.l.l.2 V y V y r w l.l.l.l.",
"l.l.l.l.l.r J D D Q ( V l.l.l.l.",
"l.l.l.l.l.r W J J D ^ E l.l.l.l.",
"l.l.l.l.l.& R R J P -.X.l.l.l.l.",
"l.l.l.l.l.l.{ Q ( *.k.w.9 l.l.l.",
"l.l.> _ 1.2.Y Z I ~ S 4.6.6 l.l.",
"l.l...j.g.} i %.F A s o.t.>.  l.",
"l.l.b h.a.U &.:.P K i @.y.s.+.* ",
"l.l.  8.i.f.=.a u V #.p.7.O.] ; ",
"l.l.l.[ d.;.q.5.8.e.3. .) v n * ",
"l.l.l.5 0.$.u.r.,.` v v N N f @ ",
"l.l.l.  | ,.] k h v n l 0 @ l.l.",
"l.l.l.l.  8 0 h j f ; l.l.l.l.l.",
"l.l.l.l.  5 7 5 *   l.l.l.l.l.l."
};
