/* XPM */
static char *magick[] = {
/* columns rows colors chars-per-pixel */
"16 16 81 1",
"  c Gray0",
". c #010100",
"X c #020200",
"o c #040404",
"O c #040405",
"+ c #0b0b00",
"@ c #141400",
"# c #19191a",
"$ c #242400",
"% c #252500",
"& c #292900",
"* c #2b2b00",
"= c #2c2c00",
"- c #0e0e7e",
"; c #131375",
": c #3b3b57",
"> c #31316b",
", c #4a4a39",
"< c #7a7a00",
"1 c #7b7b00",
"2 c #464645",
"3 c Gray28",
"4 c #47474b",
"5 c #46464c",
"6 c #4d4d50",
"7 c #545440",
"8 c #353592",
"9 c #424281",
"0 c #595980",
"q c #6f6f87",
"w c #838300",
"e c #9d9d03",
"r c #a1a13e",
"t c #b9b930",
"y c #a0a042",
"u c #a0a045",
"i c #a0a046",
"p c #a0a047",
"a c #a4a446",
"s c #c0c02c",
"d c #c0c02d",
"f c #808085",
"g c #82828f",
"h c #85858c",
"j c #89898c",
"k c #bdbdac",
"l c #ceceaf",
"z c #dadab1",
"x c #e3e38d",
"c c #e5e58e",
"v c #eeee96",
"b c #f5f59a",
"n c #fbfb9b",
"m c #ffff9e",
"M c #e8e8a0",
"N c #ededb4",
"B c #eeeeb9",
"V c #f3f3a1",
"C c #fefea7",
"Z c #ffffae",
"A c #ededdd",
"S c #f2f2ca",
"D c #ffffca",
"F c #ffffcc",
"G c LightGoldenrodYellow",
"H c #fcfcd5",
"J c #ffffd5",
"K c #ffffd7",
"L c #ffffdc",
"P c #e7e7e9",
"I c #f1f1e5",
"U c #ffffe2",
"Y c #ffffe8",
"T c #ffffea",
"R c #fcfcee",
"E c #fffff5",
"W c #fcfcff",
"Q c #fffffc",
"! c #fffffd",
"~ c Gray100",
"^ c None",
/* pixels */
"^^^^^^^^^^^^^^^^",
"^^^^^^^^^^^^^^^^",
"^^^^^^^^^^^^^^^^",
"^^^^^^^^ o ^^^^^",
"^^^^^^^^6~ho ^^^",
"^^^^^^^5~Z~~fo  ",
"^^^^^^5~VNcv~~j#",
"^^^^^4~CHMSB~~~7",
"^^^^3~Ik~~Rx~~a=",
"^^^3EG>;8P~~~i$ ",
" ^,UL90-gA~~i$^^",
"  tmHlq:zT~y$^^^",
"  &<dnHFTTi$^^^^",
"^^^ $<dbDr$^^^^^",
"^^^^^ $we&^^^^^^",
"^^^^^^ +@ ^^^^^^"
};
