/* XPM */
static char *magick[] = {
/* columns rows colors chars-per-pixel */
"32 32 255 2",
"   c #00165c",
".  c #002565",
"X  c #002c6c",
"o  c #00326f",
"O  c #023572",
"+  c #053a75",
"@  c #0c3c76",
"#  c #0a3e78",
"$  c #0e417a",
"%  c #12447c",
"&  c #16497e",
"*  c #1a487d",
"=  c #00747c",
"-  c #274f7a",
";  c #454474",
":  c #716a78",
">  c #0b4783",
",  c #005582",
"<  c #154d85",
"1  c #1c4d82",
"2  c #144f88",
"3  c #175089",
"4  c #1f5184",
"5  c #1a538a",
"6  c #1f5d95",
"7  c #004dab",
"8  c #0d6e8d",
"9  c #006f9f",
"0  c #1a6898",
"q  c #0066be",
"w  c #007bb7",
"e  c #1666ab",
"r  c #235385",
"t  c #23568c",
"y  c #275888",
"u  c #2a5686",
"i  c #2a5688",
"p  c #2c5b8b",
"a  c #285886",
"s  c #255d92",
"d  c #2d5693",
"f  c #325d8d",
"g  c #355f90",
"h  c #2b6688",
"j  c #23639b",
"k  c #25659c",
"l  c #2b6394",
"z  c #2e649d",
"x  c #2b6a9a",
"c  c #33628d",
"v  c #39648e",
"b  c #346694",
"n  c #32629e",
"m  c #3a6492",
"M  c #3c6a93",
"N  c #366b99",
"B  c #307289",
"V  c #3d739e",
"C  c #2a798e",
"Z  c #296ba4",
"A  c #2875a6",
"S  c #3a63a1",
"D  c #376ba3",
"F  c #3e6fbb",
"G  c #3875a7",
"H  c #377bb7",
"J  c #40568f",
"K  c #426c94",
"L  c #466d99",
"P  c #466c98",
"I  c #4e7580",
"U  c #41759e",
"Y  c #4b729b",
"T  c #567588",
"R  c #51759d",
"E  c #4163a5",
"W  c #426eb2",
"Q  c #427caa",
"!  c #467aa6",
"~  c #587aa4",
"^  c #487cb1",
"/  c #745a8c",
"(  c #6f7e8c",
")  c #7370b6",
"_  c #477bc4",
"`  c #677fcd",
"'  c #0087a8",
"]  c #0686b1",
"[  c #009aad",
"{  c #1598b7",
"}  c #16a9a5",
"|  c #33889f",
" . c #2983ad",
".. c #2d80b9",
"X. c #3986ad",
"o. c #3985b7",
"O. c #32acbe",
"+. c #3fb6bc",
"@. c #32a2ac",
"#. c #178fc3",
"$. c #1a93d2",
"%. c #1cb2e4",
"&. c #2d8ac1",
"*. c #2995cc",
"=. c #3686c1",
"-. c #3594d7",
";. c #3291d1",
":. c #2da7c5",
">. c #36a9d7",
",. c #3eb4c2",
"<. c #3cb0da",
"1. c #2aa4d4",
"2. c #3fa2e4",
"3. c #3dc5d2",
"4. c #5c8c9e",
"5. c #4583aa",
"6. c #488ab7",
"7. c #578aa9",
"8. c #5688b5",
"9. c #5890ad",
"0. c #5894b9",
"q. c #4dacbb",
"w. c #6786aa",
"e. c #6588b4",
"r. c #6698ba",
"t. c #748cac",
"y. c #718eb2",
"u. c #7f98aa",
"i. c #7595b1",
"p. c #6fa69b",
"a. c #69a9ad",
"s. c #63a8bb",
"d. c #74b8b9",
"f. c #4797cc",
"g. c #429bd8",
"h. c #5689c3",
"j. c #589ec4",
"k. c #509fdf",
"l. c #4ea7cd",
"z. c #48b6d4",
"x. c #58a8d7",
"c. c #52bfd7",
"v. c #4fb2cb",
"b. c #4fb6e3",
"n. c #52b5f5",
"m. c #639fc9",
"M. c #7c99cb",
"N. c #6ba7c8",
"B. c #67b9c7",
"V. c #6eb0d5",
"C. c #66baed",
"Z. c #7bb7eb",
"A. c #6bc1ae",
"S. c #5ac3d6",
"D. c #5bc6c8",
"F. c #78c6e7",
"G. c #68c3e7",
"H. c #68cbcf",
"J. c #ff3a7e",
"K. c #9e668d",
"L. c #bd5d8e",
"P. c #b07a8e",
"I. c #b96992",
"U. c #b87eae",
"Y. c #a873ae",
"T. c #db5da3",
"R. c #c56e9d",
"E. c #dd6690",
"W. c #de60a1",
"Q. c #dc7eba",
"!. c #ef529d",
"~. c #f8498b",
"^. c #f84997",
"/. c #ff559c",
"(. c #e959a1",
"). c #fb68ab",
"_. c #ff6db8",
"`. c #e963a8",
"'. c #fa7bc3",
"]. c #839bba",
"[. c #918baa",
"{. c #9b8cb8",
"}. c #88a5be",
"|. c #8db8b1",
" X c #95abaa",
".X c #9bb1be",
"XX c #99a2bb",
"oX c #ac8daf",
"OX c #ae9cbc",
"+X c #a7afb3",
"@X c #b4b0b0",
"#X c #8390c0",
"$X c #9e89ca",
"%X c #8ba8c5",
"&X c #89bbc3",
"*X c #95abc4",
"=X c #99aec7",
"-X c #9db2c9",
";X c #97b5c6",
":X c #af9bc3",
">X c #a2b5cc",
",X c #a5b9cc",
"<X c #adbed1",
"1X c #bba7d6",
"2X c #b4bfe3",
"3X c #88c6a9",
"4X c #8ed1ad",
"5X c #89cbb6",
"6X c #a4d7bb",
"7X c #b1ceaf",
"8X c #84cec1",
"9X c #96c5c2",
"0X c #86d4c8",
"qX c #92cdef",
"wX c #afc0d3",
"eX c #b7c5d6",
"rX c #b8efc6",
"tX c #c78aae",
"yX c #c5b3b8",
"uX c #ff86aa",
"iX c #f4abaf",
"pX c #c5b5d3",
"aX c #cab6f1",
"sX c #ff90cc",
"dX c #f995d6",
"fX c #ec98c8",
"gX c #e0a0d1",
"hX c #d28dc9",
"jX c #c6dfa7",
"kX c #ffff9a",
"lX c #fdf8aa",
"zX c #f7fdba",
"xX c #e9f9b8",
"cX c #c2cedc",
"vX c #c5d1de",
"bX c #c8d1dc",
"nX c #cbd6e2",
"mX c #d3dbe4",
"MX c #d3dde8",
"NX c #d7faca",
"BX c #d4eed6",
"VX c #dbe1e9",
"CX c #d4eaff",
"ZX c #c6f5fa",
"AX c #ffdad8",
"SX c #e4d3d8",
"DX c #ede1c4",
"FX c #fffad3",
"GX c #e9f5d1",
"HX c #e3e9ee",
"JX c #e8ebf2",
"KX c #edf1f4",
"LX c #fbf6e4",
"PX c #fefefe",
"IX c #f2f4f7",
/* pixels */
"A Z j j j k k j j j j k k k j j j j j k k j j j j k k k k j j Z ",
"Z s < 3 > 3 5 < 5 < 5 t 5 t 3 3 5 5 > 5 3 < 5 5 < 5 5 5 > < < 6 ",
"j < @ O R bXnXi + o w.mXVXeXf + @ O * nXw.X @ @ o t.mXbXt.O + 5 ",
"j 5 @ + cXwXr + # @ % ~ IXf $ $ % o y.PXnX# @ % o >X-X~ HX% @ 5 ",
"j 5 @ + ~ mX>X1 + % O p JX+ + % @ + nXw.nXM O % o *XJXbX].O @ 5 ",
"j 5 @ + + & MX*XO % O m KX% # % O M PXnXPX>XX # o -X<XwX%XX @ 5 ",
"0 > o X w.eXmXP X O X f JX+ o O X >X>XO P HX& O X >Xi.r KX% X < ",
"8.! P K ~ i.w.m P L P L w.M M g p 7.R i i ~ m f p ~ ~ m y.L K ! ",
"].>X>X>X-X*X=X-X>X>X>X>X-X*X,XPXPX>X].nXPX>XPXPXPX<X*X*X*X=X=X%X",
"% X X X X O O X . X X X . O =Xw.y.*XX =X}.b nXf i X 1 1 X r % 5 ",
"r r r r i M 4 8.1 + % % O i.<X. o mXw.PX}.vXVXw.eXi.mX}.].<XmXU ",
"p s p b Q C ;XCXN.t O $ O *X].  Y vX1 nX. %X~ ~ *XvXy O KX<XVX! ",
"z g n Z h.T sX/.qX+.f @ @ P nX>XcXK w.cXo VXY ,Xy.>XvXy.eXwX~ s ",
"n Z z H h.C dX'.V.[ o.% # @ i L i + 4 p # m & p * * Y f u R f s ",
"S D D h.e., z.qXn.b.x.Y # 4 $ @ $ & & & * & & & & < % & & & * s ",
"d d d W ; Y.G z.x.|.].^ % c 1 1 1 1 1 1 1 1 1 1 4 r r r r r r s ",
"l k Z &.I R.T.Z.6XkXlXV.i p 1 1 1 1 1 1 r 1 r r r r r r r r r l ",
"l l k X.( !.(.) 9X6X@.z.v u & 1 1 1 1 r r r r r r r r r y r r l ",
"n S S _ ~ ~.`.T.r.1.d.NX9XM Y r 1 r m u r r r u r r y y y y r l ",
"S E E W _ Y.T./.[.A.lX3X0.~ y.c u p p 1 * * * r y y y y y p u l ",
"! ! G F =.m.gX'.).M.v.} B.f.e.D m M U G 7.9.0.f - r u y p p p b ",
"! ! ! 8.j.N.,XOXXXhX%X4X@.4.X.z.7X+XA.9Xm.k.O.#.x.5.f p p f p b ",
"G A A 6.>.A K.` %.LXFXNXt.x a.O.jX4Xq.zX@Xl.c.pXaXF.I M p c f N ",
"G Z o.=.{ ] ).{ 3.JXBX*.g -X+XO.7X5XB.lX3XC.qXJ.^.;XB Y p c c N ",
"R ~ 8.#X X8 tX1XyXDXV.w ] ZXSX Xp.D.q.c.H.S.c.fX:X0 s.K c c c N ",
"5.U X.s.p. .$X'.iXzX$.q 0XLXZX2XP.Y.R.R.tXU.A = | 5.7.m c m c V ",
"5.5.X.0.8X] 7 [.xXrX1.f.GXnX<.z.sX(.~.!.E.I./ - x.H z m v M v V ",
"X.G o.f.x.z.w |..X;.B.zXAXs.[ {.tXiXI.~.~.: b ^ 5.z M M M M M V ",
"8.8.0.qXV.C.G.1X#X&.d.lXuXQ.tXL.0.F.9.$Xu.0.N.G N M M M M M M V ",
"Q H 6.f.;.f.V.j.7.0..X9.oXQ.K.h z g.;.-.g...G M M M M M M K K V ",
"Q ^ 6...o.=.o.6.5.s.&X' 9 j e *.z.r.D G V N M K K M K K K K K U ",
"Q Q Q Q X.5.5.5.5.0.x.2. .a.s.d.0.Q V G V V V V V V U U U U U Q "
};
