/* XPM */
static char *magick[] = {
/* columns rows colors chars-per-pixel */
"16 16 170 2",
"   c Gray0",
".  c Transparent",
"X  c #000002",
"o  c #000003",
"O  c #010102",
"+  c #030305",
"@  c #040405",
"#  c #040407",
"$  c #060604",
"%  c #070705",
"&  c #0b0b07",
"*  c #0c0c07",
"=  c #0d0d07",
"-  c #0e0e0a",
";  c #16160a",
":  c #16160b",
">  c #1c1c0a",
",  c #1c1c0b",
"<  c #1e1e09",
"1  c #25250b",
"2  c #27270a",
"3  c #27270f",
"4  c #2e2e07",
"5  c #2b2b0a",
"6  c #29290c",
"7  c #2f2f1e",
"8  c #373712",
"9  c #373715",
"0  c #393915",
"q  c #3f3f10",
"w  c #3d3d15",
"e  c #2d2d40",
"r  c #3a3a42",
"t  c #41410e",
"y  c #47470f",
"u  c #414116",
"i  c #484810",
"p  c #4b4b13",
"a  c #4f4f11",
"s  c #4c4c18",
"d  c #58580c",
"f  c #5f5f11",
"g  c #59591a",
"h  c #5a5a19",
"j  c #606014",
"k  c #666613",
"l  c #656515",
"z  c #666619",
"x  c #727207",
"c  c #7d7d15",
"v  c #7e7e1f",
"b  c #707022",
"n  c #7f7f21",
"m  c #7e7e24",
"M  c #49495f",
"N  c #5e5e44",
"B  c Gray32",
"V  c #5c5c5d",
"C  c #64647a",
"Z  c #686871",
"A  c #6a6a71",
"S  c #77778c",
"D  c #7e7e8e",
"F  c #8a8a12",
"G  c #8a8a1e",
"H  c #95950d",
"J  c #99990d",
"K  c #979714",
"L  c #92921a",
"P  c #999912",
"I  c #9e9e1d",
"U  c #848426",
"Y  c #8f8f2b",
"T  c #888836",
"R  c #8f8f3c",
"E  c #919126",
"W  c #9b9b2f",
"Q  c #a4a412",
"!  c #a6a619",
"~  c #a5a51e",
"^  c #acac15",
"/  c #adad18",
"(  c #afaf1c",
")  c #b4b40e",
"_  c #b8b80e",
"`  c #b9b913",
"'  c #b8b81a",
"]  c #a1a122",
"[  c #a5a525",
"{  c #a2a229",
"}  c #abab21",
"|  c #a3a335",
" . c #a6a63a",
".. c #acac34",
"X. c #b7b728",
"o. c #b9b93c",
"O. c #9b9b4b",
"+. c #a7a74d",
"@. c #abab43",
"#. c #afaf51",
"$. c #bfbf5c",
"%. c #aaaa64",
"&. c #b2b268",
"*. c #c1c116",
"=. c #c9c918",
"-. c #c2c22b",
";. c #d1d139",
":. c #c4c44c",
">. c #c5c559",
",. c #d2d255",
"<. c #c2c26f",
"1. c #cece70",
"2. c #d9d970",
"3. c Gray54",
"4. c #8d8d8d",
"5. c #8c8c97",
"6. c #939392",
"7. c #919194",
"8. c #959595",
"9. c Gray59",
"0. c Gray62",
"q. c #9393a7",
"w. c #aeae97",
"e. c #a0a0a0",
"r. c Gray63",
"t. c #a2a2a2",
"y. c #a5a5a5",
"u. c #afafaf",
"i. c #a1a1b3",
"p. c #a2a2b6",
"a. c #a6a6b8",
"s. c #aaaab7",
"d. c #b6b6a4",
"f. c #b7b7a5",
"g. c Gray70",
"h. c #bdbdbc",
"j. c #babac2",
"k. c #c6c69c",
"l. c #c8c899",
"z. c #d1d19b",
"x. c #cecea1",
"c. c #d3d3ad",
"v. c #dadaa1",
"b. c #c1c1c1",
"n. c #c4c4c3",
"m. c #c0c0c8",
"M. c #c9c9cb",
"N. c #cdcdcc",
"B. c #cecece",
"V. c #cacad5",
"C. c #ceced5",
"Z. c #c8c8d8",
"A. c Gray82",
"S. c #d2d2d2",
"D. c #d3d3d3",
"F. c #d7d7d2",
"G. c #d2d2d8",
"H. c #d9d9da",
"J. c #cacae7",
"K. c #d3d3e1",
"L. c #d4d4e2",
"P. c #d2d2e9",
"I. c #d3d3e9",
"U. c Gray89",
"Y. c #e4e4eb",
"T. c #efefef",
"R. c #efefff",
"E. c #fbfbfb",
"W. c Gray100",
"Q. c None",
/* pixels */
"Q.Q.Q.Q.Q.Q.# < t i 6 & Q.Q.Q.Q.",
"Q.Q.Q.Q.Q.Q.1 f F H x 4 Q.Q.Q.Q.",
"Q.Q.Q.Q.# j ( =.-.$.1.} d Q.Q.Q.",
"Q.Q.Q.Q.g ' *.T A M J.k.] q Q.Q.",
"Q.Q.Q.7 ~ _ <.S A V 7.a.+.v # Q.",
"Q.Q.Q.b ` o.K.G.U.u.6.s.x.G < Q.",
"Q.Q.* L ) l.R.W.E.r.8.j.d.W 9 Q.",
"Q.Q.5 ! X.Y.W.W.U.g.r.r N  .8 Q.",
"Q.Q.a ^ @.q.H.T.r.8.h.5.w.| 0 Q.",
"Q.Q.l / R e 3.4.0.y.B.L.v.E < Q.",
"Q.Q.y Q O.p.n.B.D.D.M.V.>.m Q.Q.",
"Q.Q.1 P #.P.B.D.B.b.Z.c...s Q.Q.",
"Q.Q.* c I m.C.8.B D F.:.Y : Q.Q.",
"Q.Q.Q.i J %.P.i.C d.,.{ w Q.Q.Q.",
"Q.Q.Q.- k K &.z.2.;.[ u Q.Q.Q.Q.",
"Q.Q.Q.  : q z U n g 3 # Q.Q.Q.Q."
};
