/* XPM */
static char *magick[] = {
/* columns rows colors chars-per-pixel */
"16 16 195 2",
"   c Gray0",
".  c #000606",
"X  c #070303",
"o  c Gray3",
"O  c #0b0b0b",
"+  c Gray5",
"@  c #0d0f0f",
"#  c #0f0f0e",
"$  c #1a0606",
"%  c #10100f",
"&  c #111111",
"*  c Gray7",
"=  c #141212",
"-  c Gray8",
";  c #2a2300",
":  c #28282e",
">  c #2e2e35",
",  c #313121",
"<  c #38383d",
"1  c #3b3b3f",
"2  c #3e3e3e",
"3  c #3f3f3f",
"4  c #004d4d",
"5  c #005259",
"6  c #007676",
"7  c #583a2a",
"8  c #514f00",
"9  c #5e5800",
"0  c #5e5900",
"q  c #5d5f02",
"w  c #4d4d3d",
"e  c #616305",
"r  c #636600",
"t  c #696300",
"y  c #404043",
"u  c #444446",
"i  c #484849",
"p  c Gray29",
"a  c #4a4a4b",
"s  c #4b4b4b",
"d  c #4e4e4a",
"f  c #4d4d51",
"g  c #4e4e53",
"h  c #4f4f53",
"j  c #525254",
"k  c #565058",
"l  c #565658",
"z  c #595955",
"x  c Gray37",
"c  c #5f5f5f",
"v  c #50696b",
"b  c #685155",
"n  c #6c6c4b",
"m  c #707050",
"M  c #757556",
"N  c #7a7a59",
"B  c #7e7e5f",
"V  c #626262",
"C  c Gray39",
"Z  c #636367",
"A  c #646465",
"S  c #636369",
"D  c #696967",
"F  c #6a6a67",
"G  c #6b6b68",
"H  c #6f6f6c",
"J  c #6f6f6f",
"K  c #607a76",
"L  c #70706e",
"P  c #72726f",
"I  c Gray44",
"U  c #727272",
"Y  c #747474",
"T  c #757576",
"R  c #7c7c7c",
"E  c Gray",
"W  c #00008e",
"Q  c #00008f",
"!  c #00009c",
"~  c #0000a3",
"^  c #0000a5",
"/  c #2a2ac8",
"(  c #005f83",
")  c #007286",
"_  c #007486",
"`  c #00778a",
"'  c #007b86",
"]  c #5a5891",
"[  c #6767a0",
"{  c #6868a2",
"}  c #7a7aa6",
"|  c #7976b1",
" . c #6565e7",
".. c #6161e9",
"X. c #6767e8",
"o. c #6666eb",
"O. c #6969f0",
"+. c #6b6bf1",
"@. c #008384",
"#. c #008484",
"$. c #2e8b8b",
"%. c #00c9c9",
"&. c #00c6d9",
"*. c #00e0e0",
"=. c #00e1e0",
"-. c #00e6e6",
";. c #00e9e7",
":. c #26cae2",
">. c #44e8f1",
",. c #46ebf0",
"<. c #47f0f8",
"1. c #52e6e6",
"2. c #54efee",
"3. c #54eff0",
"4. c #51f5f8",
"5. c #56ffff",
"6. c #5cf0f0",
"7. c #64d5ff",
"8. c #7cf4ff",
"9. c #87775d",
"0. c #957d5a",
"q. c #957f5d",
"w. c #867b6d",
"e. c #989200",
"r. c #87835a",
"t. c #8c8457",
"y. c #878766",
"u. c #8e8661",
"i. c #8f8f6e",
"p. c #928c68",
"a. c #90906f",
"s. c #949472",
"d. c #9d9d77",
"f. c #a58261",
"g. c #818181",
"h. c Gray51",
"j. c #818184",
"k. c Gray53",
"l. c #85858b",
"z. c #89898c",
"x. c #8e8e88",
"c. c #8e8e8e",
"v. c #83839a",
"b. c #83839d",
"n. c #909091",
"m. c Gray57",
"M. c #919192",
"N. c #929292",
"B. c #939393",
"V. c #959595",
"C. c #959596",
"Z. c #979797",
"A. c #999592",
"S. c #9a9a94",
"D. c #9b9b97",
"F. c #989898",
"G. c #99999e",
"H. c #9d9da0",
"J. c #9d9da1",
"K. c #a2a2a3",
"L. c Gray66",
"P. c #a8a8af",
"I. c #acacac",
"U. c #aeaeb2",
"Y. c #b0b0b5",
"T. c #b4b4b4",
"R. c #b5b1bb",
"E. c #bebbc2",
"W. c #bdbdc2",
"Q. c #86c3e9",
"!. c #a3daee",
"~. c #c4bc87",
"^. c #ffffab",
"/. c #ffffac",
"(. c #ffffaf",
"). c #ffffb2",
"_. c #f8f8ba",
"`. c #ffffbe",
"'. c #ffffbf",
"]. c #e0dad0",
"[. c #ffffc0",
"{. c #ffffc2",
"}. c #ffffc7",
"|. c #ffffcd",
" X c #ffffd4",
".X c #ffffd5",
"XX c #ffffd8",
"oX c #ffffd9",
"OX c #e1e1e2",
"+X c #ecf4ff",
"@X c #ffffe3",
"#X c #ffffe5",
"$X c #ffffe6",
"%X c #fffff7",
"&X c Gray100",
/* pixels */
"  & E g.g.j.v.b.b.b.b.v.j.g.g.c ",
"  O L.I P Y X.O...X.O. .Y P E c ",
"  & k.A z < Q ! / ^ ~ Q f d I 3 ",
"  + T.V G F ] | &X} { [ J F J V ",
"  O OXJ.G.A.].+XE.x.D.D.J.K.I.k.",
"  + U., t.w.Q.!.u.m M N n 3 s c.",
"  % Y.p.&X8.7.%XXX@X@X#X}.3 y B.",
"+ $ b 7 K 5 v f.0.q.9.~.`.f Z B.",
"$.1.5.4.3.6.2.>.>.<.:.e /.> u B.",
"#.%.-.=.=.=.=.=.=.;.&.r ^.l.z.B.",
"4 6 @.' _ ) ) ) ) ` ( q /.f j B.",
". X k ; t 9 9 9 9 9 8 e.).: < B.",
"  = R.r.|.`.`.`.`.`.`.[._.f S B.",
"  + P.B #X X X X X X XXX[.s s B.",
"  + W.w d.i.a.i.i.a.i.s.y.s l Z.",
"  - Z.Z.n.n.B.n.n.B.n.B.B.B.F.g."
};
