/* XPM */
static char *magick[] = {
/* columns rows colors chars-per-pixel */
"32 32 10 1",
"  c Gray0",
". c #111111",
"X c #440000",
"o c #444444",
"O c #9a6633",
"+ c #cc9966",
"@ c #888888",
"# c #bbbbbb",
"$ c #ffcc9a",
"% c None",
/* pixels */
"%%%%%%%%%%%%%%%%%%%%%%%%%%%%%%%%",
"%%%%%%%%%%%%%%%%%%%%%%%%%%%%%%%%",
"%%%%%%%%%%%%%%%%%%%%%%%%%%%%%%%%",
"%%%%%%%%%%%%%%%%%%%%%%%%%%%%%%%%",
"%%%%%%%%%%%%%%%%%%%%%%%%%%%%%%%%",
"%%%%%%%%%%%%%%%%%%%%%%%%%%%%%%%%",
"%%%%%%%%%%%%%%%%%%%%%%%%%%%%%%%%",
"%%%%%%%%%%%%%%      %%%%%%%%%%%%",
"%%%%%%%%%%%%% XXXXXX %%%%%%%%%%%",
"%%%%         X      X          %",
"%%% $$$$$$$$ X $$$$ X $$$$$$$$  ",
"%% $$$$$$$$$   $$$$   $$$$$$$ O ",
"% $$$$$$$$$$$$$$$$$$$$$$$$$$ OO ",
"%                           OOO ",
" ++++++++++++++++++++++++++ OOO ",
" ++++++++++++++++++++++++++ OOO ",
" ++++++++++++#####+++++++++ OOO ",
" +++++++++++++#++#+++++++++ OOO ",
" +++++++++++++#OOOOO+++++++ OOO ",
" +++++++++++++###++O+++++++ OOO ",
" +++++++++++++#+O++++++++++ OOO ",
" +++++++++++++#+OOO++++++++ OOO ",
" +++++++++++++#+O++++++++++ OOO ",
" +++++++++++@+#+o++++++++++ OOO ",
" ++++++++++@oooooo+++++++++ OOO ",
" +++++++++@o++.+Oo.++++++++ OOO ",
" +++++++++@o+OOOOo.O+++++++ OOO ",
" ++++++++++ooOo+o.++O++++++ OOO ",
" +++++++++++oooo.+++O++++++ OO %",
" ++++++++++++O++O++O+++++++ O %%",
" +++++++++++++OOOOO++++++++  %%%",
"%                           %%%%"
};
