/* XPM */
static char * unknown_xpm[] = {
"16 16 9 1",
" 	c None",
".	c #808080",
"+	c #FFFFFF",
"@	c #C0C0C0",
"#	c #000000",
"$	c #FF0000",
"%	c #008000",
"&	c #0000FF",
"*	c #FFFF00",
" ..........     ",
" .++++++++@.    ",
" .++++++++@+.   ",
" .++++++++####  ",
" .++++++++++@#  ",
" .++++++++++@#  ",
" .+$+++###++@#  ",
" .++$$#$#%#+@#  ",
" .+&+@#####+@#  ",
" .++&&#&#*#+@#  ",
" .+#+@#####+@#  ",
" .++##.@+@#+@#  ",
" .++++++++++@#  ",
" .++++++++++@#  ",
" .@@@@@@@@@@@#  ",
" #############  "};
