/* XPM */
static char *magick[] = {
/* columns rows colors chars-per-pixel */
"32 32 12 1",
"  c Gray0",
". c #004000",
"X c #004040",
"o c #404000",
"O c #c0c000",
"+ c Yellow",
"@ c #808080",
"# c #a0a0a4",
"$ c #c0c0c0",
"% c #ffffc0",
"& c Gray100",
"* c None",
/* pixels */
"********************************",
"********************************",
"********************************",
"********************************",
"************* ****   ***********",
"************ &  * &&&  *********",
"*********** &&&& &&&&&&  *******",
"********** &   &&&&&&      *****",
"********* &  & &&&&&  & & &  ***",
"******** & & @ &&&& &     &&&  *",
"******* &&  @@ &&&   @@$$ &&&&& ",
"****** && & @@ && & @ @$$  &&& *",
"***** &%&  @@@ &   @ &   & && **",
"**** &%&& &     & @@  & &  & ***",
"*** %%&%&@  & &  $$@ &   $  ****",
"** %%%% &@$     @$$@ &&$$$ &  **",
"* %%%% %&@$&$$@ @$$@ &&$$$ &&&  ",
" ++%% %%%@$&$$@ @$@  &&$$$ &&&& ",
" @+++oXO%@$&$$@ @$ @ &&$$$ &&& *",
"* .@+++o.@$&$$@ @ &   &$$  && @*",
"***  @+++@ &$$@    & &   & & #**",
"*****  @  &     & &&& & & & #***",
"******  %%  & &  %&&&&   & @****",
"****** %%%%    %%&&%&&&&& #*****",
"***** %%%%%%%%%%&&%&&&&% #******",
"***** @%%%%%%%%%%&%%&&% #*******",
"******  @%%%%%%%%%%&&%.@********",
"********  @%%%%%%%%%% @*********",
"**********  #%%%%%%%.@**********",
"************  @%%%% @***********",
"************** .@@ #************",
"****************  #*************"
};
