/* XPM */
static char *magick[] = {
/* columns rows colors chars-per-pixel */
"16 16 238 2",
"   c #0e0200",
".  c #0c0d0e",
"X  c #120400",
"o  c #170f06",
"O  c #190f04",
"+  c #1d0b00",
"@  c #121009",
"#  c #1b1a13",
"$  c #1c1a12",
"%  c #1e1c13",
"&  c #1f1f1c",
"*  c #2c1400",
"=  c #2a1801",
"-  c #281b0c",
";  c #201c16",
":  c #292218",
">  c #32271a",
",  c #212227",
"<  c #2c2c20",
"1  c #2d2a28",
"2  c #2b2b33",
"3  c #30302f",
"4  c #3a352d",
"5  c #3f3b2f",
"6  c #303133",
"7  c #3d3a31",
"8  c #39393e",
"9  c #3e3e3b",
"0  c #383b43",
"q  c #393f4a",
"w  c #40290a",
"e  c #493016",
"r  c #403c2e",
"t  c #4a4436",
"y  c #4b4536",
"u  c #4c4438",
"i  c #4c473a",
"p  c #4f493a",
"a  c #4e4b3a",
"s  c #554736",
"d  c #554e3e",
"f  c #5a4c3a",
"g  c #5a533e",
"h  c #685a3f",
"j  c #4c4844",
"k  c #4d4b49",
"l  c #4d4c4b",
"z  c #4a4e56",
"x  c #4d4f58",
"c  c #5b5443",
"v  c #595647",
"b  c #5f5847",
"n  c #545452",
"m  c #575657",
"M  c #595954",
"N  c #595858",
"B  c #605947",
"V  c #6a5743",
"C  c #6e6958",
"Z  c #756e59",
"A  c #7c755e",
"S  c #616366",
"D  c #686761",
"F  c #696664",
"G  c #6d6a60",
"H  c #68696e",
"J  c #6b6e7b",
"K  c #6c707c",
"L  c #73757d",
"P  c #787673",
"I  c #7a7774",
"U  c #7f7d71",
"Y  c #737b8e",
"T  c #747a8d",
"R  c #807d7f",
"E  c #8d897f",
"W  c #968d7e",
"Q  c #8c8984",
"!  c #818497",
"~  c #83889b",
"^  c #84899e",
"/  c #878d9f",
"(  c #8c8e92",
")  c #8f929e",
"_  c #9d978a",
"`  c #92949e",
"'  c #94969e",
"]  c #96979d",
"[  c #9094a8",
"{  c #999ba4",
"}  c #9d9fa5",
"|  c #9ea1aa",
" . c #aeaca9",
".. c #a0a5b6",
"X. c #a4a6b1",
"o. c #a4a6b2",
"O. c #a2a7bc",
"+. c #a7abb9",
"@. c #a5a9bc",
"#. c #a5aabf",
"$. c #a8abb9",
"%. c #a9acb8",
"&. c #a8acba",
"*. c #a9acba",
"=. c #a9adba",
"-. c #a9adbb",
";. c #aaafbb",
":. c #abafbb",
">. c #abaebc",
",. c #abafbc",
"<. c #acafbb",
"1. c #adb0bc",
"2. c #adb1bc",
"3. c #afb2bc",
"4. c #afb2bd",
"5. c #b6b3ae",
"6. c #b0b2b9",
"7. c #b2b3bb",
"8. c #b0b3bd",
"9. c #b1b4be",
"0. c #b2b4be",
"q. c #b2b5be",
"w. c #b4b6bf",
"e. c #bcbbb4",
"r. c #a5abc0",
"t. c #a7adc3",
"y. c #a8adc3",
"u. c #a8afc8",
"i. c #aeb5d1",
"p. c #b0b6cc",
"a. c #b0b6cd",
"s. c #b1b6cc",
"d. c #b5b8c4",
"f. c #b6b8c5",
"g. c #bbbfcf",
"h. c #bcbfcc",
"j. c #b3bad5",
"k. c #b2bad6",
"l. c #b3bad7",
"z. c #b4bbd6",
"x. c #b5bcd6",
"c. c #b5bdd6",
"v. c #b6bcd4",
"b. c #b6bcd6",
"n. c #b6bdd6",
"m. c #b7bed7",
"M. c #b8bfd7",
"N. c #b8bdd8",
"B. c #b8bfd8",
"V. c #bfc3d6",
"C. c #bfc4d6",
"Z. c #bac0d8",
"A. c #bac0d9",
"S. c #bbc1d9",
"D. c #bac2db",
"F. c #bcc2d9",
"G. c #bdc3da",
"H. c #bcc3df",
"J. c #bfc5d9",
"K. c #bec4da",
"L. c #bfc5da",
"P. c #bfc6db",
"I. c #bfc6df",
"U. c #bec5e0",
"Y. c #c0c4d0",
"T. c #c3c6d4",
"R. c #c0c5d9",
"E. c #c0c6db",
"W. c #c1c7db",
"Q. c #c2c6da",
"!. c #c2c7db",
"~. c #c0c6dc",
"^. c #c0c7dc",
"/. c #c0c7df",
"(. c #c3c9da",
"). c #c3c8dc",
"_. c #c3c8dd",
"`. c #c3c9dc",
"'. c #c2c8df",
"]. c #c4cadb",
"[. c #c5cbdb",
"{. c #c4c8df",
"}. c #c5cbde",
"|. c #c6cbdf",
" X c #c6ccdd",
".X c #c7ccdf",
"XX c #cdcfd0",
"oX c #ccced6",
"OX c #c8ccdc",
"+X c #c9cddd",
"@X c #c8cddf",
"#X c #cccedd",
"$X c #cdcfde",
"%X c #cdd1de",
"&X c #cdd2de",
"*X c #cfd2dd",
"=X c #ced2de",
"-X c #ced3df",
";X c #d6d6d3",
":X c #d0d3df",
">X c #c0c6e0",
",X c #c1c7e3",
"<X c #c0c8e1",
"1X c #c7cce0",
"2X c #c7cce1",
"3X c #c7cde2",
"4X c #c7cee0",
"5X c #c5cde6",
"6X c #c8cde2",
"7X c #cacee1",
"8X c #cbd1e3",
"9X c #c9d0e5",
"0X c #cdd1e1",
"qX c #cdd1e2",
"wX c #ced2e1",
"eX c #cfd3e2",
"rX c #cdd2e5",
"tX c #cfd4e3",
"yX c #ccd3ef",
"uX c #cfd5e9",
"iX c #d0d5e1",
"pX c #d0d5e3",
"aX c #d2d5e2",
"sX c #d1d5e5",
"dX c #d0d4e6",
"fX c #d2d6e4",
"gX c #d2d6e5",
"hX c #d2d7e4",
"jX c #d3d7e4",
"kX c #d2d6e9",
"lX c #d6d9e6",
"zX c #d3d9eb",
"xX c #d5daed",
"cX c #d8dded",
"vX c #d4dbf5",
"bX c #d6def3",
"nX c #eeeff2",
"mX c #f3f3f6",
/* pixels */
"} 6.w.q.q.8.8.4.4.4.<.;.;.;.$.>.",
"6.*XaX:X*X*X$X+X+X X].].(.Q.J.C.",
"w.aXlXhXhX0X0X0X0X7X+X1X X1X{.`.",
"q.*XhXaXaXkXzXxXrXuX8X1X1Xg.J.Q.",
"q.*XhXoX5.Y.h.d.R o. XvX8.I r.Q.",
"8.$XhXhXW e * + X   1 ' Z 4 / J.",
"8.tXcXbX .w = - O o : b g & [ J.",
"4.T.' d.nXe.;XXXU a i t % 0 a.G.",
"| ( n j Q P mXH E d r $ 2 O.<XS.",
"{ S 3 l C A _ G v 5 < . ~ yX>XS.",
";.o.N D a B v t s V h m a.@.y.v.",
";. X` k # @ ; 7 i > f F L 9 M ) ",
";.{.{...K z 8 6 , q Y T ^ ! x J ",
";.Q.1X9X7X~.a.@.t.B.5X,XU.H.i.u.",
"+.Q.`.Q.~.~.`.<XU.S.B.v.z.l.l.z.",
">.V.`.Q.Q.J.J.G.S.S.B.v.v.v.l.v."
};
