/* XPM */
static char *magick[] = {
/* columns rows colors chars-per-pixel */
"16 16 254 2",
"   c #001b1b",
".  c #1e1506",
"X  c #191e3c",
"o  c #1b1d3c",
"O  c #1a1e3c",
"+  c #00211b",
"@  c #052425",
"#  c #052820",
"$  c #02372b",
"%  c #06392e",
"&  c #0b3a30",
"*  c #10232d",
"=  c #122f32",
"-  c #1d203d",
";  c #10352c",
":  c #123925",
">  c #143d37",
",  c #2f1c07",
"<  c #1a1f40",
"1  c #1b2047",
"2  c #1c2341",
"3  c #1d2343",
"4  c #1d2344",
"5  c #1d2247",
"6  c #1e2446",
"7  c #202441",
"8  c #212749",
"9  c #24274d",
"0  c #25274d",
"q  c #252841",
"w  c #242949",
"e  c #26294c",
"r  c #282a4c",
"t  c #2b2c4a",
"y  c #2d2d4a",
"u  c #2d2d4f",
"i  c #292a50",
"p  c #2f2e53",
"a  c #302f53",
"s  c #343e4f",
"d  c #323250",
"f  c #333252",
"g  c #353755",
"h  c #353e53",
"j  c #393954",
"k  c #393957",
"l  c #3c3d59",
"z  c #0d443b",
"x  c #0a4f3c",
"c  c #10503c",
"v  c #145346",
"b  c #17544a",
"n  c #1c5751",
"m  c #1b5c51",
"M  c #166753",
"N  c #1b6252",
"B  c #1b6352",
"V  c #196554",
"C  c #1a6756",
"Z  c #1f6151",
"A  c #1f6959",
"S  c #1f6a5b",
"D  c #1e7660",
"F  c #344e5b",
"G  c #3a4164",
"H  c #3f5a65",
"J  c #256857",
"K  c #26685c",
"L  c #21735e",
"P  c #366149",
"I  c #2b6e61",
"U  c #4d3515",
"Y  c #52330b",
"T  c #473b4b",
"R  c #413e67",
"E  c #5e421c",
"W  c #5c4725",
"Q  c #56483e",
"!  c #604211",
"~  c #624217",
"^  c #664112",
"/  c #6c4818",
"(  c #7d5512",
")  c #654f28",
"_  c #6b5628",
"`  c #755a26",
"'  c #4e4548",
"]  c #4e464e",
"[  c #414059",
"{  c #41465b",
"}  c #41445f",
"|  c #464a5c",
" . c #51424c",
".. c #53444d",
"X. c #53444e",
"o. c #524a4b",
"O. c #58454e",
"+. c #5d484f",
"@. c #5f4c4e",
"#. c #5a4954",
"$. c #5b4c51",
"%. c #5b4b5d",
"&. c #5e4d58",
"*. c #5e5055",
"=. c #5d525b",
"-. c #43406a",
";. c #45426b",
":. c #474668",
">. c #474d64",
",. c #4a4165",
"<. c #4f4665",
"1. c #484468",
"2. c #4d466b",
"3. c #494d61",
"4. c #4a4c65",
"5. c #4e4b67",
"6. c #4d4d65",
"7. c #4e4c67",
"8. c #4c4c6d",
"9. c #4e4d6f",
"0. c #4e4776",
"q. c #4b4c71",
"w. c #4f4870",
"e. c #4e4a75",
"r. c #4e4e71",
"t. c #4d5474",
"y. c #554a67",
"u. c #514869",
"i. c #514973",
"p. c #524b70",
"a. c #504c71",
"s. c #504d75",
"d. c #514e74",
"f. c #524f74",
"g. c #53556c",
"h. c #55506c",
"j. c #5c5167",
"k. c #595269",
"l. c #5c576b",
"z. c #555170",
"x. c #545373",
"c. c #555377",
"v. c #575677",
"b. c #505279",
"n. c #5a5572",
"m. c #595474",
"M. c #5c5177",
"N. c #5a5678",
"B. c #58547c",
"V. c #5c5875",
"C. c #63514b",
"Z. c #6f5c4d",
"A. c #6a5858",
"S. c #6c585e",
"D. c #7a5e4b",
"F. c #62576f",
"G. c #65566b",
"H. c #65576a",
"J. c #6a5860",
"K. c #6a5b6d",
"L. c #6b5c6b",
"P. c #6b5f6d",
"I. c #625a71",
"U. c #645a71",
"Y. c #6d5c70",
"T. c #725d67",
"R. c #745e65",
"E. c #725e68",
"W. c #705f6d",
"Q. c #6e606f",
"!. c #6d656f",
"~. c #616279",
"^. c #696171",
"/. c #6c6272",
"(. c #6e6270",
"). c #6e6571",
"_. c #6e6472",
"`. c #6d6675",
"'. c #6b6678",
"]. c #6f6b7b",
"[. c #6c697f",
"{. c #76646d",
"}. c #72686e",
"|. c #7e6c60",
" X c #736571",
".X c #766b73",
"XX c #756b75",
"oX c #776c72",
"OX c #776e70",
"+X c #786c73",
"@X c #7a6e73",
"#X c #7a6e75",
"$X c #7d6b75",
"%X c #7e6b78",
"&X c #787074",
"*X c #7f7376",
"=X c #7f7676",
"-X c #79707c",
";X c #5a5280",
":X c #5f5284",
">X c #665b8e",
",X c #6d5c8f",
"<X c #676186",
"1X c #6a6088",
"2X c #6a618d",
"3X c #6e6981",
"4X c #6d6097",
"5X c #6d6298",
"6X c #70638c",
"7X c #736a86",
"8X c #766981",
"9X c #766c92",
"0X c #7b7081",
"qX c #7d7e90",
"wX c #368277",
"eX c #83682a",
"rX c #846938",
"tX c #9e6d20",
"yX c #9c7f3b",
"uX c #aa7a2b",
"iX c #897a5e",
"pX c #92734e",
"aX c #9f7c52",
"sX c #897677",
"dX c #927a6d",
"fX c #817993",
"gX c #a8842d",
"hX c #b1802b",
"jX c #b89832",
"kX c #988053",
"lX c #9aa962",
"zX c #a79152",
"xX c #a6915e",
"cX c #b08c43",
"vX c #bb8f48",
"bX c #be9b41",
"nX c #b59456",
"mX c #c19439",
"MX c #d3a23c",
"NX c #dfb32f",
"BX c #dab836",
"VX c #e6bd33",
"CX c #cb9d43",
"ZX c #cdab4f",
"AX c #d6ab47",
"SX c #dcbe5a",
"DX c #c5ad6f",
"FX c #e0bf63",
"GX c #e6c036",
"HX c #f0d276",
"JX c #888398",
"KX c #998b82",
"LX c #dec994",
"PX c #e4ca9b",
/* pixels */
"C C n G R -.1.k.P.}.OX@X#X.X(.(.",
"A A M F ,.;.:.h.F.^.&X=X*XOXQ._.",
"B B D L H w.8.r.8.a.N.].-XXX!._.",
"K I J x c >.i.q.s.b.s.s.<X7X'.`.",
"b m v $ Z wXt.e.c.v.x.B.5X>Xi.n.",
"z & # + P lXzX|.x.m.V.2X4X;X<.u.",
"> ; % : DXLXeXU l.~.3X9X6XI.j.y.",
"= @   _ PXkXFXjXiX[.qXfX8XL.H.j.",
"h s * ` ) Y vXHXGXbXKXJX0X@XY.H.",
"{ 7.7.Q . , ^ uXAXVXNXnXsX$X XK.",
"g l } 4.] ' W ! tXMXgXBXZX%X{.W.",
"e r a j | g.=.E / hXyXxXSXdXT.E.",
"3 4 0 i f [ 3.o.~ ( mXCXcXaXR.S.",
"o o 7 q t f j 5.J.C.A.D.pXrXZ.*.",
"- o < 3 w u y 2.,X1XU.&.#.$.@.X.",
"6 4 1 6 8 0 p 0.:XM.%.+.O.X. .T "
};
