/* XPM */
static char *magick[] = {
/* columns rows colors chars-per-pixel */
"16 16 161 2",
"   c Gray0",
".  c #010100",
"X  c #0c0c00",
"o  c Gray5",
"O  c Gray7",
"+  c #003223",
"@  c #002156",
"#  c #123f4d",
"$  c #2f2f5d",
"%  c #004500",
"&  c #004a00",
"*  c #005c38",
"=  c #007400",
"-  c #006374",
";  c #2e6167",
":  c #4e4e38",
">  c #7c7c31",
",  c #7b7b3a",
"<  c #7c7c3a",
"1  c #615d5e",
"2  c #65655f",
"3  c #6b6b5e",
"4  c #6f6f5f",
"5  c #747456",
"6  c #73735f",
"7  c #696965",
"8  c #6d6d62",
"9  c Gray42",
"0  c #69686e",
"q  c #6c6c6c",
"w  c #737363",
"e  c #7a7a66",
"r  c #75757b",
"t  c #7c7a7e",
"y  c #7c7c7c",
"u  c Gray49",
"i  c #7e7e7c",
"p  c #000087",
"a  c #0000a7",
"s  c #0017a1",
"d  c #0031a6",
"f  c #003ab6",
"g  c #0001da",
"h  c #0000de",
"j  c #0000e2",
"k  c #0004e8",
"l  c #0000f1",
"z  c #0000fa",
"x  c #0000fc",
"c  c Blue",
"v  c #0029d7",
"b  c #005984",
"n  c #0040bf",
"m  c #6d6d94",
"M  c #74698b",
"N  c #70708f",
"B  c #797985",
"V  c #717190",
"C  c #7d7da7",
"Z  c #00871d",
"A  c #00b027",
"S  c #3e8a37",
"D  c #009057",
"F  c #00a245",
"G  c #00c200",
"H  c #00eb00",
"J  c #00e618",
"K  c #00fa00",
"L  c Green",
"P  c #0dff00",
"I  c #5aa441",
"U  c #818100",
"Y  c #929200",
"T  c #98981c",
"R  c #9f9f22",
"E  c #b2b22f",
"W  c #8b8b55",
"Q  c #8b8b57",
"!  c #959552",
"~  c #808065",
"^  c #868664",
"/  c #8c8c69",
"(  c #8f8f72",
")  c #9f9f63",
"_  c #93927a",
"`  c #aaaa4a",
"'  c #abab4a",
"]  c #b5b546",
"[  c #a0a063",
"{  c #a2a26c",
"}  c #a8a873",
"|  c #aaaa75",
" . c #a8a87f",
".. c #c5c500",
"X. c #cfcf00",
"o. c #d8d81b",
"O. c #e4e400",
"+. c Yellow",
"@. c #f5f51a",
"#. c #ffff10",
"$. c #eded20",
"%. c #fcfc22",
"&. c #e8e859",
"*. c #808080",
"=. c #818284",
"-. c #87848a",
";. c #878b84",
":. c #8e8e9a",
">. c #908c8b",
",. c #908f90",
"<. c #978f98",
"1. c #9d9d83",
"2. c #95959d",
"3. c #8181ac",
"4. c #9fa790",
"5. c #a2a08e",
"6. c #a4a4a4",
"7. c Gray65",
"8. c #a6a6a7",
"9. c #bcb7b0",
"0. c #bcb7b6",
"q. c Gray74",
"w. c #c7bebd",
"e. c #c2b2c0",
"r. c #c3b5c0",
"t. c #dddd80",
"y. c #c5c5c6",
"u. c #c7c7c8",
"i. c #c5c5cc",
"p. c Gray79",
"a. c #cacaca",
"s. c #cbcbcb",
"d. c #cccbcc",
"f. c #cdcdcc",
"g. c #cecdcd",
"h. c #cecdce",
"j. c #d1cbca",
"k. c #d7d5d4",
"l. c Gray84",
"z. c #d7d8d4",
"x. c #e0dbda",
"c. c #f7dff7",
"v. c #e2e0d9",
"b. c #eaeaea",
"n. c #ebeaeb",
"m. c Gray92",
"M. c #efeff9",
"N. c #f7e2f7",
"B. c #f4e7f2",
"V. c #f0eff0",
"C. c #f7f3f7",
"Z. c #f4f4fe",
"A. c #f7f6ff",
"S. c #fffcf0",
"D. c ivory",
"F. c #fafaff",
"G. c #fdf8fd",
"H. c #fdf8ff",
"J. c #fff9ff",
"K. c Gray100",
"L. c None",
/* pixels */
"L.L.L.L.o q u u u *.*.*.u u u 9 ",
"L.L.L.L.  q.l.l.x.r.e.w.v.z.l.6.",
"L.L.L.L.  n.K.S.=.S I # M S.K.a.",
"L.L.L.L.  n.K.; k n P - h $ K.a.",
"L.L.L.L.  C.9.Z c c b g l p 0.f.",
"L.L.L.L.  J.;.K F c c c d * -.f.",
"L.L.L.L.  J.,.H L f z s J G >.f.",
"L.L.L.L.  V.c.= A v c D L % N.d.",
"L.L.L.L.  n.K.4.@ j a + & <.K.a.",
"  L.L.L.  i.Z.J.j.0 1 t B.K.K.a.",
": 5 ~ Q 6 ^ Q e / { _ 5.F.K.K.a.",
"[ t. .%.3.| @.C } $.1.#.( M.K.a.",
") &.r N ` u V ` u m ] +.U 2.K.a.",
"> o.E ! O.R < X.T , ..Y B Z.K.a.",
"X         3 w 7 8 4 2 :.K.K.K.a.",
"L.L.L.L.O 6.u.y.y.y.y.y.a.a.a.6."
};
