/* XPM */
static char *magick[] = {
/* columns rows colors chars-per-pixel */
"16 16 231 2",
"   c Gray0",
".  c #000200",
"X  c #010300",
"o  c #000104",
"O  c #010305",
"+  c #010406",
"@  c #040203",
"#  c #040607",
"$  c #050607",
"%  c #00030b",
"&  c #02050b",
"*  c #080603",
"=  c #090a0a",
"-  c #090b0b",
";  c Gray4",
":  c #0a0b0b",
">  c #0b0b0b",
",  c #0c0c0c",
"<  c #0c0c0d",
"1  c Gray5",
"2  c #051012",
"3  c #160900",
"4  c #1b150b",
"5  c #090c23",
"6  c #171525",
"7  c #1c1725",
"8  c #1c1b21",
"9  c #1c1b25",
"0  c #2a1f09",
"q  c #2b1e19",
"w  c #201d2a",
"e  c #3a1f3e",
"r  c #25281a",
"t  c #34211c",
"y  c #292235",
"u  c #2b283f",
"i  c #322c33",
"p  c #393024",
"a  c #3e3f21",
"s  c #353036",
"d  c #363537",
"f  c #333e3c",
"g  c #3c373a",
"h  c #3f3a35",
"j  c #3b3a3a",
"k  c #3c3a3d",
"l  c #3d3b3c",
"z  c #192c4a",
"x  c #3e0045",
"c  c #3a2a44",
"v  c #393f41",
"b  c #3b3c40",
"n  c #3f3d41",
"m  c #3e3d4f",
"M  c #3d4144",
"N  c #422c05",
"B  c #452f28",
"V  c #453a21",
"C  c #443e32",
"Z  c #5c1267",
"A  c #4f374d",
"S  c #65354f",
"D  c #45413d",
"F  c #4d4731",
"G  c #484837",
"H  c #4f4b37",
"J  c #4f4f32",
"K  c #5c5a37",
"L  c #694536",
"P  c #646030",
"I  c #6c693a",
"U  c #6f6d3a",
"Y  c #6f712a",
"T  c #736e2f",
"R  c #706a30",
"E  c #7e7a2d",
"W  c #7a763a",
"Q  c #797837",
"!  c #7e7b39",
"~  c #434147",
"^  c #43414a",
"/  c #434248",
"(  c #46444c",
")  c #424947",
"_  c #434253",
"`  c #494b51",
"'  c #4a4b51",
"]  c #4a4c51",
"[  c #4a4c52",
"{  c #4b4c52",
"}  c #4e4d51",
"|  c #4e4d52",
" . c #4e4d53",
".. c #4e4e52",
"X. c #4f4e52",
"o. c #4d4e54",
"O. c #4e4f55",
"+. c #5f4542",
"@. c #5b4c46",
"#. c #504f53",
"$. c #504e56",
"%. c #58574c",
"&. c #515052",
"*. c #535251",
"=. c #565352",
"-. c #545256",
";. c #575256",
":. c #575551",
">. c #52565d",
",. c #55595e",
"<. c #595851",
"1. c #5e5b52",
"2. c #5b4a6f",
"3. c #575763",
"4. c #565963",
"5. c #565a60",
"6. c #565a61",
"7. c #565a62",
"8. c #565a63",
"9. c #575a63",
"0. c #575b62",
"q. c #575b63",
"w. c #555c61",
"e. c #565c61",
"r. c #575c62",
"t. c #585c62",
"y. c #585c64",
"u. c #5d6062",
"i. c #5f6269",
"p. c #605d4d",
"a. c #625d51",
"s. c #655c5e",
"d. c #626150",
"f. c #6a6951",
"g. c #7c7352",
"h. c #7f795e",
"j. c #616469",
"k. c #797573",
"l. c #3d4288",
"z. c #3c448c",
"x. c #48458c",
"c. c #4c4f84",
"v. c #554e99",
"b. c #575893",
"n. c #4647a7",
"m. c #7e7583",
"M. c #454ace",
"N. c #4f58c3",
"B. c #5c63d4",
"V. c #7572e3",
"C. c #777fe8",
"Z. c #847f27",
"A. c #817d2d",
"S. c #837d2f",
"D. c #875849",
"F. c #875a4f",
"G. c #987a4a",
"H. c #807f6b",
"J. c #81787b",
"K. c #a66a55",
"L. c #be7258",
"P. c #b97958",
"I. c #af7360",
"U. c #ab7864",
"Y. c #c4795b",
"T. c #c27860",
"R. c #98049d",
"E. c #ae31b8",
"W. c #987e83",
"Q. c #a85299",
"!. c #b75f96",
"~. c #bd5daf",
"^. c #cc1bd6",
"/. c #d515de",
"(. c #cd4fa2",
"). c #d16687",
"_. c #d67ca5",
"`. c #d55fcd",
"'. c #87832d",
"]. c #97932b",
"[. c #b88400",
"{. c #a09a2c",
"}. c #8c8b4f",
"|. c #80817c",
" X c #ac905c",
".X c #bd917c",
"XX c #c18f00",
"oX c #c98165",
"OX c #c2927b",
"+X c #d6896c",
"@X c #de956a",
"#X c #e49c77",
"$X c #ed9879",
"%X c #f69577",
"&X c #f3a47e",
"*X c #ffd100",
"=X c #ffd300",
"-X c #ffe000",
";X c #ffea45",
":X c #ffff69",
">X c #ffff79",
",X c #818b9a",
"<X c #938987",
"1X c #9f84a0",
"2X c #b79fb5",
"3X c #b99fb2",
"4X c #b7a09f",
"5X c #8d90f1",
"6X c #ad99c7",
"7X c #dca189",
"8X c #c0b4b1",
"9X c #d9bdb4",
"0X c #e7af96",
"qX c #f3a783",
"wX c #f4aa8a",
"eX c #ffad88",
"rX c #f7a792",
"tX c #feb287",
"yX c #fdb38f",
"uX c #ffb38c",
"iX c #ffb884",
"pX c #c9c7ba",
"aX c #ffc78a",
"sX c #ffc599",
"dX c #f1ea9a",
"fX c #ffff8c",
"gX c #d2d8dc",
"hX c #e1d6cd",
"jX c #e6eeff",
"kX c #f2e2f9",
"lX c Gray100",
/* pixels */
"j.i.7.7.7.7.7.7.7.7.7.7.7.t.u.,.",
"i.3.p.1.:.} <.#._ d.*.=.} f.}.%.",
"7.m Z.P T F E C i {.S.'.S.].R h ",
"7.*.Y J H g K d G Q ! W I U u s ",
"7.) e c a r 9 y w 7 8 5 6 p V D ",
"e.v ^.!.U.Q.~.`./.x . 3 XX*X-Xg.",
"e.M R.E._.rXtXiX).1XpX X;X>XfXH.",
"e.f Z (.aXqX$XyX@XW.2X3Xm.jXlX|.",
"7.v 4X.XP.OXwXlXhXA N.B.c.dX:Xh.",
"7.k 6X2.k.kX9XgX,X+.n.M.G.*X[.a.",
"7.j C.v.B S 7XJ.z K.x.l.0 N 4 } ",
",.l 5XV.L.Y.I.T.&X#X# . O % & [ ",
"7.n b.z.F.yX%XeXsX+X# ; 1 1 ; [ ",
"y.~ . . * oX0X8X<XD.# ; 1 ; ; [ ",
"y./ @ ; O L @.2 q t + ; ; ; 1 O.",
">.( / [ ' } -.} s.-.' ' ' ' O.$."
};
