/* XPM */
static char * xcd_32x32_xpm[] = {
"32 32 609 2",
"  	c None",
". 	c #D0B78C",
"+ 	c #CAAB81",
"@ 	c #B89570",
"# 	c #AE8860",
"$ 	c #A98358",
"% 	c #AB875C",
"& 	c #B28C54",
"* 	c #B89261",
"= 	c #D5BE96",
"- 	c #D1AA92",
"; 	c #C5826F",
"> 	c #BD5E4D",
", 	c #BE4C39",
"' 	c #B34630",
") 	c #A04730",
"! 	c #A35534",
"~ 	c #A55B32",
"{ 	c #99592C",
"] 	c #9D6136",
"^ 	c #A87A4C",
"/ 	c #CDB28B",
"( 	c #D2B680",
"_ 	c #D49E73",
": 	c #DC6956",
"< 	c #DF483A",
"[ 	c #D93B2C",
"} 	c #D23623",
"| 	c #A92E16",
"1 	c #733220",
"2 	c #876040",
"3 	c #AC8E73",
"4 	c #B88D6C",
"5 	c #B76C4D",
"6 	c #A2522F",
"7 	c #9C5B35",
"8 	c #A87E5F",
"9 	c #BEA682",
"0 	c #BBA477",
"a 	c #BD9970",
"b 	c #D88058",
"c 	c #E36037",
"d 	c #DC4F24",
"e 	c #C64514",
"f 	c #B43B0B",
"g 	c #962C05",
"h 	c #6A2108",
"i 	c #582E1B",
"j 	c #7B6454",
"k 	c #AE9A85",
"l 	c #C9AA8A",
"m 	c #C7866B",
"n 	c #B65838",
"o 	c #9C5138",
"p 	c #A47B60",
"q 	c #BAA694",
"r 	c #A98264",
"s 	c #8E663F",
"t 	c #9E823A",
"u 	c #D3AE46",
"v 	c #E4B544",
"w 	c #E3A826",
"x 	c #D4960E",
"y 	c #BF7D08",
"z 	c #A96608",
"A 	c #8C4D07",
"B 	c #6C360E",
"C 	c #583420",
"D 	c #765C44",
"E 	c #A99574",
"F 	c #CBAD8F",
"G 	c #D48B72",
"H 	c #C15E46",
"I 	c #A35D3A",
"J 	c #AC8866",
"K 	c #BBA99B",
"L 	c #B18163",
"M 	c #B3552D",
"N 	c #CD6921",
"O 	c #E0AE29",
"P 	c #F0D42B",
"Q 	c #F4D728",
"R 	c #F2C918",
"S 	c #E7B00F",
"T 	c #D89712",
"U 	c #D59515",
"V 	c #D69D11",
"W 	c #C79622",
"X 	c #A47C36",
"Y 	c #8F653B",
"Z 	c #8A6A51",
"` 	c #A58F82",
" .	c #C2A69D",
"..	c #CC8C7C",
"+.	c #C26245",
"@.	c #A5673F",
"#.	c #B2957D",
"$.	c #BBB3A6",
"%.	c #B89078",
"&.	c #B9593B",
"*.	c #D75E31",
"=.	c #EAA43C",
"-.	c #F4D12B",
";.	c #F5D522",
">.	c #F1C91B",
",.	c #E9B417",
"'.	c #DA9417",
").	c #CA781B",
"!.	c #CA791B",
"~.	c #D99018",
"{.	c #DFA322",
"].	c #D7AC40",
"^.	c #CBAE6B",
"/.	c #B29371",
"(.	c #997464",
"_.	c #9B7A6E",
":.	c #B58F7F",
"<.	c #C87B62",
"[.	c #AB5734",
"}.	c #A67958",
"|.	c #B7A495",
"1.	c #B8A285",
"2.	c #B9734E",
"3.	c #D15B3C",
"4.	c #E2935F",
"5.	c #EAC75B",
"6.	c #F0CE2D",
"7.	c #EDC01E",
"8.	c #E6B422",
"9.	c #DC9E21",
"0.	c #C97C22",
"a.	c #B66229",
"b.	c #B56027",
"c.	c #C5731F",
"d.	c #D6901F",
"e.	c #E2AB28",
"f.	c #E6C649",
"g.	c #DCC66C",
"h.	c #C4A66C",
"i.	c #A16F48",
"j.	c #8B5B3D",
"k.	c #A57053",
"l.	c #AE6045",
"m.	c #8F6148",
"n.	c #AC8F78",
"o.	c #C1B7A9",
"p.	c #BF916A",
"q.	c #C56145",
"r.	c #DA7D64",
"s.	c #D8B686",
"t.	c #E0C75D",
"u.	c #ECC62A",
"v.	c #E4AB1E",
"w.	c #DA9C23",
"x.	c #D49225",
"y.	c #C1772D",
"z.	c #AB633E",
"A.	c #A55E3C",
"B.	c #B6682B",
"C.	c #CF8520",
"D.	c #E3A61B",
"E.	c #EFC41C",
"F.	c #F3D328",
"G.	c #E8CB3B",
"H.	c #C49B33",
"I.	c #8D5820",
"J.	c #7E4B2D",
"K.	c #9E6E53",
"L.	c #866254",
"M.	c #A17664",
"N.	c #B99B87",
"O.	c #C0AA98",
"P.	c #C08063",
"Q.	c #D26857",
"R.	c #CD9880",
"S.	c #BBA77D",
"T.	c #D1B448",
"U.	c #E8BA1F",
"V.	c #D79420",
"W.	c #C77E2A",
"X.	c #C07B34",
"Y.	c #B6784D",
"Z.	c #AC765F",
"`.	c #A9745E",
" +	c #B26D40",
".+	c #C87C25",
"++	c #DC9816",
"@+	c #EDB810",
"#+	c #F6CE13",
"$+	c #F2CB19",
"%+	c #DEAC23",
"&+	c #B06F29",
"*+	c #7A4122",
"=+	c #836051",
"-+	c #946E64",
";+	c #A35243",
">+	c #AF7962",
",+	c #C1A07F",
"'+	c #C6765F",
")+	c #D17362",
"!+	c #B08F77",
"~+	c #9D875B",
"{+	c #D2AD39",
"]+	c #E4AF1C",
"^+	c #CA8327",
"/+	c #B07147",
"(+	c #A97B63",
"_+	c #AC8471",
":+	c #AF8C7E",
"<+	c #AE9084",
"[+	c #AE7D65",
"}+	c #BA723B",
"|+	c #CD811E",
"1+	c #DF9F15",
"2+	c #EBB814",
"3+	c #E8B416",
"4+	c #D79A2C",
"5+	c #BE7B34",
"6+	c #8F5626",
"7+	c #734E38",
"8+	c #A46053",
"9+	c #B23228",
"0+	c #96493A",
"a+	c #C2BBAB",
"b+	c #BC9A67",
"c+	c #D38569",
"d+	c #C48370",
"e+	c #907153",
"f+	c #A38232",
"g+	c #DFB723",
"h+	c #E7B117",
"i+	c #C9862D",
"j+	c #AC7758",
"k+	c #AB8D82",
"l+	c #B29D93",
"m+	c #C2762C",
"n+	c #D18924",
"o+	c #D7931F",
"p+	c #D19227",
"q+	c #C78337",
"r+	c #C68236",
"s+	c #BB8425",
"t+	c #8F6221",
"u+	c #B44228",
"v+	c #C0190F",
"w+	c #912D21",
"x+	c #AC867A",
"y+	c #B7B09F",
"z+	c #A58D60",
"A+	c #C39E7D",
"B+	c #A78A6E",
"C+	c #7B5A26",
"D+	c #AE8313",
"E+	c #E1B117",
"F+	c #E0A71D",
"G+	c #C6863A",
"H+	c #AE7C62",
"I+	c #AD948B",
"J+	c #BB7F52",
"K+	c #BB7942",
"L+	c #B8723A",
"M+	c #B76D35",
"N+	c #C9822A",
"O+	c #D9A21B",
"P+	c #BF8512",
"Q+	c #C0340C",
"R+	c #C70F04",
"S+	c #992315",
"T+	c #A97C6B",
"U+	c #B0A188",
"V+	c #947445",
"W+	c #A58E6C",
"X+	c #806752",
"Y+	c #714118",
"Z+	c #AE770D",
"`+	c #D39318",
" @	c #CC892A",
".@	c #B97B48",
"+@	c #AD7F6B",
"@@	c #AD968C",
"#@	c #B19385",
"$@	c #AA7C6A",
"%@	c #AA6949",
"&@	c #B6672F",
"*@	c #C67D26",
"=@	c #CC8C14",
"-@	c #A05407",
";@	c #AC1B03",
">@	c #C40D03",
",@	c #9B2313",
"'@	c #A67762",
")@	c #B49B89",
"!@	c #95582E",
"~@	c #805237",
"{@	c #5D3B2B",
"]@	c #6C3811",
"^@	c #AE7712",
"/@	c #C07E2C",
"(@	c #B37B51",
"_@	c #AE8976",
":@	c #B39C91",
"<@	c #B8ACA3",
"[@	c #A98376",
"}@	c #A96F54",
"|@	c #B6733E",
"1@	c #CD8825",
"2@	c #DA9E1C",
"3@	c #C38814",
"4@	c #93430B",
"5@	c #AD1F04",
"6@	c #C71803",
"7@	c #A02B17",
"8@	c #AA7E6A",
"9@	c #B6A190",
"0@	c #9A4C24",
"a@	c #85210C",
"b@	c #5A1B0B",
"c@	c #773F07",
"d@	c #C49813",
"e@	c #D19D35",
"f@	c #BC8E66",
"g@	c #B3998B",
"h@	c #B5A79E",
"i@	c #BBB2AB",
"j@	c #AC7253",
"k@	c #BB7535",
"l@	c #CF8B24",
"m@	c #E5AF19",
"n@	c #E9C01B",
"o@	c #C39322",
"p@	c #944B1F",
"q@	c #A62E12",
"r@	c #B0290D",
"s@	c #9B3B1F",
"t@	c #B08B75",
"u@	c #B5A191",
"v@	c #A04926",
"w@	c #AD1404",
"x@	c #8C1103",
"y@	c #8E4208",
"z@	c #D2A914",
"A@	c #E4B523",
"B@	c #CB9545",
"C@	c #B08062",
"D@	c #A67D6C",
"E@	c #A98E85",
"F@	c #AA9F99",
"G@	c #AA7B67",
"H@	c #B87845",
"I@	c #CF8A28",
"J@	c #E3AA1A",
"K@	c #F0C61B",
"L@	c #E7C62B",
"M@	c #B18632",
"N@	c #834A2B",
"O@	c #7E3826",
"P@	c #883921",
"Q@	c #91502F",
"R@	c #B29785",
"S@	c #B6A094",
"T@	c #9D5237",
"U@	c #BD1B09",
"V@	c #BA0E03",
"W@	c #9F340C",
"X@	c #BB8C24",
"Y@	c #D7A623",
"Z@	c #CA8C2D",
"`@	c #B06C3C",
" #	c #A6694F",
".#	c #A68071",
"+#	c #A68C84",
"@#	c #A98C83",
"##	c #B39A8F",
"$#	c #B79E94",
"%#	c #AF9184",
"&#	c #A97C69",
"*#	c #AF714A",
"=#	c #CC8828",
"-#	c #E5B11C",
";#	c #ECCC31",
">#	c #D1B54F",
",#	c #916D44",
"'#	c #694A3C",
")#	c #6C4D42",
"!#	c #884F31",
"~#	c #9A6741",
"{#	c #B9A48D",
"]#	c #B07958",
"^#	c #B92C17",
"/#	c #C90D04",
"(#	c #A51505",
"_#	c #823C13",
":#	c #9D642A",
"<#	c #AC6833",
"[#	c #A66536",
"}#	c #A6735A",
"|#	c #AA8B7E",
"1#	c #A8887C",
"2#	c #AB806E",
"3#	c #BC9880",
"4#	c #C99C7E",
"5#	c #BD8B62",
"6#	c #B07A57",
"7#	c #AD6C45",
"8#	c #C27B2A",
"9#	c #DCA222",
"0#	c #D7B64F",
"a#	c #B08E64",
"b#	c #876854",
"c#	c #8B786C",
"d#	c #A78A7D",
"e#	c #AC6E55",
"f#	c #AE816A",
"g#	c #C5A587",
"h#	c #BA5642",
"i#	c #C61A0F",
"j#	c #BB0C03",
"k#	c #841505",
"l#	c #742D15",
"m#	c #8F4D31",
"n#	c #9F684E",
"o#	c #A88576",
"p#	c #B18F7E",
"q#	c #AE7E67",
"r#	c #AF7859",
"s#	c #C39C6C",
"t#	c #DAAF57",
"u#	c #DDA72F",
"v#	c #CF932C",
"w#	c #C17C2E",
"x#	c #D08C22",
"y#	c #DDA521",
"z#	c #BE9347",
"A#	c #97705B",
"B#	c #A18D84",
"C#	c #BCACA3",
"D#	c #C29280",
"E#	c #AE734D",
"F#	c #B69783",
"G#	c #CBBBA5",
"H#	c #C29075",
"I#	c #C24D31",
"J#	c #CC230F",
"K#	c #AC1504",
"L#	c #781806",
"M#	c #6C2E1B",
"N#	c #865F4E",
"O#	c #A58A7F",
"P#	c #BB937E",
"Q#	c #BB8158",
"R#	c #B97A4A",
"S#	c #C79D58",
"T#	c #E4BF42",
"U#	c #EFC620",
"V#	c #E5B220",
"W#	c #D79E26",
"X#	c #DA9F19",
"Y#	c #CC9316",
"Z#	c #A16D2C",
"`#	c #9C7C66",
" $	c #BBACA2",
".$	c #C8A89A",
"+$	c #B97961",
"@$	c #AD7B58",
"#$	c #BEAD9F",
"$$	c #C8B296",
"%$	c #B98A72",
"&$	c #B3583F",
"*$	c #B72C0E",
"=$	c #9E1C06",
"-$	c #6D2113",
";$	c #684338",
">$	c #8F7C72",
",$	c #B6A08F",
"'$	c #BC9478",
")$	c #B9815A",
"!$	c #C79D5A",
"~$	c #E3C54B",
"{$	c #EFD23A",
"]$	c #E5C141",
"^$	c #D5A836",
"/$	c #B98017",
"($	c #955113",
"_$	c #965F42",
":$	c #B99786",
"<$	c #CDA392",
"[$	c #C07A5C",
"}$	c #AC6E48",
"|$	c #B4927D",
"1$	c #C3B8A9",
"2$	c #BBA698",
"3$	c #A97D6D",
"4$	c #A44426",
"5$	c #C02F13",
"6$	c #AA3F2F",
"7$	c #8E5D4D",
"8$	c #8E7A6E",
"9$	c #A59588",
"0$	c #B59883",
"a$	c #B4886E",
"b$	c #C09A6D",
"c$	c #D2BA71",
"d$	c #D6C06C",
"e$	c #C09F65",
"f$	c #9B6439",
"g$	c #803511",
"h$	c #892A11",
"i$	c #B55936",
"j$	c #CF7553",
"k$	c #C66343",
"l$	c #AC623A",
"m$	c #AE866D",
"n$	c #BCAFA6",
"o$	c #C2B6AD",
"p$	c #AF988E",
"q$	c #9C6954",
"r$	c #B13D24",
"s$	c #CD4432",
"t$	c #C87B6C",
"u$	c #BDA397",
"v$	c #BEB0A1",
"w$	c #BDA998",
"x$	c #BB9D88",
"y$	c #B99D81",
"z$	c #AD9570",
"A$	c #9B7052",
"B$	c #88412C",
"C$	c #811F0F",
"D$	c #921005",
"E$	c #B21105",
"F$	c #C71F0D",
"G$	c #BC3816",
"H$	c #A75028",
"I$	c #A87961",
"J$	c #BEADA2",
"K$	c #BFB2A9",
"L$	c #A58C82",
"M$	c #8D574A",
"N$	c #A63B22",
"O$	c #CA4F37",
"P$	c #CE806F",
"Q$	c #C6A393",
"R$	c #C0AA9B",
"S$	c #BAA598",
"T$	c #A39084",
"U$	c #755A49",
"V$	c #64281C",
"W$	c #821108",
"X$	c #A00902",
"Y$	c #B40A04",
"Z$	c #B6120A",
"`$	c #A22414",
" %	c #924930",
".%	c #A47B61",
"+%	c #BCAB9F",
"@%	c #BAB4AE",
"#%	c #9E8E86",
"$%	c #815747",
"%%	c #913A28",
"&%	c #B44128",
"*%	c #B85F4A",
"=%	c #B8806F",
"-%	c #B59387",
";%	c #AA9288",
">%	c #806C5E",
",%	c #593D34",
"'%	c #582620",
")%	c #6B221E",
"!%	c #792C26",
"~%	c #7F463D",
"{%	c #976C5D",
"]%	c #AB9488",
"^%	c #B9AFA6",
"/%	c #C0BDBA",
"(%	c #B0A8A1",
"_%	c #9C8179",
":%	c #8F5A4F",
"<%	c #904437",
"[%	c #9C483A",
"}%	c #A7645A",
"|%	c #B18B7F",
"1%	c #B3A094",
"2%	c #AD9F91",
"3%	c #A5978B",
"4%	c #A7968E",
"5%	c #AFA097",
"6%	c #B5A89D",
"7%	c #BEB5AE",
"8%	c #C4C0BC",
"9%	c #C2BFBC",
"0%	c #BEB5B1",
"a%	c #B7A6A0",
"b%	c #AA958F",
"c%	c #A68F89",
"d%	c #B09E97",
"e%	c #C0B4A9",
"f%	c #C7BDAF",
"g%	c #C6BEB1",
"h%	c #C2BDB5",
"i%	c #C8C2B7",
"j%	c #C8C4BF",
"k%	c #CCCBC9",
"l%	c #CFCECC",
"m%	c #CDCBC8",
"n%	c #CECCC9",
"o%	c #D0CDCA",
"p%	c #D1CECA",
"q%	c #D3D1CD",
"r%	c #CDCDC9",
"                                                                ",
"                                                                ",
"                        . + @ # $ % & *                         ",
"                    = - ; > , ' ) ! ~ { ] ^                     ",
"                / ( _ : < [ } | 1 2 3 4 5 6 7 8                 ",
"              9 0 a b c d e f g h i j k l m n o p               ",
"            q r s t u v w x y z A B C D E F G H I J             ",
"          K L M N O P Q R S T U V W X Y Z `  ...+.@.#.          ",
"        $.%.&.*.=.-.;.>.,.'.).!.~.{.].^./.(._.:.<.[.}.|.        ",
"        1.2.3.4.5.6.7.8.9.0.a.b.c.d.e.f.g.h.i.j.k.l.m.n.        ",
"      o.p.q.r.s.t.u.v.w.x.y.z.A.B.C.D.E.F.G.H.I.J.K.L.M.N.      ",
"      O.P.Q.R.S.T.U.V.W.X.Y.Z.`. +.+++@+#+$+%+&+*+=+-+;+>+      ",
"      ,+'+)+!+~+{+]+^+/+(+_+:+<+[+}+|+1+2+3+4+5+6+7+8+9+0+      ",
"    a+b+c+d+e+f+g+h+i+j+k+l+        m+n+o+p+q+r+s+t+u+v+w+x+    ",
"    y+z+A+B+C+D+E+F+G+H+I+            J+K+L+M+N+O+P+Q+R+S+T+    ",
"    U+V+W+X+Y+Z+`+ @.@+@@@            #@$@%@&@*@=@-@;@>@,@'@    ",
"    )@!@~@{@]@^@/@(@_@:@<@            [@}@|@1@2@3@4@5@6@7@8@    ",
"    9@0@a@b@c@d@e@f@g@h@i@            j@k@l@m@n@o@p@q@r@s@t@    ",
"    u@v@w@x@y@z@A@B@C@D@E@F@        G@H@I@J@K@L@M@N@O@P@Q@R@    ",
"    S@T@U@V@W@X@Y@Z@`@ #.#+#@###$#%#&#*#=#-#;#>#,#'#)#!#~#{#    ",
"      ]#^#/#(#_#:#<#[#}#|#1#2#3#4#5#6#7#8#9#0#a#b#c#d#e#f#      ",
"      g#h#i#j#k#l#m#n#o#p#q#r#s#t#u#v#w#x#y#z#A#B#C#D#E#F#      ",
"      G#H#I#J#K#L#M#N#O#P#Q#R#S#T#U#V#W#X#Y#Z#`# $.$+$@$#$      ",
"        $$%$&$*$=$-$;$>$,$'$)$!$~${$]$^$/$($_$:$<$[$}$|$        ",
"        1$2$3$4$5$6$7$8$9$0$a$b$c$d$e$f$g$h$i$j$k$l$m$n$        ",
"          o$p$q$r$s$t$u$v$w$x$y$z$A$B$C$D$E$F$G$H$I$J$          ",
"            K$L$M$N$O$P$Q$R$S$T$U$V$W$X$Y$Z$`$ %.%+%            ",
"              @%#%$%%%&%*%=%-%;%>%,%'%)%!%~%{%]%^%              ",
"                /%(%_%:%<%[%}%|%1%2%3%4%5%6%7%8%                ",
"                    9%0%a%b%c%d%e%f%g%h%i%j%                    ",
"                        k%l%m%n%o%p%q%r%                        ",
"                                                                "};
