/* XPM */
static char * mini_xsl_xpm[] = {
"16 16 19 1",
" 	c None",
".	c #808080",
"+	c #F0F0F0",
"@	c #FFFFFF",
"#	c #C0C0C0",
"$	c #000000",
"%	c #A0CFF0",
"&	c #008080",
"*	c #3060FF",
"=	c #00009F",
"-	c #30FFFF",
";	c #309FFF",
">	c #000080",
",	c #30CFFF",
"'	c #309F00",
")	c #0000FF",
"!	c #808000",
"~	c #FFFF00",
"{	c #30609F",
" ............   ",
" .+@+@+@+@+@#.  ",
" .@+@+@+@+@+#@. ",
" .+@+@+@+@+@$$$$",
" .@+%+@&&*@+%+@$",
" .+%=@&@-;>@=%+$",
" .%=@+&-,'>+@=%$",
" .+%=@*;')>@=%+$",
" .@!!+@>>>@+%+@$",
" !!~$$+@+@+@+@+$",
" !~~~!$&{{{{{+@$",
"!~~.$~!$+@+@+@+$",
"!!~$.~!${{{{{+@$",
" !~~~!$++@+@+@+$",
" $!$.$++@+@+@+@$",
" $$$$$$$$$$$$$$$"};
