/* XPM */
static char *magick[] = {
/* columns rows colors chars-per-pixel */
"16 13 189 2",
"   c #11141f",
".  c #0b0d21",
"X  c #1a1e25",
"o  c #25273f",
"O  c #25283a",
"+  c #27293f",
"@  c #31343d",
"#  c #070e47",
"$  c #101f5c",
"%  c #151d5b",
"&  c #161c63",
"*  c #1c2243",
"=  c #16205f",
"-  c #282a47",
";  c #282c46",
":  c #242f5c",
">  c #2c2f51",
",  c #2d324a",
"<  c #2b3251",
"1  c #2b3556",
"2  c #2d3759",
"3  c #313854",
"4  c #383856",
"5  c #3d3d53",
"6  c #423c4d",
"7  c #633471",
"8  c #70513f",
"9  c #594d6b",
"0  c #514f7b",
"q  c #5b596a",
"w  c #0f1895",
"e  c #0f238a",
"r  c #182085",
"t  c #11209a",
"y  c #3642ff",
"u  c #703492",
"i  c #525992",
"p  c #4651b0",
"a  c #5b5bb4",
"s  c #6b42ac",
"d  c #645fb2",
"f  c #65699a",
"g  c #7e7193",
"h  c #6868b8",
"j  c #4348e7",
"k  c #4b53fb",
"l  c #4c57ff",
"z  c #4d5bfe",
"x  c #4c5fff",
"c  c #5f7eff",
"v  c #7271de",
"b  c #7d7bd8",
"n  c #7c7ede",
"m  c #6162f7",
"M  c #787df6",
"N  c #768aff",
"B  c #861d50",
"V  c #8a2d6c",
"C  c #bd2c5c",
"Z  c #88454c",
"A  c #89765b",
"S  c #8a7b64",
"D  c #81698c",
"F  c #c26b88",
"G  c #bf9067",
"H  c #bf9169",
"J  c #bf9b63",
"K  c #b19d79",
"L  c #bf9d77",
"P  c #b6a077",
"I  c #c1946b",
"U  c #c59f6b",
"Y  c #c59d6d",
"T  c #ce9c76",
"R  c #c3a172",
"E  c #cea77d",
"W  c #d6a765",
"Q  c #d0af77",
"!  c #d5aa75",
"~  c #d9ad75",
"^  c #d7b476",
"/  c #d1b37c",
"(  c #dbb67c",
")  c #d9b87a",
"_  c #f9cd7e",
"`  c #9c9288",
"'  c #8a83a2",
"]  c #9987a9",
"[  c #9c89b3",
"{  c #9399af",
"}  c #9a96a9",
"|  c #9da1b7",
" . c #ac9d9d",
".. c #a696af",
"X. c #abaa9e",
"o. c #bead8f",
"O. c #bfa69f",
"+. c #b9b29e",
"@. c #a0a0b5",
"#. c #a9aab7",
"$. c #b4afac",
"%. c #bdb7bb",
"&. c #b8b8be",
"*. c #8d8bd4",
"=. c #9b95d2",
"-. c #9699e9",
";. c #9c9ae3",
":. c #9ca3cb",
">. c #9da2e6",
",. c #aab2ca",
"<. c #b7b5e1",
"1. c #c7ac82",
"2. c #c9a280",
"3. c #cea984",
"4. c #d4b385",
"5. c #ddb78b",
"6. c #dab88c",
"7. c #d9bc89",
"8. c #cabaa4",
"9. c #e6bf81",
"0. c #eebd80",
"q. c #d1c6b8",
"w. c #dac8b2",
"e. c #e7cb9c",
"r. c #e4c8a5",
"t. c #e7cea7",
"y. c #ebd3ae",
"u. c #e5d9be",
"i. c #c0c1ce",
"p. c #c6c5c8",
"a. c #c7c6c9",
"s. c #cccacb",
"d. c #cbccd5",
"f. c #ced0d9",
"g. c #ddccc4",
"h. c #d2ccd0",
"j. c #d2d4db",
"k. c #d4d6dc",
"l. c #dbd9df",
"z. c #dedbdf",
"x. c #d3d0e7",
"c. c #d7d2e1",
"v. c #d4dae2",
"b. c #d4d9e9",
"n. c #d9d7e5",
"m. c #dad5e5",
"M. c #dbdae1",
"N. c #dad8e4",
"B. c #dddbe4",
"V. c #dcdce2",
"C. c #dfdce0",
"Z. c #dcdfeb",
"A. c #dbe0e6",
"S. c #e2dee6",
"D. c #eee6da",
"F. c #f5edd7",
"G. c #e2e2e7",
"H. c #e4e1e6",
"J. c #e4e2e6",
"K. c #e4e3e7",
"L. c #e5e3e7",
"P. c #e0e3e8",
"I. c #e3e5ec",
"U. c #e5e5e8",
"Y. c #e6e4e9",
"T. c #e6e5e9",
"R. c #e7e5e9",
"E. c #e6e6e8",
"W. c #e8e6ea",
"Q. c #e3e5ff",
"!. c #e8e8f3",
"~. c #eeecf1",
"^. c #efeef0",
"/. c #f3f3ed",
"(. c #fffae8",
"). c #f0f3f6",
"_. c #f2f2f5",
"`. c #f3f2f6",
"'. c #f3f3f7",
"]. c #f3f4f6",
"[. c #f3f6fa",
"{. c #f6f9fc",
"}. c #f9f7f6",
"|. c #fffaf6",
" X c #f9fbfb",
".X c #fafffd",
"XX c #fcffff",
"oX c #fefefc",
"OX c Gray100",
/* pixels */
"^.M.l.C.z.z.H.K.z.C.K.E.E.E.W.a.",
"K.i.d.k.C.j.I.A.f.H.).].).'.OXp.",
"B.:.,.v.OXOX[.A.).OXOXOXOXOXOXs.",
"S.<.b.{.OX|.OXOXOXOXOXF.OXOX}.&.",
"E./.OXOXy.G !.(.4.8 L W D.r.7.#.",
"E.Z. X.Xt.I w.J S X.Y e.+.~ q.{ ",
"N.n k l [ 9.R 0 N g.! >.9 U 5.} ",
"x.v y j O./ Z B D ( u.Q.2.8.^.@.",
"n.-.=.3.^ 1...H ) 6.;.o.$.c x a ",
"n.*.T A ` _ Q '  .0.E K F C u f ",
"c.b g p m ] d z h P | M s V 7 i ",
"h.6 # r & % *   . X = w t e $ 4 ",
"%.q @ , 3 1 ; + O o - < 2 : > 5 "
};
