/* XPM */
static char * icewm_xpm[] = {
"51 30 750 2",
"  	c None",
". 	c #7EB8C3",
"+ 	c #7DB1BA",
"@ 	c #618792",
"# 	c #3C647A",
"$ 	c #1E496D",
"% 	c #0F3F68",
"& 	c #104169",
"* 	c #265071",
"= 	c #466C80",
"- 	c #6A929C",
"; 	c #7EB7C2",
"> 	c #C5DFE4",
", 	c #C4DEE3",
"' 	c #A7BEC5",
") 	c #567185",
"! 	c #10416C",
"~ 	c #366B92",
"{ 	c #6894B4",
"] 	c #8BB1CC",
"^ 	c #A0C0D5",
"/ 	c #9CBDD4",
"( 	c #85ACC8",
"_ 	c #5F8CAE",
": 	c #265E89",
"< 	c #0F3B66",
"[ 	c #718998",
"} 	c #B5CED4",
"| 	c #C3DDE2",
"1 	c #A7CED6",
"2 	c #95B8C1",
"3 	c #57798E",
"4 	c #26567C",
"5 	c #6D94B1",
"6 	c #BED3E1",
"7 	c #E1E9F0",
"8 	c #E1E8EC",
"9 	c #DBE2E8",
"0 	c #D6DEE5",
"a 	c #D8DFE5",
"b 	c #DDE3E8",
"c 	c #E2E9EE",
"d 	c #DCE8EF",
"e 	c #B0C8DA",
"f 	c #5983A4",
"g 	c #2F587B",
"h 	c #678C9F",
"i 	c #A1C5CC",
"j 	c #A6CED5",
"k 	c #A5CDD4",
"l 	c #86A7B0",
"m 	c #2B5676",
"n 	c #6D8EA9",
"o 	c #C2D2DE",
"p 	c #D2DDE5",
"q 	c #C4D1DA",
"r 	c #B7C7D4",
"s 	c #B2C4D1",
"t 	c #B0C2D0",
"u 	c #AFC2D0",
"v 	c #B0C3D1",
"w 	c #B2C4D2",
"x 	c #B9C9D5",
"y 	c #C8D4DD",
"z 	c #D2DEE5",
"A 	c #B1C6D5",
"B 	c #527897",
"C 	c #386380",
"D 	c #98BCC3",
"E 	c #A3CCD4",
"F 	c #7F9FAA",
"G 	c #1D4C72",
"H 	c #9FB6C8",
"I 	c #C5D2DB",
"J 	c #B4C4D1",
"K 	c #A8BCCB",
"L 	c #A2B8C9",
"M 	c #A0B7C7",
"N 	c #9EB5C6",
"O 	c #9DB4C6",
"P 	c #9CB4C5",
"Q 	c #9CB3C5",
"R 	c #9EB5C5",
"S 	c #A3B9C9",
"T 	c #AABECC",
"U 	c #B8C8D3",
"V 	c #C6D3DC",
"W 	c #8AA6BC",
"X 	c #315D7C",
"Y 	c #97BEC7",
"Z 	c #A0CBD3",
"` 	c #89AEB7",
" .	c #224F74",
"..	c #B0C4D1",
"+.	c #BAC7D2",
"@.	c #9EB3C3",
"#.	c #97AFC0",
"$.	c #90ABBD",
"%.	c #8CA6B9",
"&.	c #87A1B4",
"*.	c #849DAF",
"=.	c #88A1B3",
"-.	c #8CA7B9",
";.	c #8DA8BB",
">.	c #8EA9BC",
",.	c #90AABD",
"'.	c #93ACBE",
").	c #98AFC1",
"!.	c #A1B5C5",
"~.	c #BDC9D3",
"{.	c #83A1B6",
"].	c #446A83",
"^.	c #9EC9D1",
"/.	c #9CC8D1",
"(.	c #95BFC8",
"_.	c #375F7C",
":.	c #8FA9BC",
"<.	c #AEBDC9",
"[.	c #8FA7B8",
"}.	c #87A2B6",
"|.	c #8698AB",
"1.	c #947B81",
"2.	c #A76455",
"3.	c #AF4732",
"4.	c #AF402B",
"5.	c #A65845",
"6.	c #897372",
"7.	c #798895",
"8.	c #7895AA",
"9.	c #7F9DB3",
"0.	c #809DB4",
"a.	c #809EB4",
"b.	c #819FB4",
"c.	c #83A0B5",
"d.	c #89A3B6",
"e.	c #94AABA",
"f.	c #B8C6D0",
"g.	c #567C9A",
"h.	c #5A7D90",
"i.	c #98C6CF",
"j.	c #678C9A",
"k.	c #547895",
"l.	c #A5B6C3",
"m.	c #839BAF",
"n.	c #7995AB",
"o.	c #6E95AE",
"p.	c #A15D59",
"q.	c #C02514",
"r.	c #C43519",
"s.	c #CB451F",
"t.	c #CF4F22",
"u.	c #D15020",
"v.	c #CF4F1D",
"w.	c #B0654A",
"x.	c #58768B",
"y.	c #6987A1",
"z.	c #6E8FA9",
"A.	c #7193AB",
"B.	c #7294AC",
"C.	c #7293AB",
"D.	c #7594AB",
"E.	c #7B96AD",
"F.	c #89A0B2",
"G.	c #AEBECA",
"H.	c #2C5A7D",
"I.	c #7DA4B0",
"J.	c #93C3CC",
"K.	c #90BAC0",
"L.	c #1E4B6F",
"M.	c #99ADBD",
"N.	c #8097AA",
"O.	c #6C8AA1",
"P.	c #6687A0",
"Q.	c #61839B",
"R.	c #B64531",
"S.	c #C7421F",
"T.	c #CF5725",
"U.	c #D66428",
"V.	c #D96F2A",
"W.	c #DB732A",
"X.	c #E17325",
"Y.	c #9E6852",
"Z.	c #607D6F",
"`.	c #739866",
" +	c #5A7B8D",
".+	c #5A7E9E",
"++	c #5F83A2",
"@+	c #6083A3",
"#+	c #62809B",
"$+	c #5C7B7A",
"%+	c #688585",
"&+	c #8195A6",
"*+	c #95AABB",
"=+	c #295A7A",
"-+	c #93C2CA",
";+	c #8DC0CA",
">+	c #577C8D",
",+	c #517896",
"'+	c #8CA1B0",
")+	c #638198",
"!+	c #597C95",
"~+	c #557C99",
"{+	c #6E707D",
"]+	c #C14A29",
"^+	c #D25A25",
"/+	c #DA6E2A",
"(+	c #DF7F2C",
"_+	c #E28A2D",
":+	c #E38F2D",
"<+	c #F0902B",
"[+	c #636465",
"}+	c #7FA262",
"|+	c #8CB83C",
"1+	c #77A343",
"2+	c #638C56",
"3+	c #57805A",
"4+	c #4B7A51",
"5+	c #36753D",
"6+	c #2E7A39",
"7+	c #4D6E63",
"8+	c #536B80",
"9+	c #8EA2AF",
"0+	c #4F7691",
"a+	c #6E9BAA",
"b+	c #88BDC7",
"c+	c #13476B",
"d+	c #8AA1B2",
"e+	c #638095",
"f+	c #4F728C",
"g+	c #4A718E",
"h+	c #467595",
"i+	c #816162",
"j+	c #CC5526",
"k+	c #DF842C",
"l+	c #E5952E",
"m+	c #E8A22E",
"n+	c #EAA92D",
"o+	c #DD9939",
"p+	c #455A68",
"q+	c #A3C767",
"r+	c #9FC251",
"s+	c #91BA41",
"t+	c #7AAC38",
"u+	c #619A37",
"v+	c #4A8D37",
"w+	c #317F35",
"x+	c #3D833F",
"y+	c #385260",
"z+	c #415B70",
"A+	c #627D91",
"B+	c #7692A8",
"C+	c #467B95",
"D+	c #83BBC6",
"E+	c #729FAA",
"F+	c #326283",
"G+	c #869BAC",
"H+	c #4A6D86",
"I+	c #416986",
"J+	c #3E6B8B",
"K+	c #3F6D8E",
"L+	c #9A5C4A",
"M+	c #D66327",
"N+	c #DF812C",
"O+	c #E5992E",
"P+	c #EAAC2E",
"Q+	c #EDB62E",
"R+	c #F2BE2B",
"S+	c #AE8F48",
"T+	c #546F6A",
"U+	c #BAD475",
"V+	c #ABC765",
"W+	c #9FC152",
"X+	c #8DB740",
"Y+	c #74A63B",
"Z+	c #5A943A",
"`+	c #3E8636",
" @	c #44794B",
".@	c #294760",
"+@	c #385870",
"@@	c #4D6E88",
"#@	c #7893A7",
"$@	c #4A758D",
"%@	c #7EB4C0",
"&@	c #7FB9C4",
"*@	c #568597",
"=@	c #4D7793",
"-@	c #698499",
";@	c #406783",
">@	c #366483",
",@	c #34678A",
"'@	c #436581",
")@	c #BA5A34",
"!@	c #EA7122",
"~@	c #F28623",
"{@	c #F29325",
"]@	c #FBAC24",
"^@	c #F9CC29",
"/@	c #F5D02B",
"(@	c #7C7952",
"_@	c #799C75",
":@	c #C4D885",
"<@	c #B5CD73",
"[@	c #A8C661",
"}@	c #98BD4A",
"|@	c #82AF3B",
"1@	c #649A3A",
"2@	c #4D9038",
"3@	c #366257",
"4@	c #244762",
"5@	c #325975",
"6@	c #466B86",
"7@	c #67859A",
"8@	c #446E89",
"9@	c #74ACB9",
"0@	c #79B5C0",
"a@	c #3C718B",
"b@	c #5A869F",
"c@	c #5C7A90",
"d@	c #3E6784",
"e@	c #336385",
"f@	c #2D658B",
"g@	c #4D6072",
"h@	c #AA5638",
"i@	c #595052",
"j@	c #3B4F5D",
"k@	c #304C5C",
"l@	c #374E5A",
"m@	c #8B6440",
"n@	c #EFAD21",
"o@	c #546257",
"p@	c #A8C688",
"q@	c #C7DA8D",
"r@	c #BCD27D",
"s@	c #AECA6B",
"t@	c #9FC153",
"u@	c #8AB43F",
"v@	c #6DA03A",
"w@	c #52913D",
"x@	c #224D5F",
"y@	c #234C69",
"z@	c #315E7D",
"A@	c #436B87",
"B@	c #608197",
"C@	c #3C6B8A",
"D@	c #6AA6B4",
"E@	c #76B3BF",
"F@	c #326B8A",
"G@	c #225B84",
"H@	c #52738B",
"I@	c #346181",
"J@	c #1C547B",
"K@	c #0F527F",
"L@	c #0B4D7A",
"M@	c #14557E",
"N@	c #2579AB",
"O@	c #4EA0D2",
"P@	c #6DB8E2",
"Q@	c #6CAACB",
"R@	c #2D6588",
"S@	c #1F4C6E",
"T@	c #376467",
"U@	c #C8DA99",
"V@	c #CBDD92",
"W@	c #C0D483",
"X@	c #B3CD71",
"Y@	c #A3C359",
"Z@	c #8FB742",
"`@	c #74A639",
" #	c #457F4A",
".#	c #04375B",
"+#	c #0E4366",
"@#	c #205578",
"##	c #3A6684",
"$#	c #4D738E",
"%#	c #164E78",
"&#	c #65A2B3",
"*#	c #54A1AF",
"=#	c #256888",
"-#	c #004070",
";#	c #083A5D",
">#	c #033D66",
",#	c #00426F",
"'#	c #014A7B",
")#	c #1070AA",
"!#	c #0C95D4",
"~#	c #3BA2D7",
"{#	c #6EB0DD",
"]#	c #92C4E6",
"^#	c #B3D9F1",
"/#	c #CCEFFF",
"(#	c #6FA3C0",
"_#	c #0A4E67",
":#	c #558A6C",
"<#	c #A9C587",
"[#	c #B7D081",
"}#	c #B1CC70",
"|#	c #9EC158",
"1#	c #83B044",
"2#	c #5D9541",
"3#	c #296156",
"4#	c #013A61",
"5#	c #01406A",
"6#	c #00406C",
"7#	c #043E66",
"8#	c #063C62",
"9#	c #014270",
"0#	c #4894A6",
"a#	c #2B6D8B",
"b#	c #024778",
"c#	c #00355B",
"d#	c #023F68",
"e#	c #044875",
"f#	c #054F7D",
"g#	c #1F81BA",
"h#	c #108EC9",
"i#	c #369ED3",
"j#	c #66ACDB",
"k#	c #89C0E4",
"l#	c #A9D2ED",
"m#	c #C0DFF3",
"n#	c #5A93B2",
"o#	c #759183",
"p#	c #74918D",
"q#	c #20616A",
"r#	c #30716E",
"s#	c #3F7B6D",
"t#	c #367464",
"u#	c #2C665E",
"v#	c #446054",
"w#	c #0F4661",
"x#	c #034369",
"y#	c #044A77",
"z#	c #034773",
"A#	c #003962",
"B#	c #054877",
"C#	c #4A95A7",
"D#	c #397A91",
"E#	c #044B7E",
"F#	c #02395F",
"G#	c #03416B",
"H#	c #024977",
"I#	c #155D8B",
"J#	c #1981BF",
"K#	c #0F8AC6",
"L#	c #2799D1",
"M#	c #59A9D8",
"N#	c #7BB8E0",
"O#	c #9AC9E8",
"P#	c #AED8F6",
"Q#	c #366B77",
"R#	c #CAC58E",
"S#	c #F4E4AC",
"T#	c #D8CC93",
"U#	c #C1B67D",
"V#	c #AEA36C",
"W#	c #C1A951",
"X#	c #DAAD33",
"Y#	c #C19C40",
"Z#	c #164E68",
"`#	c #034972",
" $	c #045180",
".$	c #034A77",
"+$	c #03426B",
"@$	c #023D67",
"#$	c #0D527F",
"$$	c #4C97A8",
"%$	c #488696",
"&$	c #055184",
"*$	c #023E67",
"=$	c #02436C",
"-$	c #014976",
";$	c #216D9D",
">$	c #0E79B9",
",$	c #1286C1",
"'$	c #1693CD",
")$	c #43A1D4",
"!$	c #68AFDB",
"~$	c #86BEE3",
"{$	c #7FB9E6",
"]$	c #3A6C71",
"^$	c #F2DA8D",
"/$	c #F6E19B",
"($	c #F7DD8A",
"_$	c #F9D975",
":$	c #FBD656",
"<$	c #FDD033",
"[$	c #FDBD23",
"}$	c #9D8D49",
"|$	c #0D4F73",
"1$	c #04517E",
"2$	c #045585",
"3$	c #034D7A",
"4$	c #03436D",
"5$	c #01416D",
"6$	c #1B6087",
"7$	c #509AA9",
"8$	c #5598A3",
"9$	c #085486",
"0$	c #024A79",
"a$	c #054B76",
"b$	c #1F77AF",
"c$	c #0672B3",
"d$	c #147FBD",
"e$	c #118CC7",
"f$	c #2099D0",
"g$	c #4AA3D5",
"h$	c #6AB2E1",
"i$	c #4887B0",
"j$	c #66856E",
"k$	c #FFE282",
"l$	c #F8DA7F",
"m$	c #F9D870",
"n$	c #FBD55C",
"o$	c #FCD13D",
"p$	c #FBC52A",
"q$	c #F3AF26",
"r$	c #69775A",
"s$	c #07517C",
"t$	c #065A89",
"u$	c #04588B",
"v$	c #034E7C",
"w$	c #014C7D",
"x$	c #276F91",
"y$	c #549FAD",
"z$	c #206285",
"A$	c #01548B",
"B$	c #01446D",
"C$	c #195B85",
"D$	c #0C72B3",
"E$	c #0571B2",
"F$	c #0E77B5",
"G$	c #0F7FBB",
"H$	c #0F8BC7",
"I$	c #219AD1",
"J$	c #41A6E1",
"K$	c #276E8C",
"L$	c #AEA859",
"M$	c #FFDB69",
"N$	c #FBD560",
"O$	c #FBD451",
"P$	c #FCD13C",
"Q$	c #FBC72B",
"R$	c #F8B727",
"S$	c #E09F27",
"T$	c #3C6970",
"U$	c #075785",
"V$	c #076295",
"W$	c #065C8E",
"X$	c #034F7E",
"Y$	c #02446E",
"Z$	c #03588D",
"`$	c #38819C",
" %	c #52A0AF",
".%	c #4B8A99",
"+%	c #00558C",
"@%	c #014B7A",
"#%	c #246791",
"$%	c #065D94",
"%%	c #065685",
"&%	c #095885",
"*%	c #0B5D8A",
"=%	c #0A6596",
"-%	c #0776AE",
";%	c #1F8DCD",
">%	c #196887",
",%	c #FDD038",
"'%	c #FDD33F",
")%	c #FCD03A",
"!%	c #FBCC31",
"~%	c #FAC32A",
"{%	c #F7B627",
"]%	c #F4A724",
"^%	c #C5912E",
"/%	c #1E6283",
"(%	c #0B5F91",
"_%	c #0A689D",
":%	c #075D90",
"<%	c #044D7A",
"[%	c #025385",
"}%	c #0B5F92",
"|%	c #5097A5",
"1%	c #23688A",
"2%	c #005A92",
"3%	c #054870",
"4%	c #05456B",
"5%	c #084C74",
"6%	c #0C5984",
"7%	c #0C6493",
"8%	c #0A6B99",
"9%	c #096A97",
"0%	c #0D6996",
"a%	c #578169",
"b%	c #FFCA26",
"c%	c #FBC128",
"d%	c #F9BE29",
"e%	c #F8B827",
"f%	c #F5AE26",
"g%	c #F2A422",
"h%	c #F2981D",
"i%	c #958444",
"j%	c #055B8A",
"k%	c #0E679A",
"l%	c #0C6AA1",
"m%	c #085D8F",
"n%	c #05517F",
"o%	c #02649E",
"p%	c #327793",
"q%	c #4B91A1",
"r%	c #035D93",
"s%	c #045485",
"t%	c #07507C",
"u%	c #0B5E8E",
"v%	c #0F70A6",
"w%	c #0D80B9",
"x%	c #0D88C2",
"y%	c #0E86BC",
"z%	c #087DAF",
"A%	c #247B90",
"B%	c #958B4B",
"C%	c #E7AB2B",
"D%	c #EEA926",
"E%	c #EFA424",
"F%	c #EC9E23",
"G%	c #E49724",
"H%	c #D19028",
"I%	c #527871",
"J%	c #04608E",
"K%	c #0F6FA3",
"L%	c #0D6CA2",
"M%	c #095C8E",
"N%	c #05659E",
"O%	c #095E8F",
"P%	c #559FAD",
"Q%	c #529FAE",
"R%	c #357D98",
"S%	c #056CA6",
"T%	c #0A6496",
"U%	c #0D689E",
"V%	c #0F7CB6",
"W%	c #0C8BC8",
"X%	c #0F94D1",
"Y%	c #0F99D5",
"Z%	c #0A9DD5",
"`%	c #069ACD",
" &	c #0188B6",
".&	c #2B7F8B",
"+&	c #5B866C",
"@&	c #6E8B62",
"#&	c #638364",
"$&	c #417672",
"%&	c #146989",
"&&	c #056491",
"*&	c #0A6D9B",
"=&	c #0D76AB",
"-&	c #0E6AA0",
";&	c #0A6CA1",
">&	c #0B6CA2",
",&	c #4A8F9F",
"'&	c #519DAB",
")&	c #2A7799",
"!&	c #0878B1",
"~&	c #107CB0",
"{&	c #0D7BB6",
"]&	c #0D8CC8",
"^&	c #1096D2",
"/&	c #0D9FDA",
"(&	c #0BADE3",
"_&	c #0CB6E7",
":&	c #0BB3DD",
"<&	c #06A7CF",
"[&	c #0298BF",
"}&	c #018EB6",
"|&	c #0186AF",
"1&	c #0180AC",
"2&	c #057DAC",
"3&	c #0C7EAF",
"4&	c #0D80B6",
"5&	c #0B78B1",
"6&	c #1080B3",
"7&	c #3C89A2",
"8&	c #519EAD",
"9&	c #307897",
"0&	c #0A7FB5",
"a&	c #0F93C5",
"b&	c #0E8BC8",
"c&	c #1198D4",
"d&	c #0EA6DE",
"e&	c #0DB6E8",
"f&	c #0CC4EF",
"g&	c #0BCBF2",
"h&	c #0ACCF0",
"i&	c #09C4E7",
"j&	c #09BBE1",
"k&	c #0AB2DB",
"l&	c #09A7D5",
"m&	c #089CD2",
"n&	c #0D93CE",
"o&	c #0F8EC9",
"p&	c #0D98C5",
"q&	c #0C7BAF",
"r&	c #3D87A1",
"s&	c #519FAE",
"t&	c #377B95",
"u&	c #0A7BAA",
"v&	c #11A4D2",
"w&	c #149FD7",
"x&	c #0EA9E0",
"y&	c #0DBDEB",
"z&	c #0CCBF3",
"A&	c #09D5F7",
"B&	c #07DAFA",
"C&	c #09D4F7",
"D&	c #0AC9F3",
"E&	c #0BBBEC",
"F&	c #0AAAE1",
"G&	c #0EA3D8",
"H&	c #0F9DC9",
"I&	c #0770A0",
"J&	c #488B9D",
"K&	c #478EA1",
"L&	c #1C739B",
"M&	c #1592BC",
"N&	c #0CAED8",
"O&	c #0DBEE6",
"P&	c #0CCEF2",
"Q&	c #08DAF9",
"R&	c #03E4FF",
"S&	c #03E2FE",
"T&	c #07D8F7",
"U&	c #0ACAF0",
"V&	c #0ABDE5",
"W&	c #08A9D4",
"X&	c #138AB3",
"Y&	c #287B9D",
"Z&	c #5197A5",
"`&	c #509EAD",
" *	c #4F9DAC",
".*	c #5199A7",
"+*	c #3F8CA2",
"@*	c #2986A4",
"#*	c #1F92B0",
"$*	c #12A2C1",
"%*	c #06ACCA",
"&*	c #02B1CE",
"**	c #03B1CF",
"=*	c #08ABC9",
"-*	c #149FBE",
";*	c #2390AC",
">*	c #2C87A4",
",*	c #4591A4",
". . . . . . . . . . . . . . . . . . . . + @ # $ % & * = - . . . . . . . . . . . . . . . . ; . . . . . ",
"> > > > > > > > > > > > > > > > > , ' ) ! ~ { ] ^ / ( _ : < [ } | > > > > > > > > > > > > > > > > > > ",
"1 1 1 1 1 1 1 1 1 1 1 1 1 1 1 1 2 3 4 5 6 7 8 9 0 a b c d e f g h i 1 1 1 1 1 1 1 1 1 1 1 1 1 1 1 1 1 ",
"j j j j j j j j j j j j j k j l m n o p q r s t u u v w x y z A B C D j j j j j j j j j j j j j j j j ",
"E E E E E E E E E E E E E E F G H I J K L M N O P Q P R H S T U V W X Y E E E E E E E E E E E E E E E ",
"Z Z Z Z Z Z Z Z Z Z Z Z Z `  ...+.@.#.$.%.&.*.*.=.-.;.;.>.,.'.).!.~.{.].^.Z Z Z Z Z Z Z Z Z Z Z Z Z Z ",
"/./././././././././././.(._.:.<.[.}.|.1.2.3.4.5.6.7.8.9.0.a.b.c.d.e.f.g.h././././././././././././././.",
"i.i.i.i.i.i.i.i.i.i.i.i.j.k.l.m.n.o.p.q.r.s.t.u.v.w.x.y.z.A.B.C.D.E.F.G.H.I.i.i.i.i.i.i.i.i.i.i.i.i.i.",
"J.J.J.J.J.J.J.J.J.J.J.K.L.M.N.O.P.Q.R.S.T.U.V.W.X.Y.Z.`. +.+++@+#+$+%+&+*+=+-+J.J.J.J.J.J.J.J.J.J.J.J.",
";+;+;+;+;+;+;+;+;+;+;+>+,+'+)+!+~+{+]+^+/+(+_+:+<+[+}+|+1+2+3+4+5+6+7+8+9+0+a+;+;+;+;+;+;+;+;+;+;+;+;+",
"b+b+b+b+b+b+b+b+b+b+b+c+d+e+f+g+h+i+j+/+k+l+m+n+o+p+q+r+s+t+u+v+w+x+y+z+A+B+C+b+b+b+b+b+b+b+b+b+b+b+b+",
"D+D+D+D+D+D+D+D+D+D+E+F+G+H+I+J+K+L+M+N+O+P+Q+R+S+T+U+V+W+X+Y+Z+`+ @.@+@@@#@$@%@D+D+D+D+D+D+D+D+D+D+D+",
"&@&@&@&@&@&@&@&@&@&@*@=@-@;@>@,@'@)@!@~@{@]@^@/@(@_@:@<@[@}@|@1@2@3@4@5@6@7@8@9@&@&@&@&@&@&@&@&@&@&@&@",
"0@0@0@0@0@0@0@0@0@0@a@b@c@d@e@f@g@h@i@j@k@l@m@n@o@p@q@r@s@t@u@v@w@x@y@z@A@B@C@D@0@0@0@0@0@0@0@0@0@0@0@",
"E@E@E@E@E@E@E@E@E@E@F@G@H@I@J@K@L@M@N@O@P@Q@R@S@T@U@V@W@X@Y@Z@`@ #.#+#@###$#%#&#E@E@E@E@E@E@E@E@E@E@E@",
"*#*#*#*#*#*#*#*#*#*#=#-#;#>#,#'#)#!#~#{#]#^#/#(#_#:#<#[#}#|#1#2#3#4#5#6#7#8#9#0#*#*#*#*#*#*#*#*#*#*#*#",
"*#*#*#*#*#*#*#*#*#*#a#b#c#d#e#f#g#h#i#j#k#l#m#n#o#p#q#r#s#t#u#v#w#x#y#z#d#A#B#C#*#*#*#*#*#*#*#*#*#*#*#",
"*#*#*#*#*#*#*#*#*#*#D#E#F#G#H#I#J#K#L#M#N#O#P#Q#R#S#T#U#V#W#X#Y#Z#`# $.$+$@$#$$$*#*#*#*#*#*#*#*#*#*#*#",
"*#*#*#*#*#*#*#*#*#*#%$&$*$=$-$;$>$,$'$)$!$~${$]$^$/$($_$:$<$[$}$|$1$2$3$4$5$6$7$*#*#*#*#*#*#*#*#*#*#*#",
"*#*#*#*#*#*#*#*#*#*#8$9$0$=$a$b$c$d$e$f$g$h$i$j$k$l$m$n$o$p$q$r$s$t$u$v$=$w$x$y$*#*#*#*#*#*#*#*#*#*#*#",
"*#*#*#*#*#*#*#*#*#*#*#z$A$B$C$D$E$F$G$H$I$J$K$L$M$N$O$P$Q$R$S$T$U$V$W$X$Y$Z$`$*#*#*#*#*#*#*#*#*#*#*#*#",
" % % % % % % % % % % %.%+%@%#%$%%%&%*%=%-%;%>%,%'%)%!%~%{%]%^%/%(%_%:%<%[%}%|% % % % % % % % % % % % %",
" % % % % % % % % % % % %1%2%3%4%5%6%7%8%9%0%a%b%c%d%e%f%g%h%i%j%k%l%m%n%o%p% % % % % % % % % % % % % %",
"*#*#*#*#*#*#*#*#*#*#*#*#q%r%s%t%u%v%w%x%y%z%A%B%C%D%E%F%G%H%I%J%K%L%M%N%O%P%*#*#*#*#*#*#*#*#*#*#*#*#*#",
" % % % % % % % % % % % %Q%R%S%T%U%V%W%X%Y%Z%`% &.&+&@&#&$&%&&&*&=&-&;&>&,& % % % % % % % % % % % % % %",
" % % % % % % % % % % % % %'&)&!&~&{&]&^&/&(&_&:&<&[&}&|&1&2&3&4&5&6&=&7& % % % % % % % % % % % % % % %",
" % % % % % % % % % % % % % %8&9&0&a&b&c&d&e&f&g&h&i&j&k&l&m&n&o&p&q&r& % % % % % % % % % % % % % % % %",
"s&s&s&s&s&s&s&s&s&s&s&s&s&s&s&s&t&u&v&w&x&y&z&A&B&B&C&D&E&F&G&H&I&J&s&s&s&s&s&s&s&s&s&s&s&s&s&s&s&s&s&",
"s&s&s&s&s&s&s&s&s&s&s&s&s&s&s&s&s&K&L&M&N&O&P&Q&R&S&T&U&V&W&X&Y&Z&s&`&s&s&s&s&s&s&s&s&s&s&s&s&s&s&s&s&",
" * * * * * * * * * * * * * * * * * *.*+*@*#*$*%*&***=*-*;*>*,* * * * * * * * * * * * * * * * * * * * *"};
