/* XPM */
static char * frameIBL_xpm[] = {
"4 4 4 1",
" 	c None",
".	c #C9C9D7",
"+	c #FBFCFD",
"@	c #EAEDF5",
".+@.",
".+@@",
".+++",
"...."};
