/* XPM */
static char * Apple_xpm[] = {
"39 44 50 1",
" 	c None",
".	c #69A661856185",
"X	c #B6DAAEBABEFB",
"o	c #965892489658",
"O	c #96585D756185",
"+	c #CF3C92489658",
"@	c #69A645144103",
"#	c #B6DA79E779E7",
"$	c #AEBA5D755965",
"%	c #8E3845144924",
"&	c #71C628A228A2",
"*	c #8E3834D338E3",
"=	c #514404100000",
"-	c #492430C228A2",
";	c #965814511861",
":	c #8E380C300820",
">	c #71C608200820",
",	c #492418611861",
"<	c #EFBEA6999E79",
"1	c #B6DA20811861",
"2	c #861700000000",
"3	c #C71B24921861",
"4	c #AEBA14510820",
"5	c #8E38249228A2",
"6	c #CF3C38E328A2",
"7	c #E79D59654103",
"8	c #DF7D451430C2",
"9	c #B6DA30C22081",
"0	c #965834D30820",
"q	c #9E7934D32081",
"w	c #AEBA75D669A6",
"e	c #F7DE75D65144",
"r	c #CF3C596530C2",
"t	c #F7DE9A6971C6",
"y	c #EFBEB2CA71C6",
"u	c #F7DEB6DA9E79",
"i	c #F7DED34C9658",
"p	c #EFBE75D638E3",
"a	c #30C208200000",
"s	c #8E3879E78617",
"d	c #E79D5D751040",
"f	c #71C66DB669A6",
"g	c #AEBAA6999E79",
"h	c #104014511040",
"j	c #69A65D754924",
"k	c #000000000000",
"l	c #4924410330C2",
"z	c #861779E771C6",
"x	c #492445144103",
"c	c #30C22CB228A2",
"                  .                    ",
"                 X.                    ",
"                  oO                   ",
"                   .                   ",
"                  +@#                  ",
"         +#$%&**&**=-$#+               ",
"       +%;;;;:>>>>>===,&&*%O#+<        ",
"     <%;;1111;2:2>>==>=>>=;>>&&&O      ",
"    %*;11333314::::2>:>::::;;;>&>-O    ",
"   $5:4433677894019q151;1;4;1;;>;=&%   ",
"  w>>:43337eeeerrr866699111;:;::>>==%  ",
"  *>:444368etyuttee7886631044;;::>>=,O ",
" $>;4443338rttiutte77869114:::::>>>>=, ",
"<*>::4443688rppep7868833394;0::::>;>>as",
"#>>:444433888888d888836311444::;:2>>==%",
"$>;:;44343388888886666931144;:::2>>>==@",
"%;;:44414333366838866334144;:::>:>>>=a-",
"*>::::44443333338333334944;4:;2;>;>===-",
"&2;::4444434333333333434404;::;>:>>>=a@",
"&>::::444443333333343344444:;::>;>>==aO",
"&>:::44444443333333344444:;::;:>>>>==af",
"%>>::::4444444443444444:44:::>2>>>===a#",
"O&2::44444444444444444:4:;::>:>>>>===a ",
"w&>::::44444444444444:4:;::::2>>=>===- ",
"<,>:::::4444:444444:44:4:;::>>>>>===a@ ",
" @>>>:::4:4444444:44:::::::>2>>>>===a. ",
" O=;2::::4::4:4:44:4:::::>:>>>>====aa# ",
" #=>>:>:::4:4:4::::::::>:>2>>>>>====ag ",
"  &=>:2::::::::::::::::>:>>>>=>=>,=a,  ",
"  %>>:22:::::2:::::2::>2>>>>>>=====a.  ",
"  +&>>>22::2::2:2:2::22>>>>>>>=>===,+  ",
"   &=>>>222>:2:2:2:22>>>>>>>>====a,&   ",
"   w=>>>>>22222>2>2>>>>>=>>=>===aaa    ",
"    ,==>>2>>>>>>>>>>>>>>>=>===a=aa-    ",
"    $,=>=>2>>>>>>>>>>>>=>=======ahO    ",
"     &=,>>>>>>>>>>>=>>========a=h,     ",
"     #,a==>>=>=>=>=>======a=a=aaaj     ",
"      Oa====>=>=>=>=====a=a=aaha,      ",
"       @aa=============a=aaaaaa,s      ",
"        ,a=a==========a=aaaaaaa-       ",
"         -aaa=a=a====aahaaaaak,        ",
"          -kaa=aaaaaaaaaaahah-         ",
"           @a-@l,kaak-# zx-cf          ",
"                 @ccz                  "};
