/* XPM */
static char * au_xpm[] = {
"32 32 8 1",
" 	c None",
".	c #808080",
"+	c #FFFFFF",
"@	c #000000",
"#	c #C0C0C0",
"$	c #008000",
"%	c #FFFF00",
"&	c #00FF00",
"                                ",
"                                ",
"        ...............         ",
"        .+++++++++++++.@        ",
"        .+++++++++++++..@       ",
"        .+++++++++++++.+.@      ",
"        .+++++++++++++.++.@     ",
"        .+++++++++++++.@@@@@    ",
"        .++@@+++++++++++++#@    ",
"        .+$$@.++++++++++++#@    ",
"        .$%@###++++++.++++#@    ",
"        $%$$#+.#+++..+++++#@    ",
"       $%&@#++.#+..+++++++#@    ",
"     $$%&+@#++.#.+++++++++#@    ",
"    $%$&+&@@++.##+++++++++#@    ",
"    $%$+&+@#@+.##+++++++++#@    ",
"    $&$&+&@.@+.#.....+++++#@    ",
"    @$$+&+@@++.##+++++++++#@    ",
"     @@$+&@#++.##+++++++++#@    ",
"      #@$+@#++.#.+++++++++#@    ",
"       #@$$$++.##..+++++++#@    ",
"        .@$@##.##++..+++++#@    ",
"        .+@$@.###++++.++++#@    ",
"        .++@@####+++++++++#@    ",
"        .+++####++++++++++#@    ",
"        .++++##+++++++++++#@    ",
"        .+++++++++++++++++#@    ",
"        .+++++++++++++++++#@    ",
"        .##################@    ",
"        @@@@@@@@@@@@@@@@@@@@    ",
"                                ",
"                                "};
