/* XPM */
static char * bettler_xpm[] = {
"32 32 11 1",
" 	s None	c None",
".	c grey26",
"X	c grey4",
"o	c grey13",
"O	c grey39",
"+	c orange3",
"@	c goldenrod1",
"#	c firebrick3",
"$	c white",
"%	c yellow4",
"&	c grey51",
"                                ",
"           .XXX.                ",
"          .oXXXXX               ",
"          oXXX.XXO       XX     ",
"          X.+@.XXX  XX+XX+X     ",
"          o.++@XXX   XX+X+XXX   ",
"         XX++@@XXX     XXXX     ",
"        X@XX++++XX   XX##++X    ",
"       X@@@.XXXXOXXXX X#++#X    ",
"       X@@$$.O.OO.X   X+#+#X    ",
"      XX@$%@$$XX@@@XX X+++#X    ",
"      X@@@XXXX$$$@@@X X++##X    ",
"      X$@XX+@@@@@$$@X  X##X     ",
"     X@XX@X+@@@@@@X@X   XX      ",
"     X@@XXX@@@X@%X@@X           ",
"     XXXX X@@@X@%X@@X           ",
"           XXX+X%X@@X           ",
"          X++++XXX@@X           ",
"          X$+++++X@@X           ",
"         X$$+++$+XXXX           ",
"         X$++++$$X@@X           ",
"          X++X+$$X@@X           ",
"          X++X+++XXX            ",
"          X++X+++XXX            ",
"          XX+X+++X              ",
"           X+X++XX              ",
"           XXXX+X               ",
"           X@X@XX&&&&&&&&&&&    ",
"          X@X@@@X&&&&&&&&&&&    ",
"         X@X@@@XX&&&&&&&&       ",
"          XXXXX&&&              ",
"                                "};
