/* XPM */
static char * Bullet_xpm[] = {
"48 48 64 1",
" 	c None",
".	c #A6999A699E79",
"X	c #EFBE8A280820",
"o	c #965849241861",
"O	c #E79D6DB60000",
"+	c #CF3C45140000",
"@	c #38E33CF338E3",
"#	c #A699A289A699",
"$	c #DF7D65950000",
"%	c #E79D7DF70000",
"&	c #D75C51440000",
"*	c #EFBEB6DA69A6",
"=	c #79E720810000",
"-	c #96589A699E79",
";	c #D75C61850000",
":	c #B6DA51440000",
">	c #BEFB55550000",
",	c #C71B5D750000",
"<	c #CF3C61850000",
"1	c #CF3C69A60000",
"2	c #9E7938E30000",
"3	c #AEBA41030000",
"4	c #410361856185",
"5	c #861779E769A6",
"6	c #71C68A289658",
"7	c #D75C71C60000",
"8	c #BEFB45140000",
"9	c #965834D30000",
"0	c #104018611861",
"q	c #514482078E38",
"w	c #514479E78617",
"e	c #38E359655965",
"r	c #28A241034103",
"t	c #AEBAA289A699",
"y	c #8E382CB20000",
"u	c #DF7D71C60000",
"i	c #CF3C51440000",
"p	c #965841030000",
"a	c #186128A228A2",
"s	c #596582079658",
"d	c #492471C679E7",
"f	c #38E361856185",
"g	c #965830C20000",
"h	c #DF7D79E70000",
"j	c #C71B51440000",
"k	c #596586179658",
"l	c #A69930C20000",
"z	c #61858A289E79",
"x	c #30C24D345144",
"c	c #000004100000",
"v	c #EFBE82070000",
"b	c #B6DA41030000",
"n	c #EFBE86170000",
"m	c #D75C59650000",
"M	c #492451444924",
"N	c #30C249244924",
"B	c #FFFF8E380000",
"V	c #FFFF9A690000",
"C	c #208134D330C2",
"Z	c #49246DB671C6",
"A	c #A69949240000",
"S	c #A69941030000",
"D	c #A69938E30000",
"F	c #8E3828A20000",
"                                                ",
"                                                ",
"                                                ",
" .Xo.                                           ",
" XO+@                      # #                  ",
"#$%&oooooooooooooooooooooo*=.o-                 ",
"#OX;o:::::>>>,,<<<<<<<1111$2o3@444456           ",
"#%*$=>>,,,<<<<<1$77777777778980qqw4e@r5         ",
"t%*Oy<<<<<$$7777uuuuuuuuuuuip8assqwdf@0r#       ",
"t%*Og1$$$$uuuuhhhhhhhhhhhhhi3j@kksqwde@00-      ",
"t%*Ol$uuuuhhhh%%%%%%%%%%%%%<8i@zzksqw4xac0.     ",
"t%*O3uuuhh%%%vvvvvvvvvvvvvv;iirzzzssqdf@0c@     ",
"t%*Obh%%vvvvvvvnnnnnnnnnnnn;imMzzzksqw4Nacc5    ",
"t%*ObvvnBVXXXXVBBBBBBBBBBBB;i;Mzzzzssw4xC0c0-   ",
"t%*ObvnnBVVXX*XVVVBBBBBBBBB;i;MzzzzsswZeC0ccM   ",
"t%*O8vvnnBVVVXVVVBBBBBBBBBB;&;Mzzzzksqde@00c0#  ",
"t%*O8O%%vvvvnnnnnnnnBnnnnnn;m$Mzzzzksqdf@a0cc5  ",
"t%*O8uuuhhh%vvvvvvvnXnnvvvv$m$Mzzzzksqdf@a0ccr  ",
"t%*O8$uuuuhhXhhhh%%vnnv%%%%Xm$Mzzzz66qdfrC00c0  ",
"t%*O8$$$$uuuhuhhhhhhhhhhhh%;m;Mzzzz66wde@Ca0cc# ",
"t%*$8<<<$$$$uuuuuuuuuuuuuuh;m;MzzzksswZerCa0cc6 ",
"t%*$8,<<<<<1$$777777777777um;;Mkzzksqw4e@Ca0cc5 ",
"t%*$8>,,,,<<<<117$111111117;;;Mkzzssqw4xrCa0005 ",
"t%*$::>>j,,,,<<<11<<<<<<<<1m;m5zzzssqdfxrCa0004 ",
"#%*;bb:::>>>>,,,<<,,,,,,,,<m;&5szzsqwZexrCaaaa5 ",
"#OXm833Abb::>>>>>,>>>>>>>>,im&Mwzksqw4exrCaCCC5 ",
"#$%+3SS3333Ab::::>>>>>>>>>>im&Mdssqwd4MxrCCC@@5 ",
"#$O+322pDSS333Abb:::::::::>ii&MZssww4exN@@@rNx6 ",
"#$O+3g92222DSS33333AAAAAAA:iiiM4qqwZfexN@rNxMe  ",
"#m$+3ggggg9922DDSSSSSAAAAAAjiiM4dwd4eMxNrxMee4  ",
"#m;83FyyFFgggg92222ppDDSSSA8iiMf4d4fexNNxeef45  ",
"#&m+b===FFFFFFggggg9222222S8iiMff4fexxNMef44d-  ",
"#+++X==========FFFFgggggggp8iiMeeeeMxxxef4wdw   ",
"#+++X======FFFFFFFFgggggg9D88i@eeexxxMef4kzw6   ",
"#888X==FFFFFFFFFFFggggg992Sb8+@xxxxNxef46#kq    ",
"#bb+7FFFyyFggggggggggg9922Sl88@xxNxxef4q#-q-    ",
"5338<yyyyyyygggggg2222222DSlbi@NNNMef4dz-s6     ",
"#gl+m99999999999222222ppp2SlSi@NNxef4Zwsq6      ",
"#yg+i233333ASSpppppppppppppb2+@xxxf44dwq5       ",
"#=y+iAbbbbbbbbbbbAAAASSSSSpbFb@xMef4dww6        ",
"#=y+iAAAAAAAAAAAAAAAAAAAAAS8=b@Mee4Zd6-         ",
"#o=+&AAAAAAAAASSSppppppppp9b5l55556-#           ",
"#o=8X...........----------6o#o.                 ",
" @ob*                                           ",
" .55                                            ",
"                                                ",
"                                                ",
"                                                "};
