/* XPM */
static char * OldFashionedCameraWithFlash_xpm[] = {
"32 32 14 2",
"  	c None",
". 	c grey64",
"X 	c grey76",
"o 	c grey89",
"O 	c grey51",
"+ 	c grey39",
"@ 	c white",
"# 	c grey26",
"$ 	c grey13",
"% 	c turquoise4",
"& 	c yellow3",
"* 	c brown4",
"= 	c orange3",
"- 	c yellow4",
"                                            . . . . .           ",
"                                        . X . . X X o X .       ",
"                                      . . O . X X o o o o .     ",
"                                    . . O O . X X o o o o o .   ",
"                                  . . O + O X o o o o @ o o X   ",
"                                  X . O O . . X X o o o o o o . ",
"                  O . O O # #   O o X . X . O . . . . o @ @ @ X ",
"            O . . . . X X . $ $ . o o @ o . % . . . % X o @ @ X ",
"        # $ O . X X . X X X . $ X @ @ @ @ % . & o X % . @ @ @ X ",
"      # # $ # O . X X X . . X . . @ @ @ @ X X & o X % . @ @ @ o ",
"    # $ $ # $ # O . . X X X X X . @ @ @ @ X X o o X . X @ @ @ o ",
"  # # # $ $ $ # + X o o o o @ o X @ @ @ o . X o o o . o @ @ @ X ",
"  # # # $ $ # * + o @ @ @ @ @ @ . @ @ o o o X . . . X @ @ @ @ o ",
"  $ $ $ $ $ * + # o @ @ @ @ @ @ . o o o X X X . . . o o @ @ o . ",
"# # # $ $ $ = # $ o @ @ @ @ @ @ O X o o X X X . O . . . X X o   ",
"# # # $ $ $ = # $ o @ o o o o o # O o X . . X . + + O O O . .   ",
"$ # # $ $ $ = # $ o @ + $ # O X + $ X X . O . . + # + + O .     ",
"# # $ $ $ $ = # $ o @ # # # # . + $ + X X . . . . + # O .       ",
"  $ $ $ $ $ = # $ o o + o . $ . # $ # . . X . . . . . .         ",
"  $ $ $ $ $ = # $ o o + + # # o # $ + + $ + X X X X             ",
"  $ $ $ $ $ = # $ o @ . # # X @ # $ + + $ $                     ",
"  $ $ $ $ $ = # # o @ @ X X o @ # $ + + $ #                     ",
"  # $ $ $ $ = # # @ @ X # # . @ # $ + * $ $                     ",
"  $ $ $ $ $ = # # @ @ + + O # X # $ + + $ $                     ",
"  $ $ # # # * # # o X # X o O X # $ - * $ #                     ",
"  $ # # # * * # + @ o + . . O X # $ O - # #                     ",
"  $ # # # * # = = @ @ X O O X @ # $ + * # #                     ",
"  $ # # # * * * - @ @ @ @ @ @ o * # # * #                       ",
"    # # # * = # O @ @ @ @ X . - # #                             ",
"      # # # = # * . . O * * * # #                               ",
"        # * = = * * # # # #                                     ",
"          # = # # # #                                           "};
