/* XPM */
static char * AceKingCards_xpm[] = {
"48 48 9 2",
"  	c grey39",
". 	c grey76",
"X 	c white",
"o 	c grey4",
"O 	c grey89",
"+ 	c DarkOrange1",
"@ 	c red1",
"# 	c grey26",
"$ 	c grey51",
"                                          . X X X X X X X . .                                   ",
"  o o o o o o o o o o o o o o o o o o X X X O O O O O O O O X X .   o o o o o o o o o o o o o X ",
"  o X X X X X X X X X X X X X X X X X X O O O O O O O O O O O X X X X X X X X X X X X X X X X X ",
"  o X X X X X X X X X X X X X X X X X O O O O O O O O O O O O O O O X X X X X X X X X X X X X X ",
"  o X X X X X X X X X X X X X X X O O O O O O O O O + O O O O O O O O O O X X X X X X X X X X X ",
"  o X X X X X X X X X X X X X X O O O O O O O O O O O @ + O O O O O O O O O O X X X X X X X X X ",
"  o X X X X X X X X X X X X O O O O O O O O O O O + @ @ @ + + + O O O O O O O O O X X X X X X X ",
"  o X X X X X X X X X X X O O O O O O O O O O O @ @ @ @ O O O O O O O O O O O O O O O O X X X X ",
"  o X X X X X X X X X O O O O O O O O O O O + @ @ @ O O O O O O O O @ + O O O O O O O O O O X X ",
"  o X X X X X X X X X X O O O O O O O O O @ @ @ @ + @ @ @ + + @ @ @ @ @ @ + O O . . . . . O O X ",
"  o X X X X X X X X X X X O O O O + + + @ @ @ O O O @ @ + O O O O O O O O O + . . . . . . . . X ",
"  o X X X X X X X X X X O O O O O O O + @ @ O O O O + @ @ O O O O O O O O . . . . . . . . . . X ",
"  o X X X X X X X X X X O O O O O O O O O + + O O O O @ @ O O O O O O . . . . . . . . . . . . X ",
"  o X X X X X X X X X O O O O O O O O + + + + O O O O @ @ + O O O O . . . . . . . . . . . . . X ",
"  o X X X X X X X X X O + @ @ @ @ @ @ @ @ @ @ + O + + @ @ @ O O O . . . . . . . . . . . . . . X ",
"  o X X X X X X X X O O O @ @ @ @ @ @ @ @ @ @ O O O O O @ @ O O O . . . . . . . . . . . . . . X ",
"  o X X X X X X X O O O O + @ @ @ @ @ @ @ @ @ O O O O O O O + O . . . . . . . . . . . . . . . X ",
"  o O O O O O O O O O O O + @ @ @ @ @ @ @ @ @ + O O O O O O O . . . . . . . . . . . . . . . . X ",
"  o O O O O O O O O O O O + @ @ @ @ @ @ @ @ @ @ O O O O O O O . . . . . . . . . . . . . . . . X ",
"  o O O O O O O O O O O O + @ @ @ @ + + + + + + O O O O O O . . . . . . . . . . . . . . . . . X ",
"  o O O O O O O O O O O O O O O O O O O O O O O O O O O O O . . . . . . . . . . . . . . . . . X ",
"  o O O O O O O O O O O O O O O O O O O O O O O O O O O O O . . . . . . . . . . . . . . . . . X ",
"  o O O O O O O O O O O O O O X X X X X X X X X X X X X X X X X X X X X X X X X X X X X X X X X ",
"  o O O O O O O O O O O O X X X X X X X X X X X X X X X O O O O O O O O O O O O O O O O O O O X ",
"  o O O O O O O O O O O X X X X X X X X X X X X X X X X X O O O O O O O O O O O O O O O O O O X ",
"  o O O O O O O O O O X X X X X X X X X X X X X X X X X X X O O O O O O O O O O O O O O O O O X ",
"  o O O O O O O O O X X X X X X X X X X X X X X X X X X X X O # $ O O O O O O O O O . . . . O X ",
"  o O O O O O . . . X X X X X X X X X X X X X X X X X X X X o o $ O O O O O O O O . . . . . . X ",
"  o O O . . . . . X X X X X X X X X X X X X X X X X X X # $ o o $ O O O O O O O . . . . . . . X ",
"  o . . . . . . X X X X X X X X X X X X X X X X X X X $ O O o o $ O O O O O O O . . . . . . . X ",
"  o . . . . . . X X X X X X X X X X X X X X X X X $ $ X X X # o $ O O O O O O O O . . . . . . X ",
"  o . . . . . X X X X X X X X X X X X X X X X X # # O O X X $ o $ O O O O O O O O . . . . . O X ",
"  o . . . . X X X X X X X X X X X X X X X X $ # X $ $ $ $ $ # o # O O O O O O O O O O . O O O X ",
"  o . . . . X X X X X X X X X X X X X X X # X X X X X X X X $ o o O O O O O O O O O O O O O O X ",
"  o . . . X X X X X X X X X X X X X $ $ o # X X X X X X X X # o o X O O O O O O O O O O O O O X ",
"  o . . . X X X X X X X X X X X X X X X X X X X X $ X X $ $ $ $ $ $ X O O O O O O O O O O O O X ",
"  o . . X X X X X X X X X X X X X X X X X X $ o o o o $ X X X X X X X X O O O O O O O O O O O X ",
"  o . X X X X X X X X X X X X X X X X $ o o o o o o o o # X X X X X X X X O O O O O O O O O O X ",
"  o . X X X X X X X X X X X X X X # o o o o o o o o o o o # X X X X X X X X O O O O O O O O O X ",
"  o X X X X X X X X X X X X X $ o o o o o o o o o o o o o o $ X X X X X X X X X O O O O O O O X ",
"  o X X X X X X X X X X X X $ o o o o o o o o o o o o o o o $ X X X X X X X X X X X X X X O O X ",
"  o O X X X X X X X X X X X o o o o o o o o o o o o o o o o X X X X X X X X X X X X X X X X X X ",
"  o O O X X X X X X X X X X o o o o o o # o $ o o o o o o X X X X X X X X X X X X X X X X X X X ",
"  o O O X X X X X X X X X X X $ $ $ X X # o X X $ $ $ X X X X X X X X X X X X X X X X X X X X X ",
"  o O O X X X X X X X X X X X X X X X X o o o X X X X X X X X X X X X X X X X X X X X X X X X X ",
"  o O O O O X X X X X X X X X X X X X X X $ X X X X X X X X X X X X X X X X X X X X X X X X X X ",
"  o O O O O X X X X X X X X X X X X X X X X X X X X X X X X X X X X X X X X X X X X X X X X X X ",
"X X X X X X X X X X X X X X X X X X X X X X X X X X X X X X X X X X X X X X X X X X X X X X X X "};
