/* XPM */
static char * cleanmgr_xpm[] = {
"32 32 40 1",
" 	c None",
".	c #000080",
"+	c #000000",
"@	c #309FFF",
"#	c #3060CF",
"$	c #609FFF",
"%	c #60CFFF",
"&	c #CFFFFF",
"*	c #30309F",
"=	c #CFCFFF",
"-	c #309FCF",
";	c #3060FF",
">	c #808000",
",	c #CFCF60",
"'	c #FFCF60",
")	c #FFFF30",
"!	c #9F9F60",
"~	c #FFFF00",
"{	c #000060",
"]	c #CF9F30",
"^	c #FFCF30",
"/	c #FFFF60",
"(	c #FFFF9F",
"_	c #808080",
":	c #B0B0B0",
"<	c #A0A0A0",
"[	c #9F9F9F",
"}	c #707070",
"|	c #C0C0C0",
"1	c #909090",
"2	c #FFFFFF",
"3	c #00FF00",
"4	c #606060",
"5	c #008000",
"6	c #505050",
"7	c #4F4F4F",
"8	c #404040",
"9	c #3F3F3F",
"0	c #303030",
"a	c #5F5F5F",
"                                ",
"                                ",
"  .+++                          ",
"  .@#.+                         ",
"  .@$#.+                        ",
"  .%&$#.+                       ",
"   .%&$#.+++++                  ",
"    .%&$#.....++                ",
"     .%&$$##**.+++              ",
"      .%=-$;#.+>>>++            ",
"      .%=$$-.+>,'>,>++          ",
"      .%=-=.+>)!)'>~,>++        ",
"      .%=={+>,')!''>''>>+       ",
"       .%.+>,)]'^!)'>'',>+      ",
"       ..+>)]))])/!''>'',>+     ",
"       ++>,()]')]'^!''>''>+     ",
"    ____>>(]()]')]')!'',>+____  ",
"   _::<[>,((]()]')]''!,>+_}_}_+ ",
"  _||:<[1>,((]()])'])'>+_}__}_+ ",
" _2222222>2]((](^]'),>+|222_}}+ ",
" _2|||||||>2]((](/],>+333||}}4+ ",
" _2|||||||>2(]((](^>+_555||444+ ",
" _2||||||||>2(]((]>+||:||||466+ ",
" _2|_______>,)(](>+_____}||677+ ",
" _2|22222222>,)(>+|222222||789+ ",
" _2|________>2,>+________||990+ ",
" _2|222222222>>+|22222222||000+ ",
" _2|||||||||||+||||||||||||00+  ",
" ____________}}444a678890000+   ",
"  ++++++++++++++++++++++++++    ",
"                                ",
"                                "};
