/* XPM */
static char * HandOnWindowCloseIcon_xpm[] = {
"48 48 17 1",
" 	c None",
".	c grey64",
"X	c grey39",
"o	c grey26",
"O	c orange3",
"+	c yellow4",
"@	c grey51",
"#	c grey4",
"$	c white",
"%	c grey7",
"&	c grey13",
"*	c blue4",
"=	c magenta4",
"-	c blue3",
";	c magenta3",
":	c blue1",
">	c magenta1",
"                        .XXXXXXXXXXooX          ",
"                      XXoOOOOOOOOOOO+@Xo        ",
"                    XXOOOOOOOOOOOOOOOOOOX       ",
"                   XOOOOOOOOOOOOOOOOOOOOOX      ",
"                  XOOOOOOOOOOO@OOOOOOOOOOOXX    ",
"                 XOOOOOOO@+@+@+@+@+@oo+OOOOOXX  ",
"                XOOOOOOooooooooooooo@+OOOOOOOOXX",
"               XOOOOoooOOOOOOOOOOOOOOOOOOOOOOOOO",
"              X+OOooOOOOOOOOOOOOOOOOOOOOOOOOOOOO",
"             X+OOoOOOOOOOOOOOOOOOOOOOOOOOOOOOOOO",
"            X+OOOoOOOOOOOOOOOOOOOOOOOOOOOOOOOOOO",
"           X+OOO+oOOOOOOOOOOOOOOOOOOOOOOOOOOOOOO",
"#################oo+@@o+o#ooooo+@OOOOOOOOOOOOOOO",
"$$$$$$$$$$$$$$$$$.oo###########oo@OOOOOOOOOOOOOO",
"...................oooooo#########@OOOOOOOOOOOOO",
".......................oo##########OOOOOOOOOOOOO",
".......$$$$$$$$$$$$$$#..o###########OOOOOOOOOOOO",
".......$............o#..o############@OOOOOOOOOO",
".......$.#o......o#.o#..o##############OOOOOOOOO",
".......$.o#o....o#o.o#..o###############+OOOOOOO",
".......$..o#o..o#o..o#..o################o@+OOOO",
".......$...o#oo#o...o#..o##################o+OOO",
".......$....o##o....o#..o################ooo@+O@",
".......$....o##o....o#..o######oo#####oooo+@+O+O",
".......$...o#oo#o...o#..o#####o  oo####oo@o+@@O+",
".......$..o#o..o#o..o#..o######     oooo#ooo+o+@",
".......$.o#o....o#o.o#..o#o####          ooooooo",
".......$.#o......o#.o#..o#oo###             oooo",
".......$............o#..o# oo#                  ",
".......$ooooooooooooo#..o#                      ",
".......###############..o#                      ",
"........................o#                      ",
"........................o#                      ",
"ooooooooooooooooooooooooo#                      ",
"##########################                      ",
".........................#                      ",
".........................#                      ",
".........................#                      ",
".........................#                      ",
".........................#                      ",
".........................#                      ",
"oooooooooooooooooooo$....#                      ",
"###################.$....#                      ",
"#%%&&&&****==----;:.$....#                      ",
"%%%%&&****===----;>.$....#                      ",
"%%%&&&*****===---::.$....#                      ",
"%%%%&&****==----::>.$....#                      ",
"#%%&&&*****==----::.$....#                      "};
