/* XPM */
static char * CrashCartoon_xpm[] = {
"48 48 16 2",
"  	c None",
". 	c grey39",
"X 	c grey51",
"o 	c grey4",
"O 	c grey13",
"+ 	c grey7",
"@ 	c grey64",
"# 	c ForestGreen",
"$ 	c green1",
"% 	c LimeGreen",
"& 	c yellow3",
"* 	c yellow1",
"= 	c grey76",
"- 	c yellow4",
"; 	c grey26",
": 	c blue4",
"                                                    .                                       X X ",
"                          X X                     X o X                                   . o . ",
"                          . O                     . o .                               X O o O   ",
"                          . o .                   o o o                             . o o o X   ",
"                          . o o             X   . o + o .                       X o o o o .     ",
"                  @ @     . o o .         @ . @ O + o + O                     O o o o o o X     ",
"                  X X     . + o o X       X . . + + + + + X               X o o o o o o O       ",
"                  X . X   . o + o O       . . O o + + + o .             O o o o o o o o         ",
"                  X . .   . + o + o X   X . . o + + + + + o         X o + o + o + o o .         ",
"                  X . . X . o + + + o   . . O + + O + O + + .     O o + o + o + o o o           ",
"                  X . . . . + + + + + . . . O + O + O + O + O X o + + + + o + o + o .           ",
"          @ @     X . . . . o + + O + o . . o O # $ $ % # O o + + O + + + + o + o O             ",
"      @ & & & * = X . . . O + + O + O + O O O O & & & & - O O + O + O + + + + o o X       = =   ",
"    = & & & & & & X . X * * * * & & ; O o o O O & & & & - O O O O ; ; O + + # & & @   - * & &   ",
"  @ % $ % & - $ $ @ . . & % & % & $ $ ; O O O # $ % & % & O O % & $ $ % O + # $ $ %   - & % &   ",
"  @ $ $ $ O O $ $ - . . % & % & % $ $ % O : O % $ % & & % : % & % $ $ $ % + # % $ &   X % & %   ",
"  % % $ # o o $ % % . ; % % # o ; $ $ % O O O $ $ # # % % ; % $ % % $ $ $ # ; % $ %   . % % % @ ",
"  % % % # o o % % # o O % % # o ; % $ % : : # % % O # % % ; $ $ % o # % ; o ; % $ $ @ X % % % @ ",
"O % % % O o o o o o + O % % # # % % % # : : # % # o ; % # # % $ $ # o o o o . % % % $ $ % % % @ ",
"  % % % ; + o o o o + O % % $ $ % % # o : : % # # # # # # ; % % $ $ % ; o . . % % % % % % % % - ",
"  # # # # o + o % % # O % % % % % % ; o : ; # # # % # # # ; # % % % % $ #   X # % % # % % % % # ",
"@ ; # # # o o + # # # O % # # ; % # # + : # # # ; ; # # # ; o ; # % % % % @ X # # # O o # # # # ",
"X O # # # - O O ; # ; O # # ; o # # # O : # ; ; o o O ; ; ; o o o ; # # # # X # # # O o ; # # # ",
"X O ; ; ; # $ % ; ; O O # # ; o ; # # : ; ; ; O o o ; ; ; ; O # % o ; # # # @ # # ; . O ; ; # # ",
"X O o O ; ; ; ; ; ; o O # ; ; o O ; ; # # ; O o o o o O ; # % # # o ; ; # #   ; ; ; X @ ; ; ; ; ",
"@ X o o o ; ; ; O o O O ; ; ; O O ; ; # + o o o : : o o o + O ; ; $ # ; ; ;   ; ; ; #   . ; ; ; ",
"    O o o o o o o o . O ; ; ; O o O O # O o o + : : o o o + + O ; ; ; ; O O   ; ; ; -   . O o O ",
"  @ @ O o o o o o O O o o o O O o o o o + o o : : : O + o o o o O ; O o o .   O o o .   X o o o ",
"  @     X O O O . @ o o o o o O + o o o O : : : : : : : : O + o o o o o o o   O o o X   @ o o o ",
"            @ @ @ . o + o o o O + o o o O : O : : : : : O : O o o o o o o o X O o o .     . . X ",
"  @         @ @ @ . + + + o + O O o o O O O : O : O + + O O O + o o o o O + .                   ",
"            @ @ @ o o + + + + O + . . + O O O O O O o . O + + O O O + O + + o                   ",
"            @ @ X o + + + + O + O X . + O O O O O + O . . . O o O + O + O + + .                 ",
"          @ @ @ . + o + o + o O @ X X o O O O O O + . . . . . . O o + + + + o O                 ",
"          @ @ @ O o + o + + + X @ @ X O O O O O O o . . . . . . . . O o + + + o                 ",
"          @ @ @ o + o + o o X @ @ @ X . o O + O + O . . . . . . . . . X O o o o .               ",
"        @ @ @ X o o + o + . @ @ @ @ X X + + O + + . X . . . . . . . . X   X O o o               ",
"        @ @ @ . o o o o O     @ @ @ X X o + + + o     @ X . . . . . . X       X O               ",
"        @ @ @ o o o + o       @ @ @ @ X . o + o O         @ X . . . . .                         ",
"        @ @ @ o o o o X       @ @ @ X X . + o + .             @ X . . . X                       ",
"      @ @ @ . o o o .         @ @ @ @ X X o + o                   @ X . .                       ",
"      @ @ @ . o o O             @ @ X X X o o O                       @ X                       ",
"      @ @ @ o o O               @ @ X X @ . o .                                                 ",
"      @ @ X o o X               @ @ X X @ X o                                                   ",
"    @ @ @ . o X                   @ X X     O                                                   ",
"    @ @ @ O O                     X X @                                                         ",
"    @ @ @ .                       @ X @                                                         ",
"  @ @ @ @                         @ X                                                           "};
