/* XPM */
static char * domino_xpm[] = {
"32 32 16 1",
" 	s None	c None",
".	c grey4",
"X	c yellow3",
"o	c DarkOrange1",
"O	c red1",
"+	c yellow4",
"@	c orange3",
"#	c grey51",
"$	c grey39",
"%	c white",
"&	c grey89",
"*	c grey76",
"=	c blue3",
"-	c blue1",
";	c cyan3",
":	c blue4",
"                                ",
"                                ",
"                                ",
"                                ",
"                                ",
"                ...             ",
"               .XXX..           ",
"              .XXXXXX..         ",
"             .XXXXXXXXX..       ",
"            .XXXXXXXXoOXX..     ",
"           .XXoOXXXXooOO+X@.#$  ",
"          .XXooOO+XXXOOXX@@.### ",
"         .%XXXOOXXXXXXXX@@@.### ",
"        .@@%%XXXXXXXXXX@@@.###$ ",
"       .XXX@@%%XXXXXXX@@@.###$  ",
"      .XXXXXX@@%%XXXX@@@.###$   ",
"     .XXXXXXXXX@@%%X@@@.#$##    ",
"    .XXXX&XXXXXXX@@@@@.####     ",
"   .XXXX*=-*XXXXXX@@@.###$      ",
"  .XXXXX-;:-+XXXX@@@.###$       ",
" .XXXXXX*--*XXXX@@@.###$        ",
" .%XXXXXXXXXXXX@@@.###$         ",
" .@%%XXXXXXXXX@@@.###$          ",
" .@@@%%XXXXXX@@@.###$           ",
" .@@@@@%%XXX@@@.###$            ",
" ..@@@@@@%%@@@.$###             ",
"   ..@@@@@@@@.####              ",
"     ..@@@@@.####               ",
"       ..@@.##$#                ",
"         ..$###                 ",
"                                ",
"                                "};
