/* XPM */
static char * door_run_xpm[] = {
"32 32 5 1",
" 	c cyan3",
".	c grey4",
"X	c white",
"o	c goldenrod1",
"O	c firebrick3",
"                                ",
" .............                  ",
" ..XXXXXXXXXX.                  ",
" .o.oXoXoXoXo.                  ",
" .Oo.XoXoXoXo.   ...            ",
" .oOo.XoXoXoX.   ....           ",
" .OoOo.XoXoXo.  .....           ",
" .oOoOo.XoXoX.  .....           ",
" .OoOoO.oXoXo.   ...            ",
" .oOoOo.XoXoX....   .....       ",
" .OoOoO.oXoXo.............      ",
" .oOoOo.XoXoX.   .....  ..      ",
" .OoOoO.oXoXo.     ...  ..      ",
" .oOo.o.XoXoX.     ...   ..     ",
" .OoO.O.oXoXo.     ...   ..     ",
" .oOoOo.XoXoX.     ...          ",
" .OoOoO.XoXXo.    ....          ",
" .oOoOo.ooooo.   ......   ..    ",
" ..oOoO.......   ..  ... ....   ",
"   .oOo.oXoXoX   ..   ..... .   ",
"    .oO.XoXoXoX ..     ...      ",
"     .o.oXoXoXoX..              ",
"      ..XoXoXoXo..              ",
"        oXoXoXo...o             ",
"         oXoXoXoXoXoXo          ",
"          oXoXoXoXoXoXo         ",
"           oXoXoXoXoXoXoXo      ",
"            oXoXoXoXoXoXoXo     ",
"             oXoXoXoXoXoXoXo    ",
"              oXoXoXoXoXoXoXo   ",
"             oXoXoXoXoXoXoXoXo  ",
"                                "};
