/* XPM */
static char * explorer_xpm[] = {
"32 32 32 1",
" 	c None",
".	c #9F9F9F",
"+	c #E0E0D0",
"@	c #C0C0C0",
"#	c #808080",
"$	c #000000",
"%	c #FFFFFF",
"&	c #EFEFEF",
"*	c #606060",
"=	c #FFFFF0",
"-	c #003030",
";	c #009F9F",
">	c #008080",
",	c #006060",
"'	c #30CFCF",
")	c #30309F",
"!	c #9FCFFF",
"~	c #CFCFFF",
"{	c #00309F",
"]	c #E0E0E0",
"^	c #9F9FCF",
"/	c #CF9FFF",
"(	c #1F1F1F",
"_	c #CFCFCF",
":	c #5F5F5F",
"<	c #505050",
"[	c #202020",
"}	c #AFAF90",
"|	c #909090",
"1	c #30FF60",
"2	c #008000",
"3	c #B0B0B0",
"         ....................   ",
"        .+@@@@@@@@@@@@@@@@@@#$  ",
"       .%%%%%%%%%%&&&&&&&&@#*$  ",
"      .%&&++&++&++&++&++&+#**$  ",
"      .=+---------------+@#**$  ",
"      .%+-;;;;>;>>,>,,,,&@#**$  ",
"      .%+-;';)))))))))>,+@#**$  ",
"      .%+-;;;)!~~~~~~{>,+@#**$  ",
"      .%]-;)))))))){~{>,+@#**$  ",
"      .=&-;)^^^^^^^{/(>,+@#**$  ",
"      .%+-;)+%%%%++(~(>,+@#**$  ",
"      .%+-;)+%%%++_(((>,+@#**$  ",
"      .%]-;)+++++__(>>,,+@#**$  ",
"      .=&-;))))(((((>,>,+@#**$  ",
"      .=+->>>>>>>>>>,>,,+@#**$  ",
"      .=+---------------+@#**$  ",
"      .=&]+]]]]]]]]]]]]]]@#**$  ",
"      .+@@@@@@@@@@@@@@@@@@#**$* ",
"      .*:<<<<<:<<<<<<<<<<<<<$*.[",
"       $$$$$$$$$$$$$$$$$$$$$*.*(",
"     .**********************.**(",
"     .&+++++++____}}}}||..##***(",
"     .+12++__@@@}}}}[[(([###***(",
"     .++__@@}}}}}}.......###***(",
"    ########################***(",
"   .3++++&+++++&+++++&++++&.**( ",
"   .&@$+@$+@$+}$+.$+.$+.$+.**(  ",
"  .&@$&@$+@$&}$+}$&.$+.$&@**(   ",
" .+@$@@$@@$@@$@@$@.$@.$.+.*(    ",
".&+++++++++++++____@@@}}.*(     ",
"........................*(      ",
".***********************(       "};
