/* XPM */
static char * BlueFeltDrawLetterD_xpm[] = {
"48 48 17 2",
"  	c grey26",
". 	c grey4",
"X 	c white",
"o 	c grey13",
"O 	c blue3",
"+ 	c blue1",
"@ 	c grey76",
"# 	c cyan3",
"$ 	c magenta3",
"% 	c ForestGreen",
"& 	c grey89",
"* 	c grey64",
"= 	c magenta4",
"- 	c turquoise4",
"; 	c LimeGreen",
": 	c grey39",
"> 	c cyan1",
"                                                                                                ",
"  . . . . . . . . . . . . . . . . . . . . . . . . . . . . . . . . . . . . . . . . . . . . . . X ",
"  . o o o o O + + @ # $ + + O O o o . . . . . . o   % . X X X X X X X X X X X X X & @ @ @ * # X ",
"  . o o o o O + $ & & $ + + O O o o o . . . . . o %   . X X X X X X X X X X X X X X & @ @ @ * X ",
"  . o o o o O + @ & # $ + + O O o o . . . . . .   % % . X & # @ # @ & X X X X X X X X o = @ @ X ",
"  . o o o o O + @ & & $ + + + O o o o . . . . .   % % . X @ o . . . . o o * X X X X X . o @ @ X ",
"  . o o o o O + @ & & $ + + + O o o o . . . . .   % % . X X & .   X X X & o   X X X X . o & @ X ",
"  . o o o o O + @ & & $ + + + O o o o . . . . .   % % . X X X .   X X X X X .   X X X .   & @ X ",
"  . o o   o O + @ & & $ + + + O o o o . . . . .   % % . X X X .   X X X X X - . * X X o = & @ X ",
"  . o o o o O + @ & & @ + + + O O o o . . . . .   % % . X X X .   X X X X X @ .   X X o = X & X ",
"  . o o   o O + # & & @ + + + O o o o . . . . . % % % . X X X .   X X X X X # . o X X   = X # X ",
"  . o   o o O + @ & & @ + + + O O o o . . . . o   % % . X X X .   X X X X X @ .   X X   = X & X ",
"  . o o   o O + & & & @ + + + O O o o . . . . o % % % . X X X .   X X X X X - . * X X = # X X X ",
"  . o o o o O + & X & @ + + + O O o o . . . . o % % % . X X X .   X X X X X .   X X X X X X X X ",
"  .   o   o O + & & X @ + + + O O o o . . . . o % % ; . X X & .   X X X & o   X X X X o : X X X ",
"  . o   o o O + & X X @ + + + O O o o . . . . o % ; % . X @ o . . . . o o * X X X X & . o X X X ",
"  .       o O + X X X @ + + + O O o o o . . o o % ; ; . X & # @ # @ & X X X X X X X X & X X X X ",
"  . o   o o O O O O O O O O O o o o o o . . o   % ; ; . X X X X X X X X X X X X X X X X X X X X ",
"  .         o o o o o o o o o o o o o o . . o   % ; ; . X X X X X X X X X X X X X X X X X X X X ",
"  . o       O + + @ & @ $ + + O O o o . . .     % ; ; . . . . . . . . . . . . . . . . . . . . X ",
"  .         O + + @ X @ @ + + + O o o . . o   % ; ; ; ; ; ; %   o . . . . . . . . .   o . . . X ",
"  . o       O + + @ & @ @ + + O O o o . . o   % ; ; ; ; ; ; % %   o o o o o o o o : o . . o . X ",
"  .         o o o O :     O o o o o . . o o   % ; ; ; ; ; ; ; % %     o   o   o : o . .   o   X ",
"  . o         . o o o o o o o o o o o o . o   % ; ; ; ; % ; % % %             * O . .         X ",
"  .             o O + @ + + O O o . . . o     % ; ; ; % ; ; ; % % % % % % % @ O . . % % % % % X ",
"  . o           o O + & $ + O O o . . o o   % ; ; ; % ; % ; % % % % % % % @ O o . % % % % % % X ",
"  .             o O + & + + O O o . o o   % ; ; ; ; ; ; ; ; ; % ; % % % & + o . % % % % ; ; ; X ",
"  . o         % o O + & $ + + O o . . o   % ; ; % ; % ; ; ; # # # # # X $ O . # @ # # # # ; ; X ",
"  .         % % o O + & @ + + O o o o o   % ; ; ; ; ; ; ; # # # # @ X $ O . @ @ # @ # # # # ; X ",
"  . o         % o O + & $ + + O o . . o   % ; ; % ; % ; # # @ # @ X $ O . @ @ @ @ @ @ @ # # # X ",
"  .         % % o O + X @ + + O o o o o   % ; % ; ; ; ; ; # # @ X $ O . @ @ @ @ @ @ @ @ # # # X ",
"  . o         % % . o . o . o . o o . o   % ; ; % ; ; ; # # @ X $ O . @ @ @ # @ @ @ @ @ @ @ # X ",
"  .             % + + o o o o o o . o o % % ; ; ; ; ; # # @ X $ O . @ # @ # # # @ # @ @ @ @ # X ",
"  . o   o o . . . + + + + + + + o . o o   % ; ; % ; ; # # X $ O . @ @ # # # # # # # @ @ @ @ @ X ",
"  . o . . o : = * + + + + + + + o . . o % % ; ; ; ; ; # X $ O . @ # > # # X . # # # > # @ @ # X ",
"  . o % & X X X X + + + + + + + O $ = o . o % ; % ; # X $ O . @ @ # # # X X O . & # # @ @ @ @ X ",
"  . X X X X X X X + + + + + + + + $ + X * . . o % ; X $ O . @ @ @ # > X X + o O . & # # @ @ @ X ",
"  . X X X X X X X + + + + + + + $ + $ X X X = . .   $ O . @ @ @ # # X X + + + o O . # # # @ @ X ",
"  . X X X X X X X + + + + + + $ + $ @ X X X X X o .   . # @ @ @ # # X + + + + + o O . # @ @ # X ",
"  . X X X X X X X + + + $ $ $ + @ X X X X X X X X : . % @ @ @ @ @ # X + + + + + O o .   @ @ @ X ",
"  . X X X X X X X X X $ + $ @ X X X X X X X X X X X % . % @ # @ @ # X X + + + O O .     % @ # X ",
"  . & X X X X X X X X X X X X X X X X X X X X X X X X : . % @ @ @ @ # X X + O o .     % # # @ X ",
"  . @ & X X X X X X X X X X X X X X X X X X X X X X X X o . # @ @ # > # X X O .     % # % # # X ",
"  . * @ & & X X X X X X X X X X X X X X X X X X X X X X X . o # @ @ @ @ @ X .     % # % @ # # X ",
"  . # * @ @ # & X X X X X X X X X X X X X X X X X X X X X = . % # @ # @ @ @ @   % # # # # # ; X ",
"  . % * * @ @ & & X & X X X X X X X X X X X X X X X X X X X . o # # @ @ @ @ @ @ # # @ ; ; ; % X ",
"  . % # * * @ @ @ @ @ # # & X X X X X X X X X X X X X X X X * . % # ; # # # # # ; # ; ; ; % ; X ",
"X X X X X X X X X X X X X X X X X X X X X X X X X X X X X X X X X X X X X X X X X X X X X X X X "};
