/* XPM */
static char * ftp_xpm[] = {
"32 32 27 1",
" 	c None",
".	c #9F9F00",
"+	c #0F0F0F",
"@	c #FFFFFF",
"#	c #FFFF9F",
"$	c #FFFFF0",
"%	c #CFCF60",
"&	c #000000",
"*	c #FFCF9F",
"=	c #309F00",
"-	c #3060FF",
";	c #CFFFCF",
">	c #30CF30",
",	c #306000",
"'	c #009FFF",
")	c #30CFFF",
"!	c #006000",
"~	c #CFFFFF",
"{	c #30FFFF",
"]	c #003000",
"^	c #30FF60",
"/	c #0000FF",
"(	c #CF9FFF",
"_	c #909090",
":	c #808000",
"<	c #D0D0D0",
"[	c #60609F",
"    .........+                  ",
"   .@@@@@@@@@.+                 ",
"  .@##########.+                ",
" .$############.+               ",
".%%%%%%%%%%%%%%%..............  ",
".@@@@@@@@@@@@@@@@@@@@@@@@@@@@@& ",
".@###################*##*###*#.+",
".@#############*#*#*###*###*#*.&",
".@###########====-*###*##**###.&",
".@#########==@;>=,--*###*####*.&",
".@########=@;>,,,'--&####*#*#*.&",
".@#######=@;>,')')---&*#*###*#.&",
".@#######,,>,-)))'--!&**##**#*.&",
".@######-~',-'))'--!>!&#*###*#.&",
".@######-~{))))''-!;=!&##**##*.&",
".@######-=='))))'!;>=!&#*##**#.&",
".@####*#=@>!'))'!;>==!&*#***#*.&",
".@######=;;>!!''!>===]&#*##***.&",
".@######*=;^>=&''!==!&**#**#*#.&",
".@#*#*##*=^^>=&'--!!]&*#*#****.&",
".@#######*===&----//&*#*****#*.&",
".@##*#*##**&&/////&&****#*#***.&",
".@*#####*##**&&&&&*#***#***#**.&",
".@###*#*##*##**#*#**##***#****.&",
".@*#*#*##*#*###*#*##**#*#***#*.&",
"...............................&",
" &&&&&&&&&&&&&&&&&&&&&&&&&&&&&& ",
"              &(&               ",
" _ _________::::::&__________ _ ",
" < <<<<<<<<<:#@#%:&<<<<<<<<<< < ",
" [ [[[[[[[[[:#@#%:&[[[[[[[[[[ [ ",
"            &&&&&&&             "};
