/* XPM */
static char * kdevelop_xpm[] = {
"32 32 13 1",
" 	c None",
".	c #808000",
"+	c #600000",
"@	c #000000",
"#	c #008000",
"$	c #FFFFFF",
"%	c #FF3000",
"&	c #0060FF",
"*	c #60FF00",
"=	c #FFCF00",
"-	c #CFCFFF",
";	c #309FFF",
">	c #C0C0C0",
"                                ",
"                                ",
"                                ",
"                                ",
"                                ",
"                                ",
"      .......     +++++++@@     ",
"     #@$$$$$$@   +%%%%%%+@&@    ",
"    #*@$=====-@ +%%%%%%%+@;&@   ",
"   #**@$======-+%%%%%%%%+@;;&@  ",
"  #***@$=====-+%%%%%%%%%+@;;;&@ ",
" #****@$====-+%%%%%%%%%%+@&;;;&@",
"#****#@$===-+%%%%%%%%%%%+@ &;;;@",
"#***#@ .$=-+%%%%%%%%%%%+@   &;#@",
"#**#@   .$+%%%%%%%%%%%+@     ##@",
"#*#@     +%%%%%%%%%%%+@     #*#@",
"##@     +%%%%%%%%%%%+@>@   #**#@",
"#@&@   +%%%%%%%%%%%+@.=>@ #***#@",
"&;;&@ +%%%%%%%%%%%+@.===>@****#@",
"&;;;&@+%%%%%%%%%%+@.====>@***#@ ",
" &;;;&+%%%%%%%%%+@.=====>@**#@  ",
"  &;;;+%%%%%%%%+@-======>@*#@   ",
"   &;;+%%%%%%%+@ .$=====>@#@    ",
"    &;+%%%%%%+@   .>>>>>>@@     ",
"     &@@@@@@@@     @@@@@@@      ",
"                                ",
"                                ",
"                                ",
"                                ",
"                                ",
"                                ",
"                                "};
