/* XPM */
static char * kiconedit_xpm[] = {
"32 32 18 1",
" 	c None",
".	c #6F6F6F",
"+	c #909090",
"@	c #FFFF4F",
"#	c #CFCFCF",
"$	c #900030",
"%	c #808080",
"&	c #FFAF00",
"*	c #4FBFFF",
"=	c #DFDF00",
"-	c #0000FF",
";	c #C0C0C0",
">	c #FFFFFF",
",	c #FFFF00",
"'	c #FF0000",
")	c #000000",
"!	c #00BFBF",
"~	c #808000",
"      .+@#                      ",
"$$$$$% .+@#          &&&&&%     ",
"$$$$$%  .+@#         &&&&&%     ",
"$$$$$%   .+@#        &&&&&%     ",
"$$$$$%    .+@#       &&&&&%     ",
"$$$$$%     .+@#      &&&&&%     ",
"%%%%%%      .+@#     %%%%%%     ",
"             .+@#               ",
"*****% =====% .+@#              ",
"*****% =====%  .+@#             ",
"*****% =====%   .+@#            ",
"*****% =====%    .+@#           ",
"*****% =====%     .+@#          ",
"%%%%%% %%%%%% %%%-%%%%%--%-%%   ",
"              %+;-->,,>--;-+%   ",
"'''''%        %+;-->,,>--;-+%   ",
"'''''%        %+;;->;;>>-;;-%   ",
"'''''%        %+;;->;)>>>;;--   ",
"'''''%        %+;;->,,)>>;;+-   ",
"'''''%        %+;;->,,>)>;;+-   ",
"%%%%%%        %+;;->,,>>);;+%   ",
"              %+;;->,,>>>);+%   ",
"!!!!!%        %+;;>>,,>>>;)+%   ",
"!!!!!%        %+;;>>,,>>>;;)%   ",
"!!!!!%        %+;;>>,,>>>;;+)   ",
"!!!!!%        %+;;->,,>>>;;+%)  ",
"!!!!!%        %+;;->,,>>>;;+% ) ",
"%%%%%%        %+;;->,,>>>;;+%   ",
"              %+;-->,,>>>;;+%   ",
"              %+-->>,,>>>;;+%   ",
"       ------------>,,>>>;;+%   ",
"  -----------------%%%%%%%%~%   "};
