/* XPM */
static char * minesweeper_xpm[] = {
"32 32 5 1",
" 	c None",
".	c #C0C0C0",
"+	c #808080",
"@	c #FFFFFF",
"#	c #000000",
"              .++               ",
"             .@.+#              ",
"             .@.+#              ",
"             .@.+#              ",
"     ..     ..@.+.#     ##      ",
"    .@@.  ..@.@..+.##  #@+#     ",
"   ...@@...@.@.@..+.+##@++##    ",
"   ++..@@@@.@.@....+.++#+###    ",
"    ++..@@.@.@....+.+++####     ",
"     +.@@.@......+.+.+#+##      ",
"     +@@.@......+.+.+++#+#      ",
"    +.@.@......+.+.+.+#+###     ",
"    +@.@....+++.+.+.+++#+##     ",
"    +.@....++@@+#+.+++#+####    ",
" +++@@+.+.++@..+##+++#+#+###### ",
"+@@@.+.+.+.+@..+###+#+#+########",
"+...+.+.+.+#++++####+#+#####+++#",
"#+++.+.+.+.+#########+##########",
" ###+++++++++#######+########## ",
"   ##+++++++#+#####+########    ",
"   ###+#+#+#+#+#+#+########     ",
"    ###+#+#+#+#+#+#########     ",
"    ####+#+#+#+#+#########      ",
"     ####+################      ",
"    #+#####################     ",
"   #+.+#####################    ",
"   #.+##################+###    ",
"    #### ############  ##+#     ",
"     ##    ########     ##      ",
"              ##+##             ",
"              #++##             ",
"               ###              "};
