/* XPM */
static char * mpeg_xpm[] = {
"32 32 9 1",
" 	c None",
".	c #808080",
"+	c #FFFFFF",
"@	c #000000",
"#	c #C0C0C0",
"$	c #008080",
"%	c #00FFFF",
"&	c #FFFF00",
"*	c #FF0000",
"                                ",
"                                ",
"         ...............        ",
"         .+++++++++++++.@       ",
"         .+++++++++++++..@      ",
"         .+++++++++++++.+.@     ",
"         .+++++++++++++.++.@    ",
"         .+++++++++++++.@@@@@   ",
"         .+++++++++++++++++#@   ",
"         .+++++++++++++++++#@   ",
"         .+++++++++++++++++#@   ",
"         .+++++++++++++++++#@   ",
"  $      .+++++++++++++++++#@   ",
"  $$ $$$$$$$$$+++++++++.+++#@   ",
"  $+@%%%%$@%%$@+..+++#..+++#@   ",
"  $@@$$$$$@%%$@$%@+#.+&.+#+#@   ",
"  @ @@@@@@%%%$@%#@..+&#.##+#@   ",
"    $%%%%%%%%$@@$@..&.&.##+#@   ",
"    $*%%%%@%@$@#@@##..#.##+#@   ",
"    $$$$$$$$$$@#######..##+#@   ",
"    @@@@@@@@@@@##+##+##.##+#@   ",
"      ###.#######++++++###+#@   ",
"      ###.#######++++++++#+#@   ",
"         .+++++++++++++++++#@   ",
"         .+++++++++++++++++#@   ",
"         .+++++++++++++++++#@   ",
"         .+++++++++++++++++#@   ",
"         .+++++++++++++++++#@   ",
"         .##################@   ",
"         @@@@@@@@@@@@@@@@@@@@   ",
"                                ",
"                                "};
