/* XPM */
static char * Netsurfer_xpm[] = {
"48 48 23 1",
" 	c None",
".	c grey76",
"X	c white",
"o	c turquoise4",
"O	c blue4",
"+	c cyan3",
"@	c grey39",
"#	c grey26",
"$	c blue3",
"%	c grey13",
"&	c blue1",
"*	c grey7",
"=	c magenta4",
"-	c grey64",
";	c brown4",
":	c firebrick3",
">	c grey89",
",	c DarkOrange1",
"<	c orange3",
"1	c red1",
"2	c grey4",
"3	c goldenrod1",
"4	c yellow3",
"                                                ",
"                  . . ....... .                 ",
"                 .....Xo.o...... .              ",
"            . ..o.ooooXoOoOoooo.o.. .           ",
"             ..o.ooOoOXoOOOOoOoo.+..            ",
"          ....ooOO@O#OX.#O#O#O@OOoo.. .         ",
"         .X..ooOO#O#$#XXO#$#$#OOOOoo..          ",
"        ..ooOO#O####%#XX@#%#%##$#O@oOoo..       ",
"       .X.&OoOO#$##%#%XXX%#%#%##$#OOoo..        ",
"      ..ooOO#O##%#%%%%XXX#*%%%%#%##$#OOo. .     ",
"       .&OO$O#$%%%%%%*XXX=%*%%%%#%$#O#oo..      ",
"    ...&OO#$%#%%*%*%**.XX.*%*%##*%%##$#OO.. .   ",
"     ..ooOO#$%%%%*%*%*.XXX%*.XXX.%%%$#OO&o..    ",
"    ..oo@O##%%*%*%****oXXX=OXXXXX=*%%##OOoo..   ",
"    .o&OO#$%%%%*%*%***.XXXXoXXXXX-%%%%$#OO&.    ",
"    ooOO##%%=o********oXXXXXXXXXX.*%%%%$#OO..   ",
"   ..oo#O###XX.*%*%*%%XXXXXXXXXXX#%*%%##OOoo..  ",
"  ..oo@O##%XXXX.%****oXXXXXX=XXX@**%*%%##OOooX. ",
"   .oOO#$%.XXXXXX%%*#XXXXXXX$*#***%*%%#%$#Oo..  ",
"  ..%%%$%OXXXXXXXX#*oXXXXXXXo********%%#%$@oo.. ",
"   ;#%#%$XXXXXXXXXXoXXXXXXXXX%%*%*%*%%%%$#OO..  ",
"  ;;;;%%-XX=*%.XXXXXXXXXXXXXXO*******%%%%$#Oo.. ",
" ;:;;;;;X-#*%*%>XXXXXXXXXXXXX.%***%*%*%%##OO&.  ",
"-:::;;;.;;%;%**%.XXXXXXX@%.XXX*******%%%%##oo.. ",
" ,.::::;:;;;#%%*%XXXXXXXO*#XXXo*%*%*%%%%$#OO..  ",
"  <.;:;:;:;;;;%%*%.XXXXX.%*oXX.******%%%%$#oo.. ",
"   -,.1::;:;;;;;;%#>XXXXX@%*.XX%**%*%*%%$#OO..  ",
"  ..o<-1::;:;;;;2;%#-XXXXX**%XXo***%*%%#%$@oo.. ",
"   ..o@<.::::::;:;;%#.XXXX.*%#X.%*%*%%##O$Oo..  ",
"  ..oo@@@>::::;:;:;;;;-XXXX#**=X%**%*%%##OOooX. ",
"   ..ooOO;>:1::::;:;;;#.XXX.%*%.o*%%%%$#OOoo..  ",
"    .oOO##%,<:::::;:;;;;-XXX#**%X%*%%%%$#Oo..   ",
"     .&OO#$%<>,:1::::::;;>XXX%%*=#%%##$#Oo..    ",
"    ..ooOO##%#<,:1::::;:;:-XX-2%*O%%%$#OOoo..   ",
"     ..ooOO#$%#<>:1:1::::;:.XX;%%%#%$#OOoo..    ",
"    . ..OO#O##%#;><1::::::;:-X.;%%%##O@oo.. >   ",
"       ..ooOO#$%#%>,,:1:1::::>X;:;;#OOoo..      ",
"      ....OO@O##%#%<>,:1:1::::-X;;;;#oo.. .     ",
"         ..ooOO#$#$#@3,11:1:1::>:;:;#o..        ",
"        ....ooOO#$#$%#<><<:1::::-:;:;;. .       ",
"           ..ooOoOO#O#O@><,:,:1:1.::::>         ",
"          . ..ooooOO@O#O@34,<,:1:1::::;         ",
"             ....o&ooOoOoO<>,<,11:1:1:1         ",
"            . ....o.ooooooo-<><,:1:1:::>        ",
"                 .X.X.......X333>,,,,,.<        ",
"                  . . . . . . . >>>>>><>        ",
"                                                ",
"                                                "};
