/* XPM */
static char * NewspaperExtra_xpm[] = {
"48 48 19 1",
" 	c None",
".	c grey89",
"X	c white",
"o	c grey76",
"O	c grey4",
"+	c grey51",
"@	c grey64",
"#	c grey7",
"$	c grey39",
"%	c grey13",
"&	c grey26",
"*	c yellow4",
"=	c brown4",
"-	c orange3",
";	c blue4",
":	c blue3",
">	c goldenrod1",
",	c magenta4",
"<	c magenta3",
"                  ..XX.o                        ",
"                .XXXXXXXo                       ",
"               .XXXXXXXX.o                      ",
"              .XXXoOXXXXXXo                     ",
"            o.XXXXO+oXXXXXXo                    ",
"           o.XXX@Oo.#oXXXXXX+                   ",
"          o.XXX@Oo$O$X%O&oXXXo                  ",
"         oXXXXX#X@&oXXO*OOO+XX+                 ",
"        oXXXXXXX#O$XXXXO@&$O.X&@                ",
"       .XXX@+&X$%XoO$XXOXXXoX.OXo               ",
"      oXXX@oOO%O.$.&OXX$&XXX@O%.X@              ",
"     oXXX+OXOO$XoOOXO+XXOXXXO+Xo.X@             ",
"    oXXX&OO@OOX#X$O+%O+OXX+O$XoX@XX+            ",
"   oXXXXO$XO+X.OXX@O#X&+XXO+X+OXX+XX@           ",
" ooXXXX$OX%OX+OXXXX+OoXX$O+X+OX+.X+XX+          ",
"oXXXXXo#X@%X+#O&XXX.O@XoO+X+OXoOXXX+XX+         ",
"XXXXXX.$&OXo$.@O$XXXXX&OoX$OXoOXX+XX+XX+        ",
"XXXX&XX&%X&&XXX$O&XXX+O$XX.XXOXXOoXXX+XX+       ",
"XXXO%+O$XXOoXXXXO%XX&OXXooXXOXXO+XO$XX+XX+      ",
".X%@X#&XO#O&..XXoXX&O@XXX+.XXX#%XO&XXXX+XX$     ",
"XX$oO$X$X+$#O$#.XX%OXXO$XX+.XXXXO#XX+OXX+XX+    ",
"XXXO$X@&+XXOXOOXX%OoXO@XoXX+.XX%OXX+OXoX.+XX$   ",
"X+O$XO$X$$X&o.XXOOXXOoXOOXXX$XXXXX+OXoOXXXoXX+  ",
"X#$X.OO$X$@%%XX%OXXOoXO#X.+XX+XXX$OX$OXX.X.@XX$ ",
".XXXXXOOXX%+XXOOXXO.XO#XXO.XX@+XX.X#OXX$&XX.@X@+",
"&.XXXXXOOO.XXOOXXOXXO%X.OXXXoo@@XXXoXX+OXX+X.oXX",
"%&oXXXXXO+XXOOXXOXXO%X.OXXXo@oo@@XX.X+OXXO+XX+oX",
"=#&.XXXXXXXOOX.OXXO&X.OXXX@o..oo@@XXXO.XO&XX.oXX",
"-=%&.XXXXXO%XoOXXO&XoOXXX@@...ooo@@XXoX$OXXooXX$",
"o@$#&.XXXOOXoOXXO$XoOXX.@@.oo..o@o@@XXoOXXooXo;:",
"o.@=%%oX$#X@OXXO$XoOXX.oooX.o>>o@..+@XXXXooXX,;:",
"+o.@=O&X@.ooXXO$XoOXX.@.o>oo.>o>>*.X+oXXooX.,:<@",
"&+oo-=%%.XXoX$$X@OXX.oooo.+O+.Xo$O%X.+oooXo:;:XX",
"&&+oo-=O#XXX@XX+OXXooo.-o.XOO+.>&OO%X.+oXX,;:@XX",
"*&&+o.@&%%XXXoXOXXooX-o.--X.OO@X-*OO%oXX.,:<.XXo",
"@*&&+o.-=OOXXXoXX.oX+O&.>-oX>OO*%**OOXXX,;:XXX@:",
"oo*&&+o.@&O&XXXo.oo+*%O$.X+$X>OO%O*O@Xo,::@XXo:;",
"ooo*&&+o.o*O%XXXoo$O@@%O$.oOoo.OOOOoXo:;,XXXo,;:",
"$ooo*&&+o.-&O&XXX.$OO@+%O$X+O&o>OOoX.+::@XX@::@X",
"&+ooo*&&+o.@=%&XXXX%OO@@OO+oOOO-%+Xo:;<XXXo:;:XX",
"%O$o.o*&&+o.-&O&XXXX%OOo@OO$&OOOXX.,;:.XXo,;<.XX",
"*O%+o.o*&&+o.o=%$XXXX%OOo@OO-OO@Xo::<.XX@::@XXX@",
">-%#$o.o*&&+..-=O&XXXX#OOo+OO$oXX,;:XXXo:;:XXX@:",
"X>-O%+o.o*&&+o.@=%$XXX.OO#o&OoX.,:,@XX@::<.XX@::",
"@X.-%#$o.o*&&+..-=O&XXX>OOO$.XX:;:XXXo:;<XXX@,,<",
"$oX>=O%+o.o*&&+o.@&O+XXX>OOoX.,::@XXo,::.XX@:,@.",
"&$@X>-%#$o.o*&&+..@*O$XXX$.X.:;,XXX@;;@XXX@::@.X",
"&&$oX.-O%+o.o*&&+o.-&O+XXXXo,::.XX@,::XXX@,:<.Xo"};
