/* XPM */
static char * OpenSesame_xpm[] = {
"48 48 64 1",
" 	c None",
".	c #000000000000",
"X	c #186110400820",
"o	c #2081208128A2",
"O	c #000010400000",
"+	c #410341035965",
"@	c #618569A671C6",
"#	c #618551445965",
"$	c #596549244924",
"%	c #410349244924",
"&	c #861759655144",
"*	c #71C682078E38",
"=	c #69A669A671C6",
"-	c #861769A68E38",
";	c #9E79AAAA9658",
":	c #514441035965",
">	c #30C2186128A2",
",	c #000000001040",
"<	c #082000002081",
"1	c #208128A24924",
"2	c #0820208138E3",
"3	c #104000004103",
"4	c #30C230C25144",
"5	c #4924492469A6",
"6	c #8E3892489E79",
"7	c #96589248BEFB",
"8	c #B6DAAAAAAEBA",
"9	c #AEBAA289BEFB",
"0	c #BEFBBAEAC71B",
"q	c #410318615144",
"w	c #30C230C24103",
"e	c #C71BC30BC71B",
"r	c #9E79A289AEBA",
"t	c #000010401040",
"y	c #AEBAAAAAAEBA",
"u	c #208128A26185",
"i	c #618530C26185",
"p	c #28A251446185",
"a	c #000000006185",
"s	c #082010406185",
"d	c #FFFFE38D5965",
"f	c #30C238E38E38",
"g	c #9E798A284103",
"h	c #FFFFF3CE8E38",
"j	c #BEFBAAAA4103",
"k	c #FFFFC30B5965",
"l	c #8E3869A669A6",
"z	c #CF3CB6DA79E7",
"x	c #EFBECB2B8E38",
"c	c #E79DC30B5965",
"v	c #BEFB8A288E38",
"b	c #79E771C628A2",
"n	c #DF7D924838E3",
"m	c #C71B618530C2",
"M	c #F7DEAAAA30C2",
"N	c #EFBEFBEED75C",
"B	c #FFFFDB6C38E3",
"V	c #F7DEEBADB6DA",
"C	c #FFFFFBEE6185",
"Z	c #EFBEC30B28A2",
"A	c #FFFFFBEEDF7D",
"S	c #FFFFFBEEFFFF",
"D	c #104000006185",
"F	c #0000000079E7",
" ..........XX.Xo..OXX+@#$%%&*=$#%-*;;-@:X:%>.., ",
"<<<<<<<<<<<<121o23o4+5@@5@@@*6-6789006*=5@51<<..",
"<<<<<<<<<<<3oq11o4w11++55+14=*@-e86r*@5:1>t<<<..",
"<<<<3,3<<<<<<212111<<2414141++**6r96@#51<<<<<<..",
"<<<<<<<<<3<<<<<<,<<<<3,<<<1>14+@@7yy6@$52<<<<<..",
"<<<<<<<<<<<<<<<<3<<<<<<<<<<2u#5+-rrr7*@@+<3,3,..",
"<<<<<<<<<<<<<<<<<<<3<<<3<<<<oi55%-***5*--52,<<..",
"<<3<<<3<<<<<3<<<3<<<<<3,3<<<32wu415@@6976*=p<<..",
"<<,<<<<<<3<<,3<<,3<<<<<<<<<<<<1q14++@76-=6y-w<..",
"<<3,3,<<<<<<<<<<<<<<<<<<<<3,3,3o424@-9y*-r96r*..",
"<<3<<3<3<<3<<3<3<<3<<3<3<<3<<<3<<3<u6e0@*9rr89%.",
"<3<3<<3<3<3<3<3<<3<3<3<<3<<3<3<3<<3<5r*25@*8006.",
"<3<<3<3<<3<3<<3<3<3<3<3<3<3<3<3<3<3<3<3<3458e0=.",
"3<a<a<333<a<a<333<a<3<a<333<a<3<a<3<a<3<a2s600#.",
"<a<3<a<3<a<3<a<3<$<3<a<3<3<a<3<a<333<a<3<31-906.",
"3333333333333333wdwa3333a33333333333333333f69r%.",
"33<a33<a33333333ghj3333333333333333333<a33+rri..",
"33a333a3a3a3a3s&hhk&+1a3a3a3a3a3a3a3a3a<31@*fa..",
"333a333a<a3wlgggzxclgggl>a3a<a3a<a3a<33a3u5f33..",
"a3a<a3a3a2ljjzzjchkjgjlgvba3aaa<aaa3a3a3ass3a3..",
"3a3a3a<a3gjnnnmnckkcnnznjv%a<a3a3a<a2:gjcMkng&..",
"1bljczzczjgjnnjcckccxcnzjjl2aaa3aaa+xhhkc&1saa..",
"cd=++4+igxkcckdkdxdkkknMkkv:a3aa3abhNhB&saa33a..",
"cd4aaaasckkhhhdxVhVCdCkZxkzlaaa2:jhAhk#aa3aaa3..",
"&hcqa3a:cxdhChhASSShhhBMkkcg&gckdhAhBla3aa3a3a..",
"a%xhgua&ckhChChASSSVCBkBckxgzhhhhVdklaaaaaaaaa..",
"aa3lxkggkkChChhASSSVBkdkMkxgzVhhdkn4aaaaaaaaaa..",
"aaasa@zgkkCCChhNANNhCChCMxkggdcgiuaaaaaaaaaaaa..",
"aaaaaaagkkddhChhVhhCChhhkkng:Daaaaaaaaaaaaaaaa..",
"aaaaaaa$kMkChChCCChdChhCkknguaFaaaaaaaaaaaaaaa..",
"aaaaaaaDgkdhdChdCddCBdkkkkjuaaaaaaaaaaaaaaaaaa..",
"aaaaFaaaFvcdhCCdddhdBMkkxgfaFaFaFaFaFaaaFaaaaa..",
"aaaaaaaaaa+nckCkChBkMcnj:DaaaFaaaFaaaaaaaaaaaa..",
"FaFaFaFaFaFaizvjnjjgg&&fFaFaFaFaFaFaFaFaFaFaFa..",
"aaaFaFaFaFaFafzxxeexczuFaFaFaFaFaFaFaFaFaaaFaa..",
"FaFaFaFaFaFaFaFsffffFFFaFFFaFaFaFaFaFaFaFaFaFa..",
"aFaFaFaFaFaFaFaFaFaFaFaFaFaFaFaFaFaFaFaFaFaFaF..",
"FaFFFaFFFaFFFFFFFFFFFFFFFFFFFFFFFaFFFaFFFaFaFa..",
"aFaFaFaFaFaFaFaFaFaFaFaFaFaFaFaFaFaFaFaFaFaFaF..",
"FFFaFFFFFFFFFFFFFaFFFFFFFFFaFFFFFFFFFFFaFFFaFa..",
"aFaFaFaFaFaFaFaFFFaFFaaFFaaFFFaFaFaFaFaFaFaFaF..",
"FaFFFaFFFaFFFFFaFFFFFFFFFFFFFFFFFaFFFaFFFaFaFa..",
"aFaFaFaFaFaFaFaFaFaFaFaFaFaFaFaFaFaFaFaFaFaFaF..",
"FaFaFFFaFFFFFFFFFFFFFFFFFFFFFFFaFFFaFFFaFaFaFa..",
"aFaFaFaFaFaFaFaFaFaFaFaFaFaFaFaFaFaFaFaFaFaFaF..",
"FFFFFFFFFFFaFFFFFFFaFFFFFaFFFFFFFFFFFFFFFFFFFa..",
"aFaFaFaFaFaFaFFaaFFFaFFaaFFFaFaFaFaFaFaFaFaFaF..",
" .............................................. "};
