/* XPM */
static char * ordner_link_xpm[] = {
"32 32 19 1",
" 	s None	c None",
".	c grey4",
"X	c grey76",
"o	c grey39",
"O	c white",
"+	c grey89",
"@	c orange3",
"#	c grey64",
"$	c yellow4",
"%	c goldenrod1",
"&	c grey51",
"*	c yellow3",
"=	c yellow1",
"-	c ForestGreen",
";	c grey26",
":	c magenta4",
">	c green1",
",	c LimeGreen",
"<	c brown4",
"      ..   ...                  ",
"      .X.. .oo..                ",
"      .OO+..@@Xo..              ",
"      .O+OOO#o$@%$..  .....     ",
"..    .O+O++OOX&o*@@..@X@*o..   ",
".X..  .OO+O+O+OOO&o@@X%@X%X@X.  ",
" .O+...**OOO+O+O+OO#oo*@@X@XX.  ",
" .+O=O$&#**OOOO+OO+OO+&o%$@$@%. ",
" .+++++O@-&***OOO+O+O+O+&o$@@$. ",
"  .++++=O+=#&#***OOO+O+OOO&o$X. ",
"  .O++=++=++%Xo$+**OO+O+O+#o@X. ",
"  .%++%O+++=++%+$o#**OOO+O&o$.  ",
"  .=++%++=+%+%%+X=#-o**OOOoo$.  ",
"   .O+=++%+%+%+%++%+%;+*+*;:$.  ",
"   .++%+%+X=+X%+%XX%+$X***;o$.  ",
"   .+%+%+%+X%+%+%X%%%#X**O;o.   ",
"   .X%+%+%+%+%X%..........;o.   ",
"    .%+%X%X%+%X%.>>,>>,,.X;o.   ",
"    .%+%+%%%+%X%.>>>>>>.=&<.    ",
"    .X%+%X%+%%+%.>>>,>o.=&o.    ",
"     .%+%X%+%+%X.,>>>>>-.oo.    ",
"     .%+%X%+%X%+.>>,>,,,-..o    ",
"     .%X%X%+%+%X.,>-,>,,,o.o#  .",
"      ..@+%X%+%+.>..-,,,,--.&&..",
"        ..@+%X%+..%+.-,-,---..o.",
"          ..@+%X.+%+%.o,----o--.",
"            ..@X%+%X%X.-----o-o.",
"              ..@X%X+%X.--o-o-o.",
"                ..@X%+%#.o-o-o-.",
"                  ..$%X@.-o-o-o.",
"                    ..o.o--o-oo.",
"                      .........."};
