/* XPM */
static char * PadlockAndKeys_xpm[] = {
"48 48 13 1",
" 	c None",
".	c grey26",
"X	c grey4",
"o	c grey76",
"O	c grey39",
"+	c grey7",
"@	c grey13",
"#	c grey89",
"$	c yellow4",
"%	c grey64",
"&	c white",
"*	c turquoise4",
"=	c blue4",
"                                                ",
"                                                ",
"                                                ",
"             .XXo                               ",
"         OX.X+@@XXX                             ",
"       OX...++X++@.XX                           ",
"      OXoo@X@..@++@.@X                          ",
"     #XooX+@@@@+.O++@+                          ",
"     $.#X+@@@+@+@Oo@X@X                         ",
"    OX%OX..@  XXXXoOX@+                         ",
"    XXo+X@X     XX+.@+@XX                       ",
"    XOOX+@      XX@OXX@XXXX+                    ",
"    Xo.X++      XXXOXX@XXXXXOX$O                ",
"    X#+X+        XX.@X@XXXXXXXXXX               ",
"   XX&XX+        X@.$.+XX@@@@..@X@              ",
"   $X&XX         @@@.@.X@@@@...@@X              ",
"  X@X&XX         XX.X+$@X@XX+.@+@.+             ",
"  #oX#XX         .X.XX.O@+XX+@@@@@.@            ",
"  X@X@@X++XXXXXX@XX.+X@O.@X@.@@@@@@X            ",
"  oXX.@XXXXX$*.+XXX.XX.O@.@@@@@@@@@@X           ",
" oo***%*******=O.....@.$.X+@.@@@@@@@@@          ",
" o@..@.......@@@@@@@+@X$$.@@+.@@+@@@@@X         ",
" o*o*********O=O..=.=.=X$$$.+X+@++@@@@+         ",
" o@.@...@@@..@@@@@@@+@+XX.$$$$$$$OO+++@X        ",
" o*o**%%*****O=O......=..+XX    X$$O@@@@@       ",
" o@....@......@.@@@@@@+@+@+X     XX.$$@@@@      ",
" o%o*%*******O==...........X        XOO@@@X@    ",
" o@...@.....@@.@@@@@@@@@+++X         X$OO@+@X   ",
" o**%********O.............X           XOO.@@X  ",
" o.O..........@...@@.@+@+@@X            @$O...  ",
" o**********O=.............X              @@@@  ",
" oOOOOOOO.....@@.@@@@@@@@@@X                    ",
" o********OOO=.............X                    ",
" oO*OOOOOOO.=........@@@@@@X                    ",
" o*******OOOO...........@@.X                    ",
" oO***OOOO..=....@...@@@@@@X                    ",
" oo**********O...==.....==.@                    ",
" **OO=....=..@@@@@@@@@@@@@@@                    ",
" @......@@@@+++X++X+X+XXXXXX                    ",
" X*O=....@.@@+@@+@+@+@+@+@X+                    ",
" X@@@+++++++++XXXXXXXXXXXXXX                    ",
" ..@..........@..@.......@.@                    ",
" X.@@+@+@++XXX++XXX+XXX@@.+X                    ",
"                                                ",
"                                                ",
"                                                ",
"                                                ",
"                                                "};
