/* XPM */
static char * PDFOmni_xpm[] = {
"48 48 14 1",
" 	c None",
".	c cyan3",
"X	c turquoise4",
"o	c grey4",
"O	c white",
"+	c grey89",
"@	c grey51",
"#	c grey39",
"$	c grey26",
"%	c grey13",
"&	c grey64",
"*	c grey76",
"=	c firebrick3",
"-	c red1",
"                                                ",
"                                                ",
"  ..............XX..........oOOOOOOOOOOOOOOOOOO ",
"  ................XXX.......oOOOOOOOOOOOOOOOOOO ",
"  ................XXX.......oOOOOOOO+@#@+OOOOOO ",
"  ................XXX.......oOOOOO+$%@&@%$+OOOO ",
"  .........XX......XX**+++++oOOOOO%%+OOO+%%OOOO ",
"  .........XX......XX**+++++oOOOO#o@OOOOO@o#OOO ",
"  ...................+++++++oOOOO%oOOOOOOOo%OOO ",
"  .................**+++++++oOOO+o%OOOOOOO%o+OO ",
"  ............&==..**+++++++oOOO&o%OOOOOOO%o&OO ",
"  ...........&-.-X***+++++++oOOO&o%OOOOOOO%o&OO ",
"  ...........=-X@@&&*+++++++oOOOOo%OOOOOOO%oOOO ",
"  ...........=-X@=X&*+++++++oOOOO$o+OOOOO+o$OOO ",
"  ...........=-X==&&*+++++++oOOOO*o$OOOOO$o*OOO ",
"  ...........=-&==&&*+++++++oOOOOO@o@OOO@o@OOOO ",
"  ...........&-@-=&&&+++++++oOOOOOO+$%%%$+OOOOO ",
"  ............-=-=&&&*++++++oOOOOOOOOOOOOOOOOOO ",
"  ............=--@@@&*++++++oOOOOOOOOOOOOOOOOOO ",
"  ............&--X@@&+++++++oOOOOOOOOOOOOOOOOOO ",
"  .............--@#@*+++++++ooooooooooooooooooo ",
"  .............=--@@&+++++++**&@############### ",
"  .............----@&*+++++++*&@@@@@@@@@@@@@@@@ ",
"  ............@-@--=@*+++++++*&&&&&&&&&&&&&&&&@ ",
"  *...........=-X@--=@*+++++****&*************& ",
"  *...........--XX@--=&*+*&&==&**************** ",
"  ++++.......&-=&XX@---=--------***+**+++****** ",
"  ++++.......=-&&XX&=----@*&@=--=&**++++++++++* ",
"  ++++**....&--&&===@*@----=@@@@=@@**++++++**** ",
"  ++++***...=-&===X..&&X@=------=@@&*++++****** ",
"  ++++***..&--=@XXX&&X&&&&@@@=@&&&@@*++++****** ",
"  ++**.....=-@&@@X@XXXX&.&*&&@@@@@@&*++******** ",
"  ++**..&-&--*&X@@XX......+****&&&&**++******** ",
"  ++**.=-*=-=&@X@&&.......++*+***************** ",
"  ++**=-*&--@&@@&*.....ooooooooooooooooooooo*** ",
"  ++*=-&*--@&@@&.*.....ooooooooooooooooooooo&** ",
"  ++*-&*=-=&&@@**+***..oooOOOoooOOOoooOOOOoo@&* ",
"  ++=-*&--&&@@&**+***..oooOooOooOooOooOooooo#@& ",
"  ++==&--&&&@&*++++****oooOOOoooOooOooOOOooo#@& ",
"  ++&---@&&@@*+++++++++oooOoooooOooOooOooooo#@& ",
"  +++==&@&@@**+++++++++oooOoooooOOOoooOooooo#@& ",
"  ++++*&@@@&*++++++++++ooooooooooooooooooooo#@& ",
"  +++++*&&**+++++++++++ooooooooooooooooooooo#@& ",
"  +++++***++++++++++++++*&@@@@@#############@@& ",
"  ++++++++++++++++++++++*&&&&&&@@@@@@@@@@@@@@&* ",
"  +++++++++++++++++++++++**************&&&&&&&* ",
"  ++++*****+++++++++++++++++++++++++*********** ",
"                                                "};
