/* XPM */
static char * OldFashionedMicrophone_xpm[] = {
/* columns rows colors chars-per-pixel */
"44 52 198 3",
"   	c None",
".  	c #00008c",
"X  	c #000042",
"o  	c #000008",
"O  	c #000031",
"+  	c #00006b",
"@  	c #0000bd",
"#  	c #0000b5",
"$  	c #000010",
"%  	c #0000e7",
"&  	c #393939",
"*  	c Gray26",
"=  	c #101008",
"-  	c #0000de",
";  	c #000021",
":  	c #52524a",
">  	c Gray39",
",  	c Gray16",
"<  	c #000063",
"1  	c Gray13",
"2  	c #181818",
"3  	c #0000c6",
"4  	c #000084",
"5  	c #000052",
"6  	c Gray7",
"7  	c Gray76",
"8  	c #b2c0dc",
"9  	c Gray100",
"0  	c Gray89",
"q  	c Gray64",
"w  	c Gray51",
"e  	c #292921",
"r  	c Gray45",
"t  	c Gray58",
"y  	c #cecece",
"u  	c #848484",
"i  	c Gray71",
"p  	c Gray87",
"a  	c Gray55",
"s  	c #e7e7e7",
"d  	c Gray42",
"f  	c #5a5a5a",
"g  	c #313131",
"h  	c #0000ad",
"j  	c #8b008b",
"k  	c Gray61",
"l  	c Gray29",
"z  	c #7b7b7b",
"x  	c Gray3",
"c  	c #7f623d",
"v  	c #ad880c",
"b  	c #9c8408",
"n  	c #947b21",
"m  	c #847b52",
"M  	c Gray68",
"N  	c #a5a5a5",
"B  	c #8c6310",
"V  	c #e7ad08",
"C  	c #f7c610",
"Z  	c #e7c608",
"A  	c #d6b521",
"S  	c #e7ce21",
"D  	c #9c7b00",
"F  	c #94844a",
"G  	c #dedece",
"H  	c #00007b",
"J  	c #080800",
"K  	c #845a08",
"L  	c #dea508",
"P  	c #f7bd10",
"I  	c #efc608",
"U  	c #efce18",
"Y  	c #e7ce31",
"T  	c #dec608",
"R  	c #d6b518",
"E  	c #423100",
"W  	c #c68408",
"Q  	c #e7ad10",
"!  	c #efce08",
"~  	c #d6ad08",
"^  	c #c6a510",
"/  	c #5a3900",
"(  	c #efbd10",
")  	c #b59808",
"_  	c #ce9408",
"`  	c #292100",
"'  	c #9c947b",
"]  	c #946308",
"[  	c #bd9c08",
"{  	c #a77508",
"}  	c #ce8c08",
"|  	c #d69410",
" . 	c #ce9c42",
"...	c #bdb594",
"X..	c Gray74",
"o..	c #ad9c7b",
"O..	c #bd8429",
"+..	c #bdad84",
"@..	c #c6c6c6",
"#..	c Gray32",
"$..	c Gray84",
"%..	c #b5a594",
"&..	c #9c844a",
"*..	c #a5844a",
"=..	c #b1986b",
"-..	c #bdb5ad",
";..	c #efefef",
":..	c Gray97",
">..	c #52525a",
",..	c #08085a",
"<..	c #c6c6ce",
"1..	c #00009c",
"2..	c #00868b",
"3..	c #0000d6",
"4..	c #000073",
"5..	c #c68c29",
"6..	c #f7efd6",
"7..	c #efd66b",
"8..	c #d6b54a",
"9..	c #211808",
"0..	c #7b526b",
"q..	c #dea510",
"w..	c #efce7b",
"e..	c #524221",
"r..	c #181008",
"t..	c #ad9442",
"y..	c #4a3900",
"u..	c #e7c67b",
"i..	c #8c6b00",
"p..	c #3929ad",
"a..	c #634284",
"s..	c #946342",
"d..	c #ceb56b",
"f..	c #4a3100",
"g..	c #291800",
"h..	c #312100",
"j..	c #8c6308",
"k..	c #e7ad18",
"l..	c #7b5a63",
"z..	c #cead73",
"x..	c #e7a508",
"c..	c #c68c00",
"v..	c #bd8408",
"b..	c #d69c08",
"n..	c #735a84",
"m..	c #ad7b39",
"M..	c #d69c00",
"N..	c #dead08",
"B..	c #efb508",
"V..	c #4a39b5",
"C..	c #8c635a",
"Z..	c #9c7b42",
"A..	c #6b5294",
"S..	c #846363",
"D..	c #e7a510",
"F..	c #6b5208",
"G..	c #6b4a00",
"H..	c #b58c4a",
"J..	c #deb508",
"K..	c #e7d6b5",
"L..	c #735a00",
"P..	c #deb518",
"I..	c #b58421",
"U..	c #8c5a00",
"Y..	c #dea518",
"T..	c #3121bd",
"R..	c #946300",
"E..	c #946b63",
"W..	c #1008e7",
"Q..	c #c68c18",
"!..	c #211800",
"~..	c #9c6b00",
"^..	c #d69408",
"/..	c #1810de",
"(..	c #3121b5",
")..	c #634200",
"_..	c #ad7318",
"`..	c #2921a5",
"'..	c #392900",
"]..	c #00004a",
"[..	c #100839",
"{..	c #734a00",
"}..	c #c68c08",
"|..	c #734a39",
" X.	c #1008d6",
".X.	c #523110",
"XXX	c #1008ad",
"oXX	c #0800de",
"OXX	c #5a3910",
"+XX	c #ad7b08",
"@XX	c #5a3942",
"#XX	c #422952",
"$XX	c #0808ce",
"%XX	c #1008b5",
"&XX	c #392931",
"*XX	c #6b4200",
"=XX	c #5a3918",
"-XX	c #29187b",
/* pixels */
"                                                      .  X  o  o  o  O  +  @                                                        ",
"                                                #  $  o  o  o  o  o  o  o  o  +  %                                                  ",
"                                             #  o  o  o  o  o  o  o  o  &  *  =  O  -                                               ",
"                                             ;  o  o  o  o  o  o  o  o  :  >  ,  o  <                                               ",
"                                          #  o  o  o  o  o  o  o  o  =  1  2  =  o  o  3                                            ",
"                                          4  o  o  o  o  o  o  o  o  o  o  o  o  o  o  5                                            ",
"                                          <  o  o  =  o  o  o  o  o  o  =  6  o  o  o  o                                            ",
"               7  7  8  9  0  q  .  w     <  o  1  *  e  =  o  o  e  r  r  &  =  o  o  o  -                                         ",
"            7  9  0  q  7  q  >  *  6  *  <  =  t  y  u  o  o  1  i  y  p  a  =  o  o  o  @                                         ",
"         7  9  0  q  w  6  6  6  >  1  .  >  ,  9  r  s  e  o  d  p  f  u  s  g  o  o  o  h                                         ",
"         7  7  >  7  7  j  7  .  *  1  >  *  &  *  *  k  l  2  r  k  o  1  i  z  o  o  o  h                                         ",
"         >  9  9  >  >  6  6  6  >  6  6  6  2  d  x  c  v  b  n  m  o  o  M  z  o  o  o  h                                         ",
"         9  >  >  7  7  >  7  j  6  6  >  6  o  N  B  V  C  Z  A  S  D  F  G  2  o  o  o  H                                         ",
"         >  9  9  >  >  6  6  6  >  6  6  6  J  K  L  P  I  U  Y  Y  T  Z  R  E  o  o  o  <                                         ",
"         9  j  >  7  7  j  7  >  6  6  >  6  E  W  Q  P  !  Y  Y  T  T  ~  ^  /  o  o  o  X                                         ",
"         >  9  9  >  >  6  6  6  >  6  6  6  =  K  V  (  U  S  T  )  )  L  _  `  o  g  o  o  -                                      ",
"         9  >  >  7  7  >  7  j  6  6  >  6  x  '  ]  [  ^  )  {  }  |   . ...f  o  >  r  =  +                                      ",
"         >  9  9  >  >  6  6  6  >  6  6  6  =  X..o..{  _  _  W  O..+..@..p  X..o  2  #..o  o  -                                   ",
"         9  j  >  7  7  j  7  >  6  6  >  6  6  $..X..%..&..*..=..-..@..;..:..:..>..o  o  o  o  ,..                                 ",
"         >  9  9  >  >  6  6  6  >  6  6  6  *  :..p  X..X..X..@..p  ;..:..:..:..y  =  o  o  o  o  #                                ",
"6        9  >  >  7  7  >  7  j  6  6  >  6  p  :..6  $..@..<..;..:..:..:..:..:..:..l  o  o  o  o  ;                                ",
"6        >  9  9  >  >  6  6  6  >  6  6  6  :..>  6  :..:..:..:..:..:..:..:..:..:..M  o  o  o  o  o  +                             ",
"6        9  j  >  7  7  j  7  >  6  6  6  6  :..8  6  :..:..:..:..:..:..:..:..:..:..s  x  o  o  o  o  o  4                          ",
"6     o  9  9  9  >  >  6  6  *  1  6  6  6  ;..>  6  :..s  ;..:..:..:..;..;..s  $..s  l  o  o  o  o  o  o  @                       ",
"6  o  o  o  o  0  q  >  >  *  1  6  6  6  6  s  8  6  :..;..:..:..:..:..;..$..y  X..<..@..=  2  =  o  o  o  ;                       ",
"6  o  o  o  o  o  7  w  >  >  *  1  6  6  6  :..>  6  :..:..:..:..:..:..:..:..:..;..$..$..f  o  =  6  o  o  o  1..                  ",
"o  o  o  o  o  o  o  q  j  >  *  1  6  6  6  :..8  6  :..:..:..:..:..:..:..:..:..:..:..p  X..o  x  2  =  o  o  ;                    ",
"o  o  o  o  o  o  o  q  2..>  *  1  6  6  6  :..>  6  :..:..:..:..:..:..:..:..:..:..:..:..:..l  ,  ,  2  o  o  o  3..               ",
"o  o  o  o  o  o  o  q  >  >  *  6  6  6  6  :..8  6  :..:..:..:..:..:..:..:..:..:..:..:..:..k  6  6  2  =  o  o  4..               ",
"6  o  o  o  o  o  7  q  >  >  *  1  6  6  6  :..>  6  :..:..:..:..:..:..:..:..:..:..:..:..:..X..o  o  o  2  o  o  ;                 ",
"6  o  o  o  o  0  7  q  j  >  *  1  6  6  6  :..8  6  ;..:..:..:..:..:..:..:..:..:..:..:..:..$..o  o  o  2  o  o  o  @              ",
"6     o  o  o  0  7  w  >  >  *  1  6  6  1  :..>  6  ;..:..:..:..:..:..:..:..:..:..:..:..:..:..o  o  o  =  o  o  o  4              ",
"6        o  7  0  q  2..>  *  1  6  6  6  1  :..8  6  ;..:..:..:..:..:..:..:..:..:..:..:..:..:..o  o  =  =  o  o  o  5              ",
"6           2..7  w  >  *  1  1  6  6  1  :..:..>  6  ;..:..:..:..:..:..:..:..:..:..:..:..:..:..2  o  2  o  o  o  o  X              ",
"1  1           >  >  *  1  6  1  6  6  :..:..:..8  6  ;..:..:..:..:..:..:..:..:..:..:..:..:..:..1  o  2  o  o  o  o  <              ",
"   1              *  1  6  6  1  .  :..:..:..:..>  1  :..:..:..:..:..:..:..:..:..:..:..:..:..:..o  =  =  x  6  1  o  +              ",
"   6  .           5..>  .  >  .  >  :..:..:..:..*  1  ;..:..:..:..:..:..:..:..:..:..:..6..7..8..9..o  o  o  o  1  9..h              ",
"      6  .     0..q..P  >  .  >  g  y  :..:..:..1  :..;..:..:..:..:..:..:..:..:..:..:..w..(  T  e..o  o  o  o  r..)  t..            ",
"         6  .  >  Q  P  .  >  (  y..2  7  *  6  :..:..:..:..:..:..:..:..:..:..:..:..:..u..(  q..E  o  o  o  o  i..I  A              ",
"   p..a..s..*  .  >  .  >  .  2..7  7  *  6  :..:..:..:..:..:..:..:..:..:..:..:..:..p  d..Q  L  {  f..g..h..j..L  (  k..            ",
"l..q..Q  (  Q  >  w  q  7  q  >  >  6  1  o  9  ;..:..:..:..:..:..:..:..:..:..:..:..y  z..L  x..c..W  v..v..b..(  (  (  n..         ",
"m..(  P  (  P  P  *  1  6  6  6  1  *  `  o  9  9  :..:..:..:..:..:..:..:..:..:..:..$..=..M..N..x..M..b..L  B..P  (  P  (  V..      ",
"C..B..P  (  P  (  (  7  q  1  P  (  I  v  9  9  9  :..:..:..:..:..:..:..:..:..:..:..p  Z..c..B..B..V  B..Q  (  P  (  (  (  (  A..   ",
"S..D..P  (  (  (  P  7  q  1  P  (  P  I  F..9  9  :..:..:..:..:..:..:..:..:..:..:..>..G..c..B..(  P  (  P  (  P  (  P  (  (  P  H..",
"S..D..(  (  P  (  P  7  q  *  (  (  P  (  J..K..:..:..:..:..:..:..:..:..:..:..p  *  o  L..b..B..P  (  (  (  (  (  P  (  (  U  P  P..",
"C..D..(  (  P  (  9  9  w  .  6  (  P  (  J..I..s  :..:..:..:..:..:..:..:..k  x  o  J  U..b..B..(  P  (  P  (  C  (  (  (  P  Y..T..",
"O..L  B..P  7  9  0  q  2..1  6  6  (  (  N..v..e..k  $..s  p  X..k  d  1  o  o  o  =  R..b..B..P  (  (  (  (  (  (  (  Q  E..W..   ",
"Q..b..q  9  9  0  7  2..>  *  6  6  6  1  L  v../  o  o  o  o  o  o  o  o  o  o  o  !..~..^..B..(  (  P  (  (  (  q..S../..         ",
"(..7  9  0  0  7  q  w  >  *  1  6  6  6  6  {  )..o  o  o  o  o  o  o  o  o  o  o  !..U..W  M..B..B..V  L  b.._..`..               ",
"w  7  0  0  7  7  q  2..>  *  *  1  6  6  1  6  '..O  ]..4...  .  .  .  .  .  .  +  [..{..{  W  }  _  }..v..|.. X.                  ",
"      7  0  7  q  2..>  >  >  *  1  6  6  >  .X.XXX                                 oXXOXXU..{  +XX+XX~..@XX                        ",
"         w  w  w  w  *  *  1  6  .  >  /  #XX$XX                                       %XX&XX)..*XX=XX-XX%                          "};
