/* XPM */
static char * PenguinWithGlasses_xpm[] = {
/* columns rows colors chars-per-pixel */
"44 53 221 3",
"   	c None",
".  	c #0a0a7b",
"X  	c #020236",
"o  	c #010109",
"O  	c #05052b",
"+  	c #090969",
"@  	c #0505a2",
"#  	c #0e0e25",
"$  	c #030312",
"%  	c #05041b",
"&  	c #100f6e",
"*  	c #110fd7",
"=  	c #323232",
"-  	c #3a3a39",
";  	c #131313",
":  	c #050549",
">  	c #1212ce",
",  	c #120b29",
"<  	c #05050c",
"1  	c #4f4e50",
"2  	c #565657",
"3  	c #2a2a2c",
"4  	c #9d99a5",
"5  	c #867c8b",
"6  	c #0c0c11",
"7  	c #11110c",
"8  	c Gray54",
"9  	c #1b19bb",
"0  	c #959899",
"q  	c #adadc1",
"w  	c #c6c5c6",
"e  	c #595866",
"r  	c #474647",
"t  	c #787689",
"y  	c #97a8b6",
"u  	c #5a497c",
"i  	c #5e557c",
"p  	c #6b6b75",
"a  	c #adb2c2",
"s  	c #a0b0bc",
"d  	c #89959b",
"f  	c #8fa1ac",
"g  	c #abadbd",
"h  	c #abadb3",
"j  	c #8d9bb1",
"k  	c #747492",
"l  	c #bdbdc0",
"z  	c #746693",
"x  	c #cadcdd",
"c  	c #9186a1",
"v  	c #b3c8cd",
"b  	c #b4b4c1",
"n  	c #a3b6c5",
"m  	c #9db8c3",
"M  	c #848699",
"N  	c Gray80",
"B  	c #d4d4d5",
"V  	c #a3cbce",
"C  	c #a1c5cb",
"Z  	c #b9ccd0",
"A  	c #98afb3",
"S  	c #6c6385",
"D  	c #677885",
"F  	c #493575",
"G  	c #ade1de",
"H  	c #aadbdb",
"J  	c #503981",
"K  	c #6d828b",
"L  	c #87601b",
"P  	c #a2cdd1",
"I  	c #5b6066",
"U  	c #b2e9e5",
"Y  	c #aee4e1",
"T  	c #d9b42c",
"R  	c #d1b30f",
"E  	c #554785",
"W  	c #76868c",
"Q  	c #cae6e4",
"!  	c #d2a431",
"~  	c #edc40a",
"^  	c #e8d025",
"/  	c #cfb132",
"(  	c #c9b159",
")  	c #8992a6",
"_  	c #181473",
"`  	c #b88b36",
"'  	c #c8982a",
"]  	c #f0bd10",
"[  	c #ead030",
"{  	c #ebc712",
"}  	c #b9a429",
"|  	c #615c9c",
" . 	c #66609d",
"...	c #221d2f",
"X..	c #101052",
"o..	c #372932",
"O..	c #956505",
"+..	c #e8ab08",
"@..	c #f3c813",
"#..	c #c3a50a",
"$..	c #bf9129",
"%..	c #a77627",
"&..	c #392e23",
"*..	c #1f1f20",
"=..	c black",
"-..	c #89714d",
";..	c #b37d10",
":..	c #b68a08",
">..	c #c69405",
",..	c #cb930a",
"<..	c #0b0808",
"1..	c #070787",
"2..	c #1a191a",
"3..	c #aba39e",
"4..	c #ae8d4e",
"5..	c #a98107",
"6..	c #d39908",
"7..	c #bb830a",
"8..	c #ba8313",
"9..	c #c1beb4",
"0..	c #cdcdd1",
"q..	c #181717",
"w..	c #bab2a7",
"e..	c #af9464",
"r..	c #d0b56d",
"t..	c #bab7b4",
"y..	c Gray86",
"u..	c #ececec",
"i..	c #2f1c75",
"p..	c #181507",
"a..	c #dfe0e1",
"s..	c #b4b4b4",
"d..	c #b2a997",
"f..	c Gray97",
"g..	c #f8f8f8",
"h..	c #f7f5ee",
"j..	c #a7a5a7",
"k..	c Gray95",
"l..	c #4f3123",
"z..	c #666567",
"x..	c Gray89",
"c..	c #e5e5e8",
"v..	c pink",
"b..	c #878488",
"n..	c Gray74",
"m..	c #10108c",
"M..	c #7373a8",
"N..	c #f0efeb",
"B..	c #241b05",
"V..	c #473911",
"C..	c #100e14",
"Z..	c white",
"A..	c #120e04",
"S..	c #b0a8ab",
"D..	c #2f2f30",
"F..	c #232323",
"G..	c #080859",
"H..	c #6d6db5",
"J..	c #dad8d5",
"K..	c #9a720a",
"L..	c #51441b",
"P..	c #e0d7bb",
"I..	c #d39c2a",
"U..	c #f8be11",
"Y..	c #79533b",
"T..	c #f5e5b9",
"R..	c #382a11",
"E..	c #39338c",
"W..	c #8f6850",
"Q..	c #e2a614",
"!..	c #f3ba11",
"~..	c #e8c979",
"^..	c #d8b412",
"/..	c #3a2c05",
"(..	c #7f5868",
")..	c #d19218",
"_..	c #e8b316",
"`..	c #efbd10",
"'..	c #6f5004",
"]..	c #dca209",
"[..	c #5d4402",
"{..	c #a77707",
"}..	c #8e6f70",
"|..	c #9d6a2f",
" X.	c #272000",
".X.	c #6e4704",
"XXX	c #493a03",
"oXX	c #5c3c03",
"OXX	c #e3ab08",
"+XX	c #ecb912",
"@XX	c #f4bb0f",
"#XX	c #edbb0f",
"$XX	c #d19508",
"%XX	c #c78b07",
"&XX	c #ac7a37",
"*XX	c #e2a50b",
"=XX	c #745c8f",
"-XX	c #936956",
";XX	c #edb309",
":XX	c #83680e",
">XX	c #c0963e",
",XX	c #eab50b",
"<XX	c #e0cb9c",
"1XX	c #7c5703",
"2XX	c #b5872a",
"3XX	c #d2cfca",
"4XX	c #885902",
"5XX	c #c28923",
"6XX	c #daa608",
"7XX	c #b9b9be",
"8XX	c #967370",
"9XX	c #a67511",
"0XX	c #624989",
"qXX	c #7b5645",
"wXX	c #976916",
"eXX	c #a06f0d",
"rXX	c #553624",
"tXX	c #61424d",
"yXX	c #462d4f",
"uXX	c #5c3b12",
"iXX	c #432a50",
/* pixels */
"                                                      .  X  o  o  o  O  +  @                                                        ",
"                                                   #  $  o  o  o  o  o  $  %  &  *                                                  ",
"                                                %  o  o  o  o  o  o  o  =  -  ;  :  >                                               ",
"                                             ,  o  o  o  o  o  o  o  <  1  2  3  $  +                                               ",
"                                          4  5  6  o  o  o  o  o  o  7  3  8  5  6  %  9                                            ",
"                                       0  q  w  5  e  $  o  o  o  <  r  t  y  y  t  u  i                                            ",
"                                    p  a  a  s  a  d  e  $  o  <  2  f  g  h  0  j  y  y  i                                         ",
"                                 2  k  l  s  a  y  g  z  e  6  r  f  g  x  x  x  x  y  y  u                                         ",
"                                 p  c  v  b  n  m  n  g  i  e  M  s  x  N  N  y  x  x  y  i  t                                      ",
"                              r  d  d  B  V  5  V  C  m  i  3  f  s  x  Z  5  C  m  A  S  D  F                                      ",
"                              =  d  y  G  5  7  7  V  v  S  -  d  A  H  7  7  5  H  H  D  D  J                                      ",
"                              2  K  C  H  H  7  7  V  v  M  L  M  y  P  7  7  H  H  H  K  D  u                                      ",
"                                 I  G  U  H  H  H  Y  M  T  R  p  y  P  U  U  U  U  Y  K  E                                         ",
"                                    W  Q  Q  Q  j  k  !  ~  ^  /  (  k  m  Y  Y  C  )  E  _                                         ",
"                                       k  z  c  `  '  ]  ~  ^  [  {  }  k  |   . )  ...,  X..                                       ",
"                                             o..O..+..@..@..^  {  #..#..$..%..&..3  *..=..O                                         ",
"                                             %  -..;..#..R  #..:..>..,..!  !  r  $  1  1  <..1..                                    ",
"                                             2..3..4..5..6..>..7..8..(  9..0..0  6  =  2  <..X                                      ",
"                                             q..v  w..e..`  `  4..r..t..y..u..y..i..p..2..<  o  1..                                 ",
"                                          #  =  a..B  s..d..d..w..0..a..f..g..h..3..7  =..o  o  O                                   ",
"                                          q..j..k..u..N  w  w  a..k..l..f..f..f..a..-  o  o  o  o  +                                ",
"                                       <  z..u..f..g..u..x..c..f..g..v..f..f..f..k..b..<..o  o  o  $                                ",
"                                    %  q..n..f..f..f..g..g..g..f..v..v..v..f..g..f..N  6  o  o  o  o  X                             ",
"                                 X  o  -  N  k..f..f..f..k..k..f..m..M..G  k..N..|  a..=  o  o  o  o  o  :                          ",
"                              :  o  <  z..n..u..f..f..f..u..k..f..m..M..G  x..B..V..O..8  <..C..<..o  o  o  +                       ",
"                              o  <..;  0  y..u..f..f..f..f..f..f..m..M..G  Z..B..V..e..N  -  C..7  <..o  o  %                       ",
"                           &  %  A..r  y..f..g..f..f..f..f..f..f..m..M..G  g..B..e..O..B  8  <  <..;  <..o  o  +                    ",
"                        ;  X  ;  ;  S..f..f..f..f..f..f..f..f..B  a  B  a  B  V..e..V..t..B  D..q..*..;  o  =..%                    ",
"                        >  *..;  r  u..f..f..f..f..f..f..f..f..B  x  x  x  x  V..e..V..t..k..p  F..*..q..<..o  $  @                 ",
"                        G..;  C..j..f..f..f..f..f..f..f..f..f..x  f..f..f..f..f..V..B  t..f..S..;  <..C..7  o  o  :                 ",
"                     H..%  q..3  x..f..f..f..f..f..f..f..f..f..x  f..f..f..f..f..f..B  t..k..v  <..o  o  q..o  o  %                 ",
"                     1..6  <..z..k..f..f..f..f..f..f..k..f..f..x  f..f..f..f..f..f..B  t..f..J..6  o  o  ;  o  o  $  @              ",
"                  M..O  ;  <..8  f..f..f..f..f..f..f..k..f..f..x  f..f..f..f..f..f..B  t..f..u..6  o  <  A..o  o  o  &              ",
"                  G..<  2..2..j..k..f..f..f..f..f..f..k..f..f..x  f..f..f..f..f..f..B  t..f..u..q..<  7  <..o  o  o  :              ",
"                  6  o  q..F..s..f..f..f..f..f..f..k..u..g..f..x  f..f..f..f..f..f..B  t..f..u..F..<  q..o  o  o  o  X..            ",
"                  6  B..B..=  N  f..f..f..f..f..f..f..k..f..f..f..x  x  x  x  x  x  B  f..g..u..F..<  ;  <  <  <..o  +              ",
"                  V..K..K..L..h  k..g..f..f..f..f..k..f..f..f..f..f..f..f..f..f..f..f..h..N..P..7  <..<..<..<..F..<  .              ",
"                  I..U..{  :..Y..s..u..g..f..f..f..f..k..f..f..f..f..f..f..f..f..f..f..T..[  /  R..<  o  o  o  2..V..E..            ",
"               W..Q..!..]  ]  5..&..0  c..g..f..f..f..k..f..f..f..f..f..f..f..f..f..h..~..U..^..L..=..o  o  o  /..#..}              ",
"            (..).._..]  ]  `..{  '..2..b..a..g..f..f..f..f..f..f..f..f..f..f..f..g..N..~.._..]..[..A..<..<..B..{..{  T              ",
"      }..|..)..+..`..]  ]  ]  ]  R   X.<  p  J..f..f..f..f..f..f..f..f..f..f..f..f..J..r..Q..]..;...X.XXXoXXK..OXX+XX_..            ",
"W..Q..+..!..+XX]  ]  ]  `..`..@XX#XXO..A..<  2  N  f..f..f..f..f..f..f..f..f..f..f..0..r..]..OXX$XX%XX%XX%XX]..]  ]  +XX}..         ",
"&XX+XXU..]  U..U..]  ]  `..{  ]  `..#XXXXX=..o  z..u..g..f..f..f..f..f..f..f..f..f..J..e..6..OXX+..6..]..*XX@XX@XX]  ]  +XX=XX      ",
"-XX+..]  ]  ]  `..]  `..`..@..]  `..~  :..B..2..2  u..f..f..f..f..f..f..f..f..g..h..v  &XX%XX;XX;XX;XX;XX_..`..]  ]  ]  ]  _..}..   ",
"-XXQ..U..`..]  ]  ]  `..`..]  ]  ]  ]  ~  :XXp  N  g..g..f..f..f..f..f..f..g..k..B  1  '..%XX;XX@XX@..@XX]  ]  ]  ]  ]  ]  @..!..>XX",
"-XXQ..`..]  ]  ]  ]  `..`..]  `..`..]  +XX,XX<XXf..g..f..f..f..f..g..g..f..u..n..-  <..1XX6..;XX]  @XX`..]  ]  ]  ]  `..`..@..!..'  ",
"-XXQ..]  ]  ]  ]  ]  @..{  ]  ]  ]  ]  {  ^..2XX3XXu..k..f..f..k..u..c..B  b..<..<  A..4XX6..;XX]  ]  ]  ]  ]  @..]  `..+XX_..4..J  ",
"5XX]..;XX!..+XX]  #XX]  ]  ]  ]  @..]  @XX6XX%XXL..8  7XXN  w  j..8  I  F..<  o  =..p..O..6..;XX]  `..]  `..`..`..+XX_..I..8XX      ",
"2XX,..6..*XX6XX;XX+..@XX#XX#XX]  ]  ]  #XX6XX7..oXX<..<  <  <  <  o  <  =..o  o  o  B..O..$XX;XX#XX@XX@XX#XX#XX_..'  }..            ",
"J  -..&XX9XX8..%XX%XX6..]..+..@XX#XX#XX]..%XX{..oXX<  o  $  $  $  $  $  $  $  $  $  B..4XX%XX6..;XX;XX+..6XX)..|..J                 ",
"            0XXqXXwXXwXX9XX7..,..,..$XX7..{..1XXR..,  X...  m..m..m..m..m..m..m..&  X...X.{..%XX%XX,..%XX;..qXX                     ",
"                        F  Y..L  eXXO..O..1XXl..                                       rXX4XXeXX{..{..O..tXX                        ",
"                                 yXXuXXoXXiXX                                             o...X..X.uXXi..                           "};
