/* XPM */
static char * PenguinWithBall_xpm[] = {
/* columns rows colors chars-per-pixel */
"44 52 210 3",
"   	c None",
".  	c black",
"X  	c #000042",
"o  	c #000008",
"O  	c #000031",
"+  	c #00006b",
"@  	c #000010",
"#  	c #393939",
"$  	c Gray26",
"%  	c #101008",
"&  	c #000021",
"*  	c #52524a",
"=  	c Gray39",
"-  	c Gray16",
";  	c #000063",
":  	c Gray13",
">  	c #181818",
",  	c #000052",
"<  	c #101010",
"1  	c #292921",
"2  	c Gray45",
"3  	c Gray58",
"4  	c #cecece",
"5  	c #848484",
"6  	c Gray71",
"7  	c Gray87",
"8  	c Gray55",
"9  	c Gray61",
"0  	c #e7e7e7",
"q  	c Gray42",
"w  	c #5a5a5a",
"e  	c #313131",
"r  	c Gray29",
"t  	c #7b7b7b",
"y  	c Gray3",
"u  	c #7f623d",
"i  	c #ad880c",
"p  	c #9c8408",
"a  	c #947b21",
"s  	c #847b52",
"d  	c Gray68",
"f  	c #a5a5a5",
"g  	c #8c6310",
"h  	c #e7ad08",
"j  	c #f7c610",
"k  	c #e7c608",
"l  	c #d6b521",
"z  	c #e7ce21",
"x  	c #9c7b00",
"c  	c #94844a",
"v  	c #dedece",
"b  	c #080800",
"n  	c #845a08",
"m  	c #dea508",
"M  	c #f7bd10",
"N  	c #efc608",
"B  	c #efce18",
"V  	c #e7ce31",
"C  	c #dec608",
"Z  	c #d6b518",
"A  	c #423100",
"S  	c #c68408",
"D  	c #e7ad10",
"F  	c #efce08",
"G  	c #d6ad08",
"H  	c #c6a510",
"J  	c #5a3900",
"K  	c #efbd10",
"L  	c #b59808",
"P  	c #ce9408",
"I  	c #292100",
"U  	c #9c947b",
"Y  	c #946308",
"T  	c #bd9c08",
"R  	c #a77508",
"E  	c #ce8c08",
"W  	c #d69410",
"Q  	c #ce9c42",
"!  	c #bdb594",
"~  	c Gray74",
"^  	c #ad9c7b",
"/  	c #bd8429",
"(  	c #bdad84",
")  	c #c6c6c6",
"_  	c Gray32",
"`  	c Gray84",
"'  	c #b5a594",
"]  	c #9c844a",
"[  	c #a5844a",
"{  	c #b1986b",
"}  	c #bdb5ad",
"|  	c #efefef",
" . 	c Gray97",
"...	c #52525a",
"X..	c #08085a",
"o..	c #c6c6ce",
"O..	c #000084",
"+..	c #00009c",
"@..	c #000073",
"#..	c #181010",
"$..	c #a69696",
"%..	c #867569",
"&..	c #080000",
"*..	c #181410",
"=..	c #968a86",
"-..	c #201818",
";..	c #100808",
":..	c #594941",
">..	c #615551",
",..	c #080400",
"<..	c #514941",
"1..	c #fff3ef",
"2..	c #383830",
"3..	c #867571",
"4..	c #595951",
"5..	c #382828",
"6..	c #282420",
"7..	c #fffbff",
"8..	c #e7dbc7",
"9..	c #fff7f7",
"0..	c #b69e96",
"q..	c #494138",
"w..	c #cfbea6",
"e..	c #383028",
"r..	c #bebaae",
"t..	c #aeaaa6",
"y..	c #f7f3f7",
"u..	c #f7ebdf",
"i..	c #dfdbbe",
"p..	c #9e8279",
"a..	c #493830",
"s..	c #201c18",
"d..	c #d7d3c7",
"f..	c #e7e7df",
"g..	c #d7cbae",
"h..	c #a6928e",
"j..	c #e7e3d7",
"k..	c #cfbeae",
"l..	c #716561",
"z..	c #efe3c7",
"x..	c #f7efd6",
"c..	c #efd66b",
"v..	c #d6b54a",
"b..	c #211808",
"n..	c #b6a6a6",
"m..	c #f7efe7",
"M..	c #beb2a6",
"N..	c #594141",
"B..	c #efce7b",
"V..	c #524221",
"C..	c #181008",
"Z..	c #ad9442",
"A..	c #a68e86",
"S..	c #d7c7b6",
"D..	c #282020",
"F..	c #302420",
"G..	c #e7c67b",
"H..	c #dea510",
"J..	c #8c6b00",
"K..	c #dfd3b6",
"L..	c #bea696",
"P..	c #cfb69e",
"I..	c #ceb56b",
"U..	c #4a3100",
"Y..	c #291800",
"T..	c #312100",
"R..	c #8c6308",
"E..	c #e7ad18",
"W..	c #cead73",
"Q..	c #e7a508",
"!..	c #c68c00",
"~..	c #bd8408",
"^..	c #d69c08",
"/..	c #735a84",
"(..	c #dfcfb6",
")..	c #8e7d79",
"_..	c #d69c00",
"`..	c #dead08",
"'..	c #efb508",
"]..	c #9c7b42",
"[..	c #6b5294",
"{..	c #716159",
"}..	c #6b4a00",
"|..	c #b58c4a",
" X.	c white",
".X.	c #715951",
"XXX	c #735a00",
"oXX	c #deb518",
"OXX	c #8c5a00",
"+XX	c #dea518",
"@XX	c #946300",
"#XX	c #946b63",
"$XX	c #615149",
"%XX	c #211800",
"&XX	c #9c6b00",
"*XX	c #d69408",
"=XX	c #846363",
"-XX	c #ad7318",
";XX	c #100839",
":XX	c #734a00",
">XX	c #c68c08",
",XX	c #734a39",
"<XX	c #5a3910",
"1XX	c #ad7b08",
"2XX	c #5a3942",
"3XX	c #392931",
"4XX	c #634200",
"5XX	c #6b4200",
"6XX	c #5a3918",
"7XX	c #29187b",
/* pixels */
"                                                      .  X  o  o  o  O  +  .                                                        ",
"                                                .  @  o  o  o  o  o  o  o  o  +  .                                                  ",
"                                             .  o  o  o  o  o  o  o  o  #  $  %  O  .                                               ",
"                                             &  o  o  o  o  o  o  o  o  *  =  -  o  ;                                               ",
"                                          .  o  o  o  o  o  o  o  o  %  :  >  %  o  o  .                                            ",
"                                          .  o  o  o  o  o  o  o  o  o  o  o  o  o  o  ,                                            ",
"                                          .  o  o  %  o  o  o  o  o  o  %  <  o  o  o  o                                            ",
"                                          .  o  :  $  1  %  o  o  1  2  2  #  %  o  o  o  .                                         ",
"                                          .  %  3  4  5  o  o  :  6  4  7  8  %  o  o  o  .                                         ",
"                                          .  -  9  2  0  1  o  q  7  w  5  0  e  o  o  o  .                                         ",
"                                          .  #  $  $  9  r  >  2  9  o  :  6  t  o  o  o  .                                         ",
"                                          .  >  q  y  u  i  p  a  s  o  o  d  t  o  o  o  .                                         ",
"                                          .  .  f  g  h  j  k  l  z  x  c  v  >  o  o  o  .                                         ",
"                                          .  b  n  m  M  N  B  V  V  C  k  Z  A  o  o  o  .                                         ",
"                                          .  A  S  D  M  F  V  V  C  C  G  H  J  o  o  o  X                                         ",
"                                          .  %  n  h  K  B  z  C  L  L  m  P  I  o  e  o  o  .                                      ",
"                                          .  y  U  Y  T  H  L  R  E  W  Q  !  w  o  =  2  %  +                                      ",
"                                          .  %  ~  ^  R  P  P  S  /  (  )  7  ~  o  >  _  o  o  .                                   ",
"                                          X  <  `  ~  '  ]  [  {  }  )  |   .  . ...o  o  o  o  X..                                 ",
"                                       .  <  $   . 7  ~  ~  ~  )  7  |   .  .  . 4  %  o  o  o  o  .                                ",
"                                       @  >  .   .  . `  )  o..|   .  .  .  .  .  . r  o  o  o  o  &                                ",
"                                    O  o  .   .  .  .  .  .  .  .  .  .  .  .  .  . d  o  o  o  o  o  +                             ",
"                                 .  o  >  .   .  .  .  .  .  .  .  .  .  .  .  .  . 0  y  o  o  o  o  o  O..                        ",
"                              .  o  o  .  )  |   .  .  . 0  |   .  .  . |  |  0  `  0  r  o  o  o  o  o  o                          ",
"                           .  o  o  o  .  ~  0   .  .  . |   .  .  .  . |  `  4  ~  o..)  %  >  %  o  o  o  &                       ",
"                        .  .  o  %  <  .   .  .  .  .  .  .  .  .  .  .  .  .  . |  `  `  w  o  %  <  o  o  o  +..                  ",
"                     .  .  .  .  .  .   .  .  .  .  .  .  .  .  .  .  .  .  .  .  .  . 7  ~  o  y  >  %  o  o  &                    ",
"                  .  .  .  .  .  .  .   .  .  .  .  .  .  .  .  .  .  .  .  .  .  .  .  .  . r  -  -  >  o  o  o                    ",
"               .  .  .  .  .  .  .  .   .  .  .  .  .  .  .  .  .  .  .  .  .  .  .  .  .  . 9  <  <  >  %  o  o  @..               ",
"               .  .  .  .  .  .  .  .  y  #..$.. .  .  .  .  .  .  .  .  .  .  .  .  .  .  . ~  o  o  o  >  o  o  &                 ",
"            %...  .  .  .  .  .  .  .  #..&..&..*..=..|   .  .  .  .  .  .  .  .  .  .  .  . `  o  o  o  >  o  o  o                 ",
"         -..;..:...  .  .  .  .  .  >.._  <  .  ,..$..<.. .  .  .  .  .  .  .  .  .  .  .  .  . o  o  o  %  o  o  o  O..            ",
"      #..<  _  |  1...  .  .  .  1..|  2..<..2..<  3..>..4.. .  .  .  .  .  .  .  .  .  .  .  . o  o  %  %  o  o  o  ,              ",
"   5..y  2..6..7..7..7..7..7..7..7..8..7..7..9..8..0..0..q..$.. .  .  .  .  .  .  .  .  .  .  . >  o  >  o  o  o  o  X              ",
"w...  e..2..r..1..7..7..7..7..7..7..t..7..y..y..u..i..0..p..a.. .  .  .  .  .  .  .  .  .  .  . :  o  >  o  o  o  o  ;              ",
">..s..<  d..|  f..7..7..7..7..7..9..7..y..9..y..u..8..g..h..>..h.. .  .  .  .  .  .  .  .  .  . o  %  %  y  <  :  o  +              ",
"p..q..7..j..y..|  k..7..j..l..e..*..7..y..y..|  z..8..w..0..p..5.. .  .  .  .  .  .  . x..c..v..b..o  o  o  o  :  b...              ",
"n..9..8..m..y..y..7..s..$..n..=..a..#..7..j..j..z..i..M..N..*..:.. .  .  .  .  .  .  . B..K  C  V..o  o  o  o  C..L  Z..            ",
"A..d..S..j..|  y..7.._  a..a..e..D..<  n..8..i..i..g..0..F..&..y   .  .  .  .  .  .  . G..K  H..A  o  o  o  o  J..N  l              ",
"A..S..K..z..f..y..d.._  -..-..#..;..y  .  7..L..P..P..3.._  .  .   .  .  .  .  .  . 7  I..D  m  R  U..Y..T..R..m  K  E..            ",
"$..k..i..8..j..y..t..<..;..#..<  y  .  .  $..h..k..h..q..2...  &.. .  .  .  .  .  . 4  W..m  Q..!..S  ~..~..^..K  K  K  /..         ",
"r..P..(..z..8..y..)..2...  &..y  .  .  &..7..7..7..7..<..y  .  .   .  .  .  .  .  . `  {  _..`..Q.._..^..m  '..M  K  M  K           ",
"5..d..P..K..8..j..>..&...  .  .  .  &..7..8..(..M..p..a...  .  .   .  .  .  .  .  . 7  ]..!..'..'..h  '..D  K  M  K  K  K  K  [..   ",
"_  4..A..M..n..j..7..7..=...  .  .  d..z..g..0..%..{..a...  &..;.. .  .  .  .  .  . ...}..!..'..K  M  K  M  K  M  K  M  K  K  M  |..",
".  _  s..$..7..u..j..j..j..|  |   X.j..K..0..3...X.q..a..,...  2.. .  .  .  . 7  $  o  XXX^..'..M  K  K  K  K  K  M  K  K  B  M  oXX",
".  &..2..$..8..i..8..K..i..S..(..8..z..r..3..{..N..a..F..6..-.. .  .  .  . 9  y  o  b  OXX^..'..K  M  K  M  K  j  K  K  K  M  +XX   ",
"D...  .  a..g..(..K..g..g..w..M..h..A..A...X.:..a..e..D..D..2..~  9  q  :  o  o  o  %  @XX^..'..M  K  K  K  K  K  K  K  D  #XX      ",
"   .  .  .  A..M..P..M..M..h..p..N..$XX$XX$XX:..a..D..F..;..o  o  o  o  o  o  o  o  %XX&XX*XX'..K  K  M  K  K  K  H..=XX            ",
"   )...  .  :...X.)..3..{..$XXq..F..5..a..N..a..-..F..;..0..o  o  o  o  o  o  o  o  %XXOXXS  _..'..'..h  m  ^..-XX                  ",
"      l..D..5..5..a..a..a..F..s..;..;..y  y  .  <  ;..=..                        +  ;XX:XXR  S  E  P  >XX~..,XX                     ",
"         =..;..D..5..6..-..y  y  .  .  .  .  .  *..                                 .  <XXOXXR  1XX1XX&XX2XX                        ",
"               2..;..*..s..,...  .  .  .  #..h..                                       .  3XX4XX5XX6XX7XX                           "};
