/* XPM */
static char * PenguinNinja_xpm[] = {
/* columns rows colors chars-per-pixel */
"44 52 201 3",
"   	c None",
".  	c #00008c",
"X  	c #000042",
"o  	c #000008",
"O  	c #000031",
"+  	c #00006b",
"@  	c #0000bd",
"#  	c black",
"$  	c #0000b5",
"%  	c #000010",
"&  	c #0000e7",
"*  	c Blue",
"=  	c #393939",
"-  	c Gray26",
";  	c #101008",
":  	c #0000de",
">  	c #000021",
",  	c #52524a",
"<  	c Gray39",
"1  	c Gray16",
"2  	c #000063",
"3  	c Gray13",
"4  	c #181818",
"5  	c #0000c6",
"6  	c #000084",
"7  	c #000052",
"8  	c #808080",
"9  	c Gray100",
"0  	c #e7c608",
"q  	c #efce18",
"w  	c #d6b521",
"e  	c #e7ce21",
"r  	c #9c7b00",
"t  	c #efc608",
"y  	c #e7ce31",
"u  	c #dec608",
"i  	c #d6b518",
"p  	c #c68408",
"a  	c #e7ad10",
"s  	c #f7bd10",
"d  	c #efce08",
"f  	c #d6ad08",
"g  	c #c6a510",
"h  	c #5a3900",
"j  	c #845a08",
"k  	c #e7ad08",
"l  	c #efbd10",
"z  	c #b59808",
"x  	c #dea508",
"c  	c #ce9408",
"v  	c #292100",
"b  	c #313131",
"n  	c Gray3",
"m  	c #9c947b",
"M  	c #946308",
"N  	c #bd9c08",
"B  	c #a77508",
"V  	c #ce8c08",
"C  	c #d69410",
"Z  	c #ce9c42",
"A  	c #bdb594",
"S  	c #5a5a5a",
"D  	c Gray45",
"F  	c Gray74",
"G  	c #ad9c7b",
"H  	c #bd8429",
"J  	c #bdad84",
"K  	c #c6c6c6",
"L  	c Gray87",
"P  	c Gray32",
"I  	c #101010",
"U  	c Gray84",
"Y  	c #b5a594",
"T  	c #9c844a",
"R  	c #a5844a",
"E  	c #b1986b",
"W  	c #bdb5ad",
"Q  	c #efefef",
"!  	c Gray97",
"~  	c #52525a",
"^  	c #08085a",
"/  	c #08088c",
"(  	c #cecece",
")  	c #c6c6ce",
"_  	c Gray29",
"`  	c Gray58",
"'  	c Gray68",
"]  	c #000073",
"[  	c #e7e7e7",
"{  	c #000094",
"}  	c #7b7b7b",
"|  	c #00009c",
" . 	c #00004a",
"...	c #0000d6",
"X..	c #00007b",
"o..	c Gray61",
"O..	c #000039",
"+..	c #848484",
"@..	c #a5a5a5",
"#..	c #292921",
"$..	c #735a00",
"%..	c #6b5208",
"&..	c #c68c29",
"*..	c #947300",
"=..	c #f7efd6",
"-..	c #efd66b",
";..	c #d6b54a",
":..	c #211808",
">..	c #0000ad",
",..	c #7b526b",
"<..	c #dea510",
"1..	c #8c6b00",
"2..	c #efce7b",
"3..	c #524221",
"4..	c #181008",
"5..	c #ad9442",
"6..	c #4a319c",
"7..	c #ce8c18",
"8..	c #4a3900",
"9..	c Gray71",
"0..	c #e7c67b",
"q..	c #423100",
"w..	c #3929ad",
"e..	c #634284",
"r..	c #946342",
"t..	c #080800",
"y..	c #ceb56b",
"u..	c #4a3100",
"i..	c #291800",
"p..	c #312100",
"a..	c #8c6308",
"s..	c #e7ad18",
"d..	c #7b5a63",
"f..	c Gray42",
"g..	c #cead73",
"h..	c #e7a508",
"j..	c #c68c00",
"k..	c #bd8408",
"l..	c #d69c08",
"z..	c #735a84",
"x..	c #ad7b39",
"c..	c #d69c00",
"v..	c #dead08",
"b..	c #efb508",
"n..	c #4a39b5",
"m..	c #8c635a",
"M..	c #efce10",
"N..	c #ad880c",
"B..	c #9c7b42",
"V..	c #6b5294",
"C..	c #846363",
"Z..	c #e7a510",
"A..	c #6b4a00",
"S..	c #b58c4a",
"D..	c #deb508",
"F..	c #e7d6b5",
"G..	c #deb518",
"H..	c #b58421",
"J..	c #8c5a00",
"K..	c #f7c610",
"L..	c #dea518",
"P..	c #3121bd",
"I..	c #946300",
"U..	c #946b63",
"Y..	c #1008e7",
"T..	c #c68c18",
"R..	c #211800",
"E..	c #9c6b00",
"W..	c #d69408",
"Q..	c #1810de",
"!..	c #3121b5",
"~..	c #7f623d",
"^..	c #ad7318",
"/..	c #ad7b08",
"(..	c #c68c08",
")..	c #634200",
"_..	c #2921a5",
"`..	c #1810c6",
"'..	c #4a317b",
"]..	c #734a39",
"[..	c #845a00",
"{..	c #392900",
"}..	c #100839",
"|..	c #734a00",
" X.	c #1008d6",
".X.	c #1810ad",
"XXX	c #39217b",
"oXX	c #734a31",
"OXX	c #8c6310",
"+XX	c #523110",
"@XX	c #1008ad",
"#XX	c #0800de",
"$XX	c #5a3910",
"%XX	c #5a3942",
"&XX	c #422952",
"*XX	c #0808ce",
"=XX	c #1008b5",
"-XX	c #392931",
";XX	c #6b4200",
":XX	c #5a3918",
">XX	c #29187b",
/* pixels */
"                                                      .  X  o  o  o  O  +  @                             #  #  #  #  #              ",
"                                                $  %  o  o  o  o  o  o  o  o  +  &                    #  #  *  *  *  #              ",
"                                             $  o  o  o  o  o  o  o  o  =  -  ;  O  :              #  #  *  *  *  *  #              ",
"                                             >  o  o  o  o  o  o  o  o  ,  <  1  o  2           #  #  *  *  *  *  *  #              ",
"                                          $  o  o  o  o  o  o  o  o  ;  3  4  ;  o  o  5     #  #  *  *  *  *  *  #  #              ",
"                                          6  o  o  o  o  o  o  o  o  o  o  o  o  o  o  7     #  #  *  *  *  *  #  #                 ",
"                                          2  #  #  #  #  #  #  #  #  #  #  #  #  #  #  o  #  #  #  *  *  *  #  #  8  #              ",
"                                          #  #  #  #  #  #  *  *  *  *  #  #  #  #  #  #  #  #  *  *  *  #  #  8  #  #              ",
"                                       #  #  #  #  9  9  #  *  *  *  *  #  9  9  #  #  #  #  *  *  #  #  #  #  #  *  #              ",
"                                    #  #  #  *  #  9  #  #  *  *  *  *  #  #  9  #  #  #  #  #  #  #  #  #  #  *  #  #              ",
"                                    #  #  *  *  #  9  #  #  *  *  *  *  #  #  9  #  #  *  #  *  #  #  #  *  *  *  #                 ",
"                                    #  #  #  *  #  9  #  #  #  #  #  #  #  #  9  #  #  *  #  #  #  *  *  *  *  #  #                 ",
"                                    #  #  *  *  #  #  0  q  0  w  e  r  #  #  #  #  #  *  #  #  #  *  *  *  #  #  #                 ",
"                                    #  *  *  *  #  0  0  t  q  y  y  u  0  i  #  #  #  *  *  #  #  #  #  #  #  #                    ",
"                                    #  #  #  #  p  a  s  d  y  y  u  u  f  g  h  #  #  #  #  #  #  #  #  #  #                       ",
"                                          $  ;  j  k  l  q  e  u  z  z  x  c  v  o  b  o  o  :                                      ",
"                                          5  n  m  M  N  g  z  B  V  C  Z  A  S  o  <  D  ;  +                                      ",
"                                          :  ;  F  G  B  c  c  p  H  J  K  L  F  o  4  P  o  o  :                                   ",
"                                          X  I  U  F  Y  T  R  E  W  K  Q  !  !  ~  o  o  o  o  ^                                   ",
"                                       /  I  -  !  L  F  F  F  K  L  Q  !  !  !  (  ;  o  o  o  o  $                                ",
"                                    5  %  4  L  !  !  U  K  )  Q  !  !  !  !  !  !  _  o  o  o  o  >                                ",
"                                    O  o  `  !  !  !  !  !  !  !  !  !  !  !  !  !  '  o  o  o  o  o  +                             ",
"                                 ]  o  4  L  !  !  !  !  !  !  !  !  !  !  !  !  !  [  n  o  o  o  o  o  6                          ",
"                              {  o  o  _  K  Q  !  !  !  [  Q  !  !  !  Q  Q  [  U  [  _  o  o  o  o  o  o  @                       ",
"                           :  o  o  o  }  F  [  !  !  !  Q  !  !  !  !  Q  U  (  F  )  K  ;  4  ;  o  o  o  >                       ",
"                           {  o  ;  I  K  !  !  !  !  !  !  !  !  !  !  !  !  !  Q  U  U  S  o  ;  I  o  o  o  |                    ",
"                            . I  n  D  !  !  !  !  !  !  !  !  !  !  !  !  !  !  !  !  L  F  o  n  4  ;  o  o  >                    ",
"                        :  o  4  I  Q  !  !  !  !  !  !  !  !  !  !  !  !  !  !  !  !  !  !  _  1  1  4  o  o  o  ...               ",
"                        X..I  n  }  !  !  !  !  !  !  !  !  !  !  !  !  !  !  !  !  !  !  !  o..I  I  4  ;  o  o  ]                 ",
"                        >  4  n  L  !  !  !  !  !  !  !  !  !  !  !  !  !  !  !  !  !  !  !  F  o  o  o  4  o  o  >                 ",
"                     $  o  ;  -  !  !  !  !  !  !  !  Q  !  !  !  !  !  !  !  !  !  !  !  !  U  o  o  o  4  o  o  o  @              ",
"                     O..I  o  +..!  !  !  !  !  !  !  Q  !  !  !  !  !  !  !  !  !  !  !  !  !  o  o  o  ;  o  o  o  6              ",
"                  .  o  4  ;  @..!  !  !  !  !  !  !  Q  !  !  !  !  !  !  !  !  !  !  !  !  !  o  o  ;  ;  o  o  o  7              ",
"                  %  o  #..I  '  !  !  !  !  !  !  Q  Q  !  !  !  !  !  !  !  !  !  !  !  !  !  4  o  4  o  o  o  o  X              ",
"                  o  o  n  1  (  !  !  !  !  !  !  !  Q  !  !  !  !  !  !  !  !  !  !  !  !  !  3  o  4  o  o  o  o  2              ",
"                  n  $..%..#..U  !  !  !  !  !  !  Q  !  !  !  !  !  !  !  !  !  !  !  !  !  !  o  ;  ;  n  I  3  o  +              ",
"                  &..s  s  *..~  [  !  !  !  !  !  !  Q  !  !  !  !  !  !  !  !  !  !  =..-..;..:..o  o  o  o  3  :..>..            ",
"               ,..<..s  l  s  1..b  (  !  !  !  !  !  Q  !  !  !  !  !  !  !  !  !  !  2..l  u  3..o  o  o  o  4..z  5..            ",
"            6..7..a  s  l  l  l  8..4  9..!  !  !  !  !  !  !  !  !  !  !  !  !  !  !  0..l  <..q..o  o  o  o  1..t  w              ",
"   w..e..r..7..k  l  l  s  l  s  f  t..o  o..!  !  !  !  !  !  !  !  !  !  !  !  !  L  y..a  x  B  u..i..p..a..x  l  s..            ",
"d..<..a  l  a  l  l  s  l  l  l  l  $..o  o  f..Q  !  !  !  !  !  !  !  !  !  !  !  (  g..x  h..j..p  k..k..l..l  l  l  z..         ",
"x..l  s  l  s  s  l  s  l  l  s  l  l  v  o  o  f..!  !  !  !  !  !  !  !  !  !  !  U  E  c..v..h..c..l..x  b..s  l  s  l  n..      ",
"m..b..s  l  s  l  l  l  l  M..s  l  t  N..t..o  -  !  !  !  !  !  !  !  !  !  !  !  L  B..j..b..b..k  b..a  l  s  l  l  l  l  V..   ",
"C..Z..s  l  l  l  s  l  l  l  s  l  s  t  %..~  K  !  !  !  !  !  !  !  !  !  !  !  ~  A..j..b..l  s  l  s  l  s  l  s  l  l  s  S..",
"C..Z..l  l  s  l  s  l  l  s  l  l  s  l  D..F..!  !  !  !  !  !  !  !  !  !  L  -  o  $..l..b..s  l  l  l  l  l  s  l  l  q  s  G..",
"m..Z..l  l  s  l  s  M..l  l  l  l  s  l  D..H..[  !  !  !  !  !  !  !  !  o..n  o  t..J..l..b..l  s  l  s  l  K..l  l  l  s  L..P..",
"H  x  b..s  l  s  l  l  l  s  l  K..l  l  v..k..3..o..U  [  L  F  o..f..3  o  o  o  ;  I..l..b..s  l  l  l  l  l  l  l  a  U..Y..   ",
"T..l..l..Z..v..b..k  s  l  l  l  l  s  l  x  k..h  o  o  o  o  o  o  o  o  o  o  o  R..E..W..b..l  l  s  l  l  l  <..C..Q..         ",
"!..~..^../..(..(..V  l..x  k  s  l  l  x  c  B  )..o  o  o  o  o  o  o  o  o  o  o  R..J..p  c..b..b..k  x  l..^.._..               ",
"         `..'..]..E..B  /..k..c  c  l..k..B  [..{..O   . ]  .  .  .  .  .  .  .  +  }..|..B  p  V  c  (..k..].. X.                  ",
"                  Y...X.XXXoXXOXXB  E..M  [..+XX@XX                                 #XX$XXJ..B  /../..E..%XX                        ",
"                              .X.&XX$XXh  &XX*XX                                       =XX-XX)..;XX:XX>XX&                          "};
