/* XPM */
static char * regedit_xpm[] = {
"32 32 6 1",
" 	c None",
".	c #808080",
"+	c #FFFFFF",
"@	c #000000",
"#	c #00FFFF",
"$	c #008080",
"                  .             ",
"                 .+@            ",
"                .+#+@           ",
"               .+#+#+@    ...   ",
"               .$+#+$@   .+$$@  ",
"               .$$+$$@  .+#+$$@ ",
"                .$$$@  .+#+#+$$@",
"                 .$@    .+#+$$@ ",
"                  @      .+$$@  ",
"                          .@@   ",
"      ................          ",
"     .#+#+$+#+#$#+#+$@          ",
"    .$$$$$$$$$@++++$$@...       ",
"   .#+#+$+#+#$@$#+#$$@+$$@      ",
"  .$$$$@++++$$@$$#+$$+#+$$@     ",
" .#+#+$@$+#+$$@$$$#$+#+#+$$@    ",
".++++$$@$$+#$$@$$$$$@+#+$$@     ",
".+#+#$$@$$$+$$@@@@@@$@+$$@      ",
".#+#+$$@$$$$$@+#+#$@$@@@@       ",
".+#+#$$@@@@@@++++$$@$@          ",
".#+#+$@$$#+$@$+#+$$@$@          ",
".$$$$@++++$$@$$+#$$@@@          ",
".#+#+$+#+#$$@$$$+$$@$@          ",
".+#+#$#+#+$$@$$$$$@@$@          ",
".#+#+$+#+#$$@@@@@@$@$@          ",
".+#+#$#+#+$@#+#+$@$@$@          ",
".$$$$$$$$$@++++$$@$@@           ",
".+#+#$#+#+$+#+#$$@$@            ",
".#+#+$+#+#$#+#+$$@@             ",
".+#+#$#+#+$+#+#$$@              ",
".#+#+$+#+#$#+#+$@               ",
"@@@@@@@@@@@@@@@@                "};
