/* XPM */
static char * image_name[] = {
"50 50 8 1",
" 	c none",
".	c #FFFFFFFFFFFF",
"X	c #186120812081",
"o	c #000000000000",
"O	c #514451445144",
"+	c #DF7DE79DE79D",
"@	c #79E779E78617",
"#	c #AEBAAEBAAEBA",
"                           .Xo.   .Oo.oO+.Xo+@....",
"                          .Xo.   +#o .oo.#o@@..O#.",
"                        .+oo++   #oO+ +o+oX#..o##.",
"                    + . ooo.+#  .oo.   .oo...@Xo.o",
"                    o oooooo@.   #+   +oo..#@ .ooo",
"                  .O.oo+...Xoo .     .ooO.O@.+ooo ",
"                +.oo..X+   ..ooo+.  .Oo#..o.@oo.Oo",
". ++           + oooo.oo.    . ooX..#o#@..ooo@  .o",
"oooO.    +      ooXOooOO@     +.Ooooo#  .++o #oO##",
"X ooo++ #o++  .oo.oXXoO.+#+     .+oooo ..O.Xo...X+",
".oX.oo#..oo@..Xo.++oooo@.oX#      .. oo..XXXoooooo",
"Ooo..ooo+.XooOo.   +ooooo .X+       +.X.oooo@@...X",
"X ooooOoo@..ooX.   ++oo#oooo     ++  @..@.X.......",
"oooooo..XooooooO.    +oo.oO.@.  +X@. @.  oX...@...",
"+O ..ooO#OX.o@ oo++  ++oo@oOOo+.+ooooX.O.oooXX.#+.",
"oO....Xo@..+. ooooO.   +oo#ooooooo.+#..ooo. oo@.. ",
"XooooX#..Oooo..@ ooo++ ++ooXo.+ooooo#.. ooo#.+oX+O",
" @ooo...XooO.o+..o oo++  +ooooo.o+XoX.+Xo.ooo+.@oX",
".....@oo+oo.oo@o..O@ooo+  .ooXoooo +..Xooo..ooooX#",
".# oo#.ooo..oo@#o..Xo+oo.  .Xo ooooo..+o#ooO..ooo+",
"oo .oo#+oo.oX+oo@@@..@oo+   .#oo@.+X..oo+.@oo@Xooo",
"o.  .Xooo.#oO.ooo+oo..o@+    + ooo@+..oooo..Ooo@.#",
"o. +..#o..o#ooo.Ooo.O..#O#    +.ooo..oo.+ooO.oooo#",
"o..ooo.Oooo..oo#.oooOo..@ #+  @ooo+.. oo@.#ooo# oo",
"ooooXoo@o.oooo#ooX.ooOo...@oo.OO@@...@OOOo@@...oo.",
"Xo@+..Oooo#XoX.#oo.oo.oo.o.o@@ + ...oo   OOo...o.O",
"ooo+  .ooooo#ooo@Xoo.Ooo#o..OoXoO+..oooO#oXoo#oXo.",
"o     .ooX.oo#oo.+o@#o+oooO..o oo..oooXoo...oooo@.",
"o#+    #oo..@ooXooo.oo.Oo.@o..O@X..ooo.oooo+.@oo.#",
"o +    .OooO.+oooo.@o.+.oO.Xo.....ooo.Oo. ooO.X..@",
"oo+.@+Oo.o oo+.Oo++@oooooo.o@o...O@oooo@+.oooo..XX",
"Xoooo#.ooo..oo#oO+ .XooO.ooooo....oo.oo.+oo.X .ooo",
"..+#ooOo+oo#.@oX.   .....#o@O+O.X..@oo. +#oo+.oooo",
" +..oooo..Ooooo...++@ooooooo@..@@oo..o@+ +#X.Xooo@",
"+Ooooo.oooO@oo+Xooooooooo..@X..@Xo+o..@O+@o.O@.#++",
"oooO.ooooooooooooo#oX..ooooo..o#o +oo...oo..@+    ",
"++.@ooo+oo.o..o+...ooooooooo.#ooo.oo.oo....X+     ",
"+.ooo.#oo.oo..oooooooXX+o. ..X#oooo @o@o..o+     +",
"oooo.+oooooooooooX+.o ..ooO..oo@.oo#X.o..O#     +O",
"oooo+ooX.ooXo+oo.+.Xoooooo... oX#oooo.O.o++    +@O",
"@oXOoo X.o+..+ooooooXOo@oX..#oooO@o..o..oo.     oo",
"oo.Oo.o@oooooooooX....XXo...@oX o@..o..@.oo. + o .",
"o. o  o.ooXX....@@.oooooo#...oX+oo.o..o +.oX #o@.o",
"oooX.o. oo O.@XooooXOO.oX@. ooooo o..O   +.oOo.ooX",
".oo. o.o@@ooooooo...+o.ooO.@oOoOOX..@#    +O..ooo.",
"Oo. @.@o.#oO++.Oo#o .o.o@X.. +o+ X.O@+      Ooo.Oo",
"o#+#XOoo@oo.  +ooo@ .oooo@..#+ooO..@+      ++oo..X",
"o.+o#OoOoo    +ooO..oo#oX@..# +o..o.         .oo.+",
"oOXo.oX..##.+ +o@.Xooo.o#+.o+ @..ooo+         .ooo",
".oo Xo. @O@o@ #@o OXoX.o@#.X+@..o+ oo        +oooo"};
