/* XPM */
static char * scsi_xpm[] = {
"32 32 10 1",
" 	s None	c None",
".	c grey4",
"X	c grey76",
"o	c white",
"O	c magenta4",
"+	c grey89",
"@	c grey39",
"#	c grey51",
"$	c grey7",
"%	c grey64",
"                                ",
"                                ",
"             .                  ",
"            .X..                ",
"           .XXXX..              ",
"          .XXoXXXX..            ",
"         .XXoOOOXXXX..          ",
"        .XXoOOOOOOXXXX..        ",
"       .XXoOOOOOOOOOXXXX..      ",
"      .XXoOOOOOOOOOOOOXXXX..    ",
"     .XXoOOOOO..................",
"    .XXoOOOOO..XXXXXXXXXXXX+XXX.",
"   .XXoOOOOO.@.oooooooooooooooo.",
"  .XXoOOOOO.@#.OOOOOOOOO$..OOOO.",
" .XXX..OOO.###.OOOOOOOO.XXX.OOO.",
".ooXXXX...###+.OOOOOOO.XXXo.OOO.",
".%%ooXXXX..#++.OOOOOO.XXXoO.OOO.",
".%%%%ooXXXX..+.OOOOO.XXXoOO.OOO.",
".%%%%%%ooXXXX.......XXXoOOO.OOO.",
".%%%%%%%%ooXXXX..+.XXXoOOOO.....",
".%%%%%%%%%%ooXXXX.XXXoOOOOO.    ",
".%%%%%%%%%%%%ooXXXXXoOOOOOO.@#  ",
" ..%%%%%%%%%%%%ooXXoOOOOOO.@##  ",
"   ..%%%%%%%%%%%%ooOOOOOO.@##   ",
"     ..%%%%%%%%%%%OOOOOO.###    ",
"       ..%%%%%%%%%OOOOO.#@#     ",
"         ..%%%%%%%OOOO.###      ",
"           ..%%%%%OOO.###       ",
"             ..%%%OO.###        ",
"               ..%O.#@#         ",
"                 ..@##          ",
"                                "};
