/* XPM */
static char *32_sdd[] = {
/* width height num_colors chars_per_pixel */
"    32    32       11            1",
/* colors */
". c #000000",
"# c #800000",
"a c #808000",
"b c #000080",
"c c none",
"d c #c0c0c0",
"e c #808080",
"f c #ff0000",
"g c #0000ff",
"h c #00ffff",
"i c #ffffff",
/* pixels */
"ccc....................ccccccccc",
"ccc.iiiiiiiiiiiiiiiiii..cccccccc",
"ccc.ibbbbbiiiiiiiiiiii.i.ccccccc",
"ccc.ibbbbb###eiiiiiiii.ii.cccccc",
"ccc.ibbbbbfff##iiiiiii.iii.ccccc",
"ccc.ibbbbbiifffeiiiiii.iiii.cccc",
"ccc.ibbbbbffff#.iiiiii.......ccc",
"ccc.ibbbbbfffff.iiiiiiiiiiii.ccc",
"ccc.ibbbbbffff#.iiiiiiiiiiii.ccc",
"ccc.ibbbbffff#f.iiiiiiiiiiii.ccc",
"ccc.ibbbi#ff#f.eiiiiiiiiiiii.ccc",
"ccc.ibbbii##f..ii.........ii.ccc",
"ccc.ibbiiiiiiiiii.eeeeeee.ii.ccc",
"ccc.ibbiiiiiiieei.hhhhhhh.ii.ccc",
"ccc.ibbiiiiiieidi.hiihhhh.ii.ccc",
"ccc.ibbiiiiiiedid.hihhhhh.ii.ccc",
"ccc.ibbiiiiiedidi.hhhhhhh.ii.ccc",
"ccc.ibbiiiiieidid.eeeeeee.ii.ccc",
"ccc.ibbbiiieididi.........ii.ccc",
"ccc.ibbbiiiedi.idididididiii.ccc",
"ccc.ibbbbiididi..diaeaididei.ccc",
"ccc.ibbbbbiid.didifeaeeideii.ccc",
"ccc.ibbbbbidid..id#fgbgdieii.ccc",
"ccc.ibbbbbiididi.if#bgbieiii.ccc",
"ccc.ibbbbbieidididifgbideiii.ccc",
"ccc.ibbbbbiieedidididideiiii.ccc",
"ccc.ibbbbbiiiieeidididieiiii.ccc",
"ccc.ibbbbbiiiiiieedidieiiiii.ccc",
"ccc.ibbbbbiiiiiiiieeideiiiii.ccc",
"ccc.ibbbbbiiiiiiiiiieeiiiiii.ccc",
"ccc.iiiiiiiiiiiiiiiiiiiiiiii.ccc",
"ccc..........................ccc"
};
