/* XPM */
static char * Sds_m_pm[] = {
/* width height ncolors cpp [x_hot y_hot] */
"32 32 8 1 0 0",
/* colors */
" 	s none	m none	c none",
".	s iconColor1	m black	c black",
"X	s iconColor2	m white	c white",
"o	c #000000008617",
"O	c #C71BC30BC71B",
"+	s iconColor6	m white	c yellow",
"@	c #00000000FFFF",
"#	c #861700000000",
/* pixels */
"   ....................         ",
"   .XXXXXXXXXXXXXXXXXX..        ",
"   .XoooooXX.XXXXXXXXX.X.       ",
"   .XoooooX..XXXXXXXXX.XO.      ",
"   .XoooooXX.XXXXXXXXX.XXX.     ",
"   .XoooooXX.XXXXXXXXX.XXXX.    ",
"   .XoooooX...XXXXX..........   ",
"   .XoooooXX.XXXX..X+.@..XXX.   ",
"   .XoooooXX.XXX.+X+X.@@@.XX.   ",
"   .XooooXX..XXX.X+X+.@@@.XX.   ",
"   .XoooXXXX.XX.X+X+X.@@@@.X.   ",
"   .XoooXXXX.XX.+X+X+.@@@@.X.   ",
"   .XooXXXX...X.X+X+.......X.   ",
"   .XooXXXXX.XX.+X+.# # # .X.   ",
"   .XooXXXXX.XXX.+.# # # .XX.   ",
"   .XooXXXX..XXX..# # # #.X@.   ",
"   .XooXXXXX.XXXX..# # ..X@X.   ",
"   .XooXXXXX.XXXXXX....XXX@X.   ",
"   .XoooXXX...XXXXXXXXXXX@XX.   ",
"   .XoooXXXX.XXXX@@XXXXXX@XX.   ",
"   .XooooXXX.XXXX@@XXXXX@XXX.   ",
"   .XoooooX..XXX@XX@XXXX@XXX.   ",
"   .XoooooXX.XXX@XXX@XX@XXXX.   ",
"   .XoooooXX.XX@XXXXX@@@XXXX.   ",
"   .XoooooX..X@@XXXXXX@@XXXX.   ",
"   .XoooooXX.X@@XXXXXXXXXXXX.   ",
"   .XoooooXX.XXXXXXXX.XXXXXX.   ",
"   .XoooooXX...............X.   ",
"   .XoooooXXXXX.XX.XX.XX.XXX.   ",
"   .XoooooXXXXXXXXXXXXXXXXXX.   ",
"   .XXXXXXXXXXXXXXXXXXXXXXXX.   ",
"   ..........................   "};
