/* XPM */
static char *32_sdw[] = {
/* width height num_colors chars_per_pixel */
"    32    32        5            1",
/* colors */
". c #000000",
"# c #000080",
"a c #c0c0c0",
"b c none",
"c c #ffffff",
/* pixels */
"bbb....................bbbbbbbbb",
"bbb.cccccccccccccccccc..bbbbbbbb",
"bbb.c#####cccccccccccc.c.bbbbbbb",
"bbb.c#####cccccccccccc.ca.bbbbbb",
"bbb.c#####cccccccccccc.ccc.bbbbb",
"bbb.c#####cc..c.c......cccc.bbbb",
"bbb.c#####cccccccccccc.......bbb",
"bbb.c#####c....cc...c..c.ccc.bbb",
"bbb.c#####cccccccccccccccccc.bbb",
"bbb.c####c.c..c.c..c.c..c.cc.bbb",
"bbb.c###cccccccccccccccccccc.bbb",
"bbb.c###c.c...c...c.c...c.cc.bbb",
"bbb.c##ccccccccccccccccccccc.bbb",
"bbb.c##c..c.c...c..c..c...cc.bbb",
"bbb.c##ccccccccccccccccccccc.bbb",
"bbb.c##c.c.....c....c..c..cc.bbb",
"bbb.c##ccccccccccccccccccccc.bbb",
"bbb.c##c..c...c..c...c..cccc.bbb",
"bbb.c###cccccccccccccccccccc.bbb",
"bbb.c###c...c..c.c.c.c.c..cc.bbb",
"bbb.c####ccccccccccccccccccc.bbb",
"bbb.c#####c..c...c....c.c.cc.bbb",
"bbb.c#####cccccccccccccccccc.bbb",
"bbb.c#####c.c..c....c..c..cc.bbb",
"bbb.c#####cccccccccccccccccc.bbb",
"bbb.c#####c...cc...c...cc.cc.bbb",
"bbb.c#####cccccccccccccccccc.bbb",
"bbb.c#####c...c.c...cc..c.cc.bbb",
"bbb.c#####cccccccccccccccccc.bbb",
"bbb.c#####cccccccccccccccccc.bbb",
"bbb.cccccccccccccccccccccccc.bbb",
"bbb..........................bbb"
};
