/* XPM */
static char * sounds_xpm[] = {
"32 32 35 1",
" 	c None",
".	c #808000",
"+	c #000000",
"@	c #CFCF60",
"#	c #C0C0C0",
"$	c #808080",
"%	c #9F9F60",
"&	c #E0E0E0",
"*	c #FFFFFF",
"=	c #FFFFCF",
"-	c #EFEFEF",
";	c #B0B0B0",
">	c #9F9F9F",
",	c #707070",
"'	c #FFFF9F",
")	c #0F0F0F",
"!	c #404040",
"~	c #0000FF",
"{	c #00FFFF",
"]	c #0000CF",
"^	c #3F3F3F",
"/	c #00009F",
"(	c #000080",
"_	c #9F9F00",
":	c #000030",
"<	c #303030",
"[	c #505050",
"}	c #5F5F5F",
"|	c #F0F0F0",
"1	c #DFDFDF",
"2	c #D0D0D0",
"3	c #CFCFCF",
"4	c #00FF00",
"5	c #008000",
"6	c #606060",
"                     .++        ",
"                    .@+#$    $  ",
"                   .@%+#$   $   ",
"                  .@@+#&*$ $    ",
"      $$$$$$$$$$$.@=%+#-*$      ",
"     $#;#>>>>>$,.@='%)#&*$     $",
"    $**********.@='%)!#-&*$  $$ ",
"   $*########...=*'%++#&-*$ $   ",
"   $*#$$$$$$.==.**'%+*$&-*$     ",
"   $*#++++++.=*.'''%+#$+&*$     ",
"   $*#+~~~~~.=@.@'@%+$,+-*$ $$$$",
"   $*#+~{~~].@@.'@'%+++#-*$     ",
"   $*#+~{~]~]...@'@%+^$#-*$     ",
"   $*#+~~]~]]]++.@@%+$#&&*$ $   ",
"   $*#+~~]]]]///+.@%+$#-*$   $$ ",
"   $*#+]]]]]/]//(+._^$#-*$     $",
"   $*#+~]]]]////((+..+;-*$      ",
"   $*#+]]]////(((((+.+#-$  $    ",
"   $*#::::::::::::::+.+#$   $   ",
"   $*#***************++++    $  ",
"   $*################$$+<^      ",
"   $$$$$$$$$$$$$$$$$$,+<<#+     ",
"   $++++++++++++++++++<<#[+     ",
" $$,<<<<<<<<<<<<<<<<<<<#[[+     ",
"$**********************}}[+     ",
"$*||--&&&11122333######}[[+     ",
"$*||--&&1122,$$$$$$$$##}}[+     ",
"$*|-44&&1122+++++++++#;}[}+     ",
"$*|-55&&11222333#######}}}+     ",
"$*|--&&&112233333######}}+      ",
"66666666666666666666666}+       ",
" +++++++++++++++++++++++        "};
