/* XPM */
static char * stars_xpm[] = {
"32 32 12 1",
" 	c grey4",
".	c white",
"X	c red1",
"o	c magenta1",
"O	c yellow1",
"+	c brown4",
"@	c grey76",
"#	c LimeGreen",
"$	c cyan1",
"%	c blue1",
"&	c green1",
"*	c magenta3",
"      .             X           ",
"  o                XOX      +   ",
"                  XO.OX         ",
"     @      #    XO...OX        ",
"    @.@           XO.OX         ",
"     @             XOX        @ ",
"                    X     O     ",
"                                ",
"            @                   ",
"   #                        $   ",
"       $         %    @         ",
"                           #    ",
"    %        &                  ",
"                                ",
"                                ",
"      X             O        .  ",
"     X.X                %       ",
"      X       @        %$%      ",
"                      %$.$%   % ",
"                       %$%      ",
"         %        &     %       ",
"  &          $                  ",
"                                ",
"                         @      ",
"                 $              ",
" X        &                 #   ",
"         &#&                    ",
"        &#.#&          %        ",
"         &#&                    ",
"   +      &       X             ",
"                        o     * ",
"             .                  "};
