/* XPM */
static char * tetris_xpm[] = {
"32 32 6 1",
" 	s None	c None",
".	c grey4",
"X	c green1",
"o	c yellow1",
"O	c red1",
"+	c blue1",
"              .     .     .     ",
"              .     .     .     ",
"              .     .     .     ",
"              .     .     .     ",
"           .....................",
"              .     .     .     ",
"           .....................",
"                                ",
"   .   .   .....................",
"   .   .   .....................",
"   .   .   ..XXXXXXX..oooooooo..",
"   .   .   ..XXXXXXX..oooooooo..",
"   .   .   ..XXXXXXX..oooooooo..",
".......... ..XXXXXXX..oooooooo..",
"   .   .   ..XXXXXXX..oooooooo..",
".......... ..XXXXXXX..oooooooo..",
"   .   .   ..XXXXXXX..oooooooo..",
"           ..XXXXXXX..oooooooo..",
"................................",
"................................",
"..OOOOOOOOO..+++++++..          ",
"..OOOOOOOOO..+++++++..          ",
"..OOOOOOOOO..+++++++..          ",
"..OOOOOOOOO..+++++++..          ",
"..OOOOOOOOO..+++++++..          ",
"..OOOOOOOOO..+++++++..          ",
"..OOOOOOOOO..+++++++..          ",
"..OOOOOOOOO..+++++++..          ",
"..OOOOOOOOO..+++++++..          ",
"......................          ",
"......................          ",
"                                "};
