/* XPM */
static char * TrueDie_xpm[] = {
"48 48 9 2",
"  	c None",
". 	c grey51",
"X 	c grey89",
"o 	c grey64",
"O 	c grey76",
"+ 	c grey26",
"@ 	c grey39",
"# 	c grey13",
"$ 	c grey7",
"                                                                                                ",
"                                                                                                ",
"                                                                                                ",
"                                    . . . . . . . . . . .                                       ",
"                              . . X X X X X X X X X X X X . . .                                 ",
"                          . . X X X X X o O X X X X X X X X X X . .                             ",
"                        . X X X X X X X . + . O O X X X X o O X X . .                           ",
"                      . X X X X X X X X X O . @ o O X X O o @ . X X X .                         ",
"                    . X X X X X X X X X X X X X X X X X X X X o o X X X .                       ",
"                  . X X X O O X X X X X X X X X X X X X X X X X X X X X X .                     ",
"                  X O o @ # + @ o X X X X X X X X X X X X X X X X X X X X X .                   ",
"                O o . @ # # # # @ o O X X X X X X X X X o O X X X X X X O O X .                 ",
"              o o . . @ # # # # + @ o O X X X X X X X X o + . O X X X X X @ . O .               ",
"            @ . . . . . # # # # + @ . . O X X X X X X X X O . + o X X X X O . @ O .             ",
"            . . . . o O # # # # + @ @ . . o X X X X X X X X X O O X X X X X X X X X .           ",
"          @ @ . . . . O . # # # + @ @ @ @ @ o X X X X X X X X X X X X X X X X X X X X .         ",
"          @ . . . @ @ @ o o . @ @ @ @ + + # + . X X X X X X X X X X X X X X X X X X X .         ",
"        + @ . . @ + # # @ . . @ @ @ @ + # # # # O X X X X X X X X X X X X X X X X X X X .       ",
"        @ @ . . + # $ # # @ . @ . . . + # # $ # @ X X X X X X X X X X X X X X X X X X X .       ",
"      + @ . . . + # # # # + @ @ . . o + # # # # + O X X X X X X X X X X X X X X X X X X .       ",
"      + @ @ . . + # # # # + @ @ @ . O @ # # # # + o X X X X X X X X X X X X X O o . o O .       ",
"      @ @ . . o @ # # # # @ . . . . O o # # # # + o X X X X X X X X X X X O @ + + + @ . .       ",
"    @ @ @ @ . . . # $ # + @ . . . @ o X @ # $ # @ o X X X X X X X X X X . + + # + + + @ .       ",
"    @ @ @ @ @ . o o . . . . . . @ + + . X o @ @ . o X X X X X X X X O @ + + + + + + + @ .       ",
"    @ @ @ + # # @ o O o . . . @ + # # # @ O o . . o X X X X X X X O @ # + # + + + # # @ .       ",
"    @ @ @ # # # # @ . . . @ . @ # # # # # @ . . . o X X X X X X O + # # + + + + # # # o         ",
"    @ @ . # $ # # + . . . @ . @ # # # # # + @ @ . o X X X X X O + # # + + + + + # # +           ",
"    @ . . # # # # + @ . . . . . # # # # # + @ . . o X X X X X @ # + + + + + + + # + o           ",
"      . . + # # # # @ . . . . . # # # # # + @ . . o X X X X . + + + + + + + + + @ .             ",
"      + @ . # # # + @ @ @ @ @ . + # # # # + @ . . o X X X o + + + + + + + + @ @ @ o             ",
"        @ . . + @ @ . @ @ @ @ @ @ + # + @ @ @ . . O X X O @ + + + + @ @ @ @ @ . .               ",
"        + + . . . . . @ @ + + + @ . o . . @ . . o O X O . + + + @ @ @ @ @ @ @ @                 ",
"        + @ + @ . . . @ + # # # + @ @ . . . . . o o o @ + + @ @ @ @ @ @ @ @ @ @                 ",
"          + + + @ @ @ @ # # # # # + @ @ @ @ @ . . . . @ + + @ @ @ @ @ @ @ @ o                   ",
"          + + + + @ . o + # # # # + @ @ @ @ @ . . @ @ @ @ @ @ @ @ @ @ @ @ . .                   ",
"            + + + @ . O + # # # # + @ @ @ @ @ @ @ @ @ @ + + @ @ @ @ @ . . .                     ",
"              + + + @ o . # # # # # + + @ @ @ + + @ @ + # # + @ @ @ @ . .                       ",
"                + @ + @ O + # # # + + + + + + + + @ + # # + @ @ @ . . .                         ",
"                  @ . + @ o . + + + + + + # + + @ @ # # # @ @ @ . . .                           ",
"                    @ + + + @ + + # # # # + + + @ + # # + @ . . . o                             ",
"                        @ + + # # # # # # # + + @ # # @ @ @ . . o                               ",
"                            @ + @ + # + # + + @ @ @ . . . . .                                   ",
"                                @ + + # # # @ @ . @ . . . o                                     ",
"                                        @ @ @ @ @                                               ",
"                                                                                                ",
"                                                                                                ",
"                                                                                                ",
"                                                                                                "};
