/* XPM */
static char * Write_xpm[] = {
"48 48 14 1",
" 	c None",
".	c brown4",
"X	c orange3",
"o	c grey26",
"O	c white",
"+	c goldenrod1",
"@	c yellow4",
"#	c grey4",
"$	c grey13",
"%	c grey7",
"&	c grey64",
"*	c grey76",
"=	c grey51",
"-	c grey39",
"                                                ",
"                                             .X ",
"                                            .XX ",
" oooooooooooooooooooooooooooooooooooooooooo.XXX ",
" oOOOOOOOOOOOOOOOOOOOOOOOOOOOOOOOOOOOOOOOO.+X+. ",
" oOOOOOOOOOOOOOOOOOOOOOOOOOOOOOOOOOOOOOOO.XXX.. ",
" oOOOOOOOOOOOOOOOOOOOOOOOOOOOOOOOOOOOOOO.XX+... ",
" oOOOOOOOOOOOOOOOOOOOOOOOOOOOOOOOOOOOOO.XXX.... ",
" oOOOOOOOOOOOOOOOOOOOOOOOOOOOOOOOOOOOO.+X+...@. ",
" oOOOo#O#oooOOooo#oOoooooOo#oooOooooO.XXX...... ",
" oOOOOOOOOOOOOOOOOOOOOOOOOOOOOOOOOOO.XX+......$ ",
" oOOOoooo#ooOooOoo#oooo#ooOOOOOOOOO.XXX......%$ ",
" oOOOOOOOOOOOOOOOOOOOOOOOOOOOOOOOO.+X+...@..$$$ ",
" oOOOoooooOoooooo#ooooOooo#oooo&O.XXX......$$$$ ",
" oOOOOOOOOOOOOOOOOOOOOOOOOOOOOOO.XX+......$$$$$ ",
" oOOOOOOoo#oo#ooooOoooooooo#O&O.XXX......%$$$%# ",
" oOOOOOOOOOOOOOOOOOOOOOOOOOOOO.+X+...@..$$$$$#  ",
" oOOOo#oo#ooo#oooooooOooooo&O.XXX......$$$$$#   ",
" oOOOOOOOOOOOOOOOOOOOOOOOOOO.XX+......$$$$$#o   ",
" oOOOooOoooOoooooo#ooooOo&O.XXX......%$$$%#$o   ",
" oOOOOOOOOOOOOOOOOOOOOOOOO.+X+...@..$$$$$##$o   ",
" oOOO#ooooooOoOOOooOOoo&O.XXX......$$$$$#.#$o   ",
" oOOOOOOOOOOOOOOOOOOOOOO.XX+......$$$$$#.O#$o   ",
" oOOO#oOooo#oO#ooooOo&O.**X......%$$$%#.OO#%o   ",
" oOOOOOOOOOOOOOOOOOOOO.***...@..$$$$$#.OOO#%o   ",
" oOOOooo#oooooooooo#oO.***XXX..$$$$$#.&oOO#%o   ",
" oOOOOOOOOOOOOOOOOOOO=***XXX..$$$$$#.OOOOO#%o   ",
" oOOOooo#ooooooOOooOO.**XXX.oo$$$%#.OOOOOO#%o   ",
" oOOOOOOOOOOOOOOOOOO.**XXX.o$o$o$#.OOOOOOO#%o   ",
" oOOOOOOOOOooOoo#o&O.*XXX.o$o$oo#.OOOOOOOO#%o   ",
" oOOOOOOOOOOOOOOOOO=**XX.o$o$oo-.OOOOOOOOO#%o   ",
" oOOOoo#oooo#ooOo&O.*XX.o$ooo..XOOoooOOOOO#%o   ",
" oOOOOOOOOOOOOOOOO.XX=.oooo-.XOOOOOOOOOOOO#%o   ",
" oOOO##ooOooooooO&.X..o$o.-XOOOOOOOOOOOOOO#%o   ",
" oOOOOOOOOOOOOOOO#.-oo$o.XOOOOOOOOOOOOOOOO#%o   ",
" oOOOoooOo#ooo&Oo##$oo.XOOOOOOOOOOOOOOOOOO#%o   ",
" oOOOOOOOOOOOOOO####o.OOOOOOOOOOOOOOOOOOOO#%o   ",
" oOOOOOOOOOoooOo###o&&Oo#ooooOo#oooooOOOOO#%o   ",
" oOOOOOOOOOOOOO##oOOOOOOOOOOOOOOOOOOOOOOOO#%o   ",
" oOOO#Ooo#oooOo#ooo#ooooOooOoooOooo#oooOOO#%o   ",
" oOOOOOOOOOOOOO&&&&&OOOOOOOOOOOOOOOOOOOOOO#%o   ",
" oOOOOOOOOOOOOOO&&&&&&&OOOOOOOOOOOOOOOOOOO#%o   ",
" oOOOOOOOOOOOOOOO&&&&&&&&&OOOOOOOOOOOOOOOO#%o   ",
" oOOOOOOOOOOOOOOOO&&&&&&&&&&&OOOOOOOOOOOOO#%o   ",
" o#########################################%o   ",
"  $$$$$$$$$$$$$$$%%%%%%%%%%%%%%%%%%%%%%%%%%%o   ",
"   oooooooooooooooooooooooooooooooooooooooooo   ",
"                                                "};
