/* XPM */
static char * wuerfel_xpm[] = {
"32 32 25 1",
" 	s None	c None",
".	c grey4",
"X	c yellow1",
"o	c white",
"O	c DarkOrange1",
"+	c firebrick3",
"@	c goldenrod1",
"#	c grey7",
"$	c cyan1",
"%	c grey89",
"&	c cyan3",
"*	c grey13",
"=	c blue3",
"-	c red1",
";	c magenta4",
":	c blue1",
">	c blue4",
",	c grey64",
"<	c LimeGreen",
"1	c green1",
"2	c brown4",
"3	c orange3",
"4	c grey51",
"5	c grey39",
"6	c grey26",
"               ..               ",
"              .Xo..             ",
"             .XXXXo..           ",
"            .XXXXXX.O..         ",
"           ...XXXX.O+@O#.       ",
"          .$%%..X.O+XO+O...     ",
"         .%%&%%$..OO+@+*===..   ",
"        .%&%%$%.--##@+.======.  ",
"       .&.#%&%.--++-..======;.  ",
"      .=$=&...+-++-+.:..===;;.  ",
"     .&$=$=$...+-++.::::..;>,.  ",
"     .oo$=$.<11..+.::::::>.,;.  ",
"     .:&oo.<..1<<...::::>>.;;.  ",
"     .&&:.o.++.<.XXX..:>>>*>..  ",
"     .::&.<.%++.XXXXXX.>>>.*X.  ",
"     .&&:..-+%+.oXXXXO.>>>.XO.  ",
"     ...&..+22.OOooXOO.>>..OO.  ",
"     .:;..+++2.323OOOO.>.+.OO.  ",
"     .;:=*+22..333+OOO..-2.O..  ",
"     .:;*++22..333@OOO.+22..:.  ",
"  .......-22.:...3+OO..222.:>.  ",
" .+++.@.-+22.:.>>..O.;.*2..>=.  ",
".+++%.X.+22.::.24>:.;>*2.@.:>.44",
".++%++.+++2....4>2=;;,..@@.:.444",
" .++%+++22.@@@..>2=;>,.@@@..444 ",
" .-+%+++22.@@@.5.*=;,..@@@.444  ",
"  .-+++22.@@@@.555*..5.@@.445   ",
"  .++++22...@@.565&555.@.454    ",
"   .++22.   ...555&555..444     ",
"   .+++2.     ..56&555.445      ",
"    .+2.44454466..&55.454       ",
"    ...44454445444...444        "};
