/* XPM */
static char * x11amp_icon14_xpm[] = {
"48 48 256 2",
"  	c None",
" .	c #020618",
" +	c #4884AE",
" @	c #1C446F",
" #	c #5B040C",
" $	c #7EC6EC",
" %	c #7C4427",
" &	c #0B2449",
" *	c #B18445",
" =	c #906335",
" -	c #5E2518",
" ;	c #31030D",
" >	c #9AAED4",
" ,	c #89230C",
" '	c #A64418",
" )	c #DDC272",
" !	c #AF632C",
" ~	c #5D3521",
" {	c #331316",
" ]	c #B69244",
" ^	c #7D532C",
" /	c #2F6392",
" (	c #D0E5F9",
" _	c #56A2CC",
" :	c #051228",
" <	c #7F090C",
" [	c #3A261C",
" }	c #C9A357",
" |	c #9C723E",
" 1	c #D7B463",
" 2	c #49040C",
" 3	c #5C140E",
" 4	c #C5853C",
" 5	c #762412",
" 6	c #76351C",
" 7	c #8D4421",
" 8	c #B37437",
" 9	c #624624",
" 0	c #CD984F",
" a	c #ABD7F4",
" b	c #8A3515",
" c	c #8F542C",
" d	c #4E98BC",
" e	c #133363",
" f	c #EAD27F",
" g	c #4A1413",
" h	c #3676A4",
" i	c #F7F3C7",
" j	c #A06735",
" k	c #9E5624",
" l	c #261514",
" m	c #1C030C",
" n	c #340B12",
" o	c #76A6D4",
" p	c #9ECAEC",
" q	c #B58B48",
" r	c #051B45",
" s	c #D9BB6B",
" t	c #C3742F",
" u	c #235284",
" v	c #4A3024",
" w	c #9F3514",
" x	c #D7A354",
" y	c #72140C",
" z	c #5F3C26",
" A	c #784C2B",
" B	c #762B16",
" C	c #905C32",
" D	c #8E6A3C",
" E	c #456597",
" F	c #F1E4A2",
" G	c #163B67",
" H	c #C7D9F1",
" I	c #7CBCE0",
" J	c #602D1C",
" K	c #C49B50",
" L	c #A67B3A",
" M	c #4B1C16",
" N	c #5C82B8",
" O	c #7E160C",
" P	c #4B251C",
" Q	c #743B22",
" R	c #020B1D",
" S	c #740A0C",
" T	c #D0AB5E",
" U	c #4A0C0C",
" V	c #D69844",
" W	c #B5591F",
" X	c #8E4E24",
" Y	c #6A94C4",
" Z	c #EDDB90",
" `	c #85CEEC",
". 	c #BC8444",
"..	c #AF4917",
".+	c #361C1C",
".@	c #C58D48",
".#	c #8C3B1A",
".$	c #3F0C10",
".%	c #F5ECB6",
".&	c #214C7B",
".*	c #2E222C",
".=	c #3F030C",
".-	c #E1CB7E",
".;	c #845B31",
".>	c #2E6A94",
".,	c #16142C",
".'	c #5E1C12",
".)	c #AF7C3F",
".!	c #CD9E52",
".~	c #4E75A6",
".{	c #FBFAE5",
".]	c #86A2CC",
".^	c #E0BC68",
"./	c #1B3C67",
".(	c #0D2B54",
"._	c #986436",
".:	c #6A341C",
".<	c #C49350",
".[	c #E1B663",
".}	c #A16E3A",
".|	c #200C0D",
".1	c #A1D0EE",
".2	c #121A34",
".3	c #C07A38",
".4	c #522A1E",
".5	c #120C20",
".6	c #844421",
".7	c #C26E30",
".8	c #021438",
".9	c #72B8E0",
".0	c #724F29",
".a	c #5D94C2",
".b	c #9A260C",
".c	c #96C4E0",
".d	c #9EBBDC",
".e	c #64AED4",
".f	c #558EBC",
".g	c #295A88",
".h	c #B0CEEC",
".i	c #93190C",
".j	c #AEE0F4",
".k	c #6D9DC7",
".l	c #9F3B14",
".m	c #5A8DB9",
".n	c #9F4C1F",
".o	c #AE6B34",
".p	c #3C7DAC",
".q	c #A05C2C",
".r	c #7BACD3",
".s	c #6D1C0E",
".t	c #5B0B0C",
".u	c #7B0F0C",
".v	c #8BB8DA",
".w	c #5E9ECC",
".x	c #DBAD5A",
".y	c #4E7EAC",
".z	c #8AADD1",
".A	c #16020A",
".B	c #704424",
".C	c #ABC2E4",
".D	c #562E22",
".E	c #6B3B23",
".F	c #682314",
".G	c #401414",
".H	c #6A2D1A",
".I	c #93D0EE",
".J	c #4A6A91",
".K	c #93CAEC",
".L	c #462A24",
".M	c #B85E22",
".N	c #6AA2CC",
".O	c #3D6BA1",
".P	c #841E0C",
".Q	c #700E0C",
".R	c #88532E",
".S	c #3B658F",
".T	c #A8753A",
".U	c #984218",
".V	c #D28E44",
".W	c #2E4E84",
".X	c #6A4A2C",
".Y	c #221A24",
".Z	c #80230F",
".`	c #803419",
"+ 	c #933614",
"+.	c #541513",
"++	c #844C28",
"+@	c #802B14",
"+#	c #541C14",
"+$	c #823A1C",
"+%	c #994B21",
"+&	c #A2B6DC",
"+*	c #8A2A14",
"+=	c #D3EAFC",
"+-	c #CCDEF4",
"+;	c #B64E1C",
"+>	c #55030C",
"+,	c #26020C",
"+'	c #540C0C",
"+)	c #7896C4",
"+!	c #A83C14",
"+~	c #305D88",
"+{	c #DA9E4C",
"+]	c #6EBEE4",
"+^	c #543624",
"+/	c #204688",
"+(	c #0E367C",
"+_	c #021D57",
"+:	c #113A79",
"+<	c #082A68",
"+[	c #9E2E0C",
"+}	c #975428",
"+|	c #BC8D4A",
"+1	c #2E567C",
"+2	c #6385B4",
"+3	c #C87B32",
"+4	c #020E2D",
"+5	c #FEFDF5",
"+6	c #8AC2E4",
"+7	c #B86428",
"+8	c #CFA557",
"+9	c #63130C",
"+0	c #4275A1",
"+a	c #A76835",
"+b	c #A85422",
"+c	c #82A2CC",
"+d	c #985C30",
"+e	c #986C38",
"+f	c #542319",
"+g	c #963A18",
"+h	c #E7CD7D",
"+i	c #B77B3F",
"+j	c #B8E0F8",
"+k	c #A84A1C",
"+l	c #66060C",
"+m	c #44231C",
"+n	c #3F1D1C",
"+o	c #BAD0EC",
"+p	c #BA6E34",
"+q	c #640A0C",
"+r	c #83120C",
"+s	c #E8D58D",
"+t	c #AA7C48",
"+u	c #B68546",
"+v	c #E2C676",
"+w	c #BE944D",
"+x	c #82522C",
"+y	c #366284",
"+z	c #0A122C",
"+A	c #A2743A",
"+B	c #6A4524",
"+C	c #0A1E44",
"+D	c #CA8D44",
"+E	c #223A6C",
"+F	c #628AC4",
"+G	c #FAF6DA",
"                                              +, ; ; ; ; ; ;+,                                  ",
"                                         m ;.= U U U 2 2.=.=.$.$ ;.A                            ",
"                                    .A ;.= g.'.H.H.F+9+9.'.'.H.H M.$.A                          ",
"                                   m ; U - 6 c._+a c.#.`.#+d._ =+++f n                          ",
"                                 m.= M.H c+A.< K+u.) 8.o+u K K |+e.E g.A                        ",
"                               m ; g.H X+A+w 1 ) 1 T.@.@ K 1 s } q.6 g ;                        ",
"                            .A.$ g - Q X.} K.-+s.- 1.  4+8.-+s 1 ].6 3.=                        ",
"                          +, ; g J.:.6+d.) T+h Z ) 1+D 0 s+s+s s+|.6 3 ;                        ",
"      .| n ; ;+,+, ;+, ; ;.$+# 6 % Q 7+%.o.! s.-.^.!.7+3+8 s.- 1 *.`+'.=                        ",
"   m+n P ~ P g.=.=.=.=.= 2 3 Q C.R.R 7 b+b.@ 1 ).x+D W+7.! s ) T 8 B+' ;                        ",
"   n.4+^ A A.H 3 2 2 2+> 3 B C+A C+d.#+*.n.@ T s T+3...M 0.x 1 } j 5 2 ;                        ",
"  .G ~.;.;+A+d.` y+l+l+q.Z c+u+A L+a b ,.U.@ T.x.!.7 ' W 0 T 1+w._.s 2 ;                        ",
"  .G.:+e+A q ].o+g.P O ,.n. +w q+u.q+* ,+%.@ } T.<.M.l.M.<+8+8 q X.' 2 ;                        ",
" m.$.H._ ] } T K.7 '+[+k.3.!+8 K. +%.P.Z.n.<.! }.@+b.l.M.< } K. .6 3.=+,                        ",
" ;.=.F C+w 1+v 1+{ t.M t.!.x 1.! 8+g O.P+%.< K 0. +k+g !+w K+w 8 6 U ;                          ",
"+,.= 3.#+| 1+h Z.^.x V.x.[.- s 0 !+*.u.Z k q+w+w.3.U+  !+|+w ] j B U ;                          ",
" ;.=.t+@ 8 T+h.% F f+h+h f Z s.V+k.P.u , k+u q+|.o b+ .o q q q C.F 2+,                          ",
"+,.=+' O+b V+v F i.%.% F F f 1.3 w+r S.Z.q+u * *.q b b+a * * *.R.' ; m                          ",
" ;.= # y.l 4.^ F+G+G i+G.%+h.x+7.b <.Q.Z+d * L.)+%+@ b+a * L L %+#.=.A                          ",
" ;.=+> < w t.[ Z+G+5+5.{.%+h+{...i < S+@.q L+A.) 7 5.`+e+A L+A.E g ;                            ",
" ;.=+> <+[.7.[ Z i+5+5.{ F+h V...i < S B+d.}._+A.`.s.`._+e | = J.$+,                            ",
" ;.=+> < w t.[ F.{+5+5.{.% f V...i S S+@+d+e+e+d.`.s.`._ = |.R -.$.A                            ",
" ; 2 # O...V.^ F.{.{+G.{.% f.x.M.b.u.Q B C = D c.H 3 6 =.; |.0 M ;                              ",
" ;.=.t ,+7 x+h i+G i.%.%.% Z.[+3 w+r.Q B c ^ C++.F.'.:.;.0 =.E g ;                              ",
" ; 2+q.# 4 1+s.% F Z+s+s Z Z s 0+b.Z y B.R.B =.E.'+#.: ^.0.;+^.G                                ",
".= 2.s+% 0 ) F F+h.^.x.[.^.-.^.!.o+@ y B X+B ^.H g+. ~.0.X.0 P n                                ",
" ; U B j+8 )+s+v.x.V.7+3 x 1 1.!.  7.F.H %.E.0 - U g ~ 9 9 z+n m                                ",
" ;+. 6.)+8 s.^.x 4 W+!.. t.! } K+u c B.H.E z.E M.G.$.4 z z+^.G                                  ",
" ;+#++ q ] } K+i ' ,+r.P.l.o+| L L._ 6.H ~ ~.4.G n.$ P v+^.L.|                                  ",
" n+f ^ |+A q.).U.Z S S+q 5 7.}+A = C.E J.4.D M n ;.|+m.L.L.+                                    ",
" n+f A.0+e._.6.F.t+>+>+>+'.F % C.0 A.E.4 P.L.+.5.5.,.Y [ [ l                             .      ",
"  +m+^+B ^.E+f U 2.=.=.=.= U+#.E.B ~.D P+m+n : & / d+z l l             .               . / R    ",
"   n+n P+f.G.= ;+,+,+,+,+,+, n.G P+m+n {.*+E +.j+=.I+4             . @ &             .+~ `+0 R  ",
"    .|.| m m m.A            .A m.|.|.|.Y G h.f.z+-.r R     R R   R./ _ e             e.v.h.d @ .",
"                                       R : r r+y H.f+4 .  .&+1.8.8 o.1+1           R+0 p.J p.f+C",
"                                         .+4+_.~ (+~ : R+4.e.w+<.O ( ( E         . G I.a+<.y.I @",
"                                       . r+E+F+- (.W+4+4 &.c.z N.C+& (.J R      .8.f.1 u+_+:.z.K",
"                                     : @.y.1 ( H (+E+4 : u o+c.d+o >+= E .     . @ a Y+:+/+0.d.j",
"                                 .+C +.9.K o+2.C.1 e+4.8.p.&.~.I N E+j.S R     :.k.C+).k.9 `.w.O",
"                               R /.N.m+~+/+(+/+o.r &+4 r u+_ @.p.( e $+y R  +4.g.h Y a.9 / e & .",
"                               h.e.v.k.a.f.O+F+-+2 r+4.(.( R R+4+4 r.p.g+4+4 e.v.] o G.8+4      ",
"                                 r @ +.a.r a H.d.~.8 . & :         R.& u+4 r.~+j.v @ R .        ",
"                                     . r e+~+2.I.S :   R             & G.8 G+6.v @ R            ",
"                                          +4 &.p.&     R             R+C r + `.g+4              ",
"                                               R R                     R G+]+~+4                ",
"                                                                      .8 d.g R                  ",
"                                                                       G / .                    ",
"                                                                     R e R                      "};
