/* XPM */
static char * zahnrad2_xpm[] = {
"32 32 11 1",
" 	s None	c None",
".	c grey4",
"X	c grey76",
"o	c blue3",
"O	c magenta4",
"+	c grey39",
"@	c blue4",
"#	c white",
"$	c yellow1",
"%	c yellow3",
"&	c yellow4",
"                .......         ",
"             .  .Xoooo.  .      ",
"            .o. .ooooX. .X..    ",
"           .ooo..oooXX..XoX.    ",
"           ..oXo.ooXXX.XoX..    ",
"         ....XooooXXoXXoXo....  ",
"         .ooXoooo.....XXooooo.  ",
"         .oXoooo.OOOOO.Xooooo.  ",
"         .XooooX.OOOOO.Xooooo.  ",
"         .....XXX.....XXX.....++",
"         .@@.XXXXXXXXXXXXX.@@.++",
"        ..@.XXX.XXXXXXX.XXX.@.++",
"       .#...XX.@.XXXXX.o.X.O..++",
"      .##..O...@.XXXXX.o..OO..++",
"     .###..OOO.@.XXXXX.o.OOO..++",
"    .#####.OOO.@.......o.OO...  ",
"   .######..OO.@.OX#oO.o.O.++#. ",
"  ..########.....OX#oO....++#.  ",
" ..$..########.+.OX#oO.+.++#.+++",
"...$$...########.......++##..++ ",
" +..$..$..################.XX.+ ",
"  +....$$...%%%%%%%%%%%%%.XX$..+",
"   +.&..$..$..%%%%%%%%%%.XX..+++",
"    +.&&...$$...$$$$$$$.X..++   ",
"     +.X&&..$..$..$$$$...++     ",
"      +.XX&&...$$...$..++       ",
"       +.$XX&&..$..$.++         ",
"        +.$$XX&&....++          ",
"         +.$$$$..+.++           ",
"          +.$..+++++            ",
"           +.++   +             ",
"            +                   "};
