/* XPM */
static char * closeA_xpm[] = {
"46 46 676 2",
"  	c None",
". 	c #293454",
"+ 	c #2A3354",
"@ 	c #2A3256",
"# 	c #293356",
"$ 	c #283255",
"% 	c #293357",
"& 	c #273359",
"* 	c #273457",
"= 	c #283353",
"- 	c #293452",
"; 	c #2A3553",
"> 	c #273456",
", 	c #27355A",
"' 	c #345275",
") 	c #EAD5D4",
"! 	c #CFB5B6",
"~ 	c #D3B5B5",
"{ 	c #D4B5B3",
"] 	c #D5B6B4",
"^ 	c #D8B6B4",
"/ 	c #D9B6B4",
"( 	c #DDB7B4",
"_ 	c #DEB6B4",
": 	c #DFB8B3",
"< 	c #DFBAB4",
"[ 	c #DEBBB7",
"} 	c #DDBBB9",
"| 	c #DBBCB9",
"1 	c #DEBBB9",
"2 	c #E0BBB5",
"3 	c #E0BAB7",
"4 	c #DDBBBA",
"5 	c #E0B8B6",
"6 	c #DFB7B5",
"7 	c #D9B5B5",
"8 	c #D8B6B5",
"9 	c #D7B5B3",
"0 	c #D5B5B6",
"a 	c #D2B6B5",
"b 	c #E4CFCE",
"c 	c #385778",
"d 	c #385779",
"e 	c #80737D",
"f 	c #EFD1D1",
"g 	c #D4B1AF",
"h 	c #DAAEAD",
"i 	c #DBAEAB",
"j 	c #DEAEAC",
"k 	c #DFAEAA",
"l 	c #E1AEAA",
"m 	c #E4AFAB",
"n 	c #E5AEAB",
"o 	c #E8AEAA",
"p 	c #E9B0A9",
"q 	c #E5B0AA",
"r 	c #E2B2AE",
"s 	c #DAB8B7",
"t 	c #D8B8B9",
"u 	c #DAB6B6",
"v 	c #DFB6B4",
"w 	c #E4B3AF",
"x 	c #E4B4B0",
"y 	c #DDB6B7",
"z 	c #DAB8B9",
"A 	c #DBB7B7",
"B 	c #E3B2AE",
"C 	c #E6B1AD",
"D 	c #E9AFAB",
"E 	c #E6AFAC",
"F 	c #E2AFAB",
"G 	c #E1AEAB",
"H 	c #DEAEAA",
"I 	c #D7AFAF",
"J 	c #E7CBC8",
"K 	c #4B4A5A",
"L 	c #3B5C7C",
"M 	c #3C5C7C",
"N 	c #3C5C7D",
"O 	c #85706F",
"P 	c #52474B",
"Q 	c #406180",
"R 	c #856D6D",
"S 	c #544447",
"T 	c #436684",
"U 	c #446684",
"V 	c #83696A",
"W 	c #F1CDCD",
"X 	c #D5A9A8",
"Y 	c #DAA7A4",
"Z 	c #DEA7A4",
"` 	c #E0A6A4",
" .	c #E1A7A5",
"..	c #E4A9A5",
"+.	c #E4A7A2",
"@.	c #E7A8A3",
"#.	c #E7A8A1",
"$.	c #EBA8A2",
"%.	c #ECA7A0",
"&.	c #E7AAA5",
"*.	c #A17373",
"=.	c #997778",
"-.	c #694F52",
";.	c #684F52",
">.	c #6B4E50",
",.	c #D9B0AE",
"'.	c #9D7575",
").	c #6C4E50",
"!.	c #6C4D52",
"~.	c #9C7578",
"{.	c #A47271",
"].	c #E7ACA8",
"^.	c #EAA9A3",
"/.	c #E8A7A1",
"(.	c #E3A8A4",
"_.	c #E1A7A3",
":.	c #DEA7A2",
"<.	c #D7A7A5",
"[.	c #E9C7C5",
"}.	c #544145",
"|.	c #476B88",
"1.	c #466B88",
"2.	c #816564",
"3.	c #EFC9C8",
"4.	c #D0A3A0",
"5.	c #D8A19E",
"6.	c #DBA09C",
"7.	c #DC9F9C",
"8.	c #DDA09B",
"9.	c #DFA09B",
"0.	c #E1A09A",
"a.	c #E3A09A",
"b.	c #E3A098",
"c.	c #E7A09A",
"d.	c #E7A199",
"e.	c #EAA19A",
"f.	c #E0A5A1",
"g.	c #6F4C50",
"h.	c #645157",
"i.	c #FFFBFF",
"j.	c #FFFDFF",
"k.	c #FFFCFF",
"l.	c #5E5357",
"m.	c #8A797F",
"n.	c #625157",
"o.	c #FFFCFD",
"p.	c #FFFAFF",
"q.	c #664F55",
"r.	c #734B4C",
"s.	c #DDA5A4",
"t.	c #E6A39D",
"u.	c #E5A099",
"v.	c #D5A29F",
"w.	c #E5C2C0",
"x.	c #513E42",
"y.	c #4A708C",
"z.	c #4B708C",
"A.	c #7F5F60",
"B.	c #EEC6C6",
"C.	c #CC9C9A",
"D.	c #D39997",
"E.	c #D79893",
"F.	c #D89793",
"G.	c #D99892",
"H.	c #DB9892",
"I.	c #DD9891",
"J.	c #DF9892",
"K.	c #E09A92",
"L.	c #E39892",
"M.	c #E59B92",
"N.	c #E79A92",
"O.	c #DF9E98",
"P.	c #9B6E71",
"Q.	c #8E7378",
"R.	c #615257",
"S.	c #FDFCFF",
"T.	c #58555C",
"U.	c #FEFCFF",
"V.	c #FFFBFD",
"W.	c #625255",
"X.	c #917375",
"Y.	c #9E6E6E",
"Z.	c #E39D95",
"`.	c #E29992",
" +	c #E09993",
".+	c #DC9993",
"++	c #D69792",
"@+	c #D09B97",
"#+	c #E4BEBB",
"$+	c #4F3B3D",
"%+	c #4E7690",
"&+	c #4E7590",
"*+	c #4E758F",
"=+	c #7C5A59",
"-+	c #EAC1BF",
";+	c #C69390",
">+	c #CE918E",
",+	c #D1908A",
"'+	c #D3908A",
")+	c #D59089",
"!+	c #D7908A",
"~+	c #D99089",
"{+	c #DB908A",
"]+	c #DC9289",
"^+	c #E0918A",
"/+	c #E2948A",
"(+	c #E3938A",
"_+	c #E3948D",
":+	c #DF9690",
"<+	c #D59A96",
"[+	c #966E6F",
"}+	c #665053",
"|+	c #FEF8FC",
"1+	c #F9FAFE",
"2+	c #FAFAFC",
"3+	c #FBF9FC",
"4+	c #FDF8FF",
"5+	c #645155",
"6+	c #996D6C",
"7+	c #D69994",
"8+	c #DD9690",
"9+	c #E2958D",
"0+	c #DF928A",
"a+	c #DE9189",
"b+	c #DA8F89",
"c+	c #CC928E",
"d+	c #E1B8B4",
"e+	c #4C3639",
"f+	c #517A94",
"g+	c #527A93",
"h+	c #527B93",
"i+	c #7A5453",
"j+	c #EDBBBA",
"k+	c #C48784",
"l+	c #CB847E",
"m+	c #D2857D",
"n+	c #D4857E",
"o+	c #D6867D",
"p+	c #D9867E",
"q+	c #DA867C",
"r+	c #DD867C",
"s+	c #DE867C",
"t+	c #E0867B",
"u+	c #E2867B",
"v+	c #E7877B",
"w+	c #E8867B",
"x+	c #EB867A",
"y+	c #E18A81",
"z+	c #CD9190",
"A+	c #8F6C70",
"B+	c #E8E9EB",
"C+	c #E9E9EB",
"D+	c #EBE9EC",
"E+	c #5B545C",
"F+	c #886D72",
"G+	c #D2918B",
"H+	c #E28A80",
"I+	c #E8887C",
"J+	c #E88679",
"K+	c #E6867A",
"L+	c #E4867A",
"M+	c #E3877C",
"N+	c #DD867D",
"O+	c #D8857D",
"P+	c #D5857C",
"Q+	c #D3867E",
"R+	c #C9867E",
"S+	c #E1B1AD",
"T+	c #4B3134",
"U+	c #567F97",
"V+	c #557F97",
"W+	c #557F98",
"X+	c #5B2B2B",
"Y+	c #DB9B99",
"Z+	c #954842",
"`+	c #9F453D",
" @	c #A4433A",
".@	c #A7453A",
"+@	c #AB463A",
"@@	c #AC463A",
"#@	c #AF473A",
"$@	c #B3473A",
"%@	c #B64839",
"&@	c #B94838",
"*@	c #BD493A",
"=@	c #C04838",
"-@	c #C24839",
";@	c #C34838",
">@	c #BA4E42",
",@	c #A15754",
"'@	c #7C5454",
")@	c #5F5355",
"!@	c #ECE7EB",
"~@	c #5D535B",
"{@	c #785559",
"]@	c #A6564D",
"^@	c #BC4E3F",
"/@	c #C24A3A",
"(@	c #C24938",
"_@	c #C14939",
":@	c #BD4837",
"<@	c #BB4738",
"[@	c #B84737",
"}@	c #B0483B",
"|@	c #A9443A",
"1@	c #A64439",
"2@	c #9B463F",
"3@	c #C58A84",
"4@	c #351314",
"5@	c #59849B",
"6@	c #59849C",
"7@	c #5D2A29",
"8@	c #DF9B98",
"9@	c #9C4943",
"0@	c #A6453C",
"a@	c #AC4439",
"b@	c #AF4538",
"c@	c #B14538",
"d@	c #B44639",
"e@	c #B64638",
"f@	c #BB4836",
"g@	c #BD4836",
"h@	c #C64937",
"i@	c #C84938",
"j@	c #C54A3A",
"k@	c #BF4D42",
"l@	c #B0534B",
"m@	c #8C4F4C",
"n@	c #6D4D4E",
"o@	c #E9DEE2",
"p@	c #E2E1E6",
"q@	c #E3E1E4",
"r@	c #E5E0E4",
"s@	c #E6E0E4",
"t@	c #924D48",
"u@	c #B35347",
"v@	c #BF4F43",
"w@	c #C54D3D",
"x@	c #C54A38",
"y@	c #C34836",
"z@	c #C14837",
"A@	c #B34538",
"B@	c #B14539",
"C@	c #AD453A",
"D@	c #A1473E",
"E@	c #CB8C85",
"F@	c #351113",
"G@	c #5D8A9F",
"H@	c #5D899F",
"I@	c #5E2C2B",
"J@	c #E09F9B",
"K@	c #9E4F48",
"L@	c #A84E45",
"M@	c #AE4C41",
"N@	c #B04B3F",
"O@	c #B24C3E",
"P@	c #B74D40",
"Q@	c #B84C3F",
"R@	c #BB4D3E",
"S@	c #BD4E3D",
"T@	c #C3503E",
"U@	c #C5503E",
"V@	c #C8503F",
"W@	c #BC5648",
"X@	c #944E4C",
"Y@	c #7F5557",
"Z@	c #E3D8DC",
"`@	c #DDDBDE",
" #	c #DBDADF",
".#	c #59545A",
"+#	c #E0DADE",
"@#	c #DFDADE",
"##	c #E4D8DA",
"$#	c #6B4E52",
"%#	c #865455",
"&#	c #974E48",
"*#	c #B6584E",
"=#	c #C15342",
"-#	c #C74F3E",
";#	c #C44F3E",
">#	c #C24E3F",
",#	c #B94D40",
"'#	c #B44C3F",
")#	c #B24C40",
"!#	c #AF4A40",
"~#	c #A45046",
"{#	c #CC9088",
"]#	c #361415",
"^#	c #618FA3",
"/#	c #618EA3",
"(#	c #5F2F2F",
"_#	c #E0A3A0",
":#	c #A25952",
"<#	c #AA564C",
"[#	c #AF554A",
"}#	c #B35549",
"|#	c #B6564A",
"1#	c #B75548",
"2#	c #BB5748",
"3#	c #BE5849",
"4#	c #C05948",
"5#	c #C45947",
"6#	c #C85A49",
"7#	c #CA5D49",
"8#	c #BD6154",
"9#	c #7D4747",
"0#	c #E2D2D5",
"a#	c #DED4D5",
"b#	c #DFD3D5",
"c#	c #625253",
"d#	c #775E61",
"e#	c #685050",
"f#	c #E2D2D3",
"g#	c #E0D2D2",
"h#	c #E5D0D5",
"i#	c #6F4D4E",
"j#	c #814642",
"k#	c #B66459",
"l#	c #C25E4E",
"m#	c #C85B47",
"n#	c #C75948",
"o#	c #C35848",
"p#	c #C15749",
"q#	c #B85649",
"r#	c #B1554A",
"s#	c #B1544C",
"t#	c #A6584E",
"u#	c #CF968F",
"v#	c #361617",
"w#	c #6493A7",
"x#	c #6494A7",
"y#	c #613536",
"z#	c #E2ABA8",
"A#	c #A8655D",
"B#	c #AF625A",
"C#	c #B96258",
"D#	c #BC645A",
"E#	c #BD6358",
"F#	c #C06457",
"G#	c #C16556",
"H#	c #C46756",
"I#	c #C76856",
"J#	c #C96857",
"K#	c #CB6855",
"L#	c #C66D5D",
"M#	c #9A574F",
"N#	c #8D5C58",
"O#	c #724C49",
"P#	c #704D4B",
"Q#	c #734B49",
"R#	c #8E5D59",
"S#	c #B1756D",
"T#	c #955A52",
"U#	c #744B49",
"V#	c #905B55",
"W#	c #9C564C",
"X#	c #C16E5E",
"Y#	c #C66957",
"Z#	c #CC6956",
"`#	c #C76655",
" $	c #C76656",
".$	c #C46456",
"+$	c #C16455",
"@$	c #B66257",
"#$	c #B66258",
"$$	c #AF665F",
"%$	c #D19E9A",
"&$	c #3A1C1E",
"*$	c #6899AB",
"=$	c #6798AB",
"-$	c #6898AC",
";$	c #623839",
">$	c #AD746D",
",$	c #B5726A",
"'$	c #B97067",
")$	c #BB7168",
"!$	c #BD7066",
"~$	c #C17367",
"{$	c #C27366",
"]$	c #C47566",
"^$	c #C77665",
"/$	c #C97666",
"($	c #CD7766",
"_$	c #CF7865",
":$	c #CC7B6A",
"<$	c #C57D6F",
"[$	c #BE8075",
"}$	c #B7827A",
"|$	c #B7827C",
"1$	c #BB827B",
"2$	c #C08076",
"3$	c #C97D6F",
"4$	c #C87E71",
"5$	c #BC817B",
"6$	c #B8837D",
"7$	c #BA8178",
"8$	c #BF8176",
"9$	c #CA7B6A",
"0$	c #CC7967",
"a$	c #CE7965",
"b$	c #CC7665",
"c$	c #C87565",
"d$	c #C87567",
"e$	c #C67468",
"f$	c #C27267",
"g$	c #C07266",
"h$	c #B77169",
"i$	c #B87B76",
"j$	c #D3A7A4",
"k$	c #432A2E",
"l$	c #6C9EAF",
"m$	c #6C9DAF",
"n$	c #663F40",
"o$	c #E2B9B7",
"p$	c #B0807C",
"q$	c #B97F7B",
"r$	c #BB7F77",
"s$	c #BE7F78",
"t$	c #C08077",
"u$	c #C28279",
"v$	c #C58279",
"w$	c #C58377",
"x$	c #C78376",
"y$	c #C98578",
"z$	c #CC8778",
"A$	c #CE8677",
"B$	c #CF8778",
"C$	c #CC8979",
"D$	c #CA8B7C",
"E$	c #C98B7E",
"F$	c #CA8A7E",
"G$	c #CC8A7C",
"H$	c #CE8979",
"I$	c #CD8879",
"J$	c #CC8A7E",
"K$	c #CB8B7F",
"L$	c #CC8777",
"M$	c #CB8677",
"N$	c #C88477",
"O$	c #C78378",
"P$	c #C38379",
"Q$	c #C08178",
"R$	c #BE7F76",
"S$	c #BD827C",
"T$	c #C08B87",
"U$	c #D1A5A4",
"V$	c #B29391",
"W$	c #725F65",
"X$	c #6EA3B3",
"Y$	c #6FA3B3",
"Z$	c #6FA2B3",
"`$	c #69494A",
" %	c #F5D3D2",
".%	c #DAB4B1",
"+%	c #DFB3B0",
"@%	c #E3B3AF",
"#%	c #E3B4AE",
"$%	c #E6B5B0",
"%%	c #E6B5AE",
"&%	c #E9B7B0",
"*%	c #E8B6AD",
"=%	c #E9B7AE",
"-%	c #EBB7AC",
";%	c #EDB7AD",
">%	c #EEB8AE",
",%	c #EEB8AC",
"'%	c #EFB9AD",
")%	c #F1B9AC",
"!%	c #F1B8AD",
"~%	c #E8B6AF",
"{%	c #E5B6B0",
"]%	c #E4B5AF",
"^%	c #E1B4AE",
"/%	c #E4B8B5",
"(%	c #D3ADAC",
"_%	c #AA8C8C",
":%	c #453035",
"<%	c #7FB9C4",
"[%	c #73A7B7",
"}%	c #73A8B7",
"|%	c #72A8B7",
"1%	c #463234",
"2%	c #42292C",
"3%	c #452928",
"4%	c #472929",
"5%	c #482A28",
"6%	c #492B29",
"7%	c #4A2C2A",
"8%	c #4B2D2B",
"9%	c #4C2E2C",
"0%	c #4E2F2C",
"a%	c #4F302D",
"b%	c #50312E",
"c%	c #51322F",
"d%	c #52332E",
"e%	c #51322D",
"f%	c #523331",
"g%	c #4F322E",
"h%	c #4E312D",
"i%	c #4D302C",
"j%	c #4B2F2C",
"k%	c #4A2E2B",
"l%	c #492D2A",
"m%	c #482C2B",
"n%	c #472B2A",
"o%	c #432928",
"p%	c #543837",
"q%	c #7C686A",
"r%	c #76ADBA",
"s%	c #76ADBB",
"t%	c #7AB2BE",
"u%	c #7AB2BF",
"v%	c #7CB5C1",
"w%	c #7DB6C2",
"x%	c #7DB5C2",
"y%	c #7DB6C1",
"z%	c #7CB6C1",
"A%	c #7CB6C2",
"B%	c #7DB7C2",
"C%	c #7EB6C1",
"D%	c #7EB7C2",
"E%	c #7DB7C3",
"F%	c #7EB6C2",
"G%	c #7EB7C3",
"H%	c #385677",
"I%	c #375677",
"J%	c #3A5A7B",
"K%	c #3B5A7B",
"L%	c #3B5A7A",
"M%	c #3D5E7E",
"N%	c #3E5E7E",
"O%	c #416382",
"P%	c #416381",
"Q%	c #446785",
"R%	c #436785",
"S%	c #476C88",
"T%	c #4B6F8C",
"U%	c #4D748F",
"V%	c #517993",
"W%	c #507993",
"X%	c #547D96",
"Y%	c #537D96",
"Z%	c #57819A",
"`%	c #578299",
" &	c #5A869C",
".&	c #5A869D",
"+&	c #5E8AA0",
"@&	c #5D8AA0",
"#&	c #618EA4",
"$&	c #608FA4",
"%&	c #6393A6",
"&&	c #6797AA",
"*&	c #6798AA",
"=&	c #6A9CAD",
"-&	c #699CAD",
";&	c #6DA1B1",
">&	c #6DA0B1",
",&	c #70A4B4",
"'&	c #70A5B5",
")&	c #71A5B4",
"!&	c #74A9B8",
"~&	c #73A9B8",
"{&	c #74A9B7",
"]&	c #73AAB8",
"^&	c #76ADBC",
"/&	c #77ADBB",
"(&	c #77AEBB",
"_&	c #77ADBC",
":&	c #76AEBB",
"<&	c #77AEBC",
"[&	c #79B2BE",
"}&	c #7AB1BF",
"|&	c #79B2BF",
"1&	c #7AB1BE",
"2&	c #79B1BE",
"3&	c #7DB7C1",
". + . @ # # . # . # # # @ . . # # # # $ % # # # % & * # . . = . . . . . . - ; . > , ' ' ' ' ",
"' ) ! ~ { ] ] ^ / / ( ( _ : < [ } | | } 1 2 3 } 4 } [ 3 5 6 6 ( ( ( / 7 8 9 ] 0 a b c d d c ",
"e f g h i j j k l l m n o p q r _ s t u v w x y z A v B C D D E m m F G k k H i I J K L M N ",
"O ) ! ~ { ] ] ^ / / ( ( _ : < [ } | | } 1 2 3 } 4 } [ 3 5 6 6 ( ( ( / 7 8 9 ] 0 a b P Q Q Q ",
"R f g h i j j k l l m n o p q r _ s t u v w x y z A v B C D D E m m F G k k H i I J S T T U ",
"V W X Y Z `  ...+.@.#.$.$.%.&.*.=.-.;.>.=.,.'.).-.!.~.{.].^.%.$./.#.@.+.(._.:.Z <.[.}.|.1.|.",
"2.3.4.5.6.7.8.9.0.a.b.c.d.e.f.g.h.i.j.k.l.m.n.o.i.p.q.r.s.t.e.c.u.b.a.0.9.8.6.6.v.w.x.y.z.y.",
"A.B.C.D.E.F.G.H.I.J.K.L.M.N.O.P.Q.R.i.S.S.T.U.U.V.W.X.Y.7.Z.N.M.`.`. +I..+G.++E.@+#+$+%+&+*+",
"=+-+;+>+,+'+)+!+~+{+]+^+/+(+_+:+<+[+}+|+1+2+3+4+5+6+7+8+9+/+(+/+0+a+b+~+!+)+'+,+c+d+e+f+g+h+",
"i+j+k+l+m+n+o+p+q+r+s+t+u+v+w+x+y+z+A+l.B+C+D+E+F+G+H+I+J+K+L+M+t+s+N+q+O+P+n+Q+R+S+T+U+V+W+",
"X+Y+Z+`+ @.@+@@@#@$@%@&@*@=@-@;@>@,@'@)@B+C+!@~@{@]@^@/@(@_@:@<@[@%@$@}@@@|@1@ @2@3@4@5@6@6@",
"7@8@9@0@a@b@c@d@e@f@g@(@h@i@j@k@l@m@n@o@p@q@r@s@>.t@u@v@w@x@h@y@z@:@<@e@A@B@C@a@D@E@F@G@H@H@",
"I@J@K@L@M@N@O@P@Q@R@S@T@U@V@W@X@Y@;.Z@`@ #.#+#@###$#%#&#*#=#-#;#>#S@R@,#'#)#!#M@~#{#]#^#^#/#",
"(#_#:#<#[#}#|#1#2#3#4#5#6#7#8#9#$#0#a#b#c#d#e#f#g#h#i#j#k#l#m#n#o#p#3#2#q#|#r#s#t#u#v#w#x#w#",
"y#z#A#B#k#C#D#E#F#G#H#I#J#K#L#M#N#O#P#Q#R#S#T#U#P#U#V#W#X#Y#Z#`# $.$+$F#E#D#@$#$$$%$&$*$=$-$",
";$B >$,$'$)$!$~${$]$^$/$($_$:$<$[$}$|$1$2$3$4$5$6$7$8$<$9$0$a$b$c$d$e$f$g$!$)$h$i$j$k$l$l$m$",
"n$o$p$q$r$s$t$u$v$w$x$y$z$A$B$C$D$E$E$F$G$H$I$J$K$D$G$C$I$A$L$M$N$O$v$P$Q$R$S$T$U$V$W$X$Y$Z$",
"`$ %.%+%r @%#%$%%%&%*%=%-%;%>%,%'%)%)%!%!%)%)%!%!%!%'%,%>%-%-%=%=%~%$%{%]%^%/%(%_%:%<%[%}%|%",
"1%2%3%3%4%4%5%6%7%8%9%9%0%a%b%c%c%c%c%d%e%c%c%f%c%b%c%c%g%h%i%9%j%k%l%m%n%o%o%p%q%r%s%s%s%r%",
"t%t%t%t%t%t%t%t%t%t%t%t%t%t%t%t%t%t%t%t%t%t%t%t%t%t%t%t%t%t%t%t%t%t%t%t%t%t%t%t%t%t%t%t%u%u%",
"v%w%x%w%y%z%x%z%w%w%y%w%w%w%A%w%B%w%C%B%w%D%B%B%w%B%E%w%w%F%B%B%B%B%B%B%B%B%E%E%B%D%G%E%E%G%",
"<%<%<%<%<%<%<%<%<%<%<%<%<%<%<%<%<%<%<%<%<%<%<%<%<%<%<%<%<%<%<%<%<%<%<%<%<%<%<%<%<%<%<%<%<%<%",
"<%<%<%<%<%<%<%<%<%<%<%<%<%<%<%<%<%<%<%<%<%<%<%<%<%<%<%<%<%<%<%<%<%<%<%<%<%<%<%<%<%<%<%<%<%<%",
". + . @ # # . # . # # # @ . . # # # # $ % # # # % & * # . . = . . . . . . - ; . >   H%H%I%I%",
"' ) ! ~ { ] ] ^ / / ( ( _ : < [ } | | } 1 2 3 } 4 } [ 3 5 6 6 ( ( ( / 7 8 9 ] 0 a b J%K%J%L%",
"e f g h i j j k l l m n o p q r _ s t u v w x y z A v B C D D E m m F G k k H i I J K M%N%M%",
"O ) ! ~ { ] ] ^ / / ( ( _ : < [ } | | } 1 2 3 } 4 } [ 3 5 6 6 ( ( ( / 7 8 9 ] 0 a b P O%O%P%",
"R f g h i j j k l l m n o p q r _ s t u v w x y z A v B C D D E m m F G k k H i I J S Q%Q%R%",
"V W X Y Z `  ...+.@.#.$.$.%.&.*.=.-.;.>.=.,.'.).-.!.~.{.].^.%.$./.#.@.+.(._.:.Z <.[.}.S%|.|.",
"2.3.4.5.6.7.8.9.0.a.b.c.d.e.f.g.h.i.j.k.l.m.n.o.i.p.q.r.s.t.e.c.u.b.a.0.9.8.6.6.v.w.x.y.T%y.",
"A.B.C.D.E.F.G.H.I.J.K.L.M.N.O.P.Q.R.i.S.S.T.U.U.V.W.X.Y.7.Z.N.M.`.`. +I..+G.++E.@+#+$+U%U%U%",
"=+-+;+>+,+'+)+!+~+{+]+^+/+(+_+:+<+[+}+|+1+2+3+4+5+6+7+8+9+/+(+/+0+a+b+~+!+)+'+,+c+d+e+V%W%V%",
"i+j+k+l+m+n+o+p+q+r+s+t+u+v+w+x+y+z+A+l.B+C+D+E+F+G+H+I+J+K+L+M+t+s+N+q+O+P+n+Q+R+S+T+X%Y%X%",
"X+Y+Z+`+ @.@+@@@#@$@%@&@*@=@-@;@>@,@'@)@B+C+!@~@{@]@^@/@(@_@:@<@[@%@$@}@@@|@1@ @2@3@4@Z%`%Z%",
"7@8@9@0@a@b@c@d@e@f@g@(@h@i@j@k@l@m@n@o@p@q@r@s@>.t@u@v@w@x@h@y@z@:@<@e@A@B@C@a@D@E@F@ &.&.&",
"I@J@K@L@M@N@O@P@Q@R@S@T@U@V@W@X@Y@;.Z@`@ #.#+#@###$#%#&#*#=#-#;#>#S@R@,#'#)#!#M@~#{#]#+&@&+&",
"(#_#:#<#[#}#|#1#2#3#4#5#6#7#8#9#$#0#a#b#c#d#e#f#g#h#i#j#k#l#m#n#o#p#3#2#q#|#r#s#t#u#v##&$&$&",
"y#z#A#B#k#C#D#E#F#G#H#I#J#K#L#M#N#O#P#Q#R#S#T#U#P#U#V#W#X#Y#Z#`# $.$+$F#E#D#@$#$$$%$&$w#%&w#",
";$B >$,$'$)$!$~${$]$^$/$($_$:$<$[$}$|$1$2$3$4$5$6$7$8$<$9$0$a$b$c$d$e$f$g$!$)$h$i$j$k$&&*&*&",
"n$o$p$q$r$s$t$u$v$w$x$y$z$A$B$C$D$E$E$F$G$H$I$J$K$D$G$C$I$A$L$M$N$O$v$P$Q$R$S$T$U$V$W$=&-&=&",
"`$ %.%+%r @%#%$%%%&%*%=%-%;%>%,%'%)%)%!%!%)%)%!%!%!%'%,%>%-%-%=%=%~%$%{%]%^%/%(%_%:%<%;&>&>&",
"1%2%3%3%4%4%5%6%7%8%9%9%0%a%b%c%c%c%c%d%e%c%c%f%c%b%c%c%g%h%i%9%j%k%l%m%n%o%o%p%q%,&'&'&)&,&",
"t%t%t%t%t%t%t%t%t%t%t%t%t%t%t%t%t%t%t%t%t%t%t%t%t%t%t%t%t%t%t%t%t%t%t%t%t%t%t%t%t%!&~&{&]&!&",
"^&/&/&/&(&/&s%(&_&(&/&(&/&:&<&s%(&s%/&/&s%/&s%s%/&(&s%s%/&(&_&:&(&s%<&(&(&/&(&(&:&(&s%(&:&/&",
"t%[&t%}&t%u%u%u%u%|&u%t%u%|&}&t%u%u%|&u%u%u%1&t%u%u%u%u%}&t%}&u%u%u%[&|&u%t%2&u%|&2&u%t%|&t%",
"B%w%3&w%B%y%w%w%B%w%w%w%B%w%B%w%B%w%B%w%w%w%w%w%w%B%B%w%w%w%B%F%F%w%y%w%w%B%B%w%w%3&B%w%w%B%"};
