/* XPM */
static char * maximizeO_xpm[] = {
"26 46 277 2",
"  	c None",
". 	c #1D327C",
"+ 	c #7FB9C4",
"@ 	c #D6E6F3",
"# 	c #A8CCE6",
"$ 	c #AACDE7",
"% 	c #ACCFE8",
"& 	c #AED0EB",
"* 	c #B0D4EC",
"= 	c #B2D5ED",
"- 	c #B3D7EF",
"; 	c #B6D9F0",
"> 	c #B8DAF1",
", 	c #B8DAF2",
"' 	c #B9DBF2",
") 	c #B7DBF3",
"! 	c #B7D9F1",
"~ 	c #B5D7F0",
"{ 	c #B4D5EE",
"] 	c #B1D4EC",
"^ 	c #ACD0E8",
"/ 	c #AACEE7",
"( 	c #C3DEED",
"_ 	c #627483",
": 	c #607380",
"< 	c #5C707F",
"[ 	c #576F7D",
"} 	c #7A8A9D",
"| 	c #535666",
"1 	c #7C8C9F",
"2 	c #526A7A",
"3 	c #D2E4F0",
"4 	c #A0C8E2",
"5 	c #A2C9E4",
"6 	c #A4CBE5",
"7 	c #A5CDE7",
"8 	c #A8CFE8",
"9 	c #FCFCFC",
"0 	c #AED4ED",
"a 	c #ABD2EC",
"b 	c #A9CFE9",
"c 	c #A6CDE7",
"d 	c #A5CBE5",
"e 	c #BFDAEA",
"f 	c #4E6477",
"g 	c #CFE2EF",
"h 	c #99C1DF",
"i 	c #9CC4DF",
"j 	c #9EC5E1",
"k 	c #A0C7E3",
"l 	c #A2CAE5",
"m 	c #A9CFEA",
"n 	c #A6CCE7",
"o 	c #A3CAE6",
"p 	c #A0C8E3",
"q 	c #9DC6E1",
"r 	c #BBD5E9",
"s 	c #466173",
"t 	c #C9DFEC",
"u 	c #8FBCD9",
"v 	c #91BDDA",
"w 	c #93C0DD",
"x 	c #95C1DF",
"y 	c #9AC6E0",
"z 	c #9FC9E6",
"A 	c #9CC7E4",
"B 	c #9AC6E1",
"C 	c #96C1DF",
"D 	c #96C1DD",
"E 	c #91BEDA",
"F 	c #B3D0E6",
"G 	c #3F5B6D",
"H 	c #C4DBEA",
"I 	c #86B4D4",
"J 	c #87B5D6",
"K 	c #8AB8D7",
"L 	c #8BB9DB",
"M 	c #90BCDC",
"N 	c #E9E9E9",
"O 	c #9AC8E4",
"P 	c #9AC9E5",
"Q 	c #99C7E5",
"R 	c #98C3E1",
"S 	c #94C1E0",
"T 	c #90BDDD",
"U 	c #8CBBDB",
"V 	c #8BB8D8",
"W 	c #ADCBE2",
"X 	c #093250",
"Y 	c #8EB6D2",
"Z 	c #1266A2",
"` 	c #1569A5",
" .	c #186EA6",
"..	c #1D72AC",
"+.	c #2477AE",
"@.	c #3688C0",
"#.	c #3689C1",
"$.	c #378AC1",
"%.	c #2F81B8",
"&.	c #2B7DB6",
"*.	c #2577B0",
"=.	c #1F73AD",
"-.	c #1A6EA7",
";.	c #156AA5",
">.	c #5E96BF",
",.	c #0B3351",
"'.	c #8FB7D3",
").	c #1468A3",
"!.	c #176AA6",
"~.	c #1C70A8",
"{.	c #1E77AE",
"].	c #227DB2",
"^.	c #E2E2E2",
"/.	c #2E86BC",
"(.	c #2B80B8",
"_.	c #2679B2",
":.	c #2174AE",
"<.	c #1E6FAA",
"[.	c #5F98C0",
"}.	c #0D3553",
"|.	c #90B8D4",
"1.	c #176BA4",
"2.	c #1A6CA8",
"3.	c #1E74AB",
"4.	c #207DB2",
"5.	c #2289B9",
"6.	c #DCDCDC",
"7.	c #2C91BF",
"8.	c #2B89BA",
"9.	c #297DB6",
"0.	c #2476AF",
"a.	c #2171AB",
"b.	c #1A6DA8",
"c.	c #629AC2",
"d.	c #113754",
"e.	c #94B9D5",
"f.	c #1E6FA9",
"g.	c #2273AB",
"h.	c #247CB1",
"i.	c #2587BA",
"j.	c #2794BE",
"k.	c #D7D7D7",
"l.	c #2F9AC6",
"m.	c #3090BF",
"n.	c #2E84BA",
"o.	c #2B7CB5",
"p.	c #2876B0",
"q.	c #2272AB",
"r.	c #669EC5",
"s.	c #153B59",
"t.	c #98BDD8",
"u.	c #2775AE",
"v.	c #297BB3",
"w.	c #2D87BA",
"x.	c #2B92C0",
"y.	c #2E9DC5",
"z.	c #437890",
"A.	c #447A92",
"B.	c #34A5CB",
"C.	c #3599C6",
"D.	c #338EC0",
"E.	c #3284BB",
"F.	c #307BB6",
"G.	c #2B79B2",
"H.	c #6DA2C9",
"I.	c #1B415E",
"J.	c #9CC1DB",
"K.	c #317DB5",
"L.	c #3286BC",
"M.	c #3592C2",
"N.	c #359CC8",
"O.	c #34A9CF",
"P.	c #33B4D3",
"Q.	c #32BDD8",
"R.	c #30C2DB",
"S.	c #2DC6DC",
"T.	c #2BCBDB",
"U.	c #2ACDDC",
"V.	c #32C3DC",
"W.	c #35C0D9",
"X.	c #37B8D6",
"Y.	c #3AAFD3",
"Z.	c #3CA4CF",
"`.	c #3D98C8",
" +	c #3C8DC3",
".+	c #3A85BC",
"++	c #3480B9",
"@+	c #74A7CD",
"#+	c #224763",
"$+	c #A1C5E1",
"%+	c #3B87BF",
"&+	c #3D8FC4",
"*+	c #3D9CC9",
"=+	c #3DA8D1",
"-+	c #3AB5D6",
";+	c #3AC0DD",
">+	c #39C6DF",
",+	c #37CEE2",
"'+	c #32D4E4",
")+	c #30D7E5",
"!+	c #30D8E5",
"~+	c #38CFE2",
"{+	c #3CC9E1",
"]+	c #3DC4E0",
"^+	c #42B9DB",
"/+	c #44AFD7",
"(+	c #45A3D2",
"_+	c #4397CA",
":+	c #418DC3",
"<+	c #3E88C0",
"[+	c #7BADD3",
"}+	c #2A4E69",
"|+	c #D2E8F2",
"1+	c #9DD6E9",
"2+	c #9BDEED",
"3+	c #97E4F0",
"4+	c #8EEBF4",
"5+	c #77F0F6",
"6+	c #3CF5F7",
"7+	c #26F8F8",
"8+	c #1DFBFA",
"9+	c #16FCFA",
"0+	c #10FDFB",
"a+	c #0AFEFB",
"b+	c #06FEFB",
"c+	c #17FBFA",
"d+	c #1FF9F9",
"e+	c #27F6F8",
"f+	c #3DF2F6",
"g+	c #79ECF4",
"h+	c #91E6F2",
"i+	c #97E0EE",
"j+	c #9BDAEB",
"k+	c #9DD3E8",
"l+	c #193446",
"m+	c #1A3A52",
"n+	c #193B53",
"o+	c #1A4055",
"p+	c #1A4557",
"q+	c #1C4D5B",
"r+	c #1B525E",
"s+	c #1A5661",
"t+	c #185A61",
"u+	c #185D62",
"v+	c #165F64",
"w+	c #146264",
"x+	c #146364",
"y+	c #166064",
"z+	c #195A61",
"A+	c #1B5862",
"B+	c #1D5460",
"C+	c #1E4F5D",
"D+	c #1E485B",
"E+	c #1E4358",
"F+	c #1D3F54",
"G+	c #1B3C53",
"H+	c #6897AB",
"I+	c #6898AB",
"J+	c #6798AB",
"K+	c #6EA0B2",
"L+	c #6DA0B1",
"M+	c #6EA0B1",
"N+	c #6DA0B2",
"O+	c #6E9FB1",
"P+	c #74A9B8",
"Q+	c #74A9B7",
"R+	c #73AAB8",
"S+	c #73A9B8",
"T+	c #7AB2BE",
"U+	c #7BB2BF",
"V+	c #7AB2BF",
"W+	c #7AB3BE",
"X+	c #7AB3BF",
"Y+	c #7BB2BE",
"Z+	c #6D9FB1",
"`+	c #73A9B7",
" @	c #7BB3BF",
". . . . . . . . . . . . . . . . . . . . . . . . . . ",
"+ @ # $ % & * = - ; > , ' ' ) ' ' , ! ~ { ] & ^ / ( ",
"_ @ # $ % & * = - ; > , ' ' ) ' ' , ! ~ { ] & ^ / ( ",
": @ # $ % & * = - ; > , ' ' ) ' ' , ! ~ { ] & ^ / ( ",
"< @ # $ % & * = - ; > , ' ' ) ' ' , ! ~ { ] & ^ / ( ",
"[ @ # $ % & * } | | | | | | | | | | 1 ~ { ] & ^ / ( ",
"2 3 4 5 6 7 8 | 9 9 9 9 9 9 9 9 9 9 | 0 a b c d 5 e ",
"f g h i j k l | 9 9 9 9 9 9 9 9 9 9 | m n o p q i r ",
"s t u v w x y | 9 9 | | | | | | 9 9 | z A B C D E F ",
"G H I J K L M | N N | O P P Q | N N | R S T U V J W ",
"X Y Z `  ...+.| N N | @.#.#.$.| N N | %.&.*.=.-.;.>.",
",.'.).!.~.{.].| ^.^.| | | | | | ^.^.| /.(._.:.<.!.[.",
"}.|.1.2.3.4.5.| 6.6.6.6.6.6.6.6.6.6.| 7.8.9.0.a.b.c.",
"d.e.f.g.h.i.j.| k.k.k.k.k.k.k.k.k.k.| l.m.n.o.p.q.r.",
"s.t.u.v.w.x.y.z.| | | | | | | | | | A.B.C.D.E.F.G.H.",
"I.J.K.L.M.N.O.P.Q.R.S.T.U.U.T.S.V.W.X.Y.Z.`. +.+++@+",
"#+$+%+&+*+=+-+;+>+,+'+)+!+!+)+'+~+{+]+^+/+(+_+:+<+[+",
"}+|+1+2+3+4+5+6+7+8+9+0+a+a+b+a+0+c+d+e+f+g+h+i+j+k+",
"l+m+n+o+p+q+r+s+t+u+v+w+x+x+w+y+u+z+A+B+C+D+E+F+G+m+",
"H+I+I+I+I+I+I+I+J+I+I+I+I+I+I+I+H+I+I+I+I+I+I+I+I+H+",
"K+L+L+M+M+M+N+O+L+M+M+M+M+L+L+L+L+M+L+M+M+L+L+M+L+L+",
"P+P+P+Q+P+P+P+P+P+R+Q+P+S+P+P+S+P+P+P+P+P+P+S+P+P+P+",
"T+U+V+U+V+V+V+V+V+V+V+V+W+V+T+X+V+U+V+Y+V+X+V+V+V+V+",
". . . . . . . . . . . . . . . . . . . . . . . . . . ",
"+ @ # $ % & * = - ; > , ' ' ) ' ' , ! ~ { ] & ^ / ( ",
"_ @ # $ % & * = - ; > , ' ' ) ' ' , ! ~ { ] & ^ / ( ",
": @ # $ % & * = - ; > , ' ' ) ' ' , ! ~ { ] & ^ / ( ",
"< @ # $ % & * = - ; > , ' ' ) ' ' , ! ~ { ] & ^ / ( ",
"[ @ # $ % & * } | | | | | | | | | | 1 ~ { ] & ^ / ( ",
"2 3 4 5 6 7 8 | 9 9 9 9 9 9 9 9 9 9 | 0 a b c d 5 e ",
"f g h i j k l | 9 9 9 9 9 9 9 9 9 9 | m n o p q i r ",
"s t u v w x y | 9 9 | | | | | | 9 9 | z A B C D E F ",
"G H I J K L M | N N | O P P Q | N N | R S T U V J W ",
"X Y Z `  ...+.| N N | @.#.#.$.| N N | %.&.*.=.-.;.>.",
",.'.).!.~.{.].| ^.^.| | | | | | ^.^.| /.(._.:.<.!.[.",
"}.|.1.2.3.4.5.| 6.6.6.6.6.6.6.6.6.6.| 7.8.9.0.a.b.c.",
"d.e.f.g.h.i.j.| k.k.k.k.k.k.k.k.k.k.| l.m.n.o.p.q.r.",
"s.t.u.v.w.x.y.z.| | | | | | | | | | A.B.C.D.E.F.G.H.",
"I.J.K.L.M.N.O.P.Q.R.S.T.U.U.T.S.V.W.X.Y.Z.`. +.+++@+",
"#+$+%+&+*+=+-+;+>+,+'+)+!+!+)+'+~+{+]+^+/+(+_+:+<+[+",
"}+|+1+2+3+4+5+6+7+8+9+0+a+a+b+a+0+c+d+e+f+g+h+i+j+k+",
"l+m+n+o+p+q+r+s+t+u+v+w+x+x+w+y+u+z+A+B+C+D+E+F+G+m+",
"I+I+I+I+I+I+I+I+I+I+I+I+I+I+I+I+I+I+I+I+I+I+I+I+I+I+",
"M+O+K+L+M+M+L+M+M+L+L+M+L+M+M+L+M+L+L+L+M+M+M+M+Z+L+",
"P+P+P+P+Q+P+P+P+`+P+P+P+P+P+P+P+P+P+P+P+P+Q+P+P+P+P+",
"V+X+T+V+V+X+V+T+V+T+V+T+V+V+V+U+T+ @U+V+T+T+V+V+V+T+"};
