/* XPM */
static char * titleIP_xpm[] = {
"12 23 90 1",
" 	c None",
".	c #345174",
"+	c #375578",
"@	c #385678",
"#	c #375678",
"$	c #375577",
"%	c #385577",
"&	c #3B5A7B",
"*	c #3A5A7B",
"=	c #3B5A7C",
"-	c #3B5B7B",
";	c #3A5B7B",
">	c #3E5F7E",
",	c #3E5F7F",
"'	c #3E5E7F",
")	c #426482",
"!	c #416482",
"~	c #426383",
"{	c #446886",
"]	c #456885",
"^	c #456886",
"/	c #446885",
"(	c #446986",
"_	c #456986",
":	c #486D8A",
"<	c #486D89",
"[	c #486C8A",
"}	c #4B718D",
"|	c #4C718D",
"1	c #4B728D",
"2	c #4C718C",
"3	c #4C728D",
"4	c #4F7691",
"5	c #4F7690",
"6	c #4E7690",
"7	c #4E7691",
"8	c #527B94",
"9	c #527B93",
"0	c #527A94",
"a	c #567F98",
"b	c #557F98",
"c	c #557F97",
"d	c #567F97",
"e	c #558097",
"f	c #59849B",
"g	c #58849B",
"h	c #59849C",
"i	c #5C889F",
"j	c #5C899F",
"k	c #5C889E",
"l	c #5F8EA2",
"m	c #5F8DA2",
"n	c #608DA3",
"o	c #5F8DA3",
"p	c #608DA2",
"q	c #6392A6",
"r	c #6392A5",
"s	c #6291A6",
"t	c #6292A5",
"u	c #6391A6",
"v	c #6292A6",
"w	c #6696AA",
"x	c #6696A9",
"y	c #6697A9",
"z	c #6A9BAD",
"A	c #699BAD",
"B	c #6DA0B0",
"C	c #6CA0B1",
"D	c #6D9FB0",
"E	c #6DA0B1",
"F	c #6C9FB0",
"G	c #70A4B4",
"H	c #70A5B4",
"I	c #73A9B7",
"J	c #74A9B8",
"K	c #74A9B7",
"L	c #74A8B7",
"M	c #73A8B7",
"N	c #73A8B8",
"O	c #76AEBB",
"P	c #77ADBB",
"Q	c #77AEBB",
"R	c #77ADBC",
"S	c #76ADBB",
"T	c #7AB2BF",
"U	c #7AB2BE",
"V	c #7DB7C3",
"W	c #7DB7C2",
"X	c #7EB6C2",
"Y	c #7EB6C3",
"............",
"++@#$++%@%@@",
"&&*=*&-&&-&;",
">>,,>>,',>,,",
")!)!!)!!~!))",
"{{]]^{/^(^{_",
":::::<[<:<::",
"}}|}121}31}1",
"445467654556",
"889080888800",
"abbcccdbabbe",
"fgfhgffghfff",
"ijikiiikjijj",
"lmmnoppmmppm",
"qqrqstquqvqq",
"wwwxyxxyywxy",
"zAzzAAzAAAzz",
"BCDEBCEFBBEB",
"GGHHHGGGGGGG",
"IJKLKKMJJNII",
"OPQRSQOQRPQO",
"TTUTTUTUTTTT",
"VWXWWYWWWWXX"};
