/* XPM */
static char * titleAT_xpm[] = {
"1 23 24 1",
" 	c None",
".	c #345174",
"+	c #355376",
"@	c #39587A",
"#	c #3D5D7E",
"$	c #406280",
"%	c #436784",
"&	c #476B88",
"*	c #4A708B",
"=	c #4D758F",
"-	c #517994",
";	c #547E97",
">	c #58839A",
",	c #5C879E",
"'	c #5F8CA2",
")	c #6291A5",
"!	c #6696A9",
"~	c #699BAC",
"{	c #6DA0B0",
"]	c #70A4B4",
"^	c #74A9B8",
"/	c #76ADBB",
"(	c #7AB3BF",
"_	c #7DB8C2",
".",
"+",
"@",
"#",
"$",
"%",
"&",
"*",
"=",
"-",
";",
">",
",",
"'",
")",
"!",
"~",
"{",
"]",
"^",
"/",
"(",
"_"};
