/* XPM */
static char *taskbarbg_double[] = {
/* columns rows colors chars-per-pixel */
"6 60 54 1",
"  c #7D7E99",
". c #83829D",
"X c #9A99B1",
"o c #9C9BB4",
"O c #9E9DB6",
"+ c #A0A1B7",
"@ c #A1A3B8",
"# c #A2A5B8",
"$ c #A2A5BA",
"% c #A3A5BC",
"& c #A6A8BA",
"* c #A6A8BB",
"= c #A8ABB8",
"- c #A8A9BF",
"; c #A8AABC",
": c #ACB0BD",
"> c #B1B7BB",
", c #ACADC0",
"< c #B2B6C0",
"1 c #B3B6C5",
"2 c #B6B9C5",
"3 c #B8BCC5",
"4 c #BABCC9",
"5 c #BBBDCD",
"6 c #BFC4D4",
"7 c #C6C6C7",
"8 c #C0C2CA",
"9 c #C5C8CC",
"0 c #C4CBD1",
"q c #C6C9D6",
"w c #CBCED3",
"e c #D2D1D5",
"r c #D4D4D6",
"t c #D7D7D7",
"y c #D2DADC",
"u c #D9D9DA",
"i c #DBDBDC",
"p c #DDDDDE",
"a c #DFDFE1",
"s c #DADCE8",
"d c #E0E0E2",
"f c #E1E0E3",
"g c #E2E1E4",
"h c #E3E2E4",
"j c #E4E3E5",
"k c #E6E4E6",
"l c #E4EFE3",
"z c #E8E6E7",
"x c #E9E8E8",
"c c #EAEAEA",
"v c #E8EDE8",
"b c #ECEBEC",
"n c #ECEEF4",
"m c gray100",
/* pixels */
"      ",
"      ",
",,,,,,",
"ssssss",
"nnnnnn",
"mmmmmm",
"nnnnnn",
"ssssss",
"qqqqqq",
"111111",
"******",
"XXXXXX",
"XXXXXX",
"XXXXXX",
"oooooo",
"OOOOOO",
"O@@@++",
"######",
"#$#$##",
"%$%%%$",
"***=**",
";;====",
";;;;-;",
"------",
"=:::::",
">>>>>>",
"<<<<<<",
"211111",
"3>2222",
"362222",
"344442",
"555556",
"888866",
"777777",
"999999",
"0009q9",
"wwwwww",
"rreeee",
"rrrrrr",
"tttttt",
"itittt",
"iiiipi",
"pppppp",
"aaaaph",
"ddddaa",
"ddddha",
"hdkdhh",
"hkdkhp",
"khhhkh",
"kkkzzh",
"zzzzzz",
"zxxxxx",
"bxbxxb",
"bbbbbb",
"vvvvvv",
"llllll",
"yyyyyy",
"q66666",
"@@+@@@",
"......"
};
