/* XPM */
static char *traybarbg_double[] = {
/* columns rows colors chars-per-pixel */
"6 60 17 1",
"  c #B3A868",
". c #D0BC89",
"X c #D3BE88",
"o c #D6C187",
"O c #DAC896",
"+ c #DDCEA4",
"@ c #D9D2A8",
"# c #E0D4A8",
"$ c #E4D9AB",
"% c #E7DEAE",
"& c #EAE2B2",
"* c #EEE4B2",
"= c #F2E5B1",
"- c #F7EEC5",
"; c #FCF7D9",
": c #FEFAE1",
"> c #FFFDE9",
/* pixels */
"      ",
"      ",
"@@@@@@",
">>>>>>",
"::::::",
";;;;;;",
"------",
"======",
"******",
"&&&&&&",
"&&&&&&",
"&&&&&&",
"&&&&&&",
"&&&&&&",
"&&&&&&",
"&&&&&&",
"&&&&&&",
"&&&&&&",
"&&&&&&",
"&&&&&&",
"&&&&&&",
"&&&&&&",
"&&&&&&",
"&&&&&&",
"&&&&&&",
"&&&&&&",
"&&&&&&",
"&&&&&&",
"&&&&&&",
"&&&&&&",
"&&&&&&",
"&&&&&&",
"&&&&&&",
"&&&&&&",
"&&&&&&",
"&&&&&&",
"&&&&&&",
"&&&&&&",
"&&&&&&",
"&&&&&&",
"&&&&&&",
"&&&&&&",
"&&&&&&",
"&&&&&&",
"&&&&&&",
"&&&&&&",
"&&&&&&",
"&&&&&&",
"&&&&&&",
"&&&&&&",
"&&&&&&",
"&&&&&&",
"%%%%%%",
"$$$$$$",
"######",
"++++++",
"OOOOOO",
"oooooX",
"XXXXXX",
"...X.."
};
