/* XPM */
static char * taskb_hide_xpm[] = {
"19 19 128 2",
"  	c None",
". 	c #FF4500",
"+ 	c #FF4000",
"@ 	c #FF4800",
"# 	c #FF4D00",
"$ 	c #FF5500",
"% 	c #FF5E00",
"& 	c #FF7200",
"* 	c #FF3800",
"= 	c #FF4400",
"- 	c #FF8900",
"; 	c #FFB600",
"> 	c #FDC455",
", 	c #D2CF7F",
"' 	c #FFBB24",
") 	c #FFA800",
"! 	c #FF8F00",
"~ 	c #FF7700",
"{ 	c #FF7E00",
"] 	c #FF3400",
"^ 	c #FF7600",
"/ 	c #FFD555",
"( 	c #E2D9A1",
"_ 	c #D9D5A1",
": 	c #C9D1A1",
"< 	c #BAC67F",
"[ 	c #A1BA7F",
"} 	c #88B67F",
"| 	c #AAAC55",
"1 	c #FF9000",
"2 	c #FF8A00",
"3 	c #FF8D00",
"4 	c #F2DDA1",
"5 	c #EADDA1",
"6 	c #E2DDA1",
"7 	c #D9D9A1",
"8 	c #CACB7F",
"9 	c #BAC27F",
"0 	c #99BA7F",
"a 	c #88B27F",
"b 	c #80AE7F",
"c 	c #80A67F",
"d 	c #FF9A00",
"e 	c #FF9500",
"f 	c #DBCF7F",
"g 	c #C2C67F",
"h 	c #A9BA7F",
"i 	c #99B27F",
"j 	c #80AA7F",
"k 	c #809E7F",
"l 	c #FF9E00",
"m 	c #FFA000",
"n 	c #FF3C00",
"o 	c #FFD024",
"p 	c #FFFFA1",
"q 	c #B1B67F",
"r 	c #88A67F",
"s 	c #80A27F",
"t 	c #D39B24",
"u 	c #FFA500",
"v 	c #FF3D00",
"w 	c #FF8500",
"x 	c #D1D5A1",
"y 	c #809A7F",
"z 	c #A29455",
"A 	c #FFA600",
"B 	c #FFBA00",
"C 	c #FF3300",
"D 	c #FFB200",
"E 	c #CAC67F",
"F 	c #A29855",
"G 	c #A29055",
"H 	c #FF9D00",
"I 	c #FFC600",
"J 	c #FFC324",
"K 	c #DBD37F",
"L 	c #B1BA7F",
"M 	c #99A67F",
"N 	c #A28C55",
"O 	c #B29055",
"P 	c #FFCE00",
"Q 	c #D2CB7F",
"R 	c #BABE7F",
"S 	c #A28755",
"T 	c #9A8355",
"U 	c #FFD900",
"V 	c #B1C27F",
"W 	c #B28755",
"X 	c #FFE200",
"Y 	c #99B67F",
"Z 	c #90B27F",
"` 	c #A28355",
" .	c #9A7F55",
"..	c #FC9B24",
"+.	c #FFE824",
"@.	c #FF8100",
"#.	c #88AE7F",
"$.	c #A27B55",
"%.	c #9A7355",
"&.	c #A27F55",
"*.	c #9A7B55",
"=.	c #FFB724",
"-.	c #FFE155",
";.	c #D3A724",
">.	c #B28355",
",.	c #FFE424",
"'.	c #FF5900",
").	c #FF7D00",
"!.	c #FFE77F",
"~.	c #FF6200",
"{.	c #FF8B00",
"].	c #FFB324",
"^.	c #FFE955",
"/.	c #FF6F00",
"(.	c #AA9855",
"_.	c #AA7F55",
":.	c #FF7A00",
"<.	c #FF8200",
"[.	c #FF9100",
"}.	c #FF9400",
"|.	c #D38A24",
"1.	c #D38624",
"2.	c #FFA900",
"3.	c #FFD500",
"4.	c #FFE024",
"5.	c #FF8800",
"6.	c #FFC800",
"7.	c #FFD000",
"            . + @ # $ % &             ",
"        * = - ; > , ' ) ! ~ {         ",
"      ] ^ / ( _ : , < [ } | 1 2       ",
"    ] 3 4 5 6 7 : 8 9 0 a b c d e     ",
"  * ^ 4 4 5 6 _ f g h i j j c k l m   ",
"  n o 5 5 5 ( : p q r r s c s k t u   ",
"v w ( 6 6 ( x p p p r k k s k y z A B ",
"C D _ 7 _ : E q p p p y k k y F G H I ",
"] J : : K 8 L M M p p p k k F z N O P ",
"* , , Q 8 R M M M S p p p y z N S T U ",
"n ' < 9 V h M M M p p p F z G S T W X ",
"+ A [ [ Y Z r z p p p ` N N S T  ...+.",
"# @.} a #.b c p p p $.%.&.` T  .*.=.-.",
"  $ ;.b j c s k p &.$.%.*. . .*.>.,.  ",
"  '.).c c s k y z S $.*.*.*.*.*.J !.  ",
"    ~.{.k k y F G N `  .*.*.*.].^.    ",
"      /.w (.z G N S T  .*._.' -.      ",
"        :.<.[.}.|.T 1.[.2.3.4.        ",
"            5.e l 2.B 6.7.            "};
