/* XPM */
static char * closeI_xpm[] = {
"18 40 52 1",
" 	c None",
".	c #C6CBD6",
"+	c #ADB6C6",
"@	c #9CAABD",
"#	c #94A2AD",
"$	c #8492A5",
"%	c #9CAEBD",
"&	c #A5AEBD",
"*	c #8C96A5",
"=	c #6B6D7B",
"-	c #7B7D8C",
";	c #636D7B",
">	c #ADBAC6",
",	c #7B828C",
"'	c #212429",
")	c #7B8284",
"!	c #212021",
"~	c #292429",
"{	c #A5B2BD",
"]	c #8C9AA5",
"^	c #B5BAC6",
"/	c #B5BACE",
"(	c #84828C",
"_	c #B5BECE",
":	c #7B868C",
"<	c #6B717B",
"[	c #A5B2C6",
"}	c #949AA5",
"|	c #A5AAB5",
"1	c #949EAD",
"2	c #ADB2C6",
"3	c #948E94",
"4	c #7B615A",
"5	c #947973",
"6	c #846563",
"7	c #C6B6BD",
"8	c #BDA6A5",
"9	c #BDA6AD",
"0	c #C6B6B5",
"a	c #B5A6A5",
"b	c #F7F3FF",
"c	c #EFF3F7",
"d	c #F7F3F7",
"e	c #9C7973",
"f	c #9C7D73",
"g	c #BDAAAD",
"h	c #BDAAA5",
"i	c #9C7D7B",
"j	c #C6BABD",
"k	c #CEBABD",
"l	c #846963",
"m	c #9C969C",
"..................",
"++++++++++++++++++",
"@@@@@@@@@@@@@@@@@@",
"@@@@@@@@@@@@@@@@@@",
"@@#$$$$$$$$$$#@@@@",
"@#$++++++++++$#@@@",
"%$++++++++++++$%%%",
"&*++=-++++-;++*&&&",
"&*>>,')>>,!,>>*&&&",
"&*>>>,~,,',>>>*&&&",
"&*>>>>,'!,>>>>*&&&",
"&*>>>>,'~,>>>>*&&&",
"{]^^^,!,,')^^^]{{{",
"{]//('(//,~,//]{{{",
"{]__=:____:<__]{{{",
"[}____________}[[[",
"[|1__________1|[[[",
"[+|1111111111|+[[[",
"222222222222222222",
"++++++++++++++++++",
"..................",
"++++++++++++++++++",
"@@@@@@@@@@@@@@@@@@",
"@@@@@@@@@@@@@@@@@@",
"@@344444444443@@@@",
"@34555555555543@@@",
"%45555555555554%%%",
"&65578555590556&&&",
"&655aba559c8556&&&",
"&65558b89d95556&&&",
"&6eeee8bc8eeee6&&&",
"&6eeee9db8eeee6&&&",
"{6fffgchhbhfff6{{{",
"{6ffgdgffhbhff6{{{",
"{6iijgiiiigkii6{{{",
"[liiiiiiiiiiiil[[[",
"[mliiiiiiiiiilm[[[",
"[+mllllllllllm+[[[",
"222222222222222222",
"++++++++++++++++++"};
