/* XPM */
static char * dframeABL_xpm[] = {
"48 32 3 1",
" 	c None",
".	c #888888",
"+	c #000000",
"                  ..                            ",
"                  ..                            ",
"                  ..                            ",
"                  ..                            ",
"                  ..                            ",
"                  ..                            ",
"                  ..                            ",
"                  ..                            ",
"                  ..                            ",
"                  ..                            ",
"                  ..                            ",
"                  ..                            ",
"                  ..                            ",
"                  ..                            ",
"                  ..                            ",
"                   .                            ",
"                   .............................",
"                     ...........................",
"                                    +   + + ++++",
"                                     + + + + + +",
"                                      + + + ++++",
"                                     + + + + + +",
"                                        + + + ++",
"                                     + + + + + +",
"                                      + + + + + ",
"                                         + + + +",
"                                      + + + + + ",
"                                           + + +",
"                                        + + + + ",
"                                             +  ",
"                                          + + + ",
"                                               +"};
