/* XPM */
static char * maximizeA_xpm[] = {
"16 40 44 1",
" 	c None",
".	c #8CBEEF",
"+	c #5A9EE7",
"@	c #428EDE",
"#	c #4292DE",
"$	c #3986CE",
"%	c #3979BD",
"&	c #4A92DE",
"*	c #397DBD",
"=	c #63A2E7",
"-	c #39618C",
";	c #21415A",
">	c #29415A",
",	c #4A96DE",
"'	c #427DBD",
")	c #213C5A",
"!	c #4282BD",
"~	c #63A6E7",
"{	c #5296DE",
"]	c #6BA6E7",
"^	c #529ADE",
"/	c #4A82C6",
"(	c #4A86C6",
"_	c #6BAAE7",
":	c #73AAE7",
"<	c #42618C",
"[	c #42658C",
"}	c #5A9AE7",
"|	c #5A96D6",
"1	c #528AC6",
"2	c #73AEE7",
"3	c #639EE7",
"4	c #4286C6",
"5	c #5279A5",
"6	c #638EB5",
"7	c #ADC3DE",
"8	c #CEDBEF",
"9	c #6B92B5",
"0	c #527DA5",
"a	c #5A7DA5",
"b	c #7392B5",
"c	c #7396B5",
"d	c #6382A5",
"e	c #7396BD",
"................",
"++++++++++++++++",
"@@@@@@@@@@@@@@@@",
"@@@@@@@@@@@@@@@@",
"#@$%%%%%%%%%%$@#",
"#$%++++++++++%$#",
"&%++++++++++++%&",
"&*==-;>;>;>-==*&",
",'==)>);)>);==',",
",!==>======;==!,",
",!~~)~~~~~~>~~!,",
"{!]]>]]]]]];]]!{",
"^/]])]]]]]];]]/^",
"^(__>______;__(^",
"^(::<>>>>>>[::(^",
"}(::::::::::::(}",
"+|122222222221|+",
"+3|1111111111|3+",
"++++++++++++++++",
"3333333333333333",
"................",
"++++++++++++++++",
"@@@@@@@@@@@@@@@@",
"@@@@@@@@@@@@@@@@",
"#@455555555554@#",
"#45666666666654#",
"&56666666666665&",
"&56678888887665&",
",59988888888995,",
",09989999998990,",
",a998999999899a,",
"{a998999999899a{",
"^abb8bbbbbb8bba^",
"^abb8bbbbbb8bba^",
"^acc78888887cca^",
"}dccccccccccccd}",
"+|deeeeeeeeeed|+",
"+3|dddddddddd|3+",
"++++++++++++++++",
"3333333333333333"};
