/* XPM */
static char * titleAB_xpm[] = {
"26 24 12 1",
" 	c None",
".	c #8CBEEF",
"+	c #5A9EE7",
"@	c #428EDE",
"#	c #4292DE",
"$	c #4A92DE",
"%	c #4A96DE",
"&	c #5296DE",
"*	c #529ADE",
"=	c #5A9AE7",
"-	c #639EE7",
";	c #63A2E7",
"..........................",
"++++++++++++++++++++++++++",
"@@@@@@@@@@@@@@@@@@@@@@@@@@",
"@@@@@@@@@@@@@@@@@@@@@@@@@@",
"##########################",
"##########################",
"$$$$$$$$$$$$$$$$$$$$$$$$$$",
"$$$$$$$$$$$$$$$$$$$$$$$$$$",
"%%%%%%%%%%%%%%%%%%%%%%%%%%",
"%%%%%%%%%%%%%%%%%%%%%%%%%%",
"%%%%%%%%%%%%%%%%%%%%%%%%%%",
"&&&&&&&&&&&&&&&&&&&&&&&&&&",
"**************************",
"**************************",
"**************************",
"==========================",
"++++++++++++++++++++++++++",
"++++++++++++++++++++++++++",
"++++++++++++++++++++++++++",
"--------------------------",
";;;;;;;;;;;;;;;;;;;;;;;;;;",
";;;;;;;;;;;;;;;;;;;;;;;;;;",
";;;;;;;;;;;;;;;;;;;;;;;;;;",
";;;;;;;;;;;;;;;;;;;;;;;;;;"};
