/* XPM */
static char *traybarbg_double[] = {
/* columns rows colors chars-per-pixel */
"3 60 41 1",
"  c #095BC9",
". c #0F6ED0",
"X c #0F6ED1",
"o c #1084DC",
"O c #1580D8",
"+ c #1582D9",
"@ c #148ADE",
"# c #0D8DEA",
"$ c #0D8EEA",
"% c #0E8EEA",
"& c #0F8EEA",
"* c #0D90EB",
"= c #0D92EC",
"- c #0D93ED",
"; c #0D94EE",
": c #0D96EE",
"> c #0D98EE",
", c #0D9AEF",
"< c #0E9EEF",
"1 c #0F9EEE",
"2 c #0D9CF0",
"3 c #0D9DF0",
"4 c #0E9EF0",
"5 c #118FE9",
"6 c #108EEA",
"7 c #1392E4",
"8 c #1393E5",
"9 c #1290E8",
"0 c #1290E9",
"q c #1294EA",
"w c #1298E7",
"e c #1298E8",
"r c #1399EB",
"t c #119DEA",
"y c #109EEC",
"u c #149CEC",
"i c #149EED",
"p c #16ACF0",
"a c #16ADF0",
"s c #18B3F2",
"d c #19B9F3",
/* pixels */
"   ",
"   ",
"ooo",
"aaa",
"sss",
"ddd",
"apa",
"iii",
"uiu",
"quq",
"qqq",
"999",
"999",
"999",
"999",
"999",
"000",
"000",
"000",
"009",
"&&6",
"&&&",
"666",
"696",
"666",
"&&&",
"&&&",
"&&&",
"&#&",
"###",
"##&",
"##&",
"###",
"###",
"###",
"###",
"###",
"###",
"###",
"===",
"===",
";==",
";;;",
";;;",
",,,",
",,,",
"22,",
"<<<",
"<<2",
"<<2",
"<<<",
"<<2",
"yyy",
"ttt",
"wqq",
"8w8",
"@@@",
"+++",
"...",
"   "
};
