/* XPM */
static char * mini_tasks_xpm[] = {
"16 16 15 1",
" 	c None",
".	c #9F9F00",
"+	c #F0F0F0",
"@	c #FFFFCF",
"#	c #FFFF9F",
"$	c #CFCF60",
"%	c #000000",
"&	c #FFCF9F",
"*	c #000080",
"=	c #FF0000",
"-	c #00FF00",
";	c #808080",
">	c #FFFFFF",
",	c #C0C0C0",
"'	c #800000",
"                ",
"  .....         ",
" .+@@##.        ",
".$$$$$$$......  ",
".@@@@@@@@@@@#$% ",
".@##########&$% ",
".@###*=-*%#&#$% ",
".@###;>,>%&#&$% ",
".@###;,',%#&#$% ",
".@###;>,>%&#&$% ",
".@###%%%%%#&&$% ",
".@&#&#&#&#&&&$% ",
".$$$$$$$$$$$$$% ",
" %%%%%%%%%%%%%% ",
"                ",
"                "};
