/* XPM */
static char * mini_kdevelop_xpm[] = {
"16 16 10 1",
" 	c None",
".	c #008000",
"+	c #000000",
"@	c #808000",
"#	c #800000",
"$	c #00FF00",
"%	c #FFFF00",
"&	c #FF0000",
"*	c #0000FF",
"=	c #000080",
"                ",
"                ",
"                ",
"  .+@@   ##++   ",
" .$+%%+ #&&**+  ",
".$$+%%%#&&#=**+ ",
".$+ @%#&&#+ =*+ ",
".+   #&&#+   .+ ",
"=*= #&&#+%+ .$+ ",
"=**#&&#+%%%+$$+ ",
" =*#&#+ @%%+$+  ",
"  =+++   ++++   ",
"                ",
"                ",
"                ",
"                "};
