/* XPM */
static char * kfm_home_sm_xpm[] = {
"16 16 12 1",
" 	c None",
".	c #808080",
"+	c #E0E0D0",
"@	c #4F4F4F",
"#	c #909000",
"$	c #FFF0EF",
"%	c #CFCF60",
"&	c #002F90",
"*	c #7F7F00",
"=	c #FFCF90",
"-	c #FFFF90",
";	c #2F2F00",
"        .       ",
"       .+@      ",
"   ###.$$+@     ",
"  #%%.$$$$+@    ",
"  #%.$$$&$$+@** ",
"  #.+++&+&+++@* ",
"############++@ ",
"#$$$$$$$$$=%#++@",
"#$-------=-=#+; ",
" #---=--=-==%#; ",
" #-----=-=-==#; ",
" #-=--=-=-=-=#; ",
"  #=-=-=-=-==#; ",
"  ############; ",
"   ;;;;;;;;;;;  ",
"                "};
