/* XPM */
static char * kfm_trash_xpm[] = {
"16 16 16 1",
" 	c None",
".	c #808080",
"+	c #505050",
"@	c #FFFFFF",
"#	c #000000",
"$	c #AFAF90",
"%	c #CFCFCF",
"&	c #4F4F4F",
"*	c #E0E0D0",
"=	c #309F30",
"-	c #606060",
";	c #008000",
">	c #C0C0C0",
",	c #707070",
"'	c #609F60",
")	c #2F2F2F",
"    ....        ",
"  ..+.@@..      ",
"..##++.$@@..    ",
".@@##++.$%@@..  ",
".%%@@.++.$%%%@.&",
".**%%%@@+.$%@..&",
".****==%@@@@..-&",
" .**;>*.;>%..--&",
" .*=;;>;;*%.--#&",
" .*>;>****%,--# ",
"  .*=>;*;%.--&# ",
"  .**;;;'%.-&#  ",
"  .%%*;*%%-&&#  ",
"   &&%%%%%&&#   ",
"     &&%%.&&)   ",
"       &&&##    "};
