/* XPM */
static char * mini_cdplayer_xpm[] = {
"16 16 8 1",
" 	c None",
".	c #000000",
"+	c #808080",
"@	c #FFFF00",
"#	c #C0C0C0",
"$	c #00FFFF",
"%	c #00FF00",
"&	c #FFFFFF",
"            ..  ",
"     +++++  ....",
"   ++@@###++. ..",
"  +$@@@#####.  .",
" +%$$@@####..+ .",
" +%%$@@###...+ .",
"+##%%$@##&..##..",
"+###%$+.+####...",
"+####%.&.####.. ",
"+####&+.+$####. ",
"+###&##&%@$###. ",
" +#&####%@$$#.  ",
" +&#####%@@$$.  ",
"  +#####%%@@.   ",
"   ++###%%..    ",
"     ++...      "};
