/* XPM */
static char * mini_progman_xpm[] = {
"16 16 30 1",
" 	c None",
".	c #007F7F",
"+	c #00FFFF",
"@	c #404040",
"#	c #000020",
"$	c #00005F",
"%	c #00003F",
"&	c #7F7FBF",
"*	c #7F7FFF",
"=	c #3F3FDF",
"-	c #0000BF",
";	c #7F7FDF",
">	c #202020",
",	c #000000",
"'	c #3F3FBF",
")	c #003F3F",
"!	c #7F7F7F",
"~	c #FFFFFF",
"{	c #6F6F6F",
"]	c #3F3F3F",
"^	c #606060",
"/	c #002020",
"(	c #60609F",
"_	c #9F9F9F",
":	c #BFBFBF",
"<	c #DFBFDF",
"[	c #303030",
"}	c #7F3F7F",
"|	c #9F7F9F",
"1	c #3F3F00",
"  .+++++++++.@  ",
"  #$$$$$$$$$%@  ",
"  $&*=------$@  ",
"  $;==-$$$$$#>, ",
"  $'=--)......)>",
"  $----!~~~~!!!@",
")..........{!!!@",
"]!!!!!!!!!!^!!!@",
"!~]!~/!~(!~^!!!@",
"!_,!:,!!@,~^!!!@",
"!:!::!!~!!~^!!!@",
"!~<::!!~!!~[!!]@",
"!<}|:1:~)%~@@@@>",
"!:!::!!~!!~@    ",
"]!!!!!!!!!!@    ",
">@@@@@@@@@@@    "};
