/* XPM */
static char * frameABR_xpm[] = {
"4 4 4 1",
" 	c None",
".	c #EFEBE7",
"+	c #DCD4CC",
"@	c #000000",
"..+@",
"..+@",
"+++@",
"@@@@"};
