/* XPM */
static char * frameATL_xpm[] = {
"4 24 42 1",
" 	c None",
".	c #6C5034",
"+	c #604931",
"@	c #DFB68C",
"#	c #EDC194",
"$	c #EAB985",
"%	c #56432F",
"&	c #EBBF91",
"*	c #E6AD71",
"=	c #413528",
"-	c #E9BC8E",
";	c #E6B37E",
">	c #E0A05E",
",	c #322A22",
"'	c #E8BA8B",
")	c #E0A262",
"!	c #DE9D5A",
"~	c #E6B888",
"{	c #DB9A56",
"]	c #E2B383",
"^	c #D6934E",
"/	c #E0B180",
"(	c #D3904A",
"_	c #DFAE7D",
":	c #D18C46",
"<	c #D8A775",
"[	c #C8823A",
"}	c #D9A875",
"|	c #C9833B",
"1	c #DAA977",
"2	c #CA843D",
"3	c #DDAC7A",
"4	c #CE8941",
"5	c #DDAD7B",
"6	c #CF8A43",
"7	c #DFAE7C",
"8	c #D18B45",
"9	c #DFAF7D",
"0	c #D28D46",
"a	c #E0B07F",
"b	c #D38E48",
"c	c #835D37",
"   .",
"  +@",
" +#$",
" %&*",
"=-;>",
",')!",
",~{{",
",]^^",
",/((",
",_::",
",<[[",
",}||",
",122",
",344",
",566",
",788",
",900",
",abb",
",900",
",abb",
",900",
",abb",
",<[[",
",ccc"};
