/* XPM */
static char * minimizeA_xpm[] = {
"29 42 179 2",
"  	c None",
". 	c #FBFBFB",
"+ 	c #B1B7B7",
"@ 	c #B2B8B8",
"# 	c #FCFCFC",
"$ 	c #282E32",
"% 	c #CBCECF",
"& 	c #B7BABC",
"* 	c #B7BBBC",
"= 	c #D3D5D6",
"- 	c #343D41",
"; 	c #F6F6F6",
"> 	c #C2C5C6",
", 	c #A9ADAF",
"' 	c #CACDCE",
") 	c #323B3F",
"! 	c #F3F3F3",
"~ 	c #B8BBBD",
"{ 	c #9B9FA2",
"] 	c #9BA0A2",
"^ 	c #C2C4C6",
"/ 	c #31393E",
"( 	c #EEEEEE",
"_ 	c #ADB1B3",
": 	c #8C9194",
"< 	c #8D9295",
"[ 	c #B9BCBE",
"} 	c #2F373B",
"| 	c #E8E8E8",
"1 	c #A2A6A8",
"2 	c #7C8286",
"3 	c #7D8386",
"4 	c #7E8487",
"5 	c #AFB3B5",
"6 	c #2E3539",
"7 	c #DEDEDE",
"8 	c #71777B",
"9 	c #374045",
"0 	c #384146",
"a 	c #394247",
"b 	c #858B8E",
"c 	c #D3D3D3",
"d 	c #C8C8C8",
"e 	c #40474F",
"f 	c #4D525F",
"g 	c #535666",
"h 	c #BFBFBF",
"i 	c #454B55",
"j 	c #A9ABB3",
"k 	c #FFFFFF",
"l 	c #C7C7C7",
"m 	c #9899A1",
"n 	c #DCDCDC",
"o 	c #DBDBDB",
"p 	c #95979F",
"q 	c #D7D7D7",
"r 	c #E6E6E6",
"s 	c #5D6467",
"t 	c #474F54",
"u 	c #E7E7E7",
"v 	c #42494C",
"w 	c #444B4F",
"x 	c #5B6266",
"y 	c #485055",
"z 	c #898E90",
"A 	c #2A3134",
"B 	c #454C4F",
"C 	c #5E6468",
"D 	c #70777A",
"E 	c #71787B",
"F 	c #72787C",
"G 	c #5C6265",
"H 	c #FAFAFA",
"I 	c #7E8386",
"J 	c #42484C",
"K 	c #2A3135",
"L 	c #282F33",
"M 	c #293033",
"N 	c #2A3034",
"O 	c #F6F6F7",
"P 	c #F7F7F7",
"Q 	c #F5F6F6",
"R 	c #F8F9F9",
"S 	c #F9F9FA",
"T 	c #F4F4F5",
"U 	c #F2F3F3",
"V 	c #F3F4F4",
"W 	c #F6F7F7",
"X 	c #EAEBEB",
"Y 	c #E4E5E5",
"Z 	c #E1E2E3",
"` 	c #E2E3E4",
" .	c #E2E4E4",
"..	c #CDCDCD",
"+.	c #BABABA",
"@.	c #AFAFAF",
"#.	c #B7B7B7",
"$.	c #9DA2A2",
"%.	c #959A9A",
"&.	c #959B9B",
"*.	c #989D9D",
"=.	c #969B9B",
"-.	c #9CA1A1",
";.	c #9A9F9F",
">.	c #9BA0A0",
",.	c #22272A",
"'.	c #ABADAE",
").	c #9A9C9E",
"!.	c #9A9D9E",
"~.	c #B1B3B4",
"{.	c #2B3336",
"].	c #242A2D",
"^.	c #A3A6A6",
"/.	c #8E9193",
"(.	c #AAACAD",
"_.	c #272D31",
":.	c #9D9FA1",
"<.	c #828688",
"[.	c #838689",
"}.	c #A3A5A6",
"|.	c #293034",
"1.	c #23292C",
"2.	c #919596",
"3.	c #767A7C",
"4.	c #767B7D",
"5.	c #9B9EA0",
"6.	c #272E31",
"7.	c #888B8D",
"8.	c #686D70",
"9.	c #696E72",
"0.	c #696E71",
"a.	c #696E70",
"b.	c #6A6F71",
"c.	c #939698",
"d.	c #262C30",
"e.	c #5F6467",
"f.	c #2E353A",
"g.	c #2E363A",
"h.	c #2F363B",
"i.	c #30373B",
"j.	c #707577",
"k.	c #353B42",
"l.	c #404550",
"m.	c #454856",
"n.	c #3A3F47",
"o.	c #8E9096",
"p.	c #21262A",
"q.	c #808187",
"r.	c #B9B9B9",
"s.	c #7D7F86",
"t.	c #B5B5B5",
"u.	c #4E5456",
"v.	c #3B4246",
"w.	c #383E41",
"x.	c #393F42",
"y.	c #4C5256",
"z.	c #3C4347",
"A.	c #888C8E",
"B.	c #23292B",
"C.	c #3A4042",
"D.	c #4F5457",
"E.	c #5E6466",
"F.	c #5F6567",
"G.	c #606568",
"H.	c #4D5255",
"I.	c #EBEBEB",
"J.	c #717678",
"K.	c #373C40",
"L.	c #21272B",
"M.	c #232A2D",
"N.	c #252C30",
"O.	c #242B2F",
"P.	c #22282C",
"Q.	c #22272B",
"R.	c #22282B",
"S.	c #23282B",
"T.	c #EAEAEA",
"U.	c #E9E9E9",
"V.	c #E5E5E6",
". + + + + + + + + + + + + + + + + + + + + + @ @ @ @ @ @ @ ",
"# $ % & & & & & & & & & & & & * * * * * * * * * * * * = - ",
"; $ > , , , , , , , , , , , , , , , , , , , , , , , , ' ) ",
"! $ ~ { { { { { { { { { { ] ] ] ] ] ] ] ] ] ] ] ] ] ] ^ / ",
"( $ _ : : : : : : : < < < < < < < < < < < < < < < < < [ } ",
"| $ 1 2 2 2 2 2 2 2 3 3 3 3 3 3 3 3 3 3 3 3 3 3 3 3 4 5 6 ",
"7 $ 8 9 9 9 9 9 9 9 0 0 0 0 0 0 0 0 0 0 0 0 0 0 0 a a b 6 ",
"c $ 8 9 9 9 9 9 9 9 0 0 0 0 0 0 0 0 0 0 0 0 0 0 a a a b 6 ",
"d $ 8 9 9 9 9 9 9 9 e f g g g g g g g g f 0 0 0 a a a b 6 ",
"h $ 8 9 9 9 9 9 9 0 i j k k k k k k k k j 0 0 0 a a a b 6 ",
"l $ 8 9 9 9 9 9 9 0 i m n n n n n n n n m 0 0 a a a a b 6 ",
"o $ 8 9 9 9 0 0 0 0 i p q q q q q q q q p 0 0 a a a a b 6 ",
"r $ s t 0 0 0 0 0 0 e f g g g g g g g g f a a a a a a b 6 ",
"u v w x y 0 0 0 0 0 0 0 0 0 0 0 0 0 0 0 a a a a a a a b 6 ",
"u z A B C D E E E E E E E E E E E E E E F F F F F F F F G ",
"u H I J K L L L L L L L L L L L L L L M M M M M M M M M N ",
"| k H ! O P O Q P R . # # . S P T U V P W U X Y Z ` `  . .",
"u u u u u u u u u u u u u u u u u u u u u u u u u u u u u ",
"| | | | | | | | | | | | | | | | | | | | | | | | | | | | | ",
"| | | | | | | | | | | | | | | | | | | | | | | | | | | | | ",
"..d +.@.#.d ..............................................",
". $.%.%.%.&.*.=.=.=.&.*.-.;.*.*.;.>.-.-.-.-.$.$.$.$.$.$.$.",
"# ,.'.).).).).).).).).).).).).!.!.!.!.!.!.!.!.!.!.!.!.~.{.",
"; ].^././././././././././././././././././././././././.(.K ",
"! _.:.<.<.<.<.<.<.<.<.[.[.<.<.<.<.<.<.<.<.<.<.<.<.<.<.}.|.",
"( 1.2.3.3.3.3.3.3.3.4.4.4.4.4.4.4.4.4.4.4.4.4.4.4.4.4.5.6.",
"| ,.7.8.9.0.8.8.8.8.a.a.a.a.a.a.a.a.a.a.a.a.a.a.a.a.b.c.d.",
"7 ,.e.f.g.f.f.f.f.f.h.} } h.h.h.h.h.h.h.h.h.h.h.h.i.i.j.d.",
"c ,.e.f.f.f.f.f.f.f.h.} } } h.h.h.h.h.h.h.h.h.h.i.i.i.j.d.",
"d ,.e.f.f.f.f.f.f.f.k.l.m.m.m.m.m.m.m.m.l.h.h.h.i.i.i.j.d.",
"h ,.e.f.f.f.f.f.f.h.n.o.q q q q q q q q o.h.h.h.i.i.i.j.d.",
"l p.e.f.f.f.f.f.f.h.n.q.r.r.r.r.r.r.r.r.q.h.h.i.i.i.i.j.d.",
"o p.e.f.f.f.h.h.h.h.n.s.t.t.t.t.t.t.t.t.s.h.h.i.i.i.i.j.d.",
"r ,.u.v.h.h.h.h.h.h.k.l.m.m.m.m.m.m.m.m.l.i.i.i.i.i.i.j.d.",
"u w.x.y.z.h.h.h.h.h.h.h.h.h.h.h.h.h.h.h.i.i.i.i.i.i.i.j.d.",
"u A.B.C.D.E.F.F.F.F.F.F.F.F.F.F.F.F.F.F.G.G.G.G.G.G.G.G.H.",
"| I.J.K.1.L.M.N.N.N.N.N.N.N.O.1.P.P.Q.R.R.R.R.R.R.R.B.R.S.",
"| | I.I.T.U.U.U.U.U.U.U.U.U.U.T.I.U.| U.U.U.| | u V.`  . .",
"| | | | | | | | | | | | | | | | | | | | | | | | | | u u u ",
"| | | | | | | | | | | | | | | | | | | | | | | | | | | | | ",
"| | | | | | | | | | | | | | | | | | | | | | | | | | | | | ",
".........................................................."};
