/* XPM */
static char *frameIBR[] = {
"4 4 4 1",
". c #6A655A",
"X c #CDCAC5",
"o c #D5CEC5",
"O c None",
"ooX.",
"ooX.",
"XXX.",
"...O"};
