/* XPM */
static char *titleAT[] = {
"1 20 17 1",
"  c #001852",
". c #08206A",
"X c #08246A",
"o c #102473",
"O c #102873",
"+ c #102C73",
"@ c #183073",
"# c #18307B",
"$ c #20347B",
"% c #20387B",
"& c #203C7B",
"* c #294083",
"= c #314483",
"- c #314883",
"; c #394C8B",
": c #41558B",
"> c #4A5D94",
">",
":",
";",
"-",
"=",
"*",
"&",
"%",
"$",
"#",
"@",
"+",
"O",
"o",
"X",
".",
".",
".",
".",
" "
};
