/* XPM */
static char *titleIT[] = {
"1 20 9 1",
"  c #ACA59C",
". c #D5CEC5",
"X c #D5D2C5",
"o c #D5D2CD",
"O c #DED2CD",
"+ c #DED6CD",
"@ c #DEDAD5",
"# c #E6DAD5",
"$ c #E6DED5",
"$",
"#",
"@",
"@",
"+",
"+",
"+",
"+",
"+",
"O",
"O",
"O",
"O",
"o",
"X",
"X",
".",
".",
".",
" "};
