/* XPM */
static char * minimizeO_xpm[] = {
"32 48 466 2",
"  	c None",
". 	c #3D3A38",
"+ 	c #3B3B3B",
"@ 	c #FFFFFF",
"# 	c #FAFAFA",
"$ 	c #878787",
"% 	c #FCFCFC",
"& 	c #F8F8F8",
"* 	c #ADADAD",
"= 	c #FDFDFD",
"- 	c #F3F3F3",
"; 	c #7F7F7F",
"> 	c #CBE3EF",
", 	c #A9CFE6",
"' 	c #ACD0E7",
") 	c #ACD2EA",
"! 	c #AFD2EB",
"~ 	c #B0D6ED",
"{ 	c #B3D6EF",
"] 	c #B6D8F0",
"^ 	c #B7D9F1",
"/ 	c #B9DAF1",
"( 	c #B7DBF2",
"_ 	c #BADBF2",
": 	c #B8DBF2",
"< 	c #B9DBF2",
"[ 	c #B7DAF1",
"} 	c #B5D7EF",
"| 	c #B2D5EE",
"1 	c #B0D6EC",
"2 	c #AED3EB",
"3 	c #F0F0F0",
"4 	c #A5A5A5",
"5 	c #FCFBFB",
"6 	c #FBFAF9",
"7 	c #F9F8F7",
"8 	c #C8DFEE",
"9 	c #A2C9E3",
"0 	c #A4CAE4",
"a 	c #A7CDE5",
"b 	c #A7CFE7",
"c 	c #AAD1EB",
"d 	c #ACD2EB",
"e 	c #AFD5ED",
"f 	c #B0D6EF",
"g 	c #B0D7F0",
"h 	c #B0D8F0",
"i 	c #B1D8F1",
"j 	c #B0D8F1",
"k 	c #B1D9F1",
"l 	c #AFD6EE",
"m 	c #ACD4ED",
"n 	c #AAD2EB",
"o 	c #AAD0EA",
"p 	c #A9CEE7",
"q 	c #F8F6F5",
"r 	c #C4DCEB",
"s 	c #9AC5DF",
"t 	c #9CC6E0",
"u 	c #9EC6E2",
"v 	c #A0C9E3",
"w 	c #A2CBE5",
"x 	c #A6CDE8",
"y 	c #A8D0EB",
"z 	c #A9D1EB",
"A 	c #AAD2EC",
"B 	c #ABD3ED",
"C 	c #ABD3EE",
"D 	c #AAD2ED",
"E 	c #A7CFEA",
"F 	c #A4CDE7",
"G 	c #F7F5F3",
"H 	c #BED8EB",
"I 	c #93BEDC",
"J 	c #94C0DC",
"K 	c #96C1DE",
"L 	c #98C3DF",
"M 	c #9AC6E2",
"N 	c #9CC8E3",
"O 	c #9FC9E5",
"P 	c #A0CBE7",
"Q 	c #A2CDE9",
"R 	c #A3CDEA",
"S 	c #A3CEEB",
"T 	c #A3CEEA",
"U 	c #A2CDEA",
"V 	c #A2CDE8",
"W 	c #9EC9E5",
"X 	c #9CC7E3",
"Y 	c #9BC6E2",
"Z 	c #94BFDC",
"` 	c #F5F3F1",
" .	c #B8D4E7",
"..	c #88B7D6",
"+.	c #8AB8D7",
"@.	c #8CBADA",
"#.	c #8EBCDB",
"$.	c #90BFDE",
"%.	c #93C1DF",
"&.	c #96C3E1",
"*.	c #99C5E2",
"=.	c #9AC7E3",
"-.	c #9AC8E3",
";.	c #9BC8E4",
">.	c #9BC9E4",
",.	c #9AC9E4",
"'.	c #9AC6E3",
").	c #97C5E2",
"!.	c #95C3E1",
"~.	c #92C1DF",
"{.	c #91BFDD",
"].	c #8CBAD9",
"^.	c #EEEDEC",
"/.	c #A4A4A4",
"(.	c #F4F1EF",
"_.	c #75A8C9",
":.	c #176BA5",
"<.	c #196FA6",
"[.	c #1C73A9",
"}.	c #2176AD",
"|.	c #257BB1",
"1.	c #3F6484",
"2.	c #535666",
"3.	c #406584",
"4.	c #2A7EB5",
"5.	c #257AB0",
"6.	c #1C73A8",
"7.	c #196EA6",
"8.	c #F3F0ED",
"9.	c #74A8CA",
"0.	c #186DA5",
"a.	c #1A6FA8",
"b.	c #1F73AC",
"c.	c #2277AE",
"d.	c #257EB5",
"e.	c #2584B8",
"f.	c #257EB3",
"g.	c #1F73AB",
"h.	c #1A6EA8",
"i.	c #F1EEEB",
"j.	c #77A9CC",
"k.	c #1B6FA9",
"l.	c #2072AB",
"m.	c #2376AE",
"n.	c #247BB2",
"o.	c #2685B8",
"p.	c #DCDCDC",
"q.	c #258EBB",
"r.	c #2686B7",
"s.	c #247CB2",
"t.	c #2376AD",
"u.	c #2071AB",
"v.	c #EAE4DF",
"w.	c #7DADCE",
"x.	c #2374AC",
"y.	c #2576AD",
"z.	c #2A7BB2",
"A.	c #2982B7",
"B.	c #298EBD",
"C.	c #D7D7D7",
"D.	c #2A97C3",
"E.	c #2C8EBC",
"F.	c #2882B6",
"G.	c #2A7BB1",
"H.	c #2575AD",
"I.	c #858585",
"J.	c #84ADCB",
"K.	c #307CB4",
"L.	c #2F7DB4",
"M.	c #3084B8",
"N.	c #318DBD",
"O.	c #3398C5",
"P.	c #43748D",
"Q.	c #42788F",
"R.	c #30A3C9",
"S.	c #3398C4",
"T.	c #328CBD",
"U.	c #2F7CB4",
"V.	c #EAE5E0",
"W.	c #8F8F8F",
"X.	c #91B0C9",
"Y.	c #448BBE",
"Z.	c #3884BB",
"`.	c #388BC0",
" +	c #3A96C5",
".+	c #3AA3CE",
"++	c #37ADD2",
"@+	c #35B7D5",
"#+	c #33BFD8",
"$+	c #30C3DB",
"%+	c #2DC6DC",
"&+	c #2BCBDC",
"*+	c #2ACDDC",
"=+	c #2ACBDC",
"-+	c #34B6D5",
";+	c #36ADD1",
">+	c #3BA3CB",
",+	c #3897C5",
"'+	c #388BBF",
")+	c #EBE5E0",
"!+	c #B2B2B2",
"~+	c #8195A5",
"{+	c #7FB0D5",
"]+	c #5298C8",
"^+	c #4599C8",
"/+	c #43A1D0",
"(+	c #42ACD4",
"_+	c #40B8D9",
":+	c #3BC2DE",
"<+	c #39C7E1",
"[+	c #37CFE2",
"}+	c #32D4E3",
"|+	c #30D7E3",
"1+	c #2ED8E4",
"2+	c #3AC2DE",
"3+	c #3DB8D8",
"4+	c #43ADD3",
"5+	c #42A1CF",
"6+	c #4297C8",
"7+	c #408CC2",
"8+	c #EBE6E1",
"9+	c #EBEBEB",
"0+	c #E2E2E2",
"a+	c #949494",
"b+	c #758C9C",
"c+	c #97B6CB",
"d+	c #A7DBEC",
"e+	c #A0E1EE",
"f+	c #9BE8F2",
"g+	c #91ECF5",
"h+	c #83F1F7",
"i+	c #3BF6F7",
"j+	c #24FAFA",
"k+	c #1AFCFA",
"l+	c #12FDFB",
"m+	c #0BFEFB",
"n+	c #06FEFB",
"o+	c #0BFDFB",
"p+	c #12FCFA",
"q+	c #1AF9F8",
"r+	c #24F6F7",
"s+	c #3BF2F6",
"t+	c #84EEF4",
"u+	c #93E7F1",
"v+	c #99E1EF",
"w+	c #A1D8EC",
"x+	c #ECE6E2",
"y+	c #ECE8E3",
"z+	c #E7E7E7",
"A+	c #ECECEC",
"B+	c #808080",
"C+	c #ECE7E2",
"D+	c #F1F1F1",
"E+	c #F4F4F4",
"F+	c #EDE8E4",
"G+	c #EDE9E4",
"H+	c #EEE9E5",
"I+	c #EEEAE6",
"J+	c #F7F7F7",
"K+	c #BDCEDA",
"L+	c #90ADC2",
"M+	c #91AFC2",
"N+	c #94B2C4",
"O+	c #97B3C6",
"P+	c #99B4C6",
"Q+	c #9AB7C8",
"R+	c #9DB9CA",
"S+	c #9FBACB",
"T+	c #A0BBCC",
"U+	c #A2BCCC",
"V+	c #9FBBCB",
"W+	c #9DB9C9",
"X+	c #9AB6C7",
"Y+	c #95B3C5",
"Z+	c #93B1C3",
"`+	c #B4C8D5",
" @	c #81A3B9",
".@	c #83A5BA",
"+@	c #86A7BC",
"@@	c #89A9BD",
"#@	c #8BABBF",
"$@	c #8EADC1",
"%@	c #8FAFC2",
"&@	c #92AFC4",
"*@	c #94B1C5",
"=@	c #94B2C5",
"-@	c #94B2C6",
";@	c #8FAEC2",
">@	c #8CADC1",
",@	c #8AAABF",
"'@	c #87A8BD",
")@	c #84A7BB",
"!@	c #AAC1D0",
"~@	c #7097B0",
"{@	c #7298B1",
"]@	c #759BB4",
"^@	c #789DB4",
"/@	c #7A9FB6",
"(@	c #7EA2B8",
"_@	c #81A4BA",
":@	c #84A6BB",
"<@	c #85A7BD",
"[@	c #84A6BD",
"}@	c #82A6BB",
"|@	c #7FA3B9",
"1@	c #7DA2B8",
"2@	c #759AB3",
"3@	c #A0B9CB",
"4@	c #5F8BA6",
"5@	c #628BA9",
"6@	c #658EAA",
"7@	c #6891AB",
"8@	c #6B94AD",
"9@	c #6F96AF",
"0@	c #7198B1",
"a@	c #749AB4",
"b@	c #759CB4",
"c@	c #779DB4",
"d@	c #779DB5",
"e@	c #759DB4",
"f@	c #749CB4",
"g@	c #749AB3",
"h@	c #7098B0",
"i@	c #6D96AF",
"j@	c #6A93AD",
"k@	c #6790AB",
"l@	c #638EAA",
"m@	c #9CB1C4",
"n@	c #597D9C",
"o@	c #5A7F9D",
"p@	c #5B819F",
"q@	c #5D86A4",
"r@	c #5E8DA7",
"s@	c #5F93AB",
"t@	c #5F9CB0",
"u@	c #5FA3B5",
"v@	c #5FA6B9",
"w@	c #5FA9B9",
"x@	c #60ABB9",
"y@	c #60ABBA",
"z@	c #60A7B9",
"A@	c #60A4B6",
"B@	c #619FB3",
"C@	c #6297AF",
"D@	c #6090AB",
"E@	c #5F8CA6",
"F@	c #5E86A4",
"G@	c #5D83A0",
"H@	c #5B819E",
"I@	c #597E9D",
"J@	c #697B8E",
"K@	c #042241",
"L@	c #062444",
"M@	c #082C4B",
"N@	c #0A3654",
"O@	c #365266",
"P@	c #374F64",
"Q@	c #0F3C59",
"R@	c #0D3050",
"S@	c #0A2A4A",
"T@	c #082747",
"U@	c #062344",
"V@	c #6A7C8F",
"W@	c #052443",
"X@	c #093252",
"Y@	c #0A3F5B",
"Z@	c #0E4260",
"`@	c #0D3856",
" #	c #0C2E4D",
".#	c #092848",
"+#	c #072546",
"@#	c #6B7E92",
"##	c #072648",
"$#	c #092E4E",
"%#	c #0B3A59",
"&#	c #0C4765",
"*#	c #0F4C69",
"=#	c #0E3F5E",
"-#	c #0E3454",
";#	c #0C2B4C",
">#	c #09284A",
",#	c #718398",
"'#	c #0E2E50",
")#	c #0D3658",
"!#	c #0E4363",
"~#	c #0F516F",
"{#	c #135572",
"]#	c #124767",
"^#	c #103B5C",
"/#	c #0F3053",
"(#	c #0D2C50",
"_#	c #77899C",
":#	c #173A5C",
"<#	c #113F62",
"[#	c #134C6C",
"}#	c #145B7A",
"|#	c #396978",
"1#	c #3A6275",
"2#	c #165E7E",
"3#	c #164F71",
"4#	c #164365",
"5#	c #14385C",
"6#	c #113257",
"7#	c #8493A3",
"8#	c #294B6E",
"9#	c #16466B",
"0#	c #185478",
"a#	c #186586",
"b#	c #187B93",
"c#	c #1891A1",
"d#	c #16A4AA",
"e#	c #16B1B1",
"f#	c #14C0B9",
"g#	c #12C8BB",
"h#	c #12CABE",
"i#	c #16B2B1",
"j#	c #17A5AB",
"k#	c #1894A3",
"l#	c #1A7F97",
"m#	c #1B6A8A",
"n#	c #1B587C",
"o#	c #1A4B70",
"p#	c #183F66",
"q#	c #173A61",
"r#	c #77828D",
"s#	c #66829C",
"t#	c #305E82",
"u#	c #205E85",
"v#	c #1D7190",
"w#	c #1D879E",
"x#	c #1C9DAA",
"y#	c #1BAFB2",
"z#	c #1ABDBA",
"A#	c #19CCC2",
"B#	c #18D2C5",
"C#	c #17D6C6",
"D#	c #1BB0B3",
"E#	c #1EA0AC",
"F#	c #1F8BA1",
"G#	c #1F7794",
"H#	c #1F5F88",
"I#	c #1F5179",
"J#	c #1E476F",
"K#	c #1B4069",
"L#	c #828282",
"M#	c #6B7884",
"N#	c #879CAD",
"O#	c #97C3D1",
"P#	c #91CFD8",
"Q#	c #8DDCE1",
"R#	c #87E7E9",
"S#	c #7BEFEF",
"T#	c #35F5F2",
"U#	c #1FF9F5",
"V#	c #18FBF7",
"W#	c #10FDF9",
"X#	c #0BFDFA",
"Y#	c #11FBF8",
"Z#	c #18F7F5",
"`#	c #20F1F1",
" $	c #36E9EB",
".$	c #7CDDE4",
"+$	c #88D0DC",
"@$	c #8DC5D2",
"#$	c #90BACA",
"$$	c #B8B8B8",
". . . . . + + + + + + + + + + + + + + + + + + + + + + + + + + + ",
"@ @ @ @ @ # $ % % % % % % % % % % % % % % % % % % % % % % % & * ",
"= = = = = - ; > , ' ) ! ~ { ] ^ / ( _ : < < [ ^ } | 1 2 ) ' 3 4 ",
"5 5 5 5 5 - ; > , ' ) ! ~ { ] ^ / ( _ : < < [ ^ } | 1 2 ) ' 3 4 ",
"6 6 6 6 6 - ; > , ' ) ! ~ { ] ^ / ( _ : < < [ ^ } | 1 2 ) ' 3 4 ",
"7 7 7 7 7 - ; 8 9 0 a b c d e f g h i j k g f l m n o p a 0 3 4 ",
"q q q q q - ; r s t u v w x y z A B B C B D A z E F w v u t 3 4 ",
"G G G G G - ; H I J K L M N O P Q R R S T U V P W X Y L K Z 3 4 ",
"` ` ` ` ` - ;  ...+.@.#.$.%.&.*.=.-.;.>.,.-.'.).!.~.{.#.].+.^./.",
"(.(.(.(.(.- ; _.:.<.[.}.|.1.2.2.2.2.2.2.2.2.2.2.3.4.5.}.6.7.^./.",
"8.8.8.8.8.- ; 9.0.a.b.c.d.2.@ @ @ @ @ @ @ @ @ @ 2.e.f.c.g.h.^./.",
"i.i.i.i.i.- ; j.k.l.m.n.o.2.p.p.p.p.p.p.p.p.p.p.2.q.r.s.t.u.^./.",
"v.v.v.v.v.- ; w.x.y.z.A.B.2.C.C.C.C.C.C.C.C.C.C.2.D.E.F.G.H.^./.",
"v.v.v.v.v.- I.J.K.L.M.N.O.P.2.2.2.2.2.2.2.2.2.2.Q.R.S.T.M.U.^./.",
"V.V.V.V.V.- W.X.Y.Z.`. +.+++@+#+$+%+&+*+=+%+$+#+-+;+>+,+'+Z.^./.",
")+)+)+)+)+3 !+~+{+]+^+/+(+_+:+<+[+}+|+1+|+}+[+<+2+3+4+5+6+7+^./.",
"8+8+8+8+8+9+0+a+b+c+d+e+f+g+h+i+j+k+l+m+n+o+p+q+r+s+t+u+v+w+3 /.",
"x+x+x+y+y+y+z+A+a+a+; ; ; ; ; ; ; ; ; ; ; ; ; ; ; B+B+B+B+B+B+B+",
"C+C+C+y+y+y+y+9+D+- - - - - - - - - - - - - - - - - E+E+E+E+E+E+",
"y+y+y+y+y+y+y+y+y+y+y+y+y+y+y+y+y+y+y+y+y+y+y+y+y+y+y+y+y+y+y+y+",
"F+F+F+F+y+y+y+y+y+y+y+y+y+y+y+y+y+y+y+y+y+y+y+y+y+y+y+y+y+y+y+y+",
"G+G+G+G+y+y+y+y+y+y+y+y+y+y+y+y+y+y+y+y+y+y+y+y+y+y+y+y+y+y+y+y+",
"H+H+H+H+y+y+y+y+y+y+y+y+y+y+y+y+y+y+y+y+y+y+y+y+y+y+y+y+y+y+y+y+",
"I+I+I+I+y+y+y+y+y+y+y+y+y+y+y+y+y+y+y+y+y+y+y+y+y+y+y+y+y+y+y+y+",
". . . . . + + + + + + + + + + + + + + + + + + + + + + + + + + + ",
"@ @ @ @ @ # $ % J+% % % % % % % % % % % % % % % % % % % % % % * ",
"= = = = = - ; K+L+L+M+N+O+P+Q+R+S+T+T+U+U+U+T+V+S+W+X+P+Y+Z+M+4 ",
"5 5 5 5 5 - ; K+L+L+M+N+O+P+Q+R+S+T+T+U+U+U+T+V+S+W+X+P+Y+Z+M+4 ",
"6 6 6 6 6 - ; K+L+L+M+N+O+P+Q+R+S+T+T+U+U+U+T+V+S+W+X+P+Y+Z+M+4 ",
"7 7 7 7 7 - ; `+ @ @.@+@@@#@$@%@&@*@*@=@-@=@*@*@&@;@>@,@'@)@.@4 ",
"q q q q q - ; !@~@~@{@]@^@/@(@_@:@<@<@'@'@'@<@[@}@|@1@/@^@2@{@4 ",
"G G G G G - ; 3@4@4@5@6@7@8@9@0@a@b@c@c@d@c@e@f@g@h@i@j@k@l@5@4 ",
"` ` ` ` ` - ; m@n@n@o@p@q@r@s@t@u@v@w@x@y@z@A@B@C@D@E@F@G@H@I@/.",
"(.(.(.(.(.- ; J@K@K@L@M@N@O@2.2.2.2.2.2.2.2.2.2.P@Q@Q@R@S@T@U@/.",
"8.8.8.8.8.- ; V@W@W@T@X@Y@2.@ @ @ @ @ @ @ @ @ @ 2.Z@Z@`@ #.#+#/.",
"i.i.i.i.i.- ; @#####$#%#&#2.p.p.p.p.p.p.p.p.p.p.2.*#*#=#-#;#>#/.",
"v.v.v.v.v.- ; ,#'#'#)#!#~#2.C.C.C.C.C.C.C.C.C.C.2.{#{#]#^#/#(#/.",
"v.v.v.v.v.- I._#:#:#<#[#}#|#2.2.2.2.2.2.2.2.2.2.1#2#2#3#4#5#6#/.",
"V.V.V.V.V.- W.7#8#8#9#0#a#b#c#d#e#f#g#h#g#f#i#j#k#l#m#n#o#p#q#/.",
")+)+)+)+)+3 !+r#s#s#t#u#v#w#x#y#z#A#B#C#B#A#z#D#E#F#G#H#I#J#K#/.",
"8+8+8+8+8+9+0+L#M#M#N#O#P#Q#R#S#T#U#V#W#X#n+X#Y#Z#`# $.$+$@$#$/.",
"x+x+x+y+y+y+z+9+$$a+; ; ; ; ; ; ; ; ; ; ; ; ; ; ; B+B+B+B+B+B+B+",
"C+C+C+y+y+y+y+9+D+- - - - - - - - - - - - - - - - - E+E+E+E+E+E+",
"y+y+y+y+y+y+y+y+y+y+y+y+y+y+y+y+y+y+y+y+y+y+y+y+y+y+y+y+y+y+y+y+",
"F+F+F+y+y+y+y+y+y+y+y+y+y+y+y+y+y+y+y+y+y+y+y+y+y+y+y+y+y+y+y+y+",
"G+G+G+y+y+y+y+y+y+y+y+y+y+y+y+y+y+y+y+y+y+y+y+y+y+y+y+y+y+y+y+y+",
"H+y+y+y+y+y+y+y+y+y+y+y+y+y+y+y+y+y+y+y+y+y+y+y+y+y+y+y+y+y+y+y+",
"I+y+y+y+y+y+y+y+y+y+y+y+y+y+y+y+y+y+y+y+y+y+y+y+y+y+y+y+y+y+y+y+"};
