/* XPM */
static char * buttonO_xpm[] = {
"76 24 40 1",
" 	c None",
".	c #6B727D",
"+	c #6B727E",
"@	c #6C727E",
"#	c #6C727D",
"$	c #6F796C",
"%	c #6F7A6D",
"&	c #707B6E",
"*	c #455044",
"=	c #465145",
"-	c #465246",
";	c #475246",
">	c #465345",
",	c #465346",
"'	c #475347",
")	c #434F43",
"!	c #404C3F",
"~	c #414C40",
"{	c #3C493C",
"]	c #394539",
"^	c #3A4539",
"/	c #1B1D1B",
"(	c #121112",
"_	c #121212",
":	c #191A1C",
"<	c #1D251D",
"[	c #1B3518",
"}	c #194314",
"|	c #194E12",
"1	c #185810",
"2	c #186210",
"3	c #186912",
"4	c #166E15",
"5	c #166D15",
"6	c #19851A",
"7	c #19861A",
"8	c #19861B",
"9	c #1A871B",
"0	c #1A871C",
"a	c #181E35",
".+@@@.+@@@#.+@@@##.+@@@.+@@@#.+@.+@@@.+@@@#.+@@@.+@@@#.+@@@.+@@@.+@@@#.+@@@#",
"$%%%%$%%%%&$%%%%&&$%%%%$%%%%&$%%$%%%%$%%%%&$%%%%$%%%%&$%%%%$%%%%$%%%%&$%%%%&",
"*===-*===-;*===-;;*===-*===-;*==*===-*===-;*===-*===-;*===-*===-*===-;*===-;",
">,,,,>,,,,,>,,,,,'>,,,,>,,,,,>,,>,,,,>,,,,,>,,,,>,,,,,>,,,,>,,,,>,,,,,>,,,,,",
"))))))))))))))))))))))))))))))))))))))))))))))))))))))))))))))))))))))))))))",
"!~~~~!~~~~~!~~~~~~!~~~~!~~~~~!~~!~~~~!~~~~~!~~~~!~~~~~!~~~~!~~~~!~~~~~!~~~~~",
"{{{{{{{{{{{{{{{{{{{{{{{{{{{{{{{{{{{{{{{{{{{{{{{{{{{{{{{{{{{{{{{{{{{{{{{{{{{{",
"]]]]]]]]]]]]]]]]]]]]]]]]]]]]]]]]]]]]]]]]]]]]]]]]]]]]]]]]]]]]]]]]]]]]]]]]]]]]",
"^^^^^^^^^^^^^^^^^^^^^^^^^^^^^^^^^^^^^^^^^^^^^^^^^^^^^^^^^^^^^^^^^^^^^^^^^^^^",
"////////////////////////////////////////////////////////////////////////////",
"((((((((((((((((((((((((((((((((((((((((((((((((((((((((((((((((((((((((((((",
"____________________________________________________________________________",
"::::::::::::::::::::::::::::::::::::::::::::::::::::::::::::::::::::::::::::",
"<<<<<<<<<<<<<<<<<<<<<<<<<<<<<<<<<<<<<<<<<<<<<<<<<<<<<<<<<<<<<<<<<<<<<<<<<<<<",
"[[[[[[[[[[[[[[[[[[[[[[[[[[[[[[[[[[[[[[[[[[[[[[[[[[[[[[[[[[[[[[[[[[[[[[[[[[[[",
"}}}}}}}}}}}}}}}}}}}}}}}}}}}}}}}}}}}}}}}}}}}}}}}}}}}}}}}}}}}}}}}}}}}}}}}}}}}}",
"||||||||||||||||||||||||||||||||||||||||||||||||||||||||||||||||||||||||||||",
"1111111111111111111111111111111111111111111111111111111111111111111111111111",
"2222222222222222222222222222222222222222222222222222222222222222222222222222",
"3333333333333333333333333333333333333333333333333333333333333333333333333333",
"4455544555444555444455544555444544555445554445554455544455544555445554445554",
"6678866788966788906678866788966766788667889667886678896678866788667889667889",
"aaaaaaaaaaaaaaaaaaaaaaaaaaaaaaaaaaaaaaaaaaaaaaaaaaaaaaaaaaaaaaaaaaaaaaaaaaaa",
"aaaaaaaaaaaaaaaaaaaaaaaaaaaaaaaaaaaaaaaaaaaaaaaaaaaaaaaaaaaaaaaaaaaaaaaaaaaa"};
