/* XPM */
static char *taskbuttonactiveO[] = {
/* columns rows colors chars-per-pixel */
"159 25 42 1",
"  c #616F79",
". c #717C88",
"X c #7E8895",
"o c #7E8A95",
"O c #7B8F9A",
"+ c #818C97",
"@ c #818B98",
"# c #828D99",
"$ c #84909C",
"% c #86919E",
"& c #87919E",
"* c #86929E",
"= c #89949F",
"- c #8A95A0",
"; c #8D97A3",
": c #8E98A5",
"> c #8E99A4",
", c #919BA7",
"< c #949EA9",
"1 c #97A2AA",
"2 c #98A2AB",
"3 c #98A3AB",
"4 c #99A4AC",
"5 c #99A5AD",
"6 c #9AA5AD",
"7 c #9AA5AE",
"8 c #9BA6AE",
"9 c #9CA6AE",
"0 c #9CA7AF",
"q c #9DA7AF",
"w c #9DA8AF",
"e c #9EA9B1",
"r c #9FA9B1",
"t c #A1AAB2",
"y c #A2ABB3",
"u c #A3ACB4",
"i c #A4ACB5",
"p c #A5ADB6",
"a c #A6AEB6",
"s c #A6AEB7",
"d c #DADCE8",
"f c #E4EFE3",
/* pixels */
"doooooooXXooooooooooooooooooooooXXooooooooooooooooooooooXXooooooooooXXooooXXooooXXooooooooooXXooooooooooXXooooooooooooooooooooooXXooooooooooXXooooooooooXoooood",
"Oo                                                                                                                                                           oO",
"o.ooXoXXXXXXXXXXXXXXXXXXXoXoXXXXXXXXXXXXXXXXoXXXXoXoXoXXXXXXXXXXXXXXXXX@XoXXXXXXXXXXXXXXXXXXXXXXXXXXXXXXXXXXXXXXXXXXXXXXXoXoXXXXXXXXXXXXXXXXXXXXXXXXXXXXXXXXX.o",
"o.@+@+@@++++++++++++@@@@@@@@++@@++++++++++++++@@@@@@@+@@++++++++++++@@@@@@@@+++++++@+++++++++++@++++++++++++++++++++@@@@@@@@++@@+++@+++++++++@@X+++++++++++++.o",
"o.++@@@@++#@+++++#O#@@#@++++@+@@##@@+++o+###@@###++o@@@@++#@+++++#O#@@O@@@+O+++++#+#++++++@@@@O#@@#+++#@@@@@@#+O+###@@#@++++@+@@+#+#@+++++#@@@##@@@O+#@@+++++.o",
"o.++++#+#+###++$#######O#+++++#######++$###O###O#++$++#+#O###+++###########o++#++O##+++$##+O#######O####+O#####o###O###O#++$++#+++#####+###O############+$+++.o",
"o.%$%#%%%#%#%%%#%%####$$-#$$$$%%O#%#-##%##%###%#%##*%#%%#%%#-#%$##%##&##%%#-#%%%#%%#%%#%-##%%%##%##%%#%##%%#%##-%%####$$%%%##%%%%#%#%%#%-####&&#&##$$##-#%$%%.o",
"oo&%%%%%&%&%%%%%-#-%---$%-*%%%%%-%%%%-*%--%%--%%--***%%%%%%%%-**--%%-&&-%%-#-%%%-#-%%%%%%%-%-#-%--%%%$--%%-$--O--#-%---$%%**%%%%&&&&%%&&&&--&&&&&&&&-&$-%%%%%oo",
"oo--==-=----====-*--===---------==========-=-===-----*-*-=====--------==------%-==========--====-----------------------------===================----=========oo",
"oo:::::;::::::::::::::::;;::;:;;::::::::::::::::;;:;:::::::::::;:::::::::;:::::::;::::::::::::::;;:;:::>>>>>>:>>>>::>>>:::::::::;,:::::::::::::,::::::::::::;oo",
"oo,,,,,,,,,,,,,,,,,,,,>,,,,,,,,,,,,,,,,,,,,,,,,,,,,,,,,,,,,,,,,,,,,,,,,,,,,,,,,,,,,,,,,,,,,,,,,,,,,,,,,,,,,,,,,,,,,,,,,,,,,,,:,,,,,,,,,,,,,,,,,,,,:,,,,,,,,,,oo",
"oo<<<<<1<<<<<<<1<<,1,1,1<<<<<<<,<<<1<<<<<1<<,1,1<<<<1,1,<<<<1,1,,1<<<<<1,<<<<,1,<<<1<<<<<<,1,1,1<<<<,1,1,1,1<<<<,1,1,1,1,1,111,1<<<<<<<<<<<<<<<1<<<<<<<1<<<<<oo",
"oo1117111111711111173333333322233331331111111111223333331711711111111111111171111171111111171111223331333133333333331113333313331111117111171111<711171711111@o",
"oo777117771777777777777777777777w17177w1771771w73777777777177ww177777777777777771787w7w1777771w737733353735333533573e333333333738188881171818181q<71811717771Xo",
"oo77717777777717771w3377713773377777717771w777777377737317771777177771777177177777177777771877777377e333333353335335333355773337188118188118177177<717118187woo",
"oo8878ww88ww8wwww7wwwwwwww7ee7ee7wwwwwwwwwwww8ww7ee7wwwwwww7wwwww8wwwwwwwwwwwwwwwww8ww8w8wwww7ww7ee7e7eeeeeeeeeee5eeweewee7eeww78888888888888888q7e8w8w88888wXo",
"ooteetteeeeeeewwwwwwwwwwwwwwwwwwwwwwwwwwwweeewwwwwwwwwwwwwwwwwetteeeeeewwwwwwwwwwwwwwwwwwwwwwwwwwwweetteeeeteeeteeeeteeeteteeteewtewteetwetwetweeteeteeeeewyeoo",
"oowteeeeteeeeewwwwwwwwwwwwwwwwwwwwwwwwwwwwetewwwwwwwwwwwwwwwwweeeeeeeeewwwwwwwwwwwwwwwwwwwwwwwwwwwwteeetttettteteeeeeeteteettqqtttetteetteetetteewtteetettewtoo",
"oottttytttttttyytyttttyyttttttttttyyttttttttttyyttytytyyttttttyttttttyttttyyttttttttttttttyyttttttttttttttttttttttuttttttttttttttttttttttttttttyttttttyyttyytXo",
"ootuuuuiyyyyyyuiyuyyuuuiuuuuuuuuuuuiuuuuiyyyyuuiuyuuuyiiuuuuuuuiyyyyyyyyuuuiuuuuuuuuuuuuuuuiuuuuuuiyttyitttttttiutuuyyyytttyytuuuuiituuuuuituiiiuuuuuyiiyyyyyXo",
"ooiiiiiiiiiiiiiiiiiiiiiiiiiiiiiiiiiiiiiiiiiiiiiiiiiiiiiiiiiiiiiiiiiiiiiiiiiiiiiiiiiiiiiiiiiiiiiiiiiiiiiiiiiiiiiiuuiiiiiiiiiiiiiiiiiiiiuuiiiiiiiiiiiiiiiiiiiii+o",
"ooiisiisiiaiaiisiiiaiasisisiiiaisiisisiiiisisisiiiiaiisiiiiiiisiiaiiiiaisiisisiisisiiiaisiissisiiiiisiisiiiisiissisisisisisiiiisiaaiiaaaiiiiiaiiiiiiiiaiiaaiioo",
"ooaaiaaasiaaiasisssssasissississississasaasisisisassssssssssasaissaaaaasississasssissississississassissisississisisisisississisaaaaaaassaaaasaaassssaaaaaaaaio@",
"O@====-=-=--=--=====---=--=--=--=-----==-=-=-----==-======--====--=====-=-----==--=--=--=--=--==-==-=-------=--=----------=--=--============--=============-=oO",
"f=============================================================================================================================================================f"
};
