/* XPM */
static char *taskbuttonactive[] = {
/* columns rows colors chars-per-pixel */
"159 25 40 1",
"  c #43515B",
". c #535F6B",
"X c #5D727D",
"o c #616B78",
"O c #616D78",
"+ c #646E7B",
"@ c #646F7A",
"# c #65707C",
"$ c #67737F",
"% c #697481",
"& c #697581",
"* c #6A7481",
"= c #6C7782",
"- c #6D7883",
"; c #707A86",
": c #717C87",
"> c #717B88",
", c #747E8A",
"< c #77818C",
"1 c #7A858D",
"2 c #7B858E",
"3 c #7B868E",
"4 c #7C878F",
"5 c #7C8890",
"6 c #7D8890",
"7 c #7D8891",
"8 c #7E8991",
"9 c #7E8992",
"0 c #7F8992",
"q c #808A93",
"w c #828C95",
"e c #848D96",
"r c #858E97",
"t c #868F98",
"y c #878F99",
"u c #88909A",
"i c #89919A",
"p c #89919B",
"a c #DADCE8",
"s c #E4EFE3",
/* pixels */
"aOOOOOOOOOOOOOOOOOOOOOOOOOOOOOOOOOOOOOOOOOOOOOOOOOOOOOOOOOOOOOOOOOOOOOOOOOOOOOOOOOOOOOOOOOOOOOOOOOOOOOOOOOOOOOOOOOOOOOOOOOOOOOOOOOOOOOOOOOOOOOOOOOOOOOOOOOOOOOa",
"XO                                                                                                                                                           OX",
"O.oooooooooOoooooooooooooooooooooooooooooooooooOooooooooooooooooooooooooooooooooooooooooooooooooooooooooooooooooooooooooooooooooOooOoooooooooooOooooooooooooo.O",
"O.@@@@@@@@@+@@@@@@@@@@@@@@@@@@@@#O###@@@@@@@@@@+@@@@@@@@@@@#@@@@@@@@##O#@@@@@@@@@@@+@@@@@@@@##O+@@@@@@@@@@@+@@@@@@@@@@@+@@@@@@@@O#O++#@@@@@@#++O@@@@@@@@@@@@@.O",
"O.++@++++++++++O++++++++++++++++++++++++@@++++++++++++++++++++++++++++++++++@+++++++++++++++++++++++@++++++++++++++++++++++++++++++++++#++++++++++++@+++@++++.O",
"O.#++#################+@#########O######+@########+@+####+##++++#######+###++#########+@#########################################+########################+##.O",
"O.%##%%#%##%%##%%#=#%#%%%%%##%%##%%#%$#%=#%#=#=#%#%%#%=#%##%%%%%%#%#%#%#%%%##%%#%##%%#%%%#%#%#%#%#%##%%#%##%%#%#%#%#=#%#%%%##%%#%##%%###%#%#%#%#%#%##%%##%=#%.O",
"OO=%%%==%%%%==%=%%%%=%%%%%%%%%==%%=%%==-%%%%%%%%==%%%%%=%%=%%%%%=%%%=%=%%%%%=%==%%=%%=%%=%%%=%=%%=%%=%%=%%=%%=%==%%%%%=%%%%%%%==%=%%=====%%%=%=%%=%%=%%=%%%%%OO",
"OO--==-----=====--=-----==-----=-$-----$---$$--$====----=-==--=---=---=-==----==-==-==-----;=---=-==-==------===---;===-==--=--=--$-------$--$$-=--=--=-----;OO",
"OO>>>>>;>>>>>:>>-,->>-:>>->>-,,->->>>>>>>>>><-<>;;,-,--,-,,-,--,-,->>>->-;>>-,,->>;>>-,--,--->>--,,-,--,-,,->>-,-,---,->>->>-,,->->>>>>>>>>->><--,,-,--,-,,--OO",
"OO,,,,,,,,,,,,,,,,,,,,<>,,,,,,,,><<><><><><><><-,,,,,,,,,,,,,,,,,,,,,,,,,,,,,,,,,,,,<,,,,,,,<,,,,,,,,,,,,,,,,,,,,,,,<,,,,,,,,,,,<>><<><><>><<<<:,,,,,,,,,,,,,OO",
"OO<<<<<<<<<<<<<<,2<<<<<<<<<<<<<<<<<<<<<<<<<<<<<<<<<<<<<<2,2,<<<<<2<<<<<<<<<<<<<<<<<<<<<<,2<<<<<<<<<<<<<<,,2,<<<<,2<<<<<<<<<<<<<<<<<<<<<<<<<<<<<<2,2,<<<<,,2,<OO",
"OO3133111141414471131141113133334414414444414414333333112233331333333333111133333333333377<3333333117133773333337333333333333333444141447141444123133333773<3@O",
"OO55737777444444777744447773733744444444444444447373737337737373733744447777733744444373773737373773173777333744773744443371733744444444444744447337773377377OO",
"OO557557774444473717744733773773544544544544444437373737373737377773743733733773744344733773737777377733<7773734777373377377377344444474474444443777177777773OO",
"OO9979997q777q77q777q777q79079990077770070770000999999997999999979977q77q79999997q7q7q77q77q77797999777q0077q7q779777q77q79979990007777q77770000797777777777qOO",
"OOwwwwwwwweqeqqewwwwwwwwwwwwwwwwqewwwwwwwwwwwwww0eeewwwewwwwwweq0ewwwwwwwwwwwwwwwwwwwwwwe0ee0rwwwwwewwwweqrqeqeq0rwwwwwwwwwwwwwwwwwwwwqeqeqewwwwwwwwwwwwwwqrwOO",
"OOwqwwwwwwwqqeeewwwwwewwwwwwwwwweqwwwwwwwwwweqwweeqqwwwqwwwqweqqwwwwwwwwwwwwwwwwwwwwwwwwe00ewwwwwwwqwwwqqrqqqeqee0wweqwwwwwwwwwweewwwweeeqeqwqwwwwwwwwwwwweqwOO",
"OOrreerreeeeeeeeeeeeeeeeeeeerreeeeeeerrrrrrerrereerrrerrrrrereeeerrrerreeeeeeeeeeeeeeeeeeeeerrrreerrrrrrrreeeeeerrrreeeeererrreeeeeeeeeeeeeeeeeerwrrwrrrrrrrrOO",
"OOryrrryrrireitiyyrrreirryryrryrririrrrrryrrrrritryrrryyrrrirrirrrrrryrrttttttttttttttttyyyyrrrrrryrrryyrrirriterrrriyyyrrryryrrttttetttrririrrirrryrryyrrrrrOO",
"OOyyyyyyiririiiiyyyyyyieyyyyyyyyiieyrriiyyyyyyyytttiyyyyyyyyiiiryyyyyyyypiitttiiyyyytttyyyyyyyyyyyyyyyyyyyyyiiiiyyyyyyyyyyyryyyyiietitiiyyyyyyyyyyyyyyyyyyyyyOO",
"OOiyiyyiiiyyiiiiyyyyypiiyiyyyyyiiiyyiiiiyyyyyiyytiypyiiyyiiyiiiipypypyypiiiitiiiiyiiiiiiiyypiyiiiiiyiiyiiiiyiiiiupypypyyyyyiyyyiiiiiiiiiyyiyiyiyiyyiiiyiyiiyiOO",
"OOiiyyiyiyiiiiiiyypypppiiiyiiyiiiipyiiiiiiiyiiiyippiiiiyiyiipiiippyyyypyiiipppiiiiiiiiiiiiiiiiiiiiiiiiiiiiiiiiiipypypypyiiiiiyiiiiiiiiiiiyiyiyiyiyiiiiiiiiiiiOO",
"XO----------$$:$----------------;$---$;$-----------$$-------$;$;--------$;$--$--=*=====*========---$$-----$-:$$;====------------:$:$$$:$------------$-----$--OX",
"s$-----$;$;$;$$:$---$-----$----$--$---$;-$-----$--$--------$---$--$---$---$---$-================-$-----$---$;$;$$---$-----$----$;$;$;$$:$---$----$-----$-----$s"
};
