/* XPM */
static char * minimizeI_xpm[] = {
"18 40 39 1",
" 	c None",
".	c #F2F2F2",
"+	c #EEEEEE",
"@	c #EAEAEA",
"#	c #3F3F3F",
"$	c #FDFDFD",
"%	c #E7E7E7",
"&	c #E3E3E3",
"*	c #E0E0E0",
"=	c #EBEBEB",
"-	c #DDDDDD",
";	c #E6E6E6",
">	c #D9D9D9",
",	c #D5D5D5",
"'	c #DADADA",
")	c #D2D2D2",
"!	c #D4D4D4",
"~	c #CFCFCF",
"{	c #CBCBCB",
"]	c #C9C9C9",
"^	c #C7C7C7",
"/	c #C3C3C3",
"(	c #C4C4C4",
"_	c #BDBDBD",
":	c #727272",
"<	c #C0C0C0",
"[	c #B7B7B7",
"}	c #B1B1B1",
"|	c #BABABA",
"1	c #B6B6B6",
"2	c #B2B2B2",
"3	c #AFAFAF",
"4	c #ABABAB",
"5	c #B8B8B8",
"6	c #BEBEBE",
"7	c #C5C5C5",
"8	c #D8D8D8",
"9	c #DEDEDE",
"0	c #E5E5E5",
"..................",
"++++++++++++++++++",
"@###############$@",
"%#$$$$$$$$$$$$$$$%",
"&#$............#$&",
"*#$============#$*",
"-#$;;;;;;;;;;;;#$-",
">#$************#$>",
",#$''''''''''''#$,",
")#$!!!!!!!!!!!!#$)",
"~#$~~~~~~~~~~~~#$~",
"{#$]]]]]]]]]]]]#${",
"^#$//########//#$^",
"(#$__::::::::__#$(",
"<#$[[[[[[[[[[[[#$<",
"_#$}}}}}}}}}}}}#$_",
"|#$#############$|",
"1$$$$$$$$$$$$$$$$1",
"222222222222222222",
"333333333333333333",
"..................",
"++++++++++++++++++",
"@###############$@",
"%###############$%",
"&##444444444444$$&",
"*##222222222222$$*",
"-##555555555555$$-",
">##666666666666$$>",
",##777777777777$$,",
")##{{{{{{{{{{{{$$)",
"~##))))))))))))$$~",
"{##888888888888$${",
"^##99::::::::99$$^",
"(##00########00$$(",
"<##============$$<",
"_##............$$_",
"|##$$$$$$$$$$$$$$|",
"1$$$$$$$$$$$$$$$$1",
"222222222222222222",
"333333333333333333"};
