/* XPM */
static char *taskbuttonactiveO[] = {
/* columns rows colors chars-per-pixel */
"160 25 70 1",
"  c #08296F",
". c #082970",
"X c #092B71",
"o c #092B72",
"O c #0D399C",
"+ c #0D3B9D",
"@ c #0E3C9F",
"# c #0E3BA1",
"$ c #0E3CA2",
"% c #0C3CA9",
"& c #0C3CAC",
"* c #0C3CAE",
"= c #0E44BF",
"- c #0F4AB9",
"; c #1B4EB3",
": c #1B51BE",
"> c #1F57BA",
", c #0E4BD1",
"< c #0D4EDE",
"1 c #1A4EC3",
"2 c #1356CB",
"3 c #175DCF",
"4 c #1A51C2",
"5 c #1C51C2",
"6 c #1C54C2",
"7 c #1C54C6",
"8 c #1B5BD3",
"9 c #1C5CD3",
"0 c #1E5DD3",
"q c #1F5ED3",
"w c #115BE9",
"e c #1C62D2",
"r c #1E64D3",
"t c #1460E0",
"y c #1666EC",
"u c #235BD9",
"i c #2560CD",
"p c #2266D5",
"a c #336ADE",
"s c #296AE6",
"d c #286DE7",
"f c #2A6FE6",
"g c #2C6DE5",
"h c #2E6DE4",
"j c #2E69EB",
"k c #2D6AED",
"l c #2E6AEC",
"z c #2F6DE9",
"x c #2E6CEB",
"c c #2E6EE9",
"v c #2F6FEA",
"b c #2D6DED",
"n c #2F6DEC",
"m c #2F6FED",
"M c #2C72E6",
"N c #306EE3",
"B c #306EEA",
"V c #326EE9",
"C c #326FEA",
"Z c #3471E5",
"A c #3773E5",
"S c #3271E9",
"D c #3273E9",
"F c #3470E8",
"G c #3472E8",
"H c #3674E8",
"J c #307BE5",
"K c #3A77E3",
"L c #3B76E5",
"P c #3F7AE8",
/* pixels */
"Jy3pppppppppppprrrrrrrrrrrrrrrrrrrrrrrrrrrrrrrrrrrrrrrrrrrrrrrrrrrrrrrrrrrrrrrrrrrrrrrreeeeereeeeeeeeeeeeeeeeeeeeeeeeeeeeeeeeeeeeeeeeeeeeeeeeeeeeeeeeeeereee32eJ",
"w;::114::4444:444::::::::::::::::4:::::::::::4:::::5444444444444444444444444444444444444444444:4444:4444::4444444444::4444454444::64444544444444444444444:44:4;-",
" 5788888888999999999999999999999990099999999999099999e9u00000000000000000000000000000009e99999u999eue999uq999999u99uuq99999e999u9u9u9e99u99u00000000000099qu9uiO",
" 6akkkkkbbbbbbbbbbbbbbbbbbbbbbbbbbbbbbbbbbbbbbbbbbbbCmvvmmmmmmmmmmmmmmmmmmmmmmmmmmmmmmxCBxCCVxDBCxBBBxCCBBBBvvCCDBBMBBBBCCCCGBVDCCCCCCBCDBDDCCCCCCCCCCCCVVDCCCgO",
" 5kkkkkkbbbbbbbbbbbbbbbbbbbbbbbbbbbbbbbbbbbbbbbbbbbCmmmmbCbbmbbCmmmmmmmmmmmmmmmmmmmmmmBBBBBBBBBBBBxCBBBBBBBBBBBBhBBBBBBBCCCCBBVVCCCCCCVBVVBBVGCCCCCCCCCCCCCCCCsO",
" 1kkkbbbbbbbbbbbbbmmmmmmmmmmmmmmbCCbmbBCmbCCmmmCmmmBCbxCCCCCCCCBbCmCBBvvCxvmvBBBvvCvBBBCBBBBBBBBBvCCBBBBBBBBBBBBBBBBBBBBCCCCVGCFCCCCCCCGVVBDVBGVCCCVCCCCCCCCCCsO",
" 5jjBkkkjbkbkkxBCvvvvmxvvvvvxCvvBBBbCCBBCBBBbBBBBBBCCCCCVCGVCCGBCGCCCCCvCCCCCCCCvCCvCCGCGGCGCGCZCCZCCGZCDVVDVDDDCDVDVDDVVVVVVVCBVVVVVVVVVVVVVVVVVVVVVVBVVVVVVVsO",
" 6BkkjkjkjkGGGDDGGGGGDGDGGGGGGBBVVBCCCVVBBBVCBVVBBVVVBCCVVBBBBVVBBCGGGGDGGDDDDGGDDGGGGVVBVBVBVBVVDVBCVVBVVVVVVVVDVVVVVVVVVVVVVVVVVVVVVVVVVVVVVVVVVVVVVVVVVVVVVsO",
"X6xxxxxxxxxDVDDVDDVDDVVDDvDVDDVVVVVVVVVVVVVVVVVVVVVVVVVVVVVVVVVVVVDDVDDVDvDVDDVDCCGGGvVVVVVVVVVVVVVVVVVVVVVVVVVVVVVVVVVVVVVVVVVVVVVVVVVVVVVVVVVVVVVVVVVVVVVVVVs+",
"X5xxxxxxxxxDDDVDVVDDVDDVvGDDVDVVVVVVVVVVVVVVVVVVVVVVVVVVVVVVVVVVVVVVDDVDvGDDVDDVCGGCDGVVVVVVVVVVVVVVVVVVVVVVVVVVVVVVVVVVVVVVVVVVVVVVVVVVVVVVVVVVVVVVVVVVVVVVVVs+",
" 6xxxjjjjjxVVVVVVVVVVVVVCCBVVVVVVVVVVVVVVVVVVVVVVVVVVVVVVVVVVVVVVVVVVVVVCCBVVVVVVVVVvBVVVVVVVVVVVVVVVVVVVVVVVVVVVVVVVVVVVVVVVVVVVVVVVVVVVVVVVVVVVVVVVVVVVVVVVVs@",
"X6jjjxxxxxxVVVVVVVVVVVVVCCBVVVVVVVVVVVVVVVVVVVVVVVVVVVVVVVVVVVVVVVVVVVVVCCVVVVVVVVVVBBVVVVVVVVVVVVVVVVVVVVVVVVVVVVVVVVVVVVVVVVVVVVVVVVVVVVVVVVVVVVVVVVVVVVVVVBs@",
" 5vxvMvxxxxVVVVVVVVVVVVVVVVVVVVVVVVVVVVVVVVVVVVVVVVVVVVVVVVVVVVVVVVVVVVVVVVVVVVVVVVVVVVVVVVVVVVVVVVVVVVVVVVVVVVVVVVVVVVVVVVVVVVVVVVVVVVVVVVVVVVVVVVVVVVVVVVVVVh@",
"X5hxxxvxxxVVVVVVVVVVVVVVVVVVVVVVVVVVVVVVVVVVVVVVVVVVVVVVVVVVVVVVVVVVVVVVVVVVVVVVVVVVVVVVVVVVVVVVVVVVVVVVVVVVVVVVVVVVVVVVVVVVVVVVVVVVVVVVVVVVVVVVVVVVVVVVVVVVGGN#",
" 5xBMhxhxhxBVVVVVVVVVVVVVVVVVVVVVVVVVVVVVVVVVVVVVVVVVVVVVVVVVVVVVVVVVVVVVVVVVVVVVVVVVVVVVVVVVVVVVVVVVVVVVVVVVVVVVVVVVVVVVVVVVVVVVVVVVVVVVVVVVVVVVVVVVVVVVVVVCGV#",
"X1xMBBxBDxCBVVVVVVVVVVVVVVVVVVVVVVVVVVVVVVVVVVVVVVVVVVVVVVVVVVVVVVVVVVVVVVVVVVVVVVVVVVVVVVVVVVVVVVVVVVVVVVVVVVVVVVVVVVVVVVVVVVVVVVVVVVVVVVVVVVVVVVVVVVVVVVVVCHh@",
"X5xhBxVVBVVVVVVVVVVVVVVVVVVVVVVVVVVVVVVVVVVVVVVVVVVVVVVVVVVVVVVVVVVVVVVVVVVVVVVVVVVVVVVVVVVVVVVVVVVVVVVVVVVVVVVVVVVVVVVVVVVVVVVVVVVVVVVVVVVVVVVVVVVVVVVVVVVVGGZ@",
"X5BVhxhVBVVVVVVVVVVVVVVVVVVVVVVVVVVVVVVVVVVVVVVVVVVVVVVVVVVVVVVVVVVVVVVVVVVVVVVVVVVVVVVVVVVVVVVVVVVVVVVVVVVVVVVVVVVVVVVVVVVVVVVVVVVVVVVVVVVVVVVVVVVVVVVVVVVVVHZ@",
"X5BBBBVVVVVVVVVVVVVVVVVVVVVVVVVVVVVVVVVVVVVVVVVVVVVVVVVVVVVVVVVVVVVVVVVVVVVVVVVVVVVVVVVVVVVVVVVVVVVVVVVVVVVVVVVVVVVVVVVVVVVVVVVVVVVVVVVVVVVVVVVVVVVVVVVVVVVVGGZ@",
"X5VVVBVVVVVVVVVVVVVVVVVVVVVVVVVVVVVVVVVVVVVVVVVVVVVVVVVVVVVVVVVVVVVVVVVVVVVVVVVVVVVVVVVVVVVVVVVVVVVVVVVVVVVVVVVVVVVVVVVVVVVVVVVVVVVVVVVVVVVVVVVVVVVVVVVVVVVVGHZ#",
"X5BBCBVVVVVVBVVVVVBBVVBBVBVBVVVVBVVVVBVBVVBBVVBBVVVVBBBBVBVVBBVBVVBBVBVVBVVVVVBBVVBBVVVVBBBBBBDCVVVVVVVVVVVVBBBBVVBBVVBBVVVBVVVVBBVBBBVVVVBVVVBBVVVVBVVBVVVVHKZ#",
"X5VVCCVVVVGVVGZGZVGCZVGCVGZCVGGGGGGGZGZDGGZDGZGGGGGGHCZHZHGGHCZGGGGCVZVZVGGVVGZCVGZCGVGAHCZHZGZCGGGGGGGGZGGGHCZHGGZDGZGGGGGGGGGGGZZHZZZDGGGGGGGGZGGGZDZGGGGGHLK#",
" 5VVBCCCVGVLGHHHLGHHHHHHLGHHHHAHGHHHHHHHHHHHHHHHHHHHHHHHHHHHHHHGAAHHHHHHGHHHHHHHHHHHHHAHHHHHHHHHHHHHGGHHHHHHHHHHHHHHHHHHLZZHAGAAHHZHLZHAAZLZLZZHAGAAAAAAAAAAKPK+",
"<>sgddffgffhMMhhgghghhhhhhgghxhhfhfhhhgghhxghhhfghhhggggghhhgghhhhgghhhhhfhhhhghhhggghhxggghhhhxghxhfhfhfhhhgggghhxghhhfhhghhhhhghhhhhgxhhgghghhhhhhgggggghVhMd=",
"u,**&**&%****%***%%%%%%%%%%%%%%%%%%%%%%%%%%%%%%%%%%***%*&&&&&&&&&&&&&&&&&&&&&&&&&&&&&&&*********************************************************&*************,u"
};
