/* XPM */
static char * icewmbgI_xpm[] = {
"76 24 508 2",
"  	c None",
". 	c #5D6372",
"+ 	c #5D6271",
"@ 	c #5D6272",
"# 	c #5D6273",
"$ 	c #5E6273",
"% 	c #5E6373",
"& 	c #5E6374",
"* 	c #5F6374",
"= 	c #5F6475",
"- 	c #5F6474",
"; 	c #606575",
"> 	c #616675",
", 	c #616676",
"' 	c #626776",
") 	c #626676",
"! 	c #626777",
"~ 	c #656A7A",
"{ 	c #5B6274",
"] 	c #464C5C",
"^ 	c #545B6F",
"/ 	c #646C82",
"( 	c #646C83",
"_ 	c #5D5D5D",
": 	c #5B5B5A",
"< 	c #5C5B5A",
"[ 	c #5C5C5B",
"} 	c #5D5D5C",
"| 	c #5E5D5C",
"1 	c #5E5E5D",
"2 	c #5F5F5D",
"3 	c #5F5F5E",
"4 	c #605F5E",
"5 	c #60605F",
"6 	c #60605E",
"7 	c #616060",
"8 	c #616160",
"9 	c #626261",
"0 	c #636362",
"a 	c #646362",
"b 	c #656463",
"c 	c #656564",
"d 	c #666665",
"e 	c #686866",
"f 	c #696968",
"g 	c #6A6A69",
"h 	c #6B6C6A",
"i 	c #6D6E6C",
"j 	c #70706F",
"k 	c #717170",
"l 	c #727271",
"m 	c #757574",
"n 	c #767675",
"o 	c #797877",
"p 	c #7B7A79",
"q 	c #7C7B7A",
"r 	c #7D7D7C",
"s 	c #7F7F7E",
"t 	c #81807F",
"u 	c #848484",
"v 	c #90939A",
"w 	c #848893",
"x 	c #585C68",
"y 	c #5E6472",
"z 	c #858EA1",
"A 	c #959EB2",
"B 	c #59576A",
"C 	c #8C8B9F",
"D 	c #343434",
"E 	c #313131",
"F 	c #323232",
"G 	c #333232",
"H 	c #343333",
"I 	c #333333",
"J 	c #353535",
"K 	c #353434",
"L 	c #363637",
"M 	c #373738",
"N 	c #383838",
"O 	c #373737",
"P 	c #363636",
"Q 	c #3A3A3A",
"R 	c #3C3C3C",
"S 	c #3E3E3E",
"T 	c #3F3F3F",
"U 	c #404040",
"V 	c #434343",
"W 	c #454545",
"X 	c #464646",
"Y 	c #484848",
"Z 	c #494949",
"` 	c #4B4B4B",
" .	c #4E4E4E",
"..	c #504F4F",
"+.	c #515151",
"@.	c #535353",
"#.	c #565656",
"$.	c #585858",
"%.	c #5A5A5A",
"&.	c #5C5C5C",
"*.	c #605F5F",
"=.	c #7B7B7B",
"-.	c #8B8C91",
";.	c #6B6D76",
">.	c #464851",
",.	c #676A77",
"'.	c #787C8B",
").	c #353536",
"!.	c #3B3C3C",
"~.	c #434445",
"{.	c #4B4D4D",
"].	c #4E5051",
"^.	c #4A4C4D",
"/.	c #424344",
"(.	c #3B3B3B",
"_.	c #393939",
":.	c #3D3D3D",
"<.	c #3E3E3F",
"[.	c #424242",
"}.	c #474747",
"|.	c #4D4D4D",
"1.	c #505050",
"2.	c #525252",
"3.	c #545454",
"4.	c #5E5E5E",
"5.	c #616161",
"6.	c #686867",
"7.	c #828384",
"8.	c #73757D",
"9.	c #474954",
"0.	c #616674",
"a.	c #727788",
"b.	c #4D515F",
"c.	c #7F8493",
"d.	c #323233",
"e.	c #303030",
"f.	c #313132",
"g.	c #363737",
"h.	c #505252",
"i.	c #696A6A",
"j.	c #6F6F6F",
"k.	c #6C6D6E",
"l.	c #6A6A6C",
"m.	c #606263",
"n.	c #47494A",
"o.	c #383839",
"p.	c #39393A",
"q.	c #3E3E3D",
"r.	c #444444",
"s.	c #4A4A4B",
"t.	c #4B4B4C",
"u.	c #4E4E4F",
"v.	c #505051",
"w.	c #535354",
"x.	c #555556",
"y.	c #59595A",
"z.	c #5F5F5F",
"A.	c #787979",
"B.	c #696C73",
"C.	c #42454F",
"D.	c #686D7E",
"E.	c #474B57",
"F.	c #757A8B",
"G.	c #2F2F30",
"H.	c #2D2D2D",
"I.	c #2E2E2E",
"J.	c #3A3C3C",
"K.	c #646565",
"L.	c #6D6D6D",
"M.	c #6B6C6C",
"N.	c #686969",
"O.	c #666768",
"P.	c #656667",
"Q.	c #535657",
"R.	c #4C4E4E",
"S.	c #424444",
"T.	c #393B3B",
"U.	c #373838",
"V.	c #393A3A",
"W.	c #404242",
"X.	c #444646",
"Y.	c #3C3C3D",
"Z.	c #4A4A4A",
"`.	c #4C4C4C",
" +	c #4F4F4F",
".+	c #555554",
"++	c #575757",
"@+	c #595959",
"#+	c #7C7C7F",
"$+	c #51545C",
"%+	c #454A56",
"&+	c #5E6475",
"*+	c #2B2B2B",
"=+	c #292929",
"-+	c #2A2A2A",
";+	c #2B2C2C",
">+	c #414343",
",+	c #666767",
"'+	c #6A6A6A",
")+	c #686868",
"!+	c #656566",
"~+	c #636465",
"{+	c #5F6061",
"]+	c #4E5052",
"^+	c #676868",
"/+	c #5D5F5F",
"(+	c #595B5B",
"_+	c #5E5F60",
":+	c #686869",
"<+	c #606262",
"[+	c #555555",
"}+	c #737477",
"|+	c #383B44",
"1+	c #565B6D",
"2+	c #3F4451",
"3+	c #6C7283",
"4+	c #272829",
"5+	c #262627",
"6+	c #2B2B2D",
"7+	c #666667",
"8+	c #676768",
"9+	c #646465",
"0+	c #616263",
"a+	c #606162",
"b+	c #56585A",
"c+	c #4D5052",
"d+	c #626365",
"e+	c #6B6B6C",
"f+	c #6C6C6D",
"g+	c #6D6D6E",
"h+	c #525455",
"i+	c #353637",
"j+	c #414142",
"k+	c #474748",
"l+	c #49494A",
"m+	c #4D4D4E",
"n+	c #575758",
"o+	c #777779",
"p+	c #484A51",
"q+	c #3D414F",
"r+	c #4E5365",
"s+	c #3A3F4D",
"t+	c #646C7F",
"u+	c #272729",
"v+	c #303132",
"w+	c #57585A",
"x+	c #646466",
"y+	c #616264",
"z+	c #5F6062",
"A+	c #4F5153",
"B+	c #545657",
"C+	c #646566",
"D+	c #696969",
"E+	c #6B6B6B",
"F+	c #46494A",
"G+	c #333435",
"H+	c #3A3A3B",
"I+	c #434344",
"J+	c #464647",
"K+	c #4F4F50",
"L+	c #565657",
"M+	c #5B5B5B",
"N+	c #616366",
"O+	c #2F333E",
"P+	c #484E60",
"Q+	c #121213",
"R+	c #101010",
"S+	c #202222",
"T+	c #4C4D4E",
"U+	c #494A4A",
"V+	c #404243",
"W+	c #4E4F50",
"X+	c #3A3D3E",
"Y+	c #4B4C4E",
"Z+	c #545555",
"`+	c #565757",
" @	c #515252",
".@	c #222424",
"+@	c #131313",
"@@	c #121212",
"#@	c #141414",
"$@	c #151515",
"%@	c #161616",
"&@	c #171717",
"*@	c #1F1F1F",
"=@	c #232323",
"-@	c #363635",
";@	c #747679",
">@	c #2C2E37",
",@	c #44485B",
"'@	c #323643",
")@	c #5A6075",
"!@	c #0B0B0B",
"~@	c #090909",
"{@	c #0B0C0C",
"]@	c #202223",
"^@	c #3C3E3F",
"/@	c #383B3C",
"(@	c #323536",
"_@	c #333637",
":@	c #4D4E4E",
"<@	c #3E3F40",
"[@	c #121313",
"}@	c #080808",
"|@	c #0A0A0A",
"1@	c #171716",
"2@	c #27282F",
"3@	c #363949",
"4@	c #262834",
"5@	c #4A4F63",
"6@	c #0B0B0C",
"7@	c #1E2A44",
"8@	c #111212",
"9@	c #4D4E4F",
"0@	c #3B3D3F",
"a@	c #2E3132",
"b@	c #3E4041",
"c@	c #4C4D4D",
"d@	c #525253",
"e@	c #484949",
"f@	c #27292A",
"g@	c #0D0D0D",
"h@	c #0C0C0C",
"i@	c #060605",
"j@	c #1E1F25",
"k@	c #2C2E3C",
"l@	c #09090A",
"m@	c #191A1B",
"n@	c #494A4C",
"o@	c #373A3B",
"p@	c #414243",
"q@	c #383A3B",
"r@	c #393C3C",
"s@	c #3D3F3F",
"t@	c #171819",
"u@	c #38393A",
"v@	c #1C1D22",
"w@	c #2B2D3B",
"x@	c #232530",
"y@	c #44485E",
"z@	c #080809",
"A@	c #070707",
"B@	c #090A0A",
"C@	c #232526",
"D@	c #4E4F4F",
"E@	c #4A4C4C",
"F@	c #464849",
"G@	c #343738",
"H@	c #131414",
"I@	c #0E0E0E",
"J@	c #0F0F0F",
"K@	c #191A20",
"L@	c #0D0E0E",
"M@	c #313334",
"N@	c #4A4B4C",
"O@	c #3F4142",
"P@	c #36393A",
"Q@	c #4B4C4C",
"R@	c #505151",
"S@	c #343636",
"T@	c #0E0E0F",
"U@	c #060606",
"V@	c #111111",
"W@	c #202020",
"X@	c #343435",
"Y@	c #171920",
"Z@	c #21212D",
"`@	c #3D4259",
" #	c #060607",
".#	c #050505",
"+#	c #101112",
"@#	c #4A4B4B",
"##	c #494A4B",
"$#	c #37393A",
"%#	c #3B3D3E",
"&#	c #4F5050",
"*#	c #070808",
"=#	c #2F2F2F",
"-#	c #28292C",
";#	c #191B25",
">#	c #282A38",
",#	c #1D1F2A",
"'#	c #373D56",
")#	c #0F1011",
"!#	c #2E3031",
"~#	c #282A2B",
"{#	c #1F2121",
"]#	c #1E2121",
"^#	c #292B2C",
"/#	c #393B3C",
"(#	c #444546",
"_#	c #4B4C4D",
":#	c #181A1A",
"<#	c #181818",
"[#	c #191919",
"}#	c #15161B",
"|#	c #242836",
"1#	c #040404",
"2#	c #070708",
"3#	c #080909",
"4#	c #0E0F0F",
"5#	c #424345",
"6#	c #151617",
"7#	c #1B1B1B",
"8#	c #1C1C1C",
"9#	c #1E1E1E",
"0#	c #262729",
"a#	c #13151D",
"b#	c #222532",
"c#	c #1B1D28",
"d#	c #323952",
"e#	c #030303",
"f#	c #18191A",
"g#	c #2C2D2E",
"h#	c #383A3A",
"i#	c #3B3D3D",
"j#	c #373939",
"k#	c #2A2C2C",
"l#	c #1A1A1A",
"m#	c #212121",
"n#	c #323231",
"o#	c #303031",
"p#	c #0F1016",
"q#	c #202230",
"r#	c #2D344E",
"s#	c #020202",
"t#	c #1D1D1D",
"u#	c #242424",
"v#	c #282828",
"w#	c #101116",
"x#	c #1D1F2C",
"y#	c #010102",
"z#	c #000000",
"A#	c #010000",
"B#	c #020101",
"C#	c #030202",
"D#	c #040303",
"E#	c #040403",
"F#	c #050404",
"G#	c #060505",
"H#	c #070706",
"I#	c #090808",
"J#	c #0B0A0A",
"K#	c #0C0B0B",
"L#	c #0D0D0C",
"M#	c #0E0D0D",
"N#	c #0F0F0E",
"O#	c #10110F",
"P#	c #121111",
"Q#	c #131212",
"R#	c #141313",
"S#	c #161514",
"T#	c #171616",
"U#	c #191918",
"V#	c #1A1A19",
"W#	c #1B1B1A",
"X#	c #1D1C1C",
"Y#	c #1F1E1E",
"Z#	c #201F1F",
"`#	c #212020",
" $	c #222221",
".$	c #242423",
"+$	c #252525",
"@$	c #313130",
"#$	c #313030",
"$$	c #242425",
"%$	c #101119",
"&$	c #1A1C29",
"*$	c #161822",
"=$	c #282F4C",
"-$	c #1D2124",
";$	c #1E2125",
">$	c #1E2225",
",$	c #1F2226",
"'$	c #1F2326",
")$	c #202327",
"!$	c #202427",
"~$	c #212428",
"{$	c #212528",
"]$	c #222629",
"^$	c #23262A",
"/$	c #24272B",
"($	c #24282B",
"_$	c #25292C",
":$	c #262A2D",
"<$	c #272B2E",
"[$	c #282B2F",
"}$	c #282C2F",
"|$	c #292D30",
"1$	c #292C30",
"2$	c #2A2E31",
"3$	c #2B2E32",
"4$	c #2B2F32",
"5$	c #2C2F33",
"6$	c #2D3034",
"7$	c #2D3134",
"8$	c #2E3135",
"9$	c #2F3236",
"0$	c #2F3336",
"a$	c #303337",
"b$	c #2D2F31",
"c$	c #212227",
"d$	c #12141E",
"e$	c #0D111D",
"f$	c #1A1924",
"g$	c #21162B",
"h$	c #302A52",
"i$	c #181E35",
". + @ @ @ @ # # # # # # # # # # # # # # $ # # $ $ $ $ $ $ % & & & & & & * * * = - = ; ; ; ; ; > , ' ) ! ! ! ~ { ] ^ / ( ( ( ( ( ( ( ( ( ( ( ( ( ( ( ( ( ",
"_ : : : : < [ [ [ [ [ [ } } } } | | | 1 1 2 3 4 5 6 6 6 7 8 8 8 9 0 a b c d e f g h i j k l m n o p q r s t u v w x y z A A A A A A A A A A A A A A B C ",
"D E E E E F G G F F F F H I I D J J J K D J J J J L M N O L P O N N Q R R S T U V W X Y Z `  ...+.@.#.$.%.&.*.d =.-.;.>.,.'.'.'.'.'.'.'.'.'.'.'.'.'.B C ",
").I I I D D D D D D D J J J J J J P P P P P O N !.~.{.].^./.(.N _._.Q (.:.<.U [.[.W }.Z ` |. .1.2.3.#.$.%.&.4.4.5.6.7.8.9.0.a.a.a.a.a.a.a.a.a.a.a.a.b.c.",
"d.e.e.e.e.e.e.e.E E E E E E E E f.f.f.f.f.F F g.h.i.j.k.l.m.n.L J D L M o.p.(.q.T U [.r.W Y s.t.u.v.2.w.x.$.y.&.4.z.8 A.B.C.D.D.D.D.D.D.D.D.D.D.D.D.E.F.",
"G.H.H.H.H.H.H.H.H.H.H.H.I.I.I.I.I.I.I.I.I.I.I.J.K.L.M.N.O.P.Q.R.S.T.U.V.W.X.Y.Q (.:.S U V r.}.Y Z.`. ++.@..+++@+%.&.4.z.#+$+%+&+&+&+&+&+&+&+&+&+&+&+E.F.",
"*+=+=+=+=+=+=+=+=+=+-+-+-+-+-+-+-+-+-+-+-+-+;+>+,+'+)+!+~+{+]+~+^+/+(+_+:+<+!.P N _.(.:.T [.V W }.Z `  .1.2.@.[+$.%.&.&.d }+|+1+1+1+1+1+1+1+1+1+1+1+2+3+",
"4+5+5+5+5+5+5+5+5+5+5+5+5+5+5+5+5+5+5+5+5+5+6+^.7+8+9+0+a+b+c+d+)+'+e+f+g+h+i+d.J M p.(.Y.T j+V W k+l+` m+1.2.w.x.n+%.&.&.o+p+q+r+r+r+r+r+r+r+r+r+r+s+t+",
"u+5+5+5+5+5+5+5+5+5+5+5+5+5+5+5+5+5+5+5+5+5+v+w+)+8+x+y+z+A+B+C+)+D+E+L.f+F+G+I P o.H+R <.j+I+W J+l+`.m+K+@.[+x.L+@+M+_ M+E+N+O+P+P+P+P+P+P+P+P+P+P+s+t+",
"Q+R+R+R+R+R+R+R+R+R+R+R+R+R+R+R+R+R+R+R+R+R+S+T+U+>+V+n.W+X+Y+Z+`+$.$.@+ @.@+@@@+@+@#@#@#@$@$@$@$@%@&@*@=@=@=@-+e.-@U Y @.5 ;@>@,@,@,@,@,@,@,@,@,@,@'@)@",
"!@~@~@~@~@~@~@~@~@~@~@~@~@~@~@~@~@~@~@~@~@{@]@^@>+~.W./@(@_@:@+.2.@.@.@.<@[@~@~@~@}@}@}@}@}@}@}@}@}@}@}@}@}@}@}@~@~@|@|@!@1@x.2@3@3@3@3@3@3@3@3@3@3@4@5@",
"6@|@|@|@7@7@7@7@|@|@|@|@|@|@|@|@|@|@|@|@|@8@J.3.3.+.K+9@0@a@b@c@2.d@ +e@f@g@|@|@|@|@|@|@|@|@|@|@|@|@|@|@~@~@~@~@|@|@|@!@h@i@).j@k@k@k@k@k@k@k@k@k@k@4@5@",
"l@}@}@}@}@}@}@}@}@}@}@}@}@}@}@}@}@}@}@}@~@m@U+2.+.9@c@n@o@p@W.q@o@r@s@^@t@~@}@}@}@}@}@}@}@}@}@}@}@}@}@}@~@~@|@|@!@h@h@g@g@h@u@v@w@w@w@w@w@w@w@w@w@w@x@y@",
"z@A@A@A@A@A@A@A@A@A@A@A@A@A@A@A@A@A@A@A@B@C@D@2.K+c@E@F@G@n. ++.:@ +2.~.H@A@A@A@A@A@A@A@A@A@A@A@A@}@}@~@|@!@!@h@g@I@I@J@J@$@M K@w@w@w@w@w@w@w@w@w@w@x@y@",
"z@A@A@A@A@A@A@A@A@A@A@A@A@A@A@A@A@A@A@A@L@M@+.2.D@c@N@O@P@Q@ +R@+.2.2.S@T@A@A@A@A@U@A@A@A@}@}@~@~@|@!@h@g@I@J@J@R+V@@@+@@@W@X@Y@w@w@w@w@w@w@w@w@w@w@Z@`@",
" #.#.#.#.#.#.#.#.#.#.#.#.#.#.#.#.#.#.#.#+#>+1.|.s.@###$#%#N@ . +1.1.&#C@*#.#.#U@U@A@}@}@~@~@|@!@!@h@g@I@J@R+V@V@+@#@#@%@%@=#-#;#>#>#>#>#>#>#>#>#>#>#,#'#",
" #.#.#.#.#.#.#.#.#.#.#.#.#.#.#.#.#.#.#.#)#!#~#{#]#^#/#(@(#_# +&#1.1.@#:#A@U@A@}@~@~@|@!@h@g@g@I@J@R+V@@@+@#@$@%@&@<#[#[#*@M }#|#|#|#|#|#|#|#|#|#|#|#,#'#",
".#1#1#1#1#1#1#1#1#1#1#1#1#1#1#1#1#1#1#1#U@}@2#.#.#3#4#{#5#c@ +1.1.1.%#6#A@}@~@|@|@h@g@g@g@R+J@R++@@@#@$@%@<#<#[#7#7#8#9#J 0#a#b#b#b#b#b#b#b#b#b#b#b#c#d#",
"1#e#e#e#e#e#e#e#e#e#e#e#e#e#e#e#e#e#e#e#e#e#e#e#e#e#e#3#f#g#h#i#j#k#t@4#|@!@h@g@g@J@R+R+V@+@+@#@$@%@<#<#l#7#8#9#9#*@m#n#o#p#q#q#q#q#q#q#q#q#q#q#q#q#;#r#",
"e#s#s#s#s#s#s#s#s#s#s#s#s#s#s#s#s#s#s#s#s#s#e#e#e#1#.#U@U@A@}@~@|@|@!@h@g@I@J@R+V@@@+@#@$@%@&@<#[#7#8#t#*@*@m#m#u#v#J I.w#x#x#x#x#x#x#x#x#x#x#x#x#x#;#r#",
"y#z#z#z#z#z#z#z#z#z#z#z#z#z#z#z#z#z#z#z#z#z#A#B#C#D#E#F#G#H#H#I#J#J#K#L#M#N#O#P#Q#R#S#T#1@U#V#W#X#Y#Z#`# $.$+$v#@$#$$$%$&$&$&$&$&$&$&$&$&$&$&$&$&$&$*$=$",
"-$-$-$-$-$-$-$-$-$-$-$-$-$-$-$-$;$;$>$>$,$'$)$)$!$~${${${$]$]$^$/$/$($_$_$:$:$<$[$}$|$1$|$2$3$4$5$6$7$8$9$0$a$b$c$d$e$f$f$f$f$f$f$f$f$f$f$f$f$f$f$f$g$h$",
"i$i$i$i$i$i$i$i$i$i$i$i$i$i$i$i$i$i$i$i$i$i$i$i$i$i$i$i$i$i$i$i$i$i$i$i$i$i$i$i$i$i$i$i$i$i$i$i$i$i$i$i$i$i$i$i$i$i$i$i$i$i$i$i$i$i$i$i$i$i$i$i$i$i$g$h$",
"i$i$i$i$i$i$i$i$i$i$i$i$i$i$i$i$i$i$i$i$i$i$i$i$i$i$i$i$i$i$i$i$i$i$i$i$i$i$i$i$i$i$i$i$i$i$i$i$i$i$i$i$i$i$i$i$i$i$i$i$i$i$i$i$i$i$i$i$i$i$i$i$i$i$g$h$"};
