/* XPM */
static char * icewmbgO_xpm[] = {
"76 24 832 2",
"  	c #6B727E",
". 	c #6B717D",
"+ 	c #6B727D",
"@ 	c #6C727E",
"# 	c #6C727D",
"$ 	c #6C737E",
"% 	c #6C737F",
"& 	c #6D737F",
"* 	c #6D747F",
"= 	c #6D7480",
"- 	c #6E7480",
"; 	c #6E7481",
"> 	c #6E7581",
", 	c #6F7581",
"' 	c #717885",
") 	c #666C7C",
"! 	c #494E5F",
"~ 	c #585F74",
"{ 	c #646C83",
"] 	c #6E796D",
"^ 	c #6D786B",
"/ 	c #6E786C",
"( 	c #6E796C",
"_ 	c #6F796C",
": 	c #6F7A6D",
"< 	c #707B6E",
"[ 	c #707C6F",
"} 	c #717C6F",
"| 	c #727C6F",
"1 	c #727D70",
"2 	c #737E71",
"3 	c #737F72",
"4 	c #747F73",
"5 	c #758173",
"6 	c #778275",
"7 	c #778476",
"8 	c #798478",
"9 	c #7B8679",
"0 	c #7C867A",
"a 	c #7E887C",
"b 	c #7E8A7D",
"c 	c #7F8A7D",
"d 	c #818B80",
"e 	c #838E81",
"f 	c #858F82",
"g 	c #858F83",
"h 	c #869185",
"i 	c #889386",
"j 	c #899487",
"k 	c #8B9689",
"l 	c #8B968A",
"m 	c #8F9A8E",
"n 	c #9AA5A2",
"o 	c #939AA0",
"p 	c #626770",
"q 	c #595E6C",
"r 	c #798195",
"s 	c #959EB2",
"t 	c #59576A",
"u 	c #8C8B9F",
"v 	c #455145",
"w 	c #434F42",
"x 	c #434F43",
"y 	c #455043",
"z 	c #455044",
"A 	c #465145",
"B 	c #465246",
"C 	c #475246",
"D 	c #475247",
"E 	c #485347",
"F 	c #485447",
"G 	c #485547",
"H 	c #485646",
"I 	c #485548",
"J 	c #485448",
"K 	c #495548",
"L 	c #495549",
"M 	c #4A5749",
"N 	c #4C584B",
"O 	c #4C5A4D",
"P 	c #4E5A4D",
"Q 	c #4F5B4F",
"R 	c #515C50",
"S 	c #525D52",
"T 	c #545F54",
"U 	c #566155",
"V 	c #586357",
"W 	c #596459",
"X 	c #5A655A",
"Y 	c #5C675C",
"Z 	c #5F6A5E",
"` 	c #606C60",
" .	c #626D62",
"..	c #646E63",
"+.	c #657065",
"@.	c #677266",
"#.	c #687468",
"$.	c #6B776B",
"%.	c #6D786D",
"&.	c #737E72",
"*.	c #869085",
"=.	c #96A09A",
"-.	c #757C80",
";.	c #50535C",
">.	c #737885",
",.	c #787C8B",
"'.	c #455144",
").	c #465245",
"!.	c #465345",
"~.	c #465346",
"{.	c #475347",
"].	c #495447",
"^.	c #495547",
"/.	c #495845",
"(.	c #4A6043",
"_.	c #4F6848",
":.	c #526B4A",
"<.	c #4E6747",
"[.	c #4A5F45",
"}.	c #4A5848",
"|.	c #4A5549",
"1.	c #4B564B",
"2.	c #4C574B",
"3.	c #4C584C",
"4.	c #4D594D",
"5.	c #505C4F",
"6.	c #505D50",
"7.	c #515E51",
"8.	c #535F53",
"9.	c #556054",
"0.	c #566256",
"a.	c #576357",
"b.	c #5E685E",
"c.	c #5F695F",
"d.	c #616B60",
"e.	c #646F64",
"f.	c #667166",
"g.	c #677267",
"h.	c #697468",
"i.	c #6C766A",
"j.	c #6C776C",
"k.	c #6D786E",
"l.	c #6F796E",
"m.	c #758074",
"n.	c #8E9890",
"o.	c #7B8183",
"p.	c #494B55",
"q.	c #616572",
"r.	c #727788",
"s.	c #4D515F",
"t.	c #7F8493",
"u.	c #444F44",
"v.	c #424E42",
"w.	c #434E43",
"x.	c #444F43",
"y.	c #445542",
"z.	c #556F4F",
"A.	c #7D8B7B",
"B.	c #889188",
"C.	c #818F80",
"D.	c #788C77",
"E.	c #688263",
"F.	c #4B6644",
"G.	c #455542",
"H.	c #485346",
"I.	c #495449",
"J.	c #4B574C",
"K.	c #4D584C",
"L.	c #535E52",
"M.	c #576257",
"N.	c #5B675C",
"O.	c #5D685D",
"P.	c #606B61",
"Q.	c #687167",
"R.	c #697369",
"S.	c #6B766A",
"T.	c #6D786C",
"U.	c #6D796D",
"V.	c #707A6E",
"W.	c #858F86",
"X.	c #707679",
"Y.	c #434651",
"Z.	c #686D7E",
"`.	c #474B57",
" +	c #757A8B",
".+	c #414D40",
"++	c #404C3E",
"@+	c #404C3F",
"#+	c #414C40",
"$+	c #42593D",
"%+	c #738670",
"&+	c #899189",
"*+	c #858F84",
"=+	c #7A8B79",
"-+	c #748A72",
";+	c #6E896D",
">+	c #517349",
",+	c #506C49",
"'+	c #486041",
")+	c #445740",
"!+	c #445541",
"~+	c #445840",
"{+	c #485F43",
"]+	c #4E6348",
"^+	c #4B5A49",
"/+	c #4F5B4E",
"(+	c #515D50",
"_+	c #576457",
":+	c #5A6559",
"<+	c #5E695E",
"[+	c #606A5F",
"}+	c #616D61",
"|+	c #636F63",
"1+	c #667065",
"2+	c #677166",
"3+	c #687367",
"4+	c #6A7469",
"5+	c #6F7A6E",
"6+	c #89948A",
"7+	c #555A5F",
"8+	c #5E6475",
"9+	c #3C4A3D",
"0+	c #3B493B",
"a+	c #3C493C",
"b+	c #3C4B3C",
"c+	c #44603E",
"d+	c #7B897A",
"e+	c #868E85",
"f+	c #7E8B7D",
"g+	c #758874",
"h+	c #6F876E",
"i+	c #638161",
"j+	c #4A6D41",
"k+	c #72886F",
"l+	c #7C8B7A",
"m+	c #6D7F68",
"n+	c #64795E",
"o+	c #6B7E66",
"p+	c #7D8A7A",
"q+	c #6D8168",
"r+	c #475A43",
"s+	c #4A5448",
"t+	c #4C564B",
"u+	c #566356",
"v+	c #596458",
"w+	c #5B665A",
"x+	c #616C60",
"y+	c #626E62",
"z+	c #636E63",
"A+	c #667165",
"B+	c #687268",
"C+	c #6C776B",
"D+	c #748073",
"E+	c #7B847F",
"F+	c #393D45",
"G+	c #565B6D",
"H+	c #3F4451",
"I+	c #6C7283",
"J+	c #3A463B",
"K+	c #394539",
"L+	c #3A4A37",
"M+	c #4F6A49",
"N+	c #818A81",
"O+	c #838B82",
"P+	c #7A8779",
"Q+	c #728570",
"R+	c #6C846B",
"S+	c #577752",
"T+	c #4E6F46",
"U+	c #738872",
"V+	c #818C80",
"W+	c #878F87",
"X+	c #888F88",
"Y+	c #8A918A",
"Z+	c #577251",
"`+	c #4A564A",
" @	c #4F5C4E",
".@	c #525E51",
"+@	c #556055",
"@@	c #566357",
"#@	c #5B665B",
"$@	c #5F6A5F",
"%@	c #646F63",
"&@	c #687368",
"*@	c #6A756A",
"=@	c #869086",
"-@	c #4C5153",
";@	c #3F4351",
">@	c #4E5365",
",@	c #3A3F4D",
"'@	c #646C7F",
")@	c #3B453A",
"!@	c #3A4539",
"~@	c #3B4F36",
"{@	c #63795F",
"]@	c #858C84",
"^@	c #7A8879",
"/@	c #728671",
"(@	c #6B8469",
"_@	c #4C7045",
":@	c #587652",
"<@	c #778977",
"[@	c #828D81",
"}@	c #848F84",
"|@	c #879086",
"1@	c #8A9289",
"2@	c #849084",
"3@	c #455344",
"4@	c #475446",
"5@	c #49564A",
"6@	c #4E5A4E",
"7@	c #525F51",
"8@	c #546153",
"9@	c #556256",
"0@	c #596559",
"a@	c #5B685B",
"b@	c #5E695D",
"c@	c #5F6B60",
"d@	c #616C62",
"e@	c #647164",
"f@	c #657165",
"g@	c #697368",
"h@	c #6A746A",
"i@	c #6B7669",
"j@	c #7A8679",
"k@	c #656C6A",
"l@	c #30333E",
"m@	c #484E60",
"n@	c #1D1F1D",
"o@	c #1B1D1B",
"p@	c #23311E",
"q@	c #556452",
"r@	c #515F4C",
"s@	c #42573B",
"t@	c #3F5638",
"u@	c #516850",
"v@	c #335029",
"w@	c #51654E",
"x@	c #676F66",
"y@	c #6F726D",
"z@	c #707370",
"A@	c #727471",
"B@	c #737473",
"C@	c #5F6A5D",
"D@	c #23331E",
"E@	c #1D211D",
"F@	c #1E201E",
"G@	c #1F211E",
"H@	c #1F221F",
"I@	c #202220",
"J@	c #202320",
"K@	c #212320",
"L@	c #212321",
"M@	c #272927",
"N@	c #303430",
"O@	c #323732",
"P@	c #353A35",
"Q@	c #3F443E",
"R@	c #444943",
"S@	c #4C534C",
"T@	c #555C55",
"U@	c #5F685E",
"V@	c #667066",
"W@	c #717C71",
"X@	c #7A837D",
"Y@	c #2C2E36",
"Z@	c #44485B",
"`@	c #323643",
" #	c #5A6075",
".#	c #141314",
"+#	c #121112",
"@#	c #131412",
"##	c #1F2D18",
"$#	c #3C4F36",
"%#	c #485642",
"&#	c #4B5846",
"*#	c #43543D",
"=#	c #344C2C",
"-#	c #2A4421",
";#	c #2C4523",
">#	c #586557",
",#	c #656865",
"'#	c #696A68",
")#	c #6B6B6B",
"!#	c #6C6C6C",
"~#	c #41513D",
"{#	c #151C12",
"]#	c #111111",
"^#	c #111011",
"/#	c #121212",
"(#	c #131313",
"_#	c #141414",
":#	c #1E1E1E",
"<#	c #343734",
"[#	c #6E7470",
"}#	c #2A2C32",
"|#	c #363949",
"1#	c #262834",
"2#	c #4A4F63",
"3#	c #131314",
"4#	c #1E2A44",
"5#	c #151B13",
"6#	c #3C4C36",
"7#	c #6B6C6C",
"8#	c #636862",
"9#	c #5B675B",
"0#	c #556655",
"a#	c #354E2F",
"b#	c #253E1B",
"c#	c #3C5236",
"d#	c #5A6257",
"e#	c #676966",
"f#	c #626661",
"g#	c #535D4F",
"h#	c #24361E",
"i#	c #131612",
"j#	c #121211",
"k#	c #121111",
"l#	c #141413",
"m#	c #151515",
"n#	c #171717",
"o#	c #181717",
"p#	c #101010",
"q#	c #4F4F4F",
"r#	c #25262C",
"s#	c #2C2E3C",
"t#	c #1A1B1D",
"u#	c #191A1C",
"v#	c #191B1C",
"w#	c #202D1D",
"x#	c #707172",
"y#	c #6B6F6D",
"z#	c #626B62",
"A#	c #5B6A5C",
"B#	c #546855",
"C#	c #365130",
"D#	c #485D45",
"E#	c #485B44",
"F#	c #3C5136",
"G#	c #3B5034",
"H#	c #3E5238",
"I#	c #44563F",
"J#	c #445640",
"K#	c #1F2B1D",
"L#	c #1A1A1C",
"M#	c #1C1B1D",
"N#	c #1C1C1F",
"O#	c #1D1D20",
"P#	c #1E1E21",
"Q#	c #212022",
"R#	c #212123",
"S#	c #212124",
"T#	c #57575A",
"U#	c #212227",
"V#	c #2B2D3B",
"W#	c #232530",
"X#	c #44485E",
"Y#	c #1D251E",
"Z#	c #1D251D",
"`#	c #1E281D",
" $	c #2B4325",
".$	c #737872",
"+$	c #6B756A",
"@$	c #627261",
"#$	c #5C715B",
"$$	c #506B4E",
"%$	c #35552C",
"&$	c #576E54",
"*$	c #697569",
"=$	c #70766F",
"-$	c #6A7369",
";$	c #6D746C",
">$	c #737873",
",$	c #576754",
"'$	c #21311D",
")$	c #1C261D",
"!$	c #1C261E",
"~$	c #1D261E",
"{$	c #1D271F",
"]$	c #1D2720",
"^$	c #1F2920",
"/$	c #202A21",
"($	c #202A22",
"_$	c #212B23",
":$	c #222C23",
"<$	c #232D25",
"[$	c #242E25",
"}$	c #252F27",
"|$	c #262F28",
"1$	c #252E26",
"2$	c #2E362F",
"3$	c #595F5C",
"4$	c #1E1F25",
"5$	c #1B3519",
"6$	c #1B3518",
"7$	c #1D3B18",
"8$	c #395E30",
"9$	c #6E816D",
"0$	c #72826F",
"a$	c #687E65",
"b$	c #607B5C",
"c$	c #5A7B56",
"d$	c #436C3C",
"e$	c #38632E",
"f$	c #5B7B59",
"g$	c #687E66",
"h$	c #6F806C",
"i$	c #71816F",
"j$	c #728270",
"k$	c #3C6034",
"l$	c #1B3517",
"m$	c #1C3518",
"n$	c #1C3519",
"o$	c #1C3719",
"p$	c #1C381A",
"q$	c #1D381B",
"r$	c #1F391C",
"s$	c #203A1C",
"t$	c #1F3A1E",
"u$	c #213B1F",
"v$	c #223C1F",
"w$	c #223C21",
"x$	c #243E21",
"y$	c #243E22",
"z$	c #253F24",
"A$	c #264024",
"B$	c #284025",
"C$	c #284127",
"D$	c #263F24",
"E$	c #384F36",
"F$	c #536554",
"G$	c #1A1D23",
"H$	c #21212D",
"I$	c #3D4259",
"J$	c #194215",
"K$	c #194314",
"L$	c #1D4C15",
"M$	c #507949",
"N$	c #6F8A6D",
"O$	c #678663",
"P$	c #5D8258",
"Q$	c #5D8458",
"R$	c #588354",
"S$	c #376D2C",
"T$	c #417337",
"U$	c #5D8459",
"V$	c #6A8765",
"W$	c #6D8969",
"X$	c #6F8A6B",
"Y$	c #708B6D",
"Z$	c #6D896A",
"`$	c #295C1F",
" %	c #1A4514",
".%	c #1A4315",
"+%	c #1A4316",
"@%	c #1C4417",
"#%	c #1D4618",
"$%	c #1E4719",
"%%	c #1F481A",
"&%	c #20481D",
"*%	c #21491D",
"=%	c #22491D",
"-%	c #234A1F",
";%	c #244B20",
">%	c #264C21",
",%	c #264D21",
"'%	c #264D22",
")%	c #294E24",
"!%	c #294F25",
"~%	c #295127",
"{%	c #2A5025",
"]%	c #4D6D48",
"^%	c #3F5342",
"/%	c #181C25",
"(%	c #282A38",
"_%	c #1D1F2A",
":%	c #373D56",
"<%	c #194D13",
"[%	c #194E12",
"}%	c #1D5614",
"|%	c #386F2D",
"1%	c #2F6923",
"2%	c #256118",
"3%	c #246118",
"4%	c #2E6A21",
"5%	c #3F7936",
"6%	c #327125",
"7%	c #4F8447",
"8%	c #608C5B",
"9%	c #6B8F66",
"0%	c #6E9069",
"a%	c #70916A",
"b%	c #70916C",
"c%	c #60895A",
"d%	c #215C14",
"e%	c #1A4F12",
"f%	c #1A4F13",
"g%	c #1B5014",
"h%	c #1C5115",
"i%	c #1C5116",
"j%	c #1E5116",
"k%	c #1F5317",
"l%	c #1F5318",
"m%	c #205319",
"n%	c #21541A",
"o%	c #21551A",
"p%	c #23551A",
"q%	c #23561D",
"r%	c #24581D",
"s%	c #25581F",
"t%	c #26591F",
"u%	c #275A20",
"v%	c #285B21",
"w%	c #295B23",
"x%	c #2A5D24",
"y%	c #2A5D25",
"z%	c #2D5E26",
"A%	c #2C5E26",
"B%	c #34652E",
"C%	c #597E55",
"D%	c #1F2D23",
"E%	c #242836",
"F%	c #185611",
"G%	c #185810",
"H%	c #195910",
"I%	c #195B10",
"J%	c #195A10",
"K%	c #1C5E11",
"L%	c #256A17",
"M%	c #4E8A46",
"N%	c #669461",
"O%	c #6F986A",
"P%	c #70986C",
"Q%	c #70996C",
"R%	c #47813D",
"S%	c #206516",
"T%	c #1C5C13",
"U%	c #1C5C15",
"V%	c #1D5D15",
"W%	c #1E5D16",
"X%	c #1E5E17",
"Y%	c #205E18",
"Z%	c #205F19",
"`%	c #215F19",
" &	c #22601A",
".&	c #23611A",
"+&	c #24621D",
"@&	c #24621E",
"#&	c #25631E",
"$&	c #26641F",
"%&	c #27641F",
"&&	c #286521",
"*&	c #296622",
"=&	c #2A6724",
"-&	c #2B6726",
";&	c #2C6926",
">&	c #2E6928",
",&	c #2E6A27",
"'&	c #2F6B28",
")&	c #53834E",
"!&	c #406540",
"~&	c #14191F",
"{&	c #222532",
"]&	c #1B1D28",
"^&	c #323952",
"/&	c #186011",
"(&	c #186210",
"_&	c #186110",
":&	c #1B6412",
"<&	c #216D15",
"[&	c #347C29",
"}&	c #46863C",
"|&	c #4B8942",
"1&	c #438539",
"2&	c #327A26",
"3&	c #236E17",
"4&	c #206817",
"5&	c #1E6617",
"6&	c #1F6718",
"7&	c #216819",
"8&	c #21681A",
"9&	c #22691B",
"0&	c #236A1C",
"a&	c #246A1C",
"b&	c #246B1E",
"c&	c #266C1E",
"d&	c #266C20",
"e&	c #276D20",
"f&	c #286D22",
"g&	c #296F22",
"h&	c #296F23",
"i&	c #2B7025",
"j&	c #2C7126",
"k&	c #2D7127",
"l&	c #2D7227",
"m&	c #2E7228",
"n&	c #307429",
"o&	c #31752B",
"p&	c #4B8445",
"q&	c #50824D",
"r&	c #17271C",
"s&	c #202230",
"t&	c #191B25",
"u&	c #2D344E",
"v&	c #186613",
"w&	c #186912",
"x&	c #196A14",
"y&	c #196B14",
"z&	c #1A6B15",
"A&	c #1A6C16",
"B&	c #1B6C16",
"C&	c #1C6C17",
"D&	c #1D6D17",
"E&	c #1E6E19",
"F&	c #1F6E19",
"G&	c #206F1A",
"H&	c #21701D",
"I&	c #22721D",
"J&	c #23721E",
"K&	c #24731E",
"L&	c #257320",
"M&	c #267421",
"N&	c #277421",
"O&	c #277521",
"P&	c #287624",
"Q&	c #297624",
"R&	c #297725",
"S&	c #2B7727",
"T&	c #2C7928",
"U&	c #2D7928",
"V&	c #2E7A29",
"W&	c #2F7B2A",
"X&	c #307B2C",
"Y&	c #327D2D",
"Z&	c #378033",
"`&	c #508F4C",
" *	c #4F894E",
".*	c #1D3821",
"+*	c #1D1F2C",
"@*	c #166B16",
"#*	c #166E15",
"$*	c #166D15",
"%*	c #176E15",
"&*	c #186F15",
"**	c #186F16",
"=*	c #196F16",
"-*	c #197017",
";*	c #1A7018",
">*	c #1A7119",
",*	c #1C7119",
"'*	c #1C7219",
")*	c #1D731B",
"!*	c #1E731B",
"~*	c #1F741C",
"{*	c #20751D",
"]*	c #20751E",
"^*	c #21761F",
"/*	c #237620",
"(*	c #237720",
"_*	c #237721",
":*	c #247823",
"<*	c #257923",
"[*	c #277924",
"}*	c #287A25",
"|*	c #287B27",
"1*	c #297B27",
"2*	c #2A7C27",
"3*	c #2B7D29",
"4*	c #2C7D29",
"5*	c #2D7E2A",
"6*	c #2E7F2B",
"7*	c #2E7F2C",
"8*	c #2F802D",
"9*	c #30812E",
"0*	c #2F802E",
"a*	c #318230",
"b*	c #378435",
"c*	c #458E42",
"d*	c #4C934A",
"e*	c #438343",
"f*	c #1D3B22",
"g*	c #1A1C29",
"h*	c #161822",
"i*	c #282F4C",
"j*	c #19811B",
"k*	c #19851A",
"l*	c #19861A",
"m*	c #19861B",
"n*	c #1A871B",
"o*	c #1A871C",
"p*	c #1B871D",
"q*	c #1C891E",
"r*	c #1E891E",
"s*	c #1F8A1F",
"t*	c #208A21",
"u*	c #208B22",
"v*	c #228B23",
"w*	c #228C23",
"x*	c #238C24",
"y*	c #248D26",
"z*	c #258D27",
"A*	c #258E27",
"B*	c #268F27",
"C*	c #278F29",
"D*	c #28912A",
"E*	c #29912B",
"F*	c #2B922C",
"G*	c #2C922C",
"H*	c #2D942D",
"I*	c #2D9430",
"J*	c #2E9431",
"K*	c #309532",
"L*	c #319732",
"M*	c #329733",
"N*	c #339934",
"O*	c #339937",
"P*	c #359A37",
"Q*	c #359A38",
"R*	c #379B39",
"S*	c #379C39",
"T*	c #3A9E3B",
"U*	c #3C9F3E",
"V*	c #40A142",
"W*	c #409F41",
"X*	c #3E993F",
"Y*	c #398A3F",
"Z*	c #2B663A",
"`*	c #142626",
" =	c #1A1924",
".=	c #21162B",
"+=	c #302A52",
"@=	c #181E35",
"          . . . . + + +   @ @ @ # # # @ @ @ @ @ @ @ @ @ @ @ @ @ @ @ @ $ $ $ % % & & * = = - - - - ; - > , , ' ) ! ~ { { { { { { { { { { { { { { { { { { ",
"] ^ ^ ^ ^ / / / / ( ( _ : : : : < < < < < < [ } } } } } | 1 1 1 2 3 4 5 5 6 7 8 9 0 a b c d e f g h i j k l m n o p q r s s s s s s s s s s s s s s t u ",
"v w w w w x y y y y y z A A A B C C C C D D D D E F G H I J J K L M N O P Q R S T U V W X Y Z `  ...+.@.#.$.%.&.*.=.-.;.>.,.,.,.,.,.,.,.,.,.,.,.,.,.t u ",
"C '.'.'.).).).).).).).!.~.~.~.~.~.{.{.{.{.E ].^./.(._.:.<.[.}.|.1.2.3.4.5.6.7.8.9.0.a.X Y b.c.d. .e.f.g.h.i.j.k.l.m.n.o.p.q.r.r.r.r.r.r.r.r.r.r.r.r.s.t.",
"u.v.v.v.v.v.v.v.w.w.w.x x x x x x x x x x x.x.y.z.A.B.C.D.E.F.G.!.H.I.I.J.K.4.Q 6.L.9.U M.X N.O.c.P. .e.f.Q.R.S.T.U.V.W.X.Y.Z.Z.Z.Z.Z.Z.Z.Z.Z.Z.Z.Z.`. +",
".+++++++++++++++@+@+@+@+#+#+#+#+#+#+#+#+#+#+#+$+%+&+*+=+-+;+>+,+'+)+!+~+{+]+^+K.P /+(+8.9.0._+:+Y <+[+}+|+1+2+3+4+$.T.5+6+7+`.8+8+8+8+8+8+8+8+8+8+8+`. +",
"9+0+0+0+0+0+0+0+0+0+a+a+a+a+a+a+a+a+a+a+a+a+b+c+d+e+f+g+h+i+j+k+l+m+n+o+p+q+r+s+t+3.P /+7.L.U u+v+w+O.Z x+y+z+A+B+h.S.C+D+E+F+G+G+G+G+G+G+G+G+G+G+G+H+I+",
"J+K+K+K+K+K+K+K+K+K+K+K+K+K+K+K+K+K+K+K+K+K+L+M+N+O+P+Q+R+S+T+U+V+W+X+&+Y+Z+!+).F `+3.P  @.@8.+@@@:+#@O.$@x+y+%@f.B+&@*@$.=@-@;@>@>@>@>@>@>@>@>@>@>@,@'@",
")@!@!@!@!@!@!@!@!@!@!@!@!@!@!@!@!@!@!@!@!@!@~@{@]@]@^@/@(@_@:@<@[@}@|@1@2@F.3@4@5@N 6@6.7@8@9@a.0@a@b@c@d@%@e@f@@.g@h@i@*@j@k@l@m@m@m@m@m@m@m@m@m@m@,@'@",
"n@o@o@o@o@o@o@o@o@o@o@o@o@o@o@o@o@o@o@o@o@o@p@q@r@s@t@[.u@v@w@x@y@z@A@B@C@D@E@F@F@G@H@H@I@J@J@K@L@L@M@N@O@O@P@Q@R@S@T@U@V@W@X@Y@Z@Z@Z@Z@Z@Z@Z@Z@Z@Z@`@ #",
".#+#+#+#+#+#+#+#+#+#+#+#+#+#+#+#+#+#+#+#+#@###$#%#&#*#=#-#;#>#,#'#)#!#!#~#{#]#]#]#]#]#]#^#^#^#^#^#^#^#]#]#]#]#/#/#/#(#_#:#<#[#}#|#|#|#|#|#|#|#|#|#|#1#2#",
"3#/#/#/#4#4#4#4#/#/#/#/#/#/#/#/#/#/#/#/#/#5#6#7#!#8#9#0#a#b#c#d#e#'#f#g#h#i#/#/#/#/#/#/#/#/#/#/#/#/#/#/#/#j#j#k#(#l#m#n#o#p#q#r#s#s#s#s#s#s#s#s#s#s#1#2#",
"t#u#u#u#u#u#u#u#u#u#u#u#u#u#u#u#u#u#u#u#v#w#>#x#y#z#A#B#C#D#E#F#G#H#I#J#K#v#u#u#u#u#u#u#u#u#u#u#u#u#u#u#u#L#M#N#O#P#Q#R#S#R#T#U#V#V#V#V#V#V#V#V#V#V#W#X#",
"Y#Z#Z#Z#Z#Z#Z#Z#Z#Z#Z#Z#Z#Z#Z#Z#Z#Z#Z#Z#`# $3+.$+$@$#$$$%$&$*$=$-$;$>$,$'$Z#Z#Z#Z#Z#Z#Z#Z#)$!$~$~${$]$^$/$($_$:$<$[$}$|$1$2$3$4$V#V#V#V#V#V#V#V#V#V#W#X#",
"5$6$6$6$6$6$6$6$6$6$6$6$6$6$6$6$6$6$6$6$7$8$9$0$a$b$c$d$e$f$g$h$i$j$j$k$7$6$6$6$6$l$l$m$n$o$p$q$r$s$t$u$v$w$x$y$z$A$B$C$D$E$F$G$V#V#V#V#V#V#V#V#V#V#H$I$",
"J$K$K$K$K$K$K$K$K$K$K$K$K$K$K$K$K$K$K$K$L$M$N$O$P$Q$R$S$T$U$V$W$X$Y$Z$`$ %K$K$.%.%+%@%#%#%$%$%%%&%*%=%-%;%>%,%'%)%)%!%~%{%]%^%/%(%(%(%(%(%(%(%(%(%(%_%:%",
"<%[%[%[%[%[%[%[%[%[%[%[%[%[%[%[%[%[%[%[%}%|%1%2%3%4%5%6%7%8%9%0%a%b%c%d%e%f%g%h%i%j%k%l%m%n%o%p%q%r%s%t%u%v%v%w%x%y%z%A%B%C%D%E%E%E%E%E%E%E%E%E%E%E%_%:%",
"F%G%G%G%G%G%G%G%G%G%G%G%G%G%G%G%G%G%G%G%H%I%J%H%H%I%K%L%M%N%O%P%P%Q%R%S%T%U%V%W%X%Y%Z%`% &.&+&@&#&$&%&&&*&=&=&-&;&>&,&'&)&!&~&{&{&{&{&{&{&{&{&{&{&{&]&^&",
"/&(&(&(&(&(&(&(&(&(&(&(&(&(&(&(&(&(&(&(&(&(&(&(&(&(&_&:&<&[&}&|&1&2&3&4&5&6&6&7&8&9&0&a&b&c&d&e&f&g&h&i&j&k&l&m&n&n&o&p&q&r&s&s&s&s&s&s&s&s&s&s&s&s&t&u&",
"v&w&w&w&w&w&w&w&w&w&w&w&w&w&w&w&w&w&w&w&w&w&w&w&w&x&y&z&A&B&C&D&E&F&F&G&G&H&I&J&K&L&M&N&O&P&Q&R&S&T&U&V&W&W&X&X&Y&Z&`& *.*+*+*+*+*+*+*+*+*+*+*+*+*+*t&u&",
"@*#*#*#*#*#*#*#*#*#*#*#*#*$*$*$*#*#*#*%*&***=*-*;*>*,*'*'*)*!*~*{*{*]*^*/*(*_*:*<*[*}*|*1*2*3*4*5*6*7*8*9*0*a*b*c*d*e*f*g*g*g*g*g*g*g*g*g*g*g*g*g*g*h*i*",
"j*k*k*k*k*k*k*k*k*k*k*k*k*l*m*m*n*o*p*q*r*r*s*s*t*u*v*w*x*y*z*A*B*C*D*E*E*F*G*H*I*J*K*L*M*N*O*P*Q*R*S*T*U*V*W*X*Y*Z*`* = = = = = = = = = = = = = = =.=+=",
"@=@=@=@=@=@=@=@=@=@=@=@=@=@=@=@=@=@=@=@=@=@=@=@=@=@=@=@=@=@=@=@=@=@=@=@=@=@=@=@=@=@=@=@=@=@=@=@=@=@=@=@=@=@=@=@=@=@=@=@=@=@=@=@=@=@=@=@=@=@=@=@=@=@=.=+=",
"@=@=@=@=@=@=@=@=@=@=@=@=@=@=@=@=@=@=@=@=@=@=@=@=@=@=@=@=@=@=@=@=@=@=@=@=@=@=@=@=@=@=@=@=@=@=@=@=@=@=@=@=@=@=@=@=@=@=@=@=@=@=@=@=@=@=@=@=@=@=@=@=@=@=.=+="};
