/* XPM */
static char * taskbuttonactive_xpm[] = {
"146 18 139 2",
"  	c None",
". 	c #787C8B",
"+ 	c #6C707D",
"@ 	c #666A76",
"# 	c #666A75",
"$ 	c #595D69",
"% 	c #1E1F21",
"& 	c #1C1E20",
"* 	c #1F2124",
"= 	c #212327",
"- 	c #232629",
"; 	c #25282D",
"> 	c #292D32",
", 	c #282C31",
"' 	c #272A2F",
") 	c #25282C",
"! 	c #222528",
"~ 	c #202225",
"{ 	c #1F2123",
"] 	c #252628",
"^ 	c #51545D",
"/ 	c #515663",
"( 	c #1D1F22",
"_ 	c #212326",
": 	c #242629",
"< 	c #25282B",
"[ 	c #282A2E",
"} 	c #2B2F33",
"| 	c #303339",
"1 	c #2E3338",
"2 	c #2D3135",
"3 	c #2A2E32",
"4 	c #272A2D",
"5 	c #24272A",
"6 	c #1B1C1E",
"7 	c #444751",
"8 	c #4B4F5C",
"9 	c #1F2023",
"0 	c #26282C",
"a 	c #2A2D31",
"b 	c #2D3136",
"c 	c #32363C",
"d 	c #30353B",
"e 	c #2F3339",
"f 	c #2C3034",
"g 	c #292C30",
"h 	c #26292D",
"i 	c #25272A",
"j 	c #40434E",
"k 	c #454856",
"l 	c #1F2024",
"m 	c #1D1E21",
"n 	c #3B3E49",
"o 	c #3E4350",
"p 	c #2F3338",
"q 	c #1E1F22",
"r 	c #373A44",
"s 	c #393D4B",
"t 	c #333641",
"u 	c #343745",
"v 	c #222427",
"w 	c #31363C",
"x 	c #1E2022",
"y 	c #30343E",
"z 	c #262834",
"A 	c #1B1D20",
"B 	c #27292D",
"C 	c #282B2E",
"D 	c #2B2E32",
"E 	c #2E3236",
"F 	c #32373D",
"G 	c #303439",
"H 	c #272A2E",
"I 	c #26282B",
"J 	c #282A34",
"K 	c #21222E",
"L 	c #0B0D11",
"M 	c #0B0D10",
"N 	c #0C0F12",
"O 	c #0D1114",
"P 	c #111419",
"Q 	c #14181D",
"R 	c #1A1E25",
"S 	c #181D24",
"T 	c #161B20",
"U 	c #13171C",
"V 	c #101317",
"W 	c #0C1013",
"X 	c #0C0E11",
"Y 	c #080A0D",
"Z 	c #1B1D26",
"` 	c #1F202B",
" .	c #0A0D10",
"..	c #0D1014",
"+.	c #0F1216",
"@.	c #12151A",
"#.	c #15191E",
"$.	c #1A1F26",
"%.	c #191E25",
"&.	c #171C21",
"*.	c #111418",
"=.	c #0E1215",
"-.	c #0D0F12",
";.	c #090C0E",
">.	c #191A24",
",.	c #1C1E29",
"'.	c #0D1013",
").	c #0A0C0F",
"!.	c #171A23",
"~.	c #1A1C27",
"{.	c #1B1F26",
"].	c #161821",
"^.	c #181A24",
"/.	c #0A0C0E",
"(.	c #14161E",
"_.	c #161822",
":.	c #13151D",
"<.	c #14161F",
"[.	c #090D0F",
"}.	c #11131A",
"|.	c #1C1326",
"1.	c #111219",
"2.	c #0C0F11",
"3.	c #0D1113",
"4.	c #1A1E24",
"5.	c #181D23",
"6.	c #13171B",
"7.	c #0C1012",
"8.	c #0C0E10",
"9.	c #0C0E12",
"0.	c #13141C",
"a.	c #1D1F2C",
"b.	c #14131D",
"c.	c #12121B",
"d.	c #12131C",
"e.	c #14151D",
"f.	c #13141D",
"g.	c #13131C",
"h.	c #12121A",
". + @ @ @ @ @ @ @ @ @ @ @ @ @ @ @ @ @ @ @ @ @ @ @ @ @ @ @ @ @ @ @ @ @ @ @ @ @ @ @ @ @ @ @ @ @ @ @ @ @ @ @ @ @ @ @ @ @ @ @ @ @ @ @ @ @ @ @ @ @ @ @ @ @ @ @ @ @ @ @ @ @ @ @ @ @ @ @ @ @ @ @ @ @ @ @ @ @ @ @ @ @ @ @ @ @ @ @ @ @ @ @ @ @ @ @ @ @ @ @ @ @ @ @ @ @ @ @ @ @ @ @ @ @ @ @ @ @ @ @ @ @ # @ . ",
"$ % & * = - ; ; ; ; ; > > > > > > > > > > > > > > > > > > > > > > > > > > , , , , , , , , , , , , , , , , , ' ' ' ' ' ' > , , , , , , , , , , , , , , , , , ' ' ' ' ' ' > > > > > > > > > > > > > > > > > > > > > > , , , , , , , , , , , , , , , , , ' ' ' ' ' ' ' ' ' ' ' ' ' ' ' ' ' ) ! ~ { ] ^ ",
"/ ( _ : < [ } } } } } | | | | | | | | | | | | | | | | | | | | | | | | | | 1 1 1 1 1 1 1 1 1 1 1 1 1 1 1 1 1 2 2 2 2 2 2 | 1 1 1 1 1 1 1 1 1 1 1 1 1 1 1 1 1 2 2 2 2 2 2 | | | | | | | | | | | | | | | | | | | | | | 1 1 1 1 1 1 1 1 1 1 1 1 1 1 1 1 1 2 2 2 2 2 2 2 2 2 2 2 2 2 2 2 2 2 3 4 5 : 6 7 ",
"8 9 _ 0 4 a b b b b b c c c c c c c c c c c c c c c c c c c c c c c c c c d d d d d d d d d d d d d d d d d e e e e e e c d d d d d d d d d d d d d d d d d e e e e e e c c c c c c c c c c c c c c c c c c c c c c d d d d d d d d d d d d d d d d d e e e e e e e e e e e e e e e e e f g h i & j ",
"k l _ 0 4 a b b b b b c c c c c c c c c c c c c c c c c c c c c c c c c c d d d d d d d d d d d d d d d d d e e e e e e c d d d d d d d d d d d d d d d d d e e e e e e c c c c c c c c c c c c c c c c c c c c c c d d d d d d d d d d d d d d d d d e e e e e e e e e e e e e e e e e f g h i m n ",
"o * _ 0 4 a 2 2 2 2 2 c c c c c c c c c c c c c c c c c c c c c c c c c c d d d d d d d d d d d d d d d d d p p p p p p c d d d d d d d d d d d d d d d d d p p p p p p c c c c c c c c c c c c c c c c c c c c c c d d d d d d d d d d d d d d d d d p p p p p p p p p p p p p p p p p f g h i q r ",
"s l _ 0 4 a 2 2 2 2 2 c c c c c c c c c c c c c c c c c c c c c c c c c c d d d d d d d d d d d d d d d d d p p p p p p c d d d d d d d d d d d d d d d d d p p p p p p c c c c c c c c c c c c c c c c c c c c c c d d d d d d d d d d d d d d d d d p p p p p p p p p p p p p p p p p f g h i q t ",
"u ~ v 0 4 a 2 2 2 2 2 w w w w w w w w w w w w w w w w w w w w w w w w w w d d d d d d d d d d d d d d d d d p p p p p p w d d d d d d d d d d d d d d d d d p p p p p p w w w w w w w w w w w w w w w w w w w w w w d d d d d d d d d d d d d d d d d p p p p p p p p p p p p p p p p p f g h i x y ",
"z A v B C D E E E E E F F F F F F F F F F F F F F F F F F F F F F F F F F w w w w w w w w w w w w w w w w w G G G G G G F w w w w w w w w w w w w w w w w w G G G G G G F F F F F F F F F F F F F F F F F F F F F F w w w w w w w w w w w w w w w w w G G G G G G G G G G G G G G G G G 2 a H I ~ J ",
"K L M N O P Q Q Q Q Q R R R R R R R R R R R R R R R R R R R R R R R R R R S S S S S S S S S S S S S S S S S T T T T T T R S S S S S S S S S S S S S S S S S T T T T T T R R R R R R R R R R R R R R R R R R R R R R S S S S S S S S S S S S S S S S S T T T T T T T T T T T T T T T T T U V W X Y Z ",
"`  .M ..+.@.#.#.#.#.#.$.$.$.$.$.$.$.$.$.$.$.$.$.$.$.$.$.$.$.$.$.$.$.$.$.$.%.%.%.%.%.%.%.%.%.%.%.%.%.%.%.%.%.&.&.&.&.&.&.$.%.%.%.%.%.%.%.%.%.%.%.%.%.%.%.%.%.&.&.&.&.&.&.$.$.$.$.$.$.$.$.$.$.$.$.$.$.$.$.$.$.$.$.$.$.%.%.%.%.%.%.%.%.%.%.%.%.%.%.%.%.%.&.&.&.&.&.&.&.&.&.&.&.&.&.&.&.&.&.Q *.=.-.;.>.",
",.L M '.=.@.#.#.#.#.#.$.$.$.$.$.$.$.$.$.$.$.$.$.$.$.$.$.$.$.$.$.$.$.$.$.$.%.%.%.%.%.%.%.%.%.%.%.%.%.%.%.%.%.&.&.&.&.&.&.$.%.%.%.%.%.%.%.%.%.%.%.%.%.%.%.%.%.&.&.&.&.&.&.$.$.$.$.$.$.$.$.$.$.$.$.$.$.$.$.$.$.$.$.$.$.%.%.%.%.%.%.%.%.%.%.%.%.%.%.%.%.%.&.&.&.&.&.&.&.&.&.&.&.&.&.&.&.&.&.Q *.O -.).!.",
"~.M M '.=.@.#.#.#.#.#.{.{.{.{.{.{.{.{.{.{.{.{.{.{.{.{.{.{.{.{.{.{.{.{.{.{.%.%.%.%.%.%.%.%.%.%.%.%.%.%.%.%.%.&.&.&.&.&.&.{.%.%.%.%.%.%.%.%.%.%.%.%.%.%.%.%.%.&.&.&.&.&.&.{.{.{.{.{.{.{.{.{.{.{.{.{.{.{.{.{.{.{.{.{.{.%.%.%.%.%.%.%.%.%.%.%.%.%.%.%.%.%.&.&.&.&.&.&.&.&.&.&.&.&.&.&.&.&.&.Q *.O -.).].",
"^.M M '.=.@.#.#.#.#.#.{.{.{.{.{.{.{.{.{.{.{.{.{.{.{.{.{.{.{.{.{.{.{.{.{.{.%.%.%.%.%.%.%.%.%.%.%.%.%.%.%.%.%.&.&.&.&.&.&.{.%.%.%.%.%.%.%.%.%.%.%.%.%.%.%.%.%.&.&.&.&.&.&.{.{.{.{.{.{.{.{.{.{.{.{.{.{.{.{.{.{.{.{.{.{.%.%.%.%.%.%.%.%.%.%.%.%.%.%.%.%.%.&.&.&.&.&.&.&.&.&.&.&.&.&.&.&.&.&.Q *.O -./.(.",
"_. .M '.=.@.#.#.#.#.#.{.{.{.{.{.{.{.{.{.{.{.{.{.{.{.{.{.{.{.{.{.{.{.{.{.{.%.%.%.%.%.%.%.%.%.%.%.%.%.%.%.%.%.&.&.&.&.&.&.{.%.%.%.%.%.%.%.%.%.%.%.%.%.%.%.%.%.&.&.&.&.&.&.{.{.{.{.{.{.{.{.{.{.{.{.{.{.{.{.{.{.{.{.{.{.%.%.%.%.%.%.%.%.%.%.%.%.%.%.%.%.%.&.&.&.&.&.&.&.&.&.&.&.&.&.&.&.&.&.Q *.O -.).:.",
"<.[.M '.=.@.#.#.#.#.#.{.{.{.{.{.{.{.{.{.{.{.{.{.{.{.{.{.{.{.{.{.{.{.{.{.{.%.%.%.%.%.%.%.%.%.%.%.%.%.%.%.%.%.&.&.&.&.&.&.{.%.%.%.%.%.%.%.%.%.%.%.%.%.%.%.%.%.&.&.&.&.&.&.{.{.{.{.{.{.{.{.{.{.{.{.{.{.{.{.{.{.{.{.{.{.%.%.%.%.%.%.%.%.%.%.%.%.%.%.%.%.%.&.&.&.&.&.&.&.&.&.&.&.&.&.&.&.&.&.Q *.O -.).}.",
"|.1.M 2.3.*.Q Q Q Q Q 4.4.4.4.4.4.4.4.4.4.4.4.4.4.4.4.4.4.4.4.4.4.4.4.4.4.5.5.5.5.5.5.5.5.5.5.5.5.5.5.5.5.5.T T T T T T 4.5.5.5.5.5.5.5.5.5.5.5.5.5.5.5.5.5.T T T T T T 4.4.4.4.4.4.4.4.4.4.4.4.4.4.4.4.4.4.4.4.4.4.5.5.5.5.5.5.5.5.5.5.5.5.5.5.5.5.5.T T T T T T T T T T T T T T T T T 6.V 7.8.9.0.",
"a.b.c.c.c.d.0.0.0.0.0.e.e.e.e.e.e.e.e.e.e.e.e.e.e.e.e.e.e.e.e.e.e.e.e.e.e.f.f.f.f.f.f.f.f.f.f.f.f.f.f.f.f.f.0.0.0.0.0.0.e.f.f.f.f.f.f.f.f.f.f.f.f.f.f.f.f.f.0.0.0.0.0.0.e.e.e.e.e.e.e.e.e.e.e.e.e.e.e.e.e.e.e.e.e.e.f.f.f.f.f.f.f.f.f.f.f.f.f.f.f.f.f.0.0.0.0.0.0.0.0.0.0.0.0.0.0.0.0.0.g.d.c.h.d.a."};
