/* XPM */
static char *taskb_hide[] = {
/* columns rows colors chars-per-pixel */
"22 25 3 1",
"  c black",
". c gray100",
"X c None",
/* pixels */
"XXXXXXXXXXXXXXXXXXXXXX",
"XXXXXXXXXXXXXXXXXXXXXX",
"XXXXXXXXXXXXXXXXXXXXXX",
"XXXXXXXXXXXXXXXXXXXXXX",
"XXXXXXXXXXXXXXXXXXXXXX",
"XXXXXXXXXXXXXXXXXXXXXX",
"XXXXXXXXXXXXXXXXXXXXXX",
"XXXXXXXXXXXXXX...XXXXX",
"XXXXXXXXXXXXXX...XXXXX",
"XXXXXXXXX.XXXX...XXXXX",
"XXXXXXXXX..XXX...XXXXX",
"XXXXXX......XX...XXXXX",
"XXXXXX.......X...XXXXX",
"XXXXXX......XX...XXXXX",
"XXXXXXXXX..XXX...XXXXX",
"XXXXXXXXX.XXXX...XXXXX",
"XXXXXXXXXXXXXX...XXXXX",
"XXXXXXXXXXXXXX...XXXXX",
"XXXXXXXXXXXXXXXXXXXXXX",
"XXXXXXXXXXXXXXXXXXXXXX",
"XXXXXXXXXXXXXXXXXXXXXX",
"XXXXXXXXXXXXXXXXXXXXXX",
"XXXXXXXXXXXXXXXXXXXXXX",
"XXXXXXXXXXXXXXXXXXXXXX",
"XXXXXXXXXXXXXXXXXXXXXX"
};
