/* XPM */
static char * windowsbuttonA_xpm[] = {
"18 25 34 1",
" 	c None",
".	c #C2CD95",
"+	c #B5C18C",
"@	c #9DA97B",
"#	c #AAB688",
"$	c #A2AE80",
"%	c #96A375",
"&	c #A8B682",
"*	c #ADBA84",
"=	c #ADBC86",
"-	c #5E6849",
";	c #677151",
">	c #687352",
",	c #859368",
"'	c #A5B67B",
")	c #424931",
"!	c #697453",
"~	c #7D876F",
"{	c #6B7652",
"]	c #94A26B",
"^	c #889279",
"/	c #8D977E",
"(	c #454C32",
"_	c #6F7B57",
":	c #474E35",
"<	c #6F7A57",
"[	c #495037",
"}	c #BFC8A8",
"|	c #9FB17C",
"1	c #88946E",
"2	c #87956A",
"3	c #BBC98F",
"4	c #97A776",
"5	c #78855D",
" .+@########$@%&. ",
"*=-;>>>;>;;>>>>-,*",
"')!~~~~~~~~~~~~~{'",
"])~^////////////{]",
"])~/////////////{]",
"])~/////////////{]",
"])~/////////////!]",
"])~/////////////!]",
"](~/////////////{]",
"](~/////////////{]",
"](~/////////////_]",
"](~/////////////_]",
"](~/////////////_]",
"](~/////////////_]",
"](~/////////////_]",
"]:~/////////////_]",
"]:~/////////////<]",
"]:~/////////////<]",
"]:~/////////////<]",
"][~/////////////<]",
"][~/////////////_]",
"]:~/////////////_]",
"])~/////////////!]",
"}|~1////////////2}",
" 3455555555555543 "};
