/* XPM */
static char * desktop_xpm[] = {
"21 20 96 2",
"  	c None",
". 	c #7D879B",
"+ 	c #727A8A",
"@ 	c #B6B6B3",
"# 	c #B5B5B4",
"$ 	c #B6B6B4",
"% 	c #B7B8B5",
"& 	c #B8B8B6",
"* 	c #A9A9AA",
"= 	c #6F7C8E",
"- 	c #949BAC",
"; 	c #A4A8B4",
"> 	c #6D7887",
", 	c #ADAFA3",
"' 	c #BDBFAD",
") 	c #BBBDAB",
"! 	c #BABBAA",
"~ 	c #B7B8A7",
"{ 	c #B5B7A6",
"] 	c #B3B5A4",
"^ 	c #8B908E",
"/ 	c #545B70",
"( 	c #B4B4B3",
"_ 	c #B1B39F",
": 	c #AFB19D",
"< 	c #ADAF9B",
"[ 	c #ABAD99",
"} 	c #A8AA97",
"| 	c #A6A895",
"1 	c #A4A693",
"2 	c #A1A391",
"3 	c #8E8F83",
"4 	c #E0E0E0",
"5 	c #ACADA6",
"6 	c #ABAD9A",
"7 	c #A9AB98",
"8 	c #A7A996",
"9 	c #A5A794",
"0 	c #A2A492",
"a 	c #A0A290",
"b 	c #9EA08D",
"c 	c #9B9D8B",
"d 	c #999B89",
"e 	c #A1A29E",
"f 	c #E2E2E1",
"g 	c #A7A89C",
"h 	c #A3A592",
"i 	c #A1A390",
"j 	c #9FA18E",
"k 	c #9C9E8C",
"l 	c #9A9C8A",
"m 	c #989A88",
"n 	c #959786",
"o 	c #939584",
"p 	c #84867D",
"q 	c #687083",
"r 	c #606A78",
"s 	c #9FA18F",
"t 	c #9D9F8D",
"u 	c #969887",
"v 	c #949685",
"w 	c #929482",
"x 	c #909280",
"y 	c #8C8E7E",
"z 	c #5A6471",
"A 	c #616B7F",
"B 	c #CBCCD0",
"C 	c #60728B",
"D 	c #4B6384",
"E 	c #666C6F",
"F 	c #929483",
"G 	c #909281",
"H 	c #8E907F",
"I 	c #8C8E7D",
"J 	c #898B7B",
"K 	c #878979",
"L 	c #858777",
"M 	c #838575",
"N 	c #61676C",
"O 	c #5D799E",
"P 	c #536C91",
"Q 	c #CCCDD1",
"R 	c #E1E1E1",
"S 	c #606676",
"T 	c #58606F",
"U 	c #777980",
"V 	c #91918F",
"W 	c #898986",
"X 	c #807F7D",
"Y 	c #787875",
"Z 	c #7F7F7D",
"` 	c #888886",
" .	c #908F8D",
"..	c #76787F",
"+.	c #586070",
"@.	c #656C7C",
"                                          ",
"                                          ",
"                                          ",
"                                          ",
"                                          ",
"                                          ",
"          . + @ # $ % & * = -             ",
"        ; > , ' ) ! ~ { ] ^ /             ",
"        ( ' _ : < [ } | 1 2 3 4           ",
"        5 : 6 7 8 9 0 a b c d e           ",
"      f g } 9 h i j k l m n o p           ",
"      q r i s t c d u v w x y z A         ",
"    B C D E F G H I J K L M N O P Q       ",
"    R S T U V W X Y Y Z `  ...+.@.R       ",
"                                          ",
"                                          ",
"                                          ",
"                                          ",
"                                          ",
"                                          "};
